<svg xmlns="http://www.w3.org/2000/svg" width="11.089" height="17.43" viewBox="0 0 11.089 17.43">
  <g id="_000000ff" data-name="#000000ff" transform="translate(-106.723 -21.352)">
    <path id="Path_20606" data-name="Path 20606" d="M111.949,21.361a5.548,5.548,0,0,1,5.57,3.757,5.713,5.713,0,0,1,.228,2.68,15.128,15.128,0,0,1-.988,3.453,37.439,37.439,0,0,1-2.145,4.394c-.532.941-1.087,1.87-1.681,2.773a.794.794,0,0,1-1.347-.022,49.427,49.427,0,0,1-2.538-4.368,28.444,28.444,0,0,1-1.774-4.161,9.549,9.549,0,0,1-.545-3.254,5.553,5.553,0,0,1,5.22-5.252m-.109,3.2a2.377,2.377,0,1,0,1.562.251A2.376,2.376,0,0,0,111.84,24.56Z" transform="translate(0 0)" fill="#666"/>
  </g>
</svg>
