<svg width="20" height="20" viewBox="0 0 20 20" fill="none" xmlns="http://www.w3.org/2000/svg">
<path d="M2.98872 0.12899C3.49178 0.00806202 4.01257 0.0112866 4.52692 0C8.0193 0.0048371 11.5117 0.00483714 15.0057 0.0016124C15.7925 0.0112866 16.61 -0.0403092 17.3614 0.240243C18.9173 0.802959 19.9944 2.38147 19.9895 4.03092C20.004 6.71874 20.0024 9.40816 19.9911 12.096C19.9879 14.1453 18.1821 15.9802 16.1327 16.0027C12.2066 16.0124 8.2789 15.9947 4.35278 16.0124C2.5695 16.172 0.776549 15.024 0.221895 13.3133C-0.0296345 12.6103 -0.00061136 11.8541 0.00261337 11.1189C0.00583811 8.70195 0.00100101 6.2834 0.00261337 3.86485C0.0106752 2.13316 1.32637 0.55143 2.98872 0.12899ZM3.0645 2.25086C2.43568 2.59914 1.99066 3.28762 2.01001 4.01802C1.9955 6.01091 2.01162 8.00379 2.00356 9.99668C7.33566 10.0015 12.6678 10.0015 17.9999 9.99829C17.9886 8.0054 18.0128 6.01252 17.9886 4.01963C17.9982 2.94902 17.0502 1.97837 15.9667 2.02352C12.2582 2.01062 8.54977 2.02513 4.84294 2.01707C4.24636 2.0203 3.6127 1.97031 3.0645 2.25086ZM1.97938 12.0202C2.05516 12.6732 2.32926 13.3343 2.91455 13.6874C3.42083 14.0905 4.09319 13.9825 4.6946 13.9905C8.50946 13.9889 12.3259 13.9921 16.1408 13.9921C17.1776 13.9825 17.9644 13.007 18.024 12.0186C12.6758 12.0105 7.3276 12.0154 1.97938 12.0202Z" fill="#474747"/>
<path d="M5.00462 17.9779C8.33578 17.9827 11.6669 17.9827 14.9965 17.9795C14.9997 18.6519 14.9997 19.3242 14.9997 19.9966C11.6669 19.9966 8.33416 19.9966 5.00301 19.9966C5.0014 19.3242 5.0014 18.6519 5.00462 17.9779Z" fill="#474747"/>
<rect x="6.69608" y="7.71586" width="0.903881" height="2.35009" stroke="#2D2D2D" stroke-width="0.903881"/>
<rect x="9.22733" y="4.8234" width="0.903881" height="5.24251" stroke="#2D2D2D" stroke-width="0.903881"/>
<rect x="11.7586" y="6.26957" width="0.903881" height="3.7963" stroke="#2D2D2D" stroke-width="0.903881"/>
</svg>
