<svg xmlns="http://www.w3.org/2000/svg" width="12.871" height="7.667" viewBox="0 0 12.871 7.667">
  <g id="Group_17361" data-name="Group 17361" transform="translate(-1037.113 -1536.441)">
    <path id="Path_26993" data-name="Path 26993" d="M4.954,103.679a6.723,6.723,0,0,1,3.166.049,7.623,7.623,0,0,1,2.678,1.319,10.124,10.124,0,0,1,1.971,2,.569.569,0,0,1,.1.262v.06a.63.63,0,0,1-.177.384,10.023,10.023,0,0,1-1.883,1.887,7.474,7.474,0,0,1-3.169,1.433,6.723,6.723,0,0,1-3.3-.225,7.815,7.815,0,0,1-2.424-1.319,10.149,10.149,0,0,1-1.74-1.779A.632.632,0,0,1,0,107.366v-.038a.536.536,0,0,1,.1-.283,9.862,9.862,0,0,1,2.34-2.26,7.4,7.4,0,0,1,2.515-1.107m1.064.994a2.7,2.7,0,1,0,2.059,4.819,2.7,2.7,0,0,0-2.059-4.819Z" transform="translate(1037.113 1432.927)" fill="#fff"/>
    <path id="Path_26994" data-name="Path 26994" d="M199.33,198.04a1.457,1.457,0,0,1,1.634,1.011,1.415,1.415,0,0,1-.015.881,1.458,1.458,0,0,1-.931.928,1.415,1.415,0,0,1-.846.019,1.452,1.452,0,0,1-1.049-1.572,1.474,1.474,0,0,1,.686-1.066A1.546,1.546,0,0,1,199.33,198.04Z" transform="translate(843.98 1340.796)" fill="#fff"/>
  </g>
</svg>
