<svg xmlns="http://www.w3.org/2000/svg" width="25.064" height="22.976" viewBox="0 0 25.064 22.976">
  <path id="Path_27002" data-name="Path 27002" d="M18.537,21.333c-2.78,0-5.076,2.582-6.005,3.8-.929-1.219-3.225-3.8-6.005-3.8C2.928,21.333,0,24.642,0,28.709a7.7,7.7,0,0,0,2.422,5.7.516.516,0,0,0,.082.107l9.659,9.639a.522.522,0,0,0,.738,0l9.98-9.977.1-.1c.082-.077.162-.155.252-.255a.508.508,0,0,0,.093-.124,7.883,7.883,0,0,0,1.734-4.991C25.064,24.642,22.136,21.333,18.537,21.333Zm3.924,11.779a.486.486,0,0,0-.039.053c-.049.056-.1.106-.156.156l-9.735,9.728L3.362,33.9a.524.524,0,0,0-.121-.156,6.641,6.641,0,0,1-2.2-5.033c0-3.491,2.459-6.331,5.483-6.331,2.989,0,5.54,3.9,5.566,3.938a.543.543,0,0,0,.878,0c.026-.039,2.577-3.938,5.566-3.938,3.023,0,5.483,2.84,5.483,6.331A6.829,6.829,0,0,1,22.461,33.112Z" transform="translate(0 -21.333)" fill="#707070"/>
</svg>
