<svg xmlns="http://www.w3.org/2000/svg" width="13.781" height="13.779" viewBox="0 0 13.781 13.779">
  <g id="_000000ff" data-name="#000000ff" transform="translate(-23.995 -24.022)">
    <path id="Path_19608" data-name="Path 19608" d="M395.685,24.385a1.442,1.442,0,0,1,2.248,1.717,2.593,2.593,0,0,1-.564.673l-2.039-2.04C395.448,24.618,395.562,24.5,395.685,24.385Z" transform="translate(-360.307)" fill="#666"/>
    <path id="Path_19609" data-name="Path 19609" d="M26.177,56.138a1.9,1.9,0,0,1,1.376.011,1.961,1.961,0,0,1,.955.832,1.94,1.94,0,0,0-.93,1.435.97.97,0,0,0-.728.925h.473a.493.493,0,0,1,.242-.411.47.47,0,0,1,.572.077.5.5,0,0,1,.144.334h.473a.963.963,0,0,0-.7-.913,1.424,1.424,0,0,1,2.782-.183,1.4,1.4,0,0,1,0,.748,1.2,1.2,0,0,0-.663,1.061h.474a.738.738,0,0,1,.213-.5.712.712,0,1,1,.5,1.217H24.98a.95.95,0,1,1,.845-1.32,1.037,1.037,0,0,1,.077.37h.474a1.431,1.431,0,0,0-1.366-1.423,1.9,1.9,0,0,1,1.166-2.255Z" transform="translate(-0.005 -31.042)" fill="#666"/>
    <path id="Path_19610" data-name="Path 19610" d="M371.28,59.727l.377-.377q1.021,1.018,2.04,2.039l-.377.377Z" transform="translate(-336.971 -34.278)" fill="#666"/>
    <path id="Path_19611" data-name="Path 19611" d="M317.34,84.587l1.267-1.267q.427.425.852.852l-1.1,1.1A4.378,4.378,0,0,0,317.34,84.587Z" transform="translate(-284.633 -57.537)" fill="#666"/>
    <path id="Path_19612" data-name="Path 19612" d="M363.03,124.418l1.1-1.1q.427.425.852.852-.634.634-1.269,1.268A4.41,4.41,0,0,0,363.03,124.418Z" transform="translate(-328.966 -96.349)" fill="#666"/>
    <path id="Path_19613" data-name="Path 19613" d="M217.61,128.84a3.823,3.823,0,0,1,3.379,3.656,2.777,2.777,0,0,1-.374,1.556,12.653,12.653,0,0,1-1.462,1.626,3.482,3.482,0,0,0-.633.989c-.363-.025-.728-.005-1.092-.012,0-.4,0-.793,0-1.189a.716.716,0,0,0-.484-.674,4.308,4.308,0,0,0-.761-.046.236.236,0,0,1,.056-.466c.723,0,1.446,0,2.169,0a1.3,1.3,0,0,0,.438-.039.712.712,0,0,0-.229-1.386c-.635,0-1.27,0-1.905,0a.235.235,0,0,1-.233-.233c0-.238,0-.477,0-.715.406,0,.812,0,1.219,0a1.187,1.187,0,0,0,.554-2.219,1.228,1.228,0,0,0-.6-.157A1.842,1.842,0,0,0,217.61,128.84Z" transform="translate(-186.305 -101.705)" fill="#666"/>
    <path id="Path_19614" data-name="Path 19614" d="M128.113,231.99c.847,0,1.695,0,2.542,0,0,.258-.005.516,0,.775a.714.714,0,0,0,.68.649c.644,0,1.287,0,1.931,0a.236.236,0,0,1,0,.473c-.8,0-1.606,0-2.409,0a.712.712,0,0,0,0,1.422c.169.006.339,0,.508,0a.236.236,0,0,1,.235.236c0,.4,0,.792,0,1.188-.364.007-.729-.014-1.092.012a3.921,3.921,0,0,0-.875-1.251,6.724,6.724,0,0,1-1.305-1.516A3.076,3.076,0,0,1,128.113,231.99Z" transform="translate(-100.958 -201.789)" fill="#666"/>
    <path id="Path_19615" data-name="Path 19615" d="M316.9,264.84a3.023,3.023,0,0,0,.293-1.2,1.082,1.082,0,0,0,.207.592.953.953,0,0,0,.965.341.976.976,0,0,0,.453-.255l.334.334a.943.943,0,0,0,.668,1.614v.471a.944.944,0,0,0-.667,1.614l-.334.333a.942.942,0,0,0-1.614.668h-.471a.942.942,0,0,0-1.614-.668l-.319-.32a.715.715,0,0,0-.128-.647,3.054,3.054,0,0,1,.648-1.01,1.677,1.677,0,0,0,.566,1.052,1.661,1.661,0,1,0,2.082-2.587A1.674,1.674,0,0,0,316.9,264.84Z" transform="translate(-282.042 -232.501)" fill="#666"/>
    <path id="Path_19616" data-name="Path 19616" d="M67.33,316.773l1.813-1.813a5.494,5.494,0,0,0,.782.922q-.871.872-1.743,1.743Z" transform="translate(-42.048 -282.297)" fill="#666"/>
    <path id="Path_19617" data-name="Path 19617" d="M352.994,320.047a1.175,1.175,0,0,1,.856.184,1.187,1.187,0,1,1-1.623,1.681,1.146,1.146,0,0,1-.178-1,8.09,8.09,0,0,0,.7-.761c.052-.081.162-.078.245-.1m.032.476a.713.713,0,1,0,.6.135A.717.717,0,0,0,353.026,320.523Z" transform="translate(-318.264 -287.216)" fill="#666"/>
    <path id="Path_19618" data-name="Path 19618" d="M384.216,351.963a.237.237,0,1,1-.074.4A.239.239,0,0,1,384.216,351.963Z" transform="translate(-349.371 -318.186)" fill="#666"/>
    <path id="Path_19619" data-name="Path 19619" d="M107.33,358.956l1.746-1.746a4.34,4.34,0,0,1,.764.94q-.829.829-1.658,1.658Z" transform="translate(-80.86 -323.292)" fill="#666"/>
    <path id="Path_19620" data-name="Path 19620" d="M39.275,390.37q.93.928,1.858,1.858c-.523.2-1.048.4-1.571.606q-.448-.445-.892-.892C38.873,391.418,39.073,390.894,39.275,390.37Z" transform="translate(-14.24 -355.467)" fill="#666"/>
    <path id="Path_19621" data-name="Path 19621" d="M208.159,407.994a.462.462,0,0,1,.137-.014c.773,0,1.546,0,2.32,0a.236.236,0,0,1,0,.473c-.784,0-1.568,0-2.351,0a.245.245,0,0,1-.253-.16A.238.238,0,0,1,208.159,407.994Z" transform="translate(-178.539 -372.554)" fill="#666"/>
    <path id="Path_19622" data-name="Path 19622" d="M208.157,439.994a.455.455,0,0,1,.136-.014c.773,0,1.547,0,2.32,0a.236.236,0,0,1,0,.473c-.783,0-1.566,0-2.349,0a.245.245,0,0,1-.252-.16A.238.238,0,0,1,208.157,439.994Z" transform="translate(-178.538 -403.604)" fill="#666"/>
    <path id="Path_19623" data-name="Path 19623" d="M24.243,459.7c.2.2.4.393.591.592-.207.078-.412.161-.62.237a.163.163,0,0,1-.212-.2C24.078,460.121,24.164,459.911,24.243,459.7Z" transform="translate(0 -422.738)" fill="#666"/>
    <path id="Path_19624" data-name="Path 19624" d="M227.81,472h1.675a.977.977,0,0,1-1.675,0Z" transform="translate(-197.762 -434.668)" fill="#666"/>
  </g>
</svg>
