<svg width="22" height="24" viewBox="0 0 22 24" fill="none" xmlns="http://www.w3.org/2000/svg">
<path fill-rule="evenodd" clip-rule="evenodd" d="M20.709 7.01064L20.0091 5.79616C19.417 4.76853 18.1049 4.41402 17.0758 5.00366C16.586 5.29222 16.0015 5.37408 15.4512 5.23121C14.901 5.08833 14.4301 4.73245 14.1425 4.24204C13.9575 3.93032 13.8581 3.57528 13.8544 3.21282C13.8711 2.6317 13.6518 2.06857 13.2466 1.65171C12.8414 1.23485 12.2847 0.999761 11.7033 1H10.2933C9.72371 1 9.17763 1.22695 8.77586 1.63065C8.37409 2.03436 8.14976 2.58152 8.1525 3.15107C8.13561 4.32699 7.17748 5.27138 6.00143 5.27126C5.63897 5.26749 5.28392 5.16808 4.97221 4.98308C3.94317 4.39343 2.63103 4.74794 2.03894 5.77557L1.28761 7.01064C0.696233 8.03699 1.04592 9.3483 2.06981 9.94391C2.73536 10.3282 3.14536 11.0383 3.14536 11.8068C3.14536 12.5753 2.73536 13.2854 2.06981 13.6697C1.04722 14.2613 0.697151 15.5694 1.28761 16.5927L1.99777 17.8174C2.27519 18.318 2.74065 18.6874 3.29115 18.8439C3.84166 19.0003 4.43182 18.9309 4.93104 18.6511C5.4218 18.3647 6.00663 18.2863 6.55551 18.4332C7.1044 18.5801 7.57187 18.9401 7.85402 19.4333C8.03903 19.745 8.13844 20.1001 8.1422 20.4625C8.1422 21.6505 9.10527 22.6136 10.2933 22.6136H11.7033C12.8873 22.6136 13.8487 21.6568 13.8544 20.4728C13.8516 19.9015 14.0774 19.3527 14.4814 18.9487C14.8854 18.5447 15.4341 18.319 16.0054 18.3218C16.367 18.3314 16.7206 18.4304 17.0347 18.6099C18.061 19.2013 19.3723 18.8516 19.9679 17.8277L20.709 16.5927C20.9958 16.1003 21.0745 15.514 20.9277 14.9634C20.7809 14.4128 20.4207 13.9435 19.9268 13.6594C19.4329 13.3753 19.0726 12.9059 18.9258 12.3554C18.779 11.8048 18.8577 11.2185 19.1446 10.7261C19.3311 10.4005 19.6011 10.1304 19.9268 9.94391C20.9445 9.34862 21.2934 8.04497 20.709 7.02093V7.01064Z" stroke="black" stroke-width="1.5" stroke-linecap="round" stroke-linejoin="round"/>
<path opacity="0.4" d="M11.0032 14.771C12.6403 14.771 13.9674 13.4439 13.9674 11.8068C13.9674 10.1697 12.6403 8.84265 11.0032 8.84265C9.36616 8.84265 8.03906 10.1697 8.03906 11.8068C8.03906 13.4439 9.36616 14.771 11.0032 14.771Z" stroke="black" stroke-width="1.5" stroke-linecap="round" stroke-linejoin="round"/>
</svg>
