<?xml version="1.0" encoding="UTF-8" ?>
<!DOCTYPE svg PUBLIC "-//W3C//DTD SVG 1.1//EN" "http://www.w3.org/Graphics/SVG/1.1/DTD/svg11.dtd">
<svg width="276pt" height="116pt" viewBox="0 0 276 116" version="1.1" xmlns="http://www.w3.org/2000/svg">
<g id="#494949f9">
<path fill="#494949" opacity="0.98" d=" M 14.45 32.25 C 24.20 25.23 35.70 19.64 47.97 19.83 C 52.00 20.05 56.45 20.61 59.55 23.45 C 62.69 26.27 62.99 31.02 61.81 34.83 C 56.50 52.63 46.51 68.62 41.05 86.36 C 45.24 80.94 47.91 74.53 52.08 69.08 C 58.22 59.74 65.18 50.95 72.59 42.58 C 80.46 35.03 87.46 25.67 98.02 21.75 C 102.55 19.84 106.87 23.46 109.28 27.00 C 110.08 28.36 111.26 30.09 110.20 31.66 C 108.27 30.18 106.60 27.98 104.00 27.76 C 98.71 27.93 94.20 31.12 90.10 34.16 C 72.89 47.66 58.21 64.48 47.51 83.58 C 45.66 86.88 44.21 90.39 42.16 93.57 C 38.42 93.15 35.69 89.99 34.18 86.77 C 33.16 84.55 34.46 82.22 35.04 80.07 C 41.00 63.48 49.56 47.94 55.17 31.22 C 55.96 28.94 56.59 25.37 53.62 24.43 C 47.76 22.99 41.67 24.98 36.35 27.42 C 29.09 31.13 22.23 35.75 16.36 41.42 C 12.78 44.98 9.08 49.56 10.10 54.98 C 13.92 56.03 17.87 54.82 21.41 53.39 C 28.28 50.36 34.25 45.68 39.80 40.70 C 40.25 39.59 43.81 38.53 42.75 40.65 C 38.81 46.26 33.85 51.23 28.29 55.25 C 23.44 58.65 16.96 61.41 11.12 58.86 C 7.40 57.33 3.01 54.58 2.96 50.07 C 3.12 42.50 8.81 36.60 14.45 32.25 M 15.51 33.50 C 10.22 37.46 5.09 42.84 4.56 49.77 C 4.16 52.65 6.91 54.52 8.83 56.15 C 8.34 53.57 8.14 50.83 9.32 48.39 C 11.88 42.95 16.55 38.89 21.17 35.20 C 28.96 29.38 37.46 23.81 47.31 22.46 C 47.01 22.22 46.41 21.73 46.10 21.49 C 34.88 21.68 24.39 26.97 15.51 33.50 M 91.79 26.68 C 87.18 30.05 82.95 33.93 79.16 38.20 C 75.52 41.88 71.73 45.44 68.63 49.61 C 64.91 54.49 60.28 58.78 57.66 64.40 C 63.64 57.79 69.06 50.63 75.70 44.62 C 81.94 38.85 88.21 32.92 95.63 28.67 C 99.09 26.62 103.21 25.81 107.15 26.81 C 105.46 25.02 103.69 22.88 101.03 22.73 C 97.60 22.96 94.55 24.78 91.79 26.68 M 56.37 23.74 C 57.36 26.34 57.63 29.16 56.58 31.80 C 51.17 47.99 42.99 63.06 37.02 79.03 C 36.38 80.96 35.53 82.89 35.40 84.95 C 35.95 88.18 38.71 90.58 41.54 91.96 C 42.69 89.83 43.77 87.65 44.46 85.33 C 42.42 86.28 42.46 89.93 40.10 89.93 C 38.37 87.17 40.47 83.98 41.17 81.17 C 46.63 66.04 54.56 51.92 59.68 36.66 C 60.32 34.50 61.09 32.28 60.87 29.99 C 60.54 27.28 58.44 25.30 56.37 23.74 M 23.32 54.20 C 19.62 56.14 15.43 56.68 11.37 57.40 C 19.72 60.37 28.24 54.56 33.52 48.48 C 29.92 50.03 26.92 52.64 23.32 54.20 M 52.98 71.04 C 54.22 71.26 55.48 69.45 54.86 68.36 C 53.55 67.93 52.48 69.95 52.98 71.04 M 51.01 73.97 C 52.33 74.05 53.44 72.22 52.98 71.04 C 51.66 70.98 50.53 72.78 51.01 73.97 M 49.01 77.12 C 50.35 77.04 51.40 75.21 51.01 73.97 C 49.61 73.96 48.71 75.90 49.01 77.12 M 48.24 77.32 C 48.18 77.74 48.06 78.57 48.00 78.98 C 48.32 78.70 48.96 78.15 49.28 77.87 L 49.01 77.12 L 48.24 77.32 M 46.72 80.09 L 46.99 80.83 C 47.30 80.56 47.94 80.02 48.25 79.75 L 48.00 78.98 C 47.68 79.26 47.04 79.81 46.72 80.09 M 45.11 83.73 C 46.49 84.08 47.35 81.94 46.99 80.83 C 45.71 80.77 44.56 82.59 45.11 83.73 Z" />
<path fill="#494949" opacity="0.98" d=" M 171.75 23.70 C 175.38 23.84 178.54 27.47 179.05 30.91 C 175.42 37.14 170.66 42.72 166.73 48.79 C 170.79 48.99 174.83 48.41 178.78 47.53 C 178.68 46.82 178.47 45.41 178.37 44.71 C 181.56 45.32 184.13 47.92 185.01 50.99 C 184.51 53.40 182.59 55.23 181.27 57.24 C 177.60 62.39 173.34 67.24 170.82 73.10 C 181.31 66.80 188.33 56.25 198.59 49.65 C 203.05 46.85 208.35 43.69 213.80 45.30 C 216.42 45.94 218.21 48.43 218.36 51.07 C 219.04 53.94 216.48 56.02 214.45 57.53 C 207.68 62.19 200.01 66.11 191.66 66.57 C 190.26 68.85 188.82 71.25 188.78 74.01 C 196.89 72.63 203.76 67.76 210.72 63.67 C 220.17 57.98 226.99 47.99 238.03 45.06 C 241.23 43.99 244.45 45.45 246.66 47.79 C 250.86 41.29 255.70 35.18 259.37 28.35 C 260.31 26.93 259.77 25.22 259.74 23.65 C 263.83 24.04 269.12 29.61 265.49 33.42 C 259.34 41.93 253.44 50.63 247.16 59.05 C 243.95 63.57 240.58 68.01 238.23 73.05 C 245.56 69.00 250.95 62.35 257.31 57.04 C 257.79 56.98 258.75 56.86 259.23 56.80 C 258.89 58.12 258.34 59.38 257.38 60.36 C 252.71 65.72 247.74 70.82 242.51 75.63 C 240.57 77.11 238.64 79.25 236.02 79.22 C 233.88 78.54 232.16 76.84 231.04 74.95 C 229.91 72.84 231.37 70.75 232.06 68.79 C 227.10 72.30 222.99 77.47 217.01 79.24 C 211.71 79.57 209.42 73.38 210.75 69.04 C 205.81 73.28 200.36 77.28 193.96 78.89 C 187.83 80.78 181.78 74.95 181.55 68.97 C 178.18 72.82 174.53 76.67 169.95 79.07 C 166.08 79.81 161.43 74.43 163.74 70.78 C 167.53 63.45 172.88 57.09 177.35 50.19 C 172.84 51.98 168.09 52.99 163.27 53.49 C 162.05 55.25 160.82 56.99 159.61 58.75 C 161.10 64.01 161.48 69.54 160.92 74.97 L 159.44 75.82 C 159.52 72.85 159.61 69.89 159.59 66.93 C 159.18 79.10 153.22 90.31 145.34 99.30 C 143.21 101.65 140.30 103.04 137.67 104.76 C 140.55 106.08 143.68 104.99 145.80 102.82 C 153.15 95.84 157.99 86.17 159.12 76.07 C 159.56 77.22 159.98 78.37 160.37 79.54 C 157.96 89.25 153.23 98.91 145.26 105.24 C 140.10 109.67 132.12 104.02 131.82 98.10 C 133.34 87.82 139.19 78.93 143.76 69.81 C 142.23 71.01 140.90 72.44 139.58 73.87 L 138.79 74.11 C 138.47 74.07 137.82 73.97 137.50 73.92 C 138.71 72.51 139.93 71.10 141.11 69.66 C 138.35 71.32 135.94 73.60 132.91 74.77 C 130.81 74.65 131.91 72.55 132.36 71.39 C 135.80 64.45 141.16 58.72 145.39 52.29 C 146.65 50.29 144.01 48.70 143.07 47.21 C 138.85 55.95 131.80 62.95 127.53 71.65 C 126.06 74.29 129.01 76.80 131.23 77.71 C 133.25 77.65 134.48 75.72 135.94 74.62 C 136.19 74.88 136.70 75.42 136.96 75.69 L 136.69 76.20 C 134.77 77.78 132.06 80.40 129.46 78.63 C 127.11 77.09 124.39 74.00 126.11 71.10 C 129.86 63.52 135.48 57.09 139.95 49.96 C 141.09 48.45 140.98 46.54 140.95 44.75 C 144.50 45.43 149.19 49.74 146.48 53.41 C 142.07 59.95 136.71 65.90 133.21 73.01 C 137.48 70.92 140.77 67.43 144.31 64.35 C 147.89 61.04 151.73 57.81 154.14 53.50 C 149.88 51.99 152.14 47.59 154.89 45.81 C 156.20 46.33 157.52 46.84 158.84 47.34 C 162.95 41.23 167.47 35.40 171.14 29.01 C 172.17 27.41 172.44 25.50 171.75 23.70 M 169.90 34.01 C 166.39 39.11 163.06 44.37 159.12 49.15 C 157.71 48.69 156.29 48.23 154.89 47.76 C 154.19 48.69 153.55 49.65 152.98 50.66 C 153.99 51.50 155.01 52.35 156.02 53.21 C 154.60 55.77 153.82 58.71 151.85 60.93 C 149.51 63.61 147.44 66.51 145.76 69.64 C 141.09 78.02 136.16 86.46 133.68 95.81 C 132.88 98.31 133.65 101.22 135.88 102.73 C 136.67 96.22 139.30 90.16 142.30 84.39 C 148.19 73.27 154.68 62.38 162.34 52.39 C 165.18 51.33 168.37 51.44 171.24 50.36 C 168.80 50.40 166.35 50.41 163.93 50.11 C 168.23 43.57 173.14 37.45 177.34 30.85 C 177.61 28.68 175.29 27.33 173.99 25.89 C 173.03 28.79 171.67 31.52 169.90 34.01 M 261.78 26.09 C 258.78 34.26 252.93 40.93 248.18 48.11 C 243.36 52.13 241.15 58.35 236.15 62.24 C 236.34 62.68 236.72 63.56 236.91 64.00 C 235.32 67.02 232.96 69.73 232.13 73.08 C 232.47 75.26 234.57 77.40 236.77 77.73 C 240.52 76.00 243.48 72.93 246.09 69.81 C 242.98 71.37 240.56 74.13 237.10 75.00 C 236.70 73.55 236.87 72.04 237.67 70.75 C 241.93 62.92 247.68 56.05 252.73 48.74 C 256.69 43.03 260.85 37.45 264.73 31.69 C 266.28 29.44 263.50 27.25 261.78 26.09 M 223.02 56.02 C 220.59 60.78 215.88 63.68 212.94 68.05 C 210.56 71.56 212.55 78.49 217.54 77.58 C 222.79 75.00 227.36 71.01 231.29 66.71 C 226.07 69.44 221.71 73.94 215.77 75.17 C 215.10 70.76 219.11 67.65 221.27 64.27 C 227.22 56.99 233.95 48.23 244.09 47.47 C 242.52 46.75 240.84 45.84 239.06 46.36 C 232.85 47.79 227.70 51.91 223.02 56.02 M 180.44 47.08 C 176.94 55.23 170.48 61.63 166.21 69.36 C 165.47 71.01 163.56 72.98 165.17 74.71 C 166.29 76.10 168.16 78.70 170.16 77.30 C 172.63 75.83 174.97 73.99 176.49 71.51 C 173.97 72.41 171.71 75.45 168.82 74.15 C 171.78 65.70 178.44 59.35 183.11 51.89 C 183.73 49.88 181.49 48.52 180.44 47.08 M 194.49 54.50 C 191.73 56.47 190.61 59.84 188.26 62.19 C 185.99 64.66 183.19 67.31 183.46 70.98 C 184.24 74.16 187.04 76.66 190.07 77.67 C 195.55 77.94 200.46 74.76 204.82 71.79 C 207.36 69.77 210.46 68.13 211.97 65.12 C 207.45 67.01 203.57 70.09 199.11 72.08 C 195.41 73.75 191.42 76.01 187.23 74.85 C 187.11 68.38 191.97 63.50 196.08 59.12 C 201.08 53.88 206.90 48.86 214.27 47.58 C 212.65 46.80 210.89 46.06 209.06 46.51 C 203.58 47.78 198.88 51.13 194.49 54.50 M 215.56 48.80 C 212.07 56.52 203.55 59.89 196.72 64.04 C 203.70 62.77 210.17 59.03 215.63 54.60 C 217.71 53.13 216.70 50.53 215.56 48.80 M 233.54 53.52 C 226.87 59.04 221.39 65.97 216.91 73.35 C 221.19 71.82 224.81 68.99 228.51 66.43 C 234.88 61.90 240.82 56.33 244.14 49.12 C 240.13 49.01 236.55 51.07 233.54 53.52 M 195.10 62.73 C 200.71 60.57 205.74 57.18 210.41 53.44 C 211.74 52.42 212.79 51.10 213.52 49.59 C 205.76 50.76 199.99 57.08 195.10 62.73 M 145.18 82.30 C 142.02 88.73 138.31 95.18 137.60 102.45 C 140.81 101.86 143.17 99.50 145.21 97.13 C 153.26 87.46 159.43 75.02 157.47 62.11 C 152.87 68.51 148.95 75.39 145.18 82.30 M 177.02 70.97 C 177.60 70.34 177.60 70.34 177.02 70.97 M 176.49 71.51 C 176.62 71.38 176.88 71.11 177.02 70.97 C 176.88 71.11 176.62 71.38 176.49 71.51 Z" />
<path fill="#494949" opacity="0.98" d=" M 147.95 29.12 C 151.72 28.93 155.07 32.27 155.78 35.83 C 154.88 38.59 152.18 40.20 150.03 41.94 C 148.69 42.89 146.47 44.86 145.26 42.66 C 146.27 38.22 150.67 33.78 147.95 29.12 M 147.53 41.51 C 149.97 40.09 152.64 38.52 154.00 35.95 C 154.25 33.81 152.13 32.68 150.83 31.43 C 150.01 34.88 148.77 38.20 147.53 41.51 Z" />
<path fill="#494949" opacity="0.98" d=" M 185.32 29.49 C 188.48 28.27 191.45 31.68 192.84 34.23 C 194.19 36.36 191.96 38.13 190.58 39.48 C 188.58 41.07 186.64 43.08 184.11 43.76 C 183.71 43.40 182.90 42.68 182.50 42.32 C 184.30 38.97 185.98 35.50 186.60 31.70 C 186.08 31.01 185.65 30.28 185.32 29.49 M 188.41 31.09 C 187.61 34.80 186.09 38.28 185.02 41.91 C 187.54 40.13 189.91 38.14 191.93 35.80 C 191.04 34.03 189.81 32.48 188.41 31.09 Z" />
<path fill="#494949" opacity="0.98" d=" M 121.34 52.10 C 125.22 49.18 128.87 44.87 133.84 44.15 C 138.08 46.47 137.72 52.73 134.50 55.83 C 134.36 54.06 134.32 51.59 132.00 51.42 C 124.45 52.67 118.94 58.61 113.65 63.65 C 109.71 68.05 105.29 72.81 104.33 78.84 C 99.65 78.48 97.55 72.34 100.32 68.75 C 100.71 68.28 100.71 68.28 100.32 68.75 C 94.39 72.98 88.53 78.15 81.03 79.18 C 76.92 79.80 73.43 76.67 71.45 73.40 C 69.67 70.58 71.03 67.21 72.49 64.58 C 76.86 57.10 83.76 51.40 91.30 47.30 C 94.96 45.42 99.42 43.79 103.41 45.64 C 107.35 47.20 108.72 53.42 105.05 56.01 C 98.01 61.60 89.52 65.97 80.41 66.56 C 78.96 68.77 77.92 71.21 77.19 73.75 C 82.86 73.61 87.80 70.38 92.65 67.78 C 101.28 62.71 111.12 57.27 114.44 47.17 C 114.40 46.57 114.32 45.38 114.27 44.78 C 117.90 45.39 120.44 48.71 121.34 52.10 M 95.97 46.98 C 89.20 49.51 83.20 53.94 78.34 59.26 C 75.43 62.74 71.81 66.79 72.34 71.65 C 73.89 75.34 78.02 78.89 82.26 77.43 C 90.81 75.17 97.48 68.92 103.87 63.14 C 96.21 66.88 89.33 72.41 81.02 74.84 C 79.38 75.42 77.66 75.12 75.99 74.91 C 75.79 70.12 78.66 65.97 81.68 62.54 C 87.55 56.07 94.10 49.08 103.15 47.58 C 100.95 46.38 98.33 45.96 95.97 46.98 M 122.83 53.17 C 126.79 51.49 131.07 48.69 135.41 50.96 C 135.69 48.84 134.94 46.62 133.06 45.45 C 129.32 47.53 125.70 49.96 122.83 53.17 M 109.48 59.46 C 106.07 63.45 102.74 67.60 100.45 72.35 C 100.31 74.17 101.78 75.58 102.66 77.03 C 105.38 70.89 109.46 65.46 114.27 60.79 C 114.16 56.76 118.41 54.63 119.46 50.99 C 118.68 49.54 117.60 48.29 116.57 47.01 C 114.53 51.35 111.54 55.13 109.48 59.46 M 92.88 53.89 C 89.57 56.54 86.33 59.35 83.80 62.77 C 90.65 59.69 97.86 55.92 102.30 49.68 C 98.70 49.69 95.66 51.84 92.88 53.89 M 85.67 64.05 C 89.64 63.54 93.21 61.58 96.72 59.77 C 99.64 58.10 102.73 56.49 104.96 53.90 C 106.38 52.58 105.11 50.66 104.90 49.15 C 100.20 56.03 92.70 59.99 85.67 64.05 Z" />
</g>
<g id="#000000ff">
<path fill="#000000" opacity="1.00" d=" M 15.51 33.50 C 24.39 26.97 34.88 21.68 46.10 21.49 C 46.41 21.73 47.01 22.22 47.31 22.46 C 37.46 23.81 28.96 29.38 21.17 35.20 C 16.55 38.89 11.88 42.95 9.32 48.39 C 8.14 50.83 8.34 53.57 8.83 56.15 C 6.91 54.52 4.16 52.65 4.56 49.77 C 5.09 42.84 10.22 37.46 15.51 33.50 Z" />
<path fill="#000000" opacity="1.00" d=" M 91.79 26.68 C 94.55 24.78 97.60 22.96 101.03 22.73 C 103.69 22.88 105.46 25.02 107.15 26.81 C 103.21 25.81 99.09 26.62 95.63 28.67 C 88.21 32.92 81.94 38.85 75.70 44.62 C 69.06 50.63 63.64 57.79 57.66 64.40 C 60.28 58.78 64.91 54.49 68.63 49.61 C 71.73 45.44 75.52 41.88 79.16 38.20 C 82.95 33.93 87.18 30.05 91.79 26.68 Z" />
<path fill="#000000" opacity="1.00" d=" M 56.37 23.74 C 58.44 25.30 60.54 27.28 60.87 29.99 C 61.09 32.28 60.32 34.50 59.68 36.66 C 54.56 51.92 46.63 66.04 41.17 81.17 C 40.47 83.98 38.37 87.17 40.10 89.93 C 42.46 89.93 42.42 86.28 44.46 85.33 C 43.77 87.65 42.69 89.83 41.54 91.96 C 38.71 90.58 35.95 88.18 35.40 84.95 C 35.53 82.89 36.38 80.96 37.02 79.03 C 42.99 63.06 51.17 47.99 56.58 31.80 C 57.63 29.16 57.36 26.34 56.37 23.74 Z" />
<path fill="#000000" opacity="1.00" d=" M 169.90 34.01 C 171.67 31.52 173.03 28.79 173.99 25.89 C 175.29 27.33 177.61 28.68 177.34 30.85 C 173.14 37.45 168.23 43.57 163.93 50.11 C 166.35 50.41 168.80 50.40 171.24 50.36 C 168.37 51.44 165.18 51.33 162.34 52.39 C 154.68 62.38 148.19 73.27 142.30 84.39 C 139.30 90.16 136.67 96.22 135.88 102.73 C 133.65 101.22 132.88 98.31 133.68 95.81 C 136.16 86.46 141.09 78.02 145.76 69.64 C 147.44 66.51 149.51 63.61 151.85 60.93 C 153.82 58.71 154.60 55.77 156.02 53.21 C 155.01 52.35 153.99 51.50 152.98 50.66 C 153.55 49.65 154.19 48.69 154.89 47.76 C 156.29 48.23 157.71 48.69 159.12 49.15 C 163.06 44.37 166.39 39.11 169.90 34.01 Z" />
<path fill="#000000" opacity="1.00" d=" M 261.78 26.09 C 263.50 27.25 266.28 29.44 264.73 31.69 C 260.85 37.45 256.69 43.03 252.73 48.74 C 247.68 56.05 241.93 62.92 237.67 70.75 C 236.87 72.04 236.70 73.55 237.10 75.00 C 240.56 74.13 242.98 71.37 246.09 69.81 C 243.48 72.93 240.52 76.00 236.77 77.73 C 234.57 77.40 232.47 75.26 232.13 73.08 C 232.96 69.73 235.32 67.02 236.91 64.00 C 236.72 63.56 236.34 62.68 236.15 62.24 C 241.15 58.35 243.36 52.13 248.18 48.11 C 252.93 40.93 258.78 34.26 261.78 26.09 Z" />
<path fill="#000000" opacity="1.00" d=" M 188.41 31.09 C 189.81 32.48 191.04 34.03 191.93 35.80 C 189.91 38.14 187.54 40.13 185.02 41.91 C 186.09 38.28 187.61 34.80 188.41 31.09 Z" />
<path fill="#000000" opacity="1.00" d=" M 147.53 41.51 C 148.77 38.20 150.01 34.88 150.83 31.43 C 152.13 32.68 154.25 33.81 154.00 35.95 C 152.64 38.52 149.97 40.09 147.53 41.51 Z" />
<path fill="#000000" opacity="1.00" d=" M 95.97 46.98 C 98.33 45.96 100.95 46.38 103.15 47.58 C 94.10 49.08 87.55 56.07 81.68 62.54 C 78.66 65.97 75.79 70.12 75.99 74.91 C 77.66 75.12 79.38 75.42 81.02 74.84 C 89.33 72.41 96.21 66.88 103.87 63.14 C 97.48 68.92 90.81 75.17 82.26 77.43 C 78.02 78.89 73.89 75.34 72.34 71.65 C 71.81 66.79 75.43 62.74 78.34 59.26 C 83.20 53.94 89.20 49.51 95.97 46.98 Z" />
<path fill="#000000" opacity="1.00" d=" M 122.83 53.17 C 125.70 49.96 129.32 47.53 133.06 45.45 C 134.94 46.62 135.69 48.84 135.41 50.96 C 131.07 48.69 126.79 51.49 122.83 53.17 Z" />
<path fill="#000000" opacity="1.00" d=" M 223.02 56.02 C 227.70 51.91 232.85 47.79 239.06 46.36 C 240.84 45.84 242.52 46.75 244.09 47.47 C 233.95 48.23 227.22 56.99 221.27 64.27 C 219.11 67.65 215.10 70.76 215.77 75.17 C 221.71 73.94 226.07 69.44 231.29 66.71 C 227.36 71.01 222.79 75.00 217.54 77.58 C 212.55 78.49 210.56 71.56 212.94 68.05 C 215.88 63.68 220.59 60.78 223.02 56.02 Z" />
<path fill="#000000" opacity="1.00" d=" M 109.48 59.46 C 111.54 55.13 114.53 51.35 116.57 47.01 C 117.60 48.29 118.68 49.54 119.46 50.99 C 118.41 54.63 114.16 56.76 114.27 60.79 C 109.46 65.46 105.38 70.89 102.66 77.03 C 101.78 75.58 100.31 74.17 100.45 72.35 C 102.74 67.60 106.07 63.45 109.48 59.46 Z" />
<path fill="#000000" opacity="1.00" d=" M 180.44 47.08 C 181.49 48.52 183.73 49.88 183.11 51.89 C 178.44 59.35 171.78 65.70 168.82 74.15 C 171.71 75.45 173.97 72.41 176.49 71.51 C 174.97 73.99 172.63 75.83 170.16 77.30 C 168.16 78.70 166.29 76.10 165.17 74.71 C 163.56 72.98 165.47 71.01 166.21 69.36 C 170.48 61.63 176.94 55.23 180.44 47.08 Z" />
<path fill="#000000" opacity="1.00" d=" M 194.49 54.50 C 198.88 51.13 203.58 47.78 209.06 46.51 C 210.89 46.06 212.65 46.80 214.27 47.58 C 206.90 48.86 201.08 53.88 196.08 59.12 C 191.97 63.50 187.11 68.38 187.23 74.85 C 191.42 76.01 195.41 73.75 199.11 72.08 C 203.57 70.09 207.45 67.01 211.97 65.12 C 210.46 68.13 207.36 69.77 204.82 71.79 C 200.46 74.76 195.55 77.94 190.07 77.67 C 187.04 76.66 184.24 74.16 183.46 70.98 C 183.19 67.31 185.99 64.66 188.26 62.19 C 190.61 59.84 191.73 56.47 194.49 54.50 Z" />
<path fill="#000000" opacity="1.00" d=" M 127.53 71.65 C 131.80 62.95 138.85 55.95 143.07 47.21 C 144.01 48.70 146.65 50.29 145.39 52.29 C 141.16 58.72 135.80 64.45 132.36 71.39 C 131.91 72.55 130.81 74.65 132.91 74.77 C 135.94 73.60 138.35 71.32 141.11 69.66 C 139.93 71.10 138.71 72.51 137.50 73.92 C 137.82 73.97 138.47 74.07 138.79 74.11 L 138.89 74.63 C 138.59 74.90 137.98 75.44 137.67 75.71 L 136.96 75.69 C 136.70 75.42 136.19 74.88 135.94 74.62 C 134.48 75.72 133.25 77.65 131.23 77.71 C 129.01 76.80 126.06 74.29 127.53 71.65 Z" />
<path fill="#000000" opacity="1.00" d=" M 23.32 54.20 C 26.92 52.64 29.92 50.03 33.52 48.48 C 28.24 54.56 19.72 60.37 11.37 57.40 C 15.43 56.68 19.62 56.14 23.32 54.20 Z" />
<path fill="#000000" opacity="1.00" d=" M 215.56 48.80 C 216.70 50.53 217.71 53.13 215.63 54.60 C 210.17 59.03 203.70 62.77 196.72 64.04 C 203.55 59.89 212.07 56.52 215.56 48.80 Z" />
<path fill="#000000" opacity="1.00" d=" M 85.67 64.05 C 92.70 59.99 100.20 56.03 104.90 49.15 C 105.11 50.66 106.38 52.58 104.96 53.90 C 102.73 56.49 99.64 58.10 96.72 59.77 C 93.21 61.58 89.64 63.54 85.67 64.05 Z" />
<path fill="#000000" opacity="1.00" d=" M 159.59 66.93 C 159.61 69.89 159.52 72.85 159.44 75.82 L 160.92 74.97 C 160.90 76.57 160.91 78.19 160.57 79.76 L 160.37 79.54 C 159.98 78.37 159.56 77.22 159.12 76.07 C 157.99 86.17 153.15 95.84 145.80 102.82 C 143.68 104.99 140.55 106.08 137.67 104.76 C 140.30 103.04 143.21 101.65 145.34 99.30 C 153.22 90.31 159.18 79.10 159.59 66.93 Z" />
<path fill="#000000" opacity="1.00" d=" M 52.98 71.04 C 52.48 69.95 53.55 67.93 54.86 68.36 C 55.48 69.45 54.22 71.26 52.98 71.04 Z" />
<path fill="#000000" opacity="1.00" d=" M 177.02 70.97 C 177.60 70.34 177.60 70.34 177.02 70.97 Z" />
<path fill="#000000" opacity="1.00" d=" M 51.01 73.97 C 50.53 72.78 51.66 70.98 52.98 71.04 C 53.44 72.22 52.33 74.05 51.01 73.97 Z" />
<path fill="#000000" opacity="1.00" d=" M 176.49 71.51 C 176.62 71.38 176.88 71.11 177.02 70.97 C 176.88 71.11 176.62 71.38 176.49 71.51 Z" />
<path fill="#000000" opacity="1.00" d=" M 49.01 77.12 C 48.71 75.90 49.61 73.96 51.01 73.97 C 51.40 75.21 50.35 77.04 49.01 77.12 Z" />
<path fill="#000000" opacity="1.00" d=" M 48.24 77.32 L 49.01 77.12 L 49.28 77.87 C 48.96 78.15 48.32 78.70 48.00 78.98 C 48.06 78.57 48.18 77.74 48.24 77.32 Z" />
<path fill="#000000" opacity="1.00" d=" M 46.72 80.09 C 47.04 79.81 47.68 79.26 48.00 78.98 L 48.25 79.75 C 47.94 80.02 47.30 80.56 46.99 80.83 L 46.72 80.09 Z" />
<path fill="#000000" opacity="1.00" d=" M 45.11 83.73 C 44.56 82.59 45.71 80.77 46.99 80.83 C 47.35 81.94 46.49 84.08 45.11 83.73 Z" />
</g>
</svg>
