<svg xmlns="http://www.w3.org/2000/svg" width="66.323" height="24.808" viewBox="0 0 66.323 24.808">
  <g id="Group_17368" data-name="Group 17368" transform="translate(-10527.269 1893.16)">
    <g id="Screenshot_1" transform="translate(10527.468 -1893.16)">
      <g id="_e4e4e4ff" data-name="#e4e4e4ff" transform="translate(14.058)">
        <path id="Path_27164" data-name="Path 27164" d="M801.68,160.809a2.772,2.772,0,0,1,1.126-.313c.191-.016.409.157.367.354a2.1,2.1,0,0,1-.284.541c-.3.438-.616.864-.937,1.287a15.306,15.306,0,0,1-2.912,2.484,16.612,16.612,0,0,1-2.5,1.461,1.032,1.032,0,0,1-.478.109,1.472,1.472,0,0,1,.359-.878,20.828,20.828,0,0,1,2.671-3.091A11.265,11.265,0,0,1,801.68,160.809Z" transform="translate(-762.362 -160.495)" fill="#e4e4e4"/>
        <path id="Path_27165" data-name="Path 27165" d="M294.6,163.568a4.756,4.756,0,0,1,2.36-1.048c.173.038.134.243.054.348a6.248,6.248,0,0,1-1.628,1.538,11.572,11.572,0,0,1-3.733,1.814A18.762,18.762,0,0,1,294.6,163.568Z" transform="translate(-291.65 -162.389)" fill="#e4e4e4"/>
        <path id="Path_27166" data-name="Path 27166" d="M711.054,162.866a2.959,2.959,0,0,1,1.26-.431c.11-.025.244.044.23.168a1.7,1.7,0,0,1-.395.609,11.419,11.419,0,0,1-2.4,1.813,9.151,9.151,0,0,1-2.639,1.112,19.952,19.952,0,0,1,2.225-2.1A11.2,11.2,0,0,1,711.054,162.866Z" transform="translate(-679.357 -162.305)" fill="#e4e4e4"/>
        <path id="Path_27167" data-name="Path 27167" d="M501.448,210.478A57.91,57.91,0,0,1,505.176,204a7.736,7.736,0,0,1-.007,3.667,11.86,11.86,0,0,1-2.045,4.237,9.368,9.368,0,0,1-2.316,2.286,1.226,1.226,0,0,1-.7.228c-.221-.092-.123-.384-.087-.561A23.38,23.38,0,0,1,501.448,210.478Z" transform="translate(-486.05 -201.187)" fill="#e4e4e4"/>
      </g>
      <g id="_000000ff" data-name="#000000ff" transform="translate(0 4.018)">
        <path id="Path_27168" data-name="Path 27168" d="M9.84,57.8a11.489,11.489,0,0,1,3.9-.736,4.938,4.938,0,0,1,2.131.515,2.573,2.573,0,0,1,1.376,1.537,2.768,2.768,0,0,1-.1,1.43,25.514,25.514,0,0,1-1.306,3.392c-.809,1.793-1.681,3.559-2.5,5.348-.437.93-.842,1.875-1.192,2.839a3.087,3.087,0,0,0-.255,1.721,68.141,68.141,0,0,1,5.676-8.3,54.321,54.321,0,0,1,3.955-4.45,25.05,25.05,0,0,1,3.036-2.618,6.028,6.028,0,0,1,2.392-1.093,2.135,2.135,0,0,1,1.671.849,3.2,3.2,0,0,1,.749,1.238,5.8,5.8,0,0,1-.521-.5,1.543,1.543,0,0,0-.881-.379,3.9,3.9,0,0,0-1.794.414,15.466,15.466,0,0,0-3.482,2.442,46.259,46.259,0,0,0-4.3,4.375,51.835,51.835,0,0,0-4.03,5.215,27.255,27.255,0,0,0-1.854,3.183.342.342,0,0,1-.433.2,2.288,2.288,0,0,1-.943-.694,1.89,1.89,0,0,1-.609-1.293,7.632,7.632,0,0,1,.46-1.5c.745-1.884,1.633-3.71,2.478-5.552.8-1.745,1.631-3.484,2.273-5.293a3.058,3.058,0,0,0,.239-1.73,1.1,1.1,0,0,0-.891-.663,5.921,5.921,0,0,0-2.637.25,17.266,17.266,0,0,0-4.884,2.568A12.226,12.226,0,0,0,4.633,63.5a2.255,2.255,0,0,0-.418,1.669.687.687,0,0,0,.7.476,6.507,6.507,0,0,0,2.158-.487A17.666,17.666,0,0,0,12,62.039c.14-.107.255-.284.455-.273a1.509,1.509,0,0,1-.182.282,15.366,15.366,0,0,1-4.091,3.53,6.47,6.47,0,0,1-2.109.773,3.163,3.163,0,0,1-1.817-.429A2.519,2.519,0,0,1,2.876,64.5a3,3,0,0,1,.36-1.833,7.385,7.385,0,0,1,1.886-2.238A15.913,15.913,0,0,1,9.84,57.8Z" transform="translate(-2.842 -57.066)" stroke="#4d4d4d" stroke-width="0.4"/>
        <path id="Path_27169" data-name="Path 27169" d="M471.784,70.88a1.6,1.6,0,0,1,.928.7,2.626,2.626,0,0,1,.509.909c-.361.556-.787,1.073-1.172,1.614q-1.052,1.426-2.1,2.853a12.986,12.986,0,0,0,2.231-.092c.358-.037.7-.174,1.057-.191-.113.187-.346.239-.533.329a10.929,10.929,0,0,1-3.305.692c-.348.464-.692.931-1.041,1.394a9.944,9.944,0,0,1,.24,4.677,10.576,10.576,0,0,1-3.061,5.835,3.115,3.115,0,0,1-1.784.972,2.671,2.671,0,0,1-1.321-.708,1.509,1.509,0,0,1-.611-1.273,10.391,10.391,0,0,1,1.082-3.2,57.023,57.023,0,0,1,2.99-5.256,6.718,6.718,0,0,1-.64.692,27.973,27.973,0,0,1-2.434,2.286,4.143,4.143,0,0,1-1.265.8,1.9,1.9,0,0,1-1.236-.972c-.249-.41.081-.842.267-1.208.905-1.532,2.076-2.9,3.083-4.366a3.051,3.051,0,0,0,.474-1.014c.038-.129-.048-.24-.108-.345a1.294,1.294,0,0,1,.827.563,2.833,2.833,0,0,1,.436.694c.091.178-.063.343-.152.489a40.655,40.655,0,0,0-3.2,4.466c-.081.194-.265.41-.147.621a10.245,10.245,0,0,0,1.685-1.144c.44-.324.846-.688,1.269-1.032.643-.54,1.293-1.075,1.885-1.667.281-.355.529-.734.81-1.09a1.013,1.013,0,0,0-.415-.349c-.158-.059-.353-.186-.3-.377a2.27,2.27,0,0,1,.68-.966,5.806,5.806,0,0,0,.985.423c.716-.942,1.414-1.9,2.107-2.855a14.7,14.7,0,0,0,1.26-2.016.821.821,0,0,0,.017-.9M464.365,85.9a23.246,23.246,0,0,0-1.43,3.366c-.036.176-.134.467.087.558a1.229,1.229,0,0,0,.7-.227,9.351,9.351,0,0,0,2.316-2.277,11.8,11.8,0,0,0,2.045-4.22,7.675,7.675,0,0,0,.007-3.652A57.637,57.637,0,0,0,464.365,85.9Z" transform="translate(-429.407 -69.987)" stroke="#4d4d4d" stroke-width="0.4"/>
        <path id="Path_27170" data-name="Path 27170" d="M624.416,70.87a1.565,1.565,0,0,1,.9.677,2.719,2.719,0,0,1,.533.942c-.379.586-.824,1.133-1.228,1.7q-.944,1.286-1.882,2.576c-1.154,1.6-2.381,3.148-3.448,4.8a8.209,8.209,0,0,0-.584,1.051.316.316,0,0,0,.007.266,6.767,6.767,0,0,0,1.387-.913c.858-.631,1.651-1.338,2.466-2.02.436-.36.815-.78,1.263-1.126a.142.142,0,0,1,0,.221c-.532.643-1.1,1.259-1.691,1.854A27.467,27.467,0,0,1,619.7,83.2a3.94,3.94,0,0,1-1.217.769,1.658,1.658,0,0,1-.977-.61,1.23,1.23,0,0,1-.357-.707,2.447,2.447,0,0,1,.345-.814c.294-.532.631-1.04.971-1.545a40.412,40.412,0,0,1-3.226,2.728,5.008,5.008,0,0,1-1.671.933,1.561,1.561,0,0,1-.852-.523,1.625,1.625,0,0,1-.577-1.369,3.972,3.972,0,0,1,.8-1.55,25.382,25.382,0,0,1-3.188,2.307,7.337,7.337,0,0,1-2.785,1.153,2.129,2.129,0,0,1-1.205-.6,2.431,2.431,0,0,1-.785-1.127,2.283,2.283,0,0,1,.359-1.4,14.226,14.226,0,0,1-1.146,1.185c-.536.475-1.049.978-1.627,1.406a2.7,2.7,0,0,1-.921.536,1.4,1.4,0,0,1-.772-.4,1.9,1.9,0,0,1-.54-.758,1.008,1.008,0,0,1,.156-.686,22.135,22.135,0,0,1,1.826-2.747c.467-.629.939-1.255,1.388-1.9a3.316,3.316,0,0,0,.53-1.107c.036-.129-.051-.24-.11-.347a1.3,1.3,0,0,1,.822.564,2.745,2.745,0,0,1,.448.721c.077.18-.081.341-.168.486a41.476,41.476,0,0,0-3.162,4.423c-.09.209-.28.434-.182.67a6.1,6.1,0,0,0,1.244-.807c1.028-.762,1.991-1.6,2.956-2.435a18.828,18.828,0,0,1,2.494-2.186,8.325,8.325,0,0,1,2.974-1.424,1.864,1.864,0,0,1,2.185,1.7,1.5,1.5,0,0,1-.458.6,11.578,11.578,0,0,1-3.144,1.86,8.156,8.156,0,0,1-3.009.687,4.1,4.1,0,0,0-.828,1.827c-.026.245.27.32.469.283a8.155,8.155,0,0,0,2.518-.892,28.526,28.526,0,0,0,3.357-1.921,14.749,14.749,0,0,0,1.813-1.349,17.231,17.231,0,0,1,2.485-1.929,6.013,6.013,0,0,1,2.386-.934,1.886,1.886,0,0,1,1.587.934c1.045-1.422,2.1-2.84,3.046-4.325a3.813,3.813,0,0,0,.592-1.308c.034-.149-.065-.277-.132-.4m-5.408,6.108a11.263,11.263,0,0,0-2.589,1.954,20.833,20.833,0,0,0-2.671,3.091,1.472,1.472,0,0,0-.359.878,1.032,1.032,0,0,0,.478-.109,16.619,16.619,0,0,0,2.5-1.461,15.305,15.305,0,0,0,2.912-2.484c.321-.423.638-.849.937-1.287a2.1,2.1,0,0,0,.284-.541c.042-.2-.176-.369-.367-.354a2.772,2.772,0,0,0-1.126.313m-7.62.247a11.2,11.2,0,0,0-1.719,1.173,19.96,19.96,0,0,0-2.225,2.1,9.154,9.154,0,0,0,2.639-1.112,11.421,11.421,0,0,0,2.4-1.813,1.7,1.7,0,0,0,.395-.609c.014-.124-.12-.193-.23-.168A2.96,2.96,0,0,0,611.389,77.225Z" transform="translate(-559.939 -69.978)" stroke="#4d4d4d" stroke-width="0.4"/>
        <path id="Path_27171" data-name="Path 27171" d="M534.935,91.24A1.732,1.732,0,0,1,536.07,92a1.865,1.865,0,0,1,.374.771,1.357,1.357,0,0,1-.341.411c-.484.426-1.007.807-1.524,1.192-.135.144-.437-.03-.327-.206a7.6,7.6,0,0,0,.894-2.359A.578.578,0,0,0,534.935,91.24Z" transform="translate(-498.474 -89.031)" stroke="#4d4d4d" stroke-width="0.4"/>
        <path id="Path_27172" data-name="Path 27172" d="M674.789,91.24a1.734,1.734,0,0,1,1.134.762,1.849,1.849,0,0,1,.375.778,1.649,1.649,0,0,1-.379.439c-.477.412-.988.786-1.494,1.163-.132.112-.294,0-.366-.118A7.9,7.9,0,0,0,675,91.8.576.576,0,0,0,674.789,91.24Z" transform="translate(-628.896 -89.031)" stroke="#4d4d4d" stroke-width="0.4"/>
        <path id="Path_27173" data-name="Path 27173" d="M269.48,147.7c.194-.083.435-.228.629-.067a1.543,1.543,0,0,1,.256,2.077.753.753,0,0,0-.283-.551,1.468,1.468,0,0,0-1.283-.037,7.219,7.219,0,0,0-2.226,1.323,15.467,15.467,0,0,0-3.383,3.585,5.587,5.587,0,0,0-.611,1.2.525.525,0,0,0,.018.325q-.149,0-.3,0a2.475,2.475,0,0,1-.785-1.129,1.711,1.711,0,0,1,.375-.946c.458-.69.939-1.368,1.425-2.04a24.248,24.248,0,0,1-2.8,2.265,21.162,21.162,0,0,1-2.194,1.351,5.724,5.724,0,0,1-1.785.639,1.5,1.5,0,0,1-.916-.3,3.059,3.059,0,0,1-1.1-1.2,1.617,1.617,0,0,1,.11-1.278,8.524,8.524,0,0,1,2.272-2.837,12.031,12.031,0,0,1,2.985-1.948,4.021,4.021,0,0,1,1.534-.4,1.927,1.927,0,0,1,1.728,1.35.623.623,0,0,1-.025.546,4.036,4.036,0,0,1-1.059.976,11.768,11.768,0,0,1-2.313,1.251,9.045,9.045,0,0,1-3.164.758,4.956,4.956,0,0,0-.769,1.5c-.033.158-.106.342-.006.491a.636.636,0,0,0,.516.113,8.419,8.419,0,0,0,2.349-.849,28.64,28.64,0,0,0,4.945-3.039,4.372,4.372,0,0,0,.838-1.007,5.45,5.45,0,0,0,.958-1.661.445.445,0,0,0-.111-.41,1.152,1.152,0,0,1,.676.378,3.446,3.446,0,0,1,.611.846.285.285,0,0,1,0,.316c-.4.663-.927,1.243-1.379,1.872a22.059,22.059,0,0,1,2.391-2.171,12.69,12.69,0,0,1,1.873-1.3m-9.616,1.876a18.765,18.765,0,0,0-2.947,2.653,11.573,11.573,0,0,0,3.733-1.814,6.249,6.249,0,0,0,1.628-1.538c.079-.105.119-.31-.054-.348A4.755,4.755,0,0,0,259.864,149.573Z" transform="translate(-237.468 -141.745)" stroke="#4d4d4d" stroke-width="0.4"/>
      </g>
    </g>
  </g>
</svg>
