<svg xmlns="http://www.w3.org/2000/svg" width="16" height="14.396" viewBox="0 0 16 14.396">
  <g id="_000000ff" data-name="#000000ff" transform="translate(-10.614 -15.972)">
    <path id="Path_19601" data-name="Path 19601" d="M20.7,16.611a3.1,3.1,0,0,1,2.951-.331A15.4,15.4,0,0,0,22.5,17.341a4.91,4.91,0,0,0-.958,4.509,3.151,3.151,0,0,1-1.764-1.535A2.968,2.968,0,0,1,20.7,16.611Z" transform="translate(-7.53 -0.071)" fill="#666"/>
    <path id="Path_19602" data-name="Path 19602" d="M80.57,16.271a2.938,2.938,0,0,1,4.063,1.812,3.013,3.013,0,0,1-1.942,3.69A4.888,4.888,0,0,0,80.57,16.271Z" transform="translate(-59.472 0)" fill="#666"/>
    <path id="Path_19603" data-name="Path 19603" d="M43.238,21.383a3.589,3.589,0,1,1-2.769,1.866A3.605,3.605,0,0,1,43.238,21.383Z" transform="translate(-25.016 -4.581)" fill="#666"/>
    <path id="Path_19604" data-name="Path 19604" d="M10.65,62.275a2.468,2.468,0,0,1,2.426-2.24,10.751,10.751,0,0,0,1.58.5l.538.658a4.442,4.442,0,0,0-2.918,3.436c-.429-.016-.938.048-1.257-.307A2.725,2.725,0,0,1,10.65,62.275Z" transform="translate(0 -37.456)" fill="#666"/>
    <path id="Path_19605" data-name="Path 19605" d="M87.359,60.529a10.834,10.834,0,0,0,1.581-.5,2.475,2.475,0,0,1,2.425,2.239A2.743,2.743,0,0,1,91,64.315c-.319.354-.829.294-1.257.309a4.451,4.451,0,0,0-2.919-3.438Z" transform="translate(-64.785 -37.449)" fill="#666"/>
    <path id="Path_19606" data-name="Path 19606" d="M31.529,74.741c.841-.34,1.554.369,2.353.486a3.647,3.647,0,0,0,2.359-.412,1.98,1.98,0,0,1,1.927.255A3.179,3.179,0,0,1,39.68,77.7a3.107,3.107,0,0,1-.466,2.173,1.581,1.581,0,0,1-1.28.382c-2.452-.018-4.9.015-7.354-.016-.76,0-1.2-.761-1.26-1.436a4.6,4.6,0,0,1,.285-2.4A3.163,3.163,0,0,1,31.529,74.741Z" transform="translate(-15.872 -49.884)" fill="#666"/>
  </g>
</svg>
