<svg xmlns="http://www.w3.org/2000/svg" width="11.562" height="17.103" viewBox="0 0 11.562 17.103">
  <g id="Group_7453" data-name="Group 7453" transform="translate(578 26)">
    <g id="Path_19600" data-name="Path 19600" transform="translate(-578 -26)" fill="#fff">
      <path d="M 10.76471996307373 7.548636436462402 L 0.5000038146972656 7.548636436462402 L 0.5000038146972656 0.4999963045120239 L 10.70329189300537 0.4999963045120239 L 9.026113510131836 3.456366300582886 L 8.896674156188965 3.684536218643188 L 9.010844230651855 3.920706272125244 L 10.76471996307373 7.548636436462402 Z" stroke="none"/>
      <path d="M 1.000003814697266 0.9999961853027344 L 1.000003814697266 7.048636436462402 L 9.967645645141602 7.048636436462402 L 8.332344055175781 3.66598653793335 L 9.844779968261719 0.9999961853027344 L 1.000003814697266 0.9999961853027344 M 3.814697265625e-06 -3.814697265625e-06 L 11.56180381774902 -3.814697265625e-06 L 9.461004257202148 3.703086376190186 L 11.56180381774902 8.048636436462402 L 3.814697265625e-06 8.048636436462402 L 3.814697265625e-06 -3.814697265625e-06 Z" stroke="none" fill="#fff"/>
    </g>
    <g id="Path_20606" data-name="Path 20606" transform="translate(-577.983 -19.897)" fill="#fff">
      <path d="M 0.5 10.5 L 0.5 0.5 L 0.5 10.5 Z" stroke="none"/>
      <path d="M 0 0 L 1 0 L 1 11 L 0 11 L 0 0 Z" stroke="none" fill="#fff"/>
    </g>
  </g>
</svg>
