<svg width="70" height="70" viewBox="0 0 70 70" fill="none" xmlns="http://www.w3.org/2000/svg">
<rect width="70" height="70" rx="15" fill="#FFE5E5"/>
<path fill-rule="evenodd" clip-rule="evenodd" d="M27.2222 21C22.9267 21 19.4444 24.4822 19.4444 28.7778C19.4444 33.0734 22.9267 36.5555 27.2222 36.5555C31.5178 36.5555 35 33.0734 35 28.7778C35 24.4822 31.5178 21 27.2222 21ZM24.1111 28.7778C24.1111 30.496 25.504 31.8888 27.2222 31.8888C28.9404 31.8888 30.3333 30.496 30.3333 28.7778C30.3333 27.0596 28.9404 25.6667 27.2222 25.6667C25.504 25.6667 24.1111 27.0596 24.1111 28.7778Z" fill="black"/>
<path d="M34.9218 44.6732C36.6769 44.6732 38.2622 43.9466 39.3934 42.7778C39.3697 42.8022 39.3458 42.8265 39.3217 42.8506L42.6215 46.1505C40.651 48.1209 37.9288 49.3399 34.9218 49.3399C31.9149 49.3399 29.1927 48.1211 27.2222 46.1505L30.5221 42.8507C31.648 43.9768 33.2037 44.6732 34.9218 44.6732Z" fill="black"/>
<path d="M50.5556 31.1111H42.7778V26.4445H50.5556V31.1111Z" fill="black"/>
</svg>
