<svg width="72" height="70" viewBox="0 0 72 70" fill="none" xmlns="http://www.w3.org/2000/svg">
<rect width="71.0145" height="70" rx="15" fill="#E5FCFF"/>
<path d="M44.1096 26.5228C44.913 25.7172 44.913 24.4043 44.1096 23.5987L41.154 20.6189L41.1582 20.6232C40.376 19.8346 39.0313 18.479 37.1285 16.5651C36.2322 15.6827 34.7819 15.6913 33.8937 16.5865L17.2423 33.3604C17.0292 33.5737 16.8602 33.8274 16.7448 34.1068C16.6294 34.3863 16.5701 34.686 16.5701 34.9887C16.5701 35.2914 16.6294 35.5911 16.7448 35.8705C16.8602 36.15 17.0292 36.4036 17.2423 36.617L33.8896 53.3867C34.3188 53.8187 34.9005 54.0613 35.507 54.0613C36.1134 54.0613 36.6951 53.8187 37.1243 53.3867L44.1055 46.3532C44.9087 45.5475 44.9087 44.2345 44.1055 43.4289C43.7196 43.0418 43.1974 42.8245 42.653 42.8245C42.1086 42.8245 41.5864 43.0418 41.2005 43.4289L35.915 48.7658C35.6952 48.9875 35.3525 48.9875 35.1327 48.7658L21.8344 35.3722C21.6144 35.1506 21.6144 34.8054 21.8344 34.5838L35.1285 21.1902C35.1453 21.173 35.1665 21.1603 35.1835 21.1433C35.4034 20.9685 35.7078 20.9855 35.9107 21.1902L41.2048 26.523C42.008 27.3327 43.3104 27.3326 44.1096 26.5228ZM31.0988 35.0739C31.0988 36.2746 31.5723 37.4261 32.4153 38.2751C33.2582 39.1241 34.4015 39.6011 35.5936 39.6011C36.7857 39.6011 37.929 39.1241 38.7719 38.2751C39.6149 37.4261 40.0884 36.2746 40.0884 35.0739C40.0884 33.8733 39.6149 32.7218 38.7719 31.8727C37.929 31.0237 36.7857 30.5468 35.5936 30.5468C34.4015 30.5468 33.2582 31.0237 32.4153 31.8727C31.5723 32.7218 31.0988 33.8733 31.0988 35.0739ZM53.7717 33.4285L48.575 28.215C47.7714 27.4096 46.4692 27.4096 45.67 28.2195C45.479 28.4112 45.3275 28.639 45.2241 28.8899C45.1206 29.1408 45.0674 29.4099 45.0674 29.6815C45.0674 29.9532 45.1206 30.2223 45.2241 30.4732C45.3275 30.7241 45.479 30.9519 45.67 31.1436L49.1795 34.6775C49.3994 34.8991 49.3994 35.2445 49.1795 35.4661L45.7207 38.9486C45.5296 39.1403 45.378 39.3682 45.2746 39.6191C45.1712 39.87 45.1179 40.1391 45.1179 40.4108C45.1179 40.6825 45.1712 40.9516 45.2746 41.2025C45.378 41.4534 45.5296 41.6813 45.7207 41.873C46.1066 42.2601 46.6288 42.4774 47.1731 42.4774C47.7175 42.4774 48.2397 42.2601 48.6256 41.873L53.7758 36.6852C53.9881 36.4714 54.1564 36.2174 54.2711 35.9378C54.3859 35.6582 54.4447 35.3586 54.4443 35.0561C54.444 34.7535 54.3843 34.454 54.2689 34.1747C54.1535 33.8955 53.9845 33.6418 53.7717 33.4285Z" fill="black"/>
</svg>
