<svg width="30" height="30" viewBox="0 0 30 30" fill="none" xmlns="http://www.w3.org/2000/svg">
<path d="M23.619 29.391H6.28799C4.69037 29.3891 3.15871 28.7537 2.02901 27.624C0.899321 26.4943 0.263846 24.9626 0.261993 23.365L0.261993 6.034C0.263846 4.43637 0.899321 2.90471 2.02901 1.77502C3.15871 0.645323 4.69037 0.00984823 6.28799 0.00799561L23.619 0.00799561C25.2166 0.00984823 26.7483 0.645323 27.878 1.77502C29.0077 2.90471 29.6431 4.43637 29.645 6.034V23.365C29.6431 24.9626 29.0077 26.4943 27.878 27.624C26.7483 28.7537 25.2166 29.3891 23.619 29.391Z" fill="#00C3FF"/>
<path d="M23.619 0.00799561H14.953V29.391H23.619C25.2166 29.3891 26.7483 28.7537 27.878 27.624C29.0077 26.4943 29.6431 24.9626 29.645 23.365V6.034C29.6431 4.43637 29.0077 2.90471 27.878 1.77502C26.7483 0.645323 25.2166 0.00984823 23.619 0.00799561V0.00799561Z" fill="#00AAF0"/>
<path d="M9.31 22.648C9.11947 22.9773 8.80607 23.2175 8.4386 23.3159C8.07112 23.4144 7.6796 23.363 7.35 23.173C7.02071 22.9825 6.78048 22.6691 6.68205 22.3016C6.58362 21.9341 6.63503 21.5426 6.82499 21.213L7.10699 20.724H10.42L9.31 22.648Z" fill="white"/>
<path d="M6.60398 19.577C6.41241 19.5821 6.22178 19.5487 6.04331 19.4789C5.86485 19.4091 5.70217 19.3042 5.56489 19.1705C5.4276 19.0368 5.31849 18.877 5.24399 18.7004C5.16949 18.5239 5.1311 18.3342 5.1311 18.1425C5.1311 17.9509 5.16949 17.7612 5.24399 17.5846C5.31849 17.4081 5.4276 17.2482 5.56489 17.1145C5.70217 16.9808 5.86485 16.876 6.04331 16.8061C6.22178 16.7363 6.41241 16.703 6.60398 16.708H9.42599L13.297 10.008L12.248 8.19103C12.058 7.86142 12.0066 7.4699 12.105 7.10243C12.2035 6.73495 12.4437 6.42155 12.773 6.23103C13.1026 6.04106 13.4941 5.98965 13.8616 6.08808C14.2291 6.18651 14.5425 6.42673 14.733 6.75602L14.954 7.13802L15.175 6.75602C15.2674 6.58941 15.3921 6.44287 15.5417 6.32495C15.6914 6.20703 15.863 6.12009 16.0466 6.06921C16.2302 6.01832 16.4221 6.00452 16.6112 6.02859C16.8002 6.05266 16.9825 6.11413 17.1475 6.2094C17.3125 6.30468 17.4568 6.43187 17.5722 6.58353C17.6875 6.7352 17.7714 6.90831 17.8191 7.09277C17.8669 7.27723 17.8773 7.46935 17.85 7.65791C17.8227 7.84647 17.7581 8.0277 17.66 8.19103L12.74 16.713H15.84L17.497 19.582L6.60398 19.577Z" fill="white"/>
<path d="M23.303 19.578H22.137L23.082 21.214C23.1801 21.3773 23.2447 21.5585 23.272 21.7471C23.2994 21.9357 23.2889 22.1278 23.2412 22.3122C23.1935 22.4967 23.1095 22.6698 22.9942 22.8215C22.8788 22.9731 22.7345 23.1003 22.5695 23.1956C22.4045 23.2909 22.2222 23.3523 22.0332 23.3764C21.8442 23.4005 21.6523 23.3867 21.4687 23.3358C21.285 23.2849 21.1134 23.198 20.9637 23.08C20.8141 22.9621 20.6894 22.8156 20.597 22.649L15.615 14.021L17.272 11.152L20.481 16.709H23.303C23.4946 16.7039 23.6852 16.7373 23.8637 16.8071C24.0421 16.8769 24.2048 16.9818 24.3421 17.1155C24.4794 17.2492 24.5885 17.409 24.663 17.5856C24.7375 17.7621 24.7759 17.9518 24.7759 18.1435C24.7759 18.3351 24.7375 18.5248 24.663 18.7014C24.5885 18.8779 24.4794 19.0378 24.3421 19.1715C24.2048 19.3052 24.0421 19.41 23.8637 19.4799C23.6852 19.5497 23.4946 19.583 23.303 19.578Z" fill="#F2F2F2"/>
<path d="M14.953 16.708V19.577H17.499L15.842 16.708H14.953Z" fill="#F2F2F2"/>
<path d="M17.802 7.09799C17.7284 6.82408 17.5753 6.57813 17.3619 6.39121C17.1486 6.20428 16.8847 6.08476 16.6035 6.04774C16.3223 6.01072 16.0364 6.05786 15.782 6.1832C15.5276 6.30854 15.316 6.50647 15.174 6.75199L14.953 7.13399V12.873L17.659 8.18598C17.7536 8.02308 17.8149 7.84306 17.8394 7.65631C17.864 7.46956 17.8513 7.27979 17.802 7.09799Z" fill="#F2F2F2"/>
</svg>
