<svg xmlns="http://www.w3.org/2000/svg" xmlns:xlink="http://www.w3.org/1999/xlink" width="315" height="174" viewBox="0 0 315 174">
  <defs>
    <clipPath id="clip-path">
      <rect id="Rectangle_6944" data-name="Rectangle 6944" width="315" height="174" transform="translate(310 1405)" fill="#fff" stroke="#707070" stroke-width="1"/>
    </clipPath>
  </defs>
  <g id="Mask_Group_1" data-name="Mask Group 1" transform="translate(-310 -1405)" clip-path="url(#clip-path)">
    <g id="buyer_seller2" data-name="buyer seller2" transform="translate(-128.561 1150.33)">
      <path id="Path_20587" data-name="Path 20587" d="M785.856,490.571H765.318c-.005-.133-.023-.267-.023-.4.216-6.642.334-13.29.683-19.922.483-9.08,1.129-18.143,1.751-27.209a20.628,20.628,0,0,1,.717-4.8,97.606,97.606,0,0,1,6.17-14.952,108.423,108.423,0,0,1,19.443-26.324,1.157,1.157,0,0,0,.339-1.412c-.405-1.028-.739-2.084-1.139-3.223a48.551,48.551,0,0,0,15.88-10.244c.573,1.017,1.067,1.907,1.562,2.8,1.284,2.307,2.719,4.547,3.819,6.936a67.619,67.619,0,0,1,5.175,18.137,35.63,35.63,0,0,1,.412,9.165c-.244,2.318-.456,4.648-.478,6.982-.072,6.775-.122,13.557-.028,20.333.072,5.086.311,10.177.605,15.258.423,7.32.989,14.635,1.445,21.956.145,2.3.145,4.614.216,6.926H810c.078-9.266.072-18.537.267-27.8.205-9.644.556-19.282.934-28.921q.375-9.563,1.017-19.11A17.2,17.2,0,0,0,808.985,403a11.447,11.447,0,0,0-14.341-3.591,11.674,11.674,0,0,0-4.986,4.964,27.9,27.9,0,0,0-3.641,13.836c-.15,7.754-.062,15.514.005,23.268.062,7.509.228,15.019.345,22.528.017,1.081,0,2.151,0,3.243-.35,0-.506.005-.656,0l-11.523-.432c-.823-.028-.984.133-.973.956.034,1.957.078,3.913.117,5.87.016.872.172,1.023,1.067,1.056q3.927.15,7.86.306c1.279.05,2.556.117,3.88.178,0,.423.005.778,0,1.129-.028,1.6-.05,3.2-.083,4.8Q785.956,485.837,785.856,490.571Z" transform="translate(-129.597 -61.907)" fill="#85cff3" stroke="#707070" stroke-width="1.081"/>
      <path id="Path_20588" data-name="Path 20588" d="M692.268,428.663c-.067-2.307-.067-4.619-.216-6.926-.462-7.32-1.023-14.635-1.445-21.956-.294-5.081-.534-10.166-.606-15.258-.094-6.775-.044-13.557.028-20.333.023-2.329.234-4.663.478-6.982a35.386,35.386,0,0,0-.412-9.165,67.533,67.533,0,0,0-5.174-18.137c-1.1-2.39-2.535-4.63-3.819-6.936-.5-.89-.995-1.779-1.562-2.8a48.435,48.435,0,0,1-15.88,10.244c.4,1.145.734,2.2,1.139,3.223a1.156,1.156,0,0,1-.339,1.412,108.2,108.2,0,0,0-19.443,26.325,97.4,97.4,0,0,0-6.169,14.954,20.335,20.335,0,0,0-.717,4.8c-.623,9.066-1.267,18.137-1.751,27.209-.35,6.637-.467,13.28-.683,19.922a3.231,3.231,0,0,0,.023.4h-1.334c.078-10.111.612-20.205,1.3-30.432-.3.2-.5.334-.69.467a15.333,15.333,0,0,1-1.661,1.1c-2.04,1.028-4.113,2-6.161,3.007-2.091,1.033-4.23,1.973-6.225,3.163-3.052,1.817-5.992,3.824-8.988,5.729a2.054,2.054,0,0,1-2.829-.317c-.324-.324-.606-.69-.929-1.061-.884.511-1.778.967-2.6,1.528a2.039,2.039,0,0,1-2.363.034,7.857,7.857,0,0,1-2.984-3.146c-.178-.317-.35-.462-.729-.35-.639.189-1.3.317-1.923.522a.73.73,0,0,0-.405.462,1.973,1.973,0,0,1-1.045,1.534.749.749,0,0,0-.483.69,2.791,2.791,0,0,1-1.39,2.162.767.767,0,0,0-.333.444,2.549,2.549,0,0,1-2.135,2.084c-.3,1.206-.812,1.695-1.863,1.8-1.461.139-1.461.139-2.546,1.256-1.006,1.04-2.1,1.189-2.985.361a7.321,7.321,0,0,1-.784-1.006,2.016,2.016,0,0,1-2.263.444,2.741,2.741,0,0,1-1.585-1.838c-1.551.8-3.1.556-4.169-1.429-2.486,1.251-4.564-.833-4.269-3.257a3.65,3.65,0,0,0,.083-.595,3.057,3.057,0,0,0-.133-.606,3.494,3.494,0,0,0-.35.478c-.451.911-.812,1.873-1.339,2.729a1.853,1.853,0,0,1-2,.911c-5.558-1.067-11.111-2.162-16.669-3.223-1.189-.228-2.39-.384-3.635-.584,0,.306-.005.522,0,.745.05,3.269.067,6.537.161,9.8.067,2.128.25,4.258.378,6.386H546.51c.005-.195.028-.395.016-.589-.133-3.374-.3-6.748-.389-10.127-.062-2.107-.011-4.216-.011-6.4-1.045-.145-2.024-.283-2.984-.417-.389.711-.389.717-1.212.757-1.111.062-2.218.108-3.329.161l-11.518.517c-.7.028-.865-.133-.856-.851.005-1.111-.005-2.224.062-3.335a.865.865,0,0,0-.639-.978,17.167,17.167,0,0,1-4.864-3.223,8.94,8.94,0,0,1-2.8-4.813c-.15-.806-.3-1.621-.517-2.407a209.177,209.177,0,0,1-5.547-25.774,71.316,71.316,0,0,1-.605-19.728,12.268,12.268,0,0,1,2.823-6.576c2.634-3.062,8.788-4.046,12.151-.345a21.946,21.946,0,0,1,3.93,6.214,42.57,42.57,0,0,1,3.119,12.5c.639,6.009,1.24,12.023,1.838,18.037a58.863,58.863,0,0,0,1.017,8.594.742.742,0,0,0,.69.656c1.729.311,3.446.656,5.169.984,1.429.272,2.862.54,4.347.817.028-.278.05-.467.062-.662.145-3.418.3-6.837.432-10.26a8.035,8.035,0,0,0-.444-3.763c-.851-1.9-1.334-3.975-2.284-5.814-2.112-4.1-4.352-8.148-6.664-12.146A94.036,94.036,0,0,0,526.8,344.5a2.717,2.717,0,0,1-.757-3.186c.195-.439.028-.711-.373-.973-1.217-.778-2.4-1.612-3.6-2.407a44.192,44.192,0,0,1-7.426-5.392c-.366-.366-.75-.717-1.24-1.178-1.267,2.7-2.607,5.236-3.663,7.891a66.854,66.854,0,0,0-3.869,15.341,42.277,42.277,0,0,0-.517,8.505c.228,3.969.584,7.943.578,11.918-.005,7.976-.161,15.958-.373,23.935-.133,5.019-.462,10.033-.739,15.052a128.906,128.906,0,0,0-.432,14.652h-1.334c.028-.745.122-1.49.078-2.229a92.474,92.474,0,0,1,.361-10.455c.3-5.814.69-11.628.872-17.448.228-7.2.389-14.4.378-21.6-.005-4.552-.361-9.1-.595-13.651a46.644,46.644,0,0,1,.578-9.233,76.379,76.379,0,0,1,3.08-13.073,1.1,1.1,0,0,0,.023-.195,9.426,9.426,0,0,1-7.754-6.486,25.8,25.8,0,0,1-1.072-3.98,24.451,24.451,0,0,1,1.562-14.68,19.862,19.862,0,0,1,2.351-3.768,4.864,4.864,0,0,1,3.418-2.084c-.584-1.889-1.267-3.741-1.712-5.647a24.528,24.528,0,0,1-.662-9.783,23.718,23.718,0,0,1,4.648-10.138,21.92,21.92,0,0,1,14.185-9.038,28.753,28.753,0,0,1,13.018,1.173,16.094,16.094,0,0,1,6.943,3.763,17.174,17.174,0,0,1,5.219,15.708,9.059,9.059,0,0,1-.506,1.507,2.446,2.446,0,0,0-.139.628c-.122,2.218-.244,4.432-.345,6.648a1.5,1.5,0,0,0,.172.745c.911,1.757,1.845,3.5,2.768,5.242.366.7.324.884-.317,1.318a8.924,8.924,0,0,1-1.106.739,2.111,2.111,0,0,0-1.178,2.006,26.593,26.593,0,0,1-1.73,7.843,10.465,10.465,0,0,1-.683,1.367,4.148,4.148,0,0,1-4,2.245,14.334,14.334,0,0,1-6.07-1.405c-.917,3.223-1.829,6.4-2.7,9.583a1.189,1.189,0,0,0,.166.794c1.578,2.857,3.262,5.659,4.746,8.566a152.465,152.465,0,0,1,6.82,15.386,53.5,53.5,0,0,1,3.262,11.233,62.975,62.975,0,0,1,.823,15.133c-.228,2.362-.2,4.746-.3,7.17,1.967.378,3.913.711,5.837,1.134a123.805,123.805,0,0,0,12.546,1.6c1.873.216,3.757.384,5.636.578,1.017.108,1.217.289,1.434,1.312.044.216.067.439.108.717.5.094,1.012.184,1.434.267a5.629,5.629,0,0,1,4.987-3.223,30.757,30.757,0,0,0,5.576-.789,17.675,17.675,0,0,1,3.841-.256,15.312,15.312,0,0,1,5.252.734,3.567,3.567,0,0,1,1.145.511,1.71,1.71,0,0,0,1.918.133.721.721,0,0,0,.405-.423,1.307,1.307,0,0,1,.906-1.045c.432-.178.839-.395,1.345-.639-.5-.817.062-1.123.662-1.473q16.676-9.747,33.335-19.521a2.279,2.279,0,0,0,.628-.573c1.59-2.029,3.186-4.052,4.741-6.108a4.635,4.635,0,0,0,.556-1.328q1.417-4.4,2.818-8.81a2.487,2.487,0,0,0,.178-.833,26.648,26.648,0,0,1,2.346-12.19c.6-1.456,1.345-2.852,2-4.281a2.875,2.875,0,0,0,.283-1.061c.117-3.09,1.09-5.742,3.757-7.567a.809.809,0,0,0,.262-.606,4.165,4.165,0,0,1,1.189-3.158c.957-.989,1.957-1.935,2.919-2.913a.865.865,0,0,0,.3-.584c-.339-2.213-.711-4.424-1.081-6.626-1,.156-1.928.339-2.874.451a6.558,6.558,0,0,1-7.3-3.9,26.41,26.41,0,0,1-2.206-7.3,5.635,5.635,0,0,1-.2-1.111,2.486,2.486,0,0,0-1.879-2.54,9.984,9.984,0,0,1-1.181-.621c-.722-.4-.789-.589-.451-1.323.865-1.851,1.645-3.747,2.613-5.537a5.9,5.9,0,0,0,.5-4.108c-.423-2.312-.865-4.63-1.123-6.97a27.416,27.416,0,0,1,1.09-10.083,1.743,1.743,0,0,0-.005-.895,10.512,10.512,0,0,1-.278-4.881,4.882,4.882,0,0,1,1.621-2.768,20.951,20.951,0,0,1,4.936-3.243,4.091,4.091,0,0,0,1.106-.812,15.759,15.759,0,0,1,8.143-4.914,14.832,14.832,0,0,1,10.939,2.012,14.856,14.856,0,0,0,4.364,1.767c5.737,1.306,9.36,5.042,11.528,10.377a26.907,26.907,0,0,1,.978,17c-.324,1.328-.324,2.735-.578,4.086-.884,4.775-2.919,8.882-6.975,11.782a14.229,14.229,0,0,1-4.54,2.179c-.506.139-.684.3-.534.865.628,2.385,1.2,4.78,1.8,7.17.028.108.067.205.1.306,1.072-.178,1.072-.178,1.551.817.228.478.456.962.672,1.451a5.162,5.162,0,0,0,1.962,2.563,6.258,6.258,0,0,1,1.845,2.068c1.513,2.457,3.013,4.925,4.38,7.465a59.369,59.369,0,0,1,5.213,14.5,56.1,56.1,0,0,1,1.779,12.107c.034,2.146-.272,4.3-.333,6.448-.172,5.887-.378,11.773-.405,17.66-.023,4.486.128,8.983.333,13.462.317,6.837.739,13.669,1.129,20.506q.483,8.555.984,17.1ZM534.906,389.738c-.172-.956-.423-1.946-.517-2.963-.649-6.9-1.2-13.819-1.928-20.711a82.071,82.071,0,0,0-1.59-9.512,25.783,25.783,0,0,0-4.152-9.605c-1.111-1.529-2.378-3-4.308-3.379a7.474,7.474,0,0,0-8.721,4.141,16.971,16.971,0,0,0-1.445,6.526,70.118,70.118,0,0,0,.566,14.564,194.324,194.324,0,0,0,4.458,22.673c.595,2.368,1.373,4.7,1.818,7.092a8.349,8.349,0,0,0,2.486,4.658,16.456,16.456,0,0,0,8,4.308c4.336.928,8.739,1.562,13.112,2.312q10.306,1.767,20.611,3.529c1.284.223,2.551.522,3.885.8-.161-6,.15-11.84,3.363-17.17-2.062-.216-4.069-.417-6.075-.628-2.673-.283-5.369-.423-8.01-.89q-9.7-1.718-19.36-3.713a4.529,4.529,0,0,0-3.783.667c-.967.667-1.979,1.273-2.974,1.907-.345.223-.75.262-.911-.122a1.116,1.116,0,0,1,.172-.911,3.069,3.069,0,0,1,.856-.617c.506-.334,1.012-.662,1.513-.995-.034-.072-.067-.139-.1-.216-.556.189-1.112.378-1.673.561-.384.122-.734.062-.878-.35a.618.618,0,0,1,.405-.856,9.461,9.461,0,0,1,1.39-.462C532.371,390.143,533.622,389.954,534.906,389.738ZM670.35,289.557a36.953,36.953,0,0,1-1.178,4.281,3.783,3.783,0,0,0-.117,2.852,31.234,31.234,0,0,0,2.407,5.837.865.865,0,0,0,1.173.467,14.376,14.376,0,0,0,4.941-2.546c3.5-2.81,5.174-6.625,5.892-10.939.195-1.178.184-2.407.478-3.557a25.484,25.484,0,0,0-.884-16.336c-1.928-4.73-5.058-8.221-10.15-9.477a20.675,20.675,0,0,1-5.647-2.27,13.048,13.048,0,0,0-9.366-1.684,14.7,14.7,0,0,0-7.891,4.808,4.512,4.512,0,0,1-.934.711c-1.534.967-3.113,1.873-4.608,2.9a3.514,3.514,0,0,0-1.64,2.774,24.735,24.735,0,0,0,.062,2.724,3.287,3.287,0,0,0,2.135,2.9,27.739,27.739,0,0,0,10.939,2.27c.939.034,1.39.3,1.513,1.228a31.462,31.462,0,0,1,.216,3.319,25.956,25.956,0,0,0,1.513,8.355,14.067,14.067,0,0,0,.823,1.557,10.274,10.274,0,0,1,.483-1.033c.628-1.045,1.2-2.128,1.923-3.1a3.908,3.908,0,0,1,6.982.773c.283.595.472,1.24.717,1.907a11.774,11.774,0,0,0,5.013-1.567,7.245,7.245,0,0,0,1.405-1.206c.317-.334.6-.672,1.051-.339a.681.681,0,0,1-.034,1.145,16.324,16.324,0,0,1-2.407,1.851,12.522,12.522,0,0,1-4.8,1.41ZM509.8,312.4a.153.153,0,0,0,.028.072c.25.311.5.628.757.934a18.561,18.561,0,0,0,8.323,5.659,1.154,1.154,0,0,0,.95-.05,11.969,11.969,0,0,0,3.5-6.014.61.61,0,0,0-.15-.511,11.651,11.651,0,0,1-3.2-6.676,8.052,8.052,0,0,1,.5-5.025,3.243,3.243,0,0,1,4.864-1.378c.324.216.628.478.945.717.067-.05.139-.072.172-.122a6.386,6.386,0,0,0,1.528-4.291c-.028-.444.161-.75.623-.778.444-.028.628.267.656.672a6.471,6.471,0,0,1,.011.734,8.232,8.232,0,0,1-1.773,4.452c-.122.172-.272.478-.205.612.568,1.067,1.189,2.112,1.868,3.308,1.051-1.3,2.135-2.512,3.057-3.83,2.785-3.957,5.33-8.043,6.02-12.984a.623.623,0,0,1,.939-.511,6.868,6.868,0,0,1,1.045.584,17.479,17.479,0,0,1,5.174,6c.366.623.711,1.261,1.139,2.018a8.385,8.385,0,0,0,.178-.833c.395-4.216-.161-8.16-2.818-11.674a14.245,14.245,0,0,0-7.048-5.436,48.591,48.591,0,0,0-6.059-1.534,20.56,20.56,0,0,0-15.169,2.74,24.213,24.213,0,0,0-8.9,10.545,15.95,15.95,0,0,0-1.73,6.378,32.53,32.53,0,0,0,1.656,10.75,11.2,11.2,0,0,0,.456,1.081c.384-1.023.723-1.934,1.072-2.841.172-.444.432-.845.984-.6s.356.7.2,1.134c-.35.978-.7,1.962-.962,2.968a3.3,3.3,0,0,0,.584,2.662c.806-.734,1.557-1.384,2.27-2.068.324-.317.633-.628,1.072-.262.472.4.233.806-.117,1.139C511.461,310.9,510.655,311.618,509.8,312.4ZM640.118,299.49c.84.462,1.621.923,2.434,1.323a1.4,1.4,0,0,1,.784,1.123c.5,2.413,1.023,4.814,1.59,7.209a10.362,10.362,0,0,0,.773,1.979c1.417,3.007,3.379,4.046,6.671,3.547a3.419,3.419,0,0,0,.962-.223,11.772,11.772,0,0,0,3.918-3.027c.289-.324.633-.456.984-.156.395.339.272.717-.05,1.04-.6.595-1.228,1.157-1.806,1.773a1,1,0,0,0-.262.717c.228,1.585.506,3.157.767,4.736.108.639.216,1.284.339,2.018a73.587,73.587,0,0,1,16.059-8.477c-.672-2.735-1.334-5.4-2-8.077a3.746,3.746,0,0,0-.267-.865c-.683-1.312-1.461-2.585-2.073-3.93-.511-1.111-.845-2.312-1.261-3.49-.395.373-.745.739-1.134,1.067a4.2,4.2,0,0,1-2.751,1.017c-.389,0-.717-.139-.739-.594-.023-.478.256-.672.711-.678a3.175,3.175,0,0,0,2.351-1.1,10.4,10.4,0,0,0,2.712-7.242,4.834,4.834,0,0,0-.984-2.919,2.423,2.423,0,0,0-3.841-.462,5.047,5.047,0,0,0-1.09,1.245c-.628,1.118-1.2,2.27-1.746,3.435-.25.527-.511.734-1.129.527a3.365,3.365,0,0,1-2.029-2.318,28.352,28.352,0,0,1-1.645-10c0-.7-.083-1.4-.122-2.054-4.658-.366-9.177-.784-13.235-3.308a25.311,25.311,0,0,0-.934,8.988c.289,2.486.757,4.958,1.189,7.426a6.1,6.1,0,0,1-.534,4.175C641.764,295.71,640.99,297.6,640.118,299.49ZM539.481,289c-.133.54-.233,1.04-.384,1.528a38.914,38.914,0,0,1-8.916,14.908,8.089,8.089,0,0,1-.661.649c-.216.184-.478.49-.69.462s-.472-.339-.605-.589c-.594-1.139-1.072-2.346-1.746-3.435a9.25,9.25,0,0,0-1.751-1.979,1.779,1.779,0,0,0-2.229-.156,2.636,2.636,0,0,0-1.157,1.946,10.662,10.662,0,0,0,2.413,8.827,5.434,5.434,0,0,0,1.818.989c.3.15.75.178.872.405s-.094.617-.189,1.061a4.648,4.648,0,0,1,.384,3.591c-.234.828-.55,1.157-1.006.973-.717-.289-.389-.817-.244-1.3a2.886,2.886,0,0,0-.789-3.2c-.016.011-.044.011-.05.028-.062.166-.117.334-.172.5a14.756,14.756,0,0,1-2.852,5,7.706,7.706,0,0,0-1.189,1.879c-.856,1.967-1.634,3.975-2.418,5.909,1.634,1.09,3.262,2.084,4.8,3.213A29.9,29.9,0,0,1,531.9,340c.994,1.862,2.023,3.7,3.052,5.542.094.166.283.389.439.395a.844.844,0,0,0,.757-1.261c-1.73-3.1-3.451-6.209-5.2-9.3a1.506,1.506,0,0,1-.145-1.261c.528-1.785,1.04-3.58,1.551-5.369.451-1.573.89-3.146,1.323-4.7-.806-.556-1.557-1.067-2.3-1.59-.411-.289-1-.605-.568-1.2.467-.633.939-.108,1.357.195,2.4,1.739,4.864,3.235,7.966,3.379,2.174.1,3.14-.361,4.052-2.346a8.883,8.883,0,0,0,.717-1.928c.451-2.284.872-4.575,1.206-6.876a1.925,1.925,0,0,1,.945-1.612c.556-.317,1.062-.711,1.606-1.09-.95-1.79-1.895-3.524-2.79-5.286a2.237,2.237,0,0,1-.184-1.067c.094-2.2.228-4.385.334-6.581a1.189,1.189,0,0,0-.122-.639c-.911-1.573-1.8-3.168-2.79-4.691A12.021,12.021,0,0,0,539.475,289ZM612.3,409.9c.228-.122.384-.189.529-.283,1.045-.672,2.089-1.351,3.135-2.018,1.762-1.123,3.474-2.329,5.3-3.324,2.218-1.206,4.547-2.218,6.81-3.351,2.5-1.24,5.13-2.252,7.287-4.1a1.179,1.179,0,0,0,.451-.662c.184-2.079.389-4.164.456-6.248a111.978,111.978,0,0,1,1.946-18.268c.205-1.033.405-2.062.612-3.1-1.156,1.273-2.185,2.6-3.23,3.918a2.77,2.77,0,0,1-.717.678c-3.379,2.054-6.743,4.13-10.156,6.126-7.287,4.252-14.6,8.46-21.906,12.69-.161.094-.317.205-.517.334a3.144,3.144,0,0,0,.311.156,11.763,11.763,0,0,1,7.071,7.17A42.294,42.294,0,0,1,612.3,409.9Zm27.84-41.339.156.05c.089-.189.184-.378.267-.573a89.117,89.117,0,0,1,8.621-16.28,120.41,120.41,0,0,1,14.049-17.308.7.7,0,0,0,.189-.865c-.384-1.017-.722-2.054-1.095-3.074-.189-.534-.078-.911.483-1.106.228-.078.456-.178.678-.278a47.729,47.729,0,0,0,10.211-5.7c1.729-1.345,3.391-2.779,5.153-4.224-.423-.389-.75-.717-1.106-1.006a1.666,1.666,0,0,0-1.9-.311c-1.523.722-3.124,1.3-4.6,2.1a49.055,49.055,0,0,0-16.887,15.674,94.05,94.05,0,0,0-13.669,30.7C640.512,367.087,640.329,367.826,640.143,368.56Zm-54.667,44.868c.511-.156.95-.283,1.385-.423.094-.034.223-.094.255-.172.306-.745.812-.6,1.279-.244.879.672,1.729,1.378,2.579,2.1a.879.879,0,0,0,1.405-.122,1.739,1.739,0,0,0,.189-1.24,5.208,5.208,0,0,0-1.051-1.739,13.512,13.512,0,0,0-1.9-1.557c-.35-.256-.568-.54-.339-.945.255-.451.649-.384,1.033-.15.078.044.15.094.228.139a8.174,8.174,0,0,1,3.191,3.513,1.969,1.969,0,0,0,.584-2.185,4.13,4.13,0,0,0-1.583-2.079,18.425,18.425,0,0,1-2.006-1.829.924.924,0,0,1,.039-.911c.283-.334.656-.2.962.139a7.234,7.234,0,0,0,1.051,1.012,6.8,6.8,0,0,1,2.719,3.09,1.043,1.043,0,0,0,.324-1.306,9.531,9.531,0,0,0-.839-1.73,19.468,19.468,0,0,0-5.348-5.231,11.9,11.9,0,0,0-4.141-2.054,7.084,7.084,0,0,0-4.875.3,4.829,4.829,0,0,1-.994,4.508,2.126,2.126,0,0,1-3.814-.939c-.108-1.081-.272-2.162-.4-3.235a.678.678,0,0,0-.661-.662c-1.072-.161-2.151-.345-3.213-.578-.483-.108-.757-.005-.9.467-.561,1.838-1.233,3.658-1.673,5.525a45.187,45.187,0,0,0-.617,4.525l3.552.778a22.226,22.226,0,0,1,1.545-2.213,2.232,2.232,0,0,1,3.7.917,8.972,8.972,0,0,1,.14.923,2.236,2.236,0,0,1,2.834-.561c1.067.511,1.178,1.539,1.206,2.729a2.226,2.226,0,0,1,2.829-1.051,2.178,2.178,0,0,1,1.323,2.492Zm18.154-7.26c-.283-1.621-.54-3.168-.839-4.714a9.346,9.346,0,0,0-2.9-5.13.763.763,0,0,0-.878-.205,19.579,19.579,0,0,1-2.5.7,2.063,2.063,0,0,1-1.09-.205c-.49-.195-.923-.566-1.417-.711a17.944,17.944,0,0,0-9.01-.373,16.723,16.723,0,0,1-4.919.656,5.417,5.417,0,0,0-3.652,1.534.64.64,0,0,0-.184.878,5.309,5.309,0,0,1,.417,1.4c.161,1.028.228,2.073.417,3.1a1.117,1.117,0,0,0,.612.729,1,1,0,0,0,.856-.244,3.275,3.275,0,0,0,.6-3.8c-.272-.561-.156-.878.439-1.067.7-.223,1.4-.439,2.107-.606A8.476,8.476,0,0,1,588.4,399.2c3.485,2.2,6.726,4.642,8.549,8.471,2.212-.5,4.386-.99,6.68-1.507Zm-57.764-33.657c.05-.023.1-.039.145-.062-.034-.195-.055-.389-.1-.578a46.014,46.014,0,0,0-4.352-11.566q-4.648-8.738-9.444-17.387a38.864,38.864,0,0,0-3.913-6.1,37.4,37.4,0,0,0-10.216-8.254c-1.817-1.056-2.3-.917-3.459.865-.094.15-.244.3-.262.456-.023.223-.034.54.1.667a39.317,39.317,0,0,0,3.685,3.269c2.512,1.79,5.142,3.418,7.7,5.142,1.762,1.189,1.729,1.2,1.334,3.308a1.222,1.222,0,0,0,.216.89,111.609,111.609,0,0,1,13.073,19.1c1.69,3.052,3.329,6.126,4.985,9.194.2.339.345.7.512,1.051Zm-42.2-35.131c-.072-.216-.145-.432-.216-.639-.3-.884-.639-1.751-.89-2.646a12.715,12.715,0,0,1-.432-4.552c.039-.444.161-.884.729-.84s.623.462.578.934a9.617,9.617,0,0,0-.062,1.328A17.823,17.823,0,0,0,505.44,338a2.349,2.349,0,0,0,2.19,1.423c.856.055.917-.039.617-.828-.395-1.061-.812-2.118-1.139-3.2a21.094,21.094,0,0,1-.872-9.729c.389-2.27.856-4.54,1.111-6.832a49.742,49.742,0,0,0,.272-6.3c-.028-1.562-.872-1.757-2.234-1.111a2.073,2.073,0,0,0-.656.444,18.152,18.152,0,0,0-1.935,2.27,19.636,19.636,0,0,0-2.88,9.116,23.085,23.085,0,0,0,1.773,11.589,6.054,6.054,0,0,0,1.98,2.536Zm5.465-23.695c-.15,1.684-.223,3.308-.444,4.9-.361,2.574-.865,5.125-1.234,7.693-.55,3.8.334,7.4,1.673,11.061.161-.334.267-.568.384-.794,1.267-2.486,2.512-5,3.819-7.465a4.155,4.155,0,0,1,2.546-2.407c.929-.205,1.081-.789,1.357-1.429.089-.205.172-.412.256-.617.511-1.267,1.023-2.529,1.557-3.841a2.689,2.689,0,0,0-2.123,2.7c-.039.478-.178.878-.729.817s-.606-.5-.561-.956a4.381,4.381,0,0,1,1.9-3.374,20.98,20.98,0,0,1-8.4-6.287Zm165.754.2a2.284,2.284,0,0,0-.272.05,77.209,77.209,0,0,0-14.352,7.081,28.782,28.782,0,0,0-6.554,5.5,3.163,3.163,0,0,0-.823,2.312c.078,1.15.108,2.307.216,3.459.067.75.223,1.495.361,2.424,5.853-8.376,13.08-14.752,22.592-18.327-.389-.835-.773-1.652-1.167-2.5ZM599.9,394.657a10.537,10.537,0,0,1,4.058,6.147c.411,1.838.678,3.713.962,5.576.2,1.323.324,2.662.49,4.074,1.585-.917,3.108-1.829,4.648-2.685a.739.739,0,0,0,.444-.994c-.672-2.229-1.234-4.5-2.018-6.681a10.3,10.3,0,0,0-5.887-6.27,1.049,1.049,0,0,0-.683-.108C601.259,393.989,600.629,394.318,599.9,394.657Zm49.454-53.551c.717-1.162,1.318-2.307,2.079-3.335a3.574,3.574,0,0,0,.711-3.368,26.145,26.145,0,0,1-.511-3.524c-2.813,1.822-3.335,6.458-2.279,10.232ZM538.9,410.816c0-.062.005-.122.005-.189-3.783-.739-7.567-1.473-11.4-2.218v2.929C531.333,411.16,535.113,410.987,538.9,410.816Zm4.691-49.4a131.051,131.051,0,0,0-6.314-15.08l-1.412.917q3.852,7.064,7.726,14.165Zm32.495,49.192-.133-.016a7.613,7.613,0,0,0-.011-1.129c-.1-.729-1.051-1.157-1.507-.639a6.091,6.091,0,0,0-1.767,4.78,1.55,1.55,0,0,0,1.422,1.362,1.438,1.438,0,0,0,1.456-1.212c.223-1.045.367-2.1.541-3.146Zm4.024,1.679-.133-.016a4.23,4.23,0,0,0-.028-1.189,1.229,1.229,0,0,0-.656-.717,1,1,0,0,0-.872.223,6.526,6.526,0,0,0-1.656,3.98,2.349,2.349,0,0,0,.205,1.028,1.316,1.316,0,0,0,1.384.839,1.3,1.3,0,0,0,1.206-1.081c.217-1.014.376-2.042.55-3.066Zm67.7-72.111a28.686,28.686,0,0,0-3.508,11.006,1.8,1.8,0,0,0,.317-.49c.817-1.751,1.513-3.567,2.473-5.236a5.585,5.585,0,0,0,.757-5.081,1.273,1.273,0,0,1-.039-.2ZM581,416.327c.017.184.023.361.044.54a1.219,1.219,0,0,0,.984,1.123c.541.128.806-.3,1.023-.683a10.117,10.117,0,0,0,1.134-4.336,1.03,1.03,0,0,0-.534-.789,1.016,1.016,0,0,0-.939.184,7.133,7.133,0,0,0-1.71,3.963Zm6.743-.767c-.216-.432-.324-1.09-.656-1.234-.511-.223-.95.306-1.15.784a22.29,22.29,0,0,0-.984,2.818,1.061,1.061,0,0,0,.439.865.951.951,0,0,0,.856-.156,4.668,4.668,0,0,0,1.5-3.074Zm16.053-8.107c-.884.2-1.651.378-2.473.561a6.627,6.627,0,0,0,2.8,2.868c-.11-1.205-.211-2.28-.321-3.429Zm-33.773,3.63c-.662-.122-1.111-.205-1.578-.3v3.157c.083.023.166.05.25.072.428-.939.851-1.885,1.33-2.935Zm18.815,5.621a4.032,4.032,0,0,0,.9.072.914.914,0,0,0,.649-.324.787.787,0,0,0-.167-.7c-.4-.456-.865-.851-1.373-1.328Zm20.594-7.087c.462.95.9,1.245,1.645,1.081-.062-.589-.128-1.189-.205-1.912-.556.318-1,.579-1.439.834ZM546.09,372.776c-.011-.034-.028-.072-.039-.108-.023.023-.062.039-.062.062a.3.3,0,0,0,.039.108.644.644,0,0,1,.062-.058Z" fill="#1c1f21" stroke="#707070" stroke-width="1.081"/>
      <path id="Path_20589" data-name="Path 20589" d="M829.31,507.077H807.847q.225-13.6.451-27.2c.023-1.367.005-2.729.005-4.1.062-.011.122-.016.184-.028.133.166.267.324.4.5a6.041,6.041,0,0,0,2.719,1.967.623.623,0,0,0,.9-.324.6.6,0,0,0-.389-.856,3.014,3.014,0,0,1-.54-.244c-.54-.378-1.081-.778-1.621-1.167.039-.062.072-.117.108-.178.172.028.339.078.511.089,1.39.089,2.779.189,4.175.239a.629.629,0,0,0,.711-.757c-.062-.5-.432-.55-.851-.511a14.664,14.664,0,0,1-6.2-.911c-.011-.108-.028-.195-.033-.278-.2-11.155-.456-22.312-.562-33.467a71.364,71.364,0,0,1,.612-9.3,21.6,21.6,0,0,1,3.535-9.816,9.436,9.436,0,0,1,5.77-4.33c3.018-.649,5.945-.456,8.449,1.484a13.122,13.122,0,0,1,5.375,10.688c.005,4.53-.384,9.055-.584,13.584-.361,8.323-.806,16.653-1.045,24.985-.283,9.889-.395,19.781-.556,29.666C829.3,500.227,829.325,503.651,829.31,507.077Z" transform="translate(-150.248 -78.412)" fill="#85cff3" stroke="#707070" stroke-width="1.081"/>
      <path id="Path_20590" data-name="Path 20590" d="M509.825,501.147a130.2,130.2,0,0,1,.432-14.652c.283-5.014.605-10.034.739-15.052.216-7.976.361-15.958.372-23.935.005-3.975-.35-7.943-.578-11.918a42.281,42.281,0,0,1,.517-8.5,66.858,66.858,0,0,1,3.869-15.341c1.062-2.652,2.4-5.189,3.663-7.891.483.462.872.812,1.24,1.178a44.182,44.182,0,0,0,7.426,5.392c1.206.794,2.385,1.629,3.6,2.407.405.262.566.534.372.973a2.718,2.718,0,0,0,.757,3.186,94.032,94.032,0,0,1,10.7,15.169c2.312,4,4.547,8.043,6.665,12.146.95,1.838,1.434,3.918,2.284,5.814a8.025,8.025,0,0,1,.444,3.763c-.133,3.418-.283,6.842-.432,10.26-.005.195-.034.389-.062.662-1.484-.278-2.919-.54-4.346-.817-1.723-.324-3.441-.678-5.169-.984a.742.742,0,0,1-.69-.656,58.753,58.753,0,0,1-1.017-8.594c-.594-6.014-1.2-12.029-1.838-18.037a42.57,42.57,0,0,0-3.119-12.5,22.193,22.193,0,0,0-3.93-6.214c-3.368-3.7-9.512-2.719-12.151.345a12.268,12.268,0,0,0-2.823,6.575,71.74,71.74,0,0,0,.606,19.727,210.208,210.208,0,0,0,5.547,25.774c.216.789.366,1.6.517,2.407a8.941,8.941,0,0,0,2.8,4.814,17.049,17.049,0,0,0,4.864,3.223.865.865,0,0,1,.639.978c-.072,1.106-.055,2.224-.062,3.335-.005.717.156.878.856.851q5.761-.25,11.518-.517c1.111-.05,2.218-.108,3.329-.161.823-.044.823-.05,1.212-.757.956.133,1.94.272,2.984.417,0,2.185-.05,4.3.011,6.4.094,3.374.262,6.748.389,10.127.005.195-.011.395-.016.589Q530.9,501.152,509.825,501.147Z" transform="translate(-5.451 -72.482)" fill="#85cff3" stroke="#707070" stroke-width="1.081"/>
      <path id="Path_20592" data-name="Path 20592" d="M816.14,505.851c.011-3.424-.011-6.848.044-10.269.161-9.889.272-19.781.556-29.666.239-8.332.684-16.659,1.045-24.985.2-4.53.584-9.061.584-13.584a13.122,13.122,0,0,0-5.376-10.689c-2.507-1.94-5.431-2.128-8.449-1.484a9.452,9.452,0,0,0-5.77,4.33,21.67,21.67,0,0,0-3.535,9.816,71.374,71.374,0,0,0-.612,9.3c.108,11.155.361,22.312.561,33.467a1.7,1.7,0,0,0,.034.278,14.664,14.664,0,0,0,6.2.911c.417-.044.784.011.851.511a.629.629,0,0,1-.711.757c-1.39-.05-2.785-.15-4.175-.239a4.106,4.106,0,0,1-.511-.089c-.039.062-.072.117-.108.178.54.389,1.072.789,1.621,1.167a2.671,2.671,0,0,0,.54.244.605.605,0,0,1,.389.856.623.623,0,0,1-.9.324,6.125,6.125,0,0,1-2.719-1.967c-.133-.166-.267-.324-.4-.5-.062.011-.122.016-.184.028,0,1.367.016,2.729-.005,4.1q-.216,13.6-.451,27.2h-1.334q.1-4.736.195-9.466c.034-1.6.056-3.2.083-4.8.005-.35,0-.706,0-1.129-1.323-.062-2.6-.128-3.88-.178q-3.927-.159-7.86-.306c-.9-.034-1.051-.189-1.067-1.056-.039-1.957-.083-3.913-.117-5.87-.011-.823.15-.984.973-.956q5.762.209,11.523.432c.156.005.311,0,.656,0,0-1.09.016-2.162,0-3.243-.117-7.509-.278-15.019-.345-22.528-.067-7.754-.156-15.514-.005-23.268a27.9,27.9,0,0,1,3.641-13.836,11.675,11.675,0,0,1,4.986-4.964,11.442,11.442,0,0,1,14.341,3.591,17.2,17.2,0,0,1,3.23,11.745q-.633,9.547-1.017,19.11c-.378,9.639-.734,19.277-.934,28.921-.195,9.266-.184,18.537-.267,27.8Zm-22.473-16.687v-5.319c-3.885-.156-7.738-.306-11.578-.462v5.3Z" transform="translate(-137.075 -77.188)" fill="#1c1f21" stroke="#707070" stroke-width="1.081"/>
      <path id="Path_20593" data-name="Path 20593" d="M547.721,473.55c-1.29.216-2.535.4-3.775.639a9.252,9.252,0,0,0-1.39.462.618.618,0,0,0-.405.856c.15.411.5.472.879.35.561-.178,1.111-.373,1.673-.561.034.072.067.139.1.216-.506.334-1.012.662-1.513.995a3.072,3.072,0,0,0-.856.617,1.093,1.093,0,0,0-.172.911c.166.389.566.345.911.122.989-.633,2-1.24,2.974-1.907a4.533,4.533,0,0,1,3.783-.667q9.655,1.993,19.36,3.713c2.641.467,5.336.605,8.01.89,2.006.216,4.014.417,6.075.628-3.207,5.33-3.524,11.173-3.363,17.17-1.329-.278-2.6-.578-3.885-.8-6.871-1.189-13.74-2.351-20.611-3.529-4.375-.75-8.777-1.384-13.112-2.312a16.341,16.341,0,0,1-8-4.308,8.315,8.315,0,0,1-2.486-4.658c-.444-2.4-1.222-4.725-1.817-7.092a194.286,194.286,0,0,1-4.458-22.673,69.744,69.744,0,0,1-.567-14.564,16.972,16.972,0,0,1,1.445-6.526,7.477,7.477,0,0,1,8.721-4.141c1.928.378,3.2,1.856,4.308,3.379a25.744,25.744,0,0,1,4.152,9.605,82.466,82.466,0,0,1,1.59,9.512c.734,6.892,1.279,13.807,1.928,20.711A26.774,26.774,0,0,0,547.721,473.55Z" transform="translate(-12.809 -83.812)" fill="#85cff3" stroke="#707070" stroke-width="1.081"/>
      <path id="Path_20594" data-name="Path 20594" d="M806.674,290.777a12.614,12.614,0,0,0,4.808-1.405,16.032,16.032,0,0,0,2.407-1.851c.361-.311.511-.794.034-1.145-.451-.334-.734.005-1.051.339a7.445,7.445,0,0,1-1.405,1.206,11.7,11.7,0,0,1-5.013,1.567c-.25-.672-.432-1.312-.717-1.907a3.908,3.908,0,0,0-6.982-.773,36.059,36.059,0,0,0-1.923,3.1c-.156.262-.262.556-.483,1.033a12.744,12.744,0,0,1-.823-1.557,26.073,26.073,0,0,1-1.513-8.355,31.527,31.527,0,0,0-.216-3.319c-.122-.934-.573-1.2-1.513-1.228a27.837,27.837,0,0,1-10.939-2.27,3.287,3.287,0,0,1-2.134-2.9,24.781,24.781,0,0,1-.061-2.724,3.528,3.528,0,0,1,1.64-2.774c1.5-1.023,3.074-1.928,4.608-2.9a4.507,4.507,0,0,0,.934-.711,14.7,14.7,0,0,1,7.891-4.808,13.021,13.021,0,0,1,9.367,1.684,20.679,20.679,0,0,0,5.647,2.27c5.091,1.256,8.221,4.747,10.15,9.477a25.484,25.484,0,0,1,.884,16.336c-.3,1.15-.283,2.378-.478,3.557-.711,4.313-2.39,8.121-5.892,10.939a14.18,14.18,0,0,1-4.941,2.546.865.865,0,0,1-1.173-.467,31.624,31.624,0,0,1-2.407-5.837,3.814,3.814,0,0,1,.117-2.852,36.634,36.634,0,0,0,1.179-4.284Zm-16.819-22.21c-.1.094-.478.289-.54.556-.108.417.205.683.661.717a5.286,5.286,0,0,1,.595.083c2.946.584,5.114,2.068,5.931,5.119.108.423.3.784.812.662.556-.128.54-.561.439-1.012a8.4,8.4,0,0,0-7.9-6.125Zm14.185,15.62c.044-.039.094-.078.139-.117.324-.05.662-.089.989-.15a17.05,17.05,0,0,0,7.41-2.963c.389-.289.8-.623.439-1.145-.384-.54-.773-.178-1.189.078a15.95,15.95,0,0,1-2.9,1.6c-1.539.54-3.152.865-4.741,1.256-.432.108-.839.239-.739.739.048.265.387.467.592.7Z" transform="translate(-136.318 -1.216)" fill="#85cff3" stroke="#707070" stroke-width="1.081"/>
      <path id="Path_20595" data-name="Path 20595" d="M515.958,332.694c.851-.784,1.656-1.507,2.446-2.252.35-.324.589-.739.117-1.139-.439-.373-.745-.055-1.072.262-.711.683-1.461,1.334-2.27,2.068a3.3,3.3,0,0,1-.584-2.662c.262-1.006.612-1.99.962-2.968.156-.439.373-.878-.2-1.134-.556-.25-.812.156-.984.6-.35.906-.69,1.817-1.072,2.841-.166-.395-.345-.729-.456-1.081a32.553,32.553,0,0,1-1.656-10.75,15.95,15.95,0,0,1,1.73-6.378,24.184,24.184,0,0,1,8.9-10.545,20.56,20.56,0,0,1,15.169-2.74,47.636,47.636,0,0,1,6.063,1.53,14.245,14.245,0,0,1,7.048,5.436c2.657,3.513,3.213,7.459,2.818,11.674a8.346,8.346,0,0,1-.178.833c-.432-.757-.773-1.4-1.139-2.018a17.53,17.53,0,0,0-5.174-6,6.424,6.424,0,0,0-1.045-.584.622.622,0,0,0-.939.511c-.684,4.941-3.235,9.022-6.02,12.984-.929,1.318-2.013,2.524-3.057,3.83-.683-1.194-1.3-2.234-1.868-3.308-.072-.133.078-.439.205-.612a8.232,8.232,0,0,0,1.773-4.452,6.457,6.457,0,0,0-.011-.734c-.028-.405-.216-.7-.656-.672-.462.028-.649.334-.623.778a6.378,6.378,0,0,1-1.529,4.291.719.719,0,0,1-.172.122c-.317-.239-.617-.5-.945-.717a3.243,3.243,0,0,0-4.864,1.378,8.091,8.091,0,0,0-.5,5.025,11.721,11.721,0,0,0,3.2,6.676.648.648,0,0,1,.15.511,11.946,11.946,0,0,1-3.5,6.014,1.176,1.176,0,0,1-.95.05,18.563,18.563,0,0,1-8.323-5.659c-.262-.3-.506-.617-.757-.934C515.958,332.733,515.953,332.683,515.958,332.694Zm5.887-12.234v.334c0,.511-.189,1.2.628,1.2.773.005.612-.684.633-1.162.161-3.508,1.095-6.687,3.783-9.16.172-.156.1-.578.139-.878a2.325,2.325,0,0,0-.95-.044,2.51,2.51,0,0,0-.789.7,13.928,13.928,0,0,0-3.445,9.014Z" transform="translate(-6.154 -20.292)" fill="#85cff3" stroke="#707070" stroke-width="1.081"/>
      <path id="Path_20596" data-name="Path 20596" d="M773.89,317.146c.879-1.884,1.645-3.783,2.618-5.564a6.105,6.105,0,0,0,.534-4.175c-.423-2.473-.9-4.941-1.189-7.426a25.185,25.185,0,0,1,.934-8.988c4.058,2.524,8.576,2.94,13.235,3.308.044.649.128,1.351.122,2.054a28.215,28.215,0,0,0,1.645,10,3.375,3.375,0,0,0,2.029,2.318c.623.205.879,0,1.129-.529.54-1.162,1.111-2.318,1.746-3.435a5.047,5.047,0,0,1,1.09-1.245,2.42,2.42,0,0,1,3.841.462,4.882,4.882,0,0,1,.983,2.919,10.4,10.4,0,0,1-2.712,7.242,3.166,3.166,0,0,1-2.351,1.1c-.456.005-.734.2-.711.678.023.456.35.6.739.595a4.19,4.19,0,0,0,2.751-1.017c.389-.324.74-.7,1.134-1.067.417,1.178.75,2.378,1.261,3.49.617,1.345,1.39,2.618,2.073,3.93a3.833,3.833,0,0,1,.267.865c.662,2.668,1.318,5.342,2,8.077a73.577,73.577,0,0,0-16.059,8.477c-.122-.734-.234-1.378-.339-2.018-.262-1.578-.54-3.152-.767-4.736a1.016,1.016,0,0,1,.261-.717c.578-.612,1.206-1.178,1.806-1.773.324-.324.444-.7.05-1.04-.35-.3-.7-.172-.984.156a11.919,11.919,0,0,1-3.918,3.027,3.731,3.731,0,0,1-.962.223c-3.285.5-5.252-.54-6.671-3.547a10.364,10.364,0,0,1-.773-1.979q-.851-3.593-1.59-7.209a1.4,1.4,0,0,0-.784-1.123C775.507,318.069,774.722,317.608,773.89,317.146Zm10.039,4.269c0-.2.005-.4,0-.6-.011-.432-.256-.589-.662-.522-1.44.244-2.88.506-4.324.745-.556.094-.678.423-.439.851a19.649,19.649,0,0,0,1.534,2.551,1.664,1.664,0,0,0,2.857-.016,4.526,4.526,0,0,0,1.033-3.008Zm-3.2-19.066a3.1,3.1,0,0,0-2.624,1.405.865.865,0,0,0,.067.845c.178.145.578.016.879-.016.067-.005.108-.128.172-.195a1.9,1.9,0,0,1,2.574-.444,7.632,7.632,0,0,1,1.09.757c.339.25.717.3.917-.062a.921.921,0,0,0-.067-.865,4.348,4.348,0,0,0-3.007-1.426Zm1.318,6.51c.005-1.067-.75-1.862-1.6-1.673a1.662,1.662,0,0,0-1.072,1.912,1.48,1.48,0,0,0,1.422,1.405,1.533,1.533,0,0,0,1.251-1.644Z" transform="translate(-133.772 -17.656)" fill="#fdfdfd" stroke="#707070" stroke-width="1.081"/>
      <path id="Path_20597" data-name="Path 20597" d="M557.807,321.455a12.086,12.086,0,0,1,3.63,3.708c.994,1.523,1.879,3.119,2.79,4.691a1.19,1.19,0,0,1,.122.639c-.108,2.2-.239,4.385-.333,6.581a2.225,2.225,0,0,0,.184,1.067c.9,1.757,1.838,3.49,2.79,5.286-.54.373-1.051.773-1.606,1.09a1.917,1.917,0,0,0-.945,1.612c-.334,2.3-.757,4.591-1.206,6.876a9.072,9.072,0,0,1-.717,1.928c-.911,1.985-1.879,2.446-4.052,2.346-3.1-.145-5.57-1.64-7.966-3.379-.417-.306-.89-.828-1.357-.195-.432.595.15.906.568,1.2.739.529,1.495,1.033,2.3,1.59-.439,1.551-.878,3.124-1.323,4.7-.511,1.79-1.017,3.586-1.551,5.369a1.53,1.53,0,0,0,.145,1.261c1.746,3.1,3.459,6.2,5.2,9.3a.844.844,0,0,1-.757,1.261c-.156-.005-.345-.228-.439-.395-1.028-1.838-2.054-3.685-3.052-5.542-2.185-4.085-5.519-7.092-9.183-9.783-1.534-1.129-3.163-2.123-4.8-3.213.784-1.935,1.562-3.936,2.418-5.909a7.878,7.878,0,0,1,1.189-1.879,14.7,14.7,0,0,0,2.852-5c.055-.166.108-.334.172-.5.005-.011.034-.016.05-.028a2.886,2.886,0,0,1,.789,3.2c-.145.478-.472,1.006.244,1.3.456.184.773-.145,1.006-.973a4.648,4.648,0,0,0-.384-3.591c.094-.444.311-.845.189-1.061s-.578-.256-.872-.405a5.38,5.38,0,0,1-1.818-.989,10.652,10.652,0,0,1-2.413-8.827,2.635,2.635,0,0,1,1.157-1.946,1.779,1.779,0,0,1,2.229.156,8.973,8.973,0,0,1,1.751,1.979c.667,1.09,1.15,2.3,1.746,3.435.128.244.378.561.605.589s.472-.278.69-.462a8.121,8.121,0,0,0,.662-.649,38.915,38.915,0,0,0,8.916-14.907C557.568,322.495,557.674,321.994,557.807,321.455Zm3.7,29.065a2.7,2.7,0,0,0,.757-.366,5.374,5.374,0,0,0,1.545-2.662c.117-.389-.128-.589-.478-.649-1.684-.278-3.368-.55-5.052-.806-.378-.055-.578.145-.617.517C557.485,348.236,559.569,350.509,561.51,350.52Zm-2.079-21.656c-.023.056-.044.108-.067.161a4.685,4.685,0,0,0-3.8,2.335.9.9,0,0,0,.156.845c.166.128.573-.023.856-.117.122-.039.184-.239.283-.361,1.256-1.513,2.3-1.73,4.058-.845.366.184.773.2.906-.184a.95.95,0,0,0-.244-.884A18.106,18.106,0,0,0,559.431,328.864Zm2.768,6.276a7.761,7.761,0,0,0-.529-1.434,1.093,1.093,0,0,0-1.884-.078,2.563,2.563,0,0,0,.05,2.979,1.028,1.028,0,0,0,1.707,0A7.8,7.8,0,0,0,562.2,335.14Z" transform="translate(-18.332 -32.454)" fill="#fdfdfd" stroke="#707070" stroke-width="1.081"/>
      <path id="Path_20598" data-name="Path 20598" d="M710.363,517.5a42.847,42.847,0,0,0-2.607-10.278,11.782,11.782,0,0,0-7.07-7.17c-.083-.033-.156-.078-.311-.156.2-.128.356-.239.517-.334,7.3-4.23,14.619-8.431,21.906-12.69,3.413-1.99,6.775-4.069,10.156-6.126a2.957,2.957,0,0,0,.717-.678c1.045-1.318,2.068-2.646,3.23-3.919-.205,1.033-.405,2.062-.612,3.1a111.929,111.929,0,0,0-1.946,18.268c-.067,2.084-.272,4.169-.456,6.248a1.238,1.238,0,0,1-.451.662c-2.162,1.851-4.785,2.862-7.287,4.1-2.27,1.123-4.591,2.135-6.81,3.351-1.829.994-3.541,2.206-5.3,3.324-1.051.667-2.089,1.351-3.135,2.018A6.017,6.017,0,0,1,710.363,517.5Z" transform="translate(-98.059 -107.603)" fill="#85cff3" stroke="#707070" stroke-width="1.081"/>
      <path id="Path_20599" data-name="Path 20599" d="M773.944,428.126c.184-.739.361-1.479.55-2.218a94.05,94.05,0,0,1,13.669-30.7,49.054,49.054,0,0,1,16.887-15.674c1.473-.8,3.074-1.373,4.6-2.1a1.658,1.658,0,0,1,1.9.311c.361.289.684.623,1.106,1.006-1.757,1.445-3.418,2.88-5.153,4.224a47.87,47.87,0,0,1-10.211,5.7,7.24,7.24,0,0,1-.678.278c-.566.195-.678.573-.483,1.106.366,1.023.711,2.054,1.1,3.074a.7.7,0,0,1-.189.865,120.408,120.408,0,0,0-14.046,17.309,89.467,89.467,0,0,0-8.622,16.28c-.083.195-.178.384-.267.573A.75.75,0,0,1,773.944,428.126Z" transform="translate(-133.799 -59.566)" fill="#84cdf1" stroke="#707070" stroke-width="1.081"/>
      <path id="Path_20600" data-name="Path 20600" d="M651.442,549.681a2.153,2.153,0,0,0-1.328-2.473,2.22,2.22,0,0,0-2.829,1.051c-.028-1.189-.139-2.218-1.206-2.729a2.243,2.243,0,0,0-2.834.561,8.989,8.989,0,0,0-.139-.923,2.232,2.232,0,0,0-3.7-.917,22.239,22.239,0,0,0-1.546,2.213l-3.552-.778a43.6,43.6,0,0,1,.617-4.525c.439-1.868,1.106-3.685,1.673-5.525.145-.472.417-.573.9-.467,1.061.234,2.135.411,3.213.578a.67.67,0,0,1,.661.662c.128,1.081.3,2.162.4,3.235a2.125,2.125,0,0,0,3.813.939,4.829,4.829,0,0,0,.994-4.508,7.053,7.053,0,0,1,4.875-.3,11.852,11.852,0,0,1,4.141,2.054,19.471,19.471,0,0,1,5.348,5.231,9.546,9.546,0,0,1,.839,1.729,1.05,1.05,0,0,1-.324,1.306A6.854,6.854,0,0,0,658.736,543a8.211,8.211,0,0,1-1.051-1.012c-.3-.339-.678-.472-.962-.139a.952.952,0,0,0-.039.911,18.965,18.965,0,0,0,2.006,1.829,4.131,4.131,0,0,1,1.584,2.079,1.97,1.97,0,0,1-.584,2.185,8.179,8.179,0,0,0-3.191-3.513c-.072-.05-.15-.094-.228-.139-.384-.233-.773-.306-1.033.15-.233.405-.011.684.339.945a13.515,13.515,0,0,1,1.895,1.557,5.3,5.3,0,0,1,1.051,1.739,1.729,1.729,0,0,1-.189,1.24.879.879,0,0,1-1.405.122c-.845-.717-1.695-1.423-2.579-2.1-.467-.356-.973-.5-1.279.244a.415.415,0,0,1-.256.172C652.393,549.4,651.953,549.525,651.442,549.681Z" transform="translate(-65.964 -136.252)" fill="#fdfdfd" stroke="#707070" stroke-width="1.081"/>
      <path id="Path_20601" data-name="Path 20601" d="M676.973,538.88c-2.291.517-4.469,1.012-6.681,1.513-1.818-3.83-5.064-6.27-8.549-8.471a8.453,8.453,0,0,0-6.71-1.095c-.711.166-1.412.384-2.107.605-.589.189-.706.506-.439,1.067a3.275,3.275,0,0,1-.6,3.8,1,1,0,0,1-.856.244,1.127,1.127,0,0,1-.612-.729c-.189-1.023-.25-2.068-.417-3.1a5.53,5.53,0,0,0-.417-1.4.639.639,0,0,1,.184-.878,5.428,5.428,0,0,1,3.651-1.534,16.722,16.722,0,0,0,4.919-.656,17.944,17.944,0,0,1,9.011.373c.5.145.928.517,1.417.711a2.065,2.065,0,0,0,1.09.205,19.585,19.585,0,0,0,2.5-.7.763.763,0,0,1,.878.206,9.379,9.379,0,0,1,2.9,5.13C676.434,535.706,676.69,537.263,676.973,538.88Z" transform="translate(-73.342 -132.711)" fill="#fdfdfd" stroke="#707070" stroke-width="1.081"/>
      <path id="Path_20602" data-name="Path 20602" d="M560.747,441.713c-.166-.356-.311-.717-.5-1.056-1.656-3.068-3.3-6.142-4.986-9.194a112.028,112.028,0,0,0-13.073-19.1,1.2,1.2,0,0,1-.216-.89c.4-2.107.432-2.123-1.334-3.308-2.563-1.723-5.189-3.351-7.7-5.142a39.294,39.294,0,0,1-3.685-3.269c-.133-.122-.122-.444-.1-.667.016-.161.166-.306.262-.456,1.157-1.785,1.64-1.918,3.459-.865a37.562,37.562,0,0,1,10.216,8.254,39.385,39.385,0,0,1,3.913,6.1q4.8,8.648,9.444,17.387a45.673,45.673,0,0,1,4.352,11.566c.044.189.067.389.1.578a1.186,1.186,0,0,1-.157.067Z" transform="translate(-14.88 -69.201)" fill="#84cdf1" stroke="#707070" stroke-width="1.081"/>
      <path id="Path_20603" data-name="Path 20603" d="M504.9,390.687a6,6,0,0,1-1.973-2.546,23.024,23.024,0,0,1-1.773-11.589,19.636,19.636,0,0,1,2.88-9.116,18.634,18.634,0,0,1,1.934-2.27,2.138,2.138,0,0,1,.656-.444c1.362-.649,2.207-.451,2.234,1.111a49.7,49.7,0,0,1-.272,6.3c-.25,2.291-.717,4.558-1.111,6.832a21.167,21.167,0,0,0,.872,9.729c.324,1.081.739,2.14,1.139,3.2.3.789.233.884-.617.828a2.349,2.349,0,0,1-2.19-1.415,17.823,17.823,0,0,1-2.068-7.037,9.661,9.661,0,0,1,.062-1.329c.044-.472-.016-.89-.578-.934s-.69.395-.729.839a12.69,12.69,0,0,0,.432,4.552c.25.9.589,1.767.89,2.646C504.754,390.259,504.826,390.47,504.9,390.687Z" transform="translate(-1.231 -53.305)" fill="#84cdf1" stroke="#707070" stroke-width="1.081"/>
      <path id="Path_20605" data-name="Path 20605" d="M820.707,369.849l1.167,2.5c-9.512,3.58-16.742,9.945-22.592,18.327-.145-.929-.3-1.673-.361-2.424-.1-1.15-.139-2.307-.216-3.459a3.1,3.1,0,0,1,.823-2.312,28.915,28.915,0,0,1,6.554-5.5,77.054,77.054,0,0,1,14.352-7.081A2.733,2.733,0,0,1,820.707,369.849Z" transform="translate(-145.821 -55.963)" fill="#fdfdfd" stroke="#707070" stroke-width="1.081"/>
      <path id="Path_20606" data-name="Path 20606" d="M695.682,526.033c.729-.345,1.351-.672,2.006-.929a1.05,1.05,0,0,1,.683.108,10.255,10.255,0,0,1,5.887,6.27c.784,2.19,1.345,4.458,2.018,6.681a.739.739,0,0,1-.444.995c-1.546.856-3.069,1.762-4.648,2.685-.166-1.412-.289-2.751-.49-4.074-.283-1.868-.55-3.736-.962-5.576A10.42,10.42,0,0,0,695.682,526.033Z" transform="translate(-95.78 -131.37)" fill="#fdfdfd" stroke="#707070" stroke-width="1.081"/>
      <path id="Path_20607" data-name="Path 20607" d="M791.377,413.133c-1.056-3.783-.534-8.41,2.284-10.228a26.108,26.108,0,0,0,.511,3.524,3.581,3.581,0,0,1-.711,3.368C792.7,410.826,792.094,411.971,791.377,413.133Z" transform="translate(-142.022 -72.021)" fill="#84cdf1" stroke="#707070" stroke-width="1.081"/>
      <path id="Path_20608" data-name="Path 20608" d="M566.287,556.073c-3.783.172-7.567.35-11.389.522v-2.929c3.824.745,7.61,1.479,11.394,2.218C566.287,555.945,566.287,556.006,566.287,556.073Z" transform="translate(-27.39 -145.258)" fill="#84cdf1" stroke="#707070" stroke-width="1.081"/>
      <path id="Path_20609" data-name="Path 20609" d="M578.872,448.031q-3.869-7.1-7.727-14.168l1.412-.917a131.507,131.507,0,0,1,6.315,15.085Z" transform="translate(-35.282 -86.614)" fill="#fdfdfd" stroke="#707070" stroke-width="1.081"/>
      <path id="Path_20610" data-name="Path 20610" d="M646.1,556.044c-.178,1.045-.324,2.1-.54,3.14a1.434,1.434,0,0,1-1.456,1.212,1.545,1.545,0,0,1-1.423-1.362,6.091,6.091,0,0,1,1.767-4.78c.456-.517,1.405-.089,1.506.639a8.471,8.471,0,0,1,.011,1.129C646.021,556.03,646.065,556.036,646.1,556.044Z" transform="translate(-70.02 -145.431)" fill="#fdfdfd" stroke="#707070" stroke-width="1.081"/>
      <path id="Path_20611" data-name="Path 20611" d="M654.031,559.372c-.178,1.023-.334,2.054-.54,3.074a1.3,1.3,0,0,1-1.206,1.081,1.315,1.315,0,0,1-1.384-.839,2.286,2.286,0,0,1-.205-1.028,6.526,6.526,0,0,1,1.656-3.98.98.98,0,0,1,.872-.223,1.228,1.228,0,0,1,.656.717,4.234,4.234,0,0,1,.028,1.189A.886.886,0,0,1,654.031,559.372Z" transform="translate(-73.922 -147.083)" fill="#fdfdfd" stroke="#707070" stroke-width="1.081"/>
      <path id="Path_20612" data-name="Path 20612" d="M785.531,420.979a.761.761,0,0,0,.044.195,5.585,5.585,0,0,1-.757,5.081c-.956,1.673-1.661,3.485-2.473,5.236a1.8,1.8,0,0,1-.317.49A28.59,28.59,0,0,1,785.531,420.979Z" transform="translate(-137.726 -80.8)" fill="#84cdf1" stroke="#707070" stroke-width="1.081"/>
      <path id="Path_20613" data-name="Path 20613" d="M658.93,565.1a7.243,7.243,0,0,1,1.707-3.969.865.865,0,0,1,1.473.605,10.075,10.075,0,0,1-1.134,4.336c-.216.384-.478.812-1.023.683a1.219,1.219,0,0,1-.984-1.123C658.951,565.466,658.941,565.289,658.93,565.1Z" transform="translate(-77.927 -148.775)" fill="#fdfdfd" stroke="#707070" stroke-width="1.081"/>
      <path id="Path_20614" data-name="Path 20614" d="M669.4,566.363a4.687,4.687,0,0,1-1.49,3.074.949.949,0,0,1-.856.156,1.045,1.045,0,0,1-.439-.865,21.984,21.984,0,0,1,.984-2.818c.2-.478.633-1.006,1.151-.784C669.079,565.273,669.19,565.935,669.4,566.363Z" transform="translate(-81.656 -150.801)" fill="#fdfdfd" stroke="#707070" stroke-width="1.081"/>
      <path id="Path_20615" data-name="Path 20615" d="M700.923,551.807c.108,1.15.205,2.224.324,3.435a6.657,6.657,0,0,1-2.8-2.873C699.278,552.185,700.04,552.012,700.923,551.807Z" transform="translate(-97.125 -144.354)" fill="#fdfdfd" stroke="#707070" stroke-width="1.081"/>
      <path id="Path_20616" data-name="Path 20616" d="M636.085,558.588c-.478,1.051-.906,2-1.334,2.935-.083-.023-.166-.05-.25-.072v-3.158Z" transform="translate(-66.059 -147.505)" fill="#84cdf1" stroke="#707070" stroke-width="1.081"/>
      <path id="Path_20617" data-name="Path 20617" d="M674.171,567.657v-2.27c.506.478.973.872,1.373,1.329a.821.821,0,0,1,.166.7c-.083.178-.411.3-.648.324a4.033,4.033,0,0,1-.891-.078Z" transform="translate(-85.331 -150.95)" fill="#fdfdfd" stroke="#707070" stroke-width="1.081"/>
      <path id="Path_20618" data-name="Path 20618" d="M714.221,555.235c.439-.256.884-.511,1.434-.833.078.729.145,1.328.205,1.912C715.121,556.477,714.682,556.186,714.221,555.235Z" transform="translate(-104.786 -145.615)" fill="#84cdf1" stroke="#707070" stroke-width="1.081"/>
      <path id="Path_20619" data-name="Path 20619" d="M590.935,484.277l-.067.067c-.011-.039-.039-.072-.039-.108s.039-.039.062-.062a.611.611,0,0,1,.044.1Z" transform="translate(-44.845 -111.499)" fill="#84cdf1" stroke="#707070" stroke-width="1.081"/>
      <path id="Path_20620" data-name="Path 20620" d="M794.991,555.15c-3.88-.161-7.688-.317-11.578-.472v-5.3c3.841.15,7.693.306,11.578.462Z" transform="translate(-138.398 -143.173)" fill="#84cdf1" stroke="#707070" stroke-width="1.081"/>
      <path id="Path_20621" data-name="Path 20621" d="M799.45,279.352a8.414,8.414,0,0,1,7.891,6.126c.108.444.117.879-.439,1.012-.517.122-.7-.244-.812-.662-.817-3.052-2.984-4.54-5.931-5.119a5.273,5.273,0,0,0-.594-.083c-.456-.034-.768-.3-.662-.717C798.972,279.635,799.349,279.446,799.45,279.352Z" transform="translate(-145.914 -12.001)" fill="#1c1f21" stroke="#707070" stroke-width="1.081"/>
      <path id="Path_20622" data-name="Path 20622" d="M826.994,305.327c-.205-.233-.54-.439-.595-.7-.1-.5.311-.633.739-.739,1.59-.389,3.2-.711,4.741-1.256a15.952,15.952,0,0,0,2.9-1.6c.417-.256.806-.623,1.189-.078.366.522-.044.856-.439,1.145a17.05,17.05,0,0,1-7.41,2.963c-.324.055-.656.1-.989.15a1.3,1.3,0,0,0-.138.117Z" transform="translate(-159.273 -22.357)" fill="#1c1f21" stroke="#707070" stroke-width="1.081"/>
      <path id="Path_20623" data-name="Path 20623" d="M531.9,333.958a13.9,13.9,0,0,1,3.441-9.016,2.509,2.509,0,0,1,.789-.7,2.43,2.43,0,0,1,.95.044c-.039.3.034.722-.139.878-2.685,2.473-3.619,5.653-3.783,9.16-.023.478.138,1.167-.633,1.162-.817-.005-.623-.69-.628-1.2Z" transform="translate(-16.211 -33.791)" fill="#1c1f21" stroke="#707070" stroke-width="1.081"/>
      <path id="Path_20624" data-name="Path 20624" d="M788.183,349.085a4.493,4.493,0,0,1-1.028,3.013,1.666,1.666,0,0,1-2.857.016,19.279,19.279,0,0,1-1.534-2.551c-.239-.432-.108-.757.439-.851,1.44-.239,2.88-.5,4.324-.745.405-.067.649.089.661.522C788.188,348.684,788.183,348.885,788.183,349.085Zm-4.469.517c.54.757.956,1.423,1.461,2.024a.875.875,0,0,0,.784.195,2.769,2.769,0,0,0,1.15-2.79c-1.06.172-2.119.355-3.4.572Z" transform="translate(-138.027 -45.326)" fill="#232323" stroke="#707070" stroke-width="1.081"/>
      <path id="Path_20625" data-name="Path 20625" d="M784.638,313.078a4.389,4.389,0,0,1,3.013,1.423.922.922,0,0,1,.067.865c-.2.361-.584.311-.917.062a8.475,8.475,0,0,0-1.09-.757,1.9,1.9,0,0,0-2.574.444c-.062.067-.108.184-.172.195-.3.034-.7.161-.878.016a.865.865,0,0,1-.067-.845,3.081,3.081,0,0,1,2.617-1.4Z" transform="translate(-137.683 -28.384)" fill="#232323" stroke="#707070" stroke-width="1.081"/>
      <path id="Path_20626" data-name="Path 20626" d="M787.2,324.125a1.52,1.52,0,0,1-1.251,1.634,1.48,1.48,0,0,1-1.423-1.405,1.67,1.67,0,0,1,1.072-1.912C786.46,322.263,787.216,323.058,787.2,324.125Z" transform="translate(-138.933 -32.923)" fill="#232323" stroke="#707070" stroke-width="1.081"/>
      <path id="Path_20627" data-name="Path 20627" d="M581.727,373.73c-1.94-.005-4.024-2.284-3.846-3.969.039-.373.244-.578.617-.517,1.684.262,3.368.534,5.052.806.35.055.594.256.478.649a5.413,5.413,0,0,1-1.545,2.662A2.723,2.723,0,0,1,581.727,373.73Zm-2.963-3.459a7.165,7.165,0,0,0,.9,1.412c1.785,1.645,2.33,1.345,3.174-.589.016-.034,0-.083-.005-.178-1.278-.2-2.556-.4-4.069-.642Z" transform="translate(-38.549 -55.664)" fill="#232323" stroke="#707070" stroke-width="1.081"/>
      <path id="Path_20628" data-name="Path 20628" d="M577.63,335.864a20.042,20.042,0,0,1,2.146.945.95.95,0,0,1,.244.884c-.14.384-.541.372-.906.184-1.757-.89-2.8-.667-4.058.845-.1.117-.161.324-.283.361-.283.089-.69.239-.856.117a.9.9,0,0,1-.156-.845,4.685,4.685,0,0,1,3.8-2.335C577.586,335.97,577.608,335.914,577.63,335.864Z" transform="translate(-36.532 -39.454)" fill="#232323" stroke="#707070" stroke-width="1.081"/>
      <path id="Path_20629" data-name="Path 20629" d="M584,346.171a7.815,7.815,0,0,1-.656,1.473,1.028,1.028,0,0,1-1.707,0,2.564,2.564,0,0,1-.05-2.979,1.093,1.093,0,0,1,1.884.078,7.958,7.958,0,0,1,.529,1.428Z" transform="translate(-40.138 -43.486)" fill="#232323" stroke="#707070" stroke-width="1.081"/>
      <path id="Path_20630" data-name="Path 20630" d="M784.721,350.614c1.273-.216,2.335-.395,3.4-.578a2.785,2.785,0,0,1-1.15,2.79.865.865,0,0,1-.784-.195C785.676,352.036,785.26,351.369,784.721,350.614Z" transform="translate(-139.034 -46.337)" fill="#fdfdfd" stroke="#707070" stroke-width="1.081"/>
      <path id="Path_20631" data-name="Path 20631" d="M579.609,371.255c1.513.239,2.8.444,4.069.649.005.089.023.139.005.178-.839,1.934-1.39,2.229-3.174.589a7.809,7.809,0,0,1-.9-1.416Z" transform="translate(-39.394 -56.645)" fill="#fdfdfd" stroke="#707070" stroke-width="1.081"/>
    </g>
  </g>
</svg>
