<svg xmlns="http://www.w3.org/2000/svg" xmlns:xlink="http://www.w3.org/1999/xlink" width="315" height="174" viewBox="0 0 315 174">
  <defs>
    <clipPath id="clip-path">
      <rect id="Rectangle_6946" data-name="Rectangle 6946" width="315" height="174" transform="translate(1260 1405)" fill="#fff"/>
    </clipPath>
  </defs>
  <g id="Mask_Group_3" data-name="Mask Group 3" transform="translate(-1260 -1405)" clip-path="url(#clip-path)">
    <g id="wallet_and_payout" data-name="wallet and payout" transform="translate(856.233 1164.239)">
      <g id="Group_3468" data-name="Group 3468" transform="translate(428.812 240.764)">
        <path id="Path_3508" data-name="Path 3508" d="M581.61,444.093a.543.543,0,0,0,.1.007c.013.331.038.661.038.985V458.96c0,1.72.484,2.207,2.232,2.207h81.288c.508,0,1.018.012,1.529-.007a1.654,1.654,0,0,0,1.72-1.5c.038-.223.045-.445.064-.669.267-.082.5-.159.731-.229.941-.337,1.208-.757,1.215-1.927q.029-13.678.057-27.35c.007-1.338.064-2.684.1-4.025.007,3.18.019,6.353.019,9.532,0,4.4.012,8.793-.019,13.19-.007.693.235.871.9.973,1.742.28,3.466.681,5.189,1.043,1.147.242,2.315.445,3.447.765a50.614,50.614,0,0,1,5.024,1.584,36.627,36.627,0,0,1,5.221,2.474,6.144,6.144,0,0,1,3.25,5,3.748,3.748,0,0,1-1.043,2.442,9.606,9.606,0,0,1-3.993,2.938,50.041,50.041,0,0,1-6.7,2.524c-3.885,1.074-7.815,2.007-11.764,2.8-3.161.636-6.372.985-9.57,1.434q-4.082.563-8.178,1.043c-1.781.2-3.574.318-5.352.484-2.588.242-5.17.5-7.758.738-.884.082-1.768.12-2.651.172q-4.014.238-8.029.465c-1.92.108-3.84.216-5.755.3q-5.618.248-11.231.458c-1.6.064-3.192.108-4.789.153-4.11.108-8.209.235-12.317.3-5.1.082-10.206.1-15.313.165-2.282.026-4.566.146-6.843.134-5.234-.019-10.461-.082-15.694-.146-3.072-.038-6.143-.082-9.208-.153-3.777-.082-7.551-.2-11.325-.3-1.625-.045-3.243-.089-4.865-.153q-3.8-.143-7.586-.3-3.492-.143-6.977-.3-4.779-.22-9.551-.465c-1.742-.089-3.485-.178-5.227-.3-2.543-.184-5.088-.407-7.624-.592-1.72-.127-3.434-.191-5.144-.324-2.315-.178-4.63-.388-6.944-.578-1.338-.115-2.67-.21-4-.331-2.136-.191-4.273-.395-6.41-.592-1.762-.159-3.523-.292-5.278-.484-2.028-.216-4.057-.484-6.086-.724-1.882-.223-3.765-.4-5.639-.649-2.226-.292-4.445-.636-6.665-.956-1.3-.184-2.607-.3-3.892-.573-2.785-.578-5.577-1.157-8.331-1.9a17.472,17.472,0,0,1-4.11-1.692c-1.565-.9-3-2.085-3.059-4.127a5.1,5.1,0,0,1,1.418-3.421,16.345,16.345,0,0,1,5.066-3.777A30.111,30.111,0,0,1,442.1,451c.1-.026.159-.235.242-.357.076.184.172.362.235.553a18.188,18.188,0,0,0,9.654,11.109c5,2.48,10.4,3.358,15.9,3.746,2.779.2,5.577.21,8.369.3,3.459,1.558,6.919,3.116,10.429,4.7a5.957,5.957,0,0,0-.6-5.182c.362-.051.6-.089.846-.127.642.216,1.291.426,1.927.655,1.494.528,1.494.534,2.15-.89.012-.019.032-.038.045-.057a20.726,20.726,0,0,0,10.963-6.416c.451-.478.922-.928,1.38-1.386q6.648,4.808,13.335,9.653c.267-.426.484-.765.7-1.107a1.816,1.816,0,0,1,.63.229c.757.655,1.482,1.348,2.264,2.066,2.709-2.849,5.329-5.615,8-8.432a5.79,5.79,0,0,0-5.565-.941,4.311,4.311,0,0,1-.765.1q1.85-2.89,3.708-5.781,11.552-.01,23.109-.012a5.805,5.805,0,0,0,6-4.127c.439-.1.877-.235,1.323-.3a12.853,12.853,0,0,0,7.821-4.134c.3-.312.6-.616.9-.928.127.115.261.324.388.324q7.564.019,15.128,0a6.832,6.832,0,0,0,.994-.163Z" transform="translate(-428.812 -302.578)" fill="#efecef"/>
        <path id="Path_3510" data-name="Path 3510" d="M482.609,457.891c-2.792-.1-5.584-.108-8.369-.3-5.494-.388-10.886-1.265-15.9-3.746a18.16,18.16,0,0,1-9.653-11.109c-.064-.191-.153-.369-.235-.553-1.529-5.634-1.5-11.4-1.338-17.156.1-3.542.089-7.1,1-10.582a22.564,22.564,0,0,1,10.74-14.251c-.038.369-.057.744-.108,1.113q-.353,2.823-.712,5.647c-.045.445-.076.9-.146,1.338-.07.47-.012,1.119-.292,1.373a3.016,3.016,0,0,0-.8,1.742c-.3,1.242-.14,1.469,1.119,1.659.032.508.07,1.018.1,1.529-.07-.064-.14-.12-.248-.216-.07,1.17-.064,2.294-.216,3.408a16.5,16.5,0,0,0,.324,5.161,16.756,16.756,0,0,0,3.109,7.4,20.864,20.864,0,0,0,2.862,3.211,30.226,30.226,0,0,0,4.247,3.02,26.244,26.244,0,0,0,7.542,2.862,26.747,26.747,0,0,0,4.254.642c1.934.139,3.873.108,5.812.172a2.293,2.293,0,0,1,.731.292q-2.661,6.152-5.309,12.3c1.062.445,2.035.852,3,1.265-.394.839-.8,1.673-1.17,2.524C482.8,457.033,482.73,457.472,482.609,457.891Z" transform="translate(-434.914 -294.121)" fill="#5c908f"/>
        <path id="Path_3511" data-name="Path 3511" d="M495.936,321.027c-.292-1.711-.592-3.421-.86-5.138a1.7,1.7,0,0,0-1.221-1.539,57.686,57.686,0,0,1-10.5-4.578,46.44,46.44,0,0,1-5.182-3.657,5.715,5.715,0,0,1-1.4-1.946,1.369,1.369,0,0,1,.089-1.242,1.48,1.48,0,0,1,1.2-.248,20.339,20.339,0,0,1,6.467,2.69,45,45,0,0,1,7.351,5.2c.8.719,1.52,1.529,2.27,2.308.057-.032.115-.057.172-.089-.172-.846-.293-1.7-.528-2.524-.719-2.5-1.5-4.979-2.219-7.478a1.923,1.923,0,0,0-1.92-1.678,34.267,34.267,0,0,1-5.081-1.208,36.788,36.788,0,0,1-7.5-2.665,7.477,7.477,0,0,1-3.53-2.931c-.439-.814-.1-1.418.846-1.323a16.455,16.455,0,0,1,3.7.681,61.9,61.9,0,0,1,5.812,2.334,21.937,21.937,0,0,1,6.4,4.14,1.572,1.572,0,0,0,.357.165c-.362-.947-.63-1.793-1-2.588-1.164-2.435-2.366-4.852-3.586-7.255a1.176,1.176,0,0,0-.712-.541c-3.415-.687-6.848-1.265-10.244-2.028a12.584,12.584,0,0,1-4.642-2.13c-.1-.076-.235-.14-.287-.248-.248-.5-.724-1.051-.642-1.507.115-.63.877-.509,1.434-.509a18.685,18.685,0,0,1,5.621,1.126,29.821,29.821,0,0,1,7.307,3.275,1.656,1.656,0,0,0,.8.3c-.2-.331-.382-.674-.611-.985-1.373-1.838-2.811-3.643-4.127-5.52-.757-1.081-1.72-.705-2.658-.585a27.032,27.032,0,0,1-10.085-.21,6.336,6.336,0,0,1-3.231-1.72c-.719-.769-.611-1.354.407-1.457a23.926,23.926,0,0,1,4.623-.108,39.209,39.209,0,0,1,5.265,1c1.208.287,2.378.75,3.8,1.208-.769-.731-1.354-1.386-2.035-1.912-1.488-1.132-3.039-2.162-4.534-3.288-.674-.5-1.316-.1-1.971-.089-1.939.007-3.879.057-5.819.089a.149.149,0,0,1-.076-.012c-.458-.287-1.272-.553-1.291-.86-.038-.655.75-.63,1.234-.636,1.434-.026,2.867.038,4.3.07a1.186,1.186,0,0,0,.719-.115l-2.411-.992c.032-.089.064-.172.1-.261,1.291-.242,2.3.833,3.377.928-.928-1.634-1.876-3.307-2.823-4.97a6.905,6.905,0,0,1,0-1.495,1.19,1.19,0,0,1,.636-.82c.242-.057.6.3.884.515a1.654,1.654,0,0,1,.3.432q1.45,3.644,2.893,7.281c.045.108.089.254.178.3a42.4,42.4,0,0,1,6.842,5.215c-.273-.585-.592-1.157-.808-1.768-.693-1.946-1.443-3.885-1.99-5.876a4.568,4.568,0,0,1,.515-3.746c.248-.388.82-.909,1.113-.833a1.669,1.669,0,0,1,.98,1.1,47.857,47.857,0,0,1,.928,5.424c.216,2.188.223,4.4.343,6.595a1.183,1.183,0,0,0,.216.616q2.576,3.377,5.177,6.728c.07.089.153.178.331.376-.362-1.386-.719-2.607-1-3.847-.547-2.353-.956-4.738-.134-7.09a7.021,7.021,0,0,1,1.462-2.238c.574-.63,1.3-.382,1.584.426a3.252,3.252,0,0,1,.273,1.1c-.026,1.876-.012,3.758-.184,5.621-.191,2.054-.573,4.1-.86,6.143-.082.585-.343,1.291-.127,1.749,1.434,3,2.976,5.933,4.5,8.921-.045-.42-.064-.871-.153-1.3a29.014,29.014,0,0,1-.54-7.7,6.991,6.991,0,0,1,1.469-4.381,6.175,6.175,0,0,1,1.158-1.074c.922-.623,1.72-.235,1.749.9a21.469,21.469,0,0,1-.184,3.784c-.369,2.315-.839,4.616-1.348,6.906a35.049,35.049,0,0,1-1.147,3.924,4.411,4.411,0,0,0,.178,2.9c.891,2.836,1.692,5.7,2.524,8.559.134.451.261.9.413,1.434.312-2.08.611-4.076.909-6.073q0,3.53.007,7.059c-.178.35-.534.712-.508,1.043a21.146,21.146,0,0,0,.508,2.557C495.936,318.451,495.936,319.736,495.936,321.027Z" transform="translate(-440.038 -249.029)" fill="#f8cdc8"/>
        <path id="Path_3512" data-name="Path 3512" d="M440.912,345.04c.89-.343,1.768-.75,2.684-1.011a10.2,10.2,0,0,1,12.635,8.029,9.176,9.176,0,0,1-.337,5,1.607,1.607,0,0,0,.21,1.625c.846,1.243,1.625,2.543,2.531,3.988-.9-.223-1.625-.388-2.353-.585a16.625,16.625,0,0,1-1.736-.541c-.789-.312-1.495-.362-2.035.426A10.323,10.323,0,0,1,437.3,359a9.391,9.391,0,0,1-1.374-5,9.978,9.978,0,0,1,3.682-7.933C440.034,345.719,440.479,345.382,440.912,345.04Zm12.966,5.692c-.223-.3-.362-.681-.6-.765a1.356,1.356,0,0,0-1.036.057,10.06,10.06,0,0,0-1.386,1.177c-1.641,1.507-3.281,3.008-4.9,4.54-.357.337-.573.292-.871-.032q-1.173-1.3-2.385-2.557c-.573-.6-1.062-.655-1.507-.229s-.394,1.024.146,1.609q1.625,1.755,3.262,3.5a1.021,1.021,0,0,0,1.654.045q3.53-3.233,7.033-6.486a4.768,4.768,0,0,0,.591-.858Z" transform="translate(-431.193 -275.197)" fill="#00abed"/>
        <path id="Path_3513" data-name="Path 3513" d="M463.577,402.109c.235-1.882.478-3.765.712-5.647.045-.369.07-.738.108-1.113.292-.909.578-1.816.86-2.728a2.181,2.181,0,0,0,.1-.287c.534-2.982,2.531-4.521,5.257-5.352.362-.108.705-.273,1.051-.413.765-.254,1.529-.509,2.294-.757.642-.273,1.062-.007,1.45.522a7.972,7.972,0,0,0,3.1,2.512c1.051.484,2.83.5,3.516-.451.47,1.036.956,2.073,1.393,3.123.057.14-.127.376-.2.573-.611-.489-1.234-1.393-1.816-1.367-.642.032-1.243.909-1.857,1.434-.585.5-1.157,1.018-1.781,1.577-1.609-2.442-3.147-4.779-4.683-7.109l-.292.2c1.615,2.474,3.236,4.954,4.909,7.5,1.291-1.164,2.467-2.219,3.7-3.319.757.681,1.469,1.329,2.181,1.972a3.2,3.2,0,0,1,.566.769c.508,1.546,1.036,3.084,1.434,4.661.376,1.476.6,3,.9,4.492-.7.159-.8.623-.8,1.278.038,2.43.019,4.858.019,7.288-.3-.1-.6-.2-.9-.3a1.587,1.587,0,0,0,.178-.541,131.835,131.835,0,0,0-3.25-17.863,1.672,1.672,0,0,0-.223-.4,1.9,1.9,0,0,1-.185.051c.032.2.045.407.089.6.439,1.978.956,3.943,1.3,5.939.7,4.044,1.3,8.1,1.946,12.152-1.126.388-2.238.808-3.383,1.138a3.067,3.067,0,0,1-1.529.076c-2.353-.592-4.693-1.242-7.033-1.9-.808-.229-1.768-.254-2.118-1.272.343.057.687.1,1.03.165.738.134,1.177-.12,1.234-.86.064-.833.026-1.678.032-2.519.14-2.346.3-4.683.42-7.033.089-1.762.12-3.53.178-5.3-.051-.28-.1-.553-.153-.833a6.37,6.37,0,0,0-.407-2.047,3.747,3.747,0,0,0-6.613.585c-.191.649-.312,1.316-.465,1.972q-1.135,4.922-2.277,9.825C463.577,402.808,463.577,402.458,463.577,402.109Z" transform="translate(-440.448 -289.274)" fill="#ef8672"/>
        <path id="Path_3514" data-name="Path 3514" d="M790.213,411.823c-.032,1.338-.1,2.684-.1,4.025q-.038,13.678-.057,27.35c0,1.17-.267,1.589-1.215,1.927-.249-.007-.5-.019-.75-.026V432.147q0-21.681-.012-43.362a3.84,3.84,0,0,0-.293-1.018c-.153-.153-.3-.3-.464-.451.019-.108.089-.292.051-.318-.47-.318-.956-.616-1.434-.922.261-.458.528-.922.789-1.38l1.678.019a1.633,1.633,0,0,1,1.831,1.838q-.01,8.232-.038,16.464c0,.458.019.916.032,1.367Q790.22,408.094,790.213,411.823Z" transform="translate(-548.338 -288.934)" fill="#b96a59"/>
        <path id="Path_3515" data-name="Path 3515" d="M745.487,446.1c.249.007.5.019.75.026-.235.076-.47.146-.731.229-.019.223-.026.451-.064.669a1.654,1.654,0,0,1-1.72,1.5c-.508.019-1.017.007-1.529.007H660.905c-1.749,0-2.232-.478-2.232-2.207V432.449c0-.331-.026-.661-.038-.985.019-1.825.051-3.65.051-5.475q0-18.076.007-36.158a7.21,7.21,0,0,1,.324-1.52c.916-.1,1.825-.242,2.74-.3.8-.051,1.609-.012,2.416-.019,1.481,0,2.957-.007,4.439-.007h13.431q2.136,0,4.267.007h9.767c1.215,0,2.435.026,3.65-.007a3.442,3.442,0,0,0,.9-.28,2.7,2.7,0,0,0,.833.287c4.611.019,9.22.012,13.831.007,2.646,0,5.285-.012,7.933-.019h15.866c1.227,0,2.448.007,3.676.007.655.108,1.316.223,1.972.331.153.153.3.3.465.451a10.952,10.952,0,0,1,.146,1.272q.01,14.4.007,28.807c0,.267-.026.541-.038.877H715.867c-1.024,0-1.024,0-1.024,1,0,3.988.007,7.974-.007,11.967,0,1.208-.019,1.208,1.208,1.208H737.85c1.774,0,3.555-.038,5.328-.057.706-.007,1.405,0,2.174,0v.871c0,3.5-.007,7.014.007,10.514a3.746,3.746,0,0,0,.127.869Zm-25.108-56.207v.451c.478.026.947.064,1.424.07a.348.348,0,0,0,.261-.216c.019-.082-.1-.287-.153-.287C721.406,389.881,720.891,389.895,720.379,389.895Zm9.481-.045a13.942,13.942,0,0,0-1.4.019c-.089.012-.242.382-.191.445.251.3,1.224.1,1.592-.465Zm-30.173.1a1.156,1.156,0,0,0,1.889,0Zm-33.453.026c0,.1.007.184.007.28a1.271,1.271,0,0,0,1.673-.28Zm75.66-.273c-.287.165-.534.3-.782.451a2.3,2.3,0,0,0,.757.267,2.754,2.754,0,0,0,.808-.292c-.23-.133-.465-.262-.777-.425Zm-36.183.86c.331-.159.573-.28.814-.4a2.647,2.647,0,0,0-.789-.312,2.268,2.268,0,0,0-.769.248c.241.15.483.3.749.469Zm31.141-.12c.14-.076.394-.21.642-.337-.287-.089-.566-.2-.852-.267a.764.764,0,0,0-.445.026.506.506,0,0,0-.254.3c-.012.051.14.2.242.229a4.09,4.09,0,0,0,.673.049Zm2.454-.012v-.038a1.257,1.257,0,0,0,.439-.012,1.411,1.411,0,0,0,.343-.28c-.184-.089-.376-.261-.553-.248a5.527,5.527,0,0,0-1,.248c.089.1.165.216.261.312.026.026.1.019.146.019Zm-63.61-.63-1.72.127c.683.64,1.326.59,1.726-.122Zm34.422.07v.382c.426.045.852.108,1.278.127.108.007.216-.146.331-.229-.07-.1-.14-.261-.216-.267-.459-.017-.922-.009-1.387-.009Zm-41.283-.012c0,.14-.007.28-.007.42h1.666c0-.115.007-.229.007-.35-.547-.021-1.107-.047-1.66-.061Zm43.916.115c.007.134.007.267.012.4.508-.032,1.024-.057,1.529-.089,0-.1-.007-.21-.007-.312Zm20.578-.064v.382c.47.026.941.057,1.412.057.064,0,.153-.184.172-.292.007-.057-.108-.2-.172-.2-.465.008-.936.035-1.406.055Zm-39.642.331c.012-.1.019-.2.032-.3-.407-.032-.808-.1-1.215-.089-.12,0-.242.184-.362.287.127.1.261.273.382.267a9.157,9.157,0,0,0,1.169-.161Zm5.161-.235c-.744-.312-1.243-.254-1.615.2,1.259.271,1.305.265,1.617-.193Zm34.2,55.935c.007.07.019.146.026.216h1.666c-.007-.07-.007-.146-.012-.216ZM660.642,393h.229V391.42h-.229Zm0,51.547h.229v-1.57h-.229Zm25.392-54.275a1.024,1.024,0,0,0-1.685,0Zm-4.381.082c.674-.045,1.182-.083,1.844-.127a1.179,1.179,0,0,0-1.841.128Zm-21,25.825c.07,0,.14.007.21.007v-1.57c-.07,0-.14-.007-.21-.007Zm-.006-12.871h.21V401.69h-.21Zm.007,18.028.223-.019v-1.558c-.077,0-.146.007-.223.007Zm.216-17.068c-.07,0-.134,0-.2.007V405.8h.2Zm62.242-14.409c-.007.108-.012.223-.012.331h1.551c.007-.082.007-.165.012-.248-.518-.026-1.029-.058-1.555-.083Zm-62.446,52.068c.076-.007.153-.019.229-.026v-1.52c-.076,0-.153,0-.229.007Zm.216-4.1-.229.019v1.529c.076,0,.153-.007.229-.007Zm0-43.833c-.076,0-.153.007-.229.007v1.529c.076,0,.153,0,.229-.007Zm-.012,2.6c-.077,0-.153-.007-.229-.007v1.539h.229Zm-.229,4.11c.076,0,.153,0,.229-.007v-1.529h-.229Zm.012,7.707c.064,0,.134-.007.2-.007V406.88a1.937,1.937,0,0,0-.2.007Zm28.876-18.213h1.755c-.728-.479-1.275-.46-1.758,0Zm-28.648,45.042c-.076,0-.153.007-.229.007v1.529h.229ZM688.5,390.278c-.63-.585-1.208-.553-1.529,0Zm-27.821,23.28.216-.019v-1.513a1.261,1.261,0,0,0-.217,1.53Zm.191,19.078c-.108.007-.216.012-.331.012.026.528.057,1.051.083,1.584.082-.007.165-.007.248-.012Zm.007-7.688c-.077.007-.153.007-.229.012v1.529c.076,0,.153,0,.229-.007Zm.007,2.531c-.076,0-.153,0-.229-.007v1.6h.229Zm-.24-3.585c.07,0,.134,0,.2-.007v-1.529h-.2Zm12.12,22.27c-.007-.12-.012-.235-.012-.357-.528.032-1.051.057-1.584.089.007.089.007.178.012.267Zm23.37.038c-.655-.547-1.3-.522-1.711,0Zm8.578-.273v.229h1.618v-.229Zm15.548.229h1.52c-.007-.07-.007-.134-.012-.2a1.252,1.252,0,0,0-1.505.209Zm-42.123-55.928c-.592-.547-1.215-.5-1.513,0Zm-17.264,26.944c-.077,0-.153.007-.229.007v1.529c.076,0,.153,0,.229-.007Zm71.507-26.836a.882.882,0,0,0-1.551-.089c.529.034,1,.059,1.553.091Zm-71.737,20.6c.076.012.153.026.229.032v-1.52h-.229Zm13.214,35.007.019.229h1.513v-.229Zm5,.235h1.685a1.14,1.14,0,0,0-1.689,0Zm.3-55.966h1.685a1.14,1.14,0,0,0-1.689,0Zm17.882,55.737c.007.076.012.153.012.229h1.513v-.229Zm-36.405-14.377c.076,0,.153.007.229.007v-1.457h-.229Zm.413,13.818c.185.765.642.973,1.38.724-.007-.045,0-.127-.026-.134-.423-.19-.843-.368-1.358-.591Zm66.236-55.2a1.074,1.074,0,0,0-1.6,0Zm-66.109.458c.661-.2,1.126-.337,1.666-.5-.627-.394-1.193-.26-1.67.5Zm4.12-.42a.945.945,0,0,0-1.488,0Zm78.763,54.249c-.235.445-.47.9-.7,1.338.665-.206.989-.611.7-1.337ZM702.43,389.962c.007.076.019.153.026.229h1.469c0-.076,0-.153-.007-.229Zm16.718,56.252.019-.324c-.5.026-1,.051-1.494.082,0,.082.007.159.007.242Z" transform="translate(-505.73 -289.943)" fill="rgba(218,30,55,0.94)"/>
        <path id="Path_3516" data-name="Path 3516" d="M583.291,394.217a5.818,5.818,0,0,1-5.994,4.127q-11.552.01-23.109.012a7.4,7.4,0,0,0-.86-.808c-1.2-.827-2.416-1.615-3.619-2.435-.4-.273-.769-.592-1.147-.884.019-.051.038-.108.057-.159h1.5q12.734,0,25.468-.012a2.918,2.918,0,0,0,2.366-.769,6.158,6.158,0,0,0,2.722-5.6q-.048-57.795-.019-115.6c0-.458.007-.916-.007-1.373a5.357,5.357,0,0,0-1.749-3.924,6.069,6.069,0,0,0-4.451-1.418q-26.431.019-52.855.007c-.153,0-.3,0-.458.007a5.257,5.257,0,0,0-4.961,3.924,21.569,21.569,0,0,0-.267,2.461q-.019,42.2-.012,84.4c0,.407.026.814-.007,1.221-.012.172-.115.445-.235.478-.808.242-1.634.439-2.543.669v-1.1q-.01-23.217-.012-46.434,0-22.606.026-45.209a5.755,5.755,0,0,1,5.984-4.794q13.726,0,27.445-.007c.451,0,.9-.051,1.361-.082,1.393.051,2.785.134,4.172.14q13.326.019,26.651,0a5.741,5.741,0,0,1,4.75,4.9c0,.3-.007.611-.007.909q.038,40.282.07,80.557.01,15.891,0,31.783c0,.478.038.956.057,1.434a.211.211,0,0,0-.007.14,2.431,2.431,0,0,0-.089.515c.019,2.684.051,5.361.076,8.044C583.476,390.967,583.38,392.589,583.291,394.217Z" transform="translate(-457.018 -247.507)" fill="#1f1327"/>
        <path id="Path_3517" data-name="Path 3517" d="M759.209,356.56c-1.227,0-2.448-.007-3.676-.007.649-1.088,1.31-2.155,1.934-3.255,2.327-4.12,4.667-8.235,6.957-12.375,2.944-5.316,5.971-10.588,9.431-15.593,1.565-2.264,3.243-4.458,4.89-6.665.687-.928,1.434-1.816,2.207-2.785-7.742-5.711-15.427-11.383-23.351-17.226-.178.267-.357.585-.578.86-1.434,1.768-2.976,3.453-4.312,5.3-2.931,4.063-5.786,8.178-8.61,12.312-1.424,2.092-2.715,4.273-4.044,6.429a1.275,1.275,0,0,0-.115.776c.2,1.577.407,3.154.655,4.724q.659,4.187,1.361,8.369c.3,1.793.7,3.574.909,5.373.21,1.781.75,3.167,2.55,3.981a13.042,13.042,0,0,0,6.366,1.3,11.289,11.289,0,0,0,5.735-1.953c.484-.331.922-.731,1.386-1.093a36.777,36.777,0,0,1-1.9,3.7c-1.529,2.62-3.1,5.221-4.655,7.837h-10.4c-.057-.808-.076-1.625-.184-2.416q-.478-3.53-1.024-7.046-.705-4.492-1.457-8.973c-.413-2.467-.909-4.916-1.272-7.389q-.639-4.426-1.1-8.871c-.261-2.485-.439-4.985-.585-7.485-.082-1.418-.019-2.843-.019-4.267,0-.973,0-1-1-.956-2.251.082-4.5.2-6.754.3-3.288.153-6.575.318-9.863.451-2.054.082-4.11.1-6.162.178a3.975,3.975,0,0,0-1.831.28c-.267.165-.127.98-.172,1.5,0,.026-.007.051-.007.076.012,3.065-.045,6.13.057,9.2.082,2.448.356,4.89.573,7.332.115,1.338.287,2.658.42,3.993.127,1.278.235,2.557.35,3.835q-1.4-.534-2.8-1.062c-.35-3.632-.8-7.264-1.03-10.906-.216-3.313-.312-6.646-.254-9.971.045-2.557.42-5.1.63-7.656.045-.534.223-.769.833-.789,3.427-.115,6.849-.292,10.27-.439,4.794-.21,9.589-.407,14.384-.616,1.768-.076,3.536-.191,5.448-.292a77.234,77.234,0,0,0-.026,14.241c.935-1.462,1.774-2.772,2.62-4.089a114.955,114.955,0,0,1,9.965-13.633c2.1-2.4,4.4-4.636,6.6-6.95.318-.337.547-.451,1-.108,4.8,3.574,9.634,7.116,14.454,10.67q6.133,4.521,12.254,9.043c.159.115.3.254.5.42-.916,1-1.806,1.972-2.69,2.944a91.576,91.576,0,0,0-11.049,15.17c-4.185,7.135-8.2,14.378-12.292,21.57a3.06,3.06,0,0,0-.172.42c-.261.458-.528.922-.789,1.38C759.6,355.954,759.406,356.26,759.209,356.56Z" transform="translate(-522.192 -258.521)" fill="#7ea89d"/>
        <path id="Path_3518" data-name="Path 3518" d="M618.982,383.176c-.019-.478-.051-.956-.057-1.434V349.96q-.029-40.282-.07-80.557c0-.3,0-.611.007-.909A9.368,9.368,0,0,1,619,269.6q.01,38.431-.031,76.862a5.42,5.42,0,0,0,1.221,3.7c.312.376.6.765.9,1.147.1-.026.184-.057.28-.082a9.842,9.842,0,0,0,.07-1.138,11.7,11.7,0,0,1,1.5-6.512,9.39,9.39,0,0,1,.617-.956,1.158,1.158,0,0,1,1.831-.235c.827.712,1.615,1.462,2.442,2.174a1.911,1.911,0,0,0,.63.242,2.857,2.857,0,0,0-.019-.616,36.568,36.568,0,0,1-1.018-3.784,3.414,3.414,0,0,1,1.768-3.542,44.74,44.74,0,0,1,4.683-2.27,1.014,1.014,0,0,1,1.3.324,15.355,15.355,0,0,1,2.639,5.161,4.164,4.164,0,0,1-1.625,4.273c-.712.559-1.4,1.158-2.086,1.755-.082.076-.1.223-.153.337-.362.547-.032.846.439.89a3.441,3.441,0,0,0,2.607-.585c.547-.191,1.051-.922,1.678-.127.019.6.012,1.2.057,1.787.051.669.153,1.329.235,2,.12,2.493-1.488,3.993-3.243,5.412.032.07.07.134.1.2a1.426,1.426,0,0,0,.515.026c.617-.191,1.234-.395,1.838-.636.489-.2.757.007.814.451a7.5,7.5,0,0,1,.115,2.251c-.458,2.34-1.051,4.648-1.565,6.977a3.39,3.39,0,0,1-1.7,2.55,13.124,13.124,0,0,1-2.007.6c-.3.089-.6.2-.909.312-.026.082-.045.165-.07.254a16.1,16.1,0,0,0,1.469.738A16.664,16.664,0,0,0,636,370c.853.229,1.051.5.814,1.361-.312,1.113-.731,2.2-1.081,3.3a6.416,6.416,0,0,1-1.641,2.862,5.811,5.811,0,0,1-3.3,1.565,5.573,5.573,0,0,0-3.09,1.641c-.693.655-.478,1.418.451,1.495a18.585,18.585,0,0,0,3.364-.057c.916-.1,1.157-.026,1.062.884a17.7,17.7,0,0,1-.465,2.13c-.343.012-.693.038-1.036.026-1.386-.051-2.778-.12-4.165-.184-.28-.012-.553-.026-.833-.057-1.243-.134-2.493-.3-3.739-.388-.89-.064-1.793-.012-2.7-.012-.019-.318-.026-.47-.032-.623.661-2.862,1.272-5.735,1.99-8.585.744-2.944,1.57-5.876,2.416-8.793.508-1.762,1.126-3.492,1.673-5.24.5-1.609.941-3.243,1.481-4.832.68-1.99,1.457-3.955,2.169-5.933.738-2.042,1.434-4.1,2.174-6.143.489-1.348,1.043-2.67,1.546-4.014.064-.165-.051-.394-.082-.592-.165.07-.426.089-.484.21a26.686,26.686,0,0,0-1.093,2.467c-.458,1.253-.814,2.538-1.259,3.8-.75,2.13-1.577,4.228-2.283,6.372-1.494,4.521-3.015,9.043-4.375,13.6-1.147,3.86-2.111,7.771-3.147,11.669C619.854,379.654,619.428,381.415,618.982,383.176Z" transform="translate(-492.416 -250.043)" fill="#9fb2b1"/>
        <path id="Path_3519" data-name="Path 3519" d="M694.048,349.578q1.4.534,2.8,1.062a2.637,2.637,0,0,0,.293.235,13.888,13.888,0,0,1,7.046,11.217c-.007.357-.012.712-.012,1.062A13.667,13.667,0,0,1,702,370.633a3.518,3.518,0,0,1-.9.28c-1.215.032-2.435.007-3.65.007.407-.515.839-1.011,1.227-1.539a10.238,10.238,0,0,0,2.007-6.39,10.513,10.513,0,0,0-1.285-5,10.315,10.315,0,0,0-4.4-4.223,10.021,10.021,0,0,0-6.111-.89,10.412,10.412,0,0,0-5.272,2.632c-.439.362-.649.744-.229,1.285a10.123,10.123,0,0,1,1.816,3.771,10.821,10.821,0,0,1,.293,5.161,5.682,5.682,0,0,0-.077.814c.458-.693.928-.534,1.338-.12a5,5,0,0,0,2.785,1.243,1.917,1.917,0,0,0,1.92-.782,1.434,1.434,0,0,0-.267-1.876c-.738-.674-1.6-1.208-2.327-1.9a6.178,6.178,0,0,1-1.72-2.061,3.409,3.409,0,0,1,3.154-4.458c.5-.026.973-.089.922-.8a1.766,1.766,0,0,1,.159-.808.714.714,0,0,1,.451-.4c1.215-.12,1.625.343,1.393,1.507a.751.751,0,0,0,.5,1,17.027,17.027,0,0,1,2.028,1.189c-.445.63-.808,1.147-1.2,1.711a5.425,5.425,0,0,0-1-.616,18.523,18.523,0,0,0-2.651-.757c-.63-.108-1.062.362-1.31.928a1,1,0,0,0,.382,1.272c.922.738,1.838,1.482,2.766,2.213a3.69,3.69,0,0,1,.724,5.3,3.9,3.9,0,0,1-2.722,1.457c-.765.1-1.011.451-.922,1.157h-2.136a3.2,3.2,0,0,0,.165-.956,1.074,1.074,0,0,0-.426-.687c-.343-.242-.769-.35-1.138-.56-.465-.261-.9-.566-1.31-.827-.426.731-.833,1.393-1.2,2.073a8.176,8.176,0,0,0-.362.956h-4.874a11.723,11.723,0,0,0,1.749-1.272,8.421,8.421,0,0,0,2.327-7.478,8.583,8.583,0,0,0-8.315-7.351,7.886,7.886,0,0,0-7.535,4.184,8.287,8.287,0,0,0-.089,8.356,9.416,9.416,0,0,0,3.307,3.561c-1.481,0-2.957.007-4.439.007-.254-.35-.5-.705-.757-1.051-.3-.522-.617-1.036-.922-1.558a29.136,29.136,0,0,1-1.051-4.324,11.127,11.127,0,0,1,9.335-11.974,3.541,3.541,0,0,0,.445-.14c-.267-.445-.508-.839-.75-1.242a9.29,9.29,0,0,1,6.3-13.818,8.9,8.9,0,0,1,6.219,1.234c.343.273.693.547,1.043.814,3.154,2.893,3.854,6.429,2.671,10.39,1.272,0,2.5-.038,3.728.012a19.491,19.491,0,0,1,2.245.29Zm-14.454,3.211c3.09.108,6.811-3.25,6.773-6.607a7.088,7.088,0,0,0-6.486-7.142,6.922,6.922,0,0,0-7.02,6.867,6.73,6.73,0,0,0,6.733,6.882Z" transform="translate(-507.109 -272.875)" fill="#f3a83c"/>
        <path id="Path_3520" data-name="Path 3520" d="M507.652,268.262q-.01,22.606-.026,45.209,0,23.217.012,46.434V361c.909-.229,1.736-.426,2.543-.669.12-.038.223-.3.235-.478.032-.4.007-.814.007-1.221q0-42.2.012-84.4a23.1,23.1,0,0,1,.267-2.461V360.2l3.351-.877v-.9q0-8.575.007-17.144a7.028,7.028,0,0,1,.155-1.015c.007,2.493.007,4.992.012,7.485q0,2.5.007,5v6.55c1.33-.343,2.576-.661,3.823-.98.973-.248,1.164-.1,1.17.928.007,1.2.012,2.385.019,3.58v1.85h1.2q7.583,0,15.166.007a5.808,5.808,0,0,1,.86.134H519.34c-.247.86.28.757.7.757q8.22,0,16.44.007a5.088,5.088,0,0,1-.853.146q-7.646.01-15.306.007h-.992v2.308H520.6q7.5,0,15,.007a5.947,5.947,0,0,1,.86.134H519.354c-.261.82.216.769.669.769q7.9,0,15.79-.007c.2,0,.394-.032.623-.051.012-.261.019-.489.032-.712.057.267.108.541.184.89H519.323c0,.362.007.655,0,.956-.026.853-.057,1.7-.089,2.55l-7.319,1.85c-.318.064-.642.115-.956.2L497.6,378.094l-.655-.057v-.871c-.045-.465-.082-.928-.127-1.393-.007-1.208-.007-2.41-.012-3.619,0-2.43.019-4.858-.019-7.288-.012-.649.1-1.119.8-1.278,1.242-.3,2.493-.592,3.72-.935.223-.064.376-.376.56-.566.292.07.611.261.871.2,1.551-.362,3.09-.789,4.683-1.2.019-.191.051-.388.051-.578V329.9c0-.153-.012-.3-.019-.458v-2.022q0-2.724-.007-5.448c0-1.285.007-2.576.007-3.859v-3.6q0-3.53-.007-7.059c.007-.484.026-.966.026-1.443q0-18.237.007-36.482A12.753,12.753,0,0,1,507.652,268.262Zm1.625,99.666c0-.115.007-.235.007-.35-.28-.172-.573-.5-.833-.47-.28.026-.528.388-.789.6.229.248.439.674.693.693.29.032.614-.293.919-.47Z" transform="translate(-451.563 -249.967)" fill="#b0a0ae"/>
        <path id="Path_3521" data-name="Path 3521" d="M688.159,301.3a8.527,8.527,0,0,1-7.44-1.625,8.757,8.757,0,0,1-.382-13.271,20.963,20.963,0,0,1,2.69-1.673c.343-.1.687-.2,1.036-.3a8.689,8.689,0,0,1,5.38,16.368,3.492,3.492,0,0,0-.376.248C688.769,301.13,688.463,301.213,688.159,301.3Zm4.006-7.8c.019-2.785-.884-4.674-2.97-6.016a5.74,5.74,0,0,0-5.469-.636,6.336,6.336,0,0,0-3.6,8.507,6.077,6.077,0,0,0,5.551,4C689.119,299.578,692.286,296.7,692.164,293.505Z" transform="translate(-512.036 -255.326)" fill="#f3a93c"/>
        <path id="Path_3522" data-name="Path 3522" d="M650.188,450.34a6.206,6.206,0,0,1-.956.153q-7.564.019-15.128,0c-.134,0-.261-.21-.388-.324a25.408,25.408,0,0,0,3.364-5.926c.661-.038,1.323-.1,1.984-.115.4-.007.8.1,1.2.115,3.109.057,6.225.115,9.335.146.478.007.611.172.6.623C650.181,446.792,650.188,448.566,650.188,450.34Z" transform="translate(-497.39 -308.825)" fill="#fefefe"/>
        <path id="Path_3523" data-name="Path 3523" d="M647.282,249.359a8.066,8.066,0,0,1,5.774-4.172,7.646,7.646,0,0,1,8.616,6.691,10.758,10.758,0,0,1-.611,4.331c-.1.165-.2.331-.3.489a7.972,7.972,0,0,1-5.38,3.873,7.469,7.469,0,0,1-8.793-6.27,18.889,18.889,0,0,1,.185-3.53c.012-.2.057-.394.082-.6C647,249.906,647.136,249.632,647.282,249.359Zm12.394,3.466a5.551,5.551,0,0,0-5.6-5.755,5.868,5.868,0,0,0-5.692,5.882,5.763,5.763,0,0,0,5.653,5.781c2.709.057,6.035-2.747,5.635-5.908Z" transform="translate(-501.683 -242.212)" fill="#f2a83c"/>
        <path id="Path_3524" data-name="Path 3524" d="M632.121,443.231a25.279,25.279,0,0,1-3.364,5.926c-.3.312-.6.617-.9.928.082-.216.172-.432.235-.6-.489,0-.941-.007-1.393,0-2.169.045-4.343.1-6.512.153-.4.007-.8.007-1.2.007-.026-2.684-.057-5.361-.076-8.044a2.925,2.925,0,0,1,.089-.515V443.8h.1c.172-.7.343-1.4.522-2.1.007.153.012.3.032.623.909,0,1.816-.051,2.7.012,1.242.089,2.493.261,3.739.388.273.032.553.045.833.057,1.386.064,2.778.127,4.165.184.343.012.693-.019,1.036-.026C632.121,443.027,632.121,443.129,632.121,443.231Z" transform="translate(-492.436 -307.808)" fill="#a0b7b7"/>
        <path id="Path_3525" data-name="Path 3525" d="M588.873,248.852a6.6,6.6,0,0,1,.331-4.521,6.222,6.222,0,0,1,10.8-.808,15.07,15.07,0,0,1,1.253,3.053c0,.337.007.681.007,1.018a6.107,6.107,0,0,1-4.719,5.639,6.4,6.4,0,0,1-6.931-2.925c-.1-.146-.2-.292-.292-.445C589.172,249.526,589.019,249.19,588.873,248.852Zm10.694-1.609a4.547,4.547,0,0,0-4.674-4.875,4.437,4.437,0,0,0-4.642,4.477c-.14,2.639,2.442,4.884,4.769,4.97C597.235,251.9,599.868,249.622,599.567,247.244Z" transform="translate(-482.3 -240.764)" fill="#f2a83c"/>
        <path id="Path_3526" data-name="Path 3526" d="M596.222,260.5H569.571c-1.393,0-2.785-.089-4.172-.14a2.6,2.6,0,0,1,.573-.5,7.835,7.835,0,0,1,1.551-.6,2.2,2.2,0,0,1,.9.191c-.178.229-.357.458-.534.681a2.065,2.065,0,0,1-.318.216h.839q13.278,0,26.561.007A10.561,10.561,0,0,1,596.222,260.5Z" transform="translate(-474.525 -246.949)" fill="#a293a0"/>
        <path id="Path_3527" data-name="Path 3527" d="M580.466,255.356a2.44,2.44,0,0,1-.623.445c-1.3.42-2.6.833-3.919,1.182-.229.064-.54-.184-.808-.287.172-.2.3-.515.522-.585q1.975-.669,3.988-1.221c.242-.07.553.108.827.165C580.46,255.152,580.46,255.254,580.466,255.356Z" transform="translate(-477.779 -245.487)" fill="#a293a0"/>
        <path id="Path_3528" data-name="Path 3528" d="M667.906,262.29c.1-.165.2-.331.3-.489.229.057.515.051.68.191,1.051.86,2.1,1.742,3.109,2.665.184.165.165.553.235.839-.287-.045-.655.007-.846-.153C670.2,264.344,669.064,263.308,667.906,262.29Z" transform="translate(-508.833 -247.804)" fill="#a193a0"/>
        <path id="Path_3529" data-name="Path 3529" d="M681.076,276.006a3.331,3.331,0,0,1-.4-.376c-.808-1.1-1.625-2.2-2.385-3.332-.153-.223-.051-.611-.07-.922.267.115.63.153.782.356.833,1.081,1.625,2.2,2.4,3.319a1.055,1.055,0,0,1,.038.693C681.433,275.841,681.229,275.905,681.076,276.006Z" transform="translate(-512.28 -251.01)" fill="#a293a0"/>
        <path id="Path_3530" data-name="Path 3530" d="M618.9,248.518a14.837,14.837,0,0,1,1.6.019c.21.026.4.273.6.42-.185.165-.357.458-.547.465q-2.127.134-4.254.146c-.223,0-.445-.273-.674-.42.21-.165.4-.445.63-.47.877-.108,1.768-.134,2.651-.191Z" transform="translate(-491.332 -243.348)" fill="#a0939f"/>
        <path id="Path_3531" data-name="Path 3531" d="M630.733,248.765c1.062.1,2.27.191,3.472.362.242.032.439.369.655.566-.261.12-.528.369-.776.35-1.285-.076-2.562-.223-3.847-.35a1.173,1.173,0,0,1-.509-.1.649.649,0,0,1-.292-.465c.012-.134.235-.312.394-.356a4.511,4.511,0,0,1,.9-.011Z" transform="translate(-495.957 -243.436)" fill="#a0929f"/>
        <path id="Path_3532" data-name="Path 3532" d="M696.259,326.382a6.174,6.174,0,0,1-.019,1.138c-.045.223-.273.4-.42.6-.165-.184-.458-.356-.47-.547q-.143-2.118-.165-4.248c0-.216.287-.432.439-.655.159.223.426.439.451.674C696.177,324.36,696.2,325.371,696.259,326.382Z" transform="translate(-517.962 -268.178)" fill="#a1939f"/>
        <path id="Path_3533" data-name="Path 3533" d="M693.531,309.739c.3-.082.611-.165.916-.254.21,1.45.451,2.893.617,4.35.026.223-.273.484-.42.731-.165-.21-.432-.4-.478-.63C693.925,312.538,693.735,311.138,693.531,309.739Z" transform="translate(-517.409 -263.764)" fill="#a2949f"/>
        <path id="Path_3534" data-name="Path 3534" d="M663.6,386.46c.254.35.5.705.757,1.051-.808,0-1.615-.032-2.416.019-.916.057-1.825.2-2.74.3l.115-.324c.14-.1.287-.2.426-.3A4.253,4.253,0,0,1,663.6,386.46Z" transform="translate(-505.919 -289.466)" fill="#8e5244"/>
        <path id="Path_3535" data-name="Path 3535" d="M663.654,385.767a4.233,4.233,0,0,0-3.866.75c-.14.1-.287.2-.426.3a3.853,3.853,0,0,1,3.37-2.607C663.037,384.73,663.342,385.251,663.654,385.767Z" transform="translate(-505.972 -288.772)" fill="#b96c5a"/>
        <path id="Path_3536" data-name="Path 3536" d="M646.137,251.22c-.14.273-.287.547-.426.82-.712-.165-1.434-.292-2.136-.508-.191-.057-.3-.369-.451-.559.223-.115.465-.357.661-.318C644.573,250.794,645.354,251.023,646.137,251.22Z" transform="translate(-500.538 -244.073)" fill="#a293a0"/>
        <path id="Path_3537" data-name="Path 3537" d="M696.266,338.768c-.35-.273-.693-.547-1.043-.814a3.408,3.408,0,0,1,.14-.724,6.4,6.4,0,0,1,.5-.82c.178.267.47.515.5.8a9.345,9.345,0,0,1-.1,1.564Z" transform="translate(-517.975 -272.774)" fill="#ab9ba2"/>
        <path id="Path_3538" data-name="Path 3538" d="M607.622,250.481c0-.337-.007-.681-.007-1.018a3.822,3.822,0,0,1,.966-.051,2.226,2.226,0,0,1,.674.394c-.2.178-.376.439-.611.522a4.911,4.911,0,0,1-1.023.153Z" transform="translate(-488.654 -243.652)" fill="#a495a0"/>
        <path id="Path_3539" data-name="Path 3539" d="M686.735,283.96c-.343.1-.687.2-1.036.3a1.84,1.84,0,0,1-.235-.616,3.062,3.062,0,0,1,.185-.776,2.021,2.021,0,0,1,.655.312,3.442,3.442,0,0,1,.432.782Z" transform="translate(-514.709 -254.855)" fill="#ad9aa0"/>
        <path id="Path_3540" data-name="Path 3540" d="M644.489,385.938a3.441,3.441,0,0,1-2.607.585c-.47-.045-.808-.343-.439-.89,0,.846.6.82,1.157.738C643.241,386.263,643.864,386.084,644.489,385.938Z" transform="translate(-499.925 -289.249)" fill="#a0b7b7"/>
        <path id="Path_3541" data-name="Path 3541" d="M648.92,389.676c-.082-.669-.185-1.329-.235-2-.045-.592-.038-1.189-.057-1.787a10.217,10.217,0,0,1,.273,1.434C648.952,388.11,648.92,388.892,648.92,389.676Z" transform="translate(-502.381 -289.335)" fill="#a0b7b7"/>
        <path id="Path_3542" data-name="Path 3542" d="M588.8,252.921c.146.337.3.681.445,1.018-.28-.108-.56-.21-.833-.318C588.54,253.386,588.671,253.15,588.8,252.921Z" transform="translate(-482.228 -244.832)" fill="#b1a2a8"/>
        <path id="Path_3543" data-name="Path 3543" d="M489.016,431.491l13.354-3.472c.318-.082.642-.134.956-.2-.413.172-.82.35-1.386.592a17.6,17.6,0,0,1,1.711.75c.947.559,1.876,1.164,2.785,1.781,1.259.853,2.505,1.73,3.758,2.595,1.965,1.354,3.919,2.709,5.9,4.051.127.083.362.007.547.007.134.216.216.5.407.63,1.73,1.208,3.478,2.389,5.22,3.58q3.644,2.461,7.281,4.928c1.265.884,2.512,1.793,3.8,2.639a2.441,2.441,0,0,0,1.253.388c8.507.026,17,.007,25.5.026a8.583,8.583,0,0,0,3.777-.636,2.911,2.911,0,0,1-2.366.769q-12.734.029-25.468.012h-1.5c-.019.051-.038.108-.057.159.382.3.75.611,1.147.884,1.2.82,2.423,1.609,3.619,2.435a7.931,7.931,0,0,1,.86.808q-1.85,2.89-3.708,5.781-2.28,3.492-4.566,6.989c-.216.343-.432.681-.7,1.107q-6.715-4.855-13.335-9.653-3.329-2.433-6.665-4.858c-.273-.2-.547-.407-.8.019.026-.216.057-.439.076-.566-4.369-3.142-8.686-6.251-13-9.361-.165.191-.273.318-.388.445-.432-.445-.769.038-1.107.159-4.89,1.7-9.837,3.039-15.1,2.454-5.621-.623-8.477-4-9.717-9.749.547-.089,1.1-.159,1.647-.28a65.2,65.2,0,0,0,11.522-3.732c.98-.324,1.952-.669,2.931-.98C487.8,431.8,488.409,431.656,489.016,431.491Zm-14.791,8.938a3.517,3.517,0,0,0,3.084-1.338,3.407,3.407,0,0,0,.928-3.167C477.774,438.325,476.571,439.891,474.225,440.428Z" transform="translate(-442.969 -303.368)" fill="#00abed"/>
        <path id="Path_3544" data-name="Path 3544" d="M506.142,452.089c.108-.127.216-.254.388-.445,4.318,3.1,8.636,6.213,13,9.361-.019.127-.045.35-.076.566q-.6,1.593-1.208,3.186-1.831,4.731-3.669,9.462a.174.174,0,0,0-.045.057c-.655,1.424-.655,1.424-2.15.89-.642-.229-1.285-.439-1.927-.655-2.092-.757-4.178-1.52-6.277-2.258-.947-.337-1.92-.616-2.881-.922-.973-.407-1.946-.82-3-1.265q2.651-6.143,5.309-12.3C504.444,455.868,505.3,453.979,506.142,452.089Z" transform="translate(-452.069 -311.339)" fill="#00abed"/>
        <path id="Path_3545" data-name="Path 3545" d="M522.76,479.072q1.841-4.731,3.669-9.462.611-1.593,1.208-3.186c.261-.426.528-.223.8-.019q3.329,2.433,6.665,4.858c-.465.465-.935.916-1.38,1.386a20.7,20.7,0,0,1-10.963,6.423Z" transform="translate(-460.255 -316.204)" fill="#5c908f"/>
        <path id="Path_3546" data-name="Path 3546" d="M502.029,481.231c.956.3,1.927.585,2.881.922,2.1.738,4.184,1.5,6.277,2.258-.242.038-.489.07-.846.127a5.962,5.962,0,0,1,.6,5.182l-10.429-4.7a9.527,9.527,0,0,1,.362-1.259C501.228,482.9,501.641,482.07,502.029,481.231Zm8.42,6.9c.051-.12.1-.248.146-.369q-4.426-1.965-8.858-3.924c-.051.108-.1.216-.146.324q4.426,1.994,8.858,3.968Z" transform="translate(-452.809 -321.243)" fill="#5a5f9a"/>
        <path id="Path_3547" data-name="Path 3547" d="M562.416,482.951q2.28-3.492,4.566-6.989a4.319,4.319,0,0,0,.765-.1,5.79,5.79,0,0,1,5.565.941c-2.67,2.817-5.3,5.583-8,8.432-.782-.719-1.507-1.4-2.264-2.066a1.841,1.841,0,0,0-.631-.223Zm2.294.547c.1.089.191.178.287.273q3.32-3.492,6.639-6.989c-.089-.089-.184-.172-.273-.261Q568.026,480,564.7,483.5Z" transform="translate(-473.527 -319.339)" fill="#5a5f9a"/>
        <path id="Path_3548" data-name="Path 3548" d="M618.874,453.86c.4,0,.8,0,1.2-.007l6.512-.153c.451-.012.9,0,1.393,0-.063.165-.146.382-.235.6a12.807,12.807,0,0,1-7.821,4.134c-.445.064-.884.2-1.323.3Q618.74,456.294,618.874,453.86Z" transform="translate(-492.329 -312.027)" fill="#99b0b2"/>
        <path id="Path_3549" data-name="Path 3549" d="M480.845,380.064a5.486,5.486,0,0,0,.63-2.741,2.2,2.2,0,0,0-.553-1.539c-.724-.75-.541-1.481.388-1.965.127.8.261,1.6.42,2.595.376-1,.616-1.774.956-2.505a3.143,3.143,0,0,1,3.911-2.073,14.941,14.941,0,0,1,1.424.5,3.919,3.919,0,0,0,1.38.242c1.634-.159,1.971.057,2.294,1.64l-.172,2.327c-.35-.426-.719-.782-1.418-.413.54.287.98.515,1.418.744-.254.884-.541,1.768-.765,2.658a4.285,4.285,0,0,1-2.576,3.262,10.7,10.7,0,0,1-4.465-.916,4.178,4.178,0,0,1-2.258-2.55C481.226,379.612,481.036,379.842,480.845,380.064Zm7.551-3.046c-.127.019-.248.045-.376.064.057.407.1.814.165,1.221.082.528.4,1.107-.451,1.386.757.287,1.107.235,1.069-.108-.085-.865-.27-1.711-.409-2.562Zm-2.854,2.385a.85.85,0,0,0,.267,1.132c.21.2.585.216,1.043.369C486.326,380.309,485.976,379.9,485.542,379.4Zm-.941-3.676c.045.045.082.089.127.127.515-.115,1.03-.235,1.546-.35.007-.064.019-.134.026-.2a3.7,3.7,0,0,0-1.051-.07c-.225.045-.421.318-.644.489Zm1.093.159c-.223.248-.5.465-.47.541a.848.848,0,0,0,.484.445c.12.026.451-.254.439-.362-.023-.191-.239-.357-.448-.623Zm5.386,1.253c-.3-.21-.465-.413-.63-.413s-.324.2-.489.312c.153.159.28.395.465.451.137.038.34-.165.66-.35Z" transform="translate(-446.104 -284.602)" fill="#f8cdc8"/>
        <path id="Path_3550" data-name="Path 3550" d="M504.866,351.5v2.022c-2.1-1.113-4.248-2.124-6.27-3.358-2.061-1.259-4-2.709-5.958-4.127a10.352,10.352,0,0,1-3.1-3.4,5.1,5.1,0,0,1-.489-1.565c-.1-.559.248-.935.8-.808a9.532,9.532,0,0,1,2.581.8,41.342,41.342,0,0,1,11.109,8.884C504,350.455,504.427,350.977,504.866,351.5Z" transform="translate(-448.968 -274.058)" fill="#f8cdc8"/>
        <path id="Path_3551" data-name="Path 3551" d="M492.106,371.727c-.312-1.589-.655-1.8-2.294-1.64a3.9,3.9,0,0,1-1.38-.242c-.484-.134-.935-.42-1.424-.5a3.142,3.142,0,0,0-3.911,2.073c-.343.731-.578,1.507-.956,2.505-.165-1-.292-1.8-.42-2.595.038-1.011.038-2.035.134-3.039a2.772,2.772,0,0,1,2.359-2.7,5.355,5.355,0,0,1,1.051-.159,3.278,3.278,0,0,0,2.359-.693,1.861,1.861,0,0,1,2.4.229,9.059,9.059,0,0,1,1.87-.661,1.958,1.958,0,0,1,2.213,1.558,5.973,5.973,0,0,1-2,5.869Z" transform="translate(-446.522 -282.102)" fill="#2c1a39"/>
        <path id="Path_3552" data-name="Path 3552" d="M500.052,402.349c-.184.2-.337.509-.559.566-1.234.343-2.48.63-3.72.935-.293-1.5-.515-3.015-.9-4.492-.4-1.577-.928-3.116-1.434-4.661a3.2,3.2,0,0,0-.566-.769h.35l.165-.2c-.287-.229-.578-.451-.86-.681.076-.191.261-.432.2-.573-.439-1.051-.922-2.086-1.393-3.123.045-.382.057-.789.611-.75,1.234.6,1.589,1.876,2.188,2.938,1.876,3.313,3.676,6.665,5.507,10C499.783,401.814,499.912,402.082,500.052,402.349Z" transform="translate(-449.738 -290.239)" fill="#d57865"/>
        <path id="Path_3553" data-name="Path 3553" d="M487.885,386.785c-.559-.038-.573.369-.611.75-.687.956-2.461.935-3.516.451a8.073,8.073,0,0,1-3.1-2.512c-.394-.522-.808-.788-1.45-.522.407-.356.814-.719,1.215-1.074.191-.229.382-.451.616-.731a4.181,4.181,0,0,0,2.258,2.55,10.654,10.654,0,0,0,4.465.916C487.8,386.677,487.847,386.728,487.885,386.785Z" transform="translate(-445.678 -288.416)" fill="#e7bfbb"/>
        <path id="Path_3554" data-name="Path 3554" d="M496.365,379.006c-.439-.229-.877-.458-1.418-.744.705-.369,1.074-.012,1.418.413Z" transform="translate(-450.947 -286.73)" fill="#5d4155"/>
        <path id="Path_3555" data-name="Path 3555" d="M472.208,407.606c-.007.839.038,1.678-.032,2.518-.057.731-.5.992-1.234.86-.343-.064-.687-.108-1.03-.165l-5.647-.765c-.5-.051-1-.108-1.507-.159-1.259-.191-1.418-.42-1.119-1.659a3.016,3.016,0,0,1,.8-1.742c.28-.254.223-.9.292-1.374.064-.445.1-.89.146-1.338V404.8q1.135-4.894,2.277-9.825c.153-.661.273-1.329.465-1.971a3.747,3.747,0,0,1,6.613-.583,6.207,6.207,0,0,1,.407,2.047c.051.28.1.553.153.833a1.72,1.72,0,0,0-.3.5,9.574,9.574,0,0,0-.07,1.132c-.178,3.384-.369,6.759-.528,10.143C471.9,407.231,472.1,407.422,472.208,407.606Z" transform="translate(-439.756 -290.937)" fill="#d57865"/>
        <path id="Path_3556" data-name="Path 3556" d="M494.232,442.005q-1.268,2.843-2.543,5.678a2.288,2.288,0,0,0-.731-.293c-1.939-.07-3.879-.038-5.812-.172a26.636,26.636,0,0,1-4.254-.642,26.244,26.244,0,0,1-7.542-2.862,30.227,30.227,0,0,1-4.248-3.02,21.2,21.2,0,0,1-2.862-3.211,16.757,16.757,0,0,1-3.109-7.4,16.5,16.5,0,0,1-.324-5.161c.153-1.107.146-2.238.216-3.408.108.1.178.159.248.216.026.343.051.693.076,1.036l.4,2.022a25.639,25.639,0,0,0,2.581,8.827,1.869,1.869,0,0,0,1.972,1.243c1.243,5.748,4.1,9.125,9.717,9.749,5.257.585,10.206-.75,15.1-2.454C493.461,442.043,493.8,441.56,494.232,442.005Z" transform="translate(-440.159 -301.26)" fill="#527c7e"/>
        <path id="Path_3557" data-name="Path 3557" d="M463.574,422.116c-.026-.343-.051-.693-.076-1.036-.032-.508-.07-1.018-.1-1.529.5.051,1,.108,1.507.159-.636-.12-.928.153-1,.782C463.835,421.035,463.688,421.569,463.574,422.116Z" transform="translate(-440.387 -300.601)" fill="#de8d7c"/>
        <path id="Path_3558" data-name="Path 3558" d="M512.573,337.767v3.6a23.9,23.9,0,0,1-.508-2.557C512.039,338.479,512.4,338.11,512.573,337.767Z" transform="translate(-456.675 -273.229)" fill="#fdeae8"/>
        <path id="Path_3559" data-name="Path 3559" d="M456.376,353.871a4.766,4.766,0,0,1-.592.86q-3.5,3.262-7.033,6.486a1.017,1.017,0,0,1-1.654-.045c-1.093-1.157-2.181-2.327-3.262-3.5-.541-.585-.592-1.182-.146-1.609s.935-.369,1.507.229q1.211,1.259,2.385,2.557c.3.331.515.369.871.032,1.615-1.529,3.262-3.034,4.9-4.54a9,9,0,0,1,1.386-1.177,1.357,1.357,0,0,1,1.036-.057C456.02,353.19,456.153,353.565,456.376,353.871Z" transform="translate(-433.691 -278.338)" fill="#fdfdfd"/>
        <path id="Path_3560" data-name="Path 3560" d="M463.663,422.182c.108-.541.254-1.074.324-1.625.076-.63.369-.9,1-.782l5.647.765c.35,1.018,1.31,1.043,2.117,1.272,2.34.661,4.674,1.31,7.033,1.9a3.141,3.141,0,0,0,1.529-.076c1.147-.331,2.258-.75,3.383-1.138a1.242,1.242,0,0,1,.14.051c.3.1.6.2.9.3.007,1.208.007,2.416.012,3.619-.2-.038-.413-.082-.616-.12-.54-.388-.916.057-1.291.3a5.339,5.339,0,0,1-4.025,1.069c-3.93-.712-7.892-1.227-11.84-1.844-1.434-.223-2.97-.242-3.9-1.659C463.93,423.531,463.8,422.856,463.663,422.182Z" transform="translate(-440.477 -300.667)" fill="#f8cdc8"/>
        <path id="Path_3561" data-name="Path 3561" d="M493.741,414.5a.915.915,0,0,0-.14-.051c-.642-4.051-1.243-8.108-1.946-12.152-.343-2-.86-3.962-1.3-5.939-.045-.2-.064-.407-.089-.6a1.894,1.894,0,0,1,.184-.051,1.558,1.558,0,0,1,.223.4,131.844,131.844,0,0,1,3.25,17.863,1.6,1.6,0,0,1-.179.533Z" transform="translate(-449.379 -292.62)" fill="#4a293e"/>
        <path id="Path_3562" data-name="Path 3562" d="M487.872,392.543c.287.229.578.451.86.681l-.165.2h-.349c-.712-.642-1.424-1.285-2.181-1.971-1.221,1.1-2.4,2.162-3.7,3.319-1.673-2.557-3.288-5.03-4.909-7.5l.292-.2c1.539,2.334,3.078,4.667,4.683,7.109.623-.553,1.2-1.074,1.781-1.577.611-.522,1.215-1.4,1.857-1.434C486.638,391.152,487.262,392.055,487.872,392.543Z" transform="translate(-445.086 -289.732)" fill="#48283c"/>
        <path id="Path_3563" data-name="Path 3563" d="M477.435,409.923c-.108-.184-.312-.369-.3-.547.159-3.383.35-6.759.528-10.143a11.051,11.051,0,0,1,.07-1.132,1.722,1.722,0,0,1,.3-.5c-.057,1.768-.089,3.53-.178,5.3C477.735,405.236,477.576,407.577,477.435,409.923Z" transform="translate(-444.983 -293.254)" fill="#4b2a3f"/>
        <path id="Path_3564" data-name="Path 3564" d="M773.749,446.641a5.12,5.12,0,0,1-.146-.86c-.012-3.5-.007-7.015-.007-10.514V434.4c-.765,0-1.469-.007-2.174,0-1.774.019-3.555.057-5.329.057q-10.9.01-21.805,0c-1.234,0-1.215,0-1.208-1.208.007-3.988,0-7.974.007-11.967,0-1,0-1,1.024-1h29.449c.012-.337.038-.6.038-.877q0-14.4-.007-28.807a10.7,10.7,0,0,0-.146-1.272,3.836,3.836,0,0,1,.293,1.018q.019,21.681.013,43.362Q773.749,440.16,773.749,446.641Zm-23.865-15.388a3.864,3.864,0,0,0,3.974-4.014A3.977,3.977,0,0,0,750,423.4a3.883,3.883,0,0,0-4.026,3.943,3.831,3.831,0,0,0,3.91,3.9Zm22.709,1.1a8.267,8.267,0,0,1-.98.407,7.057,7.057,0,0,1-.9.1c.007.115.007.235.012.35a11.263,11.263,0,0,0,1.609-.108c.108-.024.152-.444.254-.755Zm-2.9.757c0-.07,0-.134-.007-.2h-1.612v.2Zm-17.109-.249c.687.508,1.265.445,1.539,0Zm11.917.249c0-.07,0-.134-.007-.2h-1.615c0,.07,0,.134.007.2Zm2.581.007c-.007-.076-.012-.153-.012-.229h-1.6c0,.076,0,.153.007.229Zm-11.9-.229c-.007.076-.007.153-.012.229h1.539c0-.076.007-.153.007-.229Zm-5.2-.012c0,.076.007.153.007.229h1.539v-.229Zm1.787-11.319a1.1,1.1,0,0,0,1.666,0Zm10.244-.012c.8.54,1.434.5,1.742,0Zm9.539.267c.007-.076.007-.153.012-.229h-1.546c0,.076,0,.153-.007.229Zm-26.8,11.033a1.1,1.1,0,0,0,1.673,0Zm15.612.045c0,.076-.007.153-.007.229h1.546c0-.076,0-.153.007-.229Zm-1.088.242c.012-.076.019-.153.032-.229h-1.539v.229Zm8.057-11.574a1.093,1.093,0,0,0,1.66,0Zm-2.7-.019c.725.547,1.373.515,1.742,0Zm-16.425.318c-.007-.12-.012-.242-.019-.369-.5.026-1,.045-1.494.07l.019.362c.5-.024,1-.05,1.5-.069Zm12.96-.051c-.007-.108-.019-.223-.026-.331l-1.5.076c.007.082.007.172.012.254Zm-4.1-.229c.719.5,1.215.439,1.475,0Zm-1.081.223c-.012-.108-.019-.216-.032-.324-.5.026-1,.045-1.494.07.007.083.012.172.012.254ZM748.914,433.1c.012-.076.026-.146.038-.223h-1.524c0,.076-.007.146-.007.223Zm-4.432-10.136c-.077.012-.146.019-.223.032v1.564c.076,0,.146-.007.223-.007Zm4.693-1.38c.769.5,1.33.439,1.6,0Zm-3.516.267c-.7-.541-1.164-.458-1.434.14.507-.055.971-.1,1.436-.144Zm-1.183,3.823c-.07.007-.146.007-.216.012v1.481c.07,0,.146,0,.216-.007Zm-.267,6.778c.547-.776.508-1.272,0-1.6Zm.007-2.83.223.019v-1.367h-.223Z" transform="translate(-533.991 -290.477)" fill="#1591c1"/>
        <path id="Path_3565" data-name="Path 3565" d="M785.057,387.66c.2-.3.394-.6.592-.909.478.3.966.6,1.434.922.038.026-.032.21-.051.318C786.374,387.883,785.712,387.775,785.057,387.66Z" transform="translate(-548.041 -289.623)" fill="#935649"/>
        <path id="Path_3566" data-name="Path 3566" d="M768.5,358.977c1.551-2.607,3.123-5.208,4.655-7.837a38.16,38.16,0,0,0,1.9-3.7c-.458.369-.9.765-1.386,1.093a11.249,11.249,0,0,1-5.735,1.953,12.987,12.987,0,0,1-6.366-1.3c-1.806-.814-2.34-2.2-2.55-3.981-.216-1.8-.611-3.58-.909-5.373q-.7-4.178-1.361-8.369c-.247-1.57-.451-3.147-.655-4.724a1.275,1.275,0,0,1,.115-.776c1.329-2.155,2.62-4.337,4.044-6.429,2.823-4.14,5.678-8.254,8.61-12.312,1.329-1.844,2.874-3.53,4.312-5.3a10.329,10.329,0,0,0,.578-.86c7.917,5.844,15.605,11.516,23.351,17.226-.776.98-1.52,1.863-2.207,2.785-1.647,2.207-3.319,4.4-4.89,6.665-3.459,5-6.486,10.277-9.431,15.593-2.294,4.139-4.63,8.254-6.957,12.375-.623,1.1-1.285,2.174-1.934,3.255C770.627,358.977,769.565,358.977,768.5,358.977ZM758.17,327.906a12.167,12.167,0,0,1,8.642-2.925,10.331,10.331,0,0,1,6.575,2.581c3.949,3.542,5.352,8.044,4.719,13.246-.064.515-.12,1.037-.184,1.551,4.738-8.108,9.469-16.145,15.395-23.541-6.461-4.763-12.82-9.456-19.2-14.162-6.066,7.32-11.033,15.256-15.943,23.25Zm3.339,4.683c-.35-.248-.724-.5-1.081-.769s-.56-.2-.808.146c-.833,1.182-.833,1.243.331,2.08a.565.565,0,0,0,.064.045.8.8,0,0,1,.432,1.113,4.244,4.244,0,0,0,.191,2.906,3.171,3.171,0,0,0,4.445,1.762,16.06,16.06,0,0,0,1.787-1.147,12.458,12.458,0,0,1,1.6-1.011,1.4,1.4,0,0,1,1.977.853,2.858,2.858,0,0,1,.051,1.481,4.683,4.683,0,0,1-2.232,2.867c-.451.273-.553.541-.229.966.12.159.223.343.337.508.56.833.693.86,1.476.223.642-.522,1.243-1.093,1.912-1.678.254.184.63.489,1.043.738a.669.669,0,0,0,.578.032,1.253,1.253,0,0,0-.082-2.226,1.228,1.228,0,0,1-.611-1.551,4.29,4.29,0,0,0-.42-3.1,3.355,3.355,0,0,0-4.884-1.5c-.973.541-1.844,1.253-2.778,1.863a1.285,1.285,0,0,1-1.625.026,1.539,1.539,0,0,1-.5-1.72,4.631,4.631,0,0,1,1.73-2.435c.8-.623.8-.616.242-1.494a2.174,2.174,0,0,1-.165-.254c-.3-.661-.719-.63-1.189-.2-.525.455-1.028.943-1.593,1.478Z" transform="translate(-538.341 -260.945)" fill="#527d7e"/>
        <path id="Path_3567" data-name="Path 3567" d="M720.626,355.442a13.887,13.887,0,0,0-7.046-11.217,2.636,2.636,0,0,1-.293-.235c-.115-1.278-.223-2.557-.35-3.835-.134-1.329-.3-2.658-.42-3.993-.21-2.442-.484-4.884-.573-7.332-.108-3.059-.045-6.13-.057-9.2a.309.309,0,0,1,.007-.076c.045-.522-.1-1.338.172-1.5a3.976,3.976,0,0,1,1.831-.28c2.054-.076,4.11-.1,6.162-.178,3.288-.134,6.575-.3,9.863-.451,2.251-.1,4.5-.216,6.754-.3,1-.038,1-.012,1,.956,0,1.424-.064,2.849.019,4.267.14,2.5.324,4.992.585,7.485.312,2.963.669,5.92,1.1,8.871.357,2.474.86,4.922,1.272,7.389q.753,4.484,1.457,8.973.553,3.52,1.024,7.046c.108.8.127,1.615.185,2.416h-2.294c-.1-.573-.209-1.138-.287-1.711-.47-3.345-.922-6.7-1.393-10.047-.146-1.018-.331-2.028-.508-3.1-.115.1-.14.108-.146.127a3.713,3.713,0,0,0-.089.362,9.211,9.211,0,0,1-1.711,4.089,10.323,10.323,0,0,1-10.982,4.063,14.74,14.74,0,0,1-5.286-2.589Zm17.424-10.931c-.248-1.348-.5-2.474-.661-3.619-.388-2.67-.782-5.342-1.1-8.029q-.448-3.873-.738-7.765c-.127-1.742-.127-3.492-.165-5.24-.007-.426-.146-.6-.578-.573-.935.064-1.87.108-2.8.153q-3.147.153-6.3.3c-3.619.159-7.236.331-10.855.445-.669.019-.877.184-.846.86.134,3.339.21,6.684.343,10.028.051,1.31.185,2.62.324,3.93.223,2.1.478,4.205.731,6.315.159,1.3.331,2.6.522,4.089.273-.89.439-1.6.706-2.277a10.322,10.322,0,0,1,8.769-6.575c4.153-.254,7.529,1.513,10.251,4.54a31.091,31.091,0,0,1,2.4,3.417Zm-4.292,3.65a8.041,8.041,0,0,0,1.147-.076c.191-.038.47-.229.5-.388.178-1.074-.2-1.52-1.272-1.424a1.2,1.2,0,0,1-1.309-.705,5.8,5.8,0,0,0-1.647-1.736,2.976,2.976,0,0,0-4.317.871,11.562,11.562,0,0,0-.757,1.978,17.72,17.72,0,0,1-.566,1.73,1.087,1.087,0,0,1-1.816.376,1.9,1.9,0,0,1-.63-1.081c-.07-.814.038-1.647.051-2.474,0-.223-.007-.547-.14-.655-1.051-.808-1.749-.5-1.92.808a1.842,1.842,0,0,0-.026.458c.108.744-.223.985-.941.935-.267-.019-.687.064-.8.242a1.134,1.134,0,0,0,1,1.577c.719-.07,1.259.007,1.507.827a2.746,2.746,0,0,0,.719.973c1.338,1.38,4.235,1.736,5.189-1.113.254-.769.42-1.565.669-2.334.216-.681.566-1.278,1.4-1.278a1.7,1.7,0,0,1,1.6,1.208,4.205,4.205,0,0,1,.026,3.192c-.178.47-.083.719.407.839a5.659,5.659,0,0,1,.725.229c.5.184.8.012.871-.5.107-.784.2-1.56.327-2.475Z" transform="translate(-523.55 -266.225)" fill="#527d7e"/>
        <path id="Path_3568" data-name="Path 3568" d="M700.069,378.987c-.089-.7.159-1.062.922-1.157a3.887,3.887,0,0,0,2.722-1.457,3.69,3.69,0,0,0-.725-5.3c-.928-.731-1.844-1.476-2.766-2.213a1,1,0,0,1-.382-1.272c.247-.566.68-1.036,1.31-.928a17.719,17.719,0,0,1,2.651.757,5.414,5.414,0,0,1,1,.616c.388-.553.757-1.074,1.2-1.711a17.006,17.006,0,0,0-2.028-1.189.74.74,0,0,1-.5-1c.235-1.164-.178-1.625-1.393-1.507a.748.748,0,0,0-.451.4,1.782,1.782,0,0,0-.159.808c.051.712-.426.776-.922.8a3.412,3.412,0,0,0-3.154,4.458,6.179,6.179,0,0,0,1.72,2.061c.724.687,1.6,1.221,2.327,1.9a1.434,1.434,0,0,1,.267,1.876,1.917,1.917,0,0,1-1.92.782A5,5,0,0,1,697,374.463c-.407-.413-.878-.573-1.338.12a5.69,5.69,0,0,1,.076-.814,10.746,10.746,0,0,0-.293-5.161,10.167,10.167,0,0,0-1.816-3.771c-.42-.541-.21-.922.229-1.285a10.437,10.437,0,0,1,5.272-2.632,9.968,9.968,0,0,1,6.111.89,10.314,10.314,0,0,1,4.4,4.223,10.5,10.5,0,0,1,1.282,5,10.2,10.2,0,0,1-2.007,6.39c-.388.528-.814,1.03-1.227,1.539C705.155,378.987,702.612,378.987,700.069,378.987Z" transform="translate(-517.365 -280.937)" fill="#d99937"/>
        <path id="Path_3569" data-name="Path 3569" d="M671.4,380.022a9.317,9.317,0,0,1-3.307-3.561,8.287,8.287,0,0,1,.089-8.356,7.893,7.893,0,0,1,7.535-4.184,8.593,8.593,0,0,1,8.315,7.351,8.4,8.4,0,0,1-2.327,7.478,11.1,11.1,0,0,1-1.749,1.272Zm4.044-13.393c-.871.216-1.654.407-2.538.63a3.351,3.351,0,0,1-.458-.515c-.547-.884-1.011-.134-1.424.108-.489.28-.185.681.07.956a1.051,1.051,0,0,1,.089,1.469,2.458,2.458,0,0,0-.362,2.493c.966,1.9,2.092,2.118,4.014,1.72a17.056,17.056,0,0,1,2.448-.439,1.191,1.191,0,0,1,1.208,1.348,2.2,2.2,0,0,1-1.278,1.678c-.669.292-1.367.5-2.232.814.12.407.134,1.018.439,1.265.273.223.884.076,1.33.012a2.861,2.861,0,0,0,.82-.369c.515-.273.834-.07,1.138.369.47.681.611.655,1.386.051.585-.451.235-.776-.108-1.1a.759.759,0,0,1-.159-1.062,7.985,7.985,0,0,0,.6-1.85c.4-1.711-1.57-3.516-3.236-3.192-1.036.2-2.1.273-3.123.528a1.036,1.036,0,0,1-1.3-.573.914.914,0,0,1,.261-1.285c.789-.566,1.654-1.03,2.485-1.539.064.051.12.1.184.159-.071-.477-.14-.947-.254-1.673Z" transform="translate(-508.533 -281.981)" fill="#d99937"/>
        <path id="Path_3570" data-name="Path 3570" d="M723.916,371.825a15.025,15.025,0,0,0,5.278,2.607,10.342,10.342,0,0,0,10.982-4.063,9.243,9.243,0,0,0,1.711-4.089c.019-.12.057-.242.089-.362.007-.019.038-.032.146-.127.178,1.074.369,2.086.508,3.1q.705,5.017,1.393,10.047c.082.573.191,1.138.287,1.711-2.646.007-5.285.019-7.933.019q-6.915.01-13.831-.007a2.7,2.7,0,0,1-.833-.287,13.693,13.693,0,0,0,2.174-7.478C723.905,372.537,723.916,372.185,723.916,371.825Z" transform="translate(-526.842 -282.608)" fill="#7fa89d"/>
        <path id="Path_3571" data-name="Path 3571" d="M693.8,386.6a8.19,8.19,0,0,1,.362-.956c.369-.681.776-1.338,1.2-2.073.413.261.846.566,1.31.827.369.21.8.318,1.138.56a1.1,1.1,0,0,1,.426.687,3.2,3.2,0,0,1-.165.956C696.648,386.611,695.223,386.6,693.8,386.6Z" transform="translate(-517.498 -288.561)" fill="#da9937"/>
        <path id="Path_3572" data-name="Path 3572" d="M751.442,390.993c.508,0,1.024-.012,1.529.012.064,0,.172.2.153.287a.356.356,0,0,1-.261.216c-.478,0-.947-.038-1.424-.07Z" transform="translate(-536.791 -291.041)" fill="#f4aa9d"/>
        <path id="Path_3573" data-name="Path 3573" d="M764.888,390.924c-.369.566-1.349.769-1.589.465-.051-.064.108-.432.191-.445a13.961,13.961,0,0,1,1.4-.019Z" transform="translate(-540.756 -291.017)" fill="#f4ab9d"/>
        <path id="Path_3574" data-name="Path 3574" d="M720.341,391.081h1.889a1.157,1.157,0,0,1-1.889,0Z" transform="translate(-526.381 -291.072)" fill="#f3a99b"/>
        <path id="Path_3575" data-name="Path 3575" d="M670.066,391.119h1.678a1.271,1.271,0,0,1-1.673.28C670.066,391.3,670.066,391.2,670.066,391.119Z" transform="translate(-509.556 -291.085)" fill="#f3a99b"/>
        <path id="Path_3576" data-name="Path 3576" d="M783.393,390.708c.312.165.547.292.782.42a2.531,2.531,0,0,1-.808.292,2.3,2.3,0,0,1-.757-.267C782.858,391.014,783.107,390.867,783.393,390.708Z" transform="translate(-547.221 -290.947)" fill="#f4aa9b"/>
        <path id="Path_3577" data-name="Path 3577" d="M729.027,391.649c-.267-.165-.508-.318-.744-.465a2.357,2.357,0,0,1,.769-.248,2.484,2.484,0,0,1,.789.312C729.6,391.369,729.352,391.492,729.027,391.649Z" transform="translate(-529.039 -291.024)" fill="#f4ab9d"/>
        <path id="Path_3578" data-name="Path 3578" d="M775.749,391.512a4.03,4.03,0,0,1-.669-.045c-.1-.026-.254-.178-.242-.229a.552.552,0,0,1,.254-.3.756.756,0,0,1,.445-.026c.292.07.573.178.853.267C776.143,391.308,775.9,391.442,775.749,391.512Z" transform="translate(-544.621 -291.007)" fill="#f4aa9c"/>
        <path id="Path_3579" data-name="Path 3579" d="M779.5,391.516h-.376c-.051,0-.12.007-.146-.019a3.062,3.062,0,0,1-.261-.312,5.8,5.8,0,0,1,1-.248c.178-.012.369.159.553.248-.115.1-.21.235-.343.28a1.259,1.259,0,0,1-.439.012C779.5,391.484,779.5,391.5,779.5,391.516Z" transform="translate(-545.92 -291.024)" fill="#f4aa9c"/>
        <path id="Path_3580" data-name="Path 3580" d="M683.424,390.861c-.407.712-1.051.765-1.72.127Z" transform="translate(-513.452 -290.998)" fill="#f4aa9c"/>
        <path id="Path_3581" data-name="Path 3581" d="M736.025,390.964c.465,0,.928-.012,1.393.012.076.007.146.172.216.267-.108.083-.223.235-.331.229-.426-.019-.852-.082-1.278-.127Z" transform="translate(-531.631 -291.031)" fill="#f4ab9c"/>
        <path id="Path_3582" data-name="Path 3582" d="M673.973,390.947l1.666.076c0,.115-.007.229-.007.35h-1.666C673.966,391.227,673.966,391.086,673.973,390.947Z" transform="translate(-510.86 -291.027)" fill="#f4aa9d"/>
        <path id="Path_3583" data-name="Path 3583" d="M739.982,391.119h1.539c0,.1.007.21.007.312-.508.032-1.024.057-1.529.089C739.989,391.38,739.989,391.246,739.982,391.119Z" transform="translate(-532.955 -291.085)" fill="#f6b1a4"/>
        <path id="Path_3584" data-name="Path 3584" d="M770.912,391c.47-.019.941-.045,1.412-.051.064,0,.185.14.172.2-.019.108-.108.292-.172.292-.47,0-.941-.032-1.412-.057Z" transform="translate(-543.307 -291.027)" fill="#f4aa9c"/>
        <path id="Path_3585" data-name="Path 3585" d="M710.551,391.328a10.479,10.479,0,0,1-1.164.172c-.12.007-.254-.172-.382-.267.12-.1.235-.287.362-.287a11.133,11.133,0,0,1,1.215.089C710.57,391.131,710.557,391.226,710.551,391.328Z" transform="translate(-522.588 -291.027)" fill="#f4aa9c"/>
        <path id="Path_3586" data-name="Path 3586" d="M718.267,391.068c-.312.458-.356.465-1.615.2C717.027,390.814,717.522,390.757,718.267,391.068Z" transform="translate(-525.147 -291.002)" fill="#f3aa9d"/>
        <path id="Path_3587" data-name="Path 3587" d="M770.482,475.238h1.678c.007.07.007.146.012.216h-1.666C770.5,475.378,770.488,475.308,770.482,475.238Z" transform="translate(-543.162 -319.238)" fill="#f5b0a2"/>
        <ellipse id="Ellipse_298" data-name="Ellipse 298" cx="0.159" cy="1.113" rx="0.159" ry="1.113" transform="translate(154.87 101.154)" fill="#f4b5a7"/>
        <path id="Path_3588" data-name="Path 3588" d="M661.655,472.345v-1.57h.229v1.57Z" transform="translate(-506.741 -317.744)" fill="#f6b2a4"/>
        <path id="Path_3589" data-name="Path 3589" d="M698.969,391.338h-1.682a1.027,1.027,0,0,1,1.682,0Z" transform="translate(-518.666 -291.011)" fill="#f4ad9d"/>
        <path id="Path_3590" data-name="Path 3590" d="M693.235,391.428c.489-.636,1.119-.669,1.844-.127C694.417,391.345,693.909,391.384,693.235,391.428Z" transform="translate(-517.31 -291.018)" fill="#f4ad9d"/>
        <path id="Path_3591" data-name="Path 3591" d="M661.665,429.707v-1.57c.07,0,.14.007.21.007v1.57C661.8,429.714,661.735,429.714,661.665,429.707Z" transform="translate(-506.744 -303.474)" fill="#f4b4a5"/>
        <path id="Path_3592" data-name="Path 3592" d="M661.646,410.34v-1.615h.21v1.615Z" transform="translate(-506.737 -296.977)" fill="#f6b4a6"/>
        <path id="Path_3593" data-name="Path 3593" d="M661.655,437.453v-1.577c.076,0,.146-.007.223-.007v1.558C661.808,437.439,661.732,437.446,661.655,437.453Z" transform="translate(-506.741 -306.061)" fill="#f6b1a3"/>
        <path id="Path_3594" data-name="Path 3594" d="M661.878,412.6v1.529h-.2V412.6Z" transform="translate(-506.747 -298.273)" fill="#f6b5a9"/>
        <path id="Path_3595" data-name="Path 3595" d="M755.526,390.937c.515.032,1.036.057,1.551.089-.007.082-.007.165-.012.248h-1.551C755.521,391.16,755.526,391.045,755.526,390.937Z" transform="translate(-538.153 -291.024)" fill="#f5aea1"/>
        <path id="Path_3596" data-name="Path 3596" d="M661.675,468.42v-1.539c.076,0,.153,0,.229-.007v1.52C661.827,468.4,661.751,468.407,661.675,468.42Z" transform="translate(-506.747 -316.438)" fill="#f6b2a4"/>
        <path id="Path_3597" data-name="Path 3597" d="M661.885,463.033v1.539c-.076,0-.153.007-.229.007v-1.529Z" transform="translate(-506.741 -315.153)" fill="#f5b7a9"/>
        <path id="Path_3598" data-name="Path 3598" d="M661.885,397.15v1.539c-.076,0-.153,0-.229.007v-1.529C661.732,397.157,661.808,397.157,661.885,397.15Z" transform="translate(-506.741 -293.103)" fill="#f6b0a2"/>
        <path id="Path_3599" data-name="Path 3599" d="M661.865,401.056v1.529h-.229V401.05C661.713,401.05,661.789,401.056,661.865,401.056Z" transform="translate(-506.734 -294.408)" fill="#f6b3a5"/>
        <path id="Path_3600" data-name="Path 3600" d="M661.636,406.459v-1.539h.229v1.529A1.842,1.842,0,0,1,661.636,406.459Z" transform="translate(-506.734 -295.703)" fill="#f6b6a8"/>
        <path id="Path_3601" data-name="Path 3601" d="M661.655,418.05v-1.517a1.927,1.927,0,0,0,.2-.007v1.52C661.789,418.05,661.719,418.05,661.655,418.05Z" transform="translate(-506.741 -299.587)" fill="#f6b3a6"/>
        <path id="Path_3602" data-name="Path 3602" d="M705.058,391.267c.484-.458,1.03-.478,1.755,0Z" transform="translate(-521.267 -291.017)" fill="#f6b0a4"/>
        <path id="Path_3603" data-name="Path 3603" d="M661.885,459.143v1.539h-.229v-1.529C661.725,459.149,661.8,459.143,661.885,459.143Z" transform="translate(-506.741 -313.851)" fill="#f5b3a6"/>
        <path id="Path_3604" data-name="Path 3604" d="M702.748,391.353h-1.529C701.54,390.8,702.119,390.768,702.748,391.353Z" transform="translate(-519.981 -291.02)" fill="#f7b1a4"/>
        <path id="Path_3605" data-name="Path 3605" d="M661.621,425.785a1.27,1.27,0,0,1,.216-1.539v1.513C661.767,425.773,661.694,425.779,661.621,425.785Z" transform="translate(-506.674 -302.172)" fill="#f5b3a5"/>
        <path id="Path_3606" data-name="Path 3606" d="M661.824,455.233v1.589c-.082.007-.165.007-.247.012-.026-.528-.057-1.051-.082-1.584a2.976,2.976,0,0,1,.33-.018Z" transform="translate(-506.686 -312.542)" fill="#f7b5a8"/>
        <path id="Path_3607" data-name="Path 3607" d="M661.885,443.678v1.539c-.076,0-.153,0-.229.007v-1.529C661.732,443.685,661.808,443.685,661.885,443.678Z" transform="translate(-506.741 -308.675)" fill="#f5b3a6"/>
        <path id="Path_3608" data-name="Path 3608" d="M661.894,447.479v1.589h-.229v-1.6C661.741,447.479,661.818,447.479,661.894,447.479Z" transform="translate(-506.744 -309.945)" fill="#f7b4a8"/>
        <path id="Path_3609" data-name="Path 3609" d="M661.655,441.329V439.8h.2v1.529Z" transform="translate(-506.741 -307.376)" fill="#f5b7a9"/>
        <path id="Path_3610" data-name="Path 3610" d="M679.07,475.394h-1.584c-.007-.089-.007-.178-.012-.267.528-.032,1.051-.057,1.584-.089C679.063,475.158,679.063,475.279,679.07,475.394Z" transform="translate(-512.035 -319.17)" fill="#f5b3a4"/>
        <path id="Path_3611" data-name="Path 3611" d="M714.138,475.428h-1.711C712.841,474.907,713.482,474.882,714.138,475.428Z" transform="translate(-523.733 -319.167)" fill="#f6b1a1"/>
        <path id="Path_3612" data-name="Path 3612" d="M727.892,475.219h1.615v.229h-1.615Z" transform="translate(-528.909 -319.231)" fill="#f7b6a9"/>
        <path id="Path_3613" data-name="Path 3613" d="M751.261,475.381a1.252,1.252,0,0,1,1.507-.2c.007.07.007.134.012.2Z" transform="translate(-536.73 -319.164)" fill="#f6b3a3"/>
        <path id="Path_3614" data-name="Path 3614" d="M687.188,391.3h-1.513C685.971,390.8,686.6,390.749,687.188,391.3Z" transform="translate(-514.779 -291.013)" fill="#f6b0a4"/>
        <path id="Path_3615" data-name="Path 3615" d="M661.885,432v1.539c-.076,0-.153,0-.229.007v-1.529C661.732,432,661.808,432,661.885,432Z" transform="translate(-506.741 -304.766)" fill="#f5b2a3"/>
        <path id="Path_3616" data-name="Path 3616" d="M768.7,391.409c-.553-.032-1.024-.057-1.551-.089a.884.884,0,0,1,1.551.089Z" transform="translate(-542.046 -291.011)" fill="#f3ac9c"/>
        <path id="Path_3617" data-name="Path 3617" d="M661.646,421.873v-1.488h.229v1.52C661.8,421.9,661.722,421.886,661.646,421.873Z" transform="translate(-506.737 -300.879)" fill="#f7b5a9"/>
        <path id="Path_3618" data-name="Path 3618" d="M681.507,475.238h1.529v.229h-1.51Z" transform="translate(-513.385 -319.238)" fill="#f5b4a5"/>
        <path id="Path_3619" data-name="Path 3619" d="M689.029,475.4a1.14,1.14,0,0,1,1.685,0Z" transform="translate(-515.902 -319.169)" fill="#f6b4a5"/>
        <path id="Path_3620" data-name="Path 3620" d="M689.488,391.285a1.14,1.14,0,0,1,1.685,0Z" transform="translate(-516.056 -291.016)" fill="#f7b3a6"/>
        <path id="Path_3621" data-name="Path 3621" d="M716.365,475.248h1.529v.229h-1.513C716.372,475.4,716.372,475.324,716.365,475.248Z" transform="translate(-525.051 -319.241)" fill="#f5b3a3"/>
        <path id="Path_3622" data-name="Path 3622" d="M661.646,452.908v-1.45h.229v1.457C661.8,452.915,661.722,452.915,661.646,452.908Z" transform="translate(-506.737 -311.279)" fill="#f5b4a6"/>
        <path id="Path_3623" data-name="Path 3623" d="M662.267,474.407c.515.223.935.4,1.354.592.026.012.019.089.026.134C662.909,475.38,662.452,475.176,662.267,474.407Z" transform="translate(-506.945 -318.96)" fill="#f6b4a9"/>
        <path id="Path_3624" data-name="Path 3624" d="M761.019,391.266h-1.6a1.074,1.074,0,0,1,1.6,0Z" transform="translate(-539.461 -291.016)" fill="#f6b6a7"/>
        <path id="Path_3625" data-name="Path 3625" d="M662.458,391.778c.478-.757,1.036-.89,1.666-.5C663.584,391.437,663.12,391.577,662.458,391.778Z" transform="translate(-507.009 -291.066)" fill="#f9b7aa"/>
        <path id="Path_3626" data-name="Path 3626" d="M667.906,391.319h-1.491a.944.944,0,0,1,1.491,0Z" transform="translate(-508.333 -291.031)" fill="#f6b5a7"/>
        <path id="Path_3627" data-name="Path 3627" d="M786.684,473.04c.293.731-.032,1.132-.7,1.338C786.214,473.936,786.449,473.485,786.684,473.04Z" transform="translate(-548.351 -318.502)" fill="#f7b8ad"/>
        <path id="Path_3628" data-name="Path 3628" d="M724.46,391.1h1.488c0,.076,0,.153.007.229h-1.466C724.479,391.253,724.467,391.176,724.46,391.1Z" transform="translate(-527.761 -291.078)" fill="#f6b5a6"/>
        <path id="Path_3629" data-name="Path 3629" d="M748.846,475.486h-1.469c0-.083-.007-.159-.007-.242.5-.026,1-.051,1.494-.082Q748.856,475.324,748.846,475.486Z" transform="translate(-535.428 -319.212)" fill="#fabfaf"/>
        <path id="Path_3630" data-name="Path 3630" d="M579.482,395.524a8.434,8.434,0,0,1-3.777.636c-8.507-.019-17-.007-25.5-.026a2.458,2.458,0,0,1-1.253-.388c-1.291-.846-2.538-1.755-3.8-2.639.451,0,.9-.007,1.354-.007h22.1a6.672,6.672,0,0,0,5.036-11.243,7.168,7.168,0,0,0-5.551-2.162c-1.807-.026-3.605-.007-5.412-.007H536.381c-.413,0-.941-.14-.833.592-.547-1.011-1.1-2.028-1.647-3.039a5.879,5.879,0,0,0-1.57-3.059,4.142,4.142,0,0,1,1-.248q20.365-.019,40.73-.012a4.153,4.153,0,0,0,4.439-4.362q.029-14.222-.019-28.438a9.344,9.344,0,0,0-.528-2.174l.007.007a2.051,2.051,0,0,0-.14-.343,4.159,4.159,0,0,0-3.676-1.927H525.594a3.9,3.9,0,0,0-2.569.75l.007-.007a3.837,3.837,0,0,0-1.816,2.607,7.013,7.013,0,0,0-.153,1.018q-.01,8.575-.007,17.144v.9c-1.147.3-2.238.585-3.351.877V271.548a5.265,5.265,0,0,1,4.96-3.926c.153-.007.3-.007.458-.007q26.431,0,52.855-.007a6.042,6.042,0,0,1,4.451,1.418,5.378,5.378,0,0,1,1.749,3.924c.012.458.007.916.007,1.374q0,57.795.019,115.6a6.158,6.158,0,0,1-2.721,5.606ZM524.87,278.409c.064.242.051.573.21.712a4.981,4.981,0,0,0,5.475.9c.6-.223,1.354-.484,1.507-1.316.254-.216.6-.382.757-.655a4.853,4.853,0,0,0-.191-5.565,5.045,5.045,0,0,0-7-1.3,4.922,4.922,0,0,0-1.354,7.046C524.374,278.371,524.667,278.352,524.87,278.409Zm24.9,6.416c-8.566,0-17.132.026-25.7-.026a2.2,2.2,0,0,0-2.416,2.4q.057,22.072.026,44.138c0,1.825.623,2.442,2.474,2.442h51.47c1.72,0,2.346-.616,2.346-2.334V287.3c0-1.9-.592-2.485-2.505-2.485Q562.615,284.826,549.771,284.826Zm6.906-12.813H537.621c-1.625,0-1.589,0-1.625,1.589-.012.655.159.86.846.86q19.821-.029,39.636-.012c.956,0,1.03-.1,1.03-1.227,0-1.182-.026-1.208-1.011-1.208q-9.916,0-19.824,0Zm-5.4,6.862h14.486c.928,0,1.062-.12,1.069-.956.007-1.31-.115-1.476-1.081-1.476H537.606c-1.6,0-1.57,0-1.609,1.609-.019.687.2.853.86.846,4.8-.036,9.6-.023,14.409-.023Z" transform="translate(-458.563 -249.749)" fill="#dddbe1"/>
        <path id="Path_3631" data-name="Path 3631" d="M619.65,419.789c-.172.7-.343,1.4-.522,2.1h-.1v-2.709a.259.259,0,0,1,.007-.14c.445-1.762.871-3.523,1.338-5.278,1.03-3.892,1.99-7.809,3.147-11.669,1.367-4.566,2.881-9.08,4.375-13.6.706-2.143,1.539-4.242,2.283-6.372.445-1.259.8-2.543,1.259-3.8a25.767,25.767,0,0,1,1.093-2.467c.057-.12.318-.139.484-.21.032.2.146.426.082.592-.5,1.348-1.051,2.671-1.546,4.014-.744,2.042-1.434,4.1-2.174,6.143-.712,1.984-1.488,3.943-2.169,5.933-.547,1.6-.98,3.224-1.482,4.832-.547,1.749-1.164,3.478-1.673,5.24-.839,2.919-1.666,5.85-2.416,8.793C620.922,414.053,620.308,416.928,619.65,419.789Z" transform="translate(-492.474 -285.906)" fill="#faf7f7"/>
        <path id="Path_3632" data-name="Path 3632" d="M684.677,353.961c-3.8.153-6.709-3.167-6.734-6.882a6.918,6.918,0,0,1,7.02-6.867,7.088,7.088,0,0,1,6.486,7.142C691.487,350.711,687.767,354.069,684.677,353.961Zm-2.505-4.445c-.12.451-.4.909-.273,1.164a1.4,1.4,0,0,0,1,.649c.705.051,1.1.2,1.051,1.011-.012.172.4.478.649.508.2.032.661-.287.642-.382-.172-.956.566-1.157,1.147-1.52a2.167,2.167,0,0,0,1.189-1.806c.076-1.348-.669-2.054-1.844-2.676a16.42,16.42,0,0,1-1.72-.9.985.985,0,0,1-.35-.86,1.185,1.185,0,0,1,.834-.623,7.687,7.687,0,0,1,1.857.2c.376.07.63.076.769-.35.178-.522.146-.827-.484-1.011-.484-.14-1.285-.038-1.208-.956.051-.559-.261-.681-.75-.681-.528,0-.674.28-.617.731.07.566-.229.789-.719.98a1.938,1.938,0,0,0-1.424,2.226c.045,1.221.935,1.7,1.857,2.169a8.031,8.031,0,0,1,1.755.992c.669.6.439,1.272-.42,1.6a3.525,3.525,0,0,1-2.948-.455Z" transform="translate(-512.192 -274.046)" fill="#d99a37"/>
        <path id="Path_3633" data-name="Path 3633" d="M522.989,374.781a3.858,3.858,0,0,1,1.816-2.607l.956.916c.12-.127.249-.261.439-.458-.566-.184-.98-.318-1.4-.451a3.9,3.9,0,0,1,2.569-.75h48.554a4.151,4.151,0,0,1,3.676,1.927,1.622,1.622,0,0,1,.14.343c-.3.331-.928.324-.922.966.007,1.768,0,3.536-.007,5.309,0,1.051,0,1.051-1.074,1.051q-26.6,0-53.213.007a4.091,4.091,0,0,0-1.113.159c-.12.038-.235.3-.235.465,0,.1.216.235.357.273a2.39,2.39,0,0,0,.6.013h55.108c.172-2.817-.318-5.57.5-8.254a9.684,9.684,0,0,1,.528,2.174q.057,14.222.019,28.438a4.156,4.156,0,0,1-4.439,4.362q-20.365.01-40.73.012a4.142,4.142,0,0,0-1,.248,5.32,5.32,0,0,0-3.015-1.768,23.63,23.63,0,0,0-3.078-.07c.032-.853.064-1.7.089-2.55.007-.3,0-.592,0-.956h17.328c-.07-.356-.127-.623-.184-.89l-.007-.007a5.687,5.687,0,0,0-.86-.134q-7.5-.01-15-.007h-1.272v-2.308h.992q7.646,0,15.306-.007a4.875,4.875,0,0,0,.853-.146c0-.254-.007-.508-.007-.765a5.8,5.8,0,0,0-.86-.134q-7.583-.01-15.166-.007h-1.2v-1.85c-.007-1.2-.007-2.385-.019-3.58-.007-1.024-.2-1.177-1.17-.928-1.242.318-2.5.642-3.823.98v-6.538h55.054c2.111,0,2.111,0,2.111-2.1v-2.906H557.557q-17.274,0-34.542.007C523,379.773,523,377.273,522.989,374.781Zm53.556,29.773v-.8c0-1.577-.026-3.147.012-4.719.019-.623-.153-.82-.8-.82-3.936.032-7.873.012-11.809.019-.223,0-.439.032-.687.045v6.27Zm.1-32.6c-.012-.115-.026-.229-.038-.337-.267-.012-.528-.032-.8-.032H527.332a1.588,1.588,0,0,0-.6.032c-.146.064-.242.261-.357.4.153.083.3.229.451.235.451.012.909-.051,1.361-.051q23.246-.01,46.492-.012c.655-.012,1.31-.159,1.965-.234Zm3.332,3.542h-.127v5.857c.045,0,.089-.007.127-.007Zm-1.024-2.366a1.523,1.523,0,0,0-1.551-.992,2.024,2.024,0,0,0-.834.547c-.057.057.127.362.229.636C577.448,372.471,578,372.428,578.949,373.127Z" transform="translate(-460.332 -284.495)" fill="#4b4d7f"/>
        <path id="Path_3634" data-name="Path 3634" d="M523.008,387.714q17.274-.01,34.542-.007h22.619v2.907c0,2.1,0,2.1-2.111,2.1h-55.05C523.015,391.045,523.008,389.379,523.008,387.714Z" transform="translate(-460.338 -289.943)" fill="#150e1d"/>
        <path id="Path_3635" data-name="Path 3635" d="M526.163,425.023a23.586,23.586,0,0,1,3.078.07,5.32,5.32,0,0,1,3.015,1.768,5.926,5.926,0,0,1,1.57,3.059,10.856,10.856,0,0,1-.1,2.62,43,43,0,0,1-1.57,4.11c-.185,0-.42.076-.547-.007-1.971-1.338-3.936-2.7-5.9-4.051-1.253-.86-2.493-1.742-3.758-2.594-.916-.616-1.838-1.221-2.785-1.781a15.087,15.087,0,0,0-1.711-.75c.566-.242.973-.413,1.386-.592Z" transform="translate(-458.48 -302.426)" fill="#00abed"/>
        <path id="Path_3636" data-name="Path 3636" d="M547.791,413.37c0,.254.007.508.007.765q-8.22,0-16.44-.007c-.426,0-.956.1-.7-.757Z" transform="translate(-462.877 -298.532)" fill="#f7f7fa"/>
        <path id="Path_3637" data-name="Path 3637" d="M547.8,418.433c-.012.223-.019.445-.032.712-.229.019-.426.051-.623.051q-7.9,0-15.79.007c-.451,0-.928.045-.669-.769q8.527-.01,17.109,0Z" transform="translate(-462.883 -300.224)" fill="#f9f9fa"/>
        <path id="Path_3638" data-name="Path 3638" d="M494.908,432.415c-.6.165-1.215.312-1.816.5-.985.312-1.958.649-2.931.98a5.445,5.445,0,0,0-.56-.012c-.362.026-.719.191-.86-.395-.159-.636.248-.669.63-.776.776-.21,1.546-.432,2.334-.592.909-.184,1.755-.382,1.816-1.539.076.324.153.649.229.966.026.012.051.032.07.026.146-.026.287-.057.432-.089v.871Z" transform="translate(-448.855 -304.293)" fill="#8d7d87"/>
        <path id="Path_3639" data-name="Path 3639" d="M514.741,417.649c-.312.172-.63.5-.922.47-.249-.019-.465-.445-.693-.693.261-.216.508-.573.789-.6.261-.026.553.3.833.47C514.748,417.42,514.748,417.535,514.741,417.649Z" transform="translate(-457.03 -299.689)" fill="#f4f2f4"/>
        <path id="Path_3640" data-name="Path 3640" d="M496.665,431.179c-.146.032-.287.064-.432.089-.019.007-.045-.019-.07-.026-.076-.324-.153-.642-.229-.966-.007-.2-.007-.407-.012-.611.2.038.413.082.617.12C496.583,430.251,496.629,430.715,496.665,431.179Z" transform="translate(-451.273 -303.985)" fill="#d27f74"/>
        <path id="Path_3641" data-name="Path 3641" d="M693.24,294.587c.12,3.192-3.046,6.066-6.48,5.85a6.077,6.077,0,0,1-5.551-4,6.331,6.331,0,0,1,3.6-8.507,5.735,5.735,0,0,1,5.469.636C692.355,289.913,693.259,291.8,693.24,294.587Zm-7.561-5.819c-.254.642-.312,1.338-.687,1.634a2.378,2.378,0,0,0-.9,2.493c.178.909,1.024,1.2,1.787,1.45.6.2,1.253.216,1.831.445a1.235,1.235,0,0,1,.719.82,1.134,1.134,0,0,1-.566.935,4.525,4.525,0,0,1-1.991.2c-.6-.1-.7.14-.839.559-.165.508.1.712.534.789a4.77,4.77,0,0,0,.9.082c.451-.007.776.045.839.623.019.165.451.4.7.4.331,0,.8-.153.6-.642-.267-.661.178-.922.553-1.242a2.2,2.2,0,0,0-.478-3.815c-.769-.343-1.659-.4-2.448-.7a1.077,1.077,0,0,1-.592-.808,1.1,1.1,0,0,1,.642-.782,3.4,3.4,0,0,1,1.558-.108c.617.115.642-.343.719-.649.038-.153-.229-.484-.432-.585-.229-.115-.56-.019-.814-.1-.235-.076-.6-.254-.617-.413-.082-.969-.6-.779-1.029-.588Z" transform="translate(-513.111 -256.408)" fill="#d99937"/>
        <path id="Path_3642" data-name="Path 3642" d="M660.6,253.82c.4,3.161-2.931,5.965-5.634,5.908a5.767,5.767,0,0,1-5.654-5.781,5.876,5.876,0,0,1,5.692-5.882,5.551,5.551,0,0,1,5.6,5.755ZM657.417,252c.573-.681.528-1.018-.287-1.424-.35-.172-.528-.28-.42-.724a.775.775,0,0,0-.331-.661.519.519,0,0,0-.776.451c-.051.465-.287.585-.712.585a1.7,1.7,0,0,0-1.625,1.259,1.8,1.8,0,0,0,.5,2.08c.439.413,1.018.7,1.4,1.147a1.556,1.556,0,0,1,.331,1.147c-.032.2-.611.5-.884.439a18.927,18.927,0,0,1-2.308-.75c-.07.14-.394.566-.312.669a13.648,13.648,0,0,0,1.405,1.338.75.75,0,0,1-.038.159c-.12.376-.14.738.331.853s.765-.026.86-.578c.032-.178.4-.362.642-.426a2.228,2.228,0,0,0,1.7-1.215,1.894,1.894,0,0,0-.445-2.282,17.586,17.586,0,0,1-1.551-1.443c-.185-.2-.357-.724-.267-.808a1.345,1.345,0,0,1,.966-.395,10.712,10.712,0,0,1,1.815.579Z" transform="translate(-502.611 -243.207)" fill="#d99937"/>
        <path id="Path_3643" data-name="Path 3643" d="M600.381,248.05c.3,2.378-2.334,4.648-4.553,4.572-2.327-.083-4.909-2.327-4.769-4.97a4.437,4.437,0,0,1,4.642-4.477,4.564,4.564,0,0,1,4.68,4.875Zm-2.086,3.123c.14-.407.376-.776.287-.877a1.4,1.4,0,0,1-.115-1.424,1.631,1.631,0,0,0-1.126-1.863,3.8,3.8,0,0,0-2.2.35,2.492,2.492,0,0,1-.956-.051,4.519,4.519,0,0,1,.28-1.074c.115-.21.489-.267.655-.47a1.9,1.9,0,0,0,.21-.681c-.229-.064-.56-.254-.674-.165a.838.838,0,0,1-1.323-.178c-.248.21-.451.376-.655.547l.324.115a6.37,6.37,0,0,1-.019,1.434,1.507,1.507,0,0,0,1.73,1.825c.6-.146,1.2-.4,1.806-.5a.98.98,0,0,1,.8.35c.108.159,0,.574-.146.776a1.983,1.983,0,0,1-.839.738c-.75.261-.5.649-.261,1.107C596.8,251.044,597.449,250.059,598.3,251.172Z" transform="translate(-483.111 -241.569)" fill="#d99937"/>
        <path id="Path_3644" data-name="Path 3644" d="M544.536,436.656c-.1-.738.42-.592.833-.592h26.295c1.806,0,3.605-.026,5.412.007a7.194,7.194,0,0,1,5.551,2.162,6.672,6.672,0,0,1-5.036,11.243h-22.1c-.451,0-.9.007-1.354.007q-3.644-2.461-7.281-4.928a30.314,30.314,0,0,0-2.322-7.9Z" transform="translate(-467.539 -306.122)" fill="#fefefe"/>
        <path id="Path_3645" data-name="Path 3645" d="M485.33,428.591c.007.2.007.407.012.611-.057,1.157-.909,1.361-1.816,1.539-.789.159-1.558.382-2.334.592-.382.1-.789.14-.63.776.146.592.5.426.86.394a5.522,5.522,0,0,1,.559.012,65.37,65.37,0,0,1-11.51,3.732c-.54.12-1.093.184-1.647.28a1.869,1.869,0,0,1-1.971-1.243,25.362,25.362,0,0,1-2.581-8.827c.935,1.418,2.474,1.434,3.9,1.659,3.949.616,7.911,1.132,11.84,1.844a5.347,5.347,0,0,0,4.025-1.069C484.415,428.648,484.789,428.194,485.33,428.591Z" transform="translate(-440.681 -302.911)" fill="#ef8672"/>
        <path id="Path_3646" data-name="Path 3646" d="M542.876,435.429a30.062,30.062,0,0,1,2.315,7.9c-1.742-1.189-3.491-2.372-5.22-3.58-.191-.134-.273-.42-.407-.63.534-1.367,1.17-2.7,1.57-4.11a10.853,10.853,0,0,0,.1-2.62C541.775,433.4,542.329,434.418,542.876,435.429Z" transform="translate(-465.879 -304.897)" fill="#5c9090"/>
        <path id="Path_3647" data-name="Path 3647" d="M475.792,444.507c2.346-.534,3.548-2.1,4.006-4.508a3.391,3.391,0,0,1-.928,3.167A3.493,3.493,0,0,1,475.792,444.507Z" transform="translate(-444.536 -307.443)" fill="#403157"/>
        <path id="Path_3648" data-name="Path 3648" d="M510.992,489.445q-4.426-1.984-8.858-3.962c.051-.108.1-.216.146-.324q4.426,1.965,8.858,3.924C511.088,489.2,511.036,489.325,510.992,489.445Z" transform="translate(-453.352 -322.558)" fill="#32254b"/>
        <path id="Path_3649" data-name="Path 3649" d="M565.857,483.992l6.651-6.977c.089.089.184.172.273.261q-3.319,3.492-6.639,6.989C566.048,484.17,565.952,484.081,565.857,483.992Z" transform="translate(-474.679 -319.832)" fill="#33284f"/>
        <path id="Path_3650" data-name="Path 3650" d="M492.046,379.669c.146.853.324,1.7.413,2.562.032.35-.318.394-1.069.108.853-.28.534-.86.451-1.386-.063-.407-.115-.814-.165-1.221C491.791,379.707,491.919,379.688,492.046,379.669Z" transform="translate(-449.757 -287.252)" fill="#6a4e60"/>
        <path id="Path_3651" data-name="Path 3651" d="M488.027,383.253l1.31,1.5c-.465-.153-.833-.172-1.043-.369a.848.848,0,0,1-.268-1.132Z" transform="translate(-448.59 -288.452)" fill="#6e5262"/>
        <path id="Path_3652" data-name="Path 3652" d="M486.679,377.472c.216-.172.413-.445.655-.489a3.941,3.941,0,0,1,1.051.07c-.007.064-.019.134-.026.2-.515.115-1.03.235-1.546.35C486.768,377.561,486.724,377.516,486.679,377.472Z" transform="translate(-448.18 -286.346)" fill="#694b60"/>
        <path id="Path_3653" data-name="Path 3653" d="M488.088,377.967c.21.267.426.432.458.623.012.108-.312.388-.439.362a.83.83,0,0,1-.484-.445C487.585,378.432,487.858,378.215,488.088,377.967Z" transform="translate(-448.494 -286.683)" fill="#422c46"/>
        <path id="Path_3654" data-name="Path 3654" d="M495.855,379.64c-.318.178-.522.388-.655.35-.184-.051-.312-.292-.465-.451.165-.115.331-.318.489-.312S495.556,379.439,495.855,379.64Z" transform="translate(-450.876 -287.105)" fill="#61485d"/>
        <path id="Path_3655" data-name="Path 3655" d="M751.339,448.4a3.835,3.835,0,0,1-3.911-3.9,3.887,3.887,0,0,1,4.025-3.943,3.972,3.972,0,0,1,3.86,3.835,3.86,3.86,0,0,1-3.974,4.006Z" transform="translate(-535.447 -307.632)" fill="#f8cdc8"/>
        <path id="Path_3656" data-name="Path 3656" d="M786.49,454c-.1.312-.146.724-.261.75a12.2,12.2,0,0,1-1.609.108c-.007-.115-.007-.235-.012-.35a5.945,5.945,0,0,0,.9-.1,7.31,7.31,0,0,0,.985-.407Z" transform="translate(-547.891 -312.13)" fill="#eeb4a8"/>
        <path id="Path_3657" data-name="Path 3657" d="M782.267,455.036h-1.615v-.2h1.615a1.085,1.085,0,0,0,0,.2Z" transform="translate(-546.566 -312.408)" fill="#eaada0"/>
        <path id="Path_3658" data-name="Path 3658" d="M757.368,454.765h1.539C758.634,455.21,758.055,455.274,757.368,454.765Z" transform="translate(-538.774 -312.386)" fill="#eaaea1"/>
        <path id="Path_3659" data-name="Path 3659" d="M774.464,455.036h-1.612c0-.07,0-.134-.007-.2h1.615C774.464,454.9,774.464,454.966,774.464,455.036Z" transform="translate(-543.953 -312.408)" fill="#ebab9d"/>
        <path id="Path_3660" data-name="Path 3660" d="M778.345,455.033H776.73c0-.076,0-.153-.007-.229h1.6Z" transform="translate(-545.252 -312.398)" fill="#edb0a4"/>
        <path id="Path_3661" data-name="Path 3661" d="M761.271,454.8H762.8c0,.076-.007.153-.007.229h-1.539C761.265,454.956,761.265,454.88,761.271,454.8Z" transform="translate(-540.076 -312.398)" fill="#ecada0"/>
        <path id="Path_3662" data-name="Path 3662" d="M753.469,454.784h1.546v.229h-1.539C753.475,454.943,753.475,454.866,753.469,454.784Z" transform="translate(-537.469 -312.392)" fill="#ecaca1"/>
        <path id="Path_3663" data-name="Path 3663" d="M756.154,437.771h1.666a1.1,1.1,0,0,1-1.666,0Z" transform="translate(-538.368 -306.698)" fill="#f0b2a8"/>
        <path id="Path_3664" data-name="Path 3664" d="M771.552,437.752h1.742C772.976,438.248,772.341,438.293,771.552,437.752Z" transform="translate(-543.521 -306.692)" fill="#efb1a5"/>
        <path id="Path_3665" data-name="Path 3665" d="M785.115,438.039h-1.539c0-.076,0-.153.007-.229h1.546C785.122,437.886,785.122,437.962,785.115,438.039Z" transform="translate(-547.545 -306.711)" fill="#f0b1a6"/>
        <path id="Path_3666" data-name="Path 3666" d="M745.6,454.736h1.673a1.1,1.1,0,0,1-1.673,0Z" transform="translate(-534.836 -312.376)" fill="#ecada2"/>
        <path id="Path_3667" data-name="Path 3667" d="M769.06,454.8H770.6c0,.076,0,.153-.007.229h-1.544C769.055,454.956,769.055,454.88,769.06,454.8Z" transform="translate(-542.682 -312.398)" fill="#e9ad9e"/>
        <path id="Path_3668" data-name="Path 3668" d="M766.671,455.052h-1.513v-.229H766.7C766.69,454.9,766.684,454.975,766.671,455.052Z" transform="translate(-541.381 -312.405)" fill="#ecac9f"/>
        <path id="Path_3669" data-name="Path 3669" d="M779.543,437.771H781.2a1.093,1.093,0,0,1-1.659,0Z" transform="translate(-546.195 -306.698)" fill="#efafa3"/>
        <path id="Path_3670" data-name="Path 3670" d="M775.49,437.742h1.742C776.866,438.251,776.215,438.289,775.49,437.742Z" transform="translate(-544.839 -306.688)" fill="#efb0a5"/>
        <path id="Path_3671" data-name="Path 3671" d="M750.041,438.039c-.5.019-1,.045-1.495.064l-.019-.362c.5-.026,1-.045,1.494-.07C750.028,437.786,750.034,437.914,750.041,438.039Z" transform="translate(-535.815 -306.663)" fill="#f2b4a9"/>
        <path id="Path_3672" data-name="Path 3672" d="M769.513,437.978H768c-.007-.082-.007-.172-.012-.254l1.5-.076C769.494,437.752,769.507,437.863,769.513,437.978Z" transform="translate(-542.328 -306.657)" fill="#eeaea2"/>
        <path id="Path_3673" data-name="Path 3673" d="M764.116,437.8h1.472C765.331,438.238,764.835,438.3,764.116,437.8Z" transform="translate(-541.032 -306.707)" fill="#f0b2a5"/>
        <path id="Path_3674" data-name="Path 3674" d="M761.727,437.971h-1.507c-.007-.082-.012-.172-.012-.254.5-.026,1-.045,1.494-.07C761.708,437.752,761.714,437.863,761.727,437.971Z" transform="translate(-539.724 -306.657)" fill="#f0b2a9"/>
        <path id="Path_3675" data-name="Path 3675" d="M751.1,455.016h-1.5c0-.076.007-.146.007-.223h1.529C751.117,454.87,751.111,454.94,751.1,455.016Z" transform="translate(-536.174 -312.395)" fill="#ebaca0"/>
        <path id="Path_3676" data-name="Path 3676" d="M745.08,439.893v1.6c-.076,0-.146.007-.223.007v-1.57C744.933,439.919,745,439.905,745.08,439.893Z" transform="translate(-534.587 -307.408)" fill="#e9a89b"/>
        <path id="Path_3677" data-name="Path 3677" d="M752.245,437.819h1.6C753.575,438.264,753.015,438.315,752.245,437.819Z" transform="translate(-537.06 -306.714)" fill="#efb0a5"/>
        <path id="Path_3678" data-name="Path 3678" d="M746.24,438.039c-.465.045-.928.1-1.434.14C745.076,437.581,745.54,437.5,746.24,438.039Z" transform="translate(-534.571 -306.667)" fill="#f1b7ac"/>
        <path id="Path_3679" data-name="Path 3679" d="M745.073,443.965v1.488c-.07,0-.146,0-.216.007v-1.481C744.927,443.971,745,443.965,745.073,443.965Z" transform="translate(-534.587 -308.771)" fill="#f1b8ad"/>
        <path id="Path_3680" data-name="Path 3680" d="M744.781,453.348v-1.6C745.289,452.069,745.325,452.567,744.781,453.348Z" transform="translate(-534.561 -311.375)" fill="#ecab9e"/>
        <path id="Path_3681" data-name="Path 3681" d="M744.79,449.221v-1.348h.223v1.367Z" transform="translate(-534.564 -310.079)" fill="#f2b7ad"/>
        <path id="Path_3682" data-name="Path 3682" d="M759.223,329.713c4.909-7.993,9.875-15.929,15.948-23.249,6.385,4.705,12.744,9.4,19.2,14.162-5.926,7.4-10.658,15.433-15.395,23.541.064-.515.12-1.036.185-1.551.636-5.2-.769-9.7-4.719-13.246a10.31,10.31,0,0,0-6.575-2.581,12.24,12.24,0,0,0-8.649,2.924Zm19.51-10.848a2.534,2.534,0,1,0,2.4,2.372,2.308,2.308,0,0,0-2.4-2.372Z" transform="translate(-539.395 -262.753)" fill="#7ea89d"/>
        <path id="Path_3683" data-name="Path 3683" d="M762.994,347.525c.566-.534,1.069-1.024,1.589-1.5.47-.432.89-.465,1.189.2a2.146,2.146,0,0,0,.165.254c.559.877.553.871-.242,1.495a4.62,4.62,0,0,0-1.73,2.435,1.536,1.536,0,0,0,.5,1.72,1.285,1.285,0,0,0,1.625-.026c.935-.6,1.806-1.323,2.778-1.863a3.359,3.359,0,0,1,4.884,1.5,4.285,4.285,0,0,1,.42,3.1,1.225,1.225,0,0,0,.611,1.551,1.254,1.254,0,0,1,.082,2.226.627.627,0,0,1-.578-.032,11.97,11.97,0,0,1-1.043-.738c-.669.585-1.272,1.157-1.912,1.678-.789.642-.916.611-1.475-.223-.115-.165-.21-.35-.337-.509-.324-.426-.223-.693.229-.966a4.653,4.653,0,0,0,2.232-2.867,2.793,2.793,0,0,0-.051-1.481,1.4,1.4,0,0,0-1.977-.853,12.034,12.034,0,0,0-1.6,1.011,16.309,16.309,0,0,1-1.787,1.147,3.171,3.171,0,0,1-4.445-1.762,4.206,4.206,0,0,1-.191-2.906.8.8,0,0,0-.432-1.112.543.543,0,0,1-.064-.045c-1.164-.839-1.164-.9-.331-2.08.248-.35.465-.413.808-.146C762.27,347.034,762.644,347.282,762.994,347.525Z" transform="translate(-539.828 -275.889)" fill="#fefefe"/>
        <path id="Path_3684" data-name="Path 3684" d="M739.127,345.743a33.983,33.983,0,0,0-2.378-3.415c-2.722-3.027-6.1-4.8-10.251-4.54a10.347,10.347,0,0,0-8.769,6.575c-.267.674-.432,1.386-.705,2.277-.191-1.494-.369-2.792-.522-4.089-.254-2.1-.5-4.205-.731-6.315-.14-1.3-.273-2.613-.324-3.93-.134-3.339-.21-6.684-.343-10.028-.026-.674.178-.839.846-.86,3.619-.115,7.236-.287,10.855-.445q3.147-.143,6.3-.3c.935-.045,1.87-.089,2.8-.153.432-.026.573.146.578.573.032,1.749.032,3.5.165,5.24q.287,3.892.738,7.765c.312,2.684.706,5.352,1.1,8.029C738.635,343.263,738.878,344.4,739.127,345.743Zm-11.046-15.891a2.208,2.208,0,0,0-4.413-.165,2.492,2.492,0,0,0,2.43,2.423,2.152,2.152,0,0,0,1.983-2.258Z" transform="translate(-524.628 -267.457)" fill="#7fa89d"/>
        <path id="Path_3685" data-name="Path 3685" d="M737.437,361.447c-.12.916-.216,1.692-.331,2.461-.076.515-.369.687-.871.5a5.638,5.638,0,0,0-.724-.229c-.489-.115-.585-.369-.407-.839a4.233,4.233,0,0,0-.026-3.192,1.7,1.7,0,0,0-1.6-1.208c-.839,0-1.189.6-1.4,1.278-.248.769-.413,1.57-.669,2.334-.947,2.849-3.847,2.493-5.189,1.113a2.713,2.713,0,0,1-.719-.973c-.254-.82-.8-.9-1.507-.827a1.132,1.132,0,0,1-1-1.577c.108-.178.528-.261.8-.242.712.051,1.051-.191.941-.935a1.865,1.865,0,0,1,.026-.458c.172-1.31.871-1.615,1.92-.808.134.1.146.432.14.655-.012.827-.12,1.659-.051,2.474a1.916,1.916,0,0,0,.63,1.081,1.087,1.087,0,0,0,1.816-.376c.254-.547.362-1.157.566-1.73a11.356,11.356,0,0,1,.757-1.978,2.977,2.977,0,0,1,4.318-.871,5.724,5.724,0,0,1,1.647,1.736,1.2,1.2,0,0,0,1.31.705c1.069-.1,1.45.35,1.272,1.424-.026.159-.3.35-.5.388A6.585,6.585,0,0,1,737.437,361.447Z" transform="translate(-527.23 -279.511)" fill="#fefefe"/>
        <path id="Path_3686" data-name="Path 3686" d="M677.263,367.84c.115.724.184,1.2.261,1.659-.064-.051-.12-.1-.184-.159-.833.508-1.7.973-2.485,1.539a.914.914,0,0,0-.261,1.285,1.03,1.03,0,0,0,1.3.573c1.024-.248,2.086-.324,3.123-.528,1.659-.324,3.638,1.481,3.236,3.192a7.691,7.691,0,0,1-.6,1.85.753.753,0,0,0,.159,1.062c.35.324.693.649.108,1.1-.776.6-.916.63-1.386-.051-.3-.439-.623-.642-1.138-.369a2.7,2.7,0,0,1-.82.369c-.445.07-1.051.21-1.329-.012-.3-.248-.312-.86-.439-1.265.86-.312,1.565-.522,2.232-.814a2.234,2.234,0,0,0,1.278-1.678,1.2,1.2,0,0,0-1.208-1.348,17.2,17.2,0,0,0-2.448.439c-1.92.407-3.039.184-4.014-1.72a2.474,2.474,0,0,1,.362-2.493,1.051,1.051,0,0,0-.089-1.469c-.254-.273-.559-.674-.07-.956.413-.235.877-.992,1.424-.108a3.041,3.041,0,0,0,.458.515C675.609,368.246,676.391,368.056,677.263,367.84Z" transform="translate(-510.348 -283.187)" fill="#f3a83c"/>
        <path id="Path_3687" data-name="Path 3687" d="M551.753,293.475h25.7c1.912,0,2.505.585,2.505,2.485V340.1c0,1.72-.623,2.334-2.346,2.334H526.139c-1.85,0-2.474-.616-2.474-2.442q0-22.072-.026-44.138a2.2,2.2,0,0,1,2.416-2.4C534.621,293.5,543.187,293.475,551.753,293.475Zm-1.609,46.377c5.551.032,9.24-.884,12.5-3.008,7.967-5.189,11.542-12.629,10.263-22.041-1.164-8.515-6-14.474-14.06-17.506a19.549,19.549,0,0,0-17.2,1.405c-7.485,4.312-11.166,11-11.2,19.611a20.584,20.584,0,0,0,3.25,11.262c4.205,6.632,10.243,10.047,16.446,10.277Z" transform="translate(-460.549 -258.399)" fill="#fafafa"/>
        <path id="Path_3688" data-name="Path 3688" d="M565.868,274.223h19.814c.985,0,1.011.032,1.011,1.208,0,1.126-.076,1.227-1.03,1.227q-19.821,0-39.636.012c-.687,0-.86-.2-.846-.86.038-1.589.007-1.589,1.625-1.589Q556.343,274.226,565.868,274.223Z" transform="translate(-467.759 -251.96)" fill="#fefefe"/>
        <path id="Path_3689" data-name="Path 3689" d="M560.47,283.311c-4.8,0-9.609-.012-14.409.012-.661.007-.877-.165-.86-.846.038-1.609.007-1.609,1.609-1.609h28.138c.966,0,1.088.165,1.081,1.476-.007.839-.14.956-1.069.956Q567.713,283.313,560.47,283.311Z" transform="translate(-467.766 -254.186)" fill="#fefefe"/>
        <path id="Path_3690" data-name="Path 3690" d="M527.7,279.768c-.2-.051-.5-.038-.592-.165a4.922,4.922,0,0,1,1.354-7.046,5.042,5.042,0,0,1,7,1.3,4.853,4.853,0,0,1,.191,5.565c-.159.273-.5.439-.757.655a3.617,3.617,0,0,0-3.192-2.43,3.735,3.735,0,0,0-4,2.125Zm3.586-2.759a1.917,1.917,0,0,0,1.889-1.806,1.892,1.892,0,0,0-1.793-1.816,1.867,1.867,0,0,0-1.831,1.762,1.9,1.9,0,0,0,1.736,1.861Z" transform="translate(-461.395 -251.108)" fill="#00abed"/>
        <path id="Path_3691" data-name="Path 3691" d="M528.476,282.755a3.748,3.748,0,0,1,4-2.135,3.617,3.617,0,0,1,3.192,2.43c-.153.833-.909,1.093-1.507,1.316a4.97,4.97,0,0,1-5.475-.9C528.526,283.327,528.54,283,528.476,282.755Z" transform="translate(-462.168 -254.095)" fill="#fefefe"/>
        <path id="Path_3692" data-name="Path 3692" d="M684.143,350.057a3.555,3.555,0,0,0,2.951.465c.86-.324,1.088-1,.42-1.6a7.884,7.884,0,0,0-1.755-.992c-.922-.47-1.816-.941-1.857-2.169a1.936,1.936,0,0,1,1.424-2.226c.489-.2.789-.413.719-.98-.051-.445.089-.724.617-.731.489,0,.8.12.75.681-.082.916.724.808,1.208.956.63.184.661.489.484,1.011-.146.426-.394.42-.769.35a7.1,7.1,0,0,0-1.857-.2,1.185,1.185,0,0,0-.833.623.992.992,0,0,0,.35.86,16.39,16.39,0,0,0,1.72.9c1.182.623,1.927,1.338,1.844,2.676a2.167,2.167,0,0,1-1.189,1.806c-.585.356-1.323.559-1.147,1.52.019.1-.445.413-.642.382-.247-.038-.661-.343-.649-.508.045-.814-.35-.956-1.051-1.011a1.4,1.4,0,0,1-1-.649C683.736,350.966,684.015,350.509,684.143,350.057Z" transform="translate(-514.164 -274.588)" fill="#f2a93c"/>
        <path id="Path_3693" data-name="Path 3693" d="M596.807,418.031H583.529v-6.27c.248-.019.47-.045.687-.045,3.936,0,7.873.012,11.809-.019.649-.007.814.2.8.82-.045,1.57-.012,3.147-.012,4.719Z" transform="translate(-480.593 -297.971)" fill="#fefefe"/>
        <path id="Path_3694" data-name="Path 3694" d="M579.84,374.832c-.808,2.684-.324,5.431-.5,8.254H524.237a2.728,2.728,0,0,1-.6-.012c-.14-.038-.357-.178-.357-.273,0-.159.115-.426.235-.465a4.125,4.125,0,0,1,1.113-.159q26.6-.01,53.213-.007c1.074,0,1.074,0,1.074-1.051,0-1.768.012-3.536.007-5.309,0-.642.623-.642.922-.973Z" transform="translate(-460.428 -285.634)" fill="#4b4d7f"/>
        <path id="Path_3695" data-name="Path 3695" d="M578.349,372.017a17.1,17.1,0,0,1-1.958.223q-23.246.019-46.492.012c-.451,0-.909.064-1.361.051-.153-.007-.3-.153-.451-.235.115-.14.21-.337.357-.4a1.728,1.728,0,0,1,.6-.031h48.475c.267,0,.528.019.8.032A3.32,3.32,0,0,0,578.349,372.017Z" transform="translate(-462.037 -284.56)" fill="#4b4d7f"/>
        <path id="Path_3696" data-name="Path 3696" d="M608.574,377.537v5.857c-.045,0-.089.007-.127.007v-5.857C608.492,377.544,608.535,377.537,608.574,377.537Z" transform="translate(-488.933 -286.539)" fill="#4b4d7f"/>
        <path id="Path_3697" data-name="Path 3697" d="M605.9,373.47c-.956-.7-1.5-.655-2.15.191-.1-.273-.293-.578-.229-.636a1.926,1.926,0,0,1,.833-.547A1.529,1.529,0,0,1,605.9,373.47Z" transform="translate(-487.279 -284.838)" fill="#4b4d7f"/>
        <path id="Path_3698" data-name="Path 3698" d="M525.713,372.548c.413.134.833.267,1.4.451-.191.2-.312.324-.439.458-.312-.3-.636-.6-.956-.909Z" transform="translate(-461.243 -284.869)" fill="#4b4d7f"/>
        <path id="Path_3699" data-name="Path 3699" d="M687.358,289.326c.426-.191.947-.382,1.024.6.012.159.382.337.617.413.254.083.585-.012.814.1.2.1.478.432.432.585-.082.3-.1.765-.719.649a3.321,3.321,0,0,0-1.558.108.821.821,0,0,0-.051,1.589c.8.3,1.685.357,2.448.7a2.19,2.19,0,0,1,.478,3.816c-.376.331-.814.592-.553,1.242.2.484-.273.642-.6.642-.248,0-.68-.235-.7-.4-.057-.578-.388-.63-.839-.623a4.819,4.819,0,0,1-.9-.083c-.432-.076-.7-.28-.534-.789.14-.42.242-.661.839-.56a4.432,4.432,0,0,0,1.99-.2,1.134,1.134,0,0,0,.566-.935,1.235,1.235,0,0,0-.719-.82c-.578-.235-1.234-.254-1.831-.445-.769-.249-1.615-.541-1.787-1.45a2.375,2.375,0,0,1,.9-2.493C687.046,290.662,687.1,289.969,687.358,289.326Z" transform="translate(-514.791 -256.965)" fill="#f2a93c"/>
        <path id="Path_3700" data-name="Path 3700" d="M658.752,252.532a11.774,11.774,0,0,0-1.831-.6,1.345,1.345,0,0,0-.966.395c-.089.082.082.611.267.808a15.85,15.85,0,0,0,1.551,1.443,1.893,1.893,0,0,1,.445,2.283,2.217,2.217,0,0,1-1.7,1.215c-.248.07-.611.248-.642.426-.1.553-.395.687-.86.578s-.451-.478-.331-.853a.755.755,0,0,0,.038-.159,13.641,13.641,0,0,1-1.4-1.338c-.082-.1.247-.528.311-.669a19.274,19.274,0,0,0,2.308.75c.273.051.853-.242.884-.439a1.584,1.584,0,0,0-.331-1.147c-.395-.451-.966-.731-1.4-1.147a1.791,1.791,0,0,1-.5-2.08,1.72,1.72,0,0,1,1.625-1.259c.426,0,.661-.12.712-.585a.522.522,0,0,1,.776-.451.745.745,0,0,1,.331.661c-.108.439.07.547.42.724C659.279,251.515,659.323,251.851,658.752,252.532Z" transform="translate(-503.944 -243.738)" fill="#f2a93c"/>
        <path id="Path_3701" data-name="Path 3701" d="M599.113,251.962c-.853-1.113-1.495-.127-2.226-.038-.242-.458-.489-.839.261-1.107a1.985,1.985,0,0,0,.839-.738c.146-.2.254-.623.146-.776a.962.962,0,0,0-.8-.35c-.611.1-1.2.35-1.806.5a1.507,1.507,0,0,1-1.73-1.825,6.37,6.37,0,0,0,.019-1.434l-.324-.115c.2-.172.407-.337.655-.547a.839.839,0,0,0,1.323.178c.115-.089.445.1.674.165a1.9,1.9,0,0,1-.21.681c-.165.2-.541.261-.655.47A4.24,4.24,0,0,0,595,248.1a2.5,2.5,0,0,0,.956.051,3.8,3.8,0,0,1,2.2-.35,1.625,1.625,0,0,1,1.123,1.862,1.39,1.39,0,0,0,.115,1.424C599.488,251.182,599.26,251.555,599.113,251.962Z" transform="translate(-483.93 -242.36)" fill="#f1a83c"/>
        <path id="Path_3702" data-name="Path 3702" d="M787.3,325.1a2.314,2.314,0,0,1,2.4,2.372,2.442,2.442,0,1,1-2.4-2.372Z" transform="translate(-547.964 -268.99)" fill="#527d7e"/>
        <path id="Path_3703" data-name="Path 3703" d="M732.391,333.384a2.156,2.156,0,0,1-1.984,2.258,2.5,2.5,0,0,1-2.43-2.423,2.225,2.225,0,0,1,2.226-2.143,2.2,2.2,0,0,1,2.188,2.308Z" transform="translate(-528.937 -270.989)" fill="#527d7e"/>
        <path id="Path_3704" data-name="Path 3704" d="M553.567,341.1c-6.207-.223-12.248-3.643-16.451-10.277a20.568,20.568,0,0,1-3.25-11.262c.032-8.61,3.713-15.3,11.2-19.611a19.528,19.528,0,0,1,17.2-1.405c8.063,3.034,12.9,8.992,14.06,17.506,1.285,9.412-2.294,16.852-10.263,22.041C562.807,340.208,559.118,341.122,553.567,341.1Zm-14.422-21.64a34.647,34.647,0,0,0,.724,4.235,16.742,16.742,0,0,0,2.118,4.588,16.037,16.037,0,0,0,7.809,6.327,14.9,14.9,0,0,0,7.142.871,16,16,0,0,0,8.411-3.593,15.317,15.317,0,0,0,4.006-5.066,15.866,15.866,0,0,0,1.831-6.582,17.455,17.455,0,0,0-1.711-8.458,12.266,12.266,0,0,0-2.938-4.076,31,31,0,0,0-3.02-2.4,12.326,12.326,0,0,0-3.1-1.551,20.818,20.818,0,0,0-4.153-.782,11.374,11.374,0,0,0-3.688.064,16.459,16.459,0,0,0-7.217,3.332,17.245,17.245,0,0,0-4.611,5.939,17.912,17.912,0,0,0-1.6,7.148Z" transform="translate(-463.972 -259.645)" fill="#f3a83c"/>
        <path id="Path_3705" data-name="Path 3705" d="M532.993,277.873a1.891,1.891,0,0,1-1.736-1.857,1.871,1.871,0,0,1,1.831-1.761,1.891,1.891,0,0,1,1.793,1.816A1.917,1.917,0,0,1,532.993,277.873Z" transform="translate(-463.099 -251.972)" fill="#fefdfe"/>
        <path id="Path_3706" data-name="Path 3706" d="M541.8,322.308a17.968,17.968,0,0,1,1.6-7.16,17.245,17.245,0,0,1,4.611-5.939,16.459,16.459,0,0,1,7.217-3.332,11.374,11.374,0,0,1,3.688-.064,20.9,20.9,0,0,1,4.153.782,12.546,12.546,0,0,1,3.1,1.551,32.024,32.024,0,0,1,3.02,2.4,12.178,12.178,0,0,1,2.938,4.076,17.53,17.53,0,0,1,1.711,8.458,15.866,15.866,0,0,1-1.831,6.582A15.252,15.252,0,0,1,568,334.724a15.977,15.977,0,0,1-8.411,3.593,14.9,14.9,0,0,1-7.141-.871,16.037,16.037,0,0,1-7.809-6.327,16.657,16.657,0,0,1-2.118-4.588A34.557,34.557,0,0,1,541.8,322.308Zm14.479,11.741c0,1.641,0,1.641,1.634,1.641a2.993,2.993,0,0,1,.534.007c.769.12,1-.343,1.03-.966.026-.655-.045-1.316-.007-1.978a.736.736,0,0,1,.343-.547c2.651-.8,4.534-2.346,4.97-5.2a5.053,5.053,0,0,0-1.529-4.559,12.29,12.29,0,0,0-4.007-2.372,30.475,30.475,0,0,1-2.8-1.323,2.029,2.029,0,0,1-1.069-2.423,2.152,2.152,0,0,1,1.793-1.529,6.983,6.983,0,0,1,4.832.7c.522.287,1,.324,1.259-.4.2-.566.528-1.093.693-1.673a.86.86,0,0,0-.28-.776,16.834,16.834,0,0,0-3.135-1.011c-.661-.12-.922-.229-.909-.941.026-2.613.3-2.264-2.308-2.321-.669-.012-.853.3-.871.846-.019.585-.032,1.17,0,1.755a.743.743,0,0,1-.636.86c-2.454.712-4.127,2.13-4.465,4.839a4.514,4.514,0,0,0,.6,3.039c1.017,1.673,2.658,2.442,4.369,3.186a22.587,22.587,0,0,1,3.632,1.939,2.265,2.265,0,0,1,.012,3.511,4.315,4.315,0,0,1-3.5.884,9.028,9.028,0,0,1-3.72-1.182c-.458-.287-.82-.153-1.017.369-.165.445-.362.871-.522,1.323-.165.47-.287,1.036.254,1.285a11.787,11.787,0,0,0,3.02,1.113C556.12,332.381,556.279,332.412,556.279,334.049Z" transform="translate(-466.627 -262.494)" fill="#d99937"/>
        <path id="Path_3707" data-name="Path 3707" d="M560.937,335.4c0-1.641-.159-1.673-1.806-1.912a11.183,11.183,0,0,1-3.02-1.113c-.534-.248-.42-.808-.254-1.285.159-.445.35-.877.522-1.323.2-.522.56-.655,1.018-.369a9.057,9.057,0,0,0,3.72,1.182,4.31,4.31,0,0,0,3.5-.884,2.266,2.266,0,0,0-.012-3.511,22.853,22.853,0,0,0-3.632-1.939c-1.7-.744-3.351-1.52-4.369-3.186a4.508,4.508,0,0,1-.6-3.039c.343-2.7,2.007-4.127,4.464-4.839a.743.743,0,0,0,.636-.86c-.032-.585-.026-1.17,0-1.755.019-.541.21-.86.871-.846,2.613.057,2.334-.292,2.308,2.321-.007.706.254.82.909.941A16.836,16.836,0,0,1,568.325,314a.86.86,0,0,1,.28.776c-.165.578-.489,1.1-.693,1.673-.254.724-.744.687-1.259.4a6.988,6.988,0,0,0-4.832-.7,2.153,2.153,0,0,0-1.793,1.529A2.025,2.025,0,0,0,561.1,320.1a28.209,28.209,0,0,0,2.8,1.323,12.29,12.29,0,0,1,4.007,2.372,5.048,5.048,0,0,1,1.529,4.559c-.432,2.855-2.315,4.407-4.97,5.2a.709.709,0,0,0-.343.547c-.032.655.032,1.316.007,1.978-.026.63-.261,1.088-1.03.966a3.73,3.73,0,0,0-.534-.007C560.937,337.042,560.937,337.042,560.937,335.4Z" transform="translate(-471.286 -263.843)" fill="#f3a83c"/>
      </g>
    </g>
  </g>
</svg>
