<svg xmlns="http://www.w3.org/2000/svg" xmlns:xlink="http://www.w3.org/1999/xlink" width="315" height="174" viewBox="0 0 315 174">
  <defs>
    <clipPath id="clip-path">
      <rect id="Rectangle_6948" data-name="Rectangle 6948" width="315" height="174" transform="translate(800 1948)" fill="#fff" stroke="#707070" stroke-width="1"/>
    </clipPath>
  </defs>
  <g id="Mask_Group_5" data-name="Mask Group 5" transform="translate(-800 -1948)" clip-path="url(#clip-path)">
    <g id="barcode_and_qr" data-name="barcode and qr" transform="translate(643.971 1806.037)">
      <path id="Path_4156" data-name="Path 4156" d="M226.55,255.269c-.037-.736-.1-1.467-.107-2.2a1.935,1.935,0,0,0-.419-1.339c-.7-.855-1.306-1.779-1.972-2.7-.07.231-.123.4-.177.581v-9.741c-.408.15-.669.248-.925.344v.263q.008,8.894.011,17.779v.882a3.539,3.539,0,0,1-.129-.656c-.011-3.606.006-7.213-.021-10.824a2.257,2.257,0,0,0-.333-1.118,52.19,52.19,0,0,1-4.2-8.427c-.882-2.338-1.736-4.686-2.435-7.084a55.458,55.458,0,0,1-1.715-8.658,56.3,56.3,0,0,1-.435-10.061c.15-2.848.5-5.7.94-8.524a40.338,40.338,0,0,1,1.4-6.121c.9-2.827,2.021-5.584,3.042-8.374.236-.011.473-.021.71-.021h25.191a7.163,7.163,0,0,0-2.177-5.412,7.037,7.037,0,0,0-7.046-1.693,9.381,9.381,0,0,0-1.731-4.353,9.485,9.485,0,0,0-5.418-3.569c.274-.252.564-.494.822-.765a78.286,78.286,0,0,1,7.814-7.223,58.208,58.208,0,0,1,11.249-7.019,60.917,60.917,0,0,1,7.268-2.9c2.816-.913,5.708-1.633,8.6-2.29a32.807,32.807,0,0,1,4.767-.574,63.348,63.348,0,0,1,6.53-.344,70.949,70.949,0,0,1,7.987.618c2.661.365,5.283,1.011,7.922,1.537-.086.457-.172.909-.269,1.44h4.923c.827.333,1.661.661,2.487,1a48.706,48.706,0,0,1,7.782,3.891c2.359,1.53,4.681,3.128,6.981,4.745a26.338,26.338,0,0,1,2.124,1.833,23.554,23.554,0,0,0-1.6,2.085c-3.219,5.251.634,12.433,6.79,12.732a8.946,8.946,0,0,0,5.451-1.473c.833.714,1.645,1.413,2.451,2.1a14.258,14.258,0,0,0,.58,1.339,64.964,64.964,0,0,1,3.628,7.857,57.276,57.276,0,0,1,2.95,10.41c.425,2.257.618,4.569.855,6.858a32.82,32.82,0,0,1,.231,4.353c-.08,2.478-.2,4.961-.5,7.417a58.817,58.817,0,0,1-1.317,7.5c-.731,2.848-1.721,5.633-2.693,8.411a48.437,48.437,0,0,1-4.321,8.723c-1.177,1.972-2.564,3.825-3.921,5.691a50.359,50.359,0,0,1-6.955,7.632c-1.913,1.736-3.956,3.332-6.009,4.9a47.6,47.6,0,0,1-9.024,5.391,64.837,64.837,0,0,1-7.186,2.913c-2.859.925-5.794,1.655-8.728,2.3a35.941,35.941,0,0,1-5.525.688c-2.628.166-5.272.287-7.906.236-2.042-.037-4.085-.365-6.127-.564-.574-.054-1.148-.113-1.721-.166a13.209,13.209,0,0,0-.2-1.789,1.012,1.012,0,0,1,.6-1.279,9.654,9.654,0,0,0,4.616-5.643c.3-1.038.425-2.128.64-3.273h.688c3.332-.006,6.665.027,9.991-.037a4.438,4.438,0,0,0,4.112-3.654,4.181,4.181,0,0,0-2.569-4.811,1.708,1.708,0,0,1-1.376-2.177c.086-.87.016-1.758.021-2.639,0-.162.027-.328.054-.586,1.516,0,3,.1,4.477-.021a4.915,4.915,0,0,0,4.53-3.553,5.031,5.031,0,0,0-1.349-5.492,5.285,5.285,0,0,0-3.861-1.478h-3.795V235.8c1.317,0,2.582.027,3.848-.011a6.332,6.332,0,0,0,1.709-.263,5.4,5.4,0,0,0,3.644-3.838,2.163,2.163,0,0,0,.688.258q8.894.024,17.788.006a4.628,4.628,0,0,0,.747-.129,3.59,3.59,0,0,0,.129-.661q.008-22.791,0-45.587a3.212,3.212,0,0,0-.135-.661,7.185,7.185,0,0,0-.952-.119q-22.726-.008-45.447-.021c-.677,0-.822.231-.817.861.027,4.251.016,8.5.011,12.754a5.962,5.962,0,0,1-.107.817c-.236.011-.468.037-.7.037-4.079,0-8.159.037-12.241-.011a4.376,4.376,0,0,0-4.472,2.582c-.484.145-.4.543-.4.9q0,11.476-.011,22.953a3.314,3.314,0,0,1-.248.87c-.15-.076-.306-.145-.457-.231a7.711,7.711,0,0,0-4.176-1.059,3.73,3.73,0,0,0-3.606,3.01c-.037-.08-.08-.162-.119-.242-.054,1.085-.145,2.139-.15,3.192q-.016,12.867,0,25.738c0,1.408.08,2.821.123,4.23a.6.6,0,0,0,.043.162.465.465,0,0,0,.076-.07.244.244,0,0,0,.016-.059c.086.473.172.952.263,1.424-1.785-1.586-3.623-3.117-5.332-4.782-1.295-1.258-2.429-2.678-3.634-4.031a.42.42,0,0,0-.172-.076c-.006-.15-.016-.3-.016-.451q0-12.375-.006-24.744v-.72h-.93v21.079c0,.968.016,1.929.021,2.9v.263C226.562,253.135,226.556,254.2,226.55,255.269Zm4.9-9.776a.269.269,0,0,0,.011-.064q.008-15.5.006-31.011c0-.162-.172-.328-.263-.489h-.383c-.1.183-.258.371-.258.554q-.016,15.414-.011,30.828v.661h.93C231.468,245.785,231.463,245.637,231.452,245.493Z" transform="translate(-2.713 -4.896)" fill="#a8dff3"/>
      <path id="Path_4157" data-name="Path 4157" d="M292.194,430.443l-.279-.08a2.591,2.591,0,0,0-.753-.253q-11.617-.024-23.24-.01a4.214,4.214,0,0,0,.054-.446c-.016-2.811-.049-5.617-.049-8.427-.011-5.578,0-11.158-.016-16.736a2.166,2.166,0,0,0-.247-.688h-.248v-.484c.086-.006.172-.021.258-.021h21.262c.166,0,.333.027.515.043.226,2.187.446,4.343.669,6.5q.557,5.409,1.107,10.814Q291.71,425.545,292.194,430.443Z" transform="translate(-26.274 -114.48)" fill="#f2d389"/>
      <path id="Path_4158" data-name="Path 4158" d="M286.363,356.791q-.484-4.894-.973-9.792-.548-5.409-1.107-10.814c-.22-2.156-.441-4.3-.669-6.5-.183-.016-.349-.043-.515-.043H261.839a2.084,2.084,0,0,0-.258.021.286.286,0,0,0-.113-.027,3.7,3.7,0,0,0-.145.71q-.008,12.738-.011,25.48a6.19,6.19,0,0,1-.119.882c-.043-.006-.1-.006-.135-.01-.43-.14-.383-.489-.383-.833q0-12.681-.006-25.367a4.377,4.377,0,0,0-.119-.736c-.328-.037-.656-.107-.978-.113a2.218,2.218,0,0,1-2.263-2.284c-.01-1.693-.006-3.386,0-5.079a2.244,2.244,0,0,1,2.391-2.424c.279-.006.559-.016.833-.027a3.826,3.826,0,0,0,.134-.726q.033-5.853.033-11.706c0-.064-.1-.134-.156-.2-1.633-2.042-3.311-4.058-4.885-6.148a15.891,15.891,0,0,1-1.29-2.5c-.086-.473-.172-.952-.263-1.424q.008-16.478.011-32.951a3.736,3.736,0,0,1,3.606-3.01,7.711,7.711,0,0,1,4.176,1.059c.145.086.3.15.457.231.107.086.215.166.4.312V262.3q0-11.318.006-22.637c0-.274.054-.548.08-.822.006.3.021.6.021.9v22.922c.183-.021.328-.043.383-.049a4.943,4.943,0,0,1-.248-1.052q-.024-10.827-.01-21.648c0-.183.021-.361.033-.543.677.027.473.5.473.812q.008,27.289.011,54.573c0,.258.049.515.027.765a5.823,5.823,0,0,1-.166.8c-.2-.076-.236-.107-.242-.14-.01-.107-.01-.215-.01-.322V295.6c.086-.191.248-.376.248-.564q.016-8.078.006-16.15a.846.846,0,0,0-.14-.521c-.344-.383-.226-.7.191-1.118-.279.1-.414.129-.548.172-.006-.043-.01-.086-.016-.123-.049-.279-.1-.554-.166-.9H261.7c-.909,0-.909,0-.909.882-.043-.3-.1-.6-.15-1.005h1.951c.049,0,.1-.006.14-.006.064-.08.191-.156.191-.236,0-.435-.033-.87-.054-1.311.08-.086.166-.172.248-.258.086-.166.248-.333.248-.494q.024-4.659,0-9.314c0-.166-.162-.333-.242-.5l-.129-.129c-.1-.037-.191-.08-.279-.119l-.376-.263c-.247-.15-.494-.3-.747-.451a7.364,7.364,0,0,0-3.52-1.052,2.741,2.741,0,0,0-2.972,2.408l-.1.016c-.021-.01-.037-.027-.059-.027s-.049.01-.049.021c-.011.145-.033.287-.033.435q0,15.589.006,31.177a3,3,0,0,0,.123.6c.037.043.07.086.107.129a7.872,7.872,0,0,0,1.873,4.361c1.494,1.844,2.956,3.719,4.434,5.578a2.65,2.65,0,0,0-.086.494q-.008,5.99.006,11.975a2.379,2.379,0,0,0,.123.532c.191.016.383.043.574.043H281.99c.191,0,.376-.021.6-.033,0-.14.011-.242,0-.344-.318-3.09-.613-6.186-.968-9.271-.209-1.817-.258-1.822,1.268-2.784a9.065,9.065,0,0,0,4.423-7.944c.006-.129-.14-.263-.215-.4-.339-.049-.669-.1-1.011-.14v-.511c.215-.043.43-.1.645-.123.339-.049.683-.076,1.026-.113,1.243-.006,2.494-.016,3.74-.021a3.156,3.156,0,0,0,2.429-.995,3.413,3.413,0,0,0,.806-2.44q-.016-27.543-.006-55.1c0-.215.006-.43-.011-.645a2.916,2.916,0,0,0-2.08-2.665,6.3,6.3,0,0,0-1.655-.162q-12.447-.008-24.889.01a6.872,6.872,0,0,1,.861-.129q11.738-.008,23.471-.006h.688a.287.287,0,0,0-.242-.123q-12.221,0-24.438.011a3.171,3.171,0,0,0-.849.248l.129.129a3.616,3.616,0,0,0-1.806,1.822c-.049-.027-.1-.054-.14-.08-.166.344-.333.683-.494,1.011-.134-.242-.263-.468-.383-.693.043-.209.086-.419.123-.624a4.368,4.368,0,0,1,4.472-2.582c4.079.054,8.159.016,12.241.011.236,0,.468-.021.7-.037.236.011.473.033.7.033q7,0,13.99.006a3.967,3.967,0,0,1,4.149,4.052c.021.9,0,1.806,0,2.7.033.827.07,1.661.1,2.487a5.866,5.866,0,0,0-.1.677c-.01,2.22-.01,4.439-.016,6.653,0,.882.006,1.758.006,2.639,0,1.607-.006,3.219-.006,4.827,0,.191.01.376-.006.564-.107,1.424-.107,1.424,1.3,1.387.757,0,1.516.006,2.273.006.861.135,1.731.263,2.6.4a13.19,13.19,0,0,1,1.822,1.365,5.207,5.207,0,0,1,1.263,4.686,5.4,5.4,0,0,1-3.644,3.838,6.3,6.3,0,0,1-1.709.263c-1.263.037-2.531.01-3.848.01v3.289H303.1a5.26,5.26,0,0,1,3.865,1.489,5.03,5.03,0,0,1,1.349,5.492,4.911,4.911,0,0,1-4.53,3.553c-1.473.113-2.956.021-4.477.021-.021.258-.049.425-.054.586-.006.882.064,1.768-.021,2.639-.113,1.134.1,1.774,1.376,2.177a4.181,4.181,0,0,1,2.569,4.81,4.444,4.444,0,0,1-4.112,3.654c-3.327.064-6.659.033-9.991.037h-.688c-.215,1.148-.339,2.236-.64,3.273a9.65,9.65,0,0,1-4.616,5.643,1.016,1.016,0,0,0-.6,1.279,13.213,13.213,0,0,1,.2,1.789c.14,1.4.274,2.806.414,4.219.731.113,1.435.172,2.117.339a7.9,7.9,0,0,1,6.312,6.665,10.911,10.911,0,0,1-.559,6.2c-1.085,2.708-2.9,4.573-6.019,4.95.774,7.6,1.547,15.194,2.327,22.879C287.018,356.738,286.691,356.764,286.363,356.791Zm11.859-61.3a.4.4,0,0,1,.1-.049c.016.1.027.2.043.312a.927.927,0,0,0,.269-.613c-.01-.328-.156-.65-.162-.973-.016-1.516-.01-3.026-.01-4.542,0-1.5-.016-3,.016-4.495a2.712,2.712,0,0,1,.322-.827c-.027-.006-.177-.027-.355-.059V238.535h-.086c-.01.086-.027.172-.037.252-.033-.016-.059-.037-.1-.054-.011-.076-.027-.15-.037-.226-.392-1.688-1.752-2.526-3.73-2.3a9.078,9.078,0,0,1,.693.983,9.84,9.84,0,0,1,.451,1.188,5.8,5.8,0,0,0-.1.747q-.008,23.4-.011,46.807c0,3.3-.059,6.6-.08,9.9a1.044,1.044,0,0,0,.191.033l-1.016,2.3c2,.1,3.305-.765,3.606-2.435.013-.08.018-.162.03-.236Zm-38.446,33.241a1.466,1.466,0,0,0,.408.119q2.62.016,5.235,0a1.658,1.658,0,0,0,.408-.113l.107-.14v-7.718h-6.417c-.736-.033-1.038.468-1.274,1.052-.037-.006-.086-.033-.107-.016a.138.138,0,0,0-.043.1q0,2.717.006,5.434c0,.033.1.064.14.1a1.541,1.541,0,0,0,1.536,1.184Zm45.207-58.389a4.245,4.245,0,0,0-.9-8.129,29.961,29.961,0,0,0-3.338-.119c-.484-.011-.962,0-1.473,0,0,2.886,0,5.67.006,8.454,0,.049.059.1.1.15,1.052.01,2.1.08,3.139.021C303.335,270.68,304.158,270.477,304.983,270.348Zm-.925,14.184a4.208,4.208,0,0,0,3.569-3.886,4.153,4.153,0,0,0-3.252-4.472c-1.655-.236-3.359-.166-5.057-.236-.027.209-.049.287-.049.371q0,3.958.006,7.911a1.545,1.545,0,0,0,.113.392c.833.011,1.672.037,2.5.027.716-.011,1.436-.07,2.162-.108Zm-36.934,44.206a3.445,3.445,0,0,0,.607.113q8.239.008,16.484.006a2.951,2.951,0,0,0,.306-.027c-.006-.021-.01-.049-.016-.07-.086-.016-.166-.027-.253-.043.925-.312,1.2-.607,1.215-1.424.016-1.7.01-3.391-.006-5.09-.011-.765-.3-1.085-1.059-1.311-.107-.01-.215-.033-.318-.033q-8.4-.008-16.806-.006a1.412,1.412,0,0,0-.263.054v7.685c.035.054.073.1.105.144Zm17.8,4.1a5.26,5.26,0,0,0,4.1-2.322,9.613,9.613,0,0,0,.806-10,7,7,0,0,0-6.546-3.714c.1,1.011.209,2.021.312,3.036.162.016.242.027.328.027a2.326,2.326,0,0,1,2.537,2.634c0,1.4-.043,2.79.016,4.187.059,1.446-.371,2.531-1.881,2.972.1,1.073.211,2.111.324,3.18Zm14.345-41.228c0,1.155-.006,2.273,0,3.386a4,4,0,0,1-1.4,3.188,3.973,3.973,0,0,0-.287.328c2.79.183,4.622-1.177,4.741-3.443a3.417,3.417,0,0,0-3.06-3.459Z" transform="translate(-20.443 -40.828)" fill="#373750"/>
      <path id="Path_4159" data-name="Path 4159" d="M418,361.549a8.964,8.964,0,0,1,8.6-7.132,10.96,10.96,0,0,1,21.74.446,8.283,8.283,0,0,1,8.491,1.978,8.1,8.1,0,0,1,2.531,6,6.123,6.123,0,0,1-.876.119q-19.776.008-39.546.006h-.451c-.435.006-.554-.2-.468-.618a3.589,3.589,0,0,0-.022-.8Zm1.038.484h39.2a7.077,7.077,0,0,0-2.714-4.9c-2.515-1.951-5.26-2.026-8.18-.693a10.239,10.239,0,0,0-2.486-6.9,9.6,9.6,0,0,0-6.417-3.316,9.46,9.46,0,0,0-6.159,1.424,10.011,10.011,0,0,0-4.7,7.911c-4.6-.037-8.306,2.786-8.548,6.471Z" transform="translate(-92.231 -88.98)" fill="#373750"/>
      <path id="Path_4160" data-name="Path 4160" d="M406.027,193.637c-.812-.7-1.626-1.4-2.451-2.1a8.91,8.91,0,0,1-5.451,1.473c-6.159-.3-10.018-7.482-6.79-12.732a25.794,25.794,0,0,1,1.6-2.085,8.9,8.9,0,0,1,6.216-2.209,8.557,8.557,0,0,1,8.094,8.078,9.067,9.067,0,0,1-.742,3.993q2.3,1.935,4.585,3.853c1.774,1.489,3.558,2.972,5.332,4.466a2.264,2.264,0,0,1,.414,3.347,2.3,2.3,0,0,1-3.332.156Q409.751,196.752,406.027,193.637Zm-.784-5.3c.129-.322.22-.586.328-.839a7.4,7.4,0,0,0-1.419-8.169,7.207,7.207,0,0,0-6.6-2.214,7.289,7.289,0,0,0-5.418,3.81,7.036,7.036,0,0,0-.645,5.578,7.3,7.3,0,0,0,5.26,5.224,7.145,7.145,0,0,0,6.451-1.216.478.478,0,0,1,.726.011c.419.4.9.72,1.333,1.1,1.005.882,1,.887,1.822-.119.1-.119.191-.226.287-.344.435-.527.408-.72-.119-1.148-.659-.548-1.309-1.1-2.008-1.677Zm5.708,8.153c.591.489,1.128.935,1.682,1.4.586-.7,1.129-1.349,1.693-2.021-.574-.478-1.112-.925-1.676-1.392-.581.689-1.113,1.324-1.7,2.016Zm-.71-4.047c-.581-.484-1.112-.93-1.672-1.4-.574.688-1.118,1.339-1.693,2.021.574.484,1.107.93,1.666,1.4.57-.682,1.107-1.316,1.7-2.02Zm3.166,5.863c.64.72,1.2,1.457,2.16,1.032a1.46,1.46,0,0,0,.753-1.059c.006-.876-.774-1.279-1.4-1.779-.532.625-1.017,1.2-1.516,1.807Zm-4.154-3.332c.376.306.7.574,1.1.892.537-.634,1.052-1.243,1.59-1.892l-1.107-.9c-.548.661-1.042,1.247-1.585,1.9Z" transform="translate(-80.042 -14.907)" fill="#36374e"/>
      <path id="Path_4161" data-name="Path 4161" d="M225.9,190.561a9.459,9.459,0,0,1,5.418,3.569,9.358,9.358,0,0,1,1.731,4.353,7.044,7.044,0,0,1,7.046,1.693,7.179,7.179,0,0,1,2.177,5.412H217.083c-.236,0-.473.016-.71.021h-8.939c.2-4.171,2.843-6.831,7.412-7.508a9.051,9.051,0,0,1,1.639-3.908,8.958,8.958,0,0,1,8.836-3.7Q225.611,190.537,225.9,190.561Zm-10.147,8.7c-4.052.191-6.514,2-7.077,5.2h32.441a5.883,5.883,0,0,0-2.521-4.128c-2.053-1.413-4.224-1.339-6.524-.287a8.5,8.5,0,0,0-2.316-6.089,7.938,7.938,0,0,0-6-2.494,8.233,8.233,0,0,0-8,7.8Zm-6.848,5.514H241c-.274-.243-28.667-.421-32.1,0Z" transform="translate(0 -21.225)" fill="#37374f"/>
      <path id="Path_4162" data-name="Path 4162" d="M448.29,286.034c-1.118-.383-1.37-1.177-1.295-2.3.1-1.387.006-2.79.033-4.181a.634.634,0,0,0-.521-.726c-1.521-.516-3.032-1.064-4.536-1.626-.226-.086-.383-.328-.581-.5.191-.172.355-.43.581-.511q6.248-2.257,12.517-4.46a1.617,1.617,0,0,1,.983.01q6.216,2.184,12.4,4.417a2.793,2.793,0,0,1,.661.515,2.813,2.813,0,0,1-.677.554q-2.225.838-4.472,1.607a.6.6,0,0,0-.478.683c.022,1.693-.011,3.391.022,5.084a1,1,0,0,1-.6,1.016,14.494,14.494,0,0,1-12.458,1.085c-.162-.059-.322-.107-.489-.162a.077.077,0,0,0-.027-.08c.006-.306.01-.613.016-.913a14.285,14.285,0,0,0,1.37.548,13.626,13.626,0,0,0,10.851-1.075.939.939,0,0,0,.4-.677c.037-1.5.021-3,.016-4.5a3.572,3.572,0,0,0-.059-.468c-.248.076-.451.129-.645.2-1.957.693-3.908,1.4-5.869,2.07a1.454,1.454,0,0,1-.854.043c-.913-.287-1.811-.64-2.72-.956-.822-.287-1.65-.574-2.478-.855-.043-.049-.08-.1-.123-.145-.006-.08-.01-.156-.016-.236l.765-.287c1.457.5,2.907,1.016,4.38,1.478a1.875,1.875,0,0,0,1.085.037c2.795-.956,5.574-1.951,8.358-2.94.952-.339,1.9-.688,2.993-1.085-1.225-.446-2.3-.833-3.375-1.22-2.214-.8-4.429-1.607-6.649-2.391a4.011,4.011,0,0,0-3.06-.263c-2.821,1.118-5.708,2.074-8.567,3.1-.613.22-1.215.468-1.908.736a2.1,2.1,0,0,0,.312.22c1.53.543,3.06,1.075,4.591,1.626a2.073,2.073,0,0,1,.43.3c-.08.231-.162.462-.242.688-.15-.043-.3-.1-.527-.162,0,1.779-.006,3.455.006,5.133,0,.287.1.574.511.419C448.333,285.282,448.311,285.658,448.29,286.034Z" transform="translate(-102.478 -56.82)" fill="#36374e"/>
      <path id="Path_4163" data-name="Path 4163" d="M356.759,151.8h-4.923c.1-.532.183-.983.269-1.44a3.91,3.91,0,0,1,3.848-2.575,8.318,8.318,0,0,1,1.252.2,6.107,6.107,0,0,1,10.157-4.488,1.052,1.052,0,0,0,.736.287,4.671,4.671,0,0,1,5.675,4.714c0,.08.01.166.016.269a3.115,3.115,0,0,1,2.929,2.381c-.1.162-.2.318-.328.511-6.17,0-12.4,0-18.634.006a5.032,5.032,0,0,0-.742.107A2.166,2.166,0,0,0,356.759,151.8Zm15.57-1.676c.1-.361.172-.64.236-.93a3.425,3.425,0,0,0-.968-3.418,3.381,3.381,0,0,0-3.574-.812.841.841,0,0,1-1.038-.287,4.887,4.887,0,0,0-5.929-1.112,4.973,4.973,0,0,0-2.65,5.375c.064.383.1.765.162,1.194-.693-.4-1.274-.812-1.913-1.1a2.341,2.341,0,0,0-2.053.113,2.384,2.384,0,0,0-1.365,1.53H375.3C374.527,149.832,374.224,149.773,372.328,150.127Z" transform="translate(-63.251)" fill="#37374f"/>
      <path id="Path_4164" data-name="Path 4164" d="M542.151,300.775c.693-1.655,1.639-2.193,3.284-1.844a3.719,3.719,0,0,1,4.815-2.5,5.8,5.8,0,0,1,2.354-4.515,5.627,5.627,0,0,1,4.009-1.069,5.7,5.7,0,0,1,5.073,5.738c2.263-.059,3.875.822,4.439,3.156-.064.365-.129.731-.191,1.124-.191.011-.361.033-.527.033q-10.31,0-20.616-.006C543.909,300.9,543.033,300.818,542.151,300.775Zm18.289-2.618a12.954,12.954,0,0,0,.107-2.156,4.6,4.6,0,1,0-9.121,1.172c.054.425.113.849.191,1.392-1.081-.677-1.945-1.553-3.257-1.177a2.529,2.529,0,0,0-1.913,2.582h18.638a2.869,2.869,0,0,0-1.182-1.8,3.374,3.374,0,0,0-3.464-.018Z" transform="translate(-146.614 -65.209)" fill="#37364e"/>
      <path id="Path_4165" data-name="Path 4165" d="M540.089,255.826c-3.069-3.381-6.095-6.707-9.222-10.153h5.439V238.2h7.562v7.439h5.471C546.194,249.1,543.168,252.438,540.089,255.826Zm-6.886-9.308-.253.123c.08.1.166.183.247.274,2.284,2.537,4.573,5.069,6.879,7.626,2.365-2.607,4.671-5.138,6.971-7.681.064-.07.037-.226.054-.344a2.177,2.177,0,0,0-.478-.1c-1.2-.011-2.4-.006-3.6-.006-.006-.236-.022-.468-.022-.7q-.016-3.265-.027-6.524a.131.131,0,0,0,.01-.119c-.1-.059-.191-.166-.287-.166-1.026,0-2.058.027-3.085.037-.833.006-1.666,0-2.575,0v7.476c-.656,0-1.231-.016-1.806.006-.678.019-1.355.068-2.032.105Z" transform="translate(-141.67 -42.164)" fill="#35364d"/>
      <path id="Path_4166" data-name="Path 4166" d="M509.155,159.949c1.828,0,3.654-.006,5.482,0,1.252.006,1.763.71,1.37,1.9q-1.112,3.354-2.236,6.707a1.328,1.328,0,0,1-1.53,1.085q-3.644.008-7.288,0a1.281,1.281,0,0,1-1.483-1.252q-.613-3.225-1.243-6.438c-.287-1.467.135-1.988,1.645-1.994,1.752,0,3.515,0,5.278-.006Zm4.251,6.665a3.253,3.253,0,0,0-.543-.113c-1.559-.011-3.118-.006-4.671-.006H507.5c-.016-.306-.027-.516-.033-.726h6.326l.65-2.085c-.006-.054-.006-.107-.01-.162-.714-.037-1.43-.1-2.15-.113-1.085-.021-2.177-.006-3.156-.006l-.349-.624a2.733,2.733,0,0,1,.574-.119c1.44-.011,2.876-.006,4.316-.006,1.177,0,1.177,0,1.516-1.091.183-.6.1-.726-.543-.726-3.671-.006-7.342,0-11.013-.011-.574,0-.7.209-.586.753.349,1.721.65,3.451.995,5.17.129.64.318,1.263.478,1.9.1.043.191.129.279.129,2.51.011,5.026.016,7.535-.011.191,0,.376-.3.564-.462.172-.511.344-1.026.511-1.537A1.526,1.526,0,0,1,513.406,166.614Z" transform="translate(-129.091 -7.887)" fill="#373650"/>
      <path id="Path_4167" data-name="Path 4167" d="M522.981,270.05H517.22V264.6h-4.085c2.37-2.612,4.655-5.127,6.96-7.669,2.3,2.526,4.573,5.03,6.938,7.637h-4.052Zm-4.864-6.3v5.4H522.1v-5.412h3c-1.742-1.918-3.354-3.7-5-5.519-1.661,1.832-3.289,3.634-5.014,5.535Z" transform="translate(-133.904 -50.367)" fill="#38364f"/>
      <path id="Path_4168" data-name="Path 4168" d="M507.107,168.758a1.667,1.667,0,0,1,1.243,2.053,1.7,1.7,0,0,1-1.913,1.252c-.978-.177-1.473-1-1.327-2.241h.806c.01.191.021.4.027.607a.722.722,0,0,0,.71.765.707.707,0,0,0,.833-.624.765.765,0,0,0-.543-.962,1.315,1.315,0,0,0-.383-.059c-1.53-.006-3.047,0-4.644,0a1.809,1.809,0,0,1-.414,2.074,2.169,2.169,0,0,1-1.225.441c-1.069.011-1.65-.882-1.53-2.236h.844c0,.191-.006.383,0,.591a.78.78,0,0,0,1.553.1.743.743,0,0,0-.669-.93,8.238,8.238,0,0,0-1.091-.049,1.662,1.662,0,0,1-1.828-1.451q-1.024-4.579-2.042-9.152c-.5-2.241-1.29-2.993-3.611-3.434.027-.242.054-.494.08-.736a4.112,4.112,0,0,1,4.128,3.01c.624,2.424,1.129,4.877,1.682,7.32.191.833.365,1.672.554,2.509.215.956.306,1.032,1.263,1.107a2.125,2.125,0,0,0,.527.14q3.233.016,6.466,0a2.514,2.514,0,0,0,.505-.1Z" transform="translate(-124.608 -5.609)" fill="#37374f"/>
      <path id="Path_4169" data-name="Path 4169" d="M452.46,289.709l.064-1.128c0-1.8.006-3.6.006-5.391.08-.231.162-.462.236-.688l2.854-1.148c1.069-.435,2.134-.887,3.219-1.29.177-.064.43.086.65.14a2.226,2.226,0,0,1-.349.618,2.168,2.168,0,0,1-.64.287q-2.16.9-4.321,1.8l-.765.287a.644.644,0,0,0-.1,0c-.01,0-.021.033-.021.054q0,4.135.01,8.266c0,.1.156.2.236.312.973.543,1.172,1.564,1.505,2.487.287.817-.15,1.537-1.107,1.94a2.384,2.384,0,0,1-2.678-.473,1.754,1.754,0,0,1-.22-1.721c.269-.765.383-1.7,1.295-2.1a.408.408,0,0,0,.172-.312C452.5,290.994,452.476,290.351,452.46,289.709Z" transform="translate(-106.648 -60.496)" fill="#f5ee7e"/>
      <path id="Path_4170" data-name="Path 4170" d="M267.914,430.484q11.617,0,23.24.01a2.589,2.589,0,0,1,.753.253q-11.673.008-23.342.01c-.383,0-.765.033-1.148.049a1.068,1.068,0,0,1-.016-.129q0-13.246.01-26.491h.248q0,3.634.006,7.268,0,9.167.01,18.338a2.031,2.031,0,0,0,.239.691Z" transform="translate(-26.265 -114.869)" fill="#eddb7d"/>
      <path id="Path_4171" data-name="Path 4171" d="M230.234,308.345v-.263H231v.833q0,8.618.006,17.241a5.037,5.037,0,0,0,.107.742c-.287.033-.581.07-.87.1v-.882a4.224,4.224,0,0,0,.107-.677q.008-8.215,0-16.43a4.96,4.96,0,0,0-.115-.667Z" transform="translate(-9.987 -72.773)" fill="#37364f"/>
      <path id="Path_4172" data-name="Path 4172" d="M236.634,310.033c-.006-.968-.021-1.929-.021-2.9V286.057h.93v.72q0,12.375.006,24.744c0,.15.011.3.016.451v1.53h-.94c.006-1.064.011-2.134.011-3.2a3.465,3.465,0,0,1,.119.607c.016.645.011,1.29.006,1.935-.006.349.086.6.494.532a8.665,8.665,0,0,0,.145-1.148q.016-12.592.006-25.191a1.12,1.12,0,0,0-.011-.446.574.574,0,0,0-.349-.287c-.064-.016-.231.162-.269.274a1.79,1.79,0,0,0-.016.511q0,10.376.006,20.745c0,.6.076,1.194.086,1.789C236.849,309.758,236.71,309.9,236.634,310.033Z" transform="translate(-12.781 -63.126)" fill="#213349"/>
      <path id="Path_4173" data-name="Path 4173" d="M524.961,224.609c-.248-.119-.457-.156-.548-.279a.6.6,0,0,0-.935-.191.613.613,0,0,0-.049.962c.435.516.919.989,1.36,1.462.425-.191.059-.962.817-.849-.1.747-.812,1.607.581,2.053l-.287.177c-.349-.156-.7-.312-1.112-.494-1.042.624-1.967.618-2.424-.076-.43-.65-.209-1.28.64-1.859q-.637-1.507.419-1.871C524.139,223.394,524.73,223.716,524.961,224.609Zm-1.677,1.231c-.586.425-.742.892-.419,1.306.361.468,1,.43,1.677-.14-.426-.387-.84-.775-1.259-1.167Z" transform="translate(-137.851 -35.753)" fill="#343346"/>
      <path id="Path_4174" data-name="Path 4174" d="M417.784,374.386a3.252,3.252,0,0,1,.021.79c-.08.419.033.624.468.618h.451q19.776,0,39.545-.006a6.119,6.119,0,0,0,.876-.119c-.027.086-.043.236-.1.252a1.75,1.75,0,0,1-.446.027H418.121c-.191,0-.376-.016-.624-.027C417.6,375.386,417.692,374.886,417.784,374.386Z" transform="translate(-92.013 -101.817)" fill="#272939"/>
      <path id="Path_4175" data-name="Path 4175" d="M532.765,160.731c0-1.231.01-2.537-.006-3.838-.006-.441.209-.435.574-.333v1.59c.892-.43,1.408-.4,1.785.049a1.913,1.913,0,0,1-.054,2.268,1.778,1.778,0,0,1-1.011.419,5.633,5.633,0,0,1-1.288-.156Zm2.1-1.182a4.136,4.136,0,0,0,0-.462c-.07-.457-.215-.855-.8-.806a.706.706,0,0,0-.726.855,2.8,2.8,0,0,0,.016.64c.086.248.274.65.419.65a1.639,1.639,0,0,0,.925-.361c.15-.109.14-.426.161-.517Z" transform="translate(-142.5 -6.379)" fill="#373647"/>
      <path id="Path_4176" data-name="Path 4176" d="M513.6,227.978c-.306-.226-.462-.339-.64-.468-.7.435-1.268.451-1.676.016a2.092,2.092,0,0,1-.086-2.236c.361-.537.925-.65,1.806-.333v-1.435c.349-.119.6-.183.6.318C513.591,225.14,513.6,226.446,513.6,227.978Zm-.581-1.721h.006c0-.107-.006-.215,0-.318.032-.383-.08-.65-.516-.731a.7.7,0,0,0-.9.494,2.487,2.487,0,0,0,0,1.243.85.85,0,0,0,.715.425c.258-.043.494-.365.677-.607.086-.113.022-.334.022-.506Z" transform="translate(-132.93 -35.698)" fill="#373649"/>
      <path id="Path_4177" data-name="Path 4177" d="M429.645,191.452c-.274-.172-.451-.287-.656-.414-.645.414-1.2.446-1.612.049a2.047,2.047,0,0,1-.15-2.225c.383-.6.94-.714,1.849-.371v-1.451c.333-.107.581-.183.574.287C429.633,188.646,429.645,189.974,429.645,191.452Zm-.521-1.633c-.011,0-.021-.006-.033-.006a2.065,2.065,0,0,1,0-.258c.059-.478-.1-.8-.624-.839a.749.749,0,0,0-.882.714,1.945,1.945,0,0,0,.021.882c.1.242.349.554.559.581a1.161,1.161,0,0,0,.812-.349c.142-.145.108-.478.142-.725Z" transform="translate(-96.161 -19.719)" fill="#353446"/>
      <path id="Path_4178" data-name="Path 4178" d="M543.674,227.892c-.1-.156-.287-.306-.3-.468-.037-.511-.01-1.026-.021-1.543-.01-.392-.172-.688-.613-.656-.414.033-.817.129-.806.7.01.6.006,1.2.006,1.817-.376.172-.554.107-.548-.339.016-1.177.016-2.359,0-3.539-.006-.4.14-.489.521-.361v1.6c.172-.086.287-.145.4-.2a1.015,1.015,0,0,1,1.569.989c.016.559.006,1.112.006,1.672a1.084,1.084,0,0,1-.032.183C543.8,227.8,543.738,227.844,543.674,227.892Z" transform="translate(-146.283 -35.704)" fill="#353549"/>
      <path id="Path_4179" data-name="Path 4179" d="M452.988,192.384a1.393,1.393,0,0,1-1.424-1.543,1.451,1.451,0,1,1,2.891.033,1.4,1.4,0,0,1-1.467,1.51Zm.87-1.575c-.006-.726-.306-1.081-.9-1.059-.564.021-.827.392-.817,1.148.011.71.333,1.091.9,1.075.549-.025.828-.422.818-1.164Z" transform="translate(-106.934 -20.737)" fill="#353443"/>
      <path id="Path_4180" data-name="Path 4180" d="M499.325,227.342a1.35,1.35,0,0,1-1.43,1.516,1.38,1.38,0,0,1-1.43-1.521,1.419,1.419,0,0,1,1.473-1.569,1.393,1.393,0,0,1,1.387,1.574Zm-.543-.021c-.006-.71-.322-1.112-.887-1.107-.543.006-.892.446-.887,1.124s.371,1.118.9,1.118S498.782,228.014,498.782,227.321Z" transform="translate(-126.602 -36.718)" fill="#343343"/>
      <path id="Path_4181" data-name="Path 4181" d="M550.421,227.052c.022-.8-.3-1.016-1.052-.71a1.462,1.462,0,0,1-.532.011c.129-.145.226-.344.383-.425a1.128,1.128,0,0,1,1.773,1.038c.027.6.006,1.194.006,1.929-.248-.14-.414-.236-.537-.306a2.888,2.888,0,0,1-1.021.231,1.1,1.1,0,0,1-.765-.574.939.939,0,0,1,.408-.8,5.434,5.434,0,0,1,1.338-.394Zm-.037.419c-.468.134-1.108-.1-1.2.645-.01.086.414.328.629.318.547-.037.767-.376.571-.961Z" transform="translate(-149.466 -36.708)" fill="#373546"/>
      <path id="Path_4182" data-name="Path 4182" d="M472.01,313.72h-2.042c.059,1.005.554,1.317,1.451.989a.842.842,0,0,1,.527.006,1.467,1.467,0,0,1-1.972.3,1.8,1.8,0,0,1-.446-2.053,1.388,1.388,0,0,1,1.559-.757C471.72,312.334,472.015,312.8,472.01,313.72Zm-.462-.371c-.076-.494-.3-.79-.8-.765a.743.743,0,0,0-.765.765Z" transform="translate(-114.739 -74.564)" fill="#343344"/>
      <path id="Path_4183" data-name="Path 4183" d="M540.131,158.987h.574c0,.624-.006,1.231,0,1.844.006.4.119.753.6.726.457-.027.839-.183.827-.757s0-1.155,0-1.785c.156-.016.312-.033.505-.049v3.02c-.209-.08-.4-.156-.581-.226.016.027.032.054.043.076a4.465,4.465,0,0,1-1.435.033c-.548-.166-.527-.765-.532-1.263C540.125,160.09,540.131,159.573,540.131,158.987Z" transform="translate(-145.728 -7.458)" fill="#353647"/>
      <path id="Path_4184" data-name="Path 4184" d="M505.871,227.04c.059-.753-.3-1.016-1.011-.72a1.979,1.979,0,0,1-.543.064c.129-.156.232-.383.4-.462a1.118,1.118,0,0,1,1.746,1.069c.01.6,0,1.194,0,1.951-.258-.191-.408-.287-.484-.344a4.153,4.153,0,0,1-1.177.22.93.93,0,0,1-.656-.548.889.889,0,0,1,.322-.79,6.789,6.789,0,0,1,1.4-.44Zm-.016.446c-.478.1-1.1-.113-1.209.618-.01.08.4.339.613.328.531-.023.795-.329.6-.942Z" transform="translate(-129.962 -36.709)" fill="#333342"/>
      <path id="Path_4185" data-name="Path 4185" d="M479.008,315.348l-.548-.371a4.889,4.889,0,0,1-.887.287.734.734,0,0,1-.9-.532.752.752,0,0,1,.516-.973,10.668,10.668,0,0,1,1.243-.287c.027-.844-.306-1.052-1.1-.71a.678.678,0,0,1-.511-.021,1.314,1.314,0,0,1,1.618-.462c.574.242.581.784.574,1.317S479.008,314.661,479.008,315.348Zm-.574-1.516c-.478.2-1.134-.064-1.225.677-.01.1.339.355.521.361.53.022.756-.317.7-1.037Z" transform="translate(-117.915 -74.564)" fill="#343347"/>
      <path id="Path_4186" data-name="Path 4186" d="M468.425,190.835h-1.961c-.119.87.441,1.317,1.225,1.059a1.761,1.761,0,0,1,.693-.086,1.491,1.491,0,0,1-1.951.361,1.75,1.75,0,0,1-.462-2.085,1.326,1.326,0,0,1,1.53-.753C468.172,189.486,468.467,189.959,468.425,190.835Zm-2.048-.328h1.559a.653.653,0,0,0-.661-.8c-.485-.033-.792.236-.9.8Z" transform="translate(-113.175 -20.741)" fill="#333241"/>
      <path id="Path_4187" data-name="Path 4187" d="M563.965,227.342h-2.021c.033.956.558,1.306,1.4.995a1.067,1.067,0,0,1,.574-.033,1.468,1.468,0,0,1-1.957.328,1.78,1.78,0,0,1-.468-2.043,1.355,1.355,0,0,1,1.53-.779C563.7,225.955,563.988,226.4,563.965,227.342Zm-2.058-.365h1.58a.685.685,0,0,0-.683-.8c-.509-.043-.767.269-.9.795Z" transform="translate(-155.026 -36.722)" fill="#333242"/>
      <path id="Path_4188" data-name="Path 4188" d="M266.591,403.8q-.008,13.246-.01,26.491a1.068,1.068,0,0,0,.016.129c-.349-.016-.7-.037-1.052-.054.172-.006.344-.01.521-.01.043.006.1.006.135.01.086-.172.242-.344.242-.511q.016-12.092.01-24.18c0-.8.016-1.586.021-2.381a.286.286,0,0,1,.113.027C266.591,403.48,266.591,403.641,266.591,403.8Z" transform="translate(-25.453 -114.48)" fill="#c5afb2"/>
      <path id="Path_4189" data-name="Path 4189" d="M490.092,315.275c-.113-.129-.322-.258-.328-.4-.033-.876-.016-1.758-.016-2.778.263.15.425.242.645.371a2.627,2.627,0,0,1,.4-.231.978.978,0,0,1,1.435.861,13.359,13.359,0,0,1,0,1.736c-.01.15-.215.287-.328.425l-.191-.113c0-.6-.006-1.188,0-1.785.006-.441-.145-.812-.634-.774-.435.033-.827.209-.79.8.037.574.006,1.148.006,1.731C490.23,315.173,490.162,315.221,490.092,315.275Z" transform="translate(-123.658 -74.533)" fill="#363545"/>
      <path id="Path_4190" data-name="Path 4190" d="M547.318,158.794c.183.162.435.287.537.484.279.543.5,1.112.742,1.672.574-.645.376-1.742,1.268-2.1l.177.113c-.516,1.194-1.021,2.391-1.564,3.574-.086.191-.339.3-.6.515-.01-.236-.033-.287-.016-.312a1.742,1.742,0,0,0,.021-2.113,14.425,14.425,0,0,1-.72-1.639C547.216,158.928,547.265,158.858,547.318,158.794Z" transform="translate(-148.809 -7.382)" fill="#353446"/>
      <path id="Path_4191" data-name="Path 4191" d="M266.074,430.444c-.172.006-.344.01-.521.01q.008-13.471.011-26.948a4.377,4.377,0,0,1,.119.736q.008,12.681.006,25.367C265.687,429.956,265.644,430.3,266.074,430.444Z" transform="translate(-25.457 -114.572)" fill="#202031"/>
      <path id="Path_4192" data-name="Path 4192" d="M542.107,307.74c.876.043,1.758.123,2.634.123q10.31.016,20.616.006c.166,0,.339-.021.527-.033.064-.383.129-.753.191-1.124.037.419.076.839.119,1.311h-.6q-11.544,0-23.089-.016C542.4,308.009,541.881,308.343,542.107,307.74Z" transform="translate(-146.57 -72.175)" fill="#2e2c3c"/>
      <path id="Path_4193" data-name="Path 4193" d="M458.622,189.359c.844-.08.731.581.925.93a10.59,10.59,0,0,1,.527,1.311c.344-.753.677-1.483,1.026-2.2.033-.064.231-.043.473-.076-.414,1.021-.779,1.961-1.2,2.876-.033.064-.554.043-.6-.049C459.38,191.256,459.025,190.342,458.622,189.359Z" transform="translate(-110.026 -20.754)" fill="#373647"/>
      <path id="Path_4194" data-name="Path 4194" d="M534.777,228.45a1.982,1.982,0,0,1,.462-.059c.2.021.419.162.607.123a.805.805,0,0,0,.495-.371c.043-.086-.166-.349-.318-.451-.166-.119-.441-.1-.586-.231-.231-.209-.574-.511-.548-.742a1.052,1.052,0,0,1,.6-.757,4.393,4.393,0,0,1,1.322.033c.01.1.022.191.033.279a1.287,1.287,0,0,1-.4.119,3.818,3.818,0,0,0-.669-.1.6.6,0,0,0-.371.361c-.027.08.156.279.287.355a3.451,3.451,0,0,0,.656.252c.383.14.677.419.532.812a1.317,1.317,0,0,1-.693.784,4.422,4.422,0,0,1-1.393-.1C534.783,228.648,534.783,228.546,534.777,228.45Z" transform="translate(-143.384 -36.783)" fill="#353448"/>
      <path id="Path_4195" data-name="Path 4195" d="M438.816,191.953a1.736,1.736,0,0,1,.435-.043,2.773,2.773,0,0,0,.669.123.633.633,0,0,0,.446-.355c.027-.129-.162-.355-.312-.457-.191-.129-.473-.123-.645-.269-.226-.191-.543-.473-.527-.7a1.029,1.029,0,0,1,.543-.757,2.687,2.687,0,0,1,1.166.033c.1.011.145.242.287.5a3.5,3.5,0,0,0-.9-.248c-.2.011-.383.2-.58.306a2.2,2.2,0,0,0,.4.484c.145.107.408.08.527.2.231.236.574.559.543.8a1.136,1.136,0,0,1-.656.8,4.439,4.439,0,0,1-1.4-.1C438.816,192.174,438.816,192.066,438.816,191.953Z" transform="translate(-101.35 -20.807)" fill="#353444"/>
      <path id="Path_4196" data-name="Path 4196" d="M447.507,189.919c-.983-.209-1.913-.376-1.913.946,0,1.424,1.005,1.085,1.983.861a1.423,1.423,0,0,1-2.091.339,1.817,1.817,0,0,1,.006-2.4,1.324,1.324,0,0,1,2.014.252Z" transform="translate(-104.076 -20.749)" fill="#363544"/>
      <path id="Path_4197" data-name="Path 4197" d="M493.141,227.756c-.425.162-.564.027-.559-.392q.024-1.733,0-3.467c-.006-.414.135-.554.559-.4Z" transform="translate(-124.902 -35.696)" fill="#445"/>
      <path id="Path_4198" data-name="Path 4198" d="M361.055,158.93a5.037,5.037,0,0,1,.742-.107c6.235-.006,12.463-.006,18.634-.006.123-.191.226-.349.328-.511.07.191.14.392.231.64H361.7C361.485,158.947,361.27,158.936,361.055,158.93Z" transform="translate(-67.289 -7.169)" fill="#2e303b"/>
      <path id="Path_4199" data-name="Path 4199" d="M231.106,326.629a5.033,5.033,0,0,1-.107-.742q-.008-8.618-.006-17.241v-.833h-.765l.925-.344v9.739q-.008,4.329-.016,8.653C231.133,326.119,231.117,326.377,231.106,326.629Z" transform="translate(-9.982 -72.505)" fill="#262b40"/>
      <path id="Path_4200" data-name="Path 4200" d="M473.676,192.462c-.15-.162-.365-.287-.371-.425-.033-.892-.016-1.779-.016-2.671.059-.033.113-.07.172-.1.15.15.3.3.361.355.4-.1.784-.209,1.177-.279a4.247,4.247,0,0,1,.129.457C473.111,189.871,474.177,191.43,473.676,192.462Z" transform="translate(-116.449 -20.728)" fill="#383748"/>
      <path id="Path_4201" data-name="Path 4201" d="M466.034,309.9v4.23c-.339.1-.543.086-.537-.349.016-1.2-.006-2.391.021-3.59.006-.15.215-.3.328-.441C465.913,309.795,465.971,309.842,466.034,309.9Z" transform="translate(-113.038 -73.503)" fill="#393a4a"/>
      <path id="Path_4202" data-name="Path 4202" d="M485.735,312.71c-1.1-.011-1.333.22-1.339,1.161v1.29c-.339.107-.564.14-.559-.312a19.872,19.872,0,0,1,.145-2.693c.166.15.333.3.4.355.371-.107.731-.231,1.1-.306A2.83,2.83,0,0,1,485.735,312.71Z" transform="translate(-121.072 -74.558)" fill="#373746"/>
      <path id="Path_4203" data-name="Path 4203" d="M555.913,228.761v-3.1c.263.22.43.361.516.435a6.826,6.826,0,0,1,.913-.355c.1-.021.242.156.365.242-.119.1-.236.269-.365.274-.607.037-.9.3-.919.9-.01.408-.021.817.006,1.22S556.262,228.828,555.913,228.761Z" transform="translate(-152.642 -36.673)" fill="#353445"/>
      <path id="Path_4204" data-name="Path 4204" d="M265.544,363.369c.054.064.156.135.156.2q-.008,5.853-.033,11.706a3.825,3.825,0,0,1-.135.726Q265.541,369.679,265.544,363.369Z" transform="translate(-25.449 -96.991)" fill="#1f1f31"/>
      <path id="Path_4205" data-name="Path 4205" d="M435.478,189.375v2.9c-.344.145-.537.113-.527-.344.021-.747-.01-1.489.021-2.236.006-.156.191-.306.3-.457C435.345,189.278,435.409,189.327,435.478,189.375Z" transform="translate(-99.657 -20.716)" fill="#3a3a4f"/>
      <path id="Path_4206" data-name="Path 4206" d="M455.407,294.246c-.08-.1-.236-.2-.236-.312-.016-2.757-.01-5.509-.01-8.266a.082.082,0,0,1,.021-.054.643.643,0,0,1,.1,0c.006.08.011.156.016.236q-.016,3.2-.027,6.4a1.023,1.023,0,0,0,.123.328.089.089,0,0,1,.027.08C455.419,293.193,455.412,293.72,455.407,294.246Z" transform="translate(-108.51 -62.931)" fill="#ededb0"/>
      <path id="Path_4207" data-name="Path 4207" d="M513.122,179.647a2.572,2.572,0,0,1-.484.1c-2.156.006-4.31.011-6.466,0a2.124,2.124,0,0,1-.527-.14Q509.387,179.628,513.122,179.647Z" transform="translate(-130.623 -16.497)" fill="#282939"/>
      <path id="Path_4208" data-name="Path 4208" d="M435.718,187.417c-.226.191-.376.392-.478.371a.6.6,0,0,1-.4-.349c-.027-.1.2-.361.317-.365C435.3,187.064,435.459,187.245,435.718,187.417Z" transform="translate(-99.606 -19.769)" fill="#3d3c49"/>
      <path id="Path_4209" data-name="Path 4209" d="M329.026,256.358a5.211,5.211,0,0,0-1.263-4.686,13.2,13.2,0,0,0-1.822-1.365V248.12l2.423-.135v-2.456h-2.429l.011.01v-7.358h2.462v2.472h2.466v2.37h2.487V240.5h-2.515v-2.316h2.6v-5.03h2.44v5h2.451V240.5h2.487v-2.376h2.44V235.59h-4.944v-2.445c.049-.006.1-.006.14-.011,1.586-.006,3.176-.011,4.762-.021a3.027,3.027,0,0,0,.08-.484c.006-2.08,0-4.16,0-6.245v-.64h-2.544V230.7h-2.435v-2.462c-.855-.037-1.66-.08-2.462-.119.006-.645.027-1.284,0-1.929-.006-.156-.172-.3-.263-.457q-2.1,0-4.208-.006c-.162-.011-.318-.016-.511-.027-.016.3-.021.548-.037.8-.037.581-.08,1.161-.119,1.746-.731-.011-1.457-.016-2.187-.027-.049-.037-.1-.07-.145-.107q.008-3.684.01-7.364h2.466V218.3h-2.333c-.059-.817-.119-1.639-.183-2.472h-2.37v2.478c.328,0,.607-.016.887.006.515.033,1.038.086,1.553.135-.006.774-.006,1.547-.01,2.322H325.96v4.767c-.8.076-1.6.156-2.487.242v-2.542h-2.44v-2.478h2.4v-2.419H321.04c-.043.817-.08,1.633-.123,2.451h-2.408v2.429h2.4c.043.817.086,1.633.123,2.456h0c.779.043,1.559.086,2.354.135v2.413H320.9v2.429h-1.129c0-.9.016-1.806,0-2.7a3.97,3.97,0,0,0-4.149-4.052q-7-.008-13.99-.006c-.236,0-.473-.021-.7-.033a6.188,6.188,0,0,0,.107-.817c.006-4.251.016-8.5-.01-12.754-.006-.629.14-.861.817-.861q22.726.024,45.447.021a8.21,8.21,0,0,1,.952.119q0,23.459.006,46.914a4.432,4.432,0,0,1-.747.129q-8.894.008-17.788-.006A2.041,2.041,0,0,1,329.026,256.358Zm4.407-8.379v2.429h2.472v-2.4h2.44v2.4h2.487v-2.391h2.44v-4.944h-2.515v2.478h-4.907v2.413c-.812.011-1.626.016-2.44.027v-2.445H330.9v2.439C331.773,247.979,332.6,247.979,333.433,247.979Zm1.052-24.782h9.347v-9.325h-9.347c0,3.125,0,6.208,0,9.324Zm-29.1-9.346V223.2h9.33v-9.351Zm30.508,29.205h2.429v-2.407H335.89Z" transform="translate(-40.952 -29.563)" fill="#fefefe"/>
      <path id="Path_4210" data-name="Path 4210" d="M244.119,261.316h.383a7.442,7.442,0,0,1,.123.968q.008,15.3.006,30.6c-.162.076-.322.156-.484.231a2.8,2.8,0,0,1-.15-.645q-.008-14.931,0-29.86a11.748,11.748,0,0,1,.122-1.291Z" transform="translate(-16.014 -52.289)" fill="#37374f"/>
      <path id="Path_4211" data-name="Path 4211" d="M236.651,310.22c.076-.14.215-.274.215-.414-.006-.6-.086-1.194-.086-1.789q-.008-10.376-.006-20.745a1.791,1.791,0,0,1,.016-.511c.037-.113.2-.287.269-.274a.611.611,0,0,1,.349.287,1.12,1.12,0,0,1,.011.446q0,12.592-.006,25.191a8.661,8.661,0,0,1-.145,1.148c-.408.07-.494-.177-.494-.532.006-.645.011-1.29-.006-1.935a4.039,4.039,0,0,0-.119-.607Z" transform="translate(-12.798 -63.314)" fill="#383751"/>
      <path id="Path_4212" data-name="Path 4212" d="M253.9,286.621q-.008,16.478-.011,32.951c-.006.021-.006.049-.016.059a.463.463,0,0,1-.076.07.6.6,0,0,1-.043-.162c-.043-1.408-.123-2.821-.123-4.23q-.016-12.867,0-25.738c0-1.052.1-2.1.15-3.192C253.824,286.462,253.861,286.544,253.9,286.621Z" transform="translate(-20.231 -63.269)" fill="#b2e5fe"/>
      <path id="Path_4213" data-name="Path 4213" d="M385.132,256.606q0-23.459-.006-46.914a3.215,3.215,0,0,1,.134.661q.008,22.791,0,45.587a3.556,3.556,0,0,1-.128.667Z" transform="translate(-77.833 -29.677)" fill="#b2dadf"/>
      <path id="Path_4214" data-name="Path 4214" d="M244.007,261.316c-.043.43-.119.861-.119,1.29q-.008,14.931,0,29.86a3.114,3.114,0,0,0,.15.645c.162-.076.322-.156.484-.231h.119c.006.15.016.3.027.478h-.93V292.7q0-15.414.011-30.828C243.748,261.687,243.915,261.5,244.007,261.316Z" transform="translate(-15.901 -52.289)" fill="#24334c"/>
      <path id="Path_4215" data-name="Path 4215" d="M245.152,292.89h-.119q0-15.3-.006-30.6a7.439,7.439,0,0,0-.123-.968c.1.162.263.328.263.489q.008,15.5-.006,31.011A.268.268,0,0,1,245.152,292.89Z" transform="translate(-16.413 -52.294)" fill="#282444"/>
      <path id="Path_4216" data-name="Path 4216" d="M269.274,240.87c-.027.274-.08.548-.08.822q-.008,11.319-.006,22.637v.478c-.191-.145-.3-.226-.4-.312a3.314,3.314,0,0,0,.248-.87q.024-11.476.01-22.953c0-.355-.086-.753.4-.9-.043.209-.086.419-.123.624C269.3,240.552,269.285,240.708,269.274,240.87Z" transform="translate(-26.873 -42.855)" fill="#c2e9fb"/>
      <path id="Path_4217" data-name="Path 4217" d="M230.234,308.55a4.173,4.173,0,0,1,.113.669q.008,8.215,0,16.43a4.223,4.223,0,0,1-.107.677Q230.24,317.437,230.234,308.55Z" transform="translate(-9.987 -72.979)" fill="#262b40"/>
      <path id="Path_4218" data-name="Path 4218" d="M268.111,430.484a2.213,2.213,0,0,1-.248-.688q-.024-9.166-.011-18.338,0-3.634-.006-7.268a2.213,2.213,0,0,1,.248.688c.016,5.578.006,11.158.016,16.736.006,2.811.037,5.617.049,8.427a3.056,3.056,0,0,1-.049.443Z" transform="translate(-26.462 -114.869)" fill="#f4d099"/>
      <path id="Path_4219" data-name="Path 4219" d="M287.873,320.107c.076.135.22.263.22.4a9.07,9.07,0,0,1-4.423,7.944c-1.53.962-1.478.968-1.268,2.784.355,3.085.65,6.181.968,9.271.01.1,0,.2,0,.344-.22.011-.408.033-.6.033H262.807c-.191,0-.383-.027-.574-.043q.008-6.345.01-12.684a2.081,2.081,0,0,0-.049-.312c-1.478-1.859-2.94-3.736-4.434-5.578a7.856,7.856,0,0,1-1.871-4.353l.054-.006a6,6,0,0,0,.1-.753q.008-15.11,0-30.215c0-.457-.059-.919-.1-1.376l-.054-.006a2.741,2.741,0,0,1,2.972-2.408,7.45,7.45,0,0,1,3.52,1.052c.248.15.5.3.747.451a6.145,6.145,0,0,1,.252,1.177c.016,3.816.01,7.637.01,11.453h-1.951c.059.408.107.7.15,1.005l1.806.033q0,9.126.006,18.257c0,.209.033.425.049.634.064-.016.135-.027.2-.043.054.113.107.22.156.333a3.716,3.716,0,0,0,2.419,2.359l.532.177c.4.033.812.086,1.215.086q9.44.008,18.876,0C287.185,320.134,287.529,320.118,287.873,320.107Z" transform="translate(-21.222 -61.85)" fill="#f2d389"/>
      <path id="Path_4220" data-name="Path 4220" d="M271.433,238.924a3.616,3.616,0,0,1,1.806-1.822c.129-.043.252-.1.383-.134q12.447-.008,24.889-.011a6.3,6.3,0,0,1,1.655.162,2.916,2.916,0,0,1,2.08,2.665c.011.215.011.43.011.645q0,27.543.006,55.1a3.413,3.413,0,0,1-.806,2.44,3.156,3.156,0,0,1-2.429.995c-1.243.006-2.494.016-3.74.021-1.7-.006-3.4-.021-5.1-.016l-15.151.016c-.279-.01-.559-.016-.839-.037a3,3,0,0,1-2.838-2.391,5.729,5.729,0,0,1-.076-1.215q-.008-27.289.006-54.573C271.288,240.159,271.38,239.541,271.433,238.924Zm.909,52.256H301.17V245.275H272.342Zm14.495-50.219c-1.161,0-2.322.006-3.483,0-.344,0-.688.021-.71.457s.306.494.669.494q3.451-.008,6.9,0c.355,0,.688-.059.677-.489s-.355-.468-.7-.462c-1.12,0-2.232,0-3.35,0Z" transform="translate(-27.968 -41.618)" fill="#fefefe"/>
      <path id="Path_4221" data-name="Path 4221" d="M327.053,239.177a10.193,10.193,0,0,0-.451-1.188,8.383,8.383,0,0,0-.693-.983c1.978-.226,3.332.613,3.73,2.3a4.209,4.209,0,0,0-.1.677q-.008,27.934,0,55.868a4.183,4.183,0,0,0,.113.669c-.306,1.672-1.612,2.521-3.606,2.435l1.016-2.3c.021-.408.059-.812.059-1.22q.008-27.3,0-54.589C327.117,240.289,327.075,239.731,327.053,239.177Z" transform="translate(-51.894 -41.625)" fill="#becccf"/>
      <path id="Path_4222" data-name="Path 4222" d="M294.463,387.718c.765.226,1.052.548,1.059,1.311.016,1.7.021,3.391.006,5.09-.006.817-.287,1.112-1.215,1.424q-7.054-.008-14.108-.01c-1.011,0-2.015.021-3.026.027l-.107-.14c.14-.016.287-.037.333-.043a3.768,3.768,0,0,1-.215-.861c-.016-2.015.006-4.031-.021-6.046-.006-.489.107-.669.64-.669q8.2.056,16.4.059C294.292,387.874,294.378,387.771,294.463,387.718Z" transform="translate(-30.5 -107.656)" fill="#dde7e9"/>
      <path id="Path_4223" data-name="Path 4223" d="M343.091,251.449H340.63v7.357H338.1v-2.419h-3.644c0-.882-.006-1.758-.006-2.639.365.054.726.107,1.182.177v-2.564h2.526c-.043-.87-.08-1.672-.119-2.472.027-.049.049-.1.076-.145.817.064,1.639.135,2.472.2v-2.5c-.049-.554-.4-.064-.574-.177l.344-.344c-.247-.162-.489-.322-.736-.489a12.5,12.5,0,0,0,1.586.215,3.673,3.673,0,0,0,.414.064c.269-.006.742-.113.765-.043a2.391,2.391,0,0,1,.107.978,3.921,3.921,0,0,1-.252.822,4.153,4.153,0,0,1,3.644-.231c-.383.172-.753.333-1.112.494.006.08.011.166.016.248.564.064,1.124.129,1.774.2V246.8a1.071,1.071,0,0,1,1.172-1.225,1.339,1.339,0,0,0,.344-.107c-.006-.059-.016-.119-.021-.183-.242-.011-.484-.011-.726-.033a8.719,8.719,0,0,1-1.134-.145c-.451-.107-.515-.383-.3-.683a13.373,13.373,0,0,0,1.806-.016c.564-.08.714-.532.656-1.069a4.283,4.283,0,0,1-.016-.87c.1-.935-.145-1.209-1.1-1.209h-1.177a7.542,7.542,0,0,0,.107-1.042c-.01-.4.145-.521.527-.511.882.021,1.758.016,2.639,0,.328-.006.473.113.457.446-.016.383-.006.765-.006,1.2.3.016.527.027.757.037.806.037,1.612.076,2.462.119v2.462l.01-.011h-2.462v2.462l.01-.011h-2.44v5.03h-2.591C344.714,251.449,343.907,251.449,343.091,251.449Zm.043-2.5v2.391h2.37V248.95Z" transform="translate(-55.635 -42.826)" fill="#52596c"/>
      <path id="Path_4224" data-name="Path 4224" d="M307.661,396.474c-.113-1.069-.22-2.1-.333-3.182,1.51-.441,1.94-1.53,1.881-2.972-.059-1.392-.01-2.79-.016-4.187a2.319,2.319,0,0,0-2.537-2.633c-.086-.006-.166-.016-.328-.027-.1-1.016-.209-2.021-.312-3.036a7,7,0,0,1,6.546,3.714,9.612,9.612,0,0,1-.806,10A5.242,5.242,0,0,1,307.661,396.474Z" transform="translate(-43.181 -104.465)" fill="#dde7e9"/>
      <path id="Path_4225" data-name="Path 4225" d="M334.586,316.412a1.545,1.545,0,0,1-.113-.392q-.008-3.958-.006-7.911c0-.08.021-.162.049-.371a47.772,47.772,0,0,1,5.057.236,4.154,4.154,0,0,1,3.252,4.472,4.208,4.208,0,0,1-3.569,3.886c-1.011-.006-2.015-.021-3.026-.006C335.682,316.326,335.134,316.38,334.586,316.412Z" transform="translate(-55.644 -72.623)" fill="#f2d389"/>
      <path id="Path_4226" data-name="Path 4226" d="M334.564,291.712c-.033-.049-.1-.1-.1-.15-.006-2.784-.006-5.568-.006-8.454.511,0,.989-.01,1.473,0a31.33,31.33,0,0,1,3.338.119,4.245,4.245,0,0,1,.9,8.129,13.086,13.086,0,0,1-1.564.236c-1.118.037-2.236-.01-3.354.021-.468.011-.581-.166-.574-.6.016-1.871.006-3.736.006-5.605v-2.048h-.135Q334.567,287.531,334.564,291.712Z" transform="translate(-55.644 -61.832)" fill="#f2d389"/>
      <path id="Path_4227" data-name="Path 4227" d="M269.156,395.416l-.107.14h-6.057a1.535,1.535,0,0,1-1.53-1.194c0-1.871,0-3.746.006-5.617.236-.574.537-1.075,1.274-1.052a4.269,4.269,0,0,0,.669.107c1.65.011,3.3.022,4.95-.006.511-.01.714.107.7.669-.033,2.031-.006,4.068-.021,6.105a3.348,3.348,0,0,1-.209.784C268.914,395.373,269.032,395.395,269.156,395.416Z" transform="translate(-23.664 -107.647)" fill="#dde7e9"/>
      <path id="Path_4228" data-name="Path 4228" d="M338.106,242.429c-.027.049-.049.1-.076.145h-2.381v-2.1c.064-.011.129-.021.191-.037v.7c.312,0,.543.011.774,0,.978-.049,1.339-.618.983-1.543a.649.649,0,0,1,.527-.839,8.013,8.013,0,0,1,1.645.113,3.959,3.959,0,0,0,2.381-.226c.134-.059.162-.376.242-.574a2.967,2.967,0,0,0-.484-.033c-.183.021-.371.145-.543.119-.554-.086-1.107.172-1.688-.274-.333-.258-1.021-.021-1.547-.059-.2-.016-.548-.172-.548-.269-.016-.473-.392-.946.076-1.451.361-.392.123-.757-.414-.774-1.483-.049-1.53.006-1.4,1.494.011.123.064.247.086.371.064.484-.226.765-.731.736a4.456,4.456,0,0,0-.65.07c-.043.076-.08.145-.123.22a8.932,8.932,0,0,0,1.075,1.042c.457.328.5.451.076.839-.339-.006-.683-.011-1.021-.011-.033-.827-.07-1.66-.1-2.487h1.128v-2.429h2.487v-2.413c-.8-.043-1.58-.1-2.354-.135.6,0,1.2-.016,1.8,0,.371.011.548-.086.537-.5-.08-2.263.435-1.752-1.832-1.832-.414-.016-.511.166-.5.532.021.6.006,1.2,0,1.8-.043-.817-.086-1.633-.123-2.456,0-.812.006-1.626.006-2.429.043-.817.08-1.633.123-2.451,0,.806,0,1.612-.006,2.419v2.478h2.44v2.542c.882-.086,1.682-.162,2.487-.242.054-.054.156-.1.156-.156-.006-.962-.033-1.93-.037-2.891-.006-1.721-.006-1.715,1.752-1.6.339.021.451.145.441.468q-.08,3.321-.135,6.649c0,.037.162.076.253.113.049.037.1.07.145.107-.037.049-.076.1-.119.15a2.491,2.491,0,0,0-.574-.14c-.876-.016-1.758-.006-2.634-.006h-1.7v2.48h4.9l-.011-.011v2.4h2.462v-2.4l-.011.011h2.5v-2.462H345.4l.01.011c.043-.581.08-1.161.119-1.746.016-.252.021-.5.037-.8.191.011.349.021.511.027q2.1,0,4.208.006c.1.15.258.3.263.457.027.64.006,1.284,0,1.929-.231-.011-.457-.021-.757-.037,0-.435-.01-.817.006-1.2.016-.339-.129-.451-.457-.446-.882.011-1.758.016-2.639,0-.383-.011-.543.113-.527.511a8.586,8.586,0,0,1-.107,1.042h1.177c.956,0,1.2.274,1.1,1.209a4.3,4.3,0,0,0,.016.87c.059.537-.1.989-.656,1.069a13.375,13.375,0,0,1-1.806.016c-.215.3-.15.581.3.683a8.961,8.961,0,0,0,1.134.145c.242.021.484.021.726.033.006.059.016.119.021.183a1.339,1.339,0,0,1-.344.107,1.071,1.071,0,0,0-1.172,1.225v1.374c-.645-.076-1.209-.134-1.774-.2-.006-.08-.01-.166-.016-.248.365-.162.731-.322,1.112-.494a4.154,4.154,0,0,0-3.644.231,3.923,3.923,0,0,0,.253-.822,2.59,2.59,0,0,0-.107-.978c-.027-.07-.5.037-.765.043a3.674,3.674,0,0,1-.414-.064,12.486,12.486,0,0,1-1.586-.215c.247.162.489.322.736.489l-.344.344c.177.113.532-.383.574.177h-2.472C338.106,240.962,338.106,241.693,338.106,242.429Zm-1.225-.79a3.223,3.223,0,0,0-.677.113c-.14.054-.231.236-.349.361.14.086.274.242.414.248a7.479,7.479,0,0,0,1.2-.076c.107-.016.274-.162.274-.247a.438.438,0,0,0-.215-.333,2.385,2.385,0,0,0-.646-.066Z" transform="translate(-55.627 -36.509)" fill="#52596c"/>
      <path id="Path_4229" data-name="Path 4229" d="M334.458,269.387H338.1v2.419h2.531l-.011-.011c.011.822.021,1.639.033,2.462h-2.467c-.054.7-.1,1.311-.156,1.918-.757,0-1.516-.006-2.273-.006-.037-.629-.076-1.258-.113-1.892-.419-.021-.8-.043-1.182-.064C334.458,272.607,334.458,270.994,334.458,269.387Z" transform="translate(-55.639 -55.825)" fill="#fefefe"/>
      <path id="Path_4230" data-name="Path 4230" d="M270.72,240.394c-.049.618-.14,1.237-.14,1.849q-.008,27.289-.006,54.573a5.7,5.7,0,0,0,.076,1.215,3,3,0,0,0,2.837,2.391c.279.021.559.021.839.037v.242c-.527,0-1.052-.021-1.58.016-.166.01-.322.162-.478.252-.006.049-.01.1-.016.15a3.716,3.716,0,0,1-2.419-2.359c-.049-.113-.1-.22-.156-.333-.006-.191-.01-.376-.021-.564l.279.263c.006.107,0,.215.01.322.006.033.043.064.242.14a6.742,6.742,0,0,0,.166-.8c.021-.253-.027-.511-.027-.765q0-27.289-.01-54.573c0-.312.2-.784-.473-.812-.01.183-.033.365-.033.543q0,10.827.01,21.648a4.872,4.872,0,0,0,.247,1.052c-.059.006-.2.027-.383.049V242c0-.3-.016-.6-.021-.9.011-.156.027-.312.037-.468.129.226.252.451.383.693.162-.328.328-.669.494-1.011C270.623,240.341,270.671,240.368,270.72,240.394Z" transform="translate(-27.254 -43.09)" fill="#34354c"/>
      <path id="Path_4231" data-name="Path 4231" d="M333.148,335.615a3.4,3.4,0,0,1,3.047,3.456c-.119,2.273-1.951,3.627-4.741,3.443a3.975,3.975,0,0,1,.287-.328,3.978,3.978,0,0,0,1.4-3.187C333.143,337.889,333.148,336.771,333.148,335.615Z" transform="translate(-54.324 -84.834)" fill="#f3d289"/>
      <path id="Path_4232" data-name="Path 4232" d="M335.667,252.023v2.1h2.381c.037.8.076,1.6.119,2.472h-2.526v2.564c-.457-.07-.822-.123-1.182-.177.006-2.22.006-4.439.016-6.653a4.9,4.9,0,0,1,.1-.677c.339.006.683.011,1.021.011C335.613,251.781,335.64,251.9,335.667,252.023Z" transform="translate(-55.639 -48.054)" fill="#fdfdfc"/>
      <path id="Path_4233" data-name="Path 4233" d="M332.775,241.427c.01-.086.027-.172.037-.252h.086v45.714c.183.027.328.054.355.059a2.767,2.767,0,0,0-.322.827c-.033,1.5-.016,3-.016,4.495,0,1.516-.01,3.026.01,4.542.006.322.145.645.162.973a.956.956,0,0,1-.269.613c-.016-.1-.027-.2-.043-.312.006-.383.016-.774.016-1.161V242.777C332.8,242.33,332.786,241.879,332.775,241.427Z" transform="translate(-54.902 -43.467)" fill="#29353f"/>
      <path id="Path_4234" data-name="Path 4234" d="M327.8,240.9c.021.559.064,1.112.064,1.672q.008,27.3,0,54.589c0,.408-.037.812-.059,1.22a1.141,1.141,0,0,1-.191-.033c.021-3.3.08-6.6.08-9.9q.016-23.4.01-46.807A5.835,5.835,0,0,1,327.8,240.9Z" transform="translate(-52.64 -43.345)" fill="#252b3d"/>
      <path id="Path_4235" data-name="Path 4235" d="M332.474,298.344a4.179,4.179,0,0,1-.113-.669q-.008-27.934,0-55.868a4.21,4.21,0,0,1,.1-.677c.01.076.027.15.037.226-.01.107-.022.215-.022.322q0,27.709.006,55.411c0,.344.01.688.016,1.026C332.49,298.193,332.484,298.269,332.474,298.344Z" transform="translate(-54.719 -43.446)" fill="#c9d6de"/>
      <path id="Path_4236" data-name="Path 4236" d="M332.6,298.289c-.006-.344-.016-.688-.016-1.026q-.008-27.709-.006-55.411c0-.107.016-.215.021-.322.033.016.059.037.1.054.006.451.016.9.016,1.349V297.08c0,.383-.01.774-.016,1.161a.509.509,0,0,0-.095.048Z" transform="translate(-54.814 -43.621)" fill="#9aa7b1"/>
      <path id="Path_4237" data-name="Path 4237" d="M274.265,348.386c.006-.049.01-.1.016-.15q10.319,0,20.633-.006v.253q-9.675,0-19.354.01c-.253,0-.5.049-.757.07C274.62,348.5,274.442,348.439,274.265,348.386Z" transform="translate(-29.273 -90.36)" fill="#3a335b"/>
      <path id="Path_4238" data-name="Path 4238" d="M294.926,348.019q-10.319,0-20.633.006c.162-.086.318-.242.478-.252.527-.033,1.052-.011,1.58-.016h18.574Z" transform="translate(-29.286 -90.152)" fill="#353c3f"/>
      <path id="Path_4239" data-name="Path 4239" d="M340.818,279.957c.049-.607.1-1.215.156-1.918h2.466c.8,0,1.6-.006,2.4-.006l-2.423.135v2.187C342.549,280.226,341.683,280.091,340.818,279.957Z" transform="translate(-58.425 -59.612)" fill="#555d6e"/>
      <path id="Path_4240" data-name="Path 4240" d="M296.531,347.56H277.956v-.242l15.151-.016c1.7,0,3.4.01,5.1.016-.344.037-.688.07-1.026.113C296.961,347.469,296.746,347.517,296.531,347.56Z" transform="translate(-30.89 -89.953)" fill="#2c2c57"/>
      <path id="Path_4241" data-name="Path 4241" d="M269.718,310.243c.135-.043.269-.086.548-.172-.419.419-.532.736-.191,1.118a.836.836,0,0,1,.14.521q.008,8.078-.006,16.15c0,.191-.162.376-.247.564q0-8.159-.011-16.312a2.391,2.391,0,0,0-.236-.7C269.713,311.017,269.718,310.626,269.718,310.243Z" transform="translate(-27.279 -73.645)" fill="#34354c"/>
      <path id="Path_4242" data-name="Path 4242" d="M269.688,312.452a2.39,2.39,0,0,1,.236.7q.024,8.159.01,16.312v.258l-.279-.263a.227.227,0,0,0,.016-.119c.006-.236.006-.473.006-.71Q269.685,320.535,269.688,312.452Z" transform="translate(-27.254 -74.688)" fill="#3b305d"/>
      <path id="Path_4243" data-name="Path 4243" d="M255.8,319.785c-.037-.043-.07-.086-.107-.129V304.9q0-8.731.011-17.462l.1-.016.054.006c-.011.236-.027.473-.027.71V319c0,.258.021.516.033.774Z" transform="translate(-21.138 -63.725)" fill="#897c87"/>
      <path id="Path_4244" data-name="Path 4244" d="M255.6,287.445q-.008,8.731-.01,17.462V319.66a3,3,0,0,1-.123-.6q-.008-15.589-.006-31.177a3.939,3.939,0,0,1,.032-.435c0-.01.033-.021.049-.021a.113.113,0,0,1,.058.02Z" transform="translate(-21.038 -63.725)" fill="#372a35"/>
      <path id="Path_4245" data-name="Path 4245" d="M266.994,403.287c-.006.8-.021,1.586-.021,2.381q0,12.092-.01,24.18c0,.172-.156.344-.242.511a6.19,6.19,0,0,0,.119-.882q.008-12.738.01-25.48A3.7,3.7,0,0,1,266.994,403.287Z" transform="translate(-25.968 -114.476)" fill="#412c2e"/>
      <path id="Path_4246" data-name="Path 4246" d="M275.034,236.778c-.129.043-.252.1-.383.135l-.129-.129a3.173,3.173,0,0,1,.849-.248q12.214-.024,24.438-.01a.287.287,0,0,1,.242.123h-.688q-11.738,0-23.471.006a5.352,5.352,0,0,0-.859.123Z" transform="translate(-29.386 -41.43)" fill="#2b2a42"/>
      <path id="Path_4247" data-name="Path 4247" d="M294.463,387.7c-.08.054-.166.156-.248.156q-8.2-.016-16.4-.059c-.532-.006-.645.177-.64.669.021,2.015,0,4.031.021,6.046a3.9,3.9,0,0,0,.215.861c-.049.006-.191.027-.333.043v-7.685a1.076,1.076,0,0,1,.263-.054q8.4,0,16.806.006A1.243,1.243,0,0,1,294.463,387.7Z" transform="translate(-30.509 -107.639)" fill="#edf3fc"/>
      <path id="Path_4248" data-name="Path 4248" d="M269.83,286.525l.129.129q0,5.152-.006,10.309c-.08.086-.166.172-.248.258q-.008-5.038-.006-10.083A2.771,2.771,0,0,1,269.83,286.525Z" transform="translate(-27.273 -63.331)" fill="#3b305c"/>
      <path id="Path_4249" data-name="Path 4249" d="M275.221,348.75a7.223,7.223,0,0,1,.757-.07q9.674-.008,19.354-.011c.339.049.669.1,1.011.14-.344.01-.688.027-1.026.027H276.442C276.033,348.836,275.623,348.784,275.221,348.75Z" transform="translate(-29.692 -90.552)" fill="#332b26"/>
      <path id="Path_4250" data-name="Path 4250" d="M270.153,297.064q0-5.152.006-10.309c.086.166.242.333.242.5q.024,4.659,0,9.314C270.4,296.736,270.239,296.9,270.153,297.064Z" transform="translate(-27.472 -63.432)" fill="#34354c"/>
      <path id="Path_4251" data-name="Path 4251" d="M334.411,277.976c.383.021.765.037,1.182.064.037.634.076,1.263.113,1.892-1.414.037-1.408.037-1.3-1.387a5.041,5.041,0,0,0,.006-.569Z" transform="translate(-55.598 -59.587)" fill="#545a6d"/>
      <path id="Path_4252" data-name="Path 4252" d="M269.6,311.451q-.008,8.086-.01,16.177c0,.236-.006.473-.006.71a5.852,5.852,0,0,1-.113-.8q-.008-8.683-.01-17.365c.043,0,.086-.006.129-.006.006.043.01.086.016.123C269.609,310.672,269.6,311.059,269.6,311.451Z" transform="translate(-27.17 -73.687)" fill="#706138"/>
      <path id="Path_4253" data-name="Path 4253" d="M277.268,401.66c1.011-.01,2.015-.027,3.026-.027q7.054,0,14.108.01c.086.016.166.027.253.043.006.021.01.049.016.07a2.961,2.961,0,0,1-.306.027q-8.239,0-16.484-.006A3.078,3.078,0,0,1,277.268,401.66Z" transform="translate(-30.588 -113.751)" fill="#262c34"/>
      <path id="Path_4254" data-name="Path 4254" d="M270.153,395.417c-.123-.022-.242-.043-.322-.059a3.227,3.227,0,0,0,.209-.784c.016-2.031-.01-4.068.021-6.105.011-.559-.191-.677-.7-.669-1.65.027-3.3.016-4.95.006a4.067,4.067,0,0,1-.669-.107h6.417Q270.153,391.552,270.153,395.417Z" transform="translate(-24.661 -107.648)" fill="#f1f7fd"/>
      <path id="Path_4255" data-name="Path 4255" d="M334.64,291.909v-8.358h.134V285.6c0,1.871.01,3.736-.006,5.605-.006.435.1.613.574.6,1.118-.033,2.236.016,3.354-.021a13.093,13.093,0,0,0,1.564-.236,24.428,24.428,0,0,1-2.478.383C336.734,291.989,335.688,291.919,334.64,291.909Z" transform="translate(-55.719 -62.029)" fill="#f2dea6"/>
      <path id="Path_4256" data-name="Path 4256" d="M268.085,309.453c-.043,0-.086.006-.129.006s-.086.006-.129.006l-1.806-.033c.006-.882.006-.882.909-.882h.989C267.983,308.9,268.031,309.174,268.085,309.453Z" transform="translate(-25.662 -72.979)" fill="#34354c"/>
      <path id="Path_4257" data-name="Path 4257" d="M269.024,298.48c0-3.825.01-7.637-.011-11.453a5.424,5.424,0,0,0-.253-1.177l.376.263q.016,6.184.027,12.361C269.12,298.471,269.068,298.48,269.024,298.48Z" transform="translate(-26.86 -63.034)" fill="#f0e1b7"/>
      <path id="Path_4258" data-name="Path 4258" d="M267.031,362.68a2.09,2.09,0,0,1,.049.312q0,6.344-.011,12.684a2.383,2.383,0,0,1-.123-.532q-.008-5.99-.006-11.975A3.123,3.123,0,0,1,267.031,362.68Z" transform="translate(-26.065 -96.689)" fill="#412c2d"/>
      <path id="Path_4259" data-name="Path 4259" d="M269.452,298.676q-.016-6.184-.027-12.361c.1.037.191.08.279.119a3.088,3.088,0,0,0-.129.618q-.008,5.039.006,10.083c.021.435.054.87.054,1.311C269.641,298.52,269.522,298.6,269.452,298.676Z" transform="translate(-27.154 -63.239)" fill="#706039"/>
      <path id="Path_4260" data-name="Path 4260" d="M264.194,401.681h6.057a1.656,1.656,0,0,1-.408.113q-2.62.008-5.235,0A1.244,1.244,0,0,1,264.194,401.681Z" transform="translate(-24.862 -113.772)" fill="#272b39"/>
      <path id="Path_4261" data-name="Path 4261" d="M261.351,389.549c0,1.871,0,3.746-.006,5.617-.049-.033-.14-.064-.14-.1q-.008-2.717-.006-5.434a.129.129,0,0,1,.043-.1C261.265,389.517,261.314,389.544,261.351,389.549Z" transform="translate(-23.551 -108.45)" fill="#24263c"/>
      <path id="Path_4262" data-name="Path 4262" d="M334.678,323.1c.548-.033,1.1-.086,1.645-.1,1.011-.01,2.015.006,3.026.006-.72.037-1.446.1-2.166.107C336.344,323.137,335.511,323.11,334.678,323.1Z" transform="translate(-55.736 -79.31)" fill="#e6cdc6"/>
      <path id="Path_4263" data-name="Path 4263" d="M419.852,362.876c.242-3.682,3.945-6.509,8.557-6.481a10.028,10.028,0,0,1,4.7-7.911,9.452,9.452,0,0,1,6.159-1.424,9.6,9.6,0,0,1,6.417,3.316,10.239,10.239,0,0,1,2.487,6.9c2.919-1.327,5.665-1.258,8.18.693a7.084,7.084,0,0,1,2.714,4.9Q439.421,362.882,419.852,362.876Z" transform="translate(-93.043 -89.823)" fill="#fefefe"/>
      <path id="Path_4264" data-name="Path 4264" d="M406.03,189.136c.693.581,1.349,1.128,2.008,1.672.527.435.548.624.119,1.148-.1.119-.191.226-.287.344-.822,1.005-.817,1-1.822.119-.435-.383-.913-.71-1.333-1.1a.478.478,0,0,0-.726-.011,7.145,7.145,0,0,1-6.45,1.22,7.306,7.306,0,0,1-5.26-5.224,7.039,7.039,0,0,1,.645-5.578,7.289,7.289,0,0,1,5.418-3.81,7.207,7.207,0,0,1,6.6,2.214,7.4,7.4,0,0,1,1.419,8.169C406.251,188.55,406.159,188.814,406.03,189.136Zm-12.609-3.912a6.025,6.025,0,0,0,6.191,6.2,6.122,6.122,0,1,0-6.192-6.2Z" transform="translate(-80.83 -15.71)" fill="#52596c"/>
      <path id="Path_4265" data-name="Path 4265" d="M427.149,210.9c.586-.693,1.124-1.327,1.7-2.015l1.676,1.392c-.564.669-1.107,1.322-1.693,2.021C428.277,211.839,427.74,211.393,427.149,210.9Z" transform="translate(-96.24 -29.325)" fill="#f5ee80"/>
      <path id="Path_4266" data-name="Path 4266" d="M423.26,204.189c-.591.7-1.129,1.339-1.7,2.027-.559-.468-1.091-.913-1.666-1.4.574-.683,1.118-1.333,1.693-2.021C422.147,203.258,422.684,203.7,423.26,204.189Z" transform="translate(-93.061 -26.656)" fill="#f5ef7b"/>
      <path id="Path_4267" data-name="Path 4267" d="M431.519,214.3c.5-.6.989-1.182,1.51-1.811.629.5,1.4.9,1.4,1.779a1.446,1.446,0,0,1-.753,1.059C432.717,215.755,432.153,215.016,431.519,214.3Z" transform="translate(-98.154 -30.9)" fill="#53586d"/>
      <path id="Path_4268" data-name="Path 4268" d="M424.126,208.3c.543-.65,1.038-1.237,1.586-1.892.365.3.72.581,1.107.9-.543.645-1.059,1.252-1.59,1.892C424.836,208.869,424.508,208.609,424.126,208.3Z" transform="translate(-94.916 -28.239)" fill="#52586b"/>
      <path id="Path_4269" data-name="Path 4269" d="M216.722,200.089a8.229,8.229,0,0,1,8-7.8,7.938,7.938,0,0,1,6,2.494,8.5,8.5,0,0,1,2.316,6.089,6.216,6.216,0,0,1,6.524.287,5.882,5.882,0,0,1,2.521,4.128h-32.44C210.214,202.088,212.67,200.283,216.722,200.089Z" transform="translate(-0.968 -22.052)" fill="#fefefe"/>
      <path id="Path_4270" data-name="Path 4270" d="M210.055,215.791c3.429-.414,31.823-.236,32.092,0Z" transform="translate(-1.148 -32.24)" fill="#2a2941"/>
      <path id="Path_4271" data-name="Path 4271" d="M451.476,279.977q2.16-.9,4.321-1.8a2.167,2.167,0,0,0,.64-.287,2.227,2.227,0,0,0,.349-.618c-.22-.054-.478-.2-.65-.14-1.081.4-2.144.855-3.219,1.29l-2.854,1.148a1.779,1.779,0,0,0-.43-.3c-1.53-.548-3.06-1.081-4.591-1.626a1.836,1.836,0,0,1-.312-.22c.7-.269,1.3-.521,1.913-.736,2.859-1.026,5.746-1.983,8.567-3.1a4.008,4.008,0,0,1,3.06.263c2.22.784,4.434,1.59,6.649,2.391,1.075.383,2.15.779,3.375,1.22-1.091.4-2.037.747-2.993,1.085-2.784.989-5.562,1.984-8.358,2.94a1.831,1.831,0,0,1-1.086-.037C454.39,280.993,452.939,280.477,451.476,279.977Z" transform="translate(-103.939 -57.574)" fill="#52596d"/>
      <path id="Path_4272" data-name="Path 4272" d="M455.617,285.916c.827.287,1.655.564,2.478.855.909.318,1.8.669,2.72.956a1.452,1.452,0,0,0,.855-.043c1.962-.677,3.912-1.381,5.869-2.07.2-.07.4-.123.645-.2a3.582,3.582,0,0,1,.059.468c.006,1.5.021,3-.016,4.5a.929.929,0,0,1-.4.677,13.648,13.648,0,0,1-10.851,1.075c-.468-.14-.913-.365-1.37-.548C455.61,289.694,455.617,287.808,455.617,285.916Z" transform="translate(-108.703 -62.845)" fill="#52596d"/>
      <path id="Path_4273" data-name="Path 4273" d="M453.383,285.511c0,1.8-.006,3.6-.006,5.391-.408.156-.511-.123-.511-.419-.016-1.676-.006-3.359-.006-5.133C453.088,285.419,453.239,285.462,453.383,285.511Z" transform="translate(-107.502 -62.817)" fill="#51536d"/>
      <path id="Path_4274" data-name="Path 4274" d="M455.514,286.188c-.006,1.887-.006,3.779-.01,5.665-.006.306-.011.613-.016.913a1.023,1.023,0,0,1-.123-.328q.008-3.2.027-6.4C455.431,286.091,455.474,286.143,455.514,286.188Z" transform="translate(-108.598 -63.118)" fill="#707034"/>
      <path id="Path_4275" data-name="Path 4275" d="M373.426,150.96c1.9-.349,2.2-.3,2.977.543H354.341a2.4,2.4,0,0,1,1.365-1.53,2.341,2.341,0,0,1,2.053-.113c.634.287,1.22.7,1.913,1.1-.059-.425-.1-.812-.162-1.194a4.98,4.98,0,0,1,2.65-5.375,4.886,4.886,0,0,1,5.929,1.112.841.841,0,0,0,1.038.287,3.36,3.36,0,0,1,3.574.812,3.4,3.4,0,0,1,.968,3.418C373.6,150.315,373.517,150.6,373.426,150.96Z" transform="translate(-64.349 -0.832)" fill="#fefefe"/>
      <path id="Path_4276" data-name="Path 4276" d="M563.791,298.989c1.155-.478,2.327-.779,3.467.027a2.869,2.869,0,0,1,1.182,1.8H549.8a2.529,2.529,0,0,1,1.908-2.582c1.311-.376,2.177.5,3.257,1.177-.076-.543-.135-.968-.191-1.392a4.6,4.6,0,1,1,9.121-1.172A13.558,13.558,0,0,1,563.791,298.989Z" transform="translate(-149.965 -66.04)" fill="#fefefe"/>
      <path id="Path_4277" data-name="Path 4277" d="M544.8,239.951q.008,3.265.027,6.524c0,.236.016.468.021.7.08.043.162.129.242.129,1.28,0,2.553-.011,3.832-.021-.016.119.016.274-.054.344-2.3,2.542-4.6,5.079-6.971,7.681q-3.458-3.838-6.879-7.626a2.311,2.311,0,0,1,.628-.236c1.081-.054,2.166-.076,3.246-.107.049-.054.1-.1.145-.156a3.417,3.417,0,0,0,.1-.607c.011-1.822.006-3.634.006-5.461v-1.155C541.085,239.951,542.944,239.951,544.8,239.951Z" transform="translate(-143.488 -42.931)" fill="#f5ed7d"/>
      <path id="Path_4278" data-name="Path 4278" d="M539.041,246.947c-.049.054-.1.1-.145.156l-3.869-.049c.677-.037,1.354-.08,2.031-.1.574-.016,1.155-.006,1.806-.006v-7.474c.913,0,1.746.006,2.575,0,1.026-.011,2.058-.033,3.085-.037.1,0,.191.107.287.166h-5.773C539.041,242.105,539.041,244.53,539.041,246.947Z" transform="translate(-143.493 -42.704)" fill="#474815"/>
      <path id="Path_4279" data-name="Path 4279" d="M542.17,247.082V239.74h5.773a.15.15,0,0,1-.01.119h-5.654v1.155c0,1.822.006,3.634-.006,5.461a2.926,2.926,0,0,1-.1.607Z" transform="translate(-146.622 -42.838)" fill="#f6f8c1"/>
      <path id="Path_4280" data-name="Path 4280" d="M534.829,253.005l3.869.049c-1.081.033-2.166.054-3.246.107a2.247,2.247,0,0,0-.629.236c-.08-.1-.166-.183-.247-.274C534.663,253.085,534.749,253.042,534.829,253.005Z" transform="translate(-143.296 -48.649)" fill="#d4cfad"/>
      <path id="Path_4281" data-name="Path 4281" d="M556.582,252.91c-1.279.011-2.553.021-3.832.021-.08,0-.162-.086-.242-.129,1.2,0,2.4-.006,3.6.006a2.534,2.534,0,0,1,.478.1Z" transform="translate(-151.151 -48.56)" fill="#3b380b"/>
      <path id="Path_4282" data-name="Path 4282" d="M515.1,164.365l-.65,2.085h-6.325c.006.287.01.586.016.876a3.962,3.962,0,0,0,.607.1c1.773.011,3.539.016,5.315.021-.172.511-.344,1.026-.511,1.537a3.5,3.5,0,0,1-.9.248c-2.311.021-4.616.006-6.928.011a4.046,4.046,0,0,0-.554.08c-.162-.634-.355-1.258-.478-1.9-.344-1.721-.645-3.451-.995-5.17-.113-.543.021-.753.586-.753,3.671.011,7.342.006,11.013.011.634,0,.726.134.543.726-.333,1.091-.333,1.091-1.516,1.091-1.44,0-2.876-.006-4.316.006a3.123,3.123,0,0,0-.574.119c-.006.252-.011.5-.016.753a4.043,4.043,0,0,0,.669.123C511.762,164.354,513.433,164.36,515.1,164.365Z" transform="translate(-129.757 -8.568)" fill="#f5ed7c"/>
      <path id="Path_4283" data-name="Path 4283" d="M506.354,175.161a3.821,3.821,0,0,1,.554-.08c2.312-.006,4.616.006,6.928-.011a3.444,3.444,0,0,0,.9-.248c-.191.162-.376.457-.564.462-2.509.033-5.025.021-7.535.011a.832.832,0,0,1-.279-.134Z" transform="translate(-130.934 -14.403)" fill="#f7f398"/>
      <path id="Path_4284" data-name="Path 4284" d="M513.919,165.744c.006-.252.01-.5.016-.753.1.172.191.344.349.624.978,0,2.064-.016,3.156.006.714.011,1.435.076,2.15.113C517.7,165.737,515.806,165.737,513.919,165.744Z" transform="translate(-134.247 -10.096)" fill="#363514"/>
      <path id="Path_4285" data-name="Path 4285" d="M511.621,171.188c-.006-.287-.01-.586-.016-.876.01.209.021.425.033.726h.693q2.338,0,4.671.006a2.443,2.443,0,0,1,.543.113Z" transform="translate(-133.233 -12.426)" fill="#4c4f18"/>
      <path id="Path_4286" data-name="Path 4286" d="M511.633,171.843l5.929-.033a1.4,1.4,0,0,1-.006.15c-1.773-.006-3.539-.006-5.315-.021a3.4,3.4,0,0,1-.608-.1Z" transform="translate(-133.246 -13.084)" fill="#f5f7be"/>
      <path id="Path_4287" data-name="Path 4287" d="M513.919,166.322c1.887-.006,3.779-.011,5.664-.011,0,.054.006.107.01.162-1.672-.006-3.338-.011-5.009-.027A4.041,4.041,0,0,1,513.919,166.322Z" transform="translate(-134.247 -10.675)" fill="#f6f5cc"/>
      <path id="Path_4288" data-name="Path 4288" d="M519.633,264.757H516.6c1.721-1.9,3.354-3.7,5.014-5.535,1.65,1.817,3.262,3.6,5,5.519h-3v5.412h-3.982Z" transform="translate(-135.421 -51.372)" fill="#da1e37"/>
      <path id="Path_4289" data-name="Path 4289" d="M523.715,227.614q.628.588,1.258,1.166c-.677.574-1.317.607-1.677.14C522.973,228.506,523.124,228.038,523.715,227.614Z" transform="translate(-138.282 -37.527)" fill="#f7f8f9"/>
      <path id="Path_4290" data-name="Path 4290" d="M535.3,160.933c-.021.1-.01.408-.162.521a1.639,1.639,0,0,1-.925.361c-.145,0-.328-.4-.419-.65a2.514,2.514,0,0,1-.016-.64.7.7,0,0,1,.726-.855c.574-.054.72.349.8.806a4.05,4.05,0,0,1,0,.457Z" transform="translate(-142.94 -7.764)" fill="#fbfbfc"/>
      <path id="Path_4291" data-name="Path 4291" d="M513.5,227.618c0,.172.07.392-.016.5-.183.248-.419.564-.677.607a.837.837,0,0,1-.714-.425,2.486,2.486,0,0,1,0-1.243.7.7,0,0,1,.9-.494c.435.08.548.344.516.731a3.1,3.1,0,0,0,0,.318A.016.016,0,0,1,513.5,227.618Z" transform="translate(-133.411 -37.059)" fill="#fafafb"/>
      <path id="Path_4292" data-name="Path 4292" d="M429.573,191.185c-.043.248,0,.574-.145.726a1.138,1.138,0,0,1-.812.349c-.215-.021-.468-.339-.559-.581a1.944,1.944,0,0,1-.021-.882.751.751,0,0,1,.882-.714c.527.037.677.361.624.839a2.071,2.071,0,0,0,0,.258.068.068,0,0,0,.032,0Z" transform="translate(-96.611 -21.086)" fill="#fafafa"/>
      <path id="Path_4293" data-name="Path 4293" d="M454.307,191.169c.006.742-.274,1.139-.817,1.155-.574.021-.892-.365-.9-1.075-.011-.753.252-1.124.817-1.148Q454.3,190.08,454.307,191.169Z" transform="translate(-107.383 -21.096)" fill="#fbfcfc"/>
      <path id="Path_4294" data-name="Path 4294" d="M499.209,227.669c.006.7-.328,1.128-.861,1.134s-.9-.451-.9-1.118.344-1.124.887-1.124S499.2,226.96,499.209,227.669Z" transform="translate(-127.029 -37.066)" fill="#fafbfa"/>
      <path id="Path_4295" data-name="Path 4295" d="M550.786,228.819c.2.586-.016.925-.574.962-.209.016-.64-.231-.629-.318C549.673,228.722,550.318,228.953,550.786,228.819Z" transform="translate(-149.868 -38.055)" fill="#f7f7f9"/>
      <path id="Path_4296" data-name="Path 4296" d="M472.021,313.674h-1.559a.743.743,0,0,1,.765-.765C471.725,312.884,471.945,313.179,472.021,313.674Z" transform="translate(-115.213 -74.888)" fill="#f7f8f8"/>
      <path id="Path_4297" data-name="Path 4297" d="M506.253,228.847c.2.613-.064.919-.6.946-.209.011-.624-.247-.613-.328C505.157,228.735,505.775,228.953,506.253,228.847Z" transform="translate(-130.36 -38.067)" fill="#f6f6f9"/>
      <path id="Path_4298" data-name="Path 4298" d="M478.879,315.13c.059.72-.172,1.059-.7,1.038-.191-.006-.537-.258-.521-.361C477.739,315.066,478.4,315.329,478.879,315.13Z" transform="translate(-118.362 -75.861)" fill="#f5f6f8"/>
      <path id="Path_4299" data-name="Path 4299" d="M466.818,190.828c.107-.564.414-.827.9-.8a.648.648,0,0,1,.661.8Z" transform="translate(-113.617 -21.062)" fill="#eeeef3"/>
      <path id="Path_4300" data-name="Path 4300" d="M562.34,227.288c.129-.527.392-.839.9-.8a.687.687,0,0,1,.683.8Z" transform="translate(-155.456 -37.033)" fill="#eaeaed"/>
      <path id="Path_4301" data-name="Path 4301" d="M360.634,226.657v-9.325h9.347v9.325Zm1.284-8.083v6.79H368.7v-6.79Z" transform="translate(-67.105 -33.023)" fill="#52586c"/>
      <path id="Path_4302" data-name="Path 4302" d="M308.847,217.295h9.334v9.351h-9.334Zm1.252,8.051h6.839v-6.756H310.1Z" transform="translate(-44.421 -33.007)" fill="#52586c"/>
      <path id="Path_4303" data-name="Path 4303" d="M365.556,251.647v2.445H370.5v2.537h-2.44v2.376h-2.487v-2.354h-2.451v-5l-.011.011h2.462Z" transform="translate(-68.189 -48.054)" fill="#52586d"/>
      <path id="Path_4304" data-name="Path 4304" d="M363.082,274.188v-2.413h4.907V269.3H370.5v4.944h-2.44v2.391h-2.487v-2.4h-2.44A.113.113,0,0,1,363.082,274.188Z" transform="translate(-68.177 -55.787)" fill="#52596d"/>
      <path id="Path_4305" data-name="Path 4305" d="M367.6,245.868c-.049.006-.1.006-.14.011l.01.01v-2.462l-.01.011H369.9v-4.96h2.548v.64c0,2.08.006,4.16,0,6.245a3.03,3.03,0,0,1-.08.484c-.059-.049-.113-.134-.172-.134q-1.959.008-3.921.043a6.054,6.054,0,0,0-.669.112Z" transform="translate(-70.095 -42.285)" fill="#52596d"/>
      <path id="Path_4306" data-name="Path 4306" d="M349.827,260.6c.812,0,1.626.006,2.435.006v2.316h2.515v2.526H352.29v-2.37h-2.464Zm3.709,4.772c1.177,0,1.177,0,1.177-1.128,0-1.188,0-1.188-1.177-1.188-1.148,0-1.148,0-1.148,1.161s0,1.155,1.148,1.155Z" transform="translate(-62.371 -51.975)" fill="#51586c"/>
      <path id="Path_4307" data-name="Path 4307" d="M347.934,223.47c-.515-.043-1.032-.1-1.553-.135-.274-.016-.554-.006-.887-.006v-2.477h2.37c.059.839.123,1.655.183,2.472Z" transform="translate(-60.474 -34.565)" fill="#53586b"/>
      <path id="Path_4308" data-name="Path 4308" d="M356.8,276.126h-2.531v-2.435h2.515v2.445Z" transform="translate(-64.315 -57.71)" fill="#52586b"/>
      <path id="Path_4309" data-name="Path 4309" d="M358.74,278.021c.812-.01,1.626-.016,2.44-.027l.049.049v2.4h-2.472v-2.426Z" transform="translate(-66.276 -59.595)" fill="#51586b"/>
      <path id="Path_4310" data-name="Path 4310" d="M336.706,227.727c0-.806,0-1.612.006-2.419H339.1v2.419Z" transform="translate(-56.624 -36.518)" fill="#51586c"/>
      <path id="Path_4311" data-name="Path 4311" d="M363.13,267.387v-2.408h2.429v2.408Z" transform="translate(-68.198 -53.894)" fill="#52576c"/>
      <path id="Path_4312" data-name="Path 4312" d="M349.819,225.4c.037-.049.076-.1.113-.14h2.333v2.448H349.8l.01.011C349.814,226.944,349.814,226.179,349.819,225.4Z" transform="translate(-62.358 -36.497)" fill="#52576c"/>
      <path id="Path_4313" data-name="Path 4313" d="M334.619,229.67c0,.812-.006,1.626-.006,2.429h-2.4V229.67Z" transform="translate(-54.655 -38.427)" fill="#52586b"/>
      <path id="Path_4314" data-name="Path 4314" d="M347.857,276.118c-.8,0-1.6.006-2.4.006-.01-.822-.021-1.639-.033-2.462h2.429Z" transform="translate(-60.444 -57.697)" fill="#51586c"/>
      <path id="Path_4315" data-name="Path 4315" d="M349.815,243.056l.119-.15c.731.011,1.457.016,2.187.027l-.01-.011c.043.822.086,1.639.129,2.462l.01-.01h-2.462l.011.01C349.8,244.6,349.81,243.831,349.815,243.056Z" transform="translate(-62.355 -44.225)" fill="#51586c"/>
      <path id="Path_4316" data-name="Path 4316" d="M347.885,236.979c-.086-.037-.253-.076-.253-.113q.049-3.321.135-6.649c.006-.322-.1-.441-.441-.468-1.752-.113-1.758-.123-1.752,1.6.006.962.033,1.93.037,2.891,0,.054-.1.1-.156.156v-4.767H347.9l-.011-.011Q347.891,233.3,347.885,236.979Z" transform="translate(-60.457 -38.406)" fill="#484b56"/>
      <path id="Path_4317" data-name="Path 4317" d="M367.711,251.51a4.162,4.162,0,0,1,.669-.107c1.306-.027,2.612-.037,3.921-.043.059,0,.113.086.172.135Z" transform="translate(-70.204 -47.928)" fill="#3f444d"/>
      <path id="Path_4318" data-name="Path 4318" d="M359.333,238.484q-2.1,0-4.208-.006C356.522,238.478,357.931,238.478,359.333,238.484Z" transform="translate(-64.692 -42.285)" fill="#52596c"/>
      <path id="Path_4319" data-name="Path 4319" d="M255.964,319.792c-.01-.258-.033-.515-.033-.774V288.151c0-.236.016-.473.027-.71.033.457.1.919.1,1.376q.008,15.11,0,30.215C256.05,319.287,255.991,319.54,255.964,319.792Z" transform="translate(-21.243 -63.734)" fill="#fedf96"/>
      <path id="Path_4320" data-name="Path 4320" d="M269.234,310.163c.043,0,.086-.006.129-.006q0,8.683.01,17.365a5.746,5.746,0,0,0,.113.8.22.22,0,0,1-.016.119c.006.191.011.376.021.564-.064.016-.135.027-.2.043-.016-.209-.049-.425-.049-.634Q269.229,319.3,269.234,310.163Z" transform="translate(-27.07 -73.683)" fill="#f0e1b7"/>
      <path id="Path_4321" data-name="Path 4321" d="M273.165,297.661V251.756h28.829v45.905Zm.9-44.807a4.51,4.51,0,0,0-.14.79q-.008,20.96-.006,41.916c0,.322-.027.64-.037.962,0,0,.119.006.183.01a2.534,2.534,0,0,0,.634.172q12.827.016,25.658.01h.661V252.7H275.03c-.236,0-.468-.027-.7-.043.231-.021.468-.054.7-.054q12.407-.008,24.819,0h.613a1.522,1.522,0,0,0-.71-.119q-12.665-.033-25.324-.059c-.08,0-.162.166-.242.258C274.143,252.731,274.105,252.795,274.068,252.854Zm27.1,43.533c.021.011.037.016.059.027V253.037h-.059Zm.574,1.177a.62.62,0,0,1,.027-.059H273.836v.059Z" transform="translate(-28.791 -48.1)" fill="#373750"/>
      <path id="Path_4322" data-name="Path 4322" d="M295.694,244.082c1.118,0,2.236.006,3.354,0,.349,0,.693.033.7.462s-.328.489-.677.489q-3.451-.008-6.9,0c-.355,0-.683-.054-.669-.494s.365-.457.71-.457C293.373,244.088,294.533,244.082,295.694,244.082Z" transform="translate(-36.826 -44.74)" fill="#36374d"/>
      <path id="Path_4323" data-name="Path 4323" d="M340.971,253.995v-2.3h2.472v2.5C342.61,254.13,341.788,254.06,340.971,253.995Z" transform="translate(-58.492 -48.075)" fill="#fcfdfd"/>
      <path id="Path_4324" data-name="Path 4324" d="M365.563,247.3v2.462H363.1V247.3Z" transform="translate(-68.186 -46.148)" fill="#fdfdfc"/>
      <path id="Path_4325" data-name="Path 4325" d="M349.9,256.151h2.37v2.391H349.9Z" transform="translate(-62.404 -50.027)" fill="#fcfcfc"/>
      <path id="Path_4326" data-name="Path 4326" d="M335.651,248.3c-.027-.123-.054-.242-.08-.365.43-.383.383-.511-.076-.839a9.365,9.365,0,0,1-1.075-1.042c.043-.076.08-.145.123-.22a3.822,3.822,0,0,1,.65-.07c.5.027.8-.252.731-.736-.016-.123-.07-.247-.086-.371-.134-1.489-.086-1.543,1.4-1.494.543.016.779.383.414.774-.468.5-.1.973-.076,1.451.006.1.355.258.548.269.527.037,1.215-.191,1.547.059.581.446,1.134.191,1.688.274.172.027.355-.1.543-.119a2.467,2.467,0,0,1,.484.033c-.076.2-.1.515-.242.574a3.956,3.956,0,0,1-2.381.226,8.38,8.38,0,0,0-1.645-.113.649.649,0,0,0-.527.839c.355.919-.01,1.489-.983,1.543-.231.011-.462,0-.774,0v-.7C335.778,248.277,335.715,248.292,335.651,248.3Z" transform="translate(-55.623 -44.334)" fill="#52596c"/>
      <path id="Path_4327" data-name="Path 4327" d="M346.011,243.058c-.006.774-.011,1.553-.016,2.327h-4.9v-2.469h1.7c.876,0,1.758-.011,2.634.006a2.532,2.532,0,0,1,.58.137Z" transform="translate(-58.546 -44.227)" fill="#fdfdfd"/>
      <path id="Path_4328" data-name="Path 4328" d="M354.044,245.4c-.043-.822-.086-1.639-.129-2.462h2.634V245.4Z" transform="translate(-64.164 -44.237)" fill="#fcfcfc"/>
      <path id="Path_4329" data-name="Path 4329" d="M349.789,247.286h2.462v2.4h-2.462Z" transform="translate(-62.355 -46.143)" fill="#fdfdfc"/>
      <path id="Path_4330" data-name="Path 4330" d="M336.7,236.549c0-.6.016-1.2,0-1.8-.01-.371.086-.548.5-.532,2.268.08,1.752-.435,1.832,1.832.016.414-.166.511-.537.5-.6-.021-1.194-.006-1.8-.006Z" transform="translate(-56.623 -40.421)" fill="#52586b"/>
      <path id="Path_4331" data-name="Path 4331" d="M337.995,254.382a2.671,2.671,0,0,1,.65.064.42.42,0,0,1,.215.333c0,.086-.166.236-.274.247a7.477,7.477,0,0,1-1.2.076c-.14-.006-.279-.162-.414-.248.113-.123.2-.306.349-.361a2.582,2.582,0,0,1,.672-.111Z" transform="translate(-56.741 -49.252)" fill="#52596c"/>
      <path id="Path_4332" data-name="Path 4332" d="M394.551,186.3a6.115,6.115,0,1,1,5.991,6.2,6.1,6.1,0,0,1-5.991-6.2Zm9.647,3.66a5.055,5.055,0,0,0-6.67-7.578c-.191.166-.4.318-.581.5a5.069,5.069,0,0,0,.236,7.213,5.017,5.017,0,0,0,7.015-.133Z" transform="translate(-81.959 -16.788)" fill="#37374f"/>
      <path id="Path_4333" data-name="Path 4333" d="M362.919,219.542H369.7v6.79h-6.783Zm5.26,4.767v-3.2h-3.724v3.73c1.166,0,2.3.011,3.429-.016.1,0,.191-.248.3-.383Z" transform="translate(-68.106 -33.991)" fill="#fdfdfd"/>
      <path id="Path_4334" data-name="Path 4334" d="M311.075,226.355V219.6h6.836v6.756Zm1.543-1.521h3.767V221.11h-3.767Z" transform="translate(-45.397 -34.017)" fill="#fdfdfd"/>
      <path id="Path_4335" data-name="Path 4335" d="M355.533,267.285c-1.148,0-1.148,0-1.148-1.155s0-1.161,1.148-1.161c1.177,0,1.177,0,1.177,1.188C356.711,267.285,356.711,267.285,355.533,267.285Z" transform="translate(-64.37 -53.889)" fill="#51586b"/>
      <path id="Path_4336" data-name="Path 4336" d="M275.035,253.349c.236.016.468.043.7.043h25.993V297.41h-.661q-12.827,0-25.658-.011a2.532,2.532,0,0,1-.634-.172c.011-.191.033-.383.033-.574V254.129c0-.191-.021-.383-.037-.574.037-.059.076-.123.119-.183A1.333,1.333,0,0,0,275.035,253.349Zm16.489,22.127h1.155v-1.155c-.371-.064-.747-.135-1.148-.2v-1.076h1.188v-2.472h1.266v2.478h1.148v.515c0,.806.01.8.839.765.376-.016.489-.172.468-.515-.016-.248-.006-.494-.006-.812h1.243v-1.263h-2.521l-.033-1.161h2.531V266.84H296.4V269.3h-1.284c.016-.414.037-.822.059-1.284h-1.237V266.84h-2.435c-.07.371-.14.742-.22,1.166h-1.052v-3.676h1.177v-1.22h-1.2v-1.258H288.97v1.243h1.252c-.022.376-.049.757-.07,1.118-.419.064-.806.119-1.194.177V266.8h-1.19c-.049-.408-.1-.817-.145-1.231-.376-.01-.757-.027-1.134-.037-.01-.383-.021-.765-.027-1.148.414-.027.833-.059,1.225-.086v-1.188h-1.268v1.1c-.425.059-.812.119-1.2.172v1.194c.446-.021.861-.037,1.284-.059-.021.414-.043.827-.07,1.311h1.2v1.124c-.408.027-.726.043-1.042.064-.076.408-.15.817-.236,1.268h-1.174v-2.494l-1.161.07c-.049.365-.1.726-.145,1.091-.376.054-.757.113-1.134.166-.006.383-.01.774-.01,1.167-.532,0-1.069.016-1.6-.016a8.537,8.537,0,0,1-.962-.156c.037-.365.08-.736.119-1.1h1.118v-1.22c-.408.021-.765.037-1.123.054-.059.376-.119.757-.183,1.177H279v1.231h1.172v1.3h2.574c.006.383.016.779.021,1.167.371.043.742.08,1.134.123v1.2h-1.161V274.3h1.215v1.258h3.757v1.194h1.225c0,.435,0,.861-.006,1.3h-1.215v1.2h1.205V278.04h1.252v-1.28h-1.252v-3.752h1.3v1.311h1.155c.066.388.109.776.152,1.157Zm1.29,3.73c.344,0,.688-.006,1.032-.006.064-.376.123-.753.191-1.124h1.139V279.2h1.274v-1.177h1.225v-2.5h-1.263v1.22H293.95v1.182h-1.268v-1.194c-.408.022-.779.037-1.155.054-.043.4-.086.8-.134,1.274h1.22c.073.428.137.788.2,1.143Zm-14.168-3.736v4.686h4.671v-4.686Zm4.676-9.946v-4.7h-4.655v4.7Zm9.946-4.724v4.714h4.659V260.8Zm-6.821,18.429v-1.254H285.21v-1.2h-1.22v2.451Zm-4.993-7.406h-1.237v1.182h1.239Zm12.517,3.693h1.182v-1.2h-1.182Z" transform="translate(-29.495 -48.799)" fill="#fefefe"/>
      <path id="Path_4337" data-name="Path 4337" d="M274.633,253.713c.01.191.037.383.037.574V296.81c0,.191-.021.383-.033.574-.064-.006-.183-.01-.183-.01.006-.322.037-.64.037-.962q0-20.961.006-41.916a4.059,4.059,0,0,1,.135-.782Z" transform="translate(-29.357 -48.959)" fill="#2a2840"/>
      <path id="Path_4338" data-name="Path 4338" d="M322.991,297.389V254.038h.059v43.378a.522.522,0,0,0-.059-.027Z" transform="translate(-50.616 -49.101)" fill="#2a2943"/>
      <path id="Path_4339" data-name="Path 4339" d="M302.265,333.226h-27.9v-.059h27.931A.646.646,0,0,1,302.265,333.226Z" transform="translate(-29.315 -83.762)" fill="#2c2c3e"/>
      <path id="Path_4340" data-name="Path 4340" d="M275.128,253.161l-.145.016c.08-.1.162-.258.242-.258q12.665.016,25.324.059a1.51,1.51,0,0,1,.71.119H275.826C275.589,253.107,275.358,253.148,275.128,253.161Z" transform="translate(-29.588 -48.611)" fill="#2b2b40"/>
      <path id="Path_4341" data-name="Path 4341" d="M404.987,191.614a5.069,5.069,0,0,1-7.25-7.077c.177-.183.383-.333.581-.5.215.242.425.484.64.726-.2.1-.414.191-.661.3.1.269.2.516.287.765.419-.134.779-.252,1.139-.365.263.209.527.425.79.634-1.091.392-2.182.779-3.3,1.182.119.306.2.532.3.774l3.515-1.166,2.1,2.487C403.745,190.115,404.363,190.867,404.987,191.614Z" transform="translate(-82.747 -18.441)" fill="#a8dff3"/>
      <path id="Path_4342" data-name="Path 4342" d="M402.048,185.247c-.263-.209-.527-.425-.79-.634l2.494-.887c-.113-.3-.209-.548-.306-.79-1.026.339-1.994.661-2.965.983-.215-.242-.425-.484-.64-.726a5.055,5.055,0,0,1,6.67,7.578c-.624-.747-1.243-1.5-1.865-2.241-.693-.833-1.4-1.655-2.1-2.487l3.268-1.161c-.123-.306-.22-.548-.318-.784C404.311,184.5,403.176,184.872,402.048,185.247Z" transform="translate(-84.28 -17.595)" fill="#fdfdfe"/>
      <path id="Path_4343" data-name="Path 4343" d="M369.467,225.605v.134a2.079,2.079,0,0,1-.64.242c-.817.027-1.633.006-2.451.016-.4.006-.521-.191-.521-.559.01-.817.016-1.633,0-2.451-.011-.371.14-.489.494-.478.753.016,1.505.043,2.257-.006.607-.043.765.166.753.757C369.338,224.04,369.424,224.824,369.467,225.605Z" transform="translate(-69.392 -35.286)" fill="#52596c"/>
      <path id="Path_4344" data-name="Path 4344" d="M369.379,225.524c-.043-.784-.129-1.569-.107-2.349.016-.586-.145-.8-.753-.757-.747.054-1.505.027-2.257.006-.355-.011-.5.107-.494.478.016.817.01,1.633,0,2.451-.006.365.119.564.521.559.817-.011,1.633.016,2.451-.016a2.225,2.225,0,0,0,.64-.242c-.1.135-.191.383-.3.383-1.134.027-2.268.016-3.429.016v-3.736h3.725C369.379,223.4,369.379,224.458,369.379,225.524Z" transform="translate(-69.305 -35.206)" fill="#484b58"/>
      <path id="Path_4345" data-name="Path 4345" d="M313.82,226.016V222.3h3.767v3.719Z" transform="translate(-46.6 -35.198)" fill="#52596c"/>
      <path id="Path_4346" data-name="Path 4346" d="M295.171,287.262h-1.225v-1.194h-3.758v-1.258h-1.215v-1.258h1.161v-1.188c-.392-.043-.765-.086-1.134-.123.371,0,.742.006,1.118.006.425.021.844.037,1.333.064v2.44h1.237v-1.219h1.188v-1.215H292.7v-1.243h-1.268V279.79l-.006.01H292.6c.086-.451.162-.861.236-1.268.328.049.656.1.968.145.076.383.145.742.215,1.1.817,0,1.633.006,2.451.006v1.258h1.118l.162-1.258h1.155v-1.148c-.376-.076-.747-.15-1.161-.231v-1.071h2.435v1.177h1.237c-.021.462-.037.87-.059,1.284l.011-.01H300.2v1.3l.006-.016H298.94v2.472h-1.188l-.145-1.161h-1.148v1.148l.011-.01h-1.3v3.752Zm-1.177-6.159v1.134h1.148V281.1Z" transform="translate(-35.716 -59.306)" fill="#37374f"/>
      <path id="Path_4347" data-name="Path 4347" d="M281.667,292.713h4.667V297.4h-4.667Zm4.052.65h-3.391v3.386h3.391Z" transform="translate(-32.515 -66.041)" fill="#37364c"/>
      <path id="Path_4348" data-name="Path 4348" d="M286.36,271.35h-4.655v-4.7h4.655Zm-3.921-4.112c-.064,1.161-.135,2.322-.2,3.467h3.539v-3.418Z" transform="translate(-32.532 -54.626)" fill="#36354d"/>
      <path id="Path_4349" data-name="Path 4349" d="M307.69,266.6h4.657v4.715H307.69Zm4.052.629c.006-.021.021-.037.021-.059s-.016-.049-.027-.043q-1.669.04-3.338.1-.08,1.733-.162,3.455h3.5c0-1.187,0-2.32,0-3.45Z" transform="translate(-43.914 -54.605)" fill="#37364c"/>
      <path id="Path_4350" data-name="Path 4350" d="M305.633,295.2H306.9v-1.182h2.462V292.8h1.268v2.5H309.4v1.173h-1.274v-1.123h-1.139c-.059.365-.123.747-.191,1.123a3.781,3.781,0,0,0-.011-.7c-.027-.156-.14-.4-.248-.414a1.052,1.052,0,0,0-.71.113c-.1.076-.016.4-.016.656.231-.269.344-.4.462-.537.119.22.231.441.3.559-.349.145-.581.242-.806.339-.064-.355-.129-.714-.2-1.148h-1.216c.054-.478.1-.876.135-1.274C304.482,295.2,304.482,295.2,305.633,295.2Z" transform="translate(-42.448 -66.08)" fill="#37374d"/>
      <path id="Path_4351" data-name="Path 4351" d="M310.235,285.243h2.521v1.263h-1.243c0,.318-.016.564.006.812.021.344-.1.5-.468.515-.827.033-.839.037-.839-.765v-.515c-.318-.08-.634-.162-1.026-.258v-1.376c.006-.774.1-.839.812-.6C310.074,284.646,310.154,284.942,310.235,285.243Z" transform="translate(-44.567 -62.313)" fill="#37374f"/>
      <path id="Path_4352" data-name="Path 4352" d="M311,279.8h1.284v-2.462h1.252v3.739h-2.527l.006.016v-1.3Z" transform="translate(-45.364 -59.306)" fill="#37384f"/>
      <path id="Path_4353" data-name="Path 4353" d="M297.931,275.411h1.188V273h1.124v3.59h-2.317C297.931,276.136,297.931,275.77,297.931,275.411Z" transform="translate(-39.637 -57.408)" fill="#363750"/>
      <path id="Path_4354" data-name="Path 4354" d="M293.635,297.488h-2.462v-2.451h1.22v1.2h1.237C293.635,296.671,293.635,297.064,293.635,297.488Z" transform="translate(-36.679 -67.06)" fill="#37384f"/>
      <path id="Path_4355" data-name="Path 4355" d="M288.993,278.669c.376-.054.757-.113,1.134-.166.049-.365.1-.731.145-1.091v.985h.1c.021-.269.049-.543.07-.827h.839V279.7c-.484,0-.968.006-1.451,0-.726-.006-.8-.107-.618-.861.22-.021.446-.049.669-.07v-.1C289.586,278.669,289.294,278.669,288.993,278.669Z" transform="translate(-35.725 -59.339)" fill="#393851"/>
      <path id="Path_4356" data-name="Path 4356" d="M284.408,281.409a8.541,8.541,0,0,0,.962.156c.532.027,1.069.011,1.6.016l-.006-.011v1.3l.011-.016H284.4v-1.3C284.4,281.506,284.408,281.457,284.408,281.409Z" transform="translate(-33.714 -61.09)" fill="#393a4e"/>
      <path id="Path_4357" data-name="Path 4357" d="M301.172,275.573v-3.59h-1.124c.383-.059.765-.113,1.194-.177.021-.361.043-.742.07-1.118l-.006.006h1.2v1.22h-1.177v3.676Z" transform="translate(-40.567 -56.395)" fill="#424155"/>
      <path id="Path_4358" data-name="Path 4358" d="M293.392,272c.383-.054.765-.113,1.2-.172v-1.1h1.268v1.188c-.392.027-.806.054-1.225.086C294.219,271.995,293.806,272,293.392,272Z" transform="translate(-37.652 -56.411)" fill="#444153"/>
      <path id="Path_4359" data-name="Path 4359" d="M299.328,277.5l.145.016h1.052c.08-.425.15-.8.22-1.166v1.069c.414.08.784.156,1.161.231h-1.155V278.8l-.162,1.258c.01-.414.021-.822.027-1.237v-1.279c-.478.1-.833.172-1.182.248l-2.413-.231v1.231c-.07-.361-.14-.72-.215-1.1-.306-.049-.64-.1-.968-.145.318-.021.629-.037,1.042-.064v-1.124c-.006-.425-.011-.844-.016-1.268.049.408.1.817.145,1.231v1.177C297.8,277.5,298.565,277.5,299.328,277.5Z" transform="translate(-38.724 -58.322)" fill="#868692"/>
      <path id="Path_4360" data-name="Path 4360" d="M299.981,295.018h1.252V296.3h-1.252l.011.011c0-.435,0-.861.006-1.3C299.992,295,299.981,295.018,299.981,295.018Z" transform="translate(-40.538 -67.047)" fill="#3a394e"/>
      <path id="Path_4361" data-name="Path 4361" d="M283.49,279.645a1.316,1.316,0,0,0-.011.145h-1.172V278.56h1.107c.064-.425.123-.8.183-1.177,0,.383.006.779.006,1.166Q283.555,279.1,283.49,279.645Z" transform="translate(-32.796 -59.327)" fill="#33314a"/>
      <path id="Path_4362" data-name="Path 4362" d="M301.319,269.716h-1.252v-1.243h1.243v1.258a.019.019,0,0,1,.009-.014Z" transform="translate(-40.575 -55.423)" fill="#3c3c4f"/>
      <path id="Path_4363" data-name="Path 4363" d="M299.034,297.294v1.215h-1.2v-1.2h1.215Z" transform="translate(-39.595 -68.049)" fill="#3c3c51"/>
      <path id="Path_4364" data-name="Path 4364" d="M285.706,286.219V287.4h-1.237v-1.182Z" transform="translate(-33.743 -63.197)" fill="#3b384c"/>
      <path id="Path_4365" data-name="Path 4365" d="M308.943,291.851v-1.2h1.182v1.2Z" transform="translate(-44.463 -65.137)" fill="#3e3d51"/>
      <path id="Path_4366" data-name="Path 4366" d="M293.392,272.989c.414,0,.827-.006,1.243-.006.011.383.021.765.027,1.148l.016-.01c-.419.021-.839.037-1.284.059Z" transform="translate(-37.652 -57.4)" fill="#38364c"/>
      <path id="Path_4367" data-name="Path 4367" d="M296.741,275.06c.006.425.011.844.016,1.268h-1.2c.027-.484.049-.9.07-1.317,0,0-.016.01-.01.01C295.993,275.038,296.365,275.049,296.741,275.06Z" transform="translate(-38.598 -58.288)" fill="#37364c"/>
      <path id="Path_4368" data-name="Path 4368" d="M303.442,289.645h-1.155v-1.311l-.01.011c.383-.006.779-.011,1.166-.021Z" transform="translate(-41.543 -64.119)" fill="#35364b"/>
      <path id="Path_4369" data-name="Path 4369" d="M284.618,278.5c0-.383-.006-.779-.006-1.166.361-.016.72-.033,1.124-.054v1.22Z" transform="translate(-33.805 -59.281)" fill="#323246"/>
      <path id="Path_4370" data-name="Path 4370" d="M305.737,296.145c-1.148-.006-1.148-.006-1.155-1.139.376-.016.747-.037,1.155-.054Z" transform="translate(-42.552 -67.022)" fill="#36334c"/>
      <path id="Path_4371" data-name="Path 4371" d="M305.737,290.666v1.155h-1.155v-1.155Z" transform="translate(-42.552 -65.145)" fill="#333547"/>
      <path id="Path_4372" data-name="Path 4372" d="M290.115,285.163c-.371,0-.742-.006-1.118-.006-.006-.383-.016-.779-.021-1.167l-.01.016H290.2C290.16,284.416,290.136,284.787,290.115,285.163Z" transform="translate(-35.712 -62.222)" fill="#323149"/>
      <path id="Path_4373" data-name="Path 4373" d="M288.976,278.611h.887v.1c-.226.021-.451.049-.669.07-.177.757-.107.861.618.861.484.006.962,0,1.451,0v-2.128h-.839c-.027.287-.049.559-.07.827h-.1v-.992l1.161-.07v2.494l.006-.011h-2.463l.006.011Q288.976,279.191,288.976,278.611Z" transform="translate(-35.708 -59.281)" fill="#272738"/>
      <path id="Path_4374" data-name="Path 4374" d="M306.877,298.468l.806-.339c-.064-.119-.177-.339-.3-.559-.119.135-.231.274-.462.537,0-.252-.086-.581.016-.656a1.052,1.052,0,0,1,.71-.113c.1.016.215.258.248.414a3.792,3.792,0,0,1,.01.7Q307.392,298.469,306.877,298.468Z" transform="translate(-43.558 -68.062)" fill="#383448"/>
      <path id="Path_4375" data-name="Path 4375" d="M310.126,285.152c-.08-.3-.162-.591-.247-.913-.714-.242-.812-.177-.812.6v1.376c.392.1.71.177,1.026.258h-1.155v-2.479l-.006.016H310.1l-.006-.016C310.1,284.378,310.115,284.765,310.126,285.152Z" transform="translate(-44.458 -62.222)" fill="#252537"/>
      <path id="Path_4376" data-name="Path 4376" d="M305.624,288.764h-1.155v1.155l-.129-1.148v-1.317c-.006-.376-.01-.753-.016-1.134l.145,1.161v1.075C304.877,288.629,305.248,288.694,305.624,288.764Z" transform="translate(-42.439 -63.243)" fill="#868794"/>
      <path id="Path_4377" data-name="Path 4377" d="M401.193,186.794c1.134-.376,2.263-.757,3.461-1.155.1.236.191.478.318.784l-3.268,1.161-3.515,1.166c-.1-.242-.183-.468-.3-.774C399.008,187.579,400.1,187.187,401.193,186.794Z" transform="translate(-83.421 -19.141)" fill="#373650"/>
      <path id="Path_4378" data-name="Path 4378" d="M400.472,184.566c.968-.322,1.929-.64,2.965-.983.1.242.191.494.306.79l-2.494.887c-.361.119-.72.231-1.139.365-.1-.248-.191-.489-.287-.765C400.063,184.754,400.267,184.658,400.472,184.566Z" transform="translate(-84.268 -18.241)" fill="#37384f"/>
      <path id="Path_4379" data-name="Path 4379" d="M288.964,281.7h2.462v1.284h1.268v1.243h1.177v1.215h-1.188v1.22h-1.237v-2.44c-.489-.021-.909-.043-1.333-.064.027-.371.054-.742.08-1.155h-1.23Z" transform="translate(-35.711 -61.216)" fill="#fcfdfc"/>
      <path id="Path_4380" data-name="Path 4380" d="M297.944,280.727V279.5l2.413.231c.006.339.011.683.016,1.021l.016-.011C299.578,280.733,298.761,280.733,297.944,280.727Z" transform="translate(-39.646 -60.253)" fill="#fcfcfd"/>
      <path id="Path_4381" data-name="Path 4381" d="M303.447,281.726c-.01.414-.021.822-.027,1.237h-1.115v-1.258l-.016.01C302.668,281.716,303.055,281.722,303.447,281.726Z" transform="translate(-41.547 -61.22)" fill="#f8f9f9"/>
      <path id="Path_4382" data-name="Path 4382" d="M310.1,283h-1.172v-1.3H310.1Z" transform="translate(-44.458 -61.216)" fill="#f8f9fa"/>
      <path id="Path_4383" data-name="Path 4383" d="M303.427,286.315c.006.376.011.753.016,1.134-.383.006-.779.01-1.167.021v-1.148C302.675,286.315,303.05,286.315,303.427,286.315Z" transform="translate(-41.543 -63.239)" fill="#fcfcfd"/>
      <path id="Path_4384" data-name="Path 4384" d="M304.582,280.809v-1.148h1.155v1.148Z" transform="translate(-42.552 -60.323)" fill="#fbfcfc"/>
      <path id="Path_4385" data-name="Path 4385" d="M297.906,284.039h1.148v1.134h-1.148Z" transform="translate(-39.629 -62.243)" fill="#fdfdfb"/>
      <path id="Path_4386" data-name="Path 4386" d="M286.239,293.87v3.386h-3.4V293.87Zm-2.655,2.618h1.838v-1.844H283.58Z" transform="translate(-33.031 -66.548)" fill="#fafafb"/>
      <path id="Path_4387" data-name="Path 4387" d="M286.194,267.734v3.418h-3.539c.064-1.148.135-2.306.2-3.467Zm-.827.784h-1.854v1.865h1.854Z" transform="translate(-32.948 -55.079)" fill="#fbfcfc"/>
      <path id="Path_4388" data-name="Path 4388" d="M286.349,267.734,283,267.685Z" transform="translate(-33.102 -55.079)" fill="#1e202c"/>
      <path id="Path_4389" data-name="Path 4389" d="M312.169,267.711v3.443h-3.5c.054-1.148.107-2.306.162-3.455Zm-.79.812H309.52v1.849h1.859Z" transform="translate(-44.342 -55.083)" fill="#fcfdfd"/>
      <path id="Path_4390" data-name="Path 4390" d="M312.295,267.639l-3.347-.016c1.112-.033,2.225-.059,3.338-.1.01,0,.027.027.027.043A.3.3,0,0,1,312.295,267.639Z" transform="translate(-44.467 -55.012)" fill="#20212e"/>
      <path id="Path_4391" data-name="Path 4391" d="M303.43,280.747c-.383-.006-.779-.011-1.166-.011-.006-.339-.01-.683-.016-1.021.349-.076.7-.145,1.182-.247Z" transform="translate(-41.531 -60.24)" fill="#333249"/>
      <path id="Path_4392" data-name="Path 4392" d="M284.154,297.091v-1.844h1.838v1.844Zm.87-1.693c-.714-.209-.736.209-.757.757-.033.624.172.79.784.784.6-.006.8-.145.8-.774s-.15-.938-.827-.769Z" transform="translate(-33.605 -67.152)" fill="#282734"/>
      <path id="Path_4393" data-name="Path 4393" d="M286.037,269.168v1.865h-1.854v-1.865Z" transform="translate(-33.617 -55.728)" fill="#38384f"/>
      <path id="Path_4394" data-name="Path 4394" d="M312.045,269.168v1.849h-1.859v-1.849Z" transform="translate(-45.007 -55.728)" fill="#38374d"/>
      <path id="Path_4395" data-name="Path 4395" d="M285.11,295.472c.677-.172.827.123.827.765s-.2.774-.8.774c-.613.006-.817-.166-.784-.784C284.378,295.682,284.4,295.263,285.11,295.472Z" transform="translate(-33.691 -67.226)" fill="#373651"/>
    </g>
  </g>
</svg>
