<svg width="31" height="34" viewBox="0 0 31 34" fill="none" xmlns="http://www.w3.org/2000/svg">
<path d="M23.411 11.667C19.623 9.54401 13.544 6.14201 4.114 0.86701C3.82317 0.672599 3.4914 0.547909 3.14452 0.50264C2.79763 0.457372 2.44498 0.492746 2.114 0.60601L18.294 16.78L23.411 11.667Z" fill="#32BBFF"/>
<path d="M2.111 0.601013C1.99257 0.640694 1.87753 0.689853 1.767 0.748013C1.40034 0.942947 1.09403 1.23452 0.881264 1.59112C0.6685 1.94773 0.557396 2.35577 0.559996 2.77101V30.789C0.557963 31.2045 0.669753 31.6126 0.883237 31.9691C1.09672 32.3255 1.40374 32.6167 1.771 32.811C1.88158 32.8691 1.99661 32.9182 2.115 32.958L18.293 16.78L2.111 0.601013Z" fill="#32BBFF"/>
<path d="M18.293 16.78L2.114 32.959C2.44468 33.0741 2.79768 33.1105 3.14488 33.0652C3.49209 33.0199 3.82393 32.8942 4.114 32.698C13.259 27.577 19.27 24.216 23.101 22.079L23.415 21.902L18.293 16.78Z" fill="#32BBFF"/>
<path d="M0.559999 16.78V30.789C0.557783 31.2047 0.669487 31.613 0.88298 31.9697C1.09647 32.3263 1.4036 32.6176 1.771 32.812C1.88159 32.8701 1.99662 32.9192 2.115 32.959L18.293 16.78H0.559999Z" fill="#2C9FD9"/>
<path d="M4.11 0.862025C3.76684 0.633375 3.36811 0.502027 2.95624 0.481953C2.54437 0.461879 2.13477 0.55383 1.771 0.748025L18.048 17.025L23.41 11.662C19.623 9.54402 13.544 6.14202 4.11 0.862025Z" fill="#29CC5E"/>
<path d="M18.048 16.5341L1.771 32.808C2.13474 33.0047 2.54538 33.0981 2.9584 33.078C3.37143 33.0579 3.77107 32.9251 4.11399 32.6941C13.259 27.5731 19.27 24.212 23.101 22.075L23.415 21.898L18.048 16.5341Z" fill="#D93F21"/>
<path d="M30.167 16.78C30.1688 16.3735 30.0613 15.974 29.8559 15.6232C29.6504 15.2724 29.3545 14.9833 28.999 14.786C28.999 14.786 27.547 13.976 23.099 11.486L17.805 16.78L23.105 22.08C27.505 19.609 29.005 18.78 29.005 18.78C29.3602 18.5815 29.6555 18.2911 29.86 17.9392C30.0644 17.5873 30.1705 17.187 30.167 16.78Z" fill="#FFD500"/>
<path d="M28.999 18.774C29.3545 18.5768 29.6504 18.2877 29.8559 17.9369C30.0613 17.5861 30.1688 17.1865 30.167 16.78H17.799L23.099 22.08C27.499 19.607 28.999 18.774 28.999 18.774Z" fill="#FFAA00"/>
</svg>
