<svg xmlns="http://www.w3.org/2000/svg" width="36.79" height="43.416" viewBox="0 0 36.79 43.416">
  <g id="_000000ff" data-name="#000000ff" transform="translate(0.491 0.5)">
    <path id="Path_20632" data-name="Path 20632" d="M139.27,0h.346a10.364,10.364,0,0,1,4.142.929,10.782,10.782,0,0,1,4.11,3.427,10.055,10.055,0,0,1,1.886,6.429,9.886,9.886,0,0,1-1.9,5.553,10.693,10.693,0,0,1-4.581,3.623,10.772,10.772,0,0,1-6.048.49,9.881,9.881,0,0,1-4.746-2.468,10.1,10.1,0,0,1-3.123-5.26,10.546,10.546,0,0,1,.958-7.306,10.946,10.946,0,0,1,3.92-4.032A10.154,10.154,0,0,1,139.27,0m-.828,2.577a7.815,7.815,0,0,0-6.776,8.734,7.387,7.387,0,0,0,1.966,4.273,7.642,7.642,0,0,0,3.925,2.368,7.919,7.919,0,0,0,6.068-.993,8.011,8.011,0,0,0,3.344-4.449,8.48,8.48,0,0,0,.012-4.292,8,8,0,0,0-3.343-4.489A7.774,7.774,0,0,0,138.443,2.577Z" transform="translate(-121.798)" fill="#9951d0" stroke="#707070" stroke-width="1"/>
    <path id="Path_20633" data-name="Path 20633" d="M47.548,248.344a8.208,8.208,0,0,1,3.961-.942,2.568,2.568,0,0,1,1.217.439c.78.471,1.53.989,2.307,1.466a11.663,11.663,0,0,0,2.16.927,8.884,8.884,0,0,0,6.169-.242,16.1,16.1,0,0,0,3.435-1.925,3.424,3.424,0,0,1,1.57-.665,8.172,8.172,0,0,1,4.291,1.119,8.7,8.7,0,0,1,3.308,3.824,13.572,13.572,0,0,1,.786,1.893,25.152,25.152,0,0,1,1.067,6.382,11.793,11.793,0,0,1-.345,4.177,6.642,6.642,0,0,1-3.124,3.817,8.317,8.317,0,0,1-3.762.974H49.369a7.863,7.863,0,0,1-4.694-1.549,6.655,6.655,0,0,1-2.435-3.908,13.257,13.257,0,0,1-.175-3.345,25.454,25.454,0,0,1,1.006-6.325,14.668,14.668,0,0,1,1.347-3.041,8.082,8.082,0,0,1,3.129-3.077m2.886,1.649a5.24,5.24,0,0,0-2.681,1.251,9.968,9.968,0,0,0-2.508,4.777A21.9,21.9,0,0,0,44.6,260.7a12.114,12.114,0,0,0,.067,2.767,4.185,4.185,0,0,0,1.291,2.369,5.24,5.24,0,0,0,3.618,1.232q10.234.006,20.47,0a6.789,6.789,0,0,0,2.417-.353,4.225,4.225,0,0,0,2.417-2.183,5.675,5.675,0,0,0,.449-2.487,30.969,30.969,0,0,0-.241-3.688,15.447,15.447,0,0,0-1.557-5.254,7.591,7.591,0,0,0-1-1.441,5.1,5.1,0,0,0-3.5-1.727c-.184-.006-.392-.07-.553.048-.89.526-1.726,1.139-2.626,1.649a13.358,13.358,0,0,1-4.692,1.486,12.333,12.333,0,0,1-6.9-1.369c-1.017-.537-1.933-1.245-2.932-1.811A3.059,3.059,0,0,0,50.434,249.993Z" transform="translate(-42.04 -227.172)" fill="#9951d0" stroke="#707070" stroke-width="1"/>
  </g>
</svg>
