<svg xmlns="http://www.w3.org/2000/svg" width="29.107" height="37.998" viewBox="0 0 29.107 37.998">
  <g id="_000000ff" data-name="#000000ff" transform="translate(0 0)">
    <path id="Path_20635" data-name="Path 20635" d="M70.3,6.548a1.456,1.456,0,0,1,2.756-.4,3.591,3.591,0,0,1,.139,1.428q1.939,0,3.879,0A9.406,9.406,0,0,1,77.1,6.491a1.456,1.456,0,0,1,2.73-.377,3.428,3.428,0,0,1,.155,1.461q1.939,0,3.879,0c.007-.322-.012-.646.011-.967a1.455,1.455,0,0,1,2.728-.53,3.252,3.252,0,0,1,.173,1.5c1.624,0,3.249,0,4.874,0a1.449,1.449,0,0,1,1.329.917,2.23,2.23,0,0,1,.1.881q-.006,16.222,0,32.443a1.474,1.474,0,0,1-1.429,1.488q-13.117,0-26.233,0a1.458,1.458,0,0,1-1.438-1.484q0-16.374,0-32.75A1.454,1.454,0,0,1,65.34,7.58c1.647-.011,3.3,0,4.942-.005.008-.342-.017-.686.017-1.026M66.889,40.316h23.2q0-14.876,0-29.75H86.774a2.547,2.547,0,0,1-.131,1.17,1.487,1.487,0,0,1-2.677-.148,2.685,2.685,0,0,1-.1-1.022h-3.88a2.31,2.31,0,0,1-.177,1.155,1.434,1.434,0,0,1-1.426.776,1.448,1.448,0,0,1-1.188-.869,2.529,2.529,0,0,1-.118-1.063h-3.88a2.343,2.343,0,0,1-.161,1.119,1.432,1.432,0,0,1-1.4.816,1.452,1.452,0,0,1-1.26-.949,2.836,2.836,0,0,1-.088-.986H66.888Q66.887,25.441,66.889,40.316Z" transform="translate(-63.975 -5.31)" fill="#1abc7e"/>
    <path id="Path_20636" data-name="Path 20636" d="M148.48,193.032c4.566-.024,9.133,0,13.7-.011a1.5,1.5,0,0,1,1.2.466,1.443,1.443,0,0,1-.666,2.376,3.512,3.512,0,0,1-.981.07H149.072a2.3,2.3,0,0,1-1.036-.133,1.456,1.456,0,0,1,.444-2.767Z" transform="translate(-140.883 -178.792)" fill="#1abc7e"/>
    <path id="Path_20637" data-name="Path 20637" d="M148.443,311.468a2.859,2.859,0,0,1,.342-.018q6.787.006,13.574,0a1.453,1.453,0,0,1,1.411,1.27,1.488,1.488,0,0,1-1,1.548,2.733,2.733,0,0,1-.954.091h-13.1a1.456,1.456,0,0,1-1.381-2.041A1.451,1.451,0,0,1,148.443,311.468Z" transform="translate(-140.902 -288.248)" fill="#1abc7e"/>
  </g>
</svg>
