<svg xmlns="http://www.w3.org/2000/svg" width="40" height="35" viewBox="0 0 40 35">
  <g id="Polygon_61" data-name="Polygon 61" fill="none">
    <path d="M19.149,1.38a1,1,0,0,1,1.7,0l5.617,9.107a1,1,0,0,0,.666.458L38.146,13.02a1,1,0,0,1,.524,1.687l-7.487,7.537a1,1,0,0,0-.283.826l1.252,10.222a1,1,0,0,1-1.378,1.044L20.386,30a1,1,0,0,0-.771,0L9.227,34.337a1,1,0,0,1-1.378-1.044L9.1,23.07a1,1,0,0,0-.283-.826L1.33,14.707a1,1,0,0,1,.524-1.687l11.012-2.075a1,1,0,0,0,.666-.458Z" stroke="none"/>
    <path d="M 19.99999809265137 7.619832992553711 L 16.93642044067383 12.58706283569336 C 16.19955062866211 13.78178405761719 14.98579978942871 14.61602401733398 13.60642051696777 14.87586402893066 L 8.155744552612305 15.90271377563477 L 11.65473937988281 19.42472457885742 C 12.74197959899902 20.5191650390625 13.25801086425781 22.02506256103516 13.07049942016602 23.55631256103516 L 12.44601631164551 28.65615463256836 L 18.07204055786133 26.30513381958008 C 18.68594932556152 26.0485725402832 19.33460998535156 25.91848373413086 20 25.91848373413086 C 20.66534042358398 25.91848373413086 21.3139591217041 26.04855346679688 21.92786026000977 26.30509376525879 L 27.55398559570312 28.65615653991699 L 26.92950057983398 23.55631256103516 C 26.74198913574219 22.0250244140625 27.25802993774414 20.51909255981445 28.3453197479248 19.42466354370117 L 31.84425163269043 15.90271186828613 L 26.39363098144531 14.87587356567383 C 25.01416969299316 14.61602401733398 23.8004093170166 13.78175354003906 23.06357002258301 12.58703422546387 L 19.99999809265137 7.619832992553711 M 19.99999809265137 0.9049568176269531 C 20.32790184020996 0.9049568176269531 20.65580558776855 1.063308715820312 20.85112953186035 1.380012512207031 L 26.46810913085938 10.48724365234375 C 26.61581993103027 10.72674369812012 26.85758972167969 10.89292335510254 27.13410949707031 10.94501304626465 L 38.14619827270508 13.01957321166992 C 38.93460845947266 13.16810417175293 39.23591995239258 14.13791465759277 38.67047882080078 14.70707321166992 L 31.18299865722656 22.24380493164062 C 30.96693992614746 22.46128463745117 30.86257934570312 22.76585388183594 30.89984130859375 23.07013320922852 L 32.15158843994141 33.29249572753906 C 32.24483108520508 34.05397415161133 31.48128509521484 34.63251495361328 30.77342987060547 34.33671569824219 L 20.38557052612305 29.99580383300781 C 20.13885879516602 29.89271354675293 19.86114120483398 29.89271354675293 19.61442947387695 29.99580383300781 L 9.226570129394531 34.33671569824219 C 8.518722534179688 34.63251113891602 7.755161285400391 34.05397415161133 7.848411560058594 33.29249572753906 L 9.100160598754883 23.07013320922852 C 9.137420654296875 22.76585388183594 9.033050537109375 22.46128463745117 8.816999435424805 22.24380493164062 L 1.329521179199219 14.70707321166992 C 0.7640800476074219 14.13791465759277 1.065391540527344 13.16810417175293 1.853801727294922 13.01957321166992 L 12.86589050292969 10.94501304626465 C 13.14241027832031 10.89292335510254 13.38418006896973 10.72674369812012 13.53189086914062 10.48725318908691 L 19.14886093139648 1.380012512207031 C 19.34419059753418 1.063308715820312 19.67209434509277 0.9049568176269531 19.99999809265137 0.9049568176269531 Z" stroke="none" fill="#f78f0e"/>
  </g>
</svg>
