<svg xmlns="http://www.w3.org/2000/svg" xmlns:xlink="http://www.w3.org/1999/xlink" width="47.545" height="30.182" viewBox="0 0 47.545 30.182">
  <defs>
    <linearGradient id="linear-gradient" x1="0.5" x2="0.5" y2="1.096" gradientUnits="objectBoundingBox">
      <stop offset="0" stop-color="#9d28eb"/>
      <stop offset="0.276" stop-color="#791fb6"/>
      <stop offset="0.874" stop-color="#a912f3" stop-opacity="0.569"/>
      <stop offset="1" stop-color="#4f1476"/>
    </linearGradient>
  </defs>
  <g id="_000000ff" data-name="#000000ff" transform="translate(0.001 0)">
    <path id="Path_20678" data-name="Path 20678" d="M18.959,95.449a6.867,6.867,0,0,1,11.215,2.572,6.912,6.912,0,0,1-.133,5.076,7.051,7.051,0,0,1-2.758,3.189,12.841,12.841,0,0,1,4.4,2.4,9.912,9.912,0,0,1,3.207-1.877,5.888,5.888,0,0,1-1.341-1.358,5.424,5.424,0,1,1,9.677-1.627,5.567,5.567,0,0,1-2.1,2.985,9.568,9.568,0,0,1,4.946,3.938,9.7,9.7,0,0,1,1.475,4.864v.862c-3.873.011-7.746,0-11.619.006a14.347,14.347,0,0,1,.063,2.83,5.042,5.042,0,0,1-3.842,4.271,8.833,8.833,0,0,1-2.059.129H17.365a8.638,8.638,0,0,1-2.053-.132,5.084,5.084,0,0,1-3.419-2.8,8.341,8.341,0,0,1-.35-4.3c-3.847,0-7.7,0-11.543,0v-.862a9.68,9.68,0,0,1,.879-3.783,9.574,9.574,0,0,1,5.535-5.012A5.746,5.746,0,0,1,4.9,105.191a5.424,5.424,0,1,1,9.891-1.5,5.528,5.528,0,0,1-2.142,3.128,9.848,9.848,0,0,1,3.165,1.841,13.065,13.065,0,0,1,4.356-2.371,7.077,7.077,0,0,1-2.523-2.692,6.863,6.863,0,0,1,1.316-8.145m3.748-.327a5.367,5.367,0,1,0,3.938,9.764,5.906,5.906,0,0,0,1.779-1.932,5.369,5.369,0,0,0-5.717-7.832M8.654,98.532a3.938,3.938,0,0,0-2.546,1.884,3.894,3.894,0,1,0,2.546-1.884m28.511,0a3.916,3.916,0,1,0,2.58.32,3.933,3.933,0,0,0-2.58-.32m-15.01,8.856a10.805,10.805,0,0,0-9.2,10.14,6.118,6.118,0,0,0,.18,2.327,3.51,3.51,0,0,0,2.742,2.294,12.206,12.206,0,0,0,1.679.056q6.683,0,13.367,0a3.56,3.56,0,0,0,2.583-1.062,3.458,3.458,0,0,0,.975-2.127,11.054,11.054,0,0,0-1.38-6.256,10.808,10.808,0,0,0-10.944-5.367m-17.83,2.3a8.074,8.074,0,0,0-2.8,5.271q5.141,0,10.281,0a11.72,11.72,0,0,1,1.58-3.547,16.51,16.51,0,0,1,1.3-1.732,8.091,8.091,0,0,0-4.83-1.887,8.01,8.01,0,0,0-5.526,1.9m28.452.037c.273.35.56.688.837,1.035a12.959,12.959,0,0,1,2.015,4.2q5.177,0,10.354,0a8.074,8.074,0,0,0-3.3-5.664,8.018,8.018,0,0,0-9.9.43Z" transform="translate(-0.001 -93.526)" fill="url(#linear-gradient)"/>
  </g>
</svg>
