<svg id="_000000ff" data-name="#000000ff" xmlns="http://www.w3.org/2000/svg" xmlns:xlink="http://www.w3.org/1999/xlink" width="35" height="35" viewBox="0 0 35 35">
  <defs>
    <linearGradient id="linear-gradient" x1="0.5" x2="0.516" y2="1.055" gradientUnits="objectBoundingBox">
      <stop offset="0" stop-color="#f79b16"/>
      <stop offset="0" stop-color="#c27a11"/>
      <stop offset="0.352" stop-color="#abb51d"/>
      <stop offset="1" stop-color="#7abf11"/>
      <stop offset="1" stop-color="#3bb510"/>
      <stop offset="1" stop-color="#7c4e0b"/>
    </linearGradient>
  </defs>
  <path id="Path_20676" data-name="Path 20676" d="M17.047,0h.9a17.452,17.452,0,0,1,8.235,2.315A17.527,17.527,0,0,1,35,16.983v.969A17.546,17.546,0,0,1,20,34.82a20.544,20.544,0,0,1-2.047.18h-.907A17.57,17.57,0,0,1,.628,22.152,18,18,0,0,1,0,17.956v-.972A17.537,17.537,0,0,1,17.047,0m-.878,1.7a15.869,15.869,0,1,0,7.85,1.35A15.845,15.845,0,0,0,16.168,1.7Z" fill="url(#linear-gradient)"/>
  <path id="Path_20677" data-name="Path 20677" d="M106.913,148.476a1.547,1.547,0,0,1,.766-.1q6.6,0,13.2,0a.822.822,0,0,1,.846.787c.01.841,0,1.682,0,2.524q1.852-1.063,3.7-2.136a1.38,1.38,0,0,1,.645-.261.821.821,0,0,1,.827.627,3.46,3.46,0,0,1,.025.619q0,5.23,0,10.46a1.3,1.3,0,0,1-.158.837.824.824,0,0,1-1.082.224c-1.319-.759-2.635-1.526-3.956-2.282,0,.841.006,1.683,0,2.525a.822.822,0,0,1-.846.786q-6.771,0-13.542,0a.829.829,0,0,1-.852-.861q0-6.5,0-12.99a.831.831,0,0,1,.427-.758m1.213,1.542q0,5.713,0,11.426,5.982.005,11.964,0,0-5.712,0-11.426-5.982,0-11.964,0m13.6,3.57c0,1.427.007,2.855,0,4.282,1.181.7,2.373,1.372,3.559,2.06q0-4.2,0-8.4C124.1,152.217,122.91,152.9,121.727,153.588Z" transform="translate(-99.205 -138.231)" fill="url(#linear-gradient)"/>
</svg>
