<?xml version="1.0" encoding="UTF-8" ?>
<!DOCTYPE svg PUBLIC "-//W3C//DTD SVG 1.1//EN" "http://www.w3.org/Graphics/SVG/1.1/DTD/svg11.dtd">
<svg width="128pt" height="128pt" viewBox="0 0 128 128" version="1.1" xmlns="http://www.w3.org/2000/svg">
<g id="#11977aff">
<path fill="#11977a" opacity="1.00" d=" M 36.51 1.08 C 38.96 1.11 41.42 1.08 43.88 1.10 C 43.88 3.49 43.89 5.89 43.87 8.28 C 41.41 8.35 38.95 8.29 36.49 8.29 C 36.49 5.89 36.43 3.48 36.51 1.08 Z" />
<path fill="#11977a" opacity="1.00" d=" M 88.45 1.10 C 90.92 1.10 93.38 1.08 95.84 1.10 C 95.86 3.55 95.83 6.01 95.85 8.47 C 93.38 8.55 90.91 8.46 88.45 8.49 C 88.46 6.03 88.41 3.56 88.45 1.10 Z" />
<path fill="#11977a" opacity="1.00" d=" M 69.89 18.44 C 72.35 18.45 74.85 18.27 77.30 18.53 C 77.31 20.90 77.26 23.27 77.32 25.64 C 74.91 26.07 72.36 25.68 69.90 25.81 C 69.86 23.35 69.88 20.89 69.89 18.44 Z" />
<path fill="#11977a" opacity="1.00" d=" M 29.08 19.66 C 31.53 19.63 33.99 19.65 36.45 19.66 C 36.47 22.05 36.48 24.45 36.45 26.85 C 33.99 26.87 31.53 26.85 29.07 26.86 C 29.05 24.46 29.05 22.06 29.08 19.66 Z" />
<path fill="#11977a" opacity="1.00" d=" M 118.20 38.25 C 120.64 38.35 123.07 38.30 125.51 38.29 C 125.44 40.69 125.48 43.08 125.48 45.48 C 123.07 45.47 120.65 45.43 118.24 45.51 C 118.24 43.09 118.28 40.67 118.20 38.25 Z" />
<path fill="#11977a" opacity="1.00" d=" M 99.61 49.42 C 102.03 49.38 104.45 49.50 106.86 49.35 C 106.87 51.78 106.84 54.22 106.88 56.65 C 104.46 56.51 102.03 56.62 99.61 56.58 C 99.64 54.19 99.63 51.81 99.61 49.42 Z" />
<path fill="#11977a" opacity="1.00" d=" M 108.64 69.49 C 111.96 65.01 118.29 64.51 123.15 66.57 C 123.56 66.52 124.39 66.42 124.81 66.37 C 125.95 68.46 127.63 71.02 127.63 73.30 C 124.15 74.88 120.50 73.51 117.01 72.83 C 114.36 72.91 113.77 75.81 112.68 77.64 C 110.36 82.02 104.84 84.12 100.14 82.79 C 98.55 82.28 96.93 81.75 95.25 82.12 C 94.50 79.76 92.97 77.67 92.53 75.21 C 96.00 73.95 99.61 74.71 103.01 75.73 C 106.55 75.82 106.74 71.56 108.64 69.49 Z" />
<path fill="#11977a" opacity="1.00" d=" M 118.26 82.77 C 120.65 82.78 123.05 82.75 125.44 82.79 C 125.51 85.15 125.45 87.51 125.51 89.87 C 123.06 89.83 120.62 89.82 118.17 89.89 C 118.31 87.52 118.20 85.15 118.26 82.77 Z" />
<path fill="#11977a" opacity="1.00" d=" M 103.37 94.10 C 105.80 94.29 108.24 94.16 110.67 94.17 C 110.43 96.53 110.89 98.98 110.43 101.30 C 108.09 101.21 105.74 101.26 103.39 101.27 C 103.36 98.88 103.38 96.49 103.37 94.10 Z" />
</g>
<g id="#8bbbffff">
<path fill="#8bbbff" opacity="1.00" d=" M 56.97 4.87 C 58.92 3.36 61.66 2.95 63.04 0.73 C 65.25 1.74 67.43 2.83 69.62 3.89 C 68.18 7.16 65.06 9.12 61.93 10.53 C 59.44 11.60 59.07 14.71 59.94 16.99 C 61.39 22.00 59.21 27.87 54.64 30.47 C 52.93 31.62 50.56 32.00 49.56 33.99 C 47.24 33.22 45.10 31.90 42.86 30.89 C 44.22 27.63 47.35 25.69 50.44 24.29 C 52.83 23.31 53.40 20.37 52.59 18.13 C 51.11 13.36 52.85 7.75 56.97 4.87 Z" />
</g>
<g id="#e69768ff">
<path fill="#e69768" opacity="1.00" d=" M 116.51 12.05 C 117.34 8.30 117.22 3.81 120.59 1.21 C 121.95 2.63 123.30 4.09 124.76 5.42 L 124.34 5.79 C 121.58 7.70 119.75 10.86 116.51 12.05 Z" />
<path fill="#e69768" opacity="1.00" d=" M 104.14 17.15 C 106.89 13.93 111.30 14.01 115.12 13.38 C 113.86 16.78 110.73 18.86 108.34 21.41 C 106.10 23.47 104.23 25.96 101.73 27.72 C 101.37 27.69 100.65 27.64 100.29 27.62 C 100.90 23.95 101.06 19.76 104.14 17.15 Z" />
<path fill="#e69768" opacity="1.00" d=" M 88.43 32.45 C 91.16 29.78 95.14 29.90 98.63 29.28 C 98.63 29.65 98.61 30.40 98.61 30.78 C 95.16 34.90 90.85 38.25 87.19 42.20 C 83.91 45.80 79.74 48.47 76.62 52.22 L 75.65 53.05 C 74.27 51.65 72.93 50.22 71.57 48.81 C 73.73 46.52 76.89 45.64 79.94 45.56 C 82.05 45.74 84.28 44.18 84.28 41.95 C 84.45 38.41 85.53 34.73 88.43 32.45 Z" />
</g>
<g id="#df6666ff">
<path fill="#df6666" opacity="1.00" d=" M 116.51 12.05 C 119.75 10.86 121.58 7.70 124.34 5.79 L 125.43 5.88 C 124.07 9.56 124.67 14.47 121.44 17.52 C 118.88 20.56 114.80 21.26 111.05 21.44 C 107.96 22.10 108.19 25.69 107.81 28.11 C 106.87 33.66 101.29 37.39 95.83 37.19 C 93.12 37.01 91.55 39.75 91.74 42.18 C 91.55 47.40 87.38 52.14 82.16 52.79 C 79.94 52.97 77.76 53.23 75.68 54.12 L 76.62 52.22 C 79.74 48.47 83.91 45.80 87.19 42.20 C 90.85 38.25 95.16 34.90 98.61 30.78 C 98.61 30.40 98.63 29.65 98.63 29.28 C 99.20 28.74 99.76 28.19 100.29 27.61 L 100.29 27.62 C 100.65 27.64 101.37 27.69 101.73 27.72 C 104.23 25.96 106.10 23.47 108.34 21.41 C 110.73 18.86 113.86 16.78 115.12 13.38 C 115.46 12.81 115.92 12.36 116.51 12.05 Z" />
</g>
<g id="#ffdd55ff">
<path fill="#ffdd55" opacity="1.00" d=" M 35.50 35.81 C 46.58 43.65 56.87 52.74 66.35 62.49 C 63.68 65.15 60.79 67.60 58.32 70.46 C 58.30 70.76 58.26 71.37 58.24 71.67 C 66.23 80.64 73.95 89.89 80.49 100.00 C 78.08 100.85 75.69 101.71 73.26 102.48 C 66.82 93.48 60.38 84.22 52.11 76.81 C 50.43 78.35 46.91 80.00 47.50 82.58 C 53.88 89.76 60.69 96.74 65.56 105.09 C 63.22 105.97 60.82 106.70 58.46 107.50 C 53.39 100.35 47.86 93.45 41.69 87.24 C 39.61 88.17 37.98 90.00 36.91 91.97 C 38.00 94.96 40.78 96.84 42.73 99.24 C 45.63 102.76 48.72 106.14 51.26 109.94 C 48.74 110.84 46.20 111.68 43.66 112.53 C 40.40 107.50 36.24 103.12 32.24 98.68 C 29.96 96.52 27.95 100.38 26.80 102.00 C 29.54 106.82 34.25 110.16 37.54 114.61 C 34.81 115.50 32.13 116.55 29.37 117.36 C 27.26 113.30 23.75 110.31 20.65 107.05 C 22.18 105.06 24.53 103.63 25.61 101.34 C 21.99 97.54 18.28 93.80 14.36 90.31 C 15.24 88.06 16.13 85.80 17.00 83.54 C 21.93 87.57 25.99 92.51 30.71 96.76 C 32.59 95.28 34.32 93.60 35.85 91.76 C 30.93 86.12 25.35 81.08 19.94 75.93 C 20.82 73.74 21.64 71.53 22.50 69.33 C 28.63 73.86 34.01 79.32 39.34 84.75 C 41.76 87.90 45.22 83.47 46.21 81.17 C 39.84 74.14 32.62 67.96 25.43 61.79 C 26.33 59.48 27.26 57.17 28.10 54.84 C 35.57 60.65 42.86 66.73 49.40 73.59 C 50.26 74.33 50.91 75.44 52.03 75.82 C 54.07 74.72 55.79 72.86 57.08 70.95 C 49.25 62.30 40.29 54.66 30.88 47.76 C 32.41 43.78 34.00 39.81 35.50 35.81 Z" />
<path fill="#ffdd55" opacity="1.00" d=" M 0.72 125.82 C 4.07 116.35 8.02 107.10 11.45 97.66 C 14.44 100.73 17.54 103.69 20.45 106.85 C 15.52 112.43 10.01 117.47 4.72 122.72 C 3.46 123.81 2.39 125.32 0.72 125.82 Z" />
</g>
<g id="#fff69eff">
<path fill="#fff69e" opacity="1.00" d=" M 28.10 54.84 C 29.06 52.49 29.97 50.13 30.88 47.76 C 40.29 54.66 49.25 62.30 57.08 70.95 C 55.79 72.86 54.07 74.72 52.03 75.82 C 50.91 75.44 50.26 74.33 49.40 73.59 C 42.86 66.73 35.57 60.65 28.10 54.84 Z" />
<path fill="#fff69e" opacity="1.00" d=" M 22.50 69.33 C 23.50 66.83 24.45 64.30 25.43 61.79 C 32.62 67.96 39.84 74.14 46.21 81.17 C 45.22 83.47 41.76 87.90 39.34 84.75 C 34.01 79.32 28.63 73.86 22.50 69.33 Z" />
<path fill="#fff69e" opacity="1.00" d=" M 19.94 75.93 C 25.35 81.08 30.93 86.12 35.85 91.76 C 34.32 93.60 32.59 95.28 30.71 96.76 C 25.99 92.51 21.93 87.57 17.00 83.54 C 17.99 81.00 18.95 78.46 19.94 75.93 Z" />
<path fill="#fff69e" opacity="1.00" d=" M 11.45 97.66 C 12.49 95.24 13.41 92.77 14.36 90.31 C 18.28 93.80 21.99 97.54 25.61 101.34 C 24.53 103.63 22.18 105.06 20.65 107.05 L 20.45 106.85 C 17.54 103.69 14.44 100.73 11.45 97.66 Z" />
</g>
<g id="#ffb555ff">
<path fill="#ffb555" opacity="1.00" d=" M 58.32 70.46 C 60.79 67.60 63.68 65.15 66.35 62.49 C 76.26 72.72 85.14 83.92 93.05 95.75 C 88.87 97.20 84.67 98.57 80.49 100.00 C 73.95 89.89 66.23 80.64 58.24 71.67 C 58.26 71.37 58.30 70.76 58.32 70.46 Z" />
<path fill="#ffb555" opacity="1.00" d=" M 47.50 82.58 C 46.91 80.00 50.43 78.35 52.11 76.81 C 60.38 84.22 66.82 93.48 73.26 102.48 C 70.70 103.37 68.12 104.19 65.56 105.09 C 60.69 96.74 53.88 89.76 47.50 82.58 Z" />
<path fill="#ffb555" opacity="1.00" d=" M 36.91 91.97 C 37.98 90.00 39.61 88.17 41.69 87.24 C 47.86 93.45 53.39 100.35 58.46 107.50 C 56.05 108.31 53.65 109.12 51.26 109.94 C 48.72 106.14 45.63 102.76 42.73 99.24 C 40.78 96.84 38.00 94.96 36.91 91.97 Z" />
<path fill="#ffb555" opacity="1.00" d=" M 26.80 102.00 C 27.95 100.38 29.96 96.52 32.24 98.68 C 36.24 103.12 40.40 107.50 43.66 112.53 C 41.61 113.20 39.57 113.90 37.54 114.61 C 34.25 110.16 29.54 106.82 26.80 102.00 Z" />
<path fill="#ffb555" opacity="1.00" d=" M 20.45 106.85 L 20.65 107.05 C 23.75 110.31 27.26 113.30 29.37 117.36 C 20.17 120.56 10.93 123.66 1.70 126.79 C 1.27 126.77 0.42 126.71 0.00 126.69 L 0.00 125.88 L 0.72 125.82 C 2.39 125.32 3.46 123.81 4.72 122.72 C 10.01 117.47 15.52 112.43 20.45 106.85 Z" />
</g>
</svg>
