<svg width="16" height="15" viewBox="0 0 16 15" fill="none" xmlns="http://www.w3.org/2000/svg">
<path d="M14.9439 5.83333H15.934V15H0.0924072V5.83333H1.08251V4.16667C1.08251 1.86667 3.30033 0 6.033 0C6.73597 0 7.40924 0.125 8.0132 0.35C8.61716 0.125 9.29043 0 9.9934 0C12.7261 0 14.9439 1.86667 14.9439 4.16667V5.83333ZM3.0627 4.16667V5.83333H5.0429V4.16667C5.0429 3.225 5.42904 2.36667 6.0528 1.66667H6.033C4.39934 1.66667 3.0627 2.79167 3.0627 4.16667ZM12.9637 5.83333V4.16667C12.9637 2.79167 11.6271 1.66667 9.9934 1.66667H9.97359C10.5974 2.36667 10.9835 3.225 10.9835 4.16667V5.83333H12.9637ZM8.0132 2.31667C7.40924 2.775 7.0231 3.43333 7.0231 4.16667V5.83333H9.0033V4.16667C9.0033 3.43333 8.61716 2.775 8.0132 2.31667Z" fill="#728BCB"/>
</svg>
