<svg width="20" height="20" viewBox="0 0 20 20" fill="none" xmlns="http://www.w3.org/2000/svg">
<path d="M2.24927 11.9975L8.12672 11.9973C7.77747 12.42 7.55216 12.9489 7.5064 13.5283L7.49777 13.7479V18.2487C7.49777 18.9137 7.73382 19.5237 8.12672 19.9993L7.99786 20C4.57629 20 2.05289 18.9277 0.510459 16.7629C0.178441 16.2969 0 15.739 0 15.1669V14.2468C0 13.0045 1.00704 11.9975 2.24927 11.9975ZM12.7487 9.49711H15.7493C16.3966 9.49711 16.929 9.989 16.993 10.6195L16.9995 10.7473L16.999 11.9972L18.2497 11.9976C19.2164 11.9976 20 12.7812 20 13.7479V18.2487C20 19.2154 19.2164 19.999 18.2497 19.999H10.2483C9.28162 19.999 8.49799 19.2154 8.49799 18.2487V13.7479C8.49799 12.7812 9.28162 11.9976 10.2483 11.9976L11.498 11.9972L11.4985 10.7473C11.4985 10.1 11.9904 9.56752 12.6209 9.50351L12.7487 9.49711H15.7493H12.7487ZM15.4992 10.9974H12.9988L12.9983 11.9972H15.4987L15.4992 10.9974ZM7.99786 0C10.7598 0 12.9988 2.23898 12.9988 5.0009C12.9988 7.76282 10.7598 10.0018 7.99786 10.0018C5.23595 10.0018 2.99698 7.76282 2.99698 5.0009C2.99698 2.23898 5.23595 0 7.99786 0Z" fill="#86DCFF"/>
</svg>
