<svg xmlns="http://www.w3.org/2000/svg" width="16.982" height="15.567" viewBox="0 0 16.982 15.567">
  <path id="Path_21610" data-name="Path 21610" d="M12.56,21.333c-1.884,0-3.439,1.75-4.069,2.575-.629-.826-2.185-2.575-4.069-2.575A4.742,4.742,0,0,0,0,26.33a5.22,5.22,0,0,0,1.641,3.863.35.35,0,0,0,.056.072L8.241,36.8a.354.354,0,0,0,.5,0l6.762-6.76.07-.068c.055-.052.11-.105.171-.173a.344.344,0,0,0,.063-.084,5.341,5.341,0,0,0,1.175-3.381A4.742,4.742,0,0,0,12.56,21.333Zm2.659,7.981a.33.33,0,0,0-.027.036c-.033.038-.069.072-.105.106l-6.6,6.591-6.213-6.2A.355.355,0,0,0,2.2,29.74,4.5,4.5,0,0,1,.708,26.33a4.038,4.038,0,0,1,3.715-4.29c2.025,0,3.754,2.642,3.771,2.668a.368.368,0,0,0,.595,0c.017-.027,1.746-2.668,3.771-2.668a4.038,4.038,0,0,1,3.715,4.29A4.627,4.627,0,0,1,15.218,29.314Z" transform="translate(0 -21.333)" fill="#333"/>
</svg>
