<svg xmlns="http://www.w3.org/2000/svg" width="7.573" height="10.098" viewBox="0 0 7.573 10.098">
  <g id="Group_17350" data-name="Group 17350" transform="translate(-404.037 -1615.455)">
    <g id="Group_17349" data-name="Group 17349">
      <path id="Path_21608" data-name="Path 21608" d="M163.471.631h-.685a.947.947,0,0,0-1.785,0h-.685A.316.316,0,0,0,160,.947V2.209a.316.316,0,0,0,.316.316h3.155a.316.316,0,0,0,.316-.316V.947A.316.316,0,0,0,163.471.631Z" transform="translate(245.93 1615.455)" fill="#666"/>
      <path id="Path_21609" data-name="Path 21609" d="M70.942,64h-.631v.947a.948.948,0,0,1-.947.947H66.209a.948.948,0,0,1-.947-.947V64h-.631a.632.632,0,0,0-.631.631V72.2a.624.624,0,0,0,.631.631h6.311a.624.624,0,0,0,.631-.631V64.631A.624.624,0,0,0,70.942,64Zm-3.248,5.588L66.432,70.85a.317.317,0,0,1-.447,0l-.631-.631a.315.315,0,0,1,.446-.446l.408.408,1.039-1.039a.316.316,0,0,1,.447.446Zm0-2.524-1.262,1.262a.317.317,0,0,1-.447,0l-.631-.631a.315.315,0,0,1,.446-.446l.408.408,1.039-1.039a.316.316,0,0,1,.447.446ZM70,70.311H68.733a.316.316,0,0,1,0-.631H70a.316.316,0,0,1,0,.631Zm0-2.524H68.733a.316.316,0,0,1,0-.631H70a.316.316,0,0,1,0,.631Z" transform="translate(340.037 1552.717)" fill="#666"/>
    </g>
  </g>
</svg>
