<svg width="49" height="49" viewBox="0 0 49 49" fill="none" xmlns="http://www.w3.org/2000/svg">
<g filter="url(#filter0_d_30_496)">
<path d="M24.5 40C34.7173 40 43 31.7173 43 21.5C43 11.2827 34.7173 3 24.5 3C14.2827 3 6 11.2827 6 21.5C6 31.7173 14.2827 40 24.5 40Z" fill="#F9F9F9"/>
</g>
<path fill-rule="evenodd" clip-rule="evenodd" d="M34.9243 27.793V18.868C34.9243 18.4733 34.7676 18.0948 34.4885 17.8158C34.2094 17.5367 33.831 17.38 33.4363 17.38H31.6933C30.5102 17.3793 29.3757 16.9088 28.5393 16.072L27.3053 14.841C27.0271 14.5626 26.6499 14.4059 26.2563 14.405H22.7683C22.3737 14.4051 21.9953 14.5619 21.7163 14.841L20.4843 16.073C19.6477 16.91 18.5128 17.3805 17.3293 17.381H15.5863C15.192 17.3812 14.814 17.538 14.5352 17.8168C14.2563 18.0956 14.0996 18.4737 14.0993 18.868V27.793C14.0993 28.1876 14.2561 28.5661 14.5352 28.8451C14.8142 29.1242 15.1927 29.281 15.5873 29.281H33.4373C33.8318 29.2807 34.21 29.1238 34.4889 28.8448C34.7677 28.5658 34.9243 28.1874 34.9243 27.793ZM15.5863 15.893C14.7973 15.893 14.0406 16.2064 13.4827 16.7643C12.9248 17.3222 12.6113 18.0789 12.6113 18.868V27.793C12.6113 28.1837 12.6883 28.5705 12.8378 28.9315C12.9873 29.2924 13.2064 29.6204 13.4827 29.8966C13.7589 30.1729 14.0869 30.392 14.4478 30.5415C14.8088 30.691 15.1956 30.768 15.5863 30.768H33.4363C33.827 30.768 34.2139 30.691 34.5748 30.5415C34.9358 30.392 35.2637 30.1729 35.54 29.8966C35.8162 29.6204 36.0354 29.2924 36.1849 28.9315C36.3344 28.5705 36.4113 28.1837 36.4113 27.793V18.868C36.4113 18.4773 36.3344 18.0904 36.1849 17.7295C36.0354 17.3685 35.8162 17.0406 35.54 16.7643C35.2637 16.4881 34.9358 16.2689 34.5748 16.1194C34.2139 15.9699 33.827 15.893 33.4363 15.893H31.6933C30.9055 15.8918 30.1503 15.5782 29.5933 15.021L28.3583 13.789C27.8012 13.2321 27.046 12.9188 26.2583 12.918H22.7683C21.9805 12.9191 21.2253 13.2327 20.6683 13.79L19.4333 15.018C18.8762 15.5749 18.121 15.8881 17.3333 15.889L15.5863 15.893Z" fill="#E61E1E"/>
<path fill-rule="evenodd" clip-rule="evenodd" d="M24.5114 26.306C25.247 26.306 25.966 26.0878 26.5776 25.6792C27.1892 25.2705 27.6658 24.6897 27.9473 24.0102C28.2288 23.3306 28.3025 22.5828 28.159 21.8614C28.0155 21.14 27.6613 20.4773 27.1411 19.9572C26.621 19.4371 25.9584 19.0829 25.237 18.9394C24.5155 18.7959 23.7678 18.8696 23.0882 19.1511C22.4087 19.4325 21.8278 19.9092 21.4192 20.5208C21.0105 21.1324 20.7924 21.8514 20.7924 22.587C20.7924 23.5733 21.1842 24.5192 21.8817 25.2167C22.5791 25.9141 23.5251 26.306 24.5114 26.306ZM24.5114 27.794C25.5411 27.794 26.5476 27.4886 27.4037 26.9166C28.2598 26.3445 28.9271 25.5315 29.3211 24.5802C29.7152 23.6289 29.8183 22.5822 29.6174 21.5723C29.4165 20.5625 28.9207 19.6348 28.1926 18.9068C27.4645 18.1787 26.5369 17.6829 25.5271 17.482C24.5172 17.2811 23.4704 17.3842 22.5192 17.7782C21.5679 18.1723 20.7548 18.8395 20.1828 19.6957C19.6107 20.5518 19.3054 21.5583 19.3054 22.588C19.3054 23.9687 19.8539 25.2928 20.8302 26.2692C21.8065 27.2455 23.1307 27.794 24.5114 27.794Z" fill="#E61E1E"/>
<path d="M17.0744 19.6119C17.0744 19.7591 17.0308 19.9029 16.949 20.0253C16.8673 20.1476 16.7511 20.243 16.6151 20.2993C16.4792 20.3556 16.3296 20.3703 16.1853 20.3416C16.041 20.3129 15.9084 20.2421 15.8043 20.138C15.7003 20.034 15.6294 19.9014 15.6007 19.7571C15.572 19.6127 15.5867 19.4632 15.6431 19.3272C15.6994 19.1913 15.7947 19.0751 15.9171 18.9933C16.0394 18.9116 16.1833 18.8679 16.3304 18.8679C16.5277 18.8679 16.717 18.9463 16.8565 19.0858C16.996 19.2254 17.0744 19.4146 17.0744 19.6119Z" fill="#E61E1E"/>
<defs>
<filter id="filter0_d_30_496" x="0" y="0" width="49" height="49" filterUnits="userSpaceOnUse" color-interpolation-filters="sRGB">
<feFlood flood-opacity="0" result="BackgroundImageFix"/>
<feColorMatrix in="SourceAlpha" type="matrix" values="0 0 0 0 0 0 0 0 0 0 0 0 0 0 0 0 0 0 127 0" result="hardAlpha"/>
<feOffset dy="3"/>
<feGaussianBlur stdDeviation="3"/>
<feColorMatrix type="matrix" values="0 0 0 0 0 0 0 0 0 0 0 0 0 0 0 0 0 0 0.161 0"/>
<feBlend mode="normal" in2="BackgroundImageFix" result="effect1_dropShadow_30_496"/>
<feBlend mode="normal" in="SourceGraphic" in2="effect1_dropShadow_30_496" result="shape"/>
</filter>
</defs>
</svg>
