<svg xmlns="http://www.w3.org/2000/svg" width="141" height="46.818" viewBox="0 0 141 46.818">
  <g id="Group_17456" data-name="Group 17456" transform="translate(-6483 -2864)">
    <text id="DUTYPEDIA" transform="translate(6578 2892)" fill="#fff" font-size="15" font-family="Poppins-Bold, Poppins" font-weight="700" letter-spacing="0.057em" opacity="0.98"><tspan x="-45.555" y="0">DUTYPEDIA</tspan></text>
    <g id="Group_17455" data-name="Group 17455" transform="translate(6483 2864)">
      <rect id="Rectangle_7031" data-name="Rectangle 7031" width="30.882" height="13.264" transform="translate(5.697 4.553)" fill="#da1e37"/>
      <rect id="Rectangle_7032" data-name="Rectangle 7032" width="25.933" height="13.066" transform="translate(4.708 17.223)" fill="#da1e37"/>
      <rect id="Rectangle_7033" data-name="Rectangle 7033" width="19.005" height="8.117" rx="4" transform="translate(5.697 28.903)" fill="#da1e37"/>
      <rect id="Rectangle_7034" data-name="Rectangle 7034" width="19.005" height="8.117" rx="4" transform="translate(10.052 24.35)" fill="#da1e37"/>
      <rect id="Rectangle_7035" data-name="Rectangle 7035" width="19.005" height="8.117" rx="4" transform="translate(8.072 25.933)" fill="#da1e37"/>
      <path id="Path_6617" data-name="Path 6617" d="M685.226,230.191c-8.883-5.19-27.089-1.723-34.876,2.851,2.468,13.133,5.074,34.685,6.582,39.339a2.585,2.585,0,0,0,.8,1.2l.06.049a3.7,3.7,0,0,0,3.249.664c7.076-1.838,16.608-10.894,23.285-20.542a34.9,34.9,0,0,0,5.632-13.6,9.879,9.879,0,0,0-4.732-9.962m-17.347,33.4a14.3,14.3,0,0,1-4.5-.719,13.294,13.294,0,0,1,7.451-25.19q.357.047.707.113a3.5,3.5,0,0,1,1.79.884,2.27,2.27,0,0,1,.284,3.216q-.078.1-.167.184a2.574,2.574,0,0,1-1.238.683,1.973,1.973,0,0,1-.739.017c-.247-.036-.492-.1-.75-.163a9.7,9.7,0,0,0-1.6-.23c-.2-.012-.391-.019-.588-.019a9.671,9.671,0,0,0-4.778,18.079,10.708,10.708,0,0,0,14.42-14.911,10.424,10.424,0,0,1,2.522,6.741c0,6.25-5.738,11.316-12.816,11.316m18.8-20.193a1.424,1.424,0,0,1-2.848,0v-5.155c-5.529,5.019-10.9,9.742-15.71,13.451l13.6-15.415h-5.327a1.473,1.473,0,0,1,0-2.946h8.976a1.309,1.309,0,0,1,1.309,1.309Z" transform="translate(-650.35 -227.599)" fill="#fff"/>
    </g>
  </g>
</svg>
