<svg width="135" height="47" viewBox="0 0 135 47" fill="none" xmlns="http://www.w3.org/2000/svg">
<path d="M54.3198 19.47C55.4298 19.47 56.3998 19.69 57.2298 20.13C58.0598 20.57 58.6998 21.19 59.1498 21.99C59.6098 22.78 59.8398 23.695 59.8398 24.735C59.8398 25.765 59.6098 26.68 59.1498 27.48C58.6998 28.28 58.0548 28.9 57.2148 29.34C56.3848 29.78 55.4198 30 54.3198 30H50.3748V19.47H54.3198ZM54.1548 27.78C55.1248 27.78 55.8798 27.515 56.4198 26.985C56.9598 26.455 57.2298 25.705 57.2298 24.735C57.2298 23.765 56.9598 23.01 56.4198 22.47C55.8798 21.93 55.1248 21.66 54.1548 21.66H52.9398V27.78H54.1548ZM63.7933 19.47V25.77C63.7933 26.4 63.9483 26.885 64.2583 27.225C64.5683 27.565 65.0233 27.735 65.6233 27.735C66.2233 27.735 66.6833 27.565 67.0033 27.225C67.3233 26.885 67.4833 26.4 67.4833 25.77V19.47H70.0483V25.755C70.0483 26.695 69.8483 27.49 69.4483 28.14C69.0483 28.79 68.5083 29.28 67.8283 29.61C67.1583 29.94 66.4083 30.105 65.5783 30.105C64.7483 30.105 64.0033 29.945 63.3433 29.625C62.6933 29.295 62.1783 28.805 61.7983 28.155C61.4183 27.495 61.2283 26.695 61.2283 25.755V19.47H63.7933ZM79.4244 19.47V21.525H76.6344V30H74.0694V21.525H71.2794V19.47H79.4244ZM89.7417 19.47L86.0967 26.52V30H83.5317V26.52L79.8867 19.47H82.7967L84.8367 23.88L86.8617 19.47H89.7417ZM98.8002 22.86C98.8002 23.47 98.6602 24.03 98.3802 24.54C98.1002 25.04 97.6702 25.445 97.0902 25.755C96.5102 26.065 95.7902 26.22 94.9302 26.22H93.3402V30H90.7752V19.47H94.9302C95.7702 19.47 96.4802 19.615 97.0602 19.905C97.6402 20.195 98.0752 20.595 98.3652 21.105C98.6552 21.615 98.8002 22.2 98.8002 22.86ZM94.7352 24.18C95.2252 24.18 95.5902 24.065 95.8302 23.835C96.0702 23.605 96.1902 23.28 96.1902 22.86C96.1902 22.44 96.0702 22.115 95.8302 21.885C95.5902 21.655 95.2252 21.54 94.7352 21.54H93.3402V24.18H94.7352ZM102.701 21.525V23.655H106.136V25.635H102.701V27.945H106.586V30H100.136V19.47H106.586V21.525H102.701ZM112.196 19.47C113.306 19.47 114.276 19.69 115.106 20.13C115.936 20.57 116.576 21.19 117.026 21.99C117.486 22.78 117.716 23.695 117.716 24.735C117.716 25.765 117.486 26.68 117.026 27.48C116.576 28.28 115.931 28.9 115.091 29.34C114.261 29.78 113.296 30 112.196 30H108.251V19.47H112.196ZM112.031 27.78C113.001 27.78 113.756 27.515 114.296 26.985C114.836 26.455 115.106 25.705 115.106 24.735C115.106 23.765 114.836 23.01 114.296 22.47C113.756 21.93 113.001 21.66 112.031 21.66H110.816V27.78H112.031ZM121.714 19.47V30H119.149V19.47H121.714ZM130.128 28.14H126.198L125.568 30H122.883L126.693 19.47H129.663L133.473 30H130.758L130.128 28.14ZM129.468 26.16L128.163 22.305L126.873 26.16H129.468Z" fill="white"/>
<path d="M36.5788 4.553H5.69678V17.817H36.5788V4.553Z" fill="#DA1E37"/>
<path d="M30.641 17.223H4.70801V30.289H30.641V17.223Z" fill="#DA1E37"/>
<path d="M20.7018 28.903H9.69678C7.48764 28.903 5.69678 30.6939 5.69678 32.903V33.02C5.69678 35.2291 7.48764 37.02 9.69678 37.02H20.7018C22.9109 37.02 24.7018 35.2291 24.7018 33.02V32.903C24.7018 30.6939 22.9109 28.903 20.7018 28.903Z" fill="#DA1E37"/>
<path d="M25.0568 24.35H14.0518C11.8426 24.35 10.0518 26.1409 10.0518 28.35V28.467C10.0518 30.6761 11.8426 32.467 14.0518 32.467H25.0568C27.2659 32.467 29.0568 30.6761 29.0568 28.467V28.35C29.0568 26.1409 27.2659 24.35 25.0568 24.35Z" fill="#DA1E37"/>
<path d="M23.0768 25.933H12.0718C9.86264 25.933 8.07178 27.7239 8.07178 29.933V30.05C8.07178 32.2591 9.86264 34.05 12.0718 34.05H23.0768C25.2859 34.05 27.0768 32.2591 27.0768 30.05V29.933C27.0768 27.7239 25.2859 25.933 23.0768 25.933Z" fill="#DA1E37"/>
<path d="M34.876 2.592C25.993 -2.598 7.787 0.869009 0 5.44301C2.468 18.576 5.07403 40.128 6.58203 44.782C6.72945 45.2498 7.00691 45.666 7.38202 45.982L7.44202 46.031C7.89458 46.3868 8.42395 46.6321 8.98798 46.7474C9.552 46.8626 10.1352 46.8447 10.691 46.695C17.767 44.857 27.299 35.801 33.976 26.153C36.7989 22.0716 38.719 17.4352 39.608 12.553C39.8992 10.6102 39.6045 8.62469 38.7616 6.8502C37.9187 5.07572 36.5659 3.59282 34.876 2.591V2.592ZM17.5291 35.991C16.0003 35.9934 14.481 35.7507 13.0291 35.272C10.1647 33.9141 7.87985 31.5775 6.58655 28.6834C5.29324 25.7894 5.07659 22.5284 5.97571 19.4887C6.87483 16.449 8.83052 13.8306 11.4901 12.1058C14.1496 10.381 17.3379 9.66322 20.48 10.082C20.718 10.1133 20.9537 10.151 21.187 10.195C21.8568 10.3096 22.4789 10.6168 22.9771 11.079C23.2083 11.2705 23.3993 11.506 23.5389 11.7719C23.6786 12.0377 23.7641 12.3286 23.7905 12.6277C23.8169 12.9268 23.7837 13.2282 23.6928 13.5144C23.6019 13.8006 23.4552 14.0659 23.261 14.295C23.209 14.3617 23.1533 14.423 23.094 14.479C22.7532 14.8178 22.3243 15.0544 21.856 15.162C21.613 15.2142 21.3622 15.2199 21.117 15.179C20.87 15.143 20.625 15.079 20.367 15.016C19.841 14.895 19.3058 14.818 18.767 14.786C18.567 14.774 18.376 14.767 18.179 14.767C16.0445 14.7671 13.97 15.4734 12.2789 16.7757C10.5877 18.0781 9.37492 19.9033 8.82953 21.9669C8.28414 24.0306 8.43677 26.2167 9.26367 28.1845C10.0906 30.1524 11.5453 31.7913 13.401 32.846C15.4664 34.0212 17.8641 34.476 20.2164 34.1387C22.5687 33.8014 24.742 32.6913 26.394 30.983C28.046 29.2748 29.0828 27.0656 29.3411 24.7033C29.5995 22.341 29.0647 19.9599 27.821 17.935C29.4354 19.8113 30.3293 22.2008 30.343 24.676C30.343 30.926 24.605 35.992 17.527 35.992L17.5291 35.991ZM36.327 15.799C36.327 16.1767 36.177 16.5389 35.91 16.8059C35.6429 17.073 35.2807 17.223 34.903 17.223C34.5253 17.223 34.1632 17.073 33.8961 16.8059C33.6291 16.5389 33.479 16.1767 33.479 15.799V10.644C27.95 15.663 22.579 20.386 17.769 24.095L31.369 8.68001H26.0421C25.6514 8.68001 25.2767 8.52481 25.0004 8.24857C24.7242 7.97232 24.569 7.59766 24.569 7.207C24.569 6.81634 24.7242 6.44168 25.0004 6.16544C25.2767 5.88919 25.6514 5.73399 26.0421 5.73399H35.018C35.3652 5.73399 35.6981 5.87192 35.9436 6.1174C36.1891 6.36289 36.327 6.69583 36.327 7.043V15.799Z" fill="white"/>
</svg>
