<svg width="55" height="55" viewBox="0 0 55 55" fill="none" xmlns="http://www.w3.org/2000/svg">
<path fill-rule="evenodd" clip-rule="evenodd" d="M24.277 0.321943C24.0342 0.565266 23.9638 0.733135 23.9638 1.06952C23.9638 1.30812 24.3744 3.34014 24.8763 5.58501C25.7349 9.42537 25.7799 9.68802 25.6376 10.029C25.4364 10.5114 25.0831 10.7415 24.5437 10.7415C24.0067 10.7415 23.5967 10.452 23.4392 9.96161C23.2691 9.43214 21.6066 1.86367 21.6066 1.61852C21.6066 1.33731 21.4968 1.34697 20.8263 1.687C16.808 3.72493 13.905 7.94611 13.3464 12.5636L13.2195 13.6125L12.6547 13.6709C12.344 13.703 11.9726 13.8064 11.829 13.9006C11.1545 14.3433 11.1638 15.4053 11.8462 15.8619C12.054 16.0009 12.414 16.0585 13.2691 16.0897L14.4137 16.1314L14.4522 20.0105C14.495 24.3419 14.5094 24.4381 15.3656 26.1437C16.1338 27.674 16.9032 28.6758 18.7959 30.6102L20.1204 31.9639L20.0868 33.9018L20.053 35.8397L19.7286 36.3017C19.5502 36.5558 19.2039 36.9047 18.9591 37.0771C18.4976 37.402 18.2665 37.4406 14.4012 37.8392L13.678 37.9138V41.6619V45.41H27.3924H41.1069V41.6533C41.1069 39.5872 41.0855 37.8967 41.0594 37.8967C40.6227 37.8967 36.7434 37.4332 36.3928 37.3392C35.775 37.1735 34.992 36.4081 34.8091 35.7912C34.7302 35.5247 34.6782 34.6779 34.6782 33.6565V31.9637L36.205 30.3904C37.9033 28.6405 38.7413 27.5375 39.4451 26.1258C40.2781 24.4549 40.288 24.3872 40.3309 19.9989L40.3691 16.1081L41.3005 16.1075C42.5282 16.1067 42.9908 15.9719 43.2549 15.5381C43.5199 15.1028 43.5199 14.6448 43.2549 14.2095C43.0359 13.8496 42.538 13.6412 41.8945 13.6401L41.5572 13.6395L41.4796 12.8656C41.1957 10.0336 40.0564 7.34376 38.1991 5.12036C37.0216 3.71065 35.4539 2.44638 33.9146 1.665C33.2859 1.34579 33.1782 1.34021 33.1782 1.6269C33.1782 1.95201 31.3738 9.97234 31.2475 10.2088C30.9543 10.7576 30.0152 10.928 29.5039 10.5251C28.9133 10.0598 28.9198 9.98114 29.9114 5.54444C30.4117 3.30601 30.821 1.33452 30.821 1.16365C30.821 0.783796 30.6567 0.444732 30.3531 0.198403C30.15 0.0335398 29.8174 0.0127172 27.3574 0.0105705L24.5902 0.00820923L24.277 0.321943ZM37.975 19.8379C37.9376 23.3702 37.923 23.6016 37.6986 24.2052C37.1386 25.7114 36.1281 27.1145 34.2532 28.989C32.4582 30.7837 29.7813 33.018 29.2484 33.1663C28.7579 33.3027 26.1114 33.3148 25.5456 33.1831C24.6788 32.9815 19.8094 28.5436 18.4693 26.7341C18.1415 26.2913 17.7028 25.591 17.4944 25.1777C16.8233 23.8465 16.7851 23.5484 16.7851 19.6276V16.1081H27.3998H38.0146L37.975 19.8379ZM24.3917 35.3118C24.9713 35.5842 25.024 35.589 27.3924 35.589C29.7608 35.589 29.8136 35.5842 30.3931 35.3118C30.7175 35.1593 31.26 34.8086 31.5985 34.5324L32.2139 34.0302L32.2148 34.4876C32.2162 35.3095 32.4316 36.3275 32.7492 37.0122C33.1049 37.7794 33.9741 38.7547 34.6616 39.1584L35.1301 39.4335L34.7167 39.6899C33.4433 40.4799 31.4222 41.2756 29.8668 41.5995C26.7431 42.25 23.1098 41.5245 19.9983 39.6289L19.6663 39.4267L20.129 39.1549C20.8168 38.7513 21.6813 37.7756 22.049 36.9883C22.2988 36.4537 22.4001 36.0339 22.4869 35.1734L22.6 34.054L23.2009 34.5443C23.5314 34.8139 24.0673 35.1593 24.3917 35.3118ZM10.2494 38.4732C6.59917 39.5771 3.68345 42.1645 2.2144 45.6031C1.64836 46.9281 -0.0759135 53.377 0.0114089 53.8428C0.0503023 54.0505 0.213483 54.3126 0.403985 54.4732L0.729917 54.7479H3.06673H5.40354L6.39377 51.8511C6.97535 50.1495 7.54396 48.6828 7.77197 48.2963C8.32815 47.3531 9.22334 46.568 10.361 46.0254L11.3137 45.571L11.3173 41.8948C11.32 39.0206 11.2915 38.22 11.1869 38.2245C11.1133 38.2276 10.6913 38.3395 10.2494 38.4732ZM43.465 41.8864L43.466 45.571L44.4025 45.9991C45.1486 46.3402 45.4922 46.5804 46.0919 47.1798C46.506 47.5937 46.9844 48.1956 47.155 48.5175C47.3257 48.8394 47.9081 50.3608 48.4491 51.8985L49.433 54.6943L51.7415 54.7231L54.05 54.752L54.3784 54.4752C54.9393 54.0024 54.9217 53.8219 53.9601 50.1806C53.4777 48.3537 52.9746 46.5692 52.842 46.215C51.7171 43.209 49.5283 40.7792 46.6234 39.3119C45.7892 38.8906 44.52 38.4221 43.8123 38.2743L43.464 38.2016L43.465 41.8864ZM11.9637 47.9404C11.238 48.1339 10.3202 48.7554 9.91517 49.3276C9.7372 49.5791 9.25645 50.7908 8.75469 52.2524L7.89807 54.7479H27.3953C38.1188 54.7479 46.8926 54.7321 46.8926 54.7125C46.8926 54.6931 46.527 53.6185 46.08 52.3244C45.0004 49.1987 44.7351 48.7982 43.2988 48.1244L42.6605 47.825L27.6067 47.804C14.6831 47.7861 12.4696 47.8054 11.9637 47.9404Z" fill="#FF9C68"/>
<circle cx="22.8184" cy="20.5372" r="1.52066" fill="#FF9C68"/>
<circle cx="31.9429" cy="20.5372" r="1.52066" fill="#FF9C68"/>
</svg>
