<svg width="43" height="55" viewBox="0 0 43 55" fill="none" xmlns="http://www.w3.org/2000/svg">
<path fill-rule="evenodd" clip-rule="evenodd" d="M18.5946 0.17631C13.0544 1.10688 8.2841 4.62315 5.84139 9.57664C4.84369 11.6 4.2923 13.4834 4.09382 15.5467C4.01488 16.3677 3.99427 16.4113 3.48614 16.8335C3.19685 17.0739 2.8394 17.4952 2.69171 17.7698C2.43045 18.2556 2.42326 18.3667 2.42326 21.9009C2.42326 25.8787 2.42494 25.8894 3.18559 26.7046C4.52002 28.1345 7.05304 27.78 7.92474 26.0412L8.23295 25.4263V21.9009V18.3754L7.91599 17.7431C7.72254 17.3572 7.42091 16.9886 7.14192 16.797C6.61558 16.4355 6.61139 16.4069 6.86067 14.8787C7.86496 8.72312 12.8391 3.7907 19.0531 2.78892C27.0356 1.50197 34.6075 6.91319 35.9534 14.8666C36.212 16.3946 36.2064 16.4334 35.6741 16.7991C35.3837 16.9986 35.0957 17.3552 34.8939 17.7653L34.5739 18.4154L34.593 22.1448C34.6148 26.4 34.7454 25.917 33.3883 26.5973C32.106 27.24 30.4527 27.7292 28.7556 27.9681C27.9731 28.0783 27.9473 28.0733 27.5627 27.7375C27.0786 27.3151 26.4981 27.2168 24.8448 27.2777C23.4725 27.3281 23.1285 27.4662 22.7219 28.1289C22.4335 28.5991 22.4168 29.4252 22.6865 29.879C23.0823 30.5449 23.6066 30.7124 25.2969 30.7124C26.8967 30.7124 27.101 30.6619 27.6984 30.1191C27.9946 29.85 28.2433 29.7679 29.115 29.6514C31.3181 29.3571 33.7018 28.5496 35.2083 27.5873C35.8884 27.153 35.8915 27.1523 36.2864 27.3534C36.8747 27.653 38.2213 27.6229 38.8386 27.2964C39.3977 27.0006 39.8588 26.535 40.1726 25.9494C40.3763 25.5689 40.3958 25.216 40.3958 21.9009C40.3958 18.3791 40.3878 18.2542 40.1304 17.7758C39.9845 17.5045 39.6279 17.0758 39.3381 16.8232L38.8113 16.3639L38.6698 15.1555C37.78 7.55476 31.8087 1.40802 24.1084 0.166545C22.7743 -0.0486222 19.9032 -0.0435019 18.5946 0.17631ZM20.0919 5.52299C19.9931 5.54669 19.5109 5.63135 19.0205 5.71089C15.0715 6.35199 12.0137 8.99604 10.7 12.9058C10.1601 14.5125 9.99778 15.862 10.0695 18.15C10.2052 22.4852 11.4836 25.8744 14.4795 29.8426C15.0034 30.5367 15.509 31.252 15.6026 31.4322C16.155 32.4938 16.0433 33.7555 15.3275 34.5432C14.7815 35.144 14.1981 35.4793 12.5852 36.1197C10.2624 37.0418 6.73597 38.9196 4.35675 40.5012C2.94793 41.4379 1.34063 43.0379 0.825659 44.0166C0.367593 44.8871 0.0918419 46.0609 0.0908836 47.1446C0.0896858 48.5834 0.556497 49.7475 1.556 50.7981C3.62868 52.9766 7.91887 54.2142 14.925 54.655C17.9857 54.8477 28.05 54.7346 30.3729 54.4815C37.489 53.7062 41.0554 52.2619 42.2999 49.6513C42.6593 48.8973 42.6717 48.8175 42.6692 47.2637C42.6662 45.4179 42.5176 44.7829 41.8071 43.5793C40.446 41.274 36.8924 38.957 31.4882 36.8511C28.8085 35.807 27.6538 35.1081 27.2086 34.2608C27.1102 34.0737 27.0396 33.5924 27.0396 33.11V32.2808L25.093 32.2395C22.8823 32.1925 22.539 32.0862 21.7336 31.2C20.2756 29.5958 20.6949 27.1741 22.6117 26.128L23.2663 25.7708H25.3026C27.3093 25.7708 27.3477 25.7757 27.931 26.1026C28.5662 26.4587 28.5495 26.4587 30.0683 26.1088C30.9845 25.8978 30.976 25.9078 31.5967 24.3132C33.0949 20.4643 33.3252 16.3797 32.2372 12.9498C31.6709 11.1644 30.971 9.98281 29.6822 8.63655C28.3558 7.251 26.5892 6.27114 24.4947 5.75936C23.8125 5.59265 20.5338 5.41654 20.0919 5.52299Z" fill="#2381FF"/>
</svg>
