<svg width="48" height="53" viewBox="0 0 48 53" fill="none" xmlns="http://www.w3.org/2000/svg">
<path fill-rule="evenodd" clip-rule="evenodd" d="M20.9743 0.649154C17.78 1.2701 15.0618 3.29797 13.6321 6.12686C12.5426 8.28248 12.3416 9.56236 12.5249 13.1762C12.7182 16.9872 12.5254 18.4166 11.4092 21.4471C10.5636 23.7429 10.4357 24.4498 10.4369 26.8207C10.4375 27.9325 10.4747 28.9343 10.5195 29.0471C10.5945 29.2353 10.6587 29.2226 11.2992 28.8936C12.1817 28.4403 13.2334 28.2121 14.4655 28.2063L15.4303 28.2018L15.6005 27.8291C15.6993 27.613 15.9018 27.4106 16.083 27.3473C16.5359 27.189 16.9868 27.3853 17.1897 27.8291C17.3156 28.1048 17.4353 28.2024 17.6494 28.2042C18.1722 28.2087 18.2113 28.0601 18.2113 26.0633V24.1969L17.6153 23.7903C16.2225 22.8401 14.8862 21.1205 14.3036 19.5284C13.7665 18.0608 13.6709 17.2434 13.6709 14.1181C13.6709 10.871 13.5884 11.1706 14.7205 10.3101C16.0095 9.33044 17.2064 7.83422 18.0248 6.17918C18.6932 4.82746 19.0256 4.78599 20.3756 5.8865C23.2333 8.21584 26.452 9.74416 30.0143 10.4634C31.1222 10.687 31.4749 10.8044 31.6318 11.0014C31.811 11.2268 31.8323 11.5472 31.8323 14.0195C31.8323 15.5408 31.7755 17.1593 31.706 17.6161C31.3366 20.045 29.8338 22.4766 27.8879 23.7935L27.292 24.1969V26.0633C27.292 28.0601 27.331 28.2087 27.8539 28.2042C28.0679 28.2024 28.1877 28.1048 28.3136 27.8291C28.4123 27.613 28.6148 27.4106 28.796 27.3473C29.2489 27.189 29.6998 27.3853 29.9027 27.8291L30.073 28.2018L31.0041 28.2042L31.9352 28.2068L31.8682 27.6319C31.7633 26.7304 32.0058 26.0536 32.6774 25.373C33.275 24.7675 33.8436 24.5107 34.5869 24.5107H34.9881L34.8158 23.7311C34.721 23.3022 34.3974 22.2719 34.0967 21.4413C32.9669 18.3205 32.7854 16.9799 32.9783 13.1762C33.0812 11.149 33.0803 10.3481 32.974 9.6088C32.3557 5.3061 29.3845 1.90328 25.3056 0.82622C24.1346 0.517135 22.0848 0.43328 20.9743 0.649154ZM18.9298 8.31251C18.2972 9.35296 17.1574 10.682 16.2377 11.4518L15.487 12.08L15.489 14.5126C15.4914 17.3775 15.6114 18.1247 16.2973 19.5402C17.463 21.9464 20.0754 23.5826 22.7516 23.5826C25.4417 23.5826 28.0007 21.9797 29.1987 19.5441C29.8818 18.1552 30.0119 17.3773 30.0143 14.6663L30.0162 12.3873L29.704 12.3169C26.0027 11.4807 23.0903 10.195 20.3326 8.1798C19.845 7.82336 19.4364 7.53229 19.4246 7.53287C19.4127 7.53333 19.19 7.88423 18.9298 8.31251ZM19.6196 12.9541C19.9176 13.2575 19.9706 13.3979 19.9706 13.8845C19.9706 14.3777 19.919 14.5101 19.5996 14.8352C19.2802 15.1602 19.15 15.2127 18.6653 15.2127C18.1806 15.2127 18.0504 15.1602 17.731 14.8352C17.4128 14.5114 17.3599 14.3767 17.3599 13.8915C17.3599 13.2978 17.6493 12.8285 18.1545 12.6027C18.5789 12.4131 19.2448 12.5727 19.6196 12.9541ZM27.7922 12.9541C28.0903 13.2575 28.1433 13.3979 28.1433 13.8845C28.1433 14.3777 28.0917 14.5101 27.7722 14.8352C27.4528 15.1602 27.3226 15.2127 26.8379 15.2127C26.3533 15.2127 26.2231 15.1602 25.9037 14.8352C25.5855 14.5114 25.5326 14.3767 25.5326 13.8915C25.5326 13.2978 25.8219 12.8285 26.3272 12.6027C26.7516 12.4131 27.4174 12.5727 27.7922 12.9541ZM0.0525287 15.2994C0.0567285 18.1316 0.2447 18.6782 1.77707 20.315L2.77402 21.3798V25.7173V30.0548H3.68209H4.59017V25.7173V21.3798L5.58712 20.315C7.11949 18.6782 7.30746 18.1316 7.31166 15.2994L7.31438 13.4225H3.68209H0.0498047L0.0525287 15.2994ZM25.4789 17.1249C25.9274 18.0683 25.9693 17.9997 24.6806 18.4331C23.6427 18.7821 22.6031 18.9645 21.6449 18.9657L20.9355 18.9666V18.0426V17.1185H21.6213C22.4495 17.1185 23.8218 16.8432 24.4823 16.5446C24.7478 16.4246 24.9935 16.3226 25.0283 16.3182C25.063 16.3137 25.2657 16.6767 25.4789 17.1249ZM39.3756 22.9462C38.8125 23.5191 39.2115 24.5107 40.005 24.5107C40.4716 24.5107 40.9131 24.0615 40.9131 23.5867C40.9131 23.1118 40.4716 22.6627 40.005 22.6627C39.7839 22.6627 39.5512 22.7674 39.3756 22.9462ZM20.0274 26.6104C20.0274 28.7231 19.7794 29.3438 18.7435 29.8237L18.3108 30.0242L18.7435 30.3709C19.8471 31.2555 21.2204 31.7165 22.7516 31.7165C24.2741 31.7165 25.8295 31.1893 26.8273 30.3349L27.1911 30.0235L26.7591 29.8233C25.7239 29.3438 25.4758 28.7227 25.4758 26.6104V25.0065L24.8799 25.1797C24.4829 25.2951 23.7726 25.3528 22.7516 25.3528C21.7306 25.3528 21.0204 25.2951 20.6233 25.1797L20.0274 25.0065V26.6104ZM33.9272 26.6423C33.7514 26.821 33.6485 27.0578 33.6485 27.2828C33.6485 27.8725 34.0778 28.2068 34.8352 28.2068H35.4646V27.2828V26.3587H34.8352C34.3182 26.3587 34.1559 26.4094 33.9272 26.6423ZM37.2808 28.8472C37.2808 31.3355 37.2808 31.3359 37.5594 31.6193C37.735 31.7981 37.9677 31.9029 38.1889 31.9029C38.41 31.9029 38.6427 31.7981 38.8183 31.6193C39.0895 31.3434 39.0969 31.2894 39.0969 29.5928C39.0969 27.8962 39.1043 27.8422 39.3756 27.5663C39.9386 26.9933 40.9131 27.3993 40.9131 28.2068C40.9131 28.6816 41.3545 29.1308 41.8211 29.1308C42.0423 29.1308 42.275 29.026 42.4506 28.8472C42.7075 28.5859 42.7292 28.4779 42.7292 27.4612V26.3587H40.005H37.2808V28.8472ZM44.5454 27.2828V28.2068H45.1748C45.9322 28.2068 46.3615 27.8725 46.3615 27.2828C46.3615 26.693 45.9322 26.3587 45.1748 26.3587H44.5454V27.2828ZM12.9898 30.2135C11.5076 30.6287 10.6899 31.42 9.44268 33.6462C8.9589 34.5099 8.56298 35.2702 8.56298 35.3359C8.56298 35.4015 9.46425 36.2169 10.5657 37.1476L12.5684 38.8398L13.1822 37.8836C13.5199 37.3576 13.9822 36.7328 14.2095 36.4952L14.6229 36.0631L14.9355 33.2612C15.1074 31.72 15.2507 30.3681 15.254 30.2569C15.2592 30.0807 15.1475 30.0559 14.3803 30.0625C13.8965 30.0669 13.2708 30.1347 12.9898 30.2135ZM30.2451 30.1992C30.2462 30.2787 30.3731 31.4611 30.527 32.8269C30.6809 34.1927 30.8078 35.3752 30.8088 35.4546C30.8101 35.5503 30.9993 35.5989 31.3701 35.5989H31.9294L31.8667 34.9803C31.7985 34.3075 31.9549 33.6593 32.3099 33.1445C32.5262 32.8308 32.5262 32.8229 32.3099 32.5092C31.9549 31.9944 31.7985 31.3462 31.8667 30.6734L31.9294 30.0548H31.0864C30.4865 30.0548 30.2438 30.0965 30.2451 30.1992ZM33.9272 30.3384C33.7514 30.5171 33.6485 30.7538 33.6485 30.9788C33.6485 31.2038 33.7514 31.4406 33.9272 31.6193C34.1626 31.859 34.3139 31.9029 34.9051 31.9029C35.5751 31.9029 35.6018 31.8919 35.5361 31.643C35.4986 31.5 35.467 31.0843 35.4662 30.719L35.4646 30.0548H34.8352C34.3182 30.0548 34.1559 30.1055 33.9272 30.3384ZM43.429 30.3938C42.9401 30.8193 42.1953 31.0287 41.478 30.9423C40.9514 30.8788 40.913 30.8915 40.9115 31.1286C40.9107 31.2686 40.8791 31.5 40.8416 31.643L40.7731 31.9029H43.2887H45.8043L46.0828 31.6193C46.2586 31.4406 46.3615 31.2038 46.3615 30.9788C46.3615 30.7538 46.2586 30.5171 46.0828 30.3384C45.8285 30.0794 45.7178 30.0553 44.8059 30.0595C43.8754 30.0639 43.7818 30.0866 43.429 30.3938ZM16.9611 31.417C16.9602 31.4619 16.8588 32.3822 16.7356 33.4621C16.6125 34.5421 16.5111 35.4646 16.5102 35.5123C16.5093 35.56 19.318 35.5989 22.7516 35.5989C26.1853 35.5989 28.9939 35.56 28.993 35.5123C28.9921 35.4646 28.8908 34.5421 28.7676 33.4621C28.6444 32.3822 28.5431 31.4597 28.5422 31.4122C28.5413 31.3647 28.2214 31.5652 27.8311 31.8578C24.7916 34.1371 20.8509 34.1741 17.8073 31.9521C17.3427 31.6128 16.962 31.3721 16.9611 31.417ZM0.957877 34.6749V37.447H3.40343C6.64593 37.447 6.40631 37.6682 6.40631 34.6749C6.40631 31.6817 6.64593 31.9029 3.40343 31.9029H0.957877V34.6749ZM33.9272 34.0344C33.7514 34.2131 33.6485 34.4499 33.6485 34.6749C33.6485 34.8999 33.7514 35.1367 33.9272 35.3154L34.2057 35.5989H40.005H45.8043L46.0828 35.3154C46.2586 35.1367 46.3615 34.8999 46.3615 34.6749C46.3615 34.4499 46.2586 34.2131 46.0828 34.0344L45.8043 33.7509H40.005H34.2057L33.9272 34.0344ZM7.99544 37.6209C7.99544 37.8612 6.81892 39.064 6.58395 39.064C6.44002 39.064 6.40631 39.2145 6.40631 39.858C6.40631 40.2947 6.32765 40.879 6.23139 41.1563C6.06476 41.6371 6.07634 41.7818 6.47703 44.2359C6.70836 45.6523 6.93458 46.7702 6.97999 46.7202C7.07874 46.6114 11.3178 40.6812 11.4334 40.4901C11.4835 40.4074 10.9008 39.8358 9.8966 38.9826C8.01553 37.3841 7.99544 37.3698 7.99544 37.6209ZM15.5559 37.7998C15.1073 38.3423 14.4681 39.5675 14.154 40.4862C13.9039 41.2178 13.877 41.4513 13.9246 42.4709C13.9869 43.8047 14.2682 44.6402 15.024 45.7368L15.487 46.4085V49.3198V52.2313H22.7516H30.0162V49.3257V46.4202L30.5265 45.6585C31.2616 44.5613 31.5203 43.745 31.5805 42.3324C31.6216 41.3669 31.5881 41.0111 31.3949 40.364C31.1578 39.5696 30.4715 38.3546 29.9265 37.7646L29.6332 37.447H22.7405H15.8478L15.5559 37.7998ZM32.0594 37.6277C32.0594 37.9424 33.2107 39.0019 33.7184 39.1546C34.0586 39.2568 35.7678 39.295 40.005 39.295C44.2422 39.295 45.9514 39.2568 46.2916 39.1546C46.7993 39.0019 47.9506 37.9424 47.9506 37.6277C47.9506 37.4654 47.1393 37.447 40.005 37.447C32.8707 37.447 32.0594 37.4654 32.0594 37.6277ZM2.77402 39.9355C2.77402 40.7062 3.10252 41.143 3.68209 41.143C4.26167 41.143 4.59017 40.7062 4.59017 39.9355V39.295H3.68209H2.77402V39.9355ZM0.995449 45.7054L1.01463 50.672L1.28399 51.1129C1.43212 51.3554 1.7605 51.6933 2.01351 51.8636C2.39683 52.1218 2.59967 52.1735 3.22806 52.1735C3.85644 52.1735 4.05929 52.1218 4.44261 51.8636C4.69562 51.6933 5.01617 51.3671 5.15476 51.1389C5.58837 50.4249 5.5609 49.7228 4.96066 46.1714L4.41468 42.9414L3.88925 42.9742C3.05201 43.0267 2.44666 42.7812 1.80409 42.1287C1.48921 41.8089 1.174 41.3654 1.10385 41.143C1.00566 40.8323 0.980693 41.8876 0.995449 45.7054ZM33.3975 42.4425C33.3705 43.1572 33.357 43.7555 33.3674 43.7721C33.3878 43.8046 35.1401 41.5287 35.2805 41.2874C35.345 41.1765 35.1419 41.143 34.4056 41.143H33.4466L33.3975 42.4425ZM37.5453 41.4029C36.7018 42.3599 32.1052 48.5377 31.9875 48.8727C31.4122 50.5101 32.6144 52.1551 34.3863 52.1551C35.1985 52.1551 35.8822 51.8416 36.2963 51.2794C36.4489 51.0724 37.4785 49.2398 38.5845 47.2069C39.6905 45.1741 40.7208 43.394 40.874 43.251C41.1177 43.0237 41.2749 42.9911 42.1265 42.9911C43.4623 42.9911 43.9147 42.8315 44.6305 42.1074C45.6262 41.1002 45.7651 41.143 41.5004 41.143C37.78 41.143 37.7741 41.1434 37.5453 41.4029Z" fill="#ED488B"/>
</svg>
