<svg width="42" height="38" viewBox="0 0 42 38" fill="none" xmlns="http://www.w3.org/2000/svg">
<path fill-rule="evenodd" clip-rule="evenodd" d="M11.4651 4.1787C6.12643 5.9859 1.64425 7.52469 1.50475 7.59825C0.765431 7.98838 0.621997 9.03031 1.23545 9.55454C1.40551 9.69979 4.24381 10.6947 11.3619 13.1042C16.8015 14.9455 21.3234 16.4521 21.4106 16.4521C21.6866 16.4521 41.0848 9.85213 41.3626 9.6637C41.6706 9.45483 41.9087 9.02249 41.9087 8.6722C41.9087 8.3219 41.6706 7.88957 41.3626 7.68069C41.0586 7.47451 21.6727 0.892171 21.3705 0.892578C21.2612 0.892741 16.8038 2.37149 11.4651 4.1787ZM38.0383 13.4222L36.9352 13.8001V19.8794V25.9586L36.5962 26.1136C35.6293 26.5555 34.8411 27.4598 34.5293 28.4848C34.3779 28.9828 34.3682 29.2392 34.3682 32.7345C34.3682 36.9696 34.3526 36.8614 35.0128 37.2052C35.3578 37.3848 35.4202 37.3884 38.1302 37.3884C40.7586 37.3884 40.9125 37.3801 41.237 37.2206C41.4849 37.0988 41.6237 36.9578 41.7437 36.7061C41.9028 36.3723 41.9089 36.2275 41.9089 32.8047C41.9089 30.4812 41.8776 29.1005 41.8187 28.8183C41.6014 27.779 40.7913 26.7035 39.8559 26.2123L39.3424 25.9427L39.3422 19.4866C39.3419 14.3725 39.321 13.032 39.2416 13.0375C39.1865 13.0413 38.645 13.2144 38.0383 13.4222ZM8.53899 18.8756C8.54003 21.1496 8.57348 23.1526 8.61327 23.3269C8.78791 24.0913 11.2356 26.0988 13.3138 27.1821C17.5648 29.3979 22.4279 29.7612 27.0681 28.2095C28.1378 27.8517 29.9339 26.9647 30.9187 26.3078C32.5843 25.1966 34.0056 23.8783 34.1313 23.3277C34.1928 23.0586 34.2468 14.7413 34.1871 14.7413C34.1757 14.7413 31.4592 15.6624 28.1505 16.7883L22.1345 18.8352H21.3724H20.6103L14.5943 16.7883C11.2856 15.6624 8.56907 14.7413 8.55768 14.7413C8.54637 14.7413 8.53795 16.6017 8.53899 18.8756Z" fill="#126D4E"/>
</svg>
