<svg width="54" height="54" viewBox="0 0 54 54" fill="none" xmlns="http://www.w3.org/2000/svg">
<path fill-rule="evenodd" clip-rule="evenodd" d="M26.18 4.45729V8.14608H24.2543C21.5817 8.14608 20.7073 8.40398 19.5105 9.54536C19.0327 10.0009 18.2887 11.1076 18.2887 11.3625C18.2887 11.3968 22.2087 11.425 26.9999 11.425C31.7911 11.425 35.7111 11.3968 35.7111 11.3625C35.7111 11.1076 34.9671 10.0009 34.4893 9.54536C33.2925 8.40398 32.4181 8.14608 29.7455 8.14608H27.8198V4.45729V0.768494H26.9999H26.18V4.45729ZM8.51986 2.53604C8.42393 2.60654 8.01153 3.25833 7.60354 3.98461L6.86155 5.30499L5.53149 6.03445C4.4925 6.60437 4.17981 6.82549 4.10254 7.04518C3.90116 7.61766 4.09362 7.82956 5.53149 8.61865L6.86155 9.34852L7.63398 10.7186C8.46647 12.1954 8.67502 12.3854 9.24371 12.1854C9.46344 12.1081 9.68491 11.7953 10.255 10.7567L10.9851 9.42691L12.3543 8.65841C13.832 7.82905 14.0233 7.61889 13.8232 7.04456C13.7463 6.82416 13.43 6.59945 12.3712 6.01293L11.0174 5.26308L10.2856 3.93532C9.88312 3.20494 9.4699 2.56258 9.36731 2.50766C9.11017 2.37004 8.72842 2.38285 8.51986 2.53604ZM40.9379 7.32634V8.14608H41.7578H42.5777V7.32634V6.50661H41.7578H40.9379V7.32634ZM13.8085 13.2685C13.402 13.3756 12.9638 13.518 12.8349 13.585C11.9313 14.0547 1.08568 20.6098 0.943023 20.7725C0.684862 21.067 0.71653 21.5314 1.01527 21.83L1.26677 22.0815H26.9999H52.733L52.9845 21.83C53.2833 21.5314 53.3149 21.067 53.0568 20.7725C52.7309 20.4008 41.3429 13.6478 40.5792 13.3735L39.8618 13.1157L27.2049 13.0947C15.0593 13.0746 14.5181 13.0816 13.8085 13.2685ZM23.972 23.1528L23.7204 23.4042V26.2193C23.7204 27.7676 23.6711 29.3884 23.6109 29.8211C23.4813 30.7532 23.1416 32.128 23.0081 32.2616C22.9505 32.3191 22.5017 32.1942 21.8566 31.9409C20.512 31.4129 20.3578 31.382 19.7351 31.5155C19.0105 31.6708 18.4285 32.1251 18.1284 32.7698C17.5232 34.0693 18.0216 35.3057 19.4416 36.0277C19.7657 36.1925 20.0309 36.3439 20.0309 36.3641C20.0309 36.3844 19.9203 36.6027 19.7852 36.8494C19.6501 37.096 19.4361 37.587 19.3095 37.9404C19.1037 38.5151 19.0566 38.5748 18.8634 38.504C18.7446 38.4606 18.3207 38.4249 17.9217 38.4249C17.2926 38.4249 17.129 38.4662 16.6945 38.735C15.4681 39.4935 15.1192 41.3251 16.0014 42.3732C16.1428 42.5414 17.0475 43.3817 18.0116 44.2407L19.7646 45.8025L18.7286 45.8595C17.837 45.9085 17.6359 45.9539 17.2858 46.1856C16.6546 46.6033 16.3927 47.107 16.3927 47.903C16.3927 48.7019 16.6547 49.2028 17.2942 49.6262C17.6968 49.8928 17.7609 49.9021 19.4082 49.9314L21.107 49.9615L23.6435 51.0448L26.18 52.128V52.6797V53.2313H26.9999H27.8198V52.2692C27.8198 51.5019 27.7835 51.2643 27.6404 51.0954C27.5418 50.979 26.1467 50.3176 24.5403 49.6256L21.6194 48.3675L19.888 48.3146C18.3861 48.2686 18.1418 48.2379 18.0438 48.0824C17.9617 47.9518 17.9617 47.8543 18.044 47.7237C18.143 47.5667 18.3684 47.5409 19.8618 47.5163L21.5665 47.4883L22.3104 48.0556C23.2541 48.7753 24.4644 49.3766 25.5139 49.647C27.1116 50.0586 29.2655 50.0147 30.6385 49.5424L31.2187 49.3428L31.1458 50.4673L31.073 51.5918H31.906H32.7391V51.1182C32.7391 49.6437 33.4116 46.9588 34.0766 45.7784C34.4388 45.1355 34.4562 44.8221 34.1482 44.4876C34.0214 44.3499 32.6894 43.2217 31.1881 41.9804C28.7589 39.9718 28.4293 39.6632 28.1929 39.1766C27.8801 38.5322 27.6911 37.7164 27.7363 37.206L27.7685 36.8413L32.7127 40.707L37.6569 44.5729L37.6576 48.9021L37.6584 53.2313H38.4793H39.3002L39.2735 48.4944L39.2469 43.7575L38.0427 42.7979L36.8385 41.8382V41.0415C36.8385 38.5212 35.8738 36.2328 34.0667 34.4665C33.1968 33.6161 32.7987 32.953 32.4428 31.761C32.0076 30.3036 31.9192 29.3843 31.9192 26.3158V23.4042L31.6676 23.1528L31.4161 22.9012H27.8198H24.2235L23.972 23.1528ZM30.2794 24.9506V25.3604H27.8198H25.3601V24.9506V24.5407H27.8198H30.2794V24.9506ZM40.4953 24.6688C40.3993 24.7393 39.9869 25.3911 39.5789 26.1174L38.8369 27.4377L37.5069 28.1672C36.4679 28.7371 36.1552 28.9582 36.0779 29.1779C35.8766 29.7504 36.069 29.9623 37.5069 30.7514L38.8369 31.4813L39.6094 32.8513C40.4414 34.3273 40.6505 34.5181 41.2178 34.3187C41.4352 34.2422 41.6618 33.9231 42.2329 32.89L42.9682 31.5597L44.3336 30.7912C45.807 29.9619 45.9984 29.7509 45.7986 29.1773C45.7217 28.9569 45.4054 28.7322 44.3466 28.1457L42.9928 27.3958L42.261 26.0681C41.8585 25.3377 41.4453 24.6953 41.3427 24.6404C41.0856 24.5028 40.7038 24.5156 40.4953 24.6688ZM11.4221 27.8196V28.6394H12.242H13.0619V27.8196V26.9999H12.242H11.4221V27.8196ZM30.2794 27.4098V27.8196H27.8198H25.3601V27.4098V26.9999H27.8198H30.2794V27.4098ZM21.1831 33.4204C21.7049 33.6268 22.1483 33.8085 22.1686 33.8244C22.1888 33.8402 21.9355 34.1045 21.6056 34.4115L21.0057 34.9697L20.3264 34.6276C19.9527 34.4395 19.618 34.2103 19.5827 34.1181C19.3888 33.6131 19.6022 33.2508 20.2095 33.0535C20.2233 33.0491 20.6614 33.2142 21.1831 33.4204ZM6.92703 34.495C5.75276 34.8329 4.86308 36.0219 4.86308 37.2534C4.86308 38.4358 5.75522 39.6448 6.86606 39.9676C8.25617 40.3717 9.61953 39.7981 10.262 38.539C11.3929 36.3223 9.31863 33.8069 6.92703 34.495ZM18.5152 40.213C18.745 40.3938 18.7759 40.5099 18.8349 41.417C18.8709 41.9693 18.9325 42.5361 18.9717 42.6766C19.0368 42.9099 18.9989 42.8948 18.5378 42.5036C17.2799 41.4364 17.1613 41.2942 17.1613 40.8521C17.1613 40.5267 17.2192 40.3924 17.4314 40.2255C17.7703 39.9589 18.186 39.9541 18.5152 40.213Z" fill="#FFB800"/>
</svg>
