<svg width="44" height="45" viewBox="0 0 44 45" fill="none" xmlns="http://www.w3.org/2000/svg">
<path fill-rule="evenodd" clip-rule="evenodd" d="M41.8432 0.432432C41.514 0.581226 41.1397 1.01623 40.9051 1.52279C40.7594 1.83736 40.7254 2.08184 40.7252 2.8159C40.7251 3.31375 40.7547 3.82875 40.791 3.96031C40.8542 4.18919 40.8466 4.19677 40.6169 4.13384C40.4848 4.09764 39.968 4.06815 39.4684 4.06824C38.7261 4.06841 38.4869 4.10195 38.1601 4.25143C36.8459 4.85273 36.3117 6.18671 36.6628 7.99051L36.7052 8.20819L35.5563 8.20603C34.4718 8.20396 34.3798 8.21741 33.9158 8.4444C33.3829 8.70518 33.0054 9.0794 32.6992 9.65027C32.5237 9.9776 32.5041 10.1342 32.5041 11.2052V12.3961L32.2074 12.3406C31.7481 12.2547 30.621 12.275 30.2448 12.376C29.4115 12.5996 28.6845 13.3086 28.4371 14.1388C28.2966 14.61 28.2734 15.572 28.3881 16.1633C28.4565 16.5164 28.4506 16.534 28.2761 16.4913C27.6862 16.3466 26.7617 16.3377 26.2302 16.4715C25.2505 16.7179 24.6766 17.2467 24.6139 17.9605C24.5673 18.4916 24.7851 18.9091 25.2459 19.1724C25.6896 19.4259 26.0017 19.4171 26.5601 19.1356C27.0104 18.9085 27.0346 18.9059 27.6428 19.0128C29.3511 19.3132 29.7117 19.3127 30.3195 19.0091C30.4979 18.92 30.75 18.6873 30.8797 18.492C31.1801 18.0396 31.2349 17.289 31.0413 16.2764C30.8651 15.3546 30.8627 14.8951 31.0338 14.8298C31.1053 14.8024 31.6536 14.8666 32.2521 14.9726C33.4436 15.1833 33.898 15.1659 34.4436 14.8885C34.9854 14.6131 35.3157 14.0098 35.3157 13.2957C35.3157 13.0996 35.2353 12.5001 35.1369 11.9635C35.0386 11.4268 34.979 10.9336 35.0044 10.8674C35.0672 10.7044 35.6459 10.7119 36.4935 10.8866C37.8524 11.1666 38.8185 10.9087 39.1967 10.165C39.4644 9.6388 39.494 9.20734 39.3261 8.27905C39.2414 7.81103 39.1707 7.25344 39.1689 7.04008C39.1657 6.66378 39.1742 6.65137 39.4498 6.6249C39.606 6.6099 40.0287 6.65843 40.3891 6.73266C42.4171 7.15059 43.4468 6.64343 43.5205 5.19049C43.5378 4.84911 43.4901 4.24815 43.4133 3.83979C43.2298 2.86392 43.2386 2.59935 43.4646 2.29469C43.718 1.95322 43.7262 1.27321 43.481 0.945885C43.0714 0.399328 42.3896 0.185533 41.8432 0.432432ZM24.2352 1.4602C24.0547 1.58141 23.8786 1.81193 23.7736 2.06417C23.6244 2.42297 23.6166 2.52133 23.7086 2.88107C23.9153 3.68901 23.985 4.72523 23.8935 5.63101C23.6486 8.05862 22.6818 10.0457 20.6593 12.2787C20.0448 12.957 19.9563 13.1564 20.0291 13.6974C20.0927 14.1697 20.3281 14.4631 20.8014 14.6595C21.4766 14.9397 21.736 14.8333 22.6415 13.9053C25.3561 11.1233 26.812 7.33404 26.4877 3.89496C26.388 2.8365 26.2304 2.13908 26.0179 1.81598C25.6536 1.26201 24.7877 1.08916 24.2352 1.4602ZM31.1004 4.02746C29.988 4.26229 29.7291 5.75877 30.6975 6.35636C31.2159 6.67628 32.0554 6.51662 32.4117 6.03033C32.6657 5.68368 32.6982 4.96532 32.476 4.60988C32.1801 4.1366 31.649 3.91169 31.1004 4.02746ZM17.8312 6.02886C16.7707 6.73481 17.2587 8.3531 18.5321 8.3531C19.2255 8.3531 19.7298 7.895 19.8008 7.20077C19.8772 6.45292 19.3024 5.83317 18.5321 5.83317C18.253 5.83317 18.0328 5.89463 17.8312 6.02886ZM13.4258 13.4673C13.1122 14.196 12.6541 15.5674 12.4359 16.43C10.8631 22.6493 12.2569 29.1371 16.271 34.2817C16.8891 35.0739 18.4423 36.6689 19.2494 37.3403L19.7503 37.7569L21.6718 37.0417C22.7286 36.6483 23.8956 36.2119 24.2654 36.0718L24.9375 35.817L24.4442 35.2864C22.0755 32.7389 20.0987 29.1162 19.1847 25.6477C18.5951 23.41 18.2917 20.8242 18.3922 18.8933L18.446 17.8584L16.0276 15.4497L13.6092 13.041L13.4258 13.4673ZM40.2903 13.162C39.6757 13.2931 39.2809 13.7802 39.2809 14.4072C39.2809 15.1507 39.8021 15.6613 40.56 15.6602C41.3108 15.6593 41.8031 15.1645 41.8031 14.4108C41.8031 13.5739 41.0958 12.99 40.2903 13.162ZM38.6033 18.3872C36.7112 18.7367 35.8257 19.0207 34.4424 19.7217C33.3041 20.2984 32.2449 21.0276 31.1394 21.9956C30.288 22.7411 30.1105 23.0109 30.1105 23.5597C30.1105 24.2881 30.6383 24.8132 31.3703 24.8132C31.8637 24.8132 31.9879 24.7416 32.8197 23.9785C34.0812 22.8209 35.7297 21.8368 37.2072 21.3591C38.6001 20.9087 40.3326 20.7943 41.7274 21.0606C42.5873 21.2248 42.8114 21.1895 43.229 20.8242C43.813 20.3132 43.8167 19.4601 43.2371 18.953C42.7864 18.5586 41.9617 18.3979 40.247 18.3703C39.4619 18.3576 38.7222 18.3652 38.6033 18.3872ZM7.16633 24.6834L5.10125 30.1716L5.20766 30.6533C5.66411 32.7197 7.32872 35.9873 8.96642 38.0317C9.55938 38.772 11.5171 40.7473 11.6578 40.7473C11.7705 40.7473 16.8083 38.873 16.8754 38.8061C16.8985 38.7832 16.4509 38.2892 15.8807 37.7084C14.7117 36.5173 14.0135 35.668 13.1712 34.4119C11.2167 31.4974 9.98451 28.3223 9.43575 24.7864C9.27709 23.7638 9.24265 23.1707 9.23781 21.3721C9.23461 20.1748 9.23167 19.1954 9.23167 19.1954C9.23167 19.1954 8.30217 21.665 7.16633 24.6834ZM21.0046 21.0273C21.3703 25.1795 22.7221 28.8178 25.0597 31.9412C25.7533 32.8679 27.2739 34.5763 27.5236 34.7095C27.6493 34.7766 28.1114 34.6363 29.6094 34.0763C30.6743 33.6782 31.6622 33.2549 31.8213 33.1284C32.0068 32.9809 32.1435 32.7714 32.2065 32.5381C32.4163 31.7617 32.6117 31.9898 26.5935 25.9842C23.5644 22.9616 21.0571 20.4885 21.0216 20.4885C20.9862 20.4885 20.9786 20.731 21.0046 21.0273ZM38.2096 26.0408C37.8769 26.1852 37.5102 26.6146 37.4374 26.9447C37.2492 27.7989 38.1579 28.6791 39.0083 28.4665C40.1525 28.1803 40.3412 26.595 39.2936 26.0706C38.9382 25.8926 38.5741 25.8827 38.2096 26.0408ZM1.966 38.4857C0.71744 41.8102 0.325187 42.9484 0.330638 43.2306C0.342144 43.8242 0.829474 44.3428 1.45324 44.4255C1.7389 44.4633 2.33853 44.2661 5.29556 43.1617C7.22265 42.4419 8.81337 41.8392 8.83059 41.8222C8.84772 41.8053 8.50167 41.3916 8.06148 40.903C6.39532 39.0534 5.25793 37.3952 4.24408 35.3377C3.91117 34.6621 3.63191 34.1099 3.62369 34.1107C3.61538 34.1114 2.86938 36.0802 1.966 38.4857Z" fill="#8E4DD5"/>
</svg>
