<svg width="51" height="54" viewBox="0 0 51 54" fill="none" xmlns="http://www.w3.org/2000/svg">
<path fill-rule="evenodd" clip-rule="evenodd" d="M14.4512 0.975842C14.2566 1.08297 13.9832 1.27505 13.8439 1.40271C13.6094 1.61756 13.5647 1.62136 13.2429 1.45419C12.2942 0.960774 10.658 1.12806 9.92566 1.79338C9.50096 2.1792 9.48704 2.18276 9.1409 1.99377C8.91793 1.87204 8.50692 1.80169 8.02169 1.80216C7.08971 1.80311 6.49548 2.08322 5.58237 2.95154C5.0378 3.46964 4.9544 3.6088 4.9544 4.00031C4.9544 4.39455 5.02435 4.50892 5.50604 4.90256C6.60755 5.80256 7.11743 6.31473 7.54933 6.9549C8.74888 8.73283 9.49942 10.8909 9.77855 13.3644C9.95987 14.9716 10.2687 15.6476 11.282 16.655L12.1484 17.5163L12.1791 34.6375L12.2097 51.7587L12.5343 52.2518C13.3937 53.5578 15.3908 53.5578 16.2502 52.2518L16.5747 51.7587L16.6054 34.5177C16.6263 22.7565 16.6748 17.2766 16.7579 17.2766C16.9672 17.2766 18.0555 16.1814 18.3525 15.6718C18.5082 15.4045 18.7368 14.7785 18.8606 14.2804C18.9843 13.7824 19.1927 13.2238 19.3234 13.0391C19.6905 12.5206 20.5845 10.6665 20.9126 9.74305C21.4305 8.28568 21.6354 7.03131 21.6301 5.35339C21.6224 2.96222 21.2584 1.80655 20.4089 1.4765C19.7712 1.22878 18.9723 1.1436 18.4729 1.27007C18.0324 1.38159 17.9206 1.3645 17.515 1.1239C16.9038 0.761223 15.0079 0.669634 14.4512 0.975842ZM41.3023 0.94891C41.2118 1.05853 41.1934 1.39049 41.2462 1.9609C41.3181 2.73918 41.3022 2.83361 41.0557 3.0977C40.4519 3.74393 38.9498 3.73978 36.3338 3.08465C34.7263 2.68211 32.8595 2.57913 31.9611 2.84346C31.6092 2.94703 31.127 3.19368 30.8896 3.39157C30.4143 3.78771 29.9647 4.60727 29.9647 5.07768C29.9647 5.35351 29.911 5.38602 29.346 5.45329C28.4488 5.56018 27.8699 6.00686 27.3999 6.95502C26.4926 8.78539 26.7348 11.3153 27.9677 12.8838C28.3738 13.4005 28.4311 13.5505 28.4318 14.0996C28.433 14.9687 28.8263 16.5323 29.307 17.5786C30.0735 19.247 31.4811 20.9916 32.5787 21.6337C32.9301 21.8393 32.9373 21.8615 32.882 22.5723C32.8209 23.358 32.3098 24.5652 31.5899 25.6248L31.1976 26.2022L28.2104 27.2486C26.5674 27.824 24.9266 28.4718 24.5643 28.6881C23.1279 29.5454 21.7094 31.1637 20.9837 32.7733C20.287 34.3187 20.2945 34.1958 20.2926 43.9764C20.2914 50.7915 20.3249 52.9738 20.4324 53.082C20.6181 53.2687 21.1947 53.2649 21.3162 53.076C21.3687 52.9945 21.4384 48.8436 21.4712 43.8518C21.5302 34.8673 21.5335 34.7682 21.7926 34.0048C22.2946 32.5253 23.4535 30.9308 24.6264 30.1059L25.0098 29.8363V34.4453V39.0543L24.5123 39.2286C24.1924 39.3406 23.9185 39.5468 23.7455 39.806L23.4761 40.2091V46.1273C23.4761 52.5231 23.4844 52.6133 24.1047 53.0222C24.3884 53.209 25.2612 53.2243 35.6697 53.2243H46.9278L47.2851 52.8887C47.4871 52.6989 47.6743 52.3768 47.7158 52.1472C47.7563 51.9239 47.7737 49.1159 47.7545 45.9069C47.7204 40.2022 47.7142 40.0651 47.4729 39.7377C47.3374 39.5535 47.0055 39.3244 46.7356 39.2286L46.2449 39.0543V34.5085C46.2449 29.3381 46.1429 29.7125 47.2734 30.7346C48.0786 31.4626 48.8947 32.694 49.2852 33.7702L49.6072 34.6573L49.6661 43.7447C49.7295 53.5005 49.7104 53.2243 50.321 53.2243C50.4706 53.2243 50.6789 53.138 50.7839 53.0324C50.9571 52.8582 50.9709 52.0057 50.9332 43.8082C50.8867 33.7046 50.9339 34.2882 50.0103 32.3933C49.1643 30.6578 47.7086 29.193 46.0456 28.4037C45.644 28.213 44.109 27.641 42.6346 27.1324L39.954 26.2076L39.3822 25.2757C38.725 24.2043 38.3843 23.3588 38.2746 22.5262L38.1975 21.9425L38.7751 21.516C40.9623 19.9014 42.5774 16.8823 42.7565 14.0734C42.8015 13.3668 42.8991 13.0091 43.2301 12.336C44.2259 10.3118 44.224 8.50101 43.2248 7.42495L42.9451 7.12361L43.2523 6.6691C44.3913 4.98336 44.1822 3.01928 42.695 1.43794C42.0575 0.760155 41.5928 0.596908 41.3023 0.94891ZM16.9587 2.21882C17.1018 2.30875 17.2497 2.46251 17.2871 2.56051C17.4307 2.9373 17.3384 5.62389 17.1474 6.6226C16.9237 7.79143 16.9965 8.02278 17.5878 8.02278C18.203 8.02278 18.4748 7.00461 18.5968 4.24269L18.6772 2.42027L19.2442 2.47497C19.556 2.5051 19.8882 2.59408 19.9825 2.67274C20.2619 2.90598 20.4447 4.38672 20.3791 5.88418C20.2885 7.95278 19.7286 9.82586 18.6137 11.7896L18.1252 12.6497H14.5504H10.9755L10.9225 12.3828C10.1702 8.59248 8.74699 5.81051 6.83996 4.40285C6.51612 4.16368 6.27794 3.92438 6.31073 3.871C6.34353 3.81761 6.61829 3.6088 6.92136 3.40688C7.34712 3.12321 7.6023 3.03993 8.04458 3.03993C8.54939 3.03993 8.67786 3.09652 9.13489 3.52018C9.71508 4.05797 10.5292 5.75772 10.9943 7.40206C11.137 7.90663 11.3311 8.41274 11.4256 8.52699C11.6707 8.82312 12.1113 8.78669 12.3291 8.45249C12.5001 8.19006 12.4869 8.08838 12.14 6.99939C11.9349 6.35542 11.5083 5.21458 11.1921 4.46407C10.8758 3.71368 10.6171 3.00801 10.6171 2.89602C10.6171 2.58637 10.9948 2.44673 11.8321 2.44673C12.4155 2.44673 12.6611 2.50225 12.8947 2.68709C13.2805 2.99223 13.2756 2.97479 13.6108 5.2675C13.7657 6.32683 13.9583 7.27333 14.0388 7.37085C14.2585 7.63696 14.7151 7.58749 14.9184 7.27547C15.0781 7.03036 15.0718 6.8403 14.8557 5.4069C14.4289 2.57356 14.4283 2.52895 14.8201 2.21693C15.1152 1.98178 15.2586 1.9539 15.9287 2.00112C16.352 2.0309 16.8155 2.1289 16.9587 2.21882ZM33.226 10.7702C33.6708 11.0036 34.4063 11.3933 34.8605 11.6362C35.6599 12.0639 35.7184 12.0764 36.6905 12.0321C37.6264 11.9892 37.7899 11.9401 39.094 11.3094C39.8635 10.9374 40.5651 10.6328 40.653 10.6328C40.924 10.6328 41.1693 11.1512 41.3515 12.1092C41.7887 14.4072 41.3518 16.3699 39.9184 18.5457C38.1062 21.297 35.5173 22.1515 33.3561 20.712C31.5871 19.5336 30.1113 17.1247 29.7264 14.7872C29.424 12.9511 29.826 10.9857 30.6047 10.4933C31.1803 10.1295 32.2129 10.2386 33.226 10.7702ZM3.48811 14.3784C3.34926 14.5182 3.30278 14.8132 3.30278 15.5564C3.30278 16.2995 3.34926 16.5946 3.48811 16.7343C3.72146 16.9689 3.88922 16.9692 4.22025 16.736C4.45584 16.5701 4.4825 16.4501 4.4825 15.5564C4.4825 14.6627 4.45584 14.5426 4.22025 14.3767C3.88922 14.1435 3.72146 14.1439 3.48811 14.3784ZM0.184868 17.7003C-0.0629928 17.9497 -0.0490719 18.2634 0.22085 18.5089C0.399225 18.6714 0.632458 18.7036 1.42594 18.6756C2.35427 18.6429 2.41975 18.6231 2.58692 18.3228C2.74866 18.0323 2.74488 17.9834 2.54327 17.7593C2.35392 17.5489 2.18333 17.5139 1.34631 17.5139C0.616296 17.5139 0.323605 17.5609 0.184868 17.7003ZM5.21394 17.6563C5.01539 17.856 5.03769 18.2927 5.2577 18.5139C5.47536 18.7328 7.06493 18.7791 7.43961 18.5775C7.69821 18.4384 7.75047 17.8818 7.52621 17.6563C7.43808 17.5677 7.00193 17.5139 6.37007 17.5139C5.73821 17.5139 5.30206 17.5677 5.21394 17.6563ZM3.44434 19.4359C3.25311 19.6282 3.25311 21.5689 3.44434 21.7612C3.66861 21.9867 4.22202 21.9342 4.3604 21.6741C4.56084 21.2973 4.51483 19.6988 4.29717 19.4799C4.07715 19.2586 3.64289 19.2362 3.44434 19.4359ZM37.1528 23.2148C37.2974 23.9539 37.8523 25.1826 38.5018 26.2021C38.9195 26.8577 38.9303 26.9012 38.8011 27.4171C38.6203 28.1392 37.9005 28.9442 37.1884 29.2205C36.7872 29.3763 36.3149 29.4367 35.5094 29.4356C34.4893 29.4343 34.3307 29.4023 33.7438 29.0797C32.993 28.6672 32.4527 27.967 32.3636 27.2917C32.3101 26.885 32.3852 26.6865 32.9661 25.7C33.5993 24.6249 34.0937 23.3579 34.0937 22.8106C34.0937 22.564 34.1394 22.5561 35.5588 22.5561H37.0239L37.1528 23.2148ZM31.374 28.2605C31.7377 29.1432 32.5892 29.9897 33.4698 30.344C34.0549 30.5795 34.3641 30.6192 35.6298 30.6212C37.0636 30.6234 37.1301 30.612 37.8946 30.2336C38.8104 29.7803 39.529 29.0294 39.8303 28.2113C39.9425 27.9067 40.0479 27.6387 40.0648 27.6157C40.0816 27.5927 40.4437 27.6904 40.8696 27.833L41.644 28.0921V33.5993V39.1063H35.6262H29.6084L29.6391 33.5701L29.6697 28.0339L30.2596 27.8253C30.584 27.7105 30.9061 27.6125 30.9752 27.6075C31.0444 27.6024 31.2238 27.8963 31.374 28.2605ZM5.96554 33.4793C5.82704 33.6186 5.78021 33.9127 5.78021 34.642C5.78021 35.7019 5.87423 35.903 6.37007 35.903C6.87181 35.903 6.95994 35.7051 6.95994 34.5784C6.95994 33.6718 6.93068 33.5229 6.73178 33.4157C6.41172 33.2435 6.18108 33.2627 5.96554 33.4793ZM2.78027 36.6826C2.51731 36.9471 2.5422 37.5272 2.8231 37.6784C2.94862 37.7459 3.41461 37.8012 3.85866 37.8012C4.77555 37.8012 5.19034 37.598 5.19034 37.1487C5.19034 36.6923 4.7772 36.4962 3.81584 36.4962C3.20026 36.4962 2.91453 36.5477 2.78027 36.6826ZM7.78575 36.7335C7.65598 36.864 7.5498 37.0508 7.5498 37.1487C7.5498 37.2466 7.65598 37.4334 7.78575 37.564C7.9797 37.759 8.17895 37.8012 8.90649 37.8012C9.63403 37.8012 9.83329 37.759 10.0272 37.564C10.157 37.4334 10.2632 37.2466 10.2632 37.1487C10.2632 37.0508 10.157 36.864 10.0272 36.7335C9.83329 36.5384 9.63403 36.4962 8.90649 36.4962C8.17895 36.4962 7.9797 36.5384 7.78575 36.7335ZM5.92177 38.5368C5.69904 38.7608 5.73408 40.5853 5.96554 40.8181C6.18108 41.0347 6.41172 41.054 6.73178 40.8817C6.93068 40.7746 6.95994 40.6257 6.95994 39.719C6.95994 38.5923 6.87181 38.3944 6.37007 38.3944C6.20137 38.3944 5.99964 38.4585 5.92177 38.5368ZM27.7743 42.6977C28.0155 43.3919 27.0039 43.7836 26.6565 43.1306C26.5555 42.9409 26.5695 42.8211 26.7192 42.5912C26.9942 42.1692 27.6122 42.2316 27.7743 42.6977ZM44.4517 42.4519C44.7138 42.7154 44.6223 43.2505 44.2892 43.403C43.9623 43.5529 43.705 43.4594 43.4868 43.1116C43.2857 42.791 43.58 42.3095 43.9774 42.3095C44.1603 42.3095 44.3739 42.3736 44.4517 42.4519Z" fill="#FF4155"/>
</svg>
