<svg width="54" height="50" viewBox="0 0 54 50" fill="none" xmlns="http://www.w3.org/2000/svg">
<path fill-rule="evenodd" clip-rule="evenodd" d="M24.3892 0.457261C23.0132 0.711439 22.2752 0.913003 21.1431 1.34361C19.1094 2.11708 17.0188 3.4891 15.4857 5.05636C15.0457 5.50618 14.9977 5.59444 15.1274 5.71459C15.2097 5.7909 15.5679 6.11557 15.9233 6.43615L16.5693 7.01898L17.2583 6.37394C19.708 4.08001 22.4666 2.82475 25.7526 2.50846C29.7572 2.1231 33.6721 3.49973 36.7395 6.37189L37.4262 7.0149L38.1768 6.34114C38.5897 5.9707 38.9408 5.6299 38.9572 5.58392C39.0156 5.41934 37.0678 3.70303 36.062 3.03275C34.233 1.81386 32.3705 1.02671 30.225 0.565654C28.7458 0.24783 25.8171 0.193378 24.3892 0.457261ZM25.1571 4.49447C22.5662 4.95767 20.5597 5.93434 18.8044 7.58659C18.413 7.95509 18.0927 8.2865 18.0927 8.32307C18.0927 8.35954 18.4388 8.7023 18.8619 9.08469L19.6312 9.77989L20.3167 9.15303C22.3824 7.26427 25.1228 6.35023 27.9412 6.60972C30.1577 6.81384 32.0913 7.67976 33.7483 9.21055L34.3667 9.78173L35.1369 9.0856C35.5606 8.7027 35.9072 8.35954 35.9072 8.32307C35.9072 8.2865 35.5869 7.95509 35.1955 7.58659C33.6101 6.09422 31.6887 5.09712 29.4571 4.60889C28.4126 4.38026 26.1346 4.31968 25.1571 4.49447ZM25.4642 8.89477C24.6051 9.08734 24.013 9.30546 23.3142 9.68652C22.6245 10.0628 21.3689 11.0556 21.3689 11.2249C21.3689 11.2929 21.7189 11.6605 22.1466 12.0416L22.9244 12.7348L23.3825 12.3135C24.1836 11.5766 25.7812 10.9938 27 10.9938C28.2149 10.9938 29.7563 11.556 30.6039 12.3083L31.0851 12.7354L31.8325 12.0532C32.2435 11.6779 32.5941 11.3111 32.6117 11.2379C32.6598 11.0372 31.1858 9.9172 30.3483 9.51805C29.9426 9.32476 29.3343 9.09153 28.9964 8.99969C28.1258 8.76298 26.2944 8.70863 25.4642 8.89477ZM6.83062 14.0674C6.49962 14.1987 6.03879 14.637 5.82328 15.0256C5.66776 15.3059 5.65087 16.4322 5.62506 28.2044L5.59701 41.0767L3.18273 43.9774L0.768555 46.8781L0.835615 47.2968C0.935745 47.9213 1.29695 48.5638 1.79299 48.9995C2.67184 49.7715 0.46755 49.7094 27 49.7094C53.4355 49.7094 51.3136 49.7668 52.1782 49.0283C52.6542 48.6217 53.0696 47.8874 53.1669 47.2806L53.2314 46.8781L50.8172 43.9774L48.4029 41.0767L48.3748 28.2044C48.349 16.4322 48.3322 15.3059 48.1766 15.0256C47.952 14.6206 47.4945 14.1962 47.137 14.0616C46.7491 13.9153 7.1995 13.921 6.83062 14.0674ZM44.7119 15.8428C44.8751 15.9269 45.1377 16.1648 45.2955 16.3711L45.5824 16.7464L45.6098 27.334L45.6372 37.9217L45.4005 38.3755C45.2318 38.6989 45.034 38.8952 44.7115 39.059L44.2592 39.2889H26.9943H9.72958L9.2837 39.0536C8.97901 38.8928 8.76329 38.6776 8.60214 38.3735L8.36635 37.9286V27.4949V17.061L8.59672 16.606C8.72336 16.3557 8.98362 16.0472 9.17497 15.9203L9.52287 15.6896H26.969C42.271 15.6896 44.4517 15.7084 44.7119 15.8428ZM25.5171 20.7629C25.1238 20.8469 24.4788 21.0666 24.0837 21.251C23.3109 21.6116 22.7511 22.0236 23.0341 22.0236C23.1224 22.0236 23.211 22.0723 23.2309 22.1316C23.2507 22.1911 23.3463 22.2093 23.4435 22.172C23.5407 22.1348 23.5906 22.0517 23.5546 21.9874C23.5149 21.9167 23.5435 21.921 23.6268 21.9981C23.7026 22.0684 23.8361 22.1251 23.9234 22.1243C24.0635 22.1228 24.0641 22.11 23.9285 22.0136C23.8151 21.9332 23.908 21.9204 24.2827 21.9651C24.8676 22.0348 25.0255 22.1423 24.8075 22.3228C24.6471 22.4557 24.3971 22.3806 24.4916 22.2279C24.6105 22.036 24.3205 22.022 24.0557 22.2069C23.9013 22.3149 23.7204 22.3839 23.6539 22.3605C23.5873 22.337 23.3836 22.3947 23.2012 22.4889C22.894 22.6473 22.8841 22.6679 23.0663 22.7673C23.1744 22.8262 23.2912 22.9168 23.3256 22.9685C23.3601 23.0202 23.4983 22.9232 23.6327 22.7529C23.8512 22.4762 23.921 22.4492 24.2868 22.4994C24.556 22.5364 24.7597 22.64 24.8814 22.8018C25.066 23.0475 25.0656 23.0482 24.7493 23.1113C24.5004 23.161 24.4386 23.2212 24.4619 23.3909C24.4855 23.5631 24.4433 23.6019 24.254 23.5815C24.0041 23.5546 23.2219 23.9617 22.9917 24.2386C22.9173 24.328 22.6895 24.5064 22.4854 24.6349C22.2345 24.7929 22.0939 24.9704 22.0513 25.1829C21.9731 25.5731 21.8201 25.5957 21.8257 25.2162C21.829 24.9771 21.7916 24.9389 21.5737 24.9602C20.9841 25.0176 20.8727 25.0938 20.6103 25.6192C20.3155 26.2095 20.3893 26.491 20.7529 26.1628C21.0225 25.9193 21.1517 26.046 20.9079 26.3148C20.751 26.4877 20.7411 26.5581 20.846 26.7535C20.9374 26.924 20.9419 27.0621 20.8627 27.2699C20.7008 27.695 20.7313 27.9191 20.9594 27.9786C21.072 28.0079 21.1642 28.0879 21.1642 28.1563C21.1642 28.2525 21.1296 28.2518 21.0106 28.1533C20.9045 28.0654 20.857 28.0616 20.857 28.1408C20.857 28.2039 20.8152 28.2555 20.7643 28.2555C20.7132 28.2555 20.6415 28.0141 20.6049 27.7191C20.5069 26.9287 20.1977 26.3676 20.0167 26.6518C19.8603 26.8971 19.9338 28.5226 20.1371 29.3156C20.5321 30.8564 21.6134 32.4685 22.8387 33.3433L23.3112 33.6805L23.2498 33.3744C23.2161 33.206 23.0901 32.6637 22.9698 32.1694C22.7636 31.3219 22.7293 31.2588 22.3702 31.0656C21.8825 30.8031 21.2575 29.9826 21.2613 29.6099C21.2714 28.6521 21.3446 28.2446 21.5313 28.1078C21.7027 27.9822 21.736 27.9857 21.7969 28.1353C21.8352 28.2295 21.8697 28.252 21.8737 28.1853C21.8837 28.0156 22.5611 28.1278 22.9873 28.3697C23.1735 28.4754 23.4097 28.562 23.5123 28.562C23.7281 28.562 23.8908 28.7331 23.9432 29.0152C23.972 29.1702 24.0758 29.218 24.4225 29.2358C24.6657 29.2483 25.004 29.316 25.1741 29.3863C25.454 29.5019 25.4759 29.544 25.4057 29.8298C25.363 30.0033 25.3358 30.3371 25.3454 30.5714C25.3585 30.8961 25.2999 31.0715 25.0989 31.31C24.9539 31.4819 24.8599 31.6623 24.89 31.7109C25.0026 31.8928 24.7333 32.5581 24.5108 32.6476C24.3876 32.6971 24.3445 32.7406 24.4148 32.7441C24.5933 32.7531 24.5751 33.0289 24.3893 33.1327C24.3035 33.1806 24.2173 33.4093 24.194 33.6511C24.1541 34.0638 24.1689 34.0908 24.5108 34.2333C25.2288 34.5327 26.4939 34.7217 27.3544 34.6582C30.7839 34.4052 33.3739 32.0686 33.9421 28.7152C34.0448 28.1091 34.0722 27.5956 34.0226 27.2086C33.9532 26.6675 33.9317 26.6299 33.7478 26.7281C33.638 26.7867 33.5028 26.8066 33.4473 26.7724C33.3365 26.7041 32.474 25.4541 32.2077 24.9758C31.9449 24.504 31.8843 24.8887 32.1301 25.4685C32.4788 26.2913 32.5666 26.4541 32.8716 26.8438C33.1288 27.1725 33.1978 27.208 33.4171 27.1247C33.753 26.9974 33.7572 26.9987 33.7572 27.2371C33.7572 27.571 33.4963 28.1007 33.123 28.5252C32.6645 29.0464 32.5476 29.3523 32.641 29.7871C32.7576 30.3302 32.6575 30.8126 32.3737 31.075C32.2143 31.2225 32.1191 31.4223 32.1191 31.6094C32.1191 31.7738 32.05 31.9655 31.9655 32.0354C31.881 32.1054 31.8119 32.2457 31.8119 32.3471C31.8119 32.4487 31.6567 32.6959 31.4671 32.8966C31.2036 33.1754 31.0405 33.2614 30.7755 33.2614C30.3865 33.2614 30.3682 33.2273 29.9435 31.7038C29.7593 31.0432 29.7425 30.8576 29.8421 30.58C29.979 30.1985 29.8821 29.625 29.6112 29.2124C29.5103 29.0588 29.4587 28.8378 29.4881 28.6849C29.5472 28.3757 29.4796 28.1533 29.3263 28.1533C29.2663 28.1533 29.1342 28.0783 29.0327 27.9866C28.8698 27.8395 28.8207 27.8372 28.6151 27.9673C28.487 28.0484 28.1997 28.1118 27.9767 28.1085C27.6057 28.1027 27.5391 28.0563 27.1913 27.5599C26.8333 27.049 26.8145 26.9838 26.8687 26.4361C26.9268 25.8483 27.1981 25.168 27.4344 25.0174C27.5051 24.9722 27.6538 24.7575 27.7648 24.5403C27.8756 24.3231 28.0138 24.1315 28.0719 24.1147C28.1298 24.0977 28.3156 24.0509 28.4845 24.0107L28.7916 23.9373L28.45 23.8436C28.2041 23.7762 28.1251 23.706 28.1684 23.5935C28.2015 23.5075 28.2285 23.3949 28.2285 23.3433C28.2285 23.2918 28.3668 23.2496 28.5357 23.2496C28.8379 23.2496 28.98 23.0057 28.7268 22.9215C28.6631 22.9003 28.8243 22.795 29.0852 22.6878C29.346 22.5804 29.5595 22.4277 29.5595 22.3485C29.5595 22.2302 29.6047 22.234 29.8119 22.3694C30.1407 22.5844 30.3405 22.5777 30.5927 22.3434C30.798 22.1525 30.7979 22.1521 30.5628 22.088C30.367 22.0345 30.3532 22.0067 30.481 21.923C30.5654 21.8677 30.5885 21.8225 30.5321 21.8225C30.411 21.8225 30.0857 22.0197 30.203 22.0221C30.2472 22.0229 30.2321 22.1194 30.1693 22.2364C30.0645 22.4319 30.0406 22.4361 29.8761 22.2875C29.7776 22.1985 29.6227 22.1258 29.5319 22.1258C28.9482 22.1258 29.6992 21.6218 30.3053 21.6068C30.6055 21.5995 30.5712 21.5681 29.9179 21.252C28.6106 20.6195 27.0163 20.4424 25.5171 20.7629ZM26.9637 21.6392C27.0461 21.7722 26.6372 22.1255 26.3999 22.1264C26.3076 22.1268 26.1006 22.1955 25.9399 22.2791C25.6228 22.4441 25.4183 22.3926 25.5042 22.1693C25.5337 22.0923 25.4576 21.959 25.3348 21.8731C25.2119 21.7873 25.1525 21.7171 25.2025 21.7171C25.2526 21.7171 25.2671 21.6908 25.2349 21.6585C25.2025 21.6263 25.0452 21.6672 24.885 21.7495C24.6262 21.8824 24.5773 21.8811 24.4438 21.7376C24.3106 21.5944 24.3135 21.5837 24.4694 21.6434C24.566 21.6805 24.6452 21.6719 24.6452 21.6245C24.6452 21.493 26.8819 21.5071 26.9637 21.6392ZM29.6875 21.5805C29.6172 21.6089 29.502 21.6089 29.4315 21.5805C29.3612 21.5522 29.4187 21.529 29.5595 21.529C29.7003 21.529 29.7579 21.5522 29.6875 21.5805ZM27.3071 22.1878C27.3071 22.2099 27.238 22.2279 27.1535 22.2279C27.0691 22.2279 27 22.1834 27 22.129C27 22.0746 27.0691 22.0565 27.1535 22.0888C27.238 22.1212 27.3071 22.1657 27.3071 22.1878ZM28.8506 22.3909L29.0988 22.6561L28.8428 22.6208C28.7021 22.6013 28.5862 22.5395 28.5853 22.4834C28.5844 22.4272 28.5472 22.3238 28.5025 22.2535C28.3568 22.0246 28.5961 22.119 28.8506 22.3909ZM28.3821 22.4323C28.3473 22.4885 28.2728 22.5344 28.2165 22.5344C28.1602 22.5344 28.1425 22.4885 28.1774 22.4323C28.2122 22.3761 28.2867 22.3301 28.343 22.3301C28.3993 22.3301 28.4169 22.3761 28.3821 22.4323ZM25.0547 23.3517C25.0547 23.4079 24.9625 23.4539 24.8499 23.4539C24.7373 23.4539 24.6452 23.4079 24.6452 23.3517C24.6452 23.2955 24.7373 23.2496 24.8499 23.2496C24.9625 23.2496 25.0547 23.2955 25.0547 23.3517ZM29.3827 23.3691C29.201 23.4182 29.0015 23.5533 28.9394 23.669C28.8334 23.8667 28.8505 23.8775 29.2186 23.8456C29.546 23.8172 29.6158 23.8453 29.6419 24.0158C29.6829 24.2836 30.3484 24.6277 30.5316 24.4759C30.6506 24.3774 30.9364 24.389 31.8375 24.5288C32.0644 24.5641 32.1191 24.5334 32.1191 24.3708C32.1191 24.2083 32.0494 24.169 31.7616 24.169C31.515 24.169 31.3645 24.1057 31.2763 23.9647C31.1513 23.765 30.9809 23.6848 31.005 23.837C31.0383 24.048 30.9591 24.009 30.5759 23.6267C30.2534 23.3049 30.1391 23.2425 30.0717 23.3512C30.0095 23.4516 29.9459 23.4615 29.8488 23.3857C29.7624 23.3182 29.593 23.3122 29.3827 23.3691ZM30.3806 23.6096C30.5784 23.8475 30.4373 23.8923 30.2256 23.6588C30.1233 23.5461 30.0873 23.4539 30.1455 23.4539C30.2035 23.4539 30.3094 23.524 30.3806 23.6096ZM33.3477 25.0634C33.3477 25.1196 33.4168 25.2228 33.5012 25.2928C33.5869 25.3637 33.6548 25.3748 33.6548 25.3178C33.6548 25.2616 33.5857 25.1584 33.5012 25.0885C33.4155 25.0176 33.3477 25.0064 33.3477 25.0634ZM21.9435 26.1643C22.1162 26.4273 22.0859 26.5941 21.8877 26.4718C21.8276 26.4348 21.7785 26.3368 21.7785 26.254C21.7785 26.1712 21.6748 26.062 21.5481 26.0111L21.3177 25.9187L21.5457 25.9122C21.6816 25.9084 21.8423 26.0103 21.9435 26.1643ZM22.5352 26.6798C22.5767 26.7878 22.5064 26.8232 22.2616 26.8171C22.0803 26.8127 21.9897 26.7859 22.06 26.7576C22.1304 26.7292 22.188 26.6423 22.188 26.5645C22.188 26.3894 22.458 26.4791 22.5352 26.6798ZM34.2542 45.9549L34.9677 46.7978L30.9839 46.8245C28.7927 46.8391 25.2072 46.8391 23.0161 46.8245L19.0322 46.7978L19.7458 45.9549L20.4592 45.1121H27H33.5408L34.2542 45.9549ZM31.0235 47.8626C31.355 47.9884 31.4423 48.2542 31.2488 48.5489L31.0905 48.7899H27.0034C22.9896 48.7899 22.9136 48.7861 22.7682 48.5789C22.5813 48.3127 22.6633 47.9817 22.9444 47.8684C23.2388 47.7497 30.7117 47.7444 31.0235 47.8626Z" fill="#2381FF"/>
</svg>
