<svg width="37" height="54" viewBox="0 0 37 54" fill="none" xmlns="http://www.w3.org/2000/svg">
<path fill-rule="evenodd" clip-rule="evenodd" d="M14.5879 0.903801C14.4161 0.980011 14.1761 1.15364 14.0546 1.28963C13.6026 1.79534 3.34859 17.8741 3.25225 18.2281C3.02448 19.0654 3.39119 19.7233 4.44039 20.3595C4.82939 20.5955 5.03342 20.7809 4.98801 20.8574C4.94812 20.9243 4.66827 21.3639 4.36603 21.8343C3.58345 23.0519 3.49596 23.2492 3.49596 23.7948C3.49596 24.4881 3.78696 24.889 4.704 25.4596C5.6552 26.0515 6.18042 26.1439 6.7997 25.8285C7.14162 25.6543 7.37252 25.3801 7.98972 24.4152C8.4109 23.7568 8.78979 23.2172 8.83166 23.2162C8.87343 23.2153 9.17286 23.3837 9.49687 23.5906C9.82088 23.7976 10.2429 24.0101 10.4346 24.0629C10.8483 24.177 11.473 24.0353 11.8453 23.7429C11.9844 23.6338 13.0768 22.0181 14.273 20.1525L16.4477 16.7606L16.7851 17.4879C17.4931 19.0137 18.8605 19.8823 20.5765 19.8966C22.5104 19.9126 24.1083 18.663 24.599 16.7507C24.7628 16.1124 24.7534 15.1919 24.5767 14.5987C24.5084 14.369 24.5482 14.3808 25.1698 14.7744C27.3994 16.1864 29.1803 18.1671 30.317 20.4991C31.8083 23.5584 32.0994 27.0376 31.1415 30.3518C29.9401 34.5085 26.7387 37.9323 22.6442 39.4393L21.8122 39.7456H18.7365C16.1145 39.7456 15.6084 39.7208 15.3046 39.5769C14.8156 39.3452 14.5122 38.8814 14.454 38.2767L14.4052 37.7702H10.4608H6.51631V41.4628V45.1554L18.7799 45.1277L31.0436 45.1001L31.6346 44.8235C33.2273 44.0782 34.1855 42.3208 33.9112 40.648C33.7888 39.9008 33.4191 39.0761 32.9859 38.5835C32.8055 38.3784 32.6579 38.1817 32.6579 38.1464C32.6579 38.1109 32.9569 37.6493 33.3224 37.1204C37.5007 31.0737 37.7361 23.1708 33.9274 16.8203C32.8612 15.0426 30.9615 12.9189 29.3229 11.6727C27.6759 10.4199 25.2715 9.14475 24.5737 9.1538C23.7696 9.16419 23.429 9.4472 22.5273 10.8541L21.9531 11.75L20.9264 11.7038C20.3616 11.6783 19.8678 11.6495 19.8289 11.6397C19.7901 11.6298 20.458 10.5288 21.3131 9.19289C22.7174 6.99871 22.8678 6.71924 22.8678 6.30253C22.8678 5.78861 22.6969 5.39155 22.3309 5.05521C22.0453 4.79268 16.5536 1.24992 15.9774 0.956514C15.5237 0.725493 15.0319 0.706779 14.5879 0.903801ZM21.3666 14.5292C22.2779 15.1253 22.2315 16.502 21.2805 17.0808C20.8822 17.3232 20.4914 17.3434 20.0264 17.1456C19.4578 16.9038 19.1936 16.5283 19.1403 15.886C19.0984 15.3824 19.1271 15.2692 19.3794 14.9389C19.5371 14.7325 19.8124 14.4976 19.9911 14.4169C20.3794 14.2418 21.0052 14.2929 21.3666 14.5292ZM0.648404 33.4091C0.0701642 33.8631 0.0405863 35.0192 0.593622 35.5481L0.905862 35.8468H10.474H20.0421L20.3494 35.553C20.899 35.0272 20.8719 33.8585 20.2996 33.4091C20.0298 33.1972 19.9531 33.1955 10.474 33.1955C0.994911 33.1955 0.918152 33.1972 0.648404 33.4091ZM30.6933 40.0129C31.1546 40.251 31.4528 40.9672 31.3066 41.4859C31.1032 42.2083 30.657 42.5528 29.9253 42.5528C29.5023 42.5528 29.367 42.4986 29.0371 42.1969C28.6687 41.8598 28.6481 41.8072 28.6481 41.2012C28.6481 40.5952 28.6687 40.5427 29.0371 40.2055C29.3613 39.909 29.5055 39.8496 29.9016 39.8496C30.163 39.8496 30.5193 39.9231 30.6933 40.0129ZM6.20386 47.1304C4.63495 47.3159 3.39619 47.9383 2.19024 49.1475C0.985433 50.3555 0.326061 51.7078 0.196394 53.2367L0.132446 53.9917L14.815 53.9645L29.4976 53.9375L29.8708 53.6533C30.5317 53.1501 30.5847 52.8484 30.5518 49.7787L30.5228 47.0755L18.7018 47.0629C12.2003 47.0561 6.57619 47.0864 6.20386 47.1304Z" fill="#DA1E37"/>
</svg>
