<svg width="48" height="56" viewBox="0 0 48 56" fill="none" xmlns="http://www.w3.org/2000/svg">
<path fill-rule="evenodd" clip-rule="evenodd" d="M19.4561 0.256719C19.0127 0.449199 17.5963 1.62542 16.3086 2.87081L13.9672 5.13512L14.0345 9.39655C14.0959 13.2975 14.038 13.6746 13.346 13.856C11.8289 14.2548 12.6393 19.932 14.3052 20.5742C14.6152 20.6936 15.1542 21.6544 15.5032 22.7093C16.7599 26.5099 20.531 29.5429 24 29.5429C27.469 29.5429 31.2401 26.5099 32.4968 22.7093C32.8458 21.6544 33.3848 20.6936 33.6948 20.5742C34.6379 20.2106 35.4098 18.2289 35.4098 16.1729C35.4098 14.6184 35.2391 14.1113 34.5639 13.6608C33.7487 13.1173 33.7361 12.9995 34.2189 10.4309C35.5204 3.50161 32.3878 0.246442 24.1967 0.0168098C22.0328 -0.0436613 19.8995 0.064239 19.4561 0.256719ZM11.2131 34.1545C8.73757 35.4355 8.84813 35.3063 9.32695 36.3619C9.60275 36.9706 10.3436 37.42 11.6502 37.7709C14.1073 38.4314 16.9176 41.2478 17.8438 43.9777C18.7133 46.5408 18.6661 47.1175 17.4905 48.2988C16.2571 49.5375 15.1885 49.5814 14.3831 48.4261C13.5907 47.2902 13.6084 47.0961 14.5916 46.1084C15.6925 45.0026 15.3277 43.6615 13.3979 41.7229C11.4043 39.7206 9.77744 39.6436 8.65141 41.4988C7.84918 42.8209 7.6859 44.3346 8.11397 46.4839C8.32603 47.5491 8.48656 47.6823 9.31003 47.4748C9.93639 47.3167 10.5246 47.4744 11.0321 47.9356C12.663 49.4185 11.5401 51.2809 9.01535 51.2809C7.6918 51.2809 7.35148 51.0951 6.69875 50.0169C4.92079 47.0799 4.81692 42.5335 6.47213 40.0835C7.152 39.0768 7.25784 38.6045 6.95528 37.9239C6.43712 36.7576 6.13652 36.8117 3.87147 38.482C0.717638 40.8079 0 42.1921 0 45.9492C0 49.8075 0.382818 50.4699 3.53823 52.0702C13.752 57.2494 34.0371 57.3213 44.199 52.2144C47.7588 50.4252 48 50.0466 48 46.2519C48 42.2438 47.5334 41.1945 44.7761 39.0053L42.7503 37.3967L41.498 40.0902C40.6367 41.9427 40.3507 42.9912 40.582 43.4489C40.767 43.8153 40.918 44.8555 40.918 45.761C40.918 47.1064 40.6733 47.6534 39.5803 48.7514C38.4386 49.8984 37.9719 50.0952 36.3934 50.0952C34.815 50.0952 34.3483 49.8984 33.2066 48.7514C32.0648 47.6044 31.8689 47.1357 31.8689 45.55C31.8689 43.9643 32.0648 43.4955 33.2066 42.3486C34.3448 41.2051 34.8173 41.0048 36.3761 41.0048C38.1557 41.0048 38.2289 40.9569 38.9308 39.325C40.4136 35.8782 40.4668 36.0465 37.4085 34.4992C35.8871 33.7297 34.4109 33.1 34.1276 33.1C33.8439 33.1 33.3096 33.6146 32.9398 34.2439C31.5852 36.5469 26.703 42.6007 26.3677 42.3924C25.7453 42.0059 25.4487 37.9148 25.9542 36.6884C26.6837 34.9197 25.9562 33.8905 23.9764 33.8905C22.6426 33.8905 22.3475 34.047 22.0127 34.932C21.7161 35.7157 21.7629 36.1947 22.2024 36.8686C22.689 37.6152 22.7123 38.1654 22.3401 40.1748C22.0946 41.5008 21.7731 42.5857 21.626 42.5857C21.2801 42.5857 17.1671 37.4129 15.5815 34.9845C14.9103 33.9557 14.0951 33.1194 13.7705 33.1257C13.4459 33.1317 12.2951 33.5949 11.2131 34.1545ZM35.0164 44.1667C34.1075 45.0796 34.0289 45.7353 34.7213 46.6203C35.5719 47.7076 36.8589 47.8491 37.7504 46.9535C38.7659 45.9334 38.7714 45.1721 37.7705 44.1667C37.3377 43.7319 36.718 43.3762 36.3934 43.3762C36.0689 43.3762 35.4492 43.7319 35.0164 44.1667Z" fill="#0085FF"/>
</svg>
