<svg width="42" height="54" viewBox="0 0 42 54" fill="none" xmlns="http://www.w3.org/2000/svg">
<path fill-rule="evenodd" clip-rule="evenodd" d="M16.7328 1.35803C14.0925 2.09649 9.79604 3.2906 7.18507 4.01154C2.98373 5.17171 2.40105 5.35851 2.11781 5.63666L1.79778 5.95092L1.76695 9.44872L1.73612 12.9466L1.24731 13.0024C0.517841 13.0858 0.0909119 13.5542 0.0909119 14.271C0.0909119 14.9866 0.518055 15.4563 1.24443 15.5393L1.73046 15.5947L1.76407 17.3634L1.79778 19.1321L2.14651 19.4852C2.4466 19.789 2.56917 19.8383 3.02459 19.8383C3.48 19.8383 3.60257 19.789 3.90266 19.4852L4.25139 19.1321L4.2851 17.3634L4.31871 15.5947L4.80474 15.5393C5.53112 15.4563 5.95826 14.9866 5.95826 14.271C5.95826 13.5524 5.53154 13.0858 4.7978 13.002L4.30473 12.9457V10.743V8.54043L6.43831 9.62255L8.57189 10.7047V14.4483V18.192L7.47843 19.3394C3.65367 23.3532 1.70529 28.1665 1.71915 33.5675C1.7263 36.3792 2.14096 38.6445 3.09414 41.0807C5.12787 46.2783 9.12855 50.3824 14.2067 52.4802C24.4816 56.725 36.2238 51.7223 40.4103 41.3164C42.7749 35.4386 42.3041 28.7489 39.1427 23.3054C38.3209 21.8905 37.401 20.683 36.1218 19.34L35.0283 18.192V14.5022V10.8123L38.202 9.20203C39.9643 8.30779 41.4943 7.46242 41.6424 7.30113C41.8516 7.07325 41.9091 6.89639 41.9091 6.48095C41.9091 5.62358 41.6028 5.39905 39.7222 4.87713C31.331 2.54868 21.9366 0.00262765 21.7568 0.00824904C21.6339 0.0120327 19.3731 0.619467 16.7328 1.35803ZM35.2263 6.39198L36.9574 6.8591L36.0297 7.33151L35.102 7.80392L34.1317 6.80721C33.598 6.25901 33.2365 5.83622 33.3283 5.86768C33.42 5.89914 34.2742 6.13502 35.2263 6.39198ZM23.9982 8.76129C25.7929 8.90701 27.221 9.13425 28.7342 9.51499C29.9695 9.82568 31.6309 10.3807 32.1746 10.6642L32.468 10.8172V13.6908C32.468 15.9451 32.4393 16.5532 32.3346 16.5126C30.7839 15.9119 28.205 15.2659 26.1206 14.9559C24.4911 14.7137 19.4086 14.6803 17.853 14.9017C15.5777 15.2254 12.4813 15.9748 11.3171 16.4833C11.1392 16.5611 11.1303 16.403 11.157 13.6659L11.1855 10.7663L12.0923 10.4041C15.4708 9.05468 19.9683 8.43417 23.9982 8.76129ZM26.0447 17.6151C27.855 17.8891 29.3272 18.2507 30.8504 18.7951C32.2399 19.2918 32.5559 19.4927 33.7971 20.6695C36.3909 23.1288 38.2103 26.4251 38.9981 30.0922C39.2012 31.0373 39.2343 31.5261 39.238 33.6215C39.2417 35.7885 39.2148 36.1774 38.9921 37.1863C37.4235 44.2883 32.2773 49.5115 25.3483 51.0339C24.0426 51.3208 20.8654 51.4396 19.5376 51.2512C13.2475 50.3587 7.93353 46.2076 5.58872 40.3549C5.03367 38.9696 4.60109 37.3498 4.40277 35.9142C4.21555 34.5593 4.33407 31.3508 4.62125 30.0001C5.40417 26.318 7.1057 23.261 9.84031 20.6239C11.0606 19.4472 11.3972 19.2485 13.1694 18.6585C15.1636 17.9947 17.2689 17.5812 19.7732 17.3616C20.9527 17.2581 24.6836 17.4089 26.0447 17.6151ZM21.1465 20.3987C20.6205 20.7294 20.5199 21.0545 20.5199 22.4224V23.676L20.1732 23.6776C19.5486 23.6804 18.4759 23.9977 17.7039 24.4078C15.811 25.4132 14.5491 27.5421 14.5491 29.7298C14.5491 31.9131 15.8143 34.0517 17.693 35.0438C18.8335 35.646 19.1057 35.6969 21.5867 35.7717C23.7603 35.8372 23.9115 35.8556 24.4762 36.1225C25.7291 36.7145 26.4392 37.8433 26.4392 39.2429C26.4392 40.6419 25.7307 41.7689 24.4762 42.365C23.8948 42.6413 23.8195 42.6491 21.3892 42.6825L18.898 42.7168L18.322 42.4312C17.6345 42.0904 17.236 41.4926 17.1171 40.6233C17.0262 39.959 16.8627 39.6597 16.4585 39.4176C15.5818 38.8929 14.5425 39.5716 14.5485 40.6649C14.56 42.7247 16.1569 44.7083 18.1853 45.1821C18.4426 45.2422 19.0732 45.2926 19.5865 45.2941L20.5199 45.2967V46.1179C20.5199 46.6839 20.5741 47.0319 20.6945 47.2383C21.0524 47.8523 21.8439 48.0687 22.4359 47.7144C22.9232 47.4227 23.0802 47.0337 23.0802 46.1179V45.2967L23.4269 45.2951C24.0516 45.2923 25.1243 44.975 25.8962 44.565C27.7892 43.5595 29.0511 41.4306 29.0511 39.2429C29.0511 37.0597 27.7859 34.9211 25.9072 33.929C24.7667 33.3267 24.4945 33.2758 22.0135 33.201C19.8399 33.1355 19.6891 33.1171 19.1331 32.8514C17.8687 32.247 17.1609 31.1267 17.1609 29.7298C17.1609 28.3308 17.8695 27.2039 19.1239 26.6078C19.7041 26.332 19.7847 26.3236 22.1735 26.2893C23.7536 26.2665 24.7678 26.2964 25.0223 26.3732C25.8252 26.6155 26.4863 27.4859 26.4916 28.3078C26.5002 29.6291 28.2178 30.1045 28.8797 28.9688C29.3969 28.0817 28.763 26.0839 27.6154 24.9841C26.6288 24.0386 25.6534 23.6794 24.067 23.6773L23.0802 23.676V22.4224C23.0802 21.4561 23.0402 21.1003 22.9057 20.8696C22.5478 20.2556 21.7245 20.0352 21.1465 20.3987Z" fill="#FBB540"/>
</svg>
