<svg width="53" height="54" viewBox="0 0 53 54" fill="none" xmlns="http://www.w3.org/2000/svg">
<path fill-rule="evenodd" clip-rule="evenodd" d="M31.7504 0.856668C31.0434 1.02751 30.02 1.63169 29.5223 2.17194C29.2685 2.44755 28.8999 3.01326 28.7035 3.42882C28.3541 4.16786 28.3454 4.22647 28.3059 6.07973L28.2657 7.97484H36.4293H44.5929L44.5527 6.07973C44.5132 4.22647 44.5045 4.16786 44.1551 3.42882C43.6583 2.37774 43.0171 1.72209 41.988 1.21295L41.134 0.790367L36.6616 0.770454C34.1866 0.75948 31.9933 0.797947 31.7504 0.856668ZM5.67523 12.5005V15.2159H10.1979H14.7205V13.4056V11.5954H15.6251H16.5296V14.033C16.5296 16.4704 16.5296 16.4707 16.8072 16.7484C17.368 17.3097 18.3387 16.912 18.3387 16.121C18.3387 15.3301 19.3093 14.9324 19.8702 15.4937C20.1455 15.769 20.1477 15.7888 20.1477 17.9313C20.1477 20.0737 20.15 20.0935 20.4253 20.3689C20.6002 20.5441 20.832 20.6467 21.0523 20.6467C21.2725 20.6467 21.5043 20.5441 21.6792 20.3689L21.9568 20.0913V14.9381V9.78511H13.816H5.67523V12.5005ZM28.0649 9.9831C28.0696 10.3651 28.4918 11.1111 28.8459 11.3634C29.391 11.7518 29.8872 11.7598 31.9109 11.4122C33.5931 11.1232 34.0279 11.0925 36.4293 11.0925C38.8307 11.0925 39.2655 11.1232 40.9477 11.4122C42.9714 11.7598 43.4676 11.7518 44.0127 11.3634C44.3668 11.1111 44.789 10.3651 44.7937 9.9831C44.7961 9.79631 44.3234 9.78511 36.4293 9.78511C28.5352 9.78511 28.0625 9.79631 28.0649 9.9831ZM1.32218 11.7551C0.906319 11.94 0.52913 12.3385 0.368689 12.7624C0.295648 12.9551 0.248047 14.13 0.248047 15.736C0.248047 18.7139 0.292143 18.9392 0.978117 19.4627C1.37622 19.7664 1.62339 19.8125 7.12395 20.6057C10.276 21.0602 12.8676 21.4336 12.8832 21.4354C12.8988 21.4372 12.9115 21.8714 12.9115 22.4004V23.3621H13.8257H14.74L14.702 22.0689C14.6699 20.976 14.6278 20.7271 14.4309 20.4635C13.8904 19.7402 13.9839 19.7627 7.85889 18.8794C4.69902 18.4238 2.10098 18.0495 2.08538 18.0477C2.06977 18.0459 2.05711 17.0007 2.05711 15.725V13.4056H2.96164H3.86617V12.5005V11.5954L2.76377 11.5998C2.09951 11.6025 1.5266 11.6642 1.32218 11.7551ZM26.6434 12.6597C25.2456 13.269 25.2615 15.3785 26.6684 15.9667C27.3995 16.2723 27.384 16.308 27.384 14.3108C27.384 12.306 27.3956 12.3318 26.6434 12.6597ZM45.4746 14.3108V16.1493L45.8421 16.0772C46.2735 15.9927 46.6693 15.7207 46.994 15.2855C47.3209 14.8474 47.3209 13.7741 46.994 13.336C46.6693 12.9008 46.2735 12.6288 45.8421 12.5443L45.4746 12.4722V14.3108ZM34.0211 12.9233C33.517 12.9629 33.4848 12.9836 33.5688 13.2141C33.6185 13.3505 33.6577 13.6838 33.6558 13.9548C33.653 14.3794 33.5926 14.5023 33.219 14.8449C32.8254 15.2058 32.7387 15.2372 32.2758 15.1849C31.574 15.1058 31.1117 14.6397 31.0318 13.9308C30.9996 13.6445 30.9317 13.4358 30.8809 13.4673C30.8301 13.4986 30.4295 13.5277 29.9908 13.5318L29.193 13.5394L29.1953 15.7636C29.1966 16.9869 29.2483 18.3443 29.3105 18.7798C29.6868 21.4177 30.5822 22.9961 32.3514 24.1404C33.4822 24.8717 34.2214 25.0751 35.993 25.1421C38.6314 25.242 40.0114 24.772 41.527 23.2575C43.2019 21.5838 43.6655 19.9329 43.6655 15.6431V13.5188H43.0578C42.7236 13.5188 42.3038 13.4897 42.125 13.4541C41.8052 13.3905 41.7999 13.3978 41.7969 13.9075C41.7944 14.3388 41.7325 14.487 41.4273 14.7924C41.1124 15.1076 40.9816 15.1593 40.4997 15.1593C40.0178 15.1593 39.887 15.1076 39.5721 14.7924C39.2752 14.4953 39.2049 14.3341 39.2025 13.9438C39.2008 13.679 39.2387 13.3551 39.2866 13.2243C39.3683 13.001 39.3261 12.9817 38.6082 12.9139C37.8287 12.8403 35.0055 12.846 34.0211 12.9233ZM39.285 18.1745L39.5966 18.718L39.1719 18.9342C38.275 19.3907 37.1848 19.6491 35.8922 19.7117L34.6202 19.7731V18.8521V17.9313L35.4965 17.9296C36.4827 17.9278 37.5899 17.7005 38.2151 17.3718L38.6341 17.1514L38.8037 17.3913C38.897 17.5232 39.1136 17.8756 39.285 18.1745ZM12.007 26.0775V26.9826H13.816H15.6251V26.0775V25.1723H13.816H12.007V26.0775ZM32.8357 27.6406C32.9146 29.4412 33.4196 30.342 34.7531 31.0616C35.4067 31.4142 35.5509 31.4475 36.4293 31.4475C37.307 31.4475 37.4522 31.4141 38.1028 31.063C38.899 30.6334 39.2435 30.2753 39.6768 29.4272C39.9252 28.9411 39.9804 28.6577 40.024 27.6406L40.0758 26.4317L39.355 26.6733C38.7172 26.8869 38.3799 26.9148 36.4293 26.9148C34.4787 26.9148 34.1414 26.8869 33.5036 26.6733L32.7828 26.4317L32.8357 27.6406ZM9.57094 29.0706L9.29336 29.3483V32.4134V35.4785L9.57094 35.7561L9.8484 36.0339H12.9115H15.9746L16.252 35.7561L16.5296 35.4785V32.4134V29.3483L16.252 29.0706L15.9746 28.7929H12.9115H9.8484L9.57094 29.0706ZM42.761 33.4513V37.8442H44.1178H45.4746V33.6579C45.4746 31.3555 45.4618 29.4682 45.4463 29.464C45.4309 29.4597 44.8202 29.3667 44.0895 29.2574L42.761 29.0584V33.4513ZM28.5712 29.5189L27.4405 29.7689L27.4108 33.8066L27.3812 37.8442H28.7393H30.0976V33.5448C30.0976 29.5211 30.0849 29.2462 29.8997 29.2571C29.7909 29.2634 29.193 29.3813 28.5712 29.5189ZM47.2837 35.1237V40.5596H49.9973H52.7109L52.7081 37.2502C52.7066 35.4301 52.6539 33.7176 52.591 33.4447C52.2893 32.1352 51.262 30.8563 50.0824 30.3217C49.7558 30.1737 49.1577 29.9976 48.7535 29.9305C48.3493 29.8633 47.8533 29.7811 47.6511 29.748L47.2837 29.6877V35.1237ZM23.7759 30.5528C22.8176 30.7638 21.7905 31.0172 21.4934 31.116C20.7009 31.3794 19.726 32.0539 18.9992 32.8417L18.3596 33.5352L18.3195 34.6996C18.2903 35.5449 18.2214 35.9816 18.0681 36.2925C17.9519 36.5281 17.8762 36.7344 17.8999 36.7508C17.9236 36.7673 18.8673 37.631 19.9971 38.6701C21.1269 39.7093 22.0733 40.5596 22.1002 40.5596C22.1271 40.5596 22.5449 40.0376 23.0287 39.3999C24.183 37.8782 24.2252 37.8442 24.9656 37.8442H25.5749V33.9974C25.5749 31.8816 25.5621 30.1547 25.5467 30.1598C25.5312 30.1649 24.7343 30.3418 23.7759 30.5528ZM31.9066 34.4017V37.8442H36.4293H40.952V34.4017V30.9593L40.3257 31.6164C38.1814 33.8659 34.6772 33.8659 32.5329 31.6164L31.9066 30.9593V34.4017ZM9.31767 43.4587C9.34933 49.1125 9.35419 49.2229 9.59434 49.6674C10.2873 50.9506 11.6038 51.6261 12.7747 51.2994C13.461 51.1078 14.386 50.2085 14.5831 49.5412C14.6791 49.216 14.7205 47.9271 14.7205 45.2701V41.4647H12.7368C10.7812 41.4647 10.749 41.4607 10.4755 41.1869C10.2081 40.9195 10.1979 40.8531 10.1979 39.3767C10.1979 37.9932 10.1787 37.8441 10 37.8426C9.89114 37.8418 9.68593 37.8099 9.5438 37.7719L9.28544 37.7025L9.31767 43.4587ZM12.007 38.7493V39.6544H13.816H15.6251V38.7493V37.8442H13.816H12.007V38.7493ZM17.4341 39.8858C17.4341 40.8216 17.4104 40.933 17.1566 41.1869C17.0039 41.3397 16.8004 41.4647 16.7043 41.4647C16.5509 41.4647 16.5296 41.8573 16.5296 44.6994V47.9341L16.9581 47.3865C18.6581 45.2144 20.9489 42.1171 20.919 42.0315C20.8784 41.9158 17.5728 38.8624 17.488 38.8624C17.4583 38.8624 17.4341 39.3229 17.4341 39.8858ZM27.384 46.4429V53.2314H28.5661H29.7481L29.4706 52.9536L29.193 52.676V49.1583V45.6406L29.4706 45.363L29.7481 45.0852H36.4293H43.1105L43.388 45.363L43.6655 45.6406V49.1583V52.676L43.388 52.9536L43.1105 53.2314H44.2925H45.4746V46.4429V39.6544H36.4293H27.384V46.4429ZM31.0021 42.3698V43.275H30.0976H29.193V42.3698V41.4647H30.0976H31.0021V42.3698ZM43.6655 42.3698V43.275H42.761H41.8565V42.3698V41.4647H42.761H43.6655V42.3698ZM47.2837 47.8006V53.2314H49.9973H52.7109V47.8006V42.3698H49.9973H47.2837V47.8006ZM31.0021 49.1583V51.4211H36.4293H41.8565V49.1583V46.8955H36.4293H31.0021V49.1583Z" fill="#D934BF"/>
</svg>
