<svg width="324" height="240" viewBox="0 0 324 240" fill="none" xmlns="http://www.w3.org/2000/svg">
<path d="M107.379 148.31C107.919 148.96 107.829 149.41 107.119 149.95C105.229 151.42 103.439 153.01 101.559 154.5C100.859 155.06 100.859 155.38 101.429 156.1C110.519 167.59 119.569 179.12 128.599 190.65C130.159 192.64 131.039 194.93 130.419 197.47C130.149 198.58 129.549 199.74 128.769 200.56C120.039 209.73 111.249 218.83 102.469 227.95C100.369 230.14 98.2793 232.34 96.1393 234.5C95.4193 235.23 94.5694 235.83 93.7794 236.49C93.0494 236.65 92.3294 236.94 91.5894 236.96C89.1694 237.02 87.2894 235.87 85.8394 234.03C72.5094 217.08 59.1893 200.12 45.8693 183.17C41.1593 177.17 36.4494 171.17 31.7194 165.19C31.4794 164.88 30.9993 164.44 30.7694 164.51C28.9993 165.05 28.0093 164.06 27.0493 162.83C22.5293 157.04 17.9994 151.25 13.4294 145.5C12.3894 144.19 11.7593 142.94 13.0793 141.49C12.7793 141.09 12.5493 140.77 12.2993 140.46C9.88935 137.38 7.45936 134.31 5.05936 131.22C3.50936 129.22 2.84936 127 3.55936 124.48C4.19936 122.61 5.68935 121.61 7.29935 120.65C20.4493 112.81 33.6093 105.01 46.6793 97.03C50.0093 95 53.4793 96 55.5693 98.02C56.8793 99.29 57.9993 100.77 59.1293 102.21C63.0693 107.19 66.9793 112.2 70.8893 117.2C71.2793 117.7 71.6594 117.85 72.3394 117.92C73.1394 118 74.0993 118.54 74.6093 119.18C78.7193 124.29 82.7294 129.46 86.7794 134.62C86.7194 135.61 85.0093 136.89 83.8893 136.78C79.4393 131.13 74.9893 125.48 70.5493 119.83C67.6093 116.09 64.6993 112.33 61.7393 108.62C59.1393 105.36 56.0693 104.88 52.6093 107.08C46.1893 111.14 39.7694 115.18 33.3494 119.23C27.0594 123.19 20.7894 127.17 14.4894 131.12C12.9394 132.09 12.1093 133.44 12.4193 135.23C12.5993 136.25 12.9994 137.34 13.6194 138.16C16.5394 142.02 19.5594 145.79 22.5394 149.59C29.2994 158.2 36.0393 166.82 42.7993 175.43C53.7593 189.38 64.7093 203.33 75.6793 217.27C77.3093 219.34 78.8694 221.49 80.7094 223.36C82.9093 225.59 86.0193 225.57 88.1293 223.49C98.9093 212.85 109.659 202.18 120.429 191.53C121.639 190.34 122.019 188.9 121.889 187.27C121.759 185.62 121.089 184.2 120.079 182.91C113.419 174.43 106.759 165.94 100.089 157.46C99.8294 157.13 99.5193 156.85 99.1893 156.5C97.5693 157.84 96.0693 159.09 94.5593 160.34C90.0393 164.09 85.5293 167.84 81.0093 171.6C78.3293 173.78 75.6493 175.96 72.8593 178.24C71.5093 176.37 70.1994 174.58 68.8994 172.78C66.2894 169.17 63.6793 165.55 61.0693 161.94C64.3793 159.34 67.6693 156.7 71.0193 154.14C78.6293 148.31 86.2694 142.51 93.9094 136.72C95.0094 135.88 96.1693 135.12 97.3093 134.32C97.5293 134.6 97.7594 134.87 97.9694 135.16C101.119 139.54 104.249 143.92 107.379 148.31ZM114.299 208.75C113.919 208.28 113.649 207.78 113.229 207.5C113.009 207.35 112.399 207.48 112.179 207.69C109.739 210.09 107.329 212.52 104.949 214.98C104.309 215.64 104.509 216.4 105.119 217C105.759 217.62 106.319 217.33 106.859 216.77C109.079 214.48 111.319 212.22 113.529 209.93C113.829 209.63 113.999 209.23 114.299 208.75ZM15.6194 125.35C16.9294 125.35 17.8493 124.45 17.8193 123.21C17.7893 121.7 16.2393 120.26 14.6293 120.23C13.3293 120.21 12.3993 121.08 12.3893 122.34C12.3693 123.92 13.9094 125.35 15.6194 125.35ZM11.2193 127.2C12.1993 127.21 12.8393 126.63 12.8593 125.71C12.8793 124.59 11.7993 123.55 10.6093 123.53C9.63935 123.52 8.99934 124.11 8.97934 125.03C8.96934 126.17 10.0193 127.19 11.2193 127.2Z" fill="#153366"/>
<path d="M323.55 100.38C323.76 113.29 312.63 124.61 298.73 124.28C286.03 123.99 274.84 113.15 275.27 99.3198C275.66 86.7298 285.92 75.9498 299.42 75.8898C312.83 75.8398 323.98 87.0598 323.55 100.38ZM289.72 101.98C289.81 102.46 289.89 102.95 289.98 103.43C289.15 103.36 288.32 103.29 287.49 103.22C285.46 103.06 283.61 103.5 281.65 104.84C282.7 104.93 283.43 105 284.16 105.06C284.26 105.13 284.36 105.19 284.46 105.26C284.38 105.82 284.48 106.49 284.2 106.9C283.67 107.67 282.96 108.35 282.23 108.96C281.48 109.59 280.62 110.08 279.81 110.64C281.1 110.5 282.34 110.24 283.54 109.87C284.6 109.55 284.72 109.95 284.4 110.81C284.24 110.97 284.09 111.14 283.93 111.3C283.15 112.04 282.37 112.78 281.58 113.52C282.07 113.56 282.4 113.35 282.75 113.22C284.16 112.72 285.56 112.17 287 111.83C287.45 111.73 288.05 112.25 288.58 112.49C288.57 112.65 288.56 112.82 288.54 112.98C288.23 113.57 287.92 114.17 287.46 115.04C288.09 114.72 288.49 114.57 288.83 114.34C290.59 113.17 291.67 111.5 292.4 109.55C292.52 109.22 292.79 108.94 292.99 108.64C293.28 108.78 293.57 108.92 293.87 109.05C294.55 109.53 294.79 109.26 294.76 108.53C295.8 108.28 296.38 108.79 296.52 109.75C296.8 111.67 297.11 113.61 297.2 115.54C297.26 116.84 296.96 118.16 296.81 119.56C297 119.42 297.11 119.36 297.18 119.27C297.34 119.09 297.48 118.9 297.62 118.71C299.76 115.81 301.26 112.6 302.07 109.11C302.33 108.01 302.81 107.53 303.89 107.13C306.01 106.35 308.12 105.43 310.05 104.26C312.48 102.78 314.54 100.82 315.89 98.2298C316.35 97.4998 316.95 96.8298 317.25 96.0398C317.97 94.1498 318.6 92.2098 319.16 90.2698C319.25 89.9598 318.93 89.2598 318.66 89.1698C315.85 88.1998 312.98 87.6298 309.98 88.0198C309.3 88.0698 308.62 88.0698 307.95 88.1798C303.34 88.9298 299.42 91.0298 296.14 94.3198C295.42 95.0398 294.83 95.1498 293.85 94.8798C292.13 94.4098 290.34 94.0298 288.56 93.9098C286.42 93.7598 284.27 93.9298 282.12 93.9598C282.12 94.0898 282.11 94.2298 282.11 94.3598C282.43 94.4798 282.76 94.5898 283.08 94.7098C285.93 95.7498 288.51 97.2098 290.6 99.4698C291.25 100.18 291.3 100.75 290.61 101.4C290 101.1 289.7 101.3 289.72 101.98Z" fill="#289AA9"/>
<path d="M199.52 24.2398C199.52 10.8498 210.42 0.00979544 223.94 0.0897954C237.04 0.169795 247.95 10.6498 247.91 24.2998C247.87 37.8598 237.33 48.4498 223.77 48.4298C209.9 48.4098 199.61 37.4998 199.52 24.2398ZM239.34 30.9898C239.38 30.2598 239.42 29.5198 239.47 28.6498C241.06 27.6798 241.23 26.6198 239.92 24.7598C241.23 23.5698 241.24 21.8598 239.75 20.8598C238.87 20.2698 237.73 20.0598 236.71 19.6798C235.04 19.2898 233.37 18.8998 231.48 18.4598C231.99 17.7898 232.34 17.2798 232.74 16.8098C234.28 15.0398 235.49 13.0998 235.62 10.6698C235.69 9.45981 235.57 8.26981 234.57 7.38981C234.11 6.97981 233.62 6.7398 233.2 7.4698C233.09 8.0098 232.969 8.5498 232.859 9.0898C232.069 11.2498 230.4 12.6598 228.7 14.0598C227.15 15.3398 225.14 16.0798 224.12 17.9998C223.71 18.7698 223.11 19.4398 222.69 20.2098C221.58 22.2398 220.09 23.6198 217.6 23.4798C217.35 23.2998 217.109 23.1098 216.859 22.9298C216.739 23.1598 216.52 23.3798 216.52 23.6098C216.5 27.1798 216.48 30.7498 216.52 34.3098C216.53 35.2198 216.97 35.3798 217.6 34.6498C218.97 35.0598 220.31 35.5398 221.7 35.8498C223.21 36.1898 224.76 36.6098 226.27 36.5598C229.41 36.4498 232.53 36.0698 235.66 35.7398C236.31 35.6698 236.989 35.4198 237.549 35.0798C238.66 34.4198 238.84 33.6398 238.28 32.6398C238.63 32.0898 238.98 31.5398 239.34 30.9898ZM206.75 22.4398C206.75 26.8098 206.75 31.0898 206.75 35.4298C209.95 35.4298 213.07 35.4298 216.2 35.4298C216.2 31.0398 216.2 26.7498 216.2 22.4398C213.01 22.4398 209.92 22.4398 206.75 22.4398Z" fill="#289AA9"/>
<path d="M188.07 114.43C201.32 114.33 212.17 125.12 212.17 138.46C212.17 152 201.18 163.01 187.25 162.7C174.69 162.42 163.48 151.79 163.78 138.02C164.05 124.94 174.84 114.16 188.07 114.43ZM191.61 154.27C191.61 154.18 191.61 154.1 191.61 154.01C191.62 153.78 191.63 153.55 191.63 153.32C191.71 153.31 191.78 153.29 191.86 153.27C192.03 152.7 192.19 152.13 192.36 151.55C192.67 151.46 192.98 151.41 193.27 151.28C198.11 149.2 201.04 144.23 200.69 138.72C200.37 133.74 196.59 129.12 191.7 127.74C186.53 126.28 180.98 128.17 177.98 132.41C173.08 139.33 175.89 148.36 183.95 151.64C184.02 152.12 184.1 152.59 184.17 153.07C184.34 153.38 184.5 153.69 184.67 153.99C184.67 154.08 184.66 154.16 184.66 154.25C184.65 154.32 184.65 154.39 184.67 154.46C184.67 154.63 184.67 154.8 184.67 154.98C184.67 155.06 184.67 155.14 184.67 155.22C184.67 155.38 184.67 155.54 184.67 155.7C184.67 155.85 184.67 156 184.67 156.15C184.99 156.48 185.3 156.8 185.62 157.13C185.74 158.56 186.53 159.51 187.76 159.72C188.89 159.91 189.88 159.29 190.42 158.06C190.81 157.43 191.21 156.8 191.6 156.17C191.66 156.01 191.73 155.86 191.79 155.7C191.74 155.54 191.68 155.38 191.63 155.23C191.63 155.14 191.63 155.06 191.64 154.97C191.64 154.8 191.63 154.63 191.63 154.46C191.61 154.41 191.62 154.34 191.61 154.27ZM199.77 132.99C201.26 132.99 202.59 132.99 204.19 132.99C203.03 132.25 200.65 132.28 199.77 132.99ZM198.43 129.26C198.51 129.45 198.58 129.64 198.66 129.82C199.92 129.28 201.18 128.74 202.45 128.21C202.37 128.03 202.3 127.85 202.22 127.67C200.95 128.21 199.69 128.73 198.43 129.26ZM181.7 121.22C181.53 121.33 181.36 121.44 181.19 121.55C181.91 122.68 182.63 123.81 183.35 124.94C183.52 124.83 183.69 124.73 183.86 124.62C183.13 123.48 182.41 122.35 181.7 121.22ZM177.42 129.76C177.49 129.57 177.56 129.38 177.63 129.2C176.39 128.68 175.16 128.16 173.92 127.65C173.85 127.83 173.77 128.01 173.7 128.19C174.94 128.71 176.18 129.23 177.42 129.76ZM199.16 124.53C199.03 124.39 198.9 124.24 198.77 124.1C197.77 124.98 196.76 125.87 195.76 126.75C195.88 126.89 196 127.02 196.12 127.16C197.13 126.28 198.15 125.41 199.16 124.53ZM177.28 124.05C177.16 124.19 177.04 124.34 176.91 124.48C177.94 125.35 178.96 126.22 179.99 127.1C180.1 126.97 180.22 126.84 180.33 126.7C179.32 125.82 178.3 124.93 177.28 124.05ZM192.26 124.67C192.42 124.78 192.59 124.88 192.75 124.99C193.46 123.86 194.16 122.72 194.87 121.59C194.73 121.5 194.59 121.41 194.45 121.33C193.72 122.44 192.99 123.56 192.26 124.67ZM188.06 123.84C188.66 122.53 188.57 120.58 188.06 119.97C188.06 121.3 188.06 122.57 188.06 123.84ZM172.35 132.54C172.35 132.63 172.35 132.72 172.34 132.8C173.57 132.8 174.81 132.8 176.04 132.8C176.04 132.71 176.04 132.62 176.04 132.54C174.82 132.54 173.58 132.54 172.35 132.54Z" fill="#289AA9"/>
<path d="M307.72 41.7896C307.95 54.7296 296.88 65.8095 283.62 65.8395C270.58 65.8695 259.15 54.8596 259.42 41.1096C259.66 28.4696 270.47 17.0795 284.47 17.4995C297.07 17.8795 308.12 28.8396 307.72 41.7896ZM283.65 35.7596C283.51 35.5796 283.44 35.4896 283.37 35.3896C280.91 31.9096 276.71 30.7496 272.62 32.4296C268.7 34.0396 266.63 37.7696 267.34 41.9896C267.82 44.8396 269.46 47.0496 271.4 49.0396C274.87 52.6096 279.05 55.2696 283.12 58.0695C283.33 58.2095 283.83 58.1796 284.05 58.0196C287.54 55.4996 291.1 53.0496 294.45 50.3596C296.87 48.4196 298.77 45.9696 299.64 42.8896C300.73 39.0196 299.26 35.1595 295.94 33.0895C292.61 31.0095 288.18 31.2596 285.44 33.7396C284.8 34.3096 284.29 35.0296 283.65 35.7596Z" fill="#289AA9"/>
<path d="M283.5 144.91C283.92 157.74 273.01 168.98 259.74 169.14C246.03 169.31 235.24 158.06 235.22 145.13C235.2 131.7 245.87 120.7 259.54 120.76C273.27 120.83 283.69 132 283.5 144.91ZM273.42 141.99C273.32 139.1 272.57 136.47 270.91 134.18C266.48 128.09 259.04 126.5 252.41 130.06C247.07 132.93 243.18 140.84 246.87 147.57C250.01 153.3 254.24 158.15 258.65 162.88C259.28 163.55 259.7 163.29 260.22 162.75C264.13 158.74 267.75 154.5 270.7 149.73C272.18 147.35 273.4 144.83 273.42 141.99Z" fill="#289AA9"/>
<path d="M133.81 38.4797C134.3 38.1197 134.79 37.7697 135.29 37.4097C135.18 38.6297 134.92 39.8597 134.98 41.0697C135.22 45.8497 136.65 50.3497 138.39 54.7597C138.8 55.8797 139.16 57.0097 139.63 58.1097C142.39 64.6197 145.71 70.8297 149.85 76.5797C152.27 79.4597 154.55 82.4897 157.17 85.1797C158.5 86.5497 160.46 87.3097 162.14 88.3397C161.26 88.5797 160.38 88.8197 159.51 89.0597C158.97 88.8097 158.32 88.6697 157.9 88.2797C156.17 86.6797 154.61 84.8797 152.79 83.3997C150.34 81.4097 147.55 79.9397 144.45 79.1797C140.14 78.1197 135.92 78.4197 131.62 79.5797C125.56 81.2097 120.3 84.2697 115.49 88.1197C112.1 90.8397 109.02 93.9397 105.88 96.9597C104.52 98.2697 103.37 99.7997 102.12 101.22C101.98 101.24 101.84 101.27 101.7 101.29C101.07 100.06 100.43 98.8297 99.8 97.5997C96.81 91.8097 93.8201 86.0097 90.8301 80.2197C91.3101 80.2397 91.8101 80.1797 92.2601 80.2997C93.8601 80.7197 95.43 81.2697 97.05 81.6297C98.36 81.9197 99.7201 82.1097 101.06 82.1497C102.6 82.1997 104.18 82.2197 105.67 81.9197C108.25 81.4097 110.68 80.4497 112.93 79.0197C115.62 77.3097 117.97 75.2497 119.97 72.7897C122.28 69.9497 124.39 66.9597 125.89 63.5897C127.25 60.5397 128.78 57.5597 129.91 54.4297C131.19 50.8597 132.17 47.1797 133.13 43.5097C133.56 41.8797 133.6 40.1597 133.81 38.4797Z" fill="#FEFEFE"/>
<path d="M257.569 83.7997C257.619 96.9397 246.829 108.04 233.279 107.95C220.179 107.86 209.149 97.5396 209.199 83.7196C209.249 69.9896 219.989 59.5997 233.469 59.5797C246.909 59.5497 257.619 70.5597 257.569 83.7997ZM250.829 73.1996C250.369 73.1196 249.909 72.9597 249.449 72.9597C238.829 72.9497 228.209 72.9497 217.589 72.9597C217.079 72.9597 216.579 73.1096 216.069 73.1896C215.739 73.7596 215.139 74.3396 215.139 74.9096C215.069 81.7496 215.079 88.5896 215.099 95.4396C215.099 95.8596 215.399 96.2796 215.559 96.6996C216.279 96.9396 216.999 97.3997 217.719 97.3997C228.029 97.4497 238.329 97.4297 248.639 97.4297C248.999 97.4297 249.359 97.4496 249.719 97.4196C250.889 97.3196 251.529 96.6596 251.569 95.4996C251.589 94.7796 251.569 94.0596 251.559 93.3396C251.569 87.1796 251.599 81.0196 251.549 74.8596C251.559 74.2996 251.089 73.7496 250.829 73.1996Z" fill="#289AA9"/>
<path d="M133.809 38.48C133.599 40.16 133.549 41.88 133.129 43.5C132.169 47.17 131.189 50.85 129.909 54.42C128.789 57.55 127.249 60.54 125.889 63.58C124.389 66.95 122.279 69.94 119.969 72.78C117.969 75.24 115.619 77.3 112.929 79.01C110.679 80.44 108.249 81.4 105.669 81.91C104.169 82.2 102.589 82.18 101.059 82.14C99.7193 82.1 98.3593 81.91 97.0493 81.62C95.4293 81.26 93.8593 80.71 92.2593 80.29C91.8093 80.17 91.3093 80.23 90.8293 80.21C90.7393 80.09 90.6593 79.98 90.5693 79.86C91.9093 78.45 93.1894 76.99 94.5894 75.65C101.419 69.12 108.279 62.62 115.119 56.1C118.639 52.74 122.119 49.35 125.649 46C128.129 43.64 130.639 41.31 133.149 38.97C133.339 38.78 133.589 38.64 133.809 38.48Z" fill="#F0F0F0"/>
<path d="M102.109 101.22C103.359 99.7896 104.509 98.2697 105.869 96.9597C109.009 93.9397 112.089 90.8296 115.479 88.1196C120.279 84.2696 125.539 81.2096 131.609 79.5796C135.909 78.4296 140.129 78.1197 144.439 79.1797C147.539 79.9397 150.329 81.3997 152.779 83.3997C154.599 84.8797 156.159 86.6896 157.889 88.2796C158.309 88.6696 158.959 88.8096 159.499 89.0596C154.749 90.0896 149.999 91.1197 145.259 92.1497C138.559 93.5997 131.869 95.0496 125.169 96.4996C124.359 96.6696 123.539 96.8396 122.729 97.0096C119.809 97.6196 116.889 98.2296 113.969 98.8396C113.519 98.9496 113.079 99.0596 112.629 99.1596C109.199 99.8796 105.769 100.6 102.329 101.31C102.259 101.27 102.189 101.24 102.109 101.22Z" fill="#F0F0F0"/>
<path d="M162.13 88.3398C160.45 87.3098 158.5 86.5498 157.16 85.1798C154.54 82.4898 152.26 79.4698 149.84 76.5798C150.88 73.2298 151.99 69.9098 152.93 66.5398C153.53 64.3798 153.16 62.2698 151.86 60.3798C150.34 58.1498 148.25 56.8998 145.58 56.4198C143.16 55.9798 140.78 55.3298 138.38 54.7698C136.64 50.3498 135.21 45.8598 134.97 41.0798C134.91 39.8698 135.17 38.6398 135.28 37.4198C136.45 35.2098 137.9 34.6198 140.03 36.0698C142.25 37.5798 144.46 39.2798 146.18 41.3198C155.27 52.0998 161.64 64.3298 165.02 78.0498C165.5 79.9998 165.51 82.0798 165.68 84.0998C165.72 84.6098 165.62 85.1398 165.51 85.6398C165.08 87.7298 164.26 88.3698 162.13 88.3398Z" fill="#153366"/>
<path d="M3.56981 124.46C2.85981 126.98 3.51981 129.2 5.06981 131.2C7.46981 134.29 9.88983 137.36 12.3098 140.44C12.5498 140.75 12.7898 141.07 13.0898 141.47C11.7798 142.92 12.3998 144.17 13.4398 145.48C18.0098 151.24 22.5398 157.02 27.0598 162.81C28.0198 164.05 29.0098 165.03 30.7798 164.49C31.0098 164.42 31.4898 164.87 31.7298 165.17C36.4598 171.16 41.1598 177.16 45.8798 183.15C59.1998 200.11 72.5198 217.07 85.8498 234.01C87.2998 235.85 89.1798 237.01 91.5998 236.94C92.3298 236.92 93.0598 236.63 93.7898 236.47C93.4698 237.82 92.3498 238.39 91.2498 238.86C88.7498 239.9 85.6198 238.96 83.7498 236.58C76.1098 226.89 68.4998 217.17 60.8798 207.47C53.9998 198.71 47.1098 189.95 40.2298 181.19C36.6798 176.67 33.1098 172.15 29.5798 167.61C29.1198 167.02 28.7598 166.68 27.9198 166.89C26.7298 167.19 25.8798 166.5 25.1698 165.59C21.3498 160.72 17.5298 155.85 13.6998 150.99C12.7098 149.73 11.7298 148.47 10.7498 147.21C10.0398 146.28 9.76981 145.34 10.4498 144.22C10.6098 143.96 10.4398 143.32 10.1998 143.01C7.71981 139.78 5.16981 136.6 2.69981 133.36C0.429812 130.4 0.419825 126.78 2.61983 124.61C2.80982 124.46 3.24981 124.52 3.56981 124.46Z" fill="#FDFEFD"/>
<path d="M124.219 132.98C122.189 135.32 119.659 136.94 116.789 138.04C113.539 139.29 110.899 141.47 108.249 143.64C107.669 142.84 107.069 142.05 106.499 141.24C104.239 137.98 101.979 134.72 99.7295 131.46C101.139 130.12 102.579 128.8 103.969 127.43C104.929 126.49 105.149 125.28 104.959 124C104.629 121.75 104.219 119.52 103.959 117.26C103.829 116.09 103.839 114.87 104.019 113.7C104.339 111.58 104.819 109.48 105.249 107.38C105.299 107.15 105.399 106.93 105.479 106.71C107.089 108.94 108.709 111.15 110.299 113.39C113.089 117.31 115.869 121.24 118.659 125.17C118.859 125.39 119.069 125.6 119.279 125.82C119.409 126.09 119.509 126.39 119.689 126.64C121.179 128.76 122.699 130.87 124.219 132.98Z" fill="#FECDBC"/>
<path d="M90.5702 79.8599C90.6602 79.9799 90.7403 80.0899 90.8303 80.2099C93.8203 85.9999 96.8102 91.7998 99.8002 97.5898C100.43 98.8198 101.07 100.05 101.7 101.28C101.43 101.51 101.18 101.79 100.88 101.95C98.4102 103.25 95.9502 104.57 93.4402 105.79C90.5402 107.19 87.6402 106.33 85.8202 103.63C84.6402 101.39 83.4703 99.1499 82.2903 96.9199C81.3703 95.1799 80.4503 93.4498 79.5303 91.7198C78.3103 88.0298 79.3602 85.4199 82.7602 83.6499C84.9202 82.5199 87.0802 81.3898 89.2502 80.2798C89.6502 80.0698 90.1202 79.9899 90.5702 79.8599Z" fill="#153366"/>
<path d="M83.8997 136.78C85.0097 136.88 86.7197 135.6 86.7897 134.62C87.2197 134.53 87.7297 134.56 88.0597 134.33C89.8297 133.11 91.5997 131.87 93.2897 130.53C94.0197 129.95 94.4497 130.02 94.8997 130.76C95.7097 131.95 96.5197 133.13 97.3297 134.32C96.1997 135.12 95.0397 135.88 93.9297 136.72C86.2897 142.52 78.6497 148.31 71.0397 154.14C67.6897 156.7 64.4097 159.34 61.0897 161.94C60.0797 160.46 59.1097 158.95 58.0497 157.51C57.4097 156.65 57.7197 156.25 58.4797 155.72C60.8197 154.08 63.1097 152.37 65.4197 150.68C71.1797 146.54 76.9397 142.41 82.6797 138.25C83.1697 137.88 83.4897 137.27 83.8997 136.78Z" fill="#2A5CA3"/>
<path d="M118.639 125.17C115.859 121.24 113.079 117.31 110.279 113.39C108.689 111.15 107.069 108.94 105.459 106.71C104.429 105.23 103.379 103.76 102.379 102.26C102.229 102.03 102.329 101.63 102.319 101.31C105.749 100.59 109.179 99.8697 112.619 99.1597C111.969 99.4997 112.159 99.9197 112.469 100.41C114.619 103.75 116.749 107.1 118.889 110.45C117.819 111.52 116.749 112.58 115.689 113.65C114.789 114.56 114.279 115.57 114.849 116.86V116.85C115.459 118.19 116.639 117.38 117.599 117.48C117.369 117.89 117.179 118.22 116.989 118.55C116.269 119.55 116.649 120.43 117.259 121.3C118.359 122.36 119.749 122.16 120.629 120.81C120.929 120.77 121.229 120.72 121.529 120.68C121.129 121.15 120.709 121.6 120.319 122.08C119.839 122.67 119.379 123.27 118.909 123.86C118.819 124.29 118.729 124.73 118.639 125.17Z" fill="#2A5CA3"/>
<path d="M79.5195 91.71C80.4395 93.44 81.3695 95.1699 82.2795 96.9099C83.4595 99.1499 84.6295 101.39 85.8095 103.62C85.3495 103.66 84.8195 103.57 84.4395 103.76C80.9695 105.49 77.1295 104.25 75.5195 100.83C74.0795 97.77 75.3095 94.1599 78.3495 92.4999C78.7695 92.2799 79.1295 91.98 79.5195 91.71Z" fill="#2A5CA3"/>
<path d="M97.3196 134.31C96.5096 133.12 95.6996 131.94 94.8896 130.75C95.7096 130.15 96.4896 129.17 97.3596 129.09C97.9296 129.03 98.6296 130.27 99.2596 130.93C99.4196 131.1 99.5697 131.28 99.7197 131.46C101.98 134.72 104.23 137.98 106.49 141.24C107.05 142.05 107.65 142.84 108.24 143.64C108.8 144.49 109.36 145.34 110 146.31C109.11 146.99 108.25 147.65 107.38 148.31C104.25 143.92 101.11 139.54 97.9797 135.15C97.7697 134.87 97.5396 134.59 97.3196 134.31Z" fill="#FDFDFD"/>
<path d="M124.22 132.98C122.7 130.87 121.18 128.76 119.67 126.64C119.5 126.4 119.4 126.1 119.26 125.83C119.42 125.88 119.58 125.93 119.73 125.98C120.51 126.06 121.3 126.13 122.08 126.21C122.21 126.54 122.39 127 122.56 127.46C122.98 127.61 123.41 127.76 123.83 127.91C125.25 127.43 126.67 126.96 128.09 126.48C128.45 126.34 128.8 126.19 129.21 126.03C129.4 126.3 129.57 126.55 129.75 126.81C130.58 128.31 131.4 129.82 132.26 131.3C132.63 131.93 132.48 132.31 131.89 132.66C130.32 133.6 128.75 134.56 127.21 135.55C126.65 135.91 126.28 135.83 125.91 135.3C125.37 134.5 124.78 133.74 124.22 132.98Z" fill="#2A5CA3"/>
<path d="M118.89 110.44C116.75 107.09 114.62 103.74 112.47 100.4C112.16 99.9097 111.97 99.4997 112.62 99.1497C113.07 99.0397 113.51 98.9297 113.96 98.8297C114.85 100.34 115.8 101.82 116.61 103.37C117.07 104.26 117.59 104.31 118.43 103.98C121.47 102.78 122.76 100.72 122.72 96.9997C123.53 96.8297 124.35 96.6597 125.16 96.4897C125.98 100.69 123.81 104.5 119.6 106.31C119.26 106.46 118.37 106.36 118.89 107.24C119.21 108.03 119.52 108.81 119.84 109.6C119.53 109.88 119.21 110.16 118.89 110.44Z" fill="#153367"/>
<path d="M171.52 11.1196C171.33 11.6496 171.17 12.0996 171 12.5396C166.79 23.1496 162.59 33.7596 158.38 44.3696C157.67 46.1496 156.99 47.9396 156.23 49.6996C156.08 50.0496 155.63 50.2596 155.32 50.5396C155.3 50.1196 155.14 49.6396 155.28 49.2796C159.32 39.0296 163.39 28.7996 167.45 18.5596C168.41 16.1496 169.33 13.7297 170.32 11.3297C170.44 11.0397 170.85 10.8596 171.13 10.6396C171.26 10.7996 171.39 10.9696 171.52 11.1196Z" fill="#FAFCFB"/>
<path d="M198.549 83.7698C198.009 84.0098 197.76 84.2198 197.52 84.1998C197.18 84.1798 196.83 84.0198 196.5 83.8698C186.25 79.4198 176.01 74.9598 165.77 70.5098C165.55 70.4098 165.28 70.3598 165.13 70.2098C164.96 70.0398 164.89 69.7598 164.77 69.5298C165.04 69.4298 165.3 69.2798 165.58 69.2498C165.75 69.2298 165.94 69.3898 166.13 69.4698C176.45 73.9498 186.78 78.4198 197.1 82.8998C197.5 83.0898 197.869 83.3698 198.549 83.7698Z" fill="#FAFBFB"/>
<path d="M158.99 53.9699C158.95 53.6499 158.79 53.27 158.9 53.02C159.22 52.29 159.65 51.62 160.05 50.92C164.61 42.86 169.17 34.8099 173.73 26.7499C173.93 26.3999 174.09 26.02 174.36 25.74C174.53 25.56 174.87 25.5299 175.13 25.4399C175.18 25.7199 175.35 26.07 175.25 26.27C174.75 27.27 174.19 28.24 173.64 29.21C169.13 37.16 164.62 45.0999 160.09 53.0399C159.89 53.3999 159.59 53.6999 159.34 54.0299C159.22 54.0099 159.11 53.9899 158.99 53.9699Z" fill="#F9FBFB"/>
<path d="M192.57 73.5499C190.68 73.0399 188.95 72.5699 187.22 72.0899C180.11 70.0999 173 68.1099 165.88 66.1199C165.76 66.0899 165.62 66.0899 165.54 66.0199C165.22 65.7399 164.93 65.4399 164.63 65.1499C165.02 65.0899 165.45 64.8899 165.8 64.9899C170 66.1199 174.19 67.2899 178.39 68.4599C182.89 69.7199 187.39 70.9799 191.88 72.2399C192.15 72.3199 192.45 72.3399 192.67 72.4899C192.9 72.6499 193.05 72.9199 193.23 73.1499C192.98 73.2999 192.73 73.4499 192.57 73.5499Z" fill="#FAFBFB"/>
<path d="M186.06 50.2699C185.71 50.4699 185.39 50.7398 185.02 50.8798C180.62 52.5498 176.22 54.1999 171.82 55.8599C169.43 56.7599 167.06 57.6898 164.66 58.5598C164.29 58.6898 163.81 58.5198 163.39 58.4998C163.66 58.1898 163.88 57.7198 164.22 57.5898C171.03 54.9798 177.86 52.3998 184.69 49.8398C185.07 49.6998 185.55 49.8198 185.99 49.8198C186 49.9598 186.03 50.1099 186.06 50.2699Z" fill="#F9FBFB"/>
<path d="M165.94 62.62C165.43 62.38 164.92 62.15 164.41 61.91C164.94 61.69 165.46 61.31 166.01 61.27C170.94 60.89 175.88 60.56 180.81 60.26C181.33 60.23 181.87 60.52 182.4 60.66C181.88 60.9 181.37 61.31 180.84 61.35C175.91 61.72 170.97 62.04 166.04 62.36C166 62.45 165.97 62.54 165.94 62.62Z" fill="#F5FAFB"/>
<path d="M161.88 56.0099C161.69 55.8699 161.4 55.7199 161.42 55.6599C161.5 55.3399 161.58 54.9499 161.81 54.7599C162.81 53.8999 163.85 53.1099 164.88 52.2899C168.02 49.7799 171.15 47.25 174.32 44.77C174.62 44.54 175.12 44.56 175.52 44.46C175.35 44.84 175.27 45.35 174.98 45.58C170.9 48.89 166.78 52.17 162.68 55.45C162.44 55.64 162.17 55.8099 161.88 56.0099Z" fill="#F7FBFB"/>
<path d="M122.569 127.45C122.389 126.99 122.219 126.53 122.089 126.2C121.309 126.12 120.519 126.05 119.739 125.97C120.019 125.95 120.309 125.98 120.569 125.92C121.839 125.6 122.189 124.68 121.459 123.61C120.919 122.8 120.269 122.86 118.899 123.86C119.369 123.27 119.829 122.66 120.309 122.08C120.699 121.6 121.109 121.15 121.519 120.68C121.679 120.51 121.829 120.35 121.989 120.18C122.089 120.36 122.189 120.54 122.289 120.71C121.799 121.25 121.309 121.79 120.989 122.15C121.549 123.15 122.079 124.08 122.649 125.09C122.589 125.1 122.729 125.13 122.809 125.07C125.089 123.36 127.519 121.79 129.599 119.86C131.079 118.48 131.359 117.31 129.929 115.44L130.009 115.37C131.549 116.23 131.199 117.59 130.959 118.93C133.669 120.06 133.919 122.37 131.589 124.7C130.879 124.96 130.169 125.22 129.469 125.49C130.019 125.1 130.529 124.65 131.109 124.33C132.329 123.65 132.819 122.54 132.719 121.26C132.679 120.69 132.189 120 131.699 119.67C131.429 119.49 130.629 119.79 130.249 120.1C128.169 121.78 126.139 123.52 124.239 125.12C124.349 125.28 124.509 125.52 124.679 125.77C122.749 125.47 122.419 125.74 122.569 127.45Z" fill="#EBB6A7"/>
<path d="M118.89 110.44C119.21 110.16 119.53 109.88 119.85 109.6C119.87 109.7 119.88 109.8 119.9 109.9C118.72 111.18 117.54 112.45 116.11 114C118.01 113.73 118.79 114.48 118.79 116.31C120 115.4 121.07 114.78 121.91 113.92C123.15 112.65 124.23 111.23 125.37 109.87H125.48H125.59C125.9 109.96 126.21 110.09 126.53 110.12C128.45 110.33 129.66 112.23 128.96 113.96C128.88 113.96 128.81 113.96 128.73 113.96C128.76 113.8 128.81 113.65 128.82 113.49C128.84 112.3 128.53 111.27 127.33 110.76C126.16 110.26 125.43 110.93 124.64 111.69C122.65 113.61 120.59 115.46 118.54 117.32C118.05 117.76 117.5 118.13 116.98 118.54C117.17 118.21 117.36 117.87 117.59 117.47C116.63 117.36 115.46 118.18 114.84 116.84C115.92 117.77 117.46 117.2 118.12 116.31C118.61 115.64 118.59 114.95 117.8 114.64C117.23 114.42 116.47 114.36 115.91 114.55C114.87 114.9 114.81 115.89 114.85 116.84C114.29 115.55 114.79 114.54 115.69 113.63C116.76 112.57 117.83 111.5 118.89 110.44Z" fill="#F0B4A1"/>
<path d="M125.589 109.88H125.479H125.369C125.489 108.74 125.179 107.76 124.219 107.07C122.989 106.19 122.059 106.47 121.379 107.79C120.989 108.55 120.399 109.2 119.899 109.91C119.879 109.81 119.869 109.71 119.849 109.61C119.529 108.82 119.219 108.04 118.899 107.25C120.029 106.9 121.139 106.46 122.299 106.21C123.769 105.89 125.669 107.22 125.869 108.66C125.919 109.04 125.689 109.47 125.589 109.88Z" fill="#F1C0B0"/>
<path d="M128.74 113.97C128.82 113.97 128.89 113.97 128.97 113.97C128.91 114.22 128.86 114.48 128.82 114.66C129.25 114.91 129.63 115.13 130.01 115.36C130.01 115.36 129.93 115.43 129.94 115.43C128.87 115.03 128.11 115.45 127.32 116.21C125.71 117.77 123.98 119.21 122.3 120.71C122.2 120.53 122.1 120.35 122 120.18C124.24 118.1 126.49 116.04 128.74 113.97Z" fill="#F0B3A2"/>
<path d="M129.46 125.48C130.17 125.22 130.88 124.96 131.58 124.69C130.97 125.39 130.36 126.09 129.75 126.79C129.58 126.54 129.4 126.28 129.21 126.01C128.8 126.18 128.44 126.32 128.09 126.46C127.98 126.44 127.87 126.42 127.76 126.4C128.33 126.1 128.9 125.79 129.46 125.48Z" fill="#EEBDAD"/>
<path d="M298.33 215.97C298.88 215.29 299.51 215.16 300.24 216.09C299.66 216.11 299.08 216.13 298.51 216.15C298.45 216.09 298.39 216.03 298.33 215.97Z" fill="#153366"/>
<path d="M83.9001 136.78C83.5001 137.27 83.18 137.88 82.68 138.24C76.94 142.41 71.1801 146.54 65.4201 150.67C63.2001 149.25 60.99 147.8 58.36 147.22C54.97 146.48 52.0901 147.71 51.2801 151.39C50.6101 154.44 51.3101 157.36 52.2801 160.2C55.1201 168.53 60.0501 175.45 66.7801 181.06C69.2001 183.08 71.8801 184.79 75.0301 185.53C78.2701 186.29 80.9101 185.24 81.7601 182.58C82.2301 181.11 82.3901 179.43 82.2601 177.89C82.0701 175.76 81.4601 173.67 81.0401 171.57C85.5601 167.82 90.0701 164.06 94.5901 160.31C96.0901 159.06 97.6001 157.81 99.2201 156.47C99.5501 156.81 99.86 157.1 100.12 157.43C106.79 165.91 113.45 174.4 120.11 182.88C121.12 184.17 121.79 185.58 121.92 187.24C122.05 188.87 121.66 190.31 120.46 191.5C109.69 202.15 98.9401 212.82 88.1601 223.46C86.0501 225.54 82.94 225.57 80.74 223.33C78.9 221.46 77.3401 219.31 75.7101 217.24C64.7401 203.3 53.7801 189.35 42.8301 175.4C36.0701 166.79 29.3201 158.17 22.5701 149.56C19.5901 145.76 16.5601 141.98 13.6501 138.13C13.0301 137.31 12.6201 136.22 12.4501 135.2C12.1401 133.41 12.9701 132.06 14.5201 131.09C20.8201 127.14 27.0901 123.16 33.3801 119.2C39.8001 115.15 46.2301 111.11 52.6401 107.05C56.1001 104.86 59.1801 105.34 61.7701 108.59C64.7401 112.31 67.6501 116.07 70.5801 119.8C75.0001 125.48 79.4501 131.13 83.9001 136.78Z" fill="#64C5CE"/>
<path d="M81.0297 171.59C81.4597 173.7 82.0597 175.78 82.2497 177.91C82.3897 179.45 82.2197 181.12 81.7497 182.6C80.8997 185.26 78.2597 186.32 75.0197 185.55C71.8697 184.81 69.1897 183.1 66.7697 181.08C60.0397 175.46 55.1097 168.54 52.2697 160.22C51.2997 157.38 50.5997 154.47 51.2697 151.41C52.0797 147.72 54.9597 146.49 58.3497 147.24C60.9797 147.82 63.1897 149.26 65.4097 150.69C63.0997 152.37 60.8097 154.09 58.4697 155.73C57.7097 156.26 57.4097 156.66 58.0397 157.52C59.1097 158.96 60.0697 160.47 61.0797 161.95C63.6897 165.56 66.2997 169.18 68.9097 172.79C70.2097 174.59 71.5197 176.38 72.8697 178.25C75.6697 175.95 78.3497 173.77 81.0297 171.59Z" fill="#289AA9"/>
<path d="M114.3 208.75C114 209.23 113.82 209.63 113.54 209.93C111.33 212.22 109.09 214.48 106.87 216.77C106.33 217.33 105.76 217.62 105.13 217C104.52 216.41 104.32 215.65 104.96 214.98C107.34 212.52 109.75 210.09 112.19 207.69C112.41 207.47 113.02 207.35 113.24 207.5C113.66 207.78 113.93 208.28 114.3 208.75Z" fill="#FBFCFC"/>
<path d="M15.6197 125.35C13.9097 125.35 12.3797 123.92 12.3897 122.34C12.3997 121.08 13.3197 120.21 14.6297 120.23C16.2397 120.26 17.7897 121.7 17.8197 123.21C17.8397 124.45 16.9197 125.35 15.6197 125.35ZM14.7597 121.01C13.9097 121.02 13.2197 121.68 13.1997 122.51C13.1797 123.56 14.2897 124.59 15.4397 124.56C16.3797 124.54 16.9497 124.08 16.9597 123.1C16.9797 122.01 15.8897 121 14.7597 121.01Z" fill="#EEF4F7"/>
<path d="M11.2195 127.2C10.0195 127.19 8.96954 126.18 8.98954 125.04C8.99954 124.12 9.64954 123.53 10.6195 123.54C11.8095 123.56 12.8795 124.6 12.8695 125.72C12.8495 126.62 12.2095 127.2 11.2195 127.2ZM11.4595 126.68C11.6595 126.37 12.1195 125.97 12.1395 125.55C12.1795 124.65 11.4995 124.14 10.6795 124.2C10.3095 124.23 9.71953 124.85 9.69953 125.22C9.65953 126.08 10.3295 126.51 11.4595 126.68Z" fill="#DCE6F4"/>
<path d="M315.9 98.26C314.56 100.85 312.49 102.81 310.06 104.29C308.13 105.46 306.02 106.38 303.9 107.16C302.82 107.56 302.34 108.04 302.08 109.14C301.26 112.64 299.76 115.84 297.63 118.74C297.49 118.93 297.34 119.12 297.19 119.3C297.12 119.39 297.01 119.44 296.82 119.59C296.97 118.18 297.27 116.87 297.21 115.57C297.12 113.63 296.81 111.7 296.53 109.78C296.39 108.82 295.81 108.31 294.77 108.56C294.32 107.81 293.87 107.06 293.42 106.3C294.47 105.48 295.58 104.71 296.55 103.81C296.8 103.57 296.67 102.92 296.71 102.45C294.83 101.82 293.39 102.7 292 103.78C291.53 102.99 291.07 102.19 290.6 101.4C291.3 100.76 291.25 100.19 290.59 99.47C288.5 97.2 285.93 95.74 283.07 94.71C282.75 94.59 282.42 94.48 282.1 94.36C282.1 94.23 282.11 94.09 282.11 93.96C284.26 93.93 286.42 93.76 288.55 93.91C290.33 94.03 292.11 94.41 293.84 94.88C294.82 95.15 295.41 95.04 296.13 94.32C299.41 91.04 303.33 88.93 307.94 88.18C308.61 88.07 309.29 88.07 309.97 88.02C310.01 92.57 312.08 95.92 315.9 98.26ZM305.92 93.94C304.02 93.95 302.57 95.39 302.56 97.27C302.55 99.16 303.99 100.62 305.88 100.63C307.79 100.64 309.31 99.09 309.27 97.19C309.23 95.42 307.69 93.93 305.92 93.94ZM300.12 98.46C298.92 98.47 297.94 99.49 297.95 100.7C297.96 101.9 298.98 102.88 300.19 102.87C301.38 102.86 302.4 101.8 302.37 100.63C302.34 99.43 301.32 98.44 300.12 98.46Z" fill="#FEFEFE"/>
<path d="M315.9 98.2599C312.08 95.9199 310.01 92.5699 309.99 88.0399C312.99 87.6499 315.86 88.2299 318.67 89.1899C318.95 89.2799 319.26 89.9899 319.17 90.2899C318.6 92.2399 317.98 94.1699 317.26 96.0599C316.96 96.8599 316.37 97.5299 315.9 98.2599Z" fill="#C1272C"/>
<path d="M284.47 105.26C284.37 105.19 284.27 105.13 284.17 105.06C284.52 104.81 284.84 104.39 285.21 104.35C286.88 104.15 288.56 104.05 290.23 103.92C290.3 104.07 290.38 104.22 290.45 104.37C287.27 104.38 287.27 104.38 286.59 105.07C287.89 105.71 287.96 106 286.88 107.07C286.39 107.56 285.8 107.94 284.99 108.58C286.02 108.4 286.71 108.28 287.41 108.16C287.46 108.25 287.51 108.34 287.56 108.44C287.21 108.94 286.87 109.44 286.38 110.15C287.34 109.78 288.03 109.46 288.75 109.26C289.67 109.01 290.02 109.42 289.8 110.35C289.77 110.47 289.85 110.61 289.88 110.78C291.08 110.06 291.35 109.7 292.4 107.51C292.48 107.61 292.56 107.71 292.64 107.81C291.9 110.02 290.87 112.01 288.57 113.01C288.58 112.85 288.59 112.68 288.61 112.52C288.78 111.95 288.95 111.39 289.12 110.82C288.57 110.75 287.97 110.51 287.46 110.64C286.5 110.88 285.58 111.28 284.68 111.69C284.2 111.91 283.93 111.96 283.93 111.33C284.09 111.17 284.24 111 284.4 110.84C285.04 110.36 285.68 109.88 286.31 109.41C286.22 109.25 286.13 109.08 286.04 108.92C284.95 109.16 283.86 109.4 282.63 109.67C283.73 108.71 284.73 107.93 285.59 107.02C285.9 106.69 285.86 106.04 285.98 105.53C285.48 105.42 284.98 105.34 284.47 105.26Z" fill="#FB8146"/>
<path d="M284.47 105.26C284.98 105.34 285.49 105.42 286 105.5C285.88 106.01 285.92 106.66 285.61 106.99C284.75 107.9 283.75 108.67 282.65 109.64C283.88 109.37 284.97 109.13 286.06 108.89C286.15 109.05 286.24 109.22 286.33 109.38C285.69 109.86 285.05 110.34 284.42 110.81C284.75 109.94 284.62 109.54 283.56 109.86C282.35 110.23 281.12 110.49 279.83 110.63C280.64 110.08 281.5 109.58 282.25 108.95C282.98 108.34 283.68 107.67 284.22 106.89C284.49 106.49 284.39 105.82 284.47 105.26Z" fill="#EDE051"/>
<path d="M283.94 111.31C283.94 111.95 284.2 111.9 284.69 111.67C285.59 111.26 286.51 110.86 287.47 110.62C287.98 110.5 288.57 110.73 289.13 110.8C288.96 111.37 288.79 111.93 288.62 112.5C288.09 112.26 287.49 111.73 287.04 111.84C285.59 112.17 284.19 112.73 282.79 113.23C282.44 113.35 282.11 113.56 281.62 113.53C282.37 112.79 283.16 112.05 283.94 111.31Z" fill="#F1E251"/>
<path d="M290.219 103.92C288.549 104.05 286.869 104.15 285.199 104.35C284.829 104.39 284.509 104.82 284.159 105.06C283.429 105 282.699 104.93 281.649 104.84C283.599 103.5 285.459 103.06 287.489 103.22C288.319 103.29 289.149 103.36 289.979 103.43C290.059 103.6 290.139 103.76 290.219 103.92Z" fill="#E1D958"/>
<path d="M288.57 113C290.87 112 291.89 110.01 292.64 107.8C292.77 108.09 292.89 108.38 293.02 108.67C292.82 108.97 292.56 109.25 292.43 109.58C291.7 111.52 290.62 113.2 288.86 114.37C288.52 114.6 288.12 114.75 287.49 115.07C287.95 114.19 288.26 113.59 288.57 113Z" fill="#E7E055"/>
<path d="M293.44 106.3C293.89 107.05 294.34 107.8 294.79 108.56C294.82 109.29 294.58 109.57 293.9 109.08C293.45 108.19 293.01 107.3 292.56 106.41C292.85 106.37 293.14 106.34 293.44 106.3Z" fill="#BF3D43"/>
<path d="M290.62 101.41C291.09 102.2 291.55 103 292.02 103.79C291.82 104 291.62 104.21 291.41 104.43C290.85 103.62 290.28 102.8 289.72 101.99C289.7 101.3 290 101.1 290.62 101.41Z" fill="#B83A41"/>
<path d="M289.72 101.98C290.28 102.79 290.85 103.61 291.41 104.42C291.31 104.61 291.21 104.79 291.1 104.98C290.88 104.78 290.66 104.57 290.44 104.37C290.37 104.22 290.29 104.07 290.22 103.92C290.14 103.76 290.06 103.6 289.98 103.44C289.9 102.95 289.81 102.47 289.72 101.98Z" fill="#E0CBBC"/>
<path d="M292.55 106.41C293 107.3 293.44 108.19 293.89 109.08C293.6 108.94 293.31 108.8 293.01 108.67C292.88 108.38 292.75 108.09 292.63 107.8C292.55 107.7 292.47 107.6 292.39 107.5C292.11 107.13 291.83 106.75 291.55 106.38C291.89 106.39 292.22 106.4 292.55 106.41Z" fill="#E6D8CD"/>
<path d="M238.27 32.6399C238.83 33.6399 238.65 34.4199 237.54 35.0799C236.98 35.4199 236.3 35.6699 235.65 35.7399C232.53 36.0699 229.4 36.4499 226.26 36.5599C224.74 36.6099 223.19 36.1899 221.69 35.8499C220.3 35.5399 218.95 35.0599 217.59 34.6499C217.59 30.9299 217.59 27.2099 217.59 23.4799C220.08 23.6199 221.57 22.2399 222.68 20.2099C223.1 19.4399 223.7 18.7699 224.11 17.9999C225.12 16.0699 227.13 15.3299 228.69 14.0599C230.4 12.6599 232.07 11.2499 232.85 9.08991C232.9 9.28991 232.94 9.48992 233 9.72992C234.26 8.62992 234.3 7.89991 233.19 7.46991C233.61 6.74991 234.09 6.98993 234.56 7.38993C235.56 8.26993 235.68 9.45993 235.61 10.6699C235.48 13.0899 234.27 15.0299 232.73 16.8099C232.32 17.2799 231.97 17.7899 231.47 18.4599C233.36 18.8999 235.03 19.2899 236.7 19.6799C237.3 19.9799 237.91 20.2799 238.51 20.5699C236.53 21.3599 234.62 21.7899 232.6 21.5999C232.1 21.5499 231.56 21.8399 231.04 21.9699C231.09 22.0999 231.13 22.2299 231.18 22.3599C231.11 22.8999 231.04 23.4499 230.98 23.9899C231.02 24.2199 231.07 24.4499 231.11 24.6899C229.63 25.1299 229.33 25.6099 229.72 26.8999C229.73 26.9799 229.73 27.0699 229.73 27.1499C229.75 27.5199 229.77 27.8899 229.8 28.3099C229.69 28.3599 229.46 28.4699 229.14 28.6199C229.59 28.7999 229.91 28.9199 230.23 29.0499C228.78 29.1199 228.59 29.4299 229.06 30.9399C229.16 31.5299 229.26 32.1199 229.36 32.6999C229.47 32.5399 229.59 32.3499 229.71 32.1699C229.76 32.6999 229.59 33.4399 230.45 33.3399C230.72 33.3099 230.93 32.7499 231.16 32.4299C231.43 32.3499 231.7 32.1999 231.96 32.2099C234.07 32.3399 236.17 32.4999 238.27 32.6399Z" fill="#FECDBC"/>
<path d="M206.75 22.4399C209.92 22.4399 213.01 22.4399 216.2 22.4399C216.2 26.7599 216.2 31.05 216.2 35.43C213.08 35.43 209.95 35.43 206.75 35.43C206.75 31.1 206.75 26.8099 206.75 22.4399Z" fill="#FEFEFE"/>
<path d="M229.72 26.9099C229.33 25.6199 229.64 25.1399 231.11 24.6999C231.07 24.4699 231.02 24.2399 230.98 23.9999C231.6 24.0799 232.22 24.1699 232.84 24.2499C233.33 24.4599 233.83 24.8599 234.3 24.8399C236.07 24.7599 237.84 24.6399 239.58 24.3299C240.52 24.1599 240.7 23.1999 240.45 22.3799C240.21 21.5799 239.71 21.0899 238.65 21.2999C237.11 21.6099 235.53 21.6799 233.97 21.8799C233.04 21.9999 232.12 22.1899 231.19 22.3499C231.14 22.2199 231.1 22.0899 231.05 21.9599C231.57 21.8299 232.1 21.5399 232.61 21.5899C234.63 21.7799 236.54 21.3499 238.52 20.5599C237.92 20.2599 237.31 19.9599 236.71 19.6699C237.73 20.0499 238.87 20.2599 239.75 20.8499C241.24 21.8499 241.23 23.5599 239.92 24.7499C241.24 26.6099 241.07 27.6699 239.47 28.6399C239.42 29.5099 239.38 30.2399 239.34 30.9799C239.33 30.8999 239.31 30.8099 239.3 30.7299C239.07 30.1699 238.85 29.6099 238.62 29.0599C238.62 28.8999 238.62 28.7399 238.62 28.5799C238.8 28.4899 238.98 28.3999 239.16 28.3299C240.17 27.9399 240.62 27.1399 240.34 26.1599C240.04 25.1199 239.23 24.9399 238.14 25.1499C236.95 25.3699 235.7 25.1799 234.48 25.2799C233.14 25.3899 231.71 24.6499 230.46 25.6799C230.22 26.0799 229.97 26.4999 229.72 26.9099Z" fill="#F2B9A8"/>
<path d="M217.589 23.4797C217.589 27.1997 217.589 30.9197 217.589 34.6497C216.959 35.3797 216.519 35.2297 216.509 34.3097C216.469 30.7397 216.489 27.1697 216.509 23.6097C216.509 23.3797 216.729 23.1597 216.849 22.9297C217.099 23.1097 217.349 23.2897 217.589 23.4797Z" fill="#1E386B"/>
<path d="M239.3 30.7397C239.31 30.8197 239.33 30.9097 239.34 30.9897C238.99 31.5397 238.63 32.0897 238.28 32.6397C236.18 32.4997 234.07 32.3397 231.97 32.2197C231.71 32.1997 231.44 32.3597 231.17 32.4397C230.69 32.3497 230.2 32.2697 229.71 32.1797C229.59 32.3597 229.46 32.5497 229.36 32.7097C229.26 32.1297 229.16 31.5397 229.06 30.9497C229.61 30.9597 230.15 30.9597 230.7 30.9597C230.69 31.0797 230.67 31.1897 230.66 31.3097C233.57 31.6397 236.57 33.1197 239.3 30.7397Z" fill="#F5B9A8"/>
<path d="M233.19 7.47998C234.3 7.90998 234.26 8.63999 233 9.73999C232.94 9.48999 232.9 9.28998 232.85 9.09998C232.96 8.54998 233.08 8.01998 233.19 7.47998Z" fill="#EBE9E5"/>
<path d="M183.95 151.65C175.88 148.38 173.08 139.34 177.98 132.42C180.99 128.18 186.53 126.29 191.7 127.75C196.59 129.13 200.38 133.75 200.69 138.73C201.04 144.24 198.11 149.2 193.27 151.29C192.98 151.41 192.66 151.47 192.36 151.56C192.39 150.23 191.11 151.15 190.54 150.42C190.78 148.6 190.99 146.62 191.32 144.66C191.79 141.86 192.45 139.1 194 136.65C194.37 136.06 194.93 135.46 194.31 134.86C193.82 134.38 193.07 133.93 192.42 133.89C191.68 133.86 190.84 134.17 190.19 134.57C188.55 135.57 187.05 135.69 185.43 134.48C184.85 134.05 183.95 133.84 183.2 133.86C182.04 133.89 181.41 135.13 182.04 136.01C183.52 138.07 184.19 140.43 184.62 142.87C185.08 145.43 185.43 148.01 185.83 150.59C185.48 150.69 185.09 150.73 184.78 150.91C184.46 151.1 184.22 151.4 183.95 151.65Z" fill="#FEFEFE"/>
<path d="M185.83 150.61C185.43 148.04 185.08 145.46 184.62 142.89C184.19 140.45 183.52 138.09 182.04 136.03C181.41 135.15 182.04 133.91 183.2 133.88C183.95 133.86 184.85 134.06 185.43 134.5C187.06 135.71 188.55 135.59 190.19 134.59C190.84 134.19 191.69 133.87 192.42 133.91C193.07 133.94 193.82 134.39 194.31 134.88C194.92 135.48 194.37 136.08 194 136.67C192.45 139.11 191.79 141.87 191.32 144.68C190.99 146.64 190.78 148.62 190.54 150.44C191.11 151.17 192.38 150.25 192.36 151.58C192.19 152.15 192.03 152.72 191.86 153.3C192.05 152.57 192.52 151.75 191.61 151.24C191.14 150.98 190.5 151.03 189.93 150.94C189.92 150.86 189.92 150.77 189.91 150.69C189.99 149.98 190.06 149.26 190.15 148.55C190.66 144.35 191.25 140.17 193.42 136.4C193.64 136.01 193.85 135.23 193.67 135.08C193.28 134.73 192.6 134.45 192.11 134.54C191.31 134.68 190.54 135.09 189.81 135.48C188.38 136.26 187.03 136.29 185.65 135.34C185.1 134.96 184.47 134.63 183.83 134.49C183.45 134.41 182.9 134.66 182.6 134.95C182.45 135.09 182.62 135.68 182.77 136.01C183.35 137.32 184.24 138.55 184.52 139.91C185.27 143.47 185.76 147.08 186.35 150.67C186.17 150.63 186 150.62 185.83 150.61Z" fill="#344B74"/>
<path d="M185.83 150.61C186 150.62 186.18 150.63 186.35 150.64L186.36 150.62C186.92 150.71 187.49 150.79 188.05 150.88C188.35 150.79 188.64 150.7 188.94 150.62C189.27 150.72 189.61 150.81 189.94 150.91C190.5 151 191.15 150.95 191.62 151.21C192.53 151.72 192.06 152.55 191.87 153.27C191.8 153.29 191.72 153.31 191.64 153.32C189.15 153.24 186.67 153.16 184.18 153.08C184.11 152.6 184.03 152.13 183.96 151.65C184.23 151.4 184.47 151.1 184.78 150.93C185.09 150.75 185.47 150.71 185.83 150.61Z" fill="#163467"/>
<path d="M190.4 158.07C189.86 159.3 188.87 159.92 187.74 159.73C186.51 159.53 185.73 158.58 185.6 157.14C186.82 157.06 188.04 157 189.26 156.89C190.17 156.81 190.51 157.2 190.4 158.07Z" fill="#163568"/>
<path d="M184.17 153.08C186.66 153.16 189.14 153.24 191.63 153.32C191.62 153.55 191.61 153.78 191.61 154.01C189.3 154.01 186.98 154 184.67 154C184.5 153.69 184.34 153.38 184.17 153.08Z" fill="#28437D"/>
<path d="M190.399 158.07C190.509 157.2 190.169 156.81 189.259 156.89C188.039 157 186.819 157.06 185.599 157.14C185.279 156.81 184.969 156.49 184.649 156.16C186.959 156.17 189.269 156.17 191.569 156.18C191.189 156.81 190.789 157.44 190.399 158.07Z" fill="#29447E"/>
<path d="M184.66 154.99C184.66 154.82 184.66 154.65 184.66 154.47C186.97 154.47 189.28 154.48 191.6 154.48C191.6 154.65 191.61 154.82 191.61 154.99C189.3 154.99 186.98 154.99 184.66 154.99Z" fill="#466496"/>
<path d="M191.58 156.19C189.27 156.18 186.96 156.18 184.66 156.17C184.66 156.02 184.66 155.87 184.66 155.72C187.03 155.72 189.4 155.72 191.78 155.73C191.71 155.88 191.65 156.03 191.58 156.19Z" fill="#7185AB"/>
<path d="M191.769 155.72C189.399 155.72 187.019 155.72 184.649 155.71C184.649 155.55 184.649 155.39 184.649 155.23C186.969 155.23 189.279 155.24 191.599 155.25C191.659 155.4 191.719 155.56 191.769 155.72Z" fill="#466496"/>
<path d="M199.77 132.99C200.65 132.28 203.03 132.25 204.19 132.99C202.59 132.99 201.25 132.99 199.77 132.99Z" fill="#105E78"/>
<path d="M198.43 129.26C199.69 128.73 200.95 128.2 202.21 127.67C202.29 127.85 202.36 128.03 202.44 128.21C201.18 128.75 199.92 129.29 198.65 129.82C198.58 129.64 198.5 129.45 198.43 129.26Z" fill="#0D5772"/>
<path d="M181.699 121.22C182.419 122.35 183.139 123.48 183.859 124.61C183.689 124.72 183.519 124.82 183.349 124.93C182.629 123.8 181.909 122.67 181.189 121.54C181.359 121.43 181.529 121.32 181.699 121.22Z" fill="#105B75"/>
<path d="M177.419 129.76C176.179 129.23 174.939 128.71 173.689 128.18C173.759 128 173.839 127.82 173.909 127.64C175.149 128.16 176.379 128.68 177.619 129.19C177.559 129.38 177.489 129.57 177.419 129.76Z" fill="#0D5B74"/>
<path d="M199.16 124.53C198.15 125.41 197.13 126.28 196.12 127.16C196 127.02 195.88 126.89 195.76 126.75C196.76 125.87 197.77 124.98 198.77 124.1C198.89 124.24 199.03 124.38 199.16 124.53Z" fill="#0A526E"/>
<path d="M177.28 124.05C178.3 124.93 179.32 125.82 180.33 126.7C180.22 126.83 180.1 126.96 179.99 127.1C178.96 126.23 177.94 125.36 176.91 124.48C177.04 124.34 177.16 124.19 177.28 124.05Z" fill="#0D5571"/>
<path d="M192.26 124.67C192.99 123.56 193.72 122.44 194.45 121.33C194.59 121.42 194.73 121.51 194.87 121.59C194.16 122.72 193.46 123.86 192.75 124.99C192.58 124.88 192.42 124.78 192.26 124.67Z" fill="#0B536E"/>
<path d="M188.06 123.84C188.06 122.57 188.06 121.29 188.06 119.97C188.57 120.58 188.66 122.53 188.06 123.84Z" fill="#0B4F6C"/>
<path d="M172.35 132.54C173.58 132.54 174.81 132.54 176.05 132.54C176.05 132.63 176.05 132.72 176.05 132.8C174.82 132.8 173.58 132.8 172.35 132.8C172.35 132.71 172.35 132.62 172.35 132.54Z" fill="#0A4D6B"/>
<path d="M184.67 154C186.98 154 189.3 154.01 191.61 154.01C191.61 154.1 191.61 154.18 191.61 154.27C189.29 154.27 186.98 154.26 184.66 154.26C184.66 154.17 184.66 154.09 184.67 154Z" fill="#466496"/>
<path d="M191.61 155.25C189.29 155.24 186.98 155.24 184.66 155.23C184.66 155.15 184.66 155.07 184.66 154.99C186.98 154.99 189.3 154.99 191.61 154.99C191.61 155.07 191.61 155.16 191.61 155.25Z" fill="#7A91A9"/>
<path d="M184.66 154.26C186.98 154.26 189.29 154.27 191.61 154.27C191.62 154.34 191.61 154.41 191.6 154.48C189.29 154.48 186.98 154.47 184.66 154.47C184.65 154.4 184.65 154.33 184.66 154.26Z" fill="#91AAC1"/>
<path d="M283.65 35.7598C284.29 35.0298 284.8 34.3198 285.44 33.7398C288.19 31.2698 292.61 31.0097 295.94 33.0897C299.26 35.1597 300.73 39.0198 299.64 42.8898C298.77 45.9698 296.86 48.4198 294.45 50.3598C291.09 53.0498 287.54 55.4998 284.05 58.0198C283.83 58.1798 283.33 58.2098 283.12 58.0698C279.05 55.2798 274.86 52.6198 271.4 49.0398C269.46 47.0398 267.82 44.8398 267.34 41.9898C266.63 37.7598 268.7 34.0298 272.62 32.4298C276.71 30.7598 280.9 31.9098 283.37 35.3898C283.44 35.4898 283.52 35.5798 283.65 35.7598ZM283.84 39.0597C283.76 39.0697 283.68 39.0797 283.6 39.0897C283.4 38.4997 283.28 37.8698 282.99 37.3298C282.5 36.4298 282.05 35.4298 281.32 34.7598C278.89 32.4998 276 32.3398 273.05 33.5098C270.11 34.6798 268.49 36.9298 268.36 40.1298C268.21 43.8698 270.47 46.4098 272.96 48.9198C271.25 44.7898 271.18 41.1497 275.88 39.0597C277.34 38.4097 278.91 38.4897 280.45 39.0297C282.01 39.5697 282.91 40.7698 283.68 42.1798C285.75 38.7798 288.66 37.7598 291.83 39.2398C293.7 40.1098 294.85 41.5598 295.2 43.5998C295.54 45.5398 294.92 47.2898 293.77 49.0198C294.11 48.9598 294.26 48.9698 294.33 48.9098C296.49 46.8798 298.31 44.5998 298.77 41.5698C299.4 37.4998 296.89 33.9298 292.81 33.0498C289.55 32.3398 285.38 33.3598 284.12 38.1698C284.05 38.4698 283.93 38.7697 283.84 39.0597Z" fill="#FEFEFE"/>
<path d="M273.42 141.99C273.4 144.84 272.18 147.36 270.7 149.74C267.75 154.51 264.13 158.75 260.22 162.76C259.7 163.29 259.28 163.56 258.65 162.89C254.24 158.16 250.01 153.32 246.87 147.58C243.18 140.85 247.07 132.94 252.41 130.07C259.04 126.51 266.47 128.1 270.91 134.19C272.57 136.47 273.32 139.1 273.42 141.99ZM250.52 141.53C250.57 146.43 254.45 150.25 259.33 150.2C264.13 150.15 267.94 146.25 267.91 141.41C267.88 136.63 263.96 132.77 259.15 132.8C254.35 132.84 250.47 136.75 250.52 141.53Z" fill="#065187"/>
<path d="M138.38 54.77C140.78 55.33 143.16 55.98 145.58 56.42C148.24 56.9 150.33 58.15 151.86 60.38C153.16 62.27 153.53 64.38 152.93 66.54C151.99 69.91 150.88 73.24 149.84 76.58C145.7 70.83 142.38 64.62 139.62 58.11C139.16 57.02 138.79 55.88 138.38 54.77Z" fill="#2A5CA3"/>
<path d="M251.569 93.3398C251.569 94.0598 251.599 94.7798 251.579 95.4998C251.539 96.6598 250.899 97.3299 249.729 97.4199C249.369 97.4499 249.009 97.4299 248.649 97.4299C238.339 97.4299 228.039 97.4399 217.729 97.3999C217.009 97.3999 216.289 96.9399 215.569 96.6999C215.489 96.1099 215.419 95.5198 215.329 94.9398C215.159 93.7898 215.519 93.3399 216.809 93.3799C220.429 93.4799 224.059 93.4199 227.689 93.4099C235.579 93.3999 243.469 93.3899 251.359 93.3799C251.419 93.3599 251.499 93.3498 251.569 93.3398ZM235.279 95.0298C233.519 94.9998 231.749 94.7998 230.019 95.3698C231.809 95.9698 233.629 95.7198 235.439 95.7498C239.659 95.7598 243.889 95.7699 248.109 95.7599C248.469 95.7599 248.819 95.5999 249.179 95.5099C249.159 95.3499 249.139 95.1898 249.129 95.0298C244.509 95.0298 239.899 95.0298 235.279 95.0298ZM227.999 95.3599C227.209 94.8199 219.509 94.7899 218.649 95.3299C219.359 95.9699 227.209 95.9899 227.999 95.3599Z" fill="#173468"/>
<path d="M251.35 93.3799C243.46 93.3899 235.57 93.3999 227.68 93.4099C224.05 93.4099 220.42 93.4699 216.8 93.3799C215.52 93.3499 215.15 93.7899 215.32 94.9399C215.41 95.5299 215.48 96.12 215.56 96.7C215.4 96.28 215.1 95.8599 215.1 95.4399C215.08 88.5999 215.07 81.7599 215.14 74.9099C215.15 74.3299 215.75 73.7599 216.07 73.1899C216 73.3799 215.93 73.5699 215.85 73.7599C215.73 74.4199 215.51 75.0699 215.5 75.7299C215.47 81.1199 215.48 86.5099 215.49 91.9099C215.49 92.2999 215.53 92.6899 215.55 93.1599C216.05 93.1799 216.48 93.2199 216.91 93.2199C227.94 93.2199 238.96 93.2199 249.99 93.2199C250.43 93.2199 250.86 93.15 251.3 93.11C251.33 93.19 251.34 93.2799 251.35 93.3799Z" fill="#2E6E89"/>
<path d="M215.87 73.7596C215.94 73.5696 216.01 73.3796 216.09 73.1896C216.6 73.1096 217.1 72.9596 217.61 72.9596C228.23 72.9496 238.85 72.9496 249.47 72.9596C249.93 72.9596 250.39 73.1196 250.85 73.1996C250.77 73.2896 250.7 73.3696 250.62 73.4596C250.15 73.3996 249.68 73.2796 249.21 73.2796C238.7 73.2696 228.2 73.2696 217.69 73.2896C217.07 73.2996 216.47 73.5996 215.87 73.7596Z" fill="#3F6B91"/>
<path d="M250.609 73.4597C250.689 73.3697 250.759 73.2897 250.839 73.1997C251.089 73.7497 251.559 74.2997 251.569 74.8497C251.609 81.0097 251.589 87.1697 251.579 93.3297C251.509 93.3397 251.439 93.3497 251.359 93.3697C251.349 93.2797 251.339 93.1897 251.319 93.0897C251.319 87.2297 251.339 81.3697 251.289 75.5097C251.279 74.8297 250.839 74.1497 250.609 73.4597Z" fill="#315775"/>
<path d="M122.72 97C122.76 100.72 121.48 102.78 118.43 103.98C117.59 104.31 117.08 104.26 116.61 103.37C115.8 101.82 114.85 100.34 113.96 98.83C116.88 98.22 119.8 97.61 122.72 97Z" fill="#64C5CE"/>
<path d="M118.899 123.85C120.259 122.85 120.909 122.79 121.459 123.6C122.189 124.68 121.839 125.6 120.569 125.91C120.299 125.98 120.019 125.95 119.739 125.96C119.579 125.91 119.419 125.86 119.259 125.81C119.059 125.59 118.849 125.38 118.649 125.16C118.729 124.73 118.819 124.29 118.899 123.85Z" fill="#FBFAF9"/>
<path d="M128.74 113.97C126.49 116.04 124.24 118.11 121.99 120.18C121.83 120.34 121.68 120.51 121.52 120.67C121.22 120.71 120.92 120.76 120.62 120.8C120.19 120.25 119.84 119.59 119.3 119.18C118.98 118.94 118.3 118.94 117.88 119.1C116.78 119.52 117.42 120.54 117.25 121.29C116.64 120.42 116.26 119.54 116.98 118.54C117.5 118.14 118.05 117.76 118.54 117.32C120.59 115.46 122.65 113.61 124.64 111.69C125.43 110.93 126.16 110.26 127.33 110.76C128.53 111.28 128.84 112.3 128.82 113.49C128.82 113.65 128.77 113.81 128.74 113.97Z" fill="#FECDBC"/>
<path d="M117.249 121.29C117.409 120.54 116.779 119.51 117.879 119.1C118.299 118.94 118.979 118.94 119.299 119.18C119.839 119.59 120.189 120.25 120.619 120.8C119.739 122.15 118.349 122.35 117.249 121.29Z" fill="#FCFBFB"/>
<path d="M122.57 127.45C122.42 125.74 122.75 125.47 124.67 125.75C124.83 125.99 124.98 126.22 125.14 126.46C124.71 126.94 124.28 127.42 123.84 127.9C123.41 127.75 122.99 127.6 122.57 127.45Z" fill="#F2EBEA"/>
<path d="M123.84 127.9C124.27 127.42 124.7 126.94 125.14 126.46C125.17 126.39 125.2 126.32 125.24 126.25C125.25 126.23 125.33 126.23 125.33 126.25C125.45 126.53 125.56 126.81 125.67 127.09C126.41 126.85 127.09 126.64 127.78 126.42C127.89 126.44 128 126.46 128.11 126.48C126.68 126.94 125.26 127.42 123.84 127.9Z" fill="#EBB6A7"/>
<path d="M122.289 120.71C123.969 119.22 125.699 117.77 127.309 116.21C128.099 115.45 128.859 115.03 129.929 115.43C131.349 117.29 131.069 118.47 129.589 119.85C127.509 121.79 125.089 123.35 122.799 125.06C122.719 125.12 122.579 125.09 122.639 125.08C122.069 124.07 121.549 123.14 120.979 122.14C121.309 121.79 121.799 121.25 122.289 120.71Z" fill="#FECDBC"/>
<path d="M127.77 126.41C127.09 126.63 126.41 126.84 125.66 127.08C125.55 126.8 125.44 126.52 125.32 126.24C125.32 126.23 125.24 126.23 125.23 126.24C125.19 126.31 125.16 126.38 125.13 126.45C124.97 126.21 124.82 125.98 124.66 125.74C124.5 125.5 124.33 125.26 124.22 125.1C126.13 123.5 128.15 121.75 130.23 120.08C130.61 119.77 131.41 119.47 131.68 119.65C132.17 119.98 132.66 120.67 132.7 121.24C132.8 122.52 132.31 123.62 131.09 124.31C130.51 124.64 129.99 125.08 129.45 125.47C128.9 125.79 128.33 126.1 127.77 126.41Z" fill="#FDCDBC"/>
<path d="M119.899 109.9C120.399 109.2 120.989 108.54 121.379 107.78C122.069 106.46 122.999 106.17 124.219 107.06C125.179 107.76 125.489 108.73 125.369 109.87C124.219 111.23 123.149 112.66 121.909 113.92C121.069 114.77 119.999 115.4 118.789 116.31C118.779 114.47 118.009 113.72 116.109 114C117.539 112.45 118.719 111.18 119.899 109.9Z" fill="#FDCDBC"/>
<path d="M114.85 116.84C114.8 115.89 114.86 114.9 115.91 114.55C116.48 114.36 117.24 114.42 117.8 114.64C118.59 114.95 118.62 115.64 118.12 116.31C117.46 117.2 115.93 117.77 114.85 116.84Z" fill="#F4EFEE"/>
<path d="M14.7602 121.01C15.9002 121 16.9802 122.01 16.9702 123.1C16.9502 124.08 16.3902 124.54 15.4502 124.56C14.3002 124.59 13.1902 123.56 13.2102 122.51C13.2102 121.68 13.9002 121.02 14.7602 121.01ZM16.3902 123.22C16.4102 123.05 16.4202 122.89 16.4402 122.72C15.9402 122.38 15.4802 121.9 14.9302 121.76C14.6802 121.7 14.2602 122.32 13.9202 122.63C14.3602 123.05 14.7402 123.59 15.2602 123.82C15.5002 123.92 16.0102 123.44 16.3902 123.22Z" fill="#6C9EF6"/>
<path d="M11.4596 126.68C10.3296 126.52 9.65965 126.09 9.70965 125.22C9.72965 124.84 10.3196 124.22 10.6896 124.2C11.4996 124.14 12.1896 124.65 12.1496 125.55C12.1196 125.96 11.6596 126.36 11.4596 126.68ZM10.8097 124.21C10.4597 124.72 10.0696 125.1 10.1296 125.22C10.3396 125.58 10.6996 125.88 11.0696 126.11C11.1296 126.15 11.7196 125.62 11.6696 125.48C11.5496 125.09 11.2097 124.77 10.8097 124.21Z" fill="#699AEA"/>
<path d="M305.92 93.94C307.69 93.93 309.23 95.42 309.27 97.19C309.32 99.1 307.79 100.65 305.88 100.63C303.99 100.62 302.55 99.16 302.56 97.27C302.58 95.38 304.02 93.95 305.92 93.94ZM305.86 95.09C304.78 95.11 303.66 96.21 303.68 97.24C303.7 98.45 304.78 99.52 305.99 99.52C307.06 99.51 308.12 98.32 308.08 97.17C308.05 96.08 306.97 95.07 305.86 95.09Z" fill="#0C7DA8"/>
<path d="M300.12 98.46C301.32 98.45 302.35 99.43 302.37 100.63C302.4 101.81 301.38 102.86 300.19 102.87C298.98 102.88 297.96 101.89 297.95 100.7C297.94 99.49 298.92 98.47 300.12 98.46ZM300.28 102.02C301.06 102.03 301.55 101.52 301.55 100.64C301.55 99.82 301.07 99.32 300.2 99.3C299.35 99.28 298.84 99.68 298.8 100.56C298.76 101.47 299.18 101.99 300.28 102.02Z" fill="#137FA6"/>
<path d="M292.55 106.41C292.22 106.4 291.88 106.39 291.55 106.37C291.31 106.3 291.08 106.24 290.84 106.17C291.18 105.96 291.52 105.76 291.85 105.55C293.47 104.52 295.1 103.48 296.72 102.44C296.68 102.9 296.81 103.56 296.56 103.8C295.58 104.7 294.48 105.47 293.43 106.29C293.14 106.34 292.85 106.37 292.55 106.41Z" fill="#43A0E1"/>
<path d="M296.73 102.45C295.11 103.49 293.48 104.52 291.86 105.56C291.53 105.77 291.19 105.97 290.85 106.18C290.94 105.78 291.02 105.38 291.1 104.98C291.2 104.79 291.3 104.61 291.41 104.42C291.61 104.21 291.81 104 292.02 103.78C293.41 102.7 294.85 101.82 296.73 102.45Z" fill="#176188"/>
<path d="M291.099 104.98C291.019 105.38 290.929 105.78 290.849 106.18C291.079 106.25 291.319 106.31 291.549 106.38C291.829 106.75 292.109 107.12 292.389 107.5C291.339 109.69 291.069 110.05 289.869 110.77C289.839 110.61 289.759 110.46 289.789 110.34C290.009 109.41 289.659 109 288.739 109.25C288.019 109.44 287.339 109.77 286.369 110.14C286.859 109.43 287.209 108.93 287.549 108.43C287.499 108.34 287.449 108.25 287.399 108.15C286.709 108.27 286.009 108.39 284.979 108.57C285.789 107.93 286.379 107.55 286.869 107.06C287.939 106 287.879 105.7 286.579 105.06C287.259 104.37 287.259 104.37 290.439 104.36C290.669 104.57 290.879 104.78 291.099 104.98Z" fill="#FCAD04"/>
<path d="M238.619 28.5799C238.619 28.7399 238.619 28.8999 238.619 29.0599C236.699 29.0599 234.779 29.0299 232.869 29.0699C232.139 29.0799 231.409 29.2399 230.679 29.3399C230.529 29.2499 230.379 29.1499 230.239 29.0599C229.919 28.9299 229.599 28.8099 229.149 28.6299C229.469 28.4799 229.699 28.3699 229.809 28.3199C229.779 27.8999 229.759 27.5299 229.739 27.1599C230.229 27.4599 230.709 27.7699 231.199 28.0699C231.389 27.5299 231.599 26.9899 231.769 26.4399C231.809 26.3099 231.699 26.1399 231.659 25.9799C231.799 25.9599 231.939 25.9399 232.079 25.9199C232.109 26.6199 232.139 27.3199 232.179 28.0899C232.569 28.1799 232.939 28.3199 233.329 28.3399C235.079 28.4399 236.849 28.4999 238.619 28.5799Z" fill="#F3B9A7"/>
<path d="M231.65 25.9797C231.69 26.1297 231.8 26.3097 231.76 26.4397C231.59 26.9897 231.39 27.5297 231.19 28.0697C230.7 27.7697 230.22 27.4597 229.73 27.1597C229.73 27.0797 229.72 26.9897 229.72 26.9097C229.97 26.4997 230.22 26.0897 230.46 25.6797C230.86 25.7797 231.25 25.8797 231.65 25.9797Z" fill="#FBFAF9"/>
<path d="M232.839 24.2497C232.219 24.1697 231.599 24.0797 230.979 23.9997C231.049 23.4497 231.119 22.9098 231.179 22.3598C232.979 22.3298 233.389 22.7897 232.839 24.2497Z" fill="#FBFAF8"/>
<path d="M230.23 29.0596C230.38 29.1496 230.53 29.2496 230.67 29.3396C230.68 29.8796 230.69 30.4296 230.7 30.9696C230.15 30.9696 229.61 30.9596 229.06 30.9596C228.59 29.4396 228.78 29.1196 230.23 29.0596Z" fill="#FCFAF9"/>
<path d="M229.71 32.1797C230.2 32.2697 230.68 32.3497 231.17 32.4397C230.93 32.7597 230.73 33.3197 230.46 33.3497C229.59 33.4597 229.76 32.7097 229.71 32.1797Z" fill="#FBF9F7"/>
<path d="M231.65 25.9799C231.25 25.8799 230.86 25.7799 230.46 25.6799C231.71 24.6499 233.14 25.3899 234.48 25.2799C235.7 25.1799 236.95 25.3599 238.14 25.1499C239.23 24.9499 240.04 25.1199 240.34 26.1599C240.63 27.1399 240.18 27.9399 239.16 28.3299C238.97 28.3999 238.8 28.4999 238.62 28.5799C236.85 28.4999 235.08 28.4398 233.32 28.3398C232.94 28.3198 232.56 28.1798 232.17 28.0898C232.13 27.3198 232.1 26.6199 232.07 25.9199C231.93 25.9399 231.79 25.9599 231.65 25.9799Z" fill="#FDCDBB"/>
<path d="M232.839 24.2499C233.389 22.7899 232.979 22.3199 231.189 22.3599C232.119 22.1999 233.039 22.0099 233.969 21.8899C235.529 21.6799 237.119 21.6199 238.649 21.3099C239.709 21.0999 240.209 21.5899 240.449 22.3899C240.699 23.1999 240.519 24.1699 239.579 24.3399C237.839 24.6499 236.059 24.7699 234.299 24.8499C233.819 24.8599 233.329 24.4599 232.839 24.2499Z" fill="#FCCDBC"/>
<path d="M230.699 30.9696C230.689 30.4296 230.679 29.8796 230.669 29.3396C231.399 29.2496 232.129 29.0896 232.859 29.0696C234.779 29.0296 236.699 29.0596 238.609 29.0596C238.839 29.6196 239.059 30.1796 239.289 30.7296C236.559 33.1096 233.569 31.6396 230.649 31.3096C230.669 31.1996 230.689 31.0796 230.699 30.9696Z" fill="#FECDBC"/>
<path d="M188.93 150.62C188.63 150.71 188.34 150.8 188.04 150.88C188.02 149.06 187.99 147.23 187.97 145.41C188.03 143.08 187.41 140.46 186.75 139.8C187.06 141.97 187.4 144.3 187.74 146.63C187.73 147.62 187.68 148.62 187.73 149.61C187.79 150.7 187.31 150.95 186.36 150.62L186.35 150.64C185.76 147.05 185.27 143.44 184.52 139.88C184.23 138.52 183.34 137.29 182.77 135.98C182.62 135.65 182.45 135.06 182.6 134.92C182.9 134.64 183.46 134.38 183.83 134.46C184.47 134.6 185.1 134.93 185.65 135.31C187.03 136.25 188.38 136.22 189.81 135.45C190.54 135.05 191.31 134.65 192.11 134.51C192.6 134.42 193.28 134.7 193.67 135.05C193.85 135.2 193.64 135.99 193.42 136.37C191.25 140.13 190.65 144.31 190.15 148.52C190.06 149.23 189.99 149.94 189.91 150.66C189.73 150.37 189.38 150.07 189.4 149.8C189.55 147.06 189.74 144.32 189.98 141.59C190.04 140.95 190.32 140.33 190.5 139.7C190.36 139.68 190.22 139.66 190.08 139.63C188.68 143.15 188.82 146.89 188.93 150.62Z" fill="#FDFDFD"/>
<path d="M188.93 150.62C188.82 146.89 188.68 143.15 190.09 139.62C190.23 139.64 190.37 139.66 190.51 139.69C190.33 140.32 190.05 140.94 189.99 141.58C189.75 144.31 189.56 147.05 189.41 149.79C189.39 150.07 189.74 150.36 189.92 150.65C189.93 150.73 189.93 150.82 189.94 150.9C189.6 150.81 189.26 150.72 188.93 150.62Z" fill="#8392AC"/>
<path d="M186.35 150.63C187.3 150.95 187.77 150.71 187.72 149.62C187.67 148.63 187.72 147.64 187.73 146.64C187.81 146.23 187.89 145.82 187.97 145.41C187.99 147.23 188.02 149.06 188.04 150.88C187.48 150.8 186.91 150.71 186.35 150.63Z" fill="#466081"/>
<path d="M283.839 39.0597C283.939 38.7597 284.049 38.4697 284.129 38.1597C285.389 33.3497 289.559 32.3297 292.819 33.0397C296.899 33.9297 299.399 37.4897 298.779 41.5597C298.309 44.5897 296.499 46.8597 294.339 48.8997C294.269 48.9697 294.119 48.9497 293.779 49.0097C294.919 47.2797 295.539 45.5297 295.209 43.5897C294.859 41.5497 293.709 40.0997 291.839 39.2297C288.659 37.7497 285.749 38.7697 283.689 42.1697C282.919 40.7597 282.019 39.5597 280.459 39.0197C278.919 38.4797 277.349 38.4097 275.889 39.0497C271.189 41.1397 271.259 44.7697 272.969 48.9097C270.479 46.3997 268.219 43.8597 268.369 40.1197C268.499 36.9197 270.119 34.6697 273.059 33.4997C276.009 32.3297 278.899 32.4897 281.329 34.7497C282.059 35.4297 282.509 36.4197 282.999 37.3197C283.289 37.8597 283.409 38.4897 283.609 39.0797C283.669 39.0797 283.759 39.0697 283.839 39.0597Z" fill="#289AA9"/>
<path d="M250.52 141.53C250.47 136.75 254.35 132.84 259.15 132.8C263.95 132.77 267.88 136.63 267.91 141.41C267.94 146.24 264.12 150.15 259.33 150.2C254.45 150.26 250.57 146.43 250.52 141.53ZM259.16 137.41C256.89 137.44 255.07 139.31 255.11 141.58C255.15 143.79 256.99 145.61 259.2 145.6C261.48 145.59 263.32 143.75 263.32 141.48C263.31 139.23 261.43 137.38 259.16 137.41Z" fill="#FEFEFE"/>
<path d="M235.28 95.0298C239.9 95.0298 244.51 95.0298 249.13 95.0298C249.15 95.1898 249.17 95.3498 249.18 95.5098C248.82 95.5998 248.47 95.7598 248.11 95.7598C243.89 95.7698 239.66 95.7598 235.44 95.7498C235.39 95.5098 235.33 95.2698 235.28 95.0298Z" fill="#F8FBFC"/>
<path d="M227.999 95.3598C227.209 95.9898 219.359 95.9698 218.649 95.3298C219.509 94.7898 227.199 94.8198 227.999 95.3598Z" fill="#61C2E5"/>
<path d="M235.28 95.03C235.33 95.27 235.39 95.51 235.44 95.75C233.63 95.72 231.81 95.98 230.02 95.37C231.75 94.8 233.52 95 235.28 95.03Z" fill="#63C1E5"/>
<path d="M250.609 73.4595C250.849 74.1495 251.279 74.8295 251.289 75.5195C251.349 81.3795 251.319 87.2395 251.319 93.0995C250.879 93.1395 250.449 93.2095 250.009 93.2095C238.979 93.2195 227.959 93.2195 216.929 93.2095C216.499 93.2095 216.069 93.1696 215.569 93.1496C215.549 92.6796 215.509 92.2896 215.509 91.8996C215.509 86.5096 215.499 81.1195 215.519 75.7195C215.519 75.0595 215.739 74.4095 215.869 73.7495C216.469 73.5895 217.079 73.2895 217.679 73.2895C228.189 73.2595 238.689 73.2695 249.199 73.2795C249.659 73.2795 250.139 73.3995 250.609 73.4595ZM225.859 83.5395C225.829 87.7495 229.139 91.1095 233.329 91.1395C237.499 91.1695 240.909 87.8095 240.939 83.6595C240.969 79.4895 237.599 76.0695 233.449 76.0695C229.229 76.0495 225.889 79.3395 225.859 83.5395Z" fill="#FDFDFD"/>
<path d="M16.3899 123.22C16.0099 123.44 15.4999 123.92 15.2599 123.81C14.7399 123.57 14.3599 123.03 13.9199 122.62C14.2599 122.31 14.6799 121.69 14.9299 121.75C15.4799 121.89 15.9399 122.37 16.4399 122.71C16.4199 122.88 16.4099 123.05 16.3899 123.22Z" fill="#2E4F85"/>
<path d="M10.8101 124.21C11.2101 124.77 11.5501 125.09 11.6801 125.48C11.7301 125.62 11.1301 126.15 11.0801 126.11C10.7201 125.88 10.3501 125.58 10.1401 125.22C10.0701 125.1 10.4601 124.72 10.8101 124.21Z" fill="#385A97"/>
<path d="M305.86 95.0897C306.97 95.0697 308.04 96.0697 308.08 97.1697C308.12 98.3197 307.06 99.5097 305.99 99.5197C304.78 99.5297 303.7 98.4597 303.68 97.2397C303.67 96.2197 304.78 95.1197 305.86 95.0897Z" fill="#01364E"/>
<path d="M300.28 102.02C299.18 101.99 298.759 101.46 298.799 100.56C298.839 99.68 299.349 99.29 300.199 99.3C301.069 99.32 301.549 99.82 301.549 100.64C301.549 101.52 301.06 102.04 300.28 102.02Z" fill="#023850"/>
<path d="M187.959 145.41C187.879 145.82 187.799 146.23 187.719 146.64C187.379 144.31 187.049 141.98 186.729 139.81C187.399 140.46 188.029 143.08 187.959 145.41Z" fill="#77839F"/>
<path d="M259.16 137.41C261.43 137.38 263.31 139.23 263.32 141.48C263.32 143.75 261.48 145.59 259.2 145.6C257 145.61 255.15 143.79 255.11 141.58C255.08 139.31 256.89 137.44 259.16 137.41Z" fill="#153366"/>
<path d="M225.859 83.5396C225.889 79.3496 229.229 76.0496 233.449 76.0596C237.599 76.0696 240.969 79.4796 240.939 83.6496C240.909 87.8096 237.499 91.1596 233.329 91.1296C229.139 91.0996 225.839 87.7396 225.859 83.5396ZM233.34 90.5096C237.19 90.5396 240.309 87.4696 240.319 83.6396C240.329 79.8096 237.279 76.7096 233.429 76.6296C229.679 76.5496 226.47 79.7396 226.46 83.5496C226.44 87.3996 229.49 90.4796 233.34 90.5096Z" fill="#313C68"/>
<path d="M233.34 90.5098C229.49 90.4798 226.44 87.3898 226.45 83.5398C226.46 79.7298 229.68 76.5498 233.42 76.6198C237.27 76.6998 240.32 79.7998 240.31 83.6298C240.31 87.4698 237.2 90.5398 233.34 90.5098ZM230.94 79.7898C230.94 82.4098 230.94 84.7798 230.94 87.2998C233.11 86.0598 235.11 84.9298 237.41 83.6198C235.2 82.3098 233.16 81.0998 230.94 79.7898Z" fill="#F73C57"/>
<path d="M230.939 79.79C233.159 81.1 235.199 82.31 237.409 83.61C235.099 84.92 233.109 86.06 230.939 87.29C230.939 84.78 230.939 82.41 230.939 79.79ZM231.679 85.98C233.089 85.17 234.379 84.43 235.879 83.57C234.409 82.72 233.099 81.9701 231.679 81.1501C231.679 82.8301 231.679 84.31 231.679 85.98Z" fill="#293869"/>
<path d="M231.68 85.9799C231.68 84.3099 231.68 82.8199 231.68 81.1499C233.11 81.9699 234.42 82.7299 235.88 83.5699C234.38 84.4399 233.09 85.1699 231.68 85.9799Z" fill="#FAFBFB"/>
</svg>
