<svg width="93" height="60" viewBox="0 0 93 60" fill="none" xmlns="http://www.w3.org/2000/svg">
<path d="M46.7478 10.0593C46.9978 10.8193 47.0578 11.7793 47.5578 12.3093C48.1978 12.9893 48.4978 13.6293 48.5378 14.5293C48.5478 14.6493 49.2678 14.8393 49.6578 14.8393C54.9078 14.8593 60.1678 14.8393 65.4178 14.8793C65.9078 14.8793 66.3978 15.1893 66.8878 15.3493C66.2578 15.2693 65.6378 15.1193 65.0078 15.1093C59.9078 15.0893 54.8078 15.0993 49.7078 15.0993C49.3278 15.0993 48.9378 15.1393 48.5378 15.1593C48.4578 16.2293 48.8278 16.6193 49.8278 16.6093C54.6078 16.5693 59.3878 16.5893 64.1678 16.5993C64.5878 16.5993 64.9978 16.7293 65.4178 16.7893C59.9478 16.7893 54.4778 16.7893 48.6678 16.7893C49.0778 17.7093 49.3577 18.3293 49.6277 18.9493C49.6977 19.2093 49.7178 19.4993 49.8478 19.7293C51.1678 22.1193 52.5278 24.4993 53.8278 26.8993C54.9878 29.0493 55.5978 31.3393 54.2378 33.5793C53.6678 34.5193 52.6278 35.1693 51.7978 35.9493C50.3478 36.0793 50.6278 37.1693 50.5978 38.0993C50.5178 37.9693 50.3678 37.8193 50.3878 37.6993C50.5878 36.4593 49.8578 36.3893 48.9078 36.4093C46.9978 36.4593 45.0978 36.4593 43.1878 36.4093C42.2478 36.3893 41.5178 36.4393 41.6878 37.6993C41.7178 37.8893 41.4078 38.1193 41.2578 38.3393C41.6978 36.8893 41.1778 35.9793 39.7278 35.5493C39.4778 35.4793 39.2978 35.1893 39.0478 35.0893C38.6578 34.9293 38.2277 34.7593 37.8177 34.7493C36.6277 34.7093 35.4378 34.7893 34.2478 34.7293C33.9478 34.7093 33.6578 34.3593 33.3578 34.1693C33.5978 33.9493 33.8078 33.6493 34.0878 33.5293C34.3478 33.4193 34.6978 33.4993 34.9978 33.4993C35.8478 33.4993 36.6878 33.4993 37.6578 33.4993C37.4378 32.9893 37.3078 32.6693 37.1678 32.3493C37.8778 32.2993 38.5978 32.2393 39.4278 32.1793C38.7278 31.2793 37.0678 31.2493 35.9178 31.9993C36.3878 32.1293 36.7778 32.2393 37.1678 32.3493C36.9678 32.3693 36.7478 32.4393 36.5778 32.3893C36.2778 32.2893 36.0078 32.1093 35.7178 31.9593C35.9478 31.6993 36.1578 31.4093 36.4278 31.1893C36.5578 31.0893 36.7978 31.1193 36.9878 31.0993C36.8878 31.0393 36.7878 30.9893 36.6978 30.9293C37.3078 29.4493 37.8278 27.9193 38.5478 26.4993C39.6478 24.3493 40.9278 22.2893 42.0378 20.1393C42.5478 19.1593 42.8477 18.0593 43.3177 16.7893C37.5377 16.7893 32.0878 16.7893 26.6378 16.7893C27.0578 16.7193 27.4678 16.5893 27.8878 16.5893C32.6678 16.5793 37.4578 16.5693 42.2378 16.5893C42.9478 16.5893 43.4778 16.3793 43.4678 15.6693C43.4678 15.4693 42.7177 15.1193 42.3177 15.1193C37.1377 15.0793 31.9578 15.0693 26.7778 15.1293C26.0878 15.1393 25.4078 15.5893 24.7178 15.8393C24.9378 14.7293 25.8178 14.8593 26.5978 14.8493C31.7478 14.8393 36.8878 14.8393 42.0378 14.8393C42.5078 14.8393 42.9778 14.8393 43.2478 14.8393C43.9878 13.1293 44.6477 11.5893 45.3177 10.0493C45.4377 10.4693 45.5578 10.8893 45.6778 11.3093C45.7178 11.3793 45.7578 11.4493 45.8078 11.5093C45.1278 11.5293 45.2278 11.8293 45.5578 12.2093C45.5778 12.2893 45.6077 12.3793 45.6277 12.4593C45.6077 12.5393 45.5978 12.6193 45.5778 12.6993C45.6278 13.7593 45.7178 14.8193 45.7278 15.8793C45.7478 18.4693 45.7078 21.0693 45.7478 23.6593C45.7578 24.7993 45.8178 25.9093 44.8078 26.7193C44.2378 27.4993 44.6078 28.1693 45.2578 28.5093C45.6778 28.7293 46.4378 28.6993 46.8578 28.4593C47.4078 28.1493 47.9078 27.5393 47.2278 26.8093C46.3478 26.1893 46.2978 25.3193 46.3078 24.3293C46.3478 20.6293 46.3178 16.9293 46.3078 13.2293C46.5378 12.8393 46.9278 12.4693 46.9578 12.0693C47.0178 11.4193 46.8378 10.7393 46.7478 10.0593ZM33.8378 33.9593C33.8378 34.0493 33.8378 34.1393 33.8378 34.2293C35.2378 34.2293 36.6378 34.2293 38.0378 34.2293C38.0378 34.1393 38.0378 34.0493 38.0378 33.9593C36.6378 33.9593 35.2378 33.9593 33.8378 33.9593Z" fill="#D6D6D6"/>
<path d="M10.0879 51.9891C9.20793 51.7891 8.87792 51.2091 8.88792 50.3391C8.89792 45.6791 8.88793 41.0091 8.90793 36.3491C8.91793 34.7491 9.64792 34.0391 11.2679 34.0291C14.2179 34.0091 17.168 34.0191 20.118 34.0291C21.758 34.0391 22.5379 34.8091 22.5379 36.4391C22.5479 40.9091 22.5379 45.3691 22.5379 49.8391C21.8479 48.9991 20.918 49.1191 19.988 49.2091C19.018 49.3091 18.0479 49.4591 17.0779 49.4591C16.6279 49.4591 15.9879 49.3991 16.0479 48.5991C16.0579 48.4691 15.7579 48.2091 15.5979 48.2091C15.4379 48.2091 15.2479 48.4391 15.1279 48.6091C14.9979 48.7891 14.9479 49.0291 14.8579 49.2391C12.9679 49.2391 11.1279 49.2391 9.33793 49.2391C8.74793 50.4891 9.43793 51.2391 10.0879 51.9891ZM15.678 40.6791C14.148 40.6791 13.0379 41.7191 13.0679 43.1291C13.0879 44.4791 14.2979 45.6291 15.6979 45.6291C17.0379 45.6291 18.258 44.3391 18.248 42.9191C18.238 41.7891 16.968 40.6791 15.678 40.6791Z" fill="#D6D6D6"/>
<path d="M24.7377 15.8389C25.4277 15.5889 26.1077 15.1389 26.7977 15.1289C31.9777 15.0689 37.1577 15.0789 42.3377 15.1189C42.7477 15.1189 43.4877 15.4689 43.4877 15.6689C43.4977 16.3789 42.9677 16.5889 42.2577 16.5889C37.4777 16.5589 32.6877 16.5689 27.9077 16.5889C27.4877 16.5889 27.0777 16.7189 26.6577 16.7889C26.5677 16.8789 26.4777 16.9589 26.3877 17.0489C26.3177 17.4189 26.1777 17.7989 26.1777 18.1689C26.1677 24.5089 26.1677 30.8489 26.1677 37.1789C26.1677 38.6789 26.2977 38.8089 27.8277 38.7889C32.6877 38.7289 37.5377 38.6089 42.3977 38.5989C45.4177 38.5889 48.4377 38.7689 51.4677 38.7889C55.8977 38.8189 60.3177 38.8089 64.7477 38.7789C65.0577 38.7789 65.3577 38.4989 65.6677 38.3489C65.6677 32.2189 65.6777 26.0789 65.6777 19.9489C66.3077 19.9289 66.9277 19.9089 67.5577 19.8889C67.5277 22.0389 67.4877 24.1789 67.4577 26.3289C67.4677 26.7489 67.4777 27.1689 67.4977 27.5989C67.4977 27.8289 67.5077 28.0689 67.5077 28.2989C67.5077 28.7789 67.5177 29.2589 67.5177 29.7389C67.5177 30.0589 67.5177 30.3689 67.5177 30.6889C67.4977 31.0289 67.4677 31.3789 67.4477 31.7189C67.4177 34.5589 67.3977 37.3989 67.3677 40.2389C66.9277 40.2489 66.4877 40.2689 66.0577 40.2689C52.8177 40.2689 39.5777 40.2689 26.3477 40.2689C24.7377 40.2689 24.7577 40.2689 24.7277 38.6589C24.6977 36.4389 24.6277 34.2289 24.5777 32.0089C24.5277 31.9689 24.4977 31.9189 24.4877 31.8589C24.4877 31.4089 24.4777 30.9589 24.4777 30.5189C24.4777 30.2689 24.4877 30.0189 24.4877 29.7689C24.4877 29.2889 24.4777 28.8089 24.4777 28.3289C24.4877 28.2389 24.4877 28.1489 24.4977 28.0589C24.4977 27.8989 24.4977 27.7389 24.4977 27.5689C24.5277 27.4889 24.5277 27.4189 24.4877 27.3389C24.4577 27.0289 24.4177 26.7289 24.3877 26.4189C24.4277 26.3589 24.4577 26.2889 24.4777 26.2189C24.4977 23.4689 24.5077 20.7289 24.5577 17.9789C24.5377 17.2489 24.6677 16.5489 24.7377 15.8389Z" fill="#58A0C5"/>
<path d="M24.5682 31.999C24.6182 34.219 24.6782 36.429 24.7182 38.649C24.7382 40.259 24.7282 40.259 26.3382 40.259C39.5782 40.259 52.8082 40.259 66.0482 40.259C66.4882 40.259 66.9282 40.239 67.3582 40.229C67.3682 40.869 67.3682 41.509 67.3782 42.149C66.8682 43.059 65.9882 43.099 65.0982 43.099C60.9182 43.099 56.7482 43.089 52.5682 43.109C52.0682 43.109 51.5682 43.259 51.0682 43.339C50.6482 43.259 50.2182 43.129 49.7982 43.119C47.2882 43.099 44.7882 43.099 42.2782 43.119C41.8582 43.119 41.4282 43.259 41.0082 43.339C40.5082 43.259 40.0082 43.099 39.5082 43.099C35.2882 43.079 31.0682 43.089 26.8482 43.089C25.1582 43.089 24.5282 42.499 24.5182 40.809C24.5082 37.879 24.5482 34.939 24.5682 31.999Z" fill="#61CCEF"/>
<path d="M79.9082 43.119C77.5982 43.119 75.2782 43.129 72.9682 43.119C71.3782 43.109 70.7382 42.469 70.7282 40.859C70.7182 39.219 70.7182 37.589 70.7282 35.949C70.7382 34.819 71.4182 34.039 72.5482 34.039C77.3782 33.999 82.2082 33.999 87.0382 34.019C88.2282 34.029 88.8782 34.729 88.9182 36.039C88.9782 37.709 88.9782 39.389 88.9182 41.069C88.8682 42.539 88.1882 43.129 86.7382 43.129C84.4682 43.129 82.1882 43.129 79.9182 43.129C79.9082 43.129 79.9082 43.129 79.9082 43.119ZM78.6282 41.189C79.1282 41.119 79.6482 41.109 80.1182 40.949C81.1182 40.619 81.6782 39.869 81.7482 38.829C81.8182 37.829 81.6382 36.919 80.4382 36.639C80.2482 36.569 80.0582 36.489 79.8782 36.419C79.0482 36.489 77.9282 36.249 77.4482 36.699C76.8882 37.229 76.6382 38.359 76.6982 39.209C76.7782 40.209 77.5882 40.909 78.6282 41.189ZM85.8282 42.739C87.5082 42.999 88.3682 42.719 88.4082 41.789C88.4982 39.649 88.5182 37.489 88.3582 35.349C88.3282 34.949 87.3482 34.539 86.7482 34.319C86.5582 34.249 85.8782 34.789 85.8682 35.059C85.7982 37.599 85.8282 40.139 85.8282 42.739Z" fill="#D6D6D6"/>
<path d="M57.0879 58.8992C55.2479 58.8992 53.4179 58.9092 51.5779 58.8892C50.5879 58.8792 49.7079 58.5592 49.4679 57.4992C49.2479 56.5692 49.6779 55.9092 50.5779 55.4992C50.8179 55.3892 50.9879 54.9692 51.0679 54.6592C51.3879 53.3692 52.0579 52.8192 53.3879 52.6492C53.7879 52.5992 54.2879 52.3292 54.5079 52.0092C55.6579 50.3192 57.2279 49.5192 59.2179 49.9092C61.1879 50.2892 62.4379 51.5292 62.8479 53.5692C62.9179 53.8992 63.3379 54.2492 63.6779 54.4292C64.7079 54.9692 65.3279 55.7292 65.1179 56.9092C64.9079 58.0892 63.8979 58.8592 62.5979 58.8892C60.7579 58.9192 58.9179 58.8992 57.0879 58.8992Z" fill="#63CCF0"/>
<path d="M29.2684 11.509C28.3384 10.719 27.3784 10.029 27.3084 8.56902C27.2284 6.99902 27.9984 5.98901 29.0984 5.15901C31.7684 3.14901 36.6184 3.40901 39.0984 5.65901C40.7584 7.15901 40.6784 9.64901 38.9184 11.059C38.4884 11.399 37.9184 11.599 37.5284 11.969C37.2184 12.259 37.1284 12.759 36.8584 13.119C36.7284 13.289 36.4284 13.329 36.2084 13.429C35.8384 13.189 35.4584 12.729 35.0884 12.739C33.0384 12.799 31.1284 12.289 29.2684 11.509Z" fill="#D6D6D6"/>
<path d="M41.0079 43.359C41.4279 43.279 41.8579 43.139 42.2779 43.139C44.788 43.119 47.288 43.119 49.798 43.139C50.218 43.139 50.6479 43.279 51.0679 43.359C51.2279 45.179 51.3779 46.999 51.5679 48.819C51.6479 49.599 51.3879 49.869 50.5879 49.859C47.5579 49.819 44.5379 49.829 41.5079 49.859C40.7179 49.869 40.4279 49.609 40.5079 48.819C40.6979 46.999 40.8379 45.179 41.0079 43.359Z" fill="#58A0C5"/>
<path d="M66.8683 48.6493C65.9383 47.8293 64.9583 48.5893 63.9983 48.5893C63.1283 48.5893 62.7782 48.2693 62.8182 47.4393C62.8382 47.0793 62.8482 46.7193 62.8182 46.3593C62.7482 45.5093 63.1583 45.2593 63.9583 45.2593C69.9783 45.2793 75.9982 45.2793 82.0182 45.2593C82.9182 45.2593 83.2583 45.5993 83.1783 46.4593C83.1383 46.8993 83.2682 47.3693 83.1382 47.7593C83.0282 48.0893 82.6882 48.5293 82.3882 48.5793C81.3482 48.7593 80.2883 48.8593 79.2383 48.8493C78.7183 48.8493 78.1983 48.5493 77.6883 48.3793C77.6483 48.2293 77.6182 48.0893 77.5782 47.9393C77.4982 48.0093 77.4183 48.0793 77.3383 48.1393C76.0283 48.4093 74.7183 48.7093 73.3983 48.9293C72.9983 48.9993 72.5683 48.8693 72.1483 48.8393C72.2983 48.6093 72.4583 48.3693 72.6083 48.1393C72.6283 48.2093 72.6583 48.2793 72.6883 48.3493C72.9283 48.2793 73.1683 48.2093 73.4083 48.1393C73.3783 47.8693 73.3582 47.5993 73.3282 47.3293C72.2182 47.4393 71.0983 47.5393 69.9883 47.6493C69.7283 47.7293 69.4683 47.8193 69.2083 47.8993C69.0883 47.9793 68.9683 48.0693 68.8483 48.1493C68.6983 46.7193 67.6182 47.8293 66.9482 47.2693C66.9082 47.8993 66.8883 48.2793 66.8683 48.6493Z" fill="#D6D6D6"/>
<path d="M90.8478 30.4289C88.8478 32.3489 86.4279 32.3789 84.3579 30.4889C82.9379 29.1889 82.7179 26.3189 83.9279 24.7689C85.5479 22.6789 87.9178 22.2689 90.1478 23.6889C91.2578 24.8789 92.1778 26.1789 91.7878 27.9189C91.5978 28.7889 91.1778 29.5989 90.8478 30.4289ZM87.3478 27.8389C88.1978 27.5189 88.9278 27.2489 89.6478 26.9789C89.6178 26.8489 89.5879 26.7189 89.5579 26.5989C89.0779 26.5989 88.5979 26.5989 88.1779 26.5989C87.9979 26.0289 87.8478 25.5789 87.7078 25.1289C87.5878 25.1589 87.4678 25.1789 87.3478 25.2089C87.3478 25.9889 87.3478 26.7789 87.3478 27.8389Z" fill="#63CBF0"/>
<path d="M56.3783 12.2491C55.9583 11.8391 55.6284 11.3791 55.1784 11.0991C54.0884 10.4291 53.2583 9.57912 53.3383 8.24912C53.4183 6.87912 54.3584 5.99914 55.5484 5.51914C57.8084 4.59914 60.0783 4.59912 62.1383 6.03912C63.9583 7.29912 64.0083 9.50912 62.1483 10.6891C61.1283 11.3391 59.8184 11.5691 58.6084 11.8991C57.8684 12.0991 57.0883 12.1391 56.3783 12.2491Z" fill="#EB4F3E"/>
<path d="M76.4685 22.0391C76.2185 22.1491 75.9085 22.4091 75.7385 22.3391C75.5485 22.2691 75.3985 21.8791 75.3885 21.6291C75.3385 20.8491 73.8585 19.3191 73.1185 19.2791C72.8185 19.2591 72.5285 19.0891 72.2285 18.9791C72.3685 18.7191 72.4585 18.4291 72.6485 18.2191C73.1685 17.6591 73.3185 15.8091 72.8785 15.2391C72.6585 14.9491 72.5285 14.5791 72.3585 14.2491C72.7685 14.1391 73.1785 14.0391 73.5885 13.9291C73.6485 14.0091 73.7085 14.0891 73.7685 14.1591C74.5085 13.0491 75.2485 11.9391 75.9885 10.8291C77.2285 11.9491 78.3485 12.0491 79.7885 11.2091C80.3585 10.8791 80.7685 10.8591 80.7785 11.7091C80.7985 12.5391 82.2085 13.9591 83.0285 14.0791C83.3485 14.1291 83.6385 14.3291 83.9385 14.4691C83.7985 14.5191 83.6585 14.5691 83.5285 14.6091C83.4085 15.2491 83.2285 15.8891 83.1785 16.5291C83.1185 17.2191 82.7085 18.0491 83.7085 18.4891C83.8085 18.5391 83.8985 18.9191 83.8285 18.9891C83.6485 19.1591 83.3985 19.3291 83.1585 19.3391C82.1885 19.3991 80.6985 20.8191 80.6485 21.7391C80.6385 21.9591 80.4485 22.3391 80.3485 22.3391C80.0985 22.3291 79.8485 22.1491 79.5985 22.0391C78.9485 21.3491 77.1285 21.3491 76.4685 22.0391ZM81.9885 16.7191C81.9985 14.5491 80.2485 12.7491 78.0985 12.7091C76.0185 12.6691 74.0785 14.6391 74.0785 16.7791C74.0885 19.1591 75.8485 20.6391 78.8885 20.5291C80.2785 20.4791 82.0285 18.8191 81.9885 16.7191Z" fill="#D6D6D6"/>
<path d="M10.0882 51.989C9.43821 51.229 8.74822 50.489 9.34822 49.239C11.1382 49.239 12.9782 49.239 14.8682 49.239C14.9582 49.019 15.0082 48.789 15.1382 48.609C15.2582 48.439 15.4482 48.209 15.6082 48.209C15.7582 48.209 16.0682 48.469 16.0582 48.599C15.9982 49.399 16.6382 49.459 17.0882 49.459C18.0582 49.459 19.0282 49.309 19.9982 49.209C20.9282 49.119 21.8482 48.999 22.5482 49.839C22.5882 51.369 22.0282 52.009 20.5682 52.009C17.0782 52.019 13.5782 51.999 10.0882 51.989Z" fill="#B8C4C4"/>
<path d="M11.3179 20.569C10.9679 20.239 10.5979 19.929 10.2679 19.579C10.0879 19.389 9.83787 19.099 9.87787 18.909C10.3179 16.809 9.47792 14.879 9.11792 12.889C8.71792 10.689 10.8279 9.399 12.2479 9.359C14.6679 9.299 16.2579 11.719 15.4379 14.019C15.0479 15.119 14.8879 16.299 14.6179 17.449C14.0079 17.309 13.4079 17.159 12.7979 17.019C12.9379 16.349 13.0779 15.689 13.2179 15.019C13.2079 14.859 13.1879 14.699 13.1779 14.539C13.9679 14.039 14.0279 13.319 13.8279 12.369C12.9779 12.369 12.1579 12.359 11.3479 12.369C10.7379 12.379 10.5479 12.649 10.9479 13.179C11.2479 14.449 11.5379 15.729 11.8379 16.999C11.4979 17.079 11.1179 17.089 10.8379 17.249C10.5579 17.409 10.3679 17.739 10.1379 17.989C10.1479 18.189 10.1579 18.389 10.1779 18.599C10.2979 18.849 10.4079 19.099 10.5479 19.339C10.7979 19.769 11.0679 20.169 11.3179 20.569Z" fill="#D6D6D6"/>
<path d="M65.4179 16.7789C64.9979 16.7089 64.5879 16.5889 64.1679 16.5889C59.3879 16.5789 54.6079 16.5589 49.8279 16.5989C48.8279 16.6089 48.4579 16.2189 48.5379 15.1489C48.9379 15.1289 49.3179 15.0889 49.7079 15.0889C54.8079 15.0889 59.9079 15.0789 65.0079 15.0989C65.6379 15.0989 66.2579 15.2489 66.8879 15.3389C67.0479 15.5089 67.2079 15.6689 67.3679 15.8389C67.4379 16.9389 67.5179 18.0389 67.5879 19.1289C66.8979 19.1289 66.1979 19.1289 65.5079 19.1389C65.4679 18.3489 65.4479 17.5589 65.4179 16.7789Z" fill="#5CA2C6"/>
<path d="M67.5784 19.1289C67.5084 18.0289 67.4284 16.9289 67.3584 15.8389C67.5184 16.4789 67.7284 17.1089 67.8184 17.7589C67.8884 18.2989 67.7484 18.8889 68.4984 19.0989C68.5484 19.1089 68.4684 20.0189 68.3584 20.0489C67.5184 20.2289 67.7184 20.8089 67.7384 21.3489C67.7684 21.9389 67.7684 22.5389 67.8484 23.1289C67.8884 23.4089 67.9984 23.8089 68.1984 23.9089C69.2884 24.4589 68.9484 24.8289 68.0984 25.2089C67.9484 25.2789 67.8584 25.4889 67.5984 25.8089C68.0884 25.9289 68.4384 26.0889 68.7884 26.0889C69.9784 26.0989 71.1784 25.9789 72.3684 26.0489C72.9184 26.0789 73.4584 26.4089 73.9884 26.6289C75.3684 27.1889 76.7484 27.7589 78.1184 28.3289C77.8984 28.5889 77.6684 28.8489 77.4484 29.1089C77.7684 29.3289 78.0784 29.5589 78.3984 29.7789C77.0584 30.3089 75.6384 30.6989 74.3884 31.3889C72.6284 32.3589 70.7784 32.1189 68.9384 32.0989C67.9584 32.0889 67.5984 32.3889 67.6184 33.3989C67.6684 35.9489 67.6384 38.4989 67.6084 41.0489C67.6084 41.4189 67.4584 41.7989 67.3784 42.1689C67.3684 41.5289 67.3684 40.8889 67.3584 40.2489C67.3884 37.4089 67.4084 34.5689 67.4384 31.7289C68.8984 31.7689 70.3684 31.7689 71.8284 31.8589C72.9484 31.9289 73.2784 31.4789 72.9684 30.4489C72.9684 29.4989 72.9684 28.5389 72.9684 27.5889C73.2584 26.6489 72.8984 26.2889 71.9384 26.3089C70.4484 26.3489 68.9584 26.3289 67.4584 26.3389C67.4884 24.1889 67.5284 22.0489 67.5584 19.8989C67.8584 19.8089 68.1484 19.7189 68.4484 19.6289C68.4384 19.5489 68.4384 19.4589 68.4284 19.3789C68.1484 19.2889 67.8584 19.2089 67.5784 19.1289Z" fill="#D6D5D5"/>
<path d="M24.4681 30.5093C24.4681 30.9593 24.4781 31.4093 24.4781 31.8493C20.8681 31.8493 17.2581 31.8193 13.6481 31.8793C12.6381 31.8993 12.1581 31.6293 12.2581 30.5693C12.3281 29.8193 12.3081 29.0693 12.3281 28.3193C12.4681 28.3393 12.6081 28.3593 12.7481 28.3793C12.7381 28.8193 12.7381 29.2593 12.7281 29.6993C12.1081 30.7893 13.0581 30.4793 13.4781 30.4793C17.1381 30.4993 20.8081 30.4993 24.4681 30.5093Z" fill="#E85242"/>
<path d="M1.23808 41.4289C0.918084 41.5389 0.598063 41.6589 0.278062 41.7689C0.278062 41.4489 0.288062 41.1389 0.278062 40.8189C0.278062 40.4989 0.318084 40.1589 0.238084 39.8589C-0.0719155 38.7089 -0.211923 37.6089 0.668077 36.6089C1.62808 35.4989 2.72809 34.8989 4.24809 35.3689C4.69809 35.5089 5.21805 35.4489 5.70806 35.4689C5.99805 35.4789 6.28805 35.4689 6.57805 35.4589C6.54805 35.7489 6.52806 36.0289 6.46806 36.3089C6.42806 36.4989 6.32804 36.6789 6.25804 36.8589C6.17804 36.7189 6.08804 36.5889 6.00804 36.4489C6.08804 36.2189 6.15806 35.9889 6.33806 35.4789C5.86806 35.7789 5.62805 35.8789 5.44805 36.0489C3.92805 37.5489 2.42809 39.0489 0.928087 40.5689C0.738087 40.7589 0.628075 41.0089 0.478075 41.2389C0.668075 41.2689 0.858082 41.2889 1.04808 41.3189C1.10808 41.3589 1.17808 41.3989 1.23808 41.4289Z" fill="#D6D6D5"/>
<path d="M6.00806 36.459C6.08806 36.599 6.17806 36.729 6.25806 36.869C7.00806 38.339 6.8981 39.719 5.7381 40.929C4.5681 42.159 3.16811 42.199 1.68811 41.539C1.54811 41.479 1.38809 41.469 1.22809 41.429C1.16809 41.389 1.10809 41.359 1.03809 41.329C2.69809 39.709 4.34806 38.089 6.00806 36.459Z" fill="#59A0C4"/>
<path d="M38.2483 57.959C39.2183 58.089 40.2583 58.4889 41.1683 58.2889C42.0483 58.0889 42.7983 57.2689 43.5883 56.7289C42.1383 54.6589 40.4182 54.0789 38.1982 55.4289C38.6782 53.3489 41.3583 53.5889 43.8083 55.6889C43.8383 55.5789 43.8783 55.4689 43.9083 55.3489C44.6283 55.5389 45.3783 55.649 46.0383 55.959C46.2083 56.039 46.2883 56.819 46.1183 57.079C45.5183 57.999 44.6583 57.8589 43.8483 57.3789C41.3683 59.5389 38.7383 59.779 38.2483 57.959Z" fill="#5A514D"/>
<path d="M36.208 0.999337C34.438 1.04934 32.618 0.859349 30.908 1.19935C26.898 1.98935 24.208 4.52935 22.598 8.22935C22.208 9.11935 21.978 10.0793 21.668 10.9993C21.558 11.0093 21.448 11.0193 21.348 11.0293C21.358 10.4293 21.208 9.77934 21.388 9.24934C23.378 3.38934 28.1479 0.139354 33.4479 0.0793536C34.3679 0.0693536 35.298 0.359346 36.228 0.509346C36.208 0.669346 36.208 0.839337 36.208 0.999337Z" fill="#59504D"/>
<path d="M24.4585 26.1989C24.4385 26.2689 24.3985 26.3389 24.3685 26.3989C23.9385 26.4589 23.5185 26.5789 23.0885 26.5789C21.0085 26.5989 18.9385 26.5889 16.8585 26.5889C15.5785 26.5889 14.2985 26.5889 13.0185 26.5889C16.3685 26.8289 19.7185 26.8089 23.0585 26.8489C23.4485 26.8489 23.8385 27.1389 24.2385 27.2889C20.2685 27.2989 16.3085 27.2989 12.3385 27.3089C12.2185 26.5089 12.4885 26.1489 13.3685 26.1589C17.0585 26.2089 20.7585 26.1989 24.4585 26.1989Z" fill="#F24F3C"/>
<path d="M2.91809 29.489C2.92809 28.619 2.99811 27.739 2.93811 26.879C2.89811 26.269 2.66809 25.669 2.53809 25.099C2.76809 24.889 3.13806 24.569 3.50806 24.229C4.60806 25.309 6.22808 24.539 7.71808 24.679C8.57808 25.869 8.06806 27.229 8.19806 28.509C8.21806 28.719 8.31806 28.929 8.38806 29.139C8.32806 29.489 8.27808 29.839 8.21808 30.189C7.60808 30.109 7.23811 29.849 7.43811 29.159C7.43811 28.839 7.43811 28.529 7.43811 28.209C7.43811 25.109 7.4081 25.079 4.2981 25.449C4.0481 25.479 3.73807 25.589 3.58807 25.769C3.24807 26.159 3.49805 28.709 3.87805 29.239C3.64805 29.399 3.42806 29.559 3.19806 29.709C3.09806 29.639 3.00809 29.569 2.91809 29.489Z" fill="#59534E"/>
<path d="M26.9177 53.8789C26.2077 52.7789 25.4877 51.6789 24.7877 50.5689C24.7277 50.4689 24.7677 50.1889 24.8477 50.1289C25.7577 49.4889 25.3977 48.5489 25.4277 47.7189C25.4877 45.8289 26.2577 45.0289 28.0977 45.0289C29.0177 45.0289 29.9477 45.1289 30.8477 45.0089C32.2377 44.8189 33.3376 45.3989 34.3176 46.2089C34.7676 46.5789 35.2377 47.1989 35.2877 47.7389C35.4477 49.3889 35.4377 51.0689 35.4277 52.7289C35.4277 53.0389 35.1377 53.3389 34.9777 53.6489C35.0077 51.7489 35.1177 49.8389 35.0277 47.9389C35.0077 47.4489 34.3777 46.9889 34.0377 46.5089C33.8877 46.4889 33.7377 46.4589 33.5877 46.4389C33.4377 46.2789 33.2977 46.1089 33.1477 45.9489C32.8577 45.7589 32.5677 45.4189 32.2677 45.4089C30.6077 45.3489 28.9377 45.2989 27.2777 45.3989C26.4177 45.4589 25.8877 46.0989 25.8977 47.0489C25.9077 48.4789 25.8377 49.9089 25.9277 51.3289C25.9677 51.8489 26.3677 52.3489 26.6077 52.8589C26.6877 53.0389 26.7777 53.2189 26.8577 53.4089C26.8877 53.5689 26.8977 53.7289 26.9177 53.8789Z" fill="#E6DAD8"/>
<path d="M18.1686 21.2891C17.3686 19.3191 17.4686 18.3991 18.5786 17.4891C19.4486 16.7791 20.7786 16.7391 21.6686 17.3791C22.7086 18.1291 23.0486 19.2491 22.6086 20.4191C22.1886 21.5291 21.0286 22.2391 19.8686 22.0691C19.3986 21.9991 18.9386 21.8891 18.4686 21.7991C18.3786 21.6391 18.2686 21.4591 18.1686 21.2891ZM20.1386 21.3591C21.2186 21.3791 22.0386 20.5991 22.0586 19.5491C22.0786 18.5191 21.2386 17.6291 20.2386 17.6091C19.2786 17.5991 18.3086 18.5491 18.3186 19.4991C18.3186 20.6091 19.0386 21.3491 20.1386 21.3591Z" fill="#59514D"/>
<path d="M64.6283 2.43908C62.4383 1.37908 60.1683 0.48907 57.7083 0.83907C56.1083 1.06907 54.5583 1.69907 52.9883 2.14907C52.7483 1.99907 52.5083 1.83908 52.2783 1.68908C56.4583 -0.560924 60.5983 -0.630911 64.6983 1.88909C64.8683 1.98909 65.0383 2.07907 65.2083 2.17907C65.0183 2.25907 64.8183 2.34908 64.6283 2.43908Z" fill="#5D5552"/>
<path d="M36.208 0.999268C36.208 0.839268 36.218 0.679277 36.218 0.509277C37.768 1.09928 39.428 1.48928 40.838 2.32928C42.958 3.58928 44.488 5.47926 45.348 7.83926C45.248 8.12926 45.138 8.41929 45.038 8.70929C43.348 4.69929 40.438 2.08927 36.208 0.999268Z" fill="#5A5450"/>
<path d="M68.0977 53.1892C68.1377 51.7092 69.0577 50.7192 70.3477 50.5792C71.1277 50.4892 72.2976 51.0992 72.7776 51.7692C73.8576 53.2592 72.8077 55.4691 70.9777 55.8391C70.5277 55.9291 69.9877 55.5592 69.4977 55.4092C69.5077 55.2092 69.5277 55.0092 69.5377 54.8192C70.4177 55.2192 71.3876 55.3691 71.8976 54.4291C72.2376 53.7991 72.3877 52.7992 72.1177 52.1892C71.9177 51.7492 70.8677 51.4792 70.2277 51.5392C69.7377 51.5892 69.3077 52.2591 68.8477 52.6491C68.5977 52.8291 68.3477 53.0092 68.0977 53.1892Z" fill="#5D5651"/>
<path d="M64.6279 2.43921C64.8179 2.34921 65.0179 2.2592 65.2079 2.1792C68.0079 3.7292 69.688 6.13922 70.538 9.16922C70.618 9.45922 70.6479 9.76922 70.7079 10.0792C70.5579 10.1592 70.4179 10.2392 70.2679 10.3092C69.9479 9.4792 69.648 8.6292 69.298 7.8092C68.308 5.5292 66.6079 3.85921 64.6279 2.43921Z" fill="#5D5652"/>
<path d="M52.2676 1.68896C52.5076 1.83896 52.7476 1.99896 52.9776 2.14896C50.7976 3.11896 49.2376 4.74897 48.0276 6.75897C47.5976 7.47897 47.1976 8.22898 46.7876 8.95898C46.6976 8.76898 46.6076 8.58896 46.5176 8.39896C46.7876 7.76896 46.9976 7.09897 47.3276 6.50897C48.5176 4.42897 50.1076 2.75896 52.2676 1.68896Z" fill="#5B5350"/>
<path d="M11.3177 20.5692C11.0577 20.1692 10.7977 19.7692 10.5477 19.3492C10.4077 19.1092 10.2977 18.8592 10.1777 18.6092C11.3577 18.6292 12.5277 18.6892 13.7077 18.6392C13.9377 18.6292 14.1477 18.2192 14.3577 17.9992C14.4477 17.9792 14.5277 17.9592 14.6177 17.9492C14.7677 18.6192 14.7777 19.2192 13.9477 19.4592C13.8377 19.4892 13.6677 19.5492 13.6577 19.6292C13.3377 21.0992 12.2177 20.5592 11.3177 20.5692Z" fill="#63AEC5"/>
<path d="M16.8179 6.01901C17.8079 5.82901 17.9879 6.339 18.0079 7.229C18.0279 8.219 17.5179 8.29901 16.7579 8.32901C15.8479 8.36901 15.6279 7.969 15.6279 7.129C15.6279 6.249 15.9179 5.85901 16.8179 6.01901Z" fill="#EA4B3A"/>
<path d="M26.918 53.8789C26.908 53.7289 26.8879 53.5689 26.8779 53.4189C27.0279 53.3389 27.1679 53.2489 27.3179 53.1689C27.3979 53.1889 27.4879 53.2089 27.5679 53.2289C27.9379 53.4789 28.298 53.9289 28.668 53.9389C30.378 53.9789 32.088 53.8989 33.798 53.8689C33.978 53.9689 34.168 54.0789 34.348 54.1789C34.298 54.2389 34.2679 54.3289 34.1979 54.3589C32.9879 55.0889 27.998 54.7589 26.918 53.8789Z" fill="#675D59"/>
<path d="M75.2778 5.51921C75.6978 6.17921 75.7178 6.92921 74.9978 7.23921C74.4578 7.46921 73.3378 7.45919 73.1678 7.15919C72.8378 6.59919 72.9577 5.73921 73.0177 5.01921C73.0277 4.88921 73.6578 4.65919 73.9578 4.71919C74.9178 4.91919 75.1277 4.4092 75.0177 3.6692C74.7877 2.0992 75.8778 2.4692 76.7478 2.3892C77.7378 2.2892 77.9578 2.71918 77.9378 3.61918C77.9178 4.62918 77.7577 5.34921 76.5177 5.29921C76.0977 5.26921 75.6878 5.43921 75.2778 5.51921C74.8678 5.35921 74.4578 5.13918 74.0378 5.05919C73.5278 4.95919 73.0577 5.06921 73.1277 5.76921C73.1777 6.31921 72.8878 7.12919 73.7878 7.12919C74.2678 7.12919 74.7978 6.75919 75.2078 6.43919C75.3678 6.29919 75.2578 5.82921 75.2778 5.51921ZM77.1977 4.80919C77.2877 4.40918 77.3877 3.99919 77.4477 3.59919C77.5677 2.77919 77.1278 2.5992 76.3978 2.6092C75.6778 2.6192 75.1978 2.6692 75.2178 3.6092C75.2478 5.1292 75.5377 5.34918 77.1977 4.80919Z" fill="#E2EAEC"/>
<path d="M78.6077 52.0289C78.7977 52.9889 78.3877 53.2289 77.5077 53.2489C76.5677 53.2589 76.3877 52.8889 76.3877 52.0389C76.3877 51.1689 76.6377 50.8389 77.5377 50.8389C78.4577 50.8489 78.8077 51.1889 78.6077 52.0289Z" fill="#EC5747"/>
<path d="M46.5281 8.38934C46.6181 8.57934 46.7081 8.75934 46.7981 8.94934C46.7781 9.31934 46.7681 9.67935 46.7481 10.0493C46.8381 10.7293 47.0181 11.4193 46.9681 12.0893C46.9381 12.4893 46.5481 12.8593 46.3181 13.2493C46.0781 13.0693 45.8281 12.8793 45.5881 12.6993C45.6081 12.6193 45.6181 12.5394 45.6381 12.4594C45.7181 12.4594 45.7881 12.4393 45.8581 12.4193C46.4181 12.3293 46.6081 12.0593 46.2581 11.5493C46.0681 11.4693 45.8781 11.3893 45.6881 11.2993C45.5681 10.8793 45.4481 10.4593 45.3281 10.0393C45.2281 9.58934 45.1381 9.13933 45.0381 8.68933C45.1381 8.39933 45.2481 8.10934 45.3481 7.81934C45.6881 8.12934 45.4881 9.58934 46.5281 8.38934Z" fill="#58524D"/>
<path d="M34.3478 54.1693C34.1678 54.0693 33.9779 53.9593 33.7979 53.8593C34.0379 53.2593 34.4379 52.6793 34.4979 52.0693C34.6079 50.9293 34.6079 49.7593 34.4979 48.6193C34.4479 48.0493 34.0578 47.5093 33.8178 46.9593C33.8078 46.8793 33.8079 46.7993 33.7979 46.7193C33.8779 46.6493 33.9578 46.5793 34.0378 46.5093C34.3878 46.9793 35.0078 47.4493 35.0278 47.9393C35.1178 49.8393 35.0078 51.7393 34.9778 53.6493C34.7678 53.8193 34.5578 53.9993 34.3478 54.1693Z" fill="#504642"/>
<path d="M80.2486 6.52895C79.6986 6.44895 79.2286 6.39896 78.7686 6.31896C78.7086 6.30896 78.6686 6.20895 78.5586 6.05895C79.1086 5.21895 79.9585 5.55894 80.6385 5.67894C80.8985 5.71894 81.0686 6.35896 81.2686 6.72896C81.2886 6.75896 81.2786 6.80896 81.2686 6.84896C81.1386 7.33896 80.9986 7.82895 80.8686 8.30895C80.6986 7.84895 80.5186 7.38894 80.3486 6.92894C80.3186 6.81894 80.2986 6.70895 80.2486 6.52895Z" fill="#78706E"/>
<path d="M21.3382 11.0289C21.4482 11.0189 21.5582 11.0089 21.6582 10.9989C22.4782 10.8289 22.5683 11.3089 22.5483 11.9489C22.5283 12.5689 22.5483 13.1289 21.6883 13.2089C20.2083 13.3489 19.9583 13.0289 20.2383 10.9789C20.5283 11.1589 20.7683 11.3089 20.9983 11.4489C21.0683 11.7589 21.1382 12.0789 21.2182 12.3889C21.3782 12.2989 21.5383 12.2089 21.6883 12.1189C21.4583 11.8989 21.2382 11.6789 21.0082 11.4689C21.1182 11.3289 21.2282 11.1789 21.3382 11.0289Z" fill="#706966"/>
<path d="M69.9885 47.6891C71.0985 47.5791 72.2184 47.4791 73.3284 47.3691C73.3484 47.6391 73.3784 47.9091 73.3984 48.1791C73.2684 47.7591 73.1185 47.3992 72.6685 47.9492C72.6485 48.0292 72.6285 48.0992 72.6085 48.1692C72.4585 48.3992 72.2984 48.6391 72.1484 48.8691C71.4284 48.7891 70.7085 48.7092 69.9985 48.6392C69.9785 48.5492 69.9585 48.4492 69.9385 48.3592C69.9385 48.2292 69.9484 48.0992 69.9484 47.9592C69.9584 47.8692 69.9785 47.7791 69.9885 47.6891Z" fill="#C2BFBC"/>
<path d="M70.2683 10.3091C70.4183 10.2291 70.5583 10.1491 70.7083 10.0791C70.9483 10.4191 71.1984 10.7491 71.4384 11.0891C71.4984 11.6491 71.5683 12.2191 71.6283 12.7791C71.5083 12.7991 71.3883 12.8191 71.2783 12.8391C71.0883 12.5291 70.9083 12.2191 70.6983 11.8791C70.4883 12.1891 70.3083 12.4591 70.1283 12.7291C70.0083 12.6991 69.8883 12.6791 69.7783 12.6491C69.7783 12.1191 69.7783 11.5991 69.7783 11.0691C69.9383 10.8191 70.1083 10.5591 70.2683 10.3091Z" fill="#463E3A"/>
<path d="M14.6177 17.9493C14.5277 17.9693 14.4477 17.9893 14.3577 17.9993C12.9477 17.9993 11.5477 17.9993 10.1377 17.9993C10.3677 17.7493 10.5577 17.4193 10.8377 17.2593C11.1277 17.0893 11.4977 17.0793 11.8377 17.0093C12.1577 17.0193 12.4777 17.0193 12.7977 17.0293C13.4077 17.1693 14.0077 17.3193 14.6177 17.4593C14.6277 17.6293 14.6277 17.7893 14.6177 17.9493Z" fill="#6DC7E4"/>
<path d="M12.7484 28.3691C12.6084 28.3491 12.4683 28.3291 12.3283 28.3091C12.3083 28.0591 12.2983 27.8191 12.2783 27.5691C16.3483 27.5691 20.4183 27.5591 24.4783 27.5591C24.4783 27.7191 24.4783 27.8791 24.4783 28.0491L24.4283 28.0191C24.2983 27.9491 24.1583 27.8191 24.0283 27.8191C20.4983 27.8091 16.9583 27.7991 13.4283 27.8191C13.1883 27.8191 12.9583 28.0991 12.7283 28.2491L12.7484 28.3691Z" fill="#75342A"/>
<path d="M7.41846 29.1592C7.21846 29.8492 7.58843 30.1092 8.19843 30.1892C7.97843 30.2992 7.73847 30.5392 7.55847 30.4992C7.29847 30.4392 7.08846 30.1792 6.85846 29.9992C5.63846 29.8992 4.40848 29.7992 3.18848 29.6992C3.41848 29.5392 3.63847 29.3792 3.86847 29.2292C5.04847 29.2092 6.23846 29.1892 7.41846 29.1592Z" fill="#5D5551"/>
<path d="M24.4783 27.5591C20.4083 27.5591 16.3383 27.5691 12.2783 27.5691C12.2983 27.4891 12.3083 27.4091 12.3283 27.3291C16.2983 27.3191 20.2583 27.3191 24.2283 27.3091C24.3083 27.3191 24.3883 27.3291 24.4683 27.3391C24.5083 27.3991 24.5083 27.4791 24.4783 27.5591Z" fill="#BD4837"/>
<path d="M7.58796 54.2491C6.99796 54.3891 6.41794 54.5692 5.81794 54.6392C5.64794 54.6592 5.27795 54.3691 5.26795 54.1891C5.20795 53.4991 5.23798 52.7992 5.23798 52.0992C5.45798 51.9492 5.66795 51.7992 5.88795 51.6392C5.93795 51.9192 6.05796 52.2091 6.02796 52.4691C5.85796 53.6991 6.47796 54.1091 7.58796 54.2491Z" fill="#6F6765"/>
<path d="M8.36829 29.1391C8.30829 28.9291 8.20828 28.7291 8.17828 28.5091C8.04828 27.2291 8.55824 25.869 7.69824 24.679C7.79824 23.989 8.22825 23.7791 8.76825 24.1091C8.88825 24.1791 8.68823 24.8191 8.62823 25.1991C8.54823 25.6891 8.42825 26.1691 8.39825 26.6591C8.35825 27.4891 8.37829 28.3091 8.36829 29.1391Z" fill="#7ACDE6"/>
<path d="M18.7383 58.539C19.3983 57.219 20.0582 55.909 20.7582 54.519C21.2482 55.299 20.2383 57.709 19.1483 58.709C19.0183 58.649 18.8783 58.599 18.7383 58.539Z" fill="#67605E"/>
<path d="M22.9979 57.2392C23.1679 57.0292 23.3379 56.8192 23.5579 56.5592C23.1679 56.3192 22.7579 56.0592 22.3379 55.7892C23.4979 55.2192 24.1679 56.2692 25.1179 56.3692C25.1179 56.4692 25.1279 56.5692 25.1279 56.6792C24.5079 56.9492 23.8879 57.2192 23.2779 57.4892C23.1779 57.4092 23.0879 57.3192 22.9979 57.2392Z" fill="#625957"/>
<path d="M18.168 21.2891C18.268 21.4591 18.378 21.6391 18.478 21.8091C17.508 22.4791 16.908 23.6591 15.728 24.0391C15.628 23.9191 15.518 23.7991 15.418 23.6691C16.338 22.8791 17.258 22.0791 18.168 21.2891Z" fill="#5C5551"/>
<path d="M76.4678 22.0391C77.1278 21.3391 78.9378 21.3491 79.5778 22.0491C79.2078 21.9491 78.8478 21.8491 78.6778 21.8091C78.4878 22.3491 78.3478 22.7691 78.1978 23.1891C77.9378 22.8891 77.5478 22.6391 77.4478 22.2991C77.2378 21.5391 76.8478 21.9091 76.4678 22.0391Z" fill="#E8E8E8"/>
<path d="M90.8484 30.429C91.1684 29.599 91.5985 28.779 91.7885 27.919C92.1785 26.179 91.2584 24.889 90.1484 23.689C92.5784 24.969 92.9684 28.639 90.8484 30.429Z" fill="#9EE0F4"/>
<path d="M66.8682 48.6493C66.8882 48.2693 66.9081 47.8993 66.9481 47.2993C67.6181 47.8593 68.6981 46.7593 68.8481 48.1793C68.1881 48.3393 67.5282 48.4993 66.8682 48.6493Z" fill="#B0AEAC"/>
<path d="M69.7784 11.0693C69.7784 11.5993 69.7784 12.1193 69.7784 12.6493C69.8984 12.6793 70.0184 12.6993 70.1284 12.7293C70.3084 12.4593 70.4884 12.1893 70.6984 11.8793C70.9084 12.2193 71.0884 12.5293 71.2784 12.8393C71.3984 12.8193 71.5184 12.7993 71.6284 12.7793C71.5684 12.2193 71.4985 11.6493 71.4385 11.0893C72.3385 11.4793 72.0084 12.3393 71.7584 12.7493C71.5484 13.0893 70.7284 13.1893 70.1984 13.1293C69.9384 13.0993 69.6285 12.5093 69.5485 12.1293C69.4685 11.8093 69.6884 11.4293 69.7784 11.0693Z" fill="#6A625E"/>
<path d="M29.2676 11.5093C31.1276 12.2993 33.0476 12.7993 35.0976 12.7393C35.4676 12.7293 35.8476 13.1893 36.2176 13.4293C34.4676 13.1093 32.6976 12.8493 30.9676 12.4493C30.3576 12.2993 29.8276 11.8293 29.2676 11.5093Z" fill="#E8E8E8"/>
<path d="M3.18811 29.7093C4.41811 29.8093 5.63809 29.9092 6.85809 30.0092C6.04809 30.0492 5.22809 30.0792 4.41809 30.1492C4.07809 30.1792 3.75809 30.3093 3.41809 30.3593C3.04809 30.4193 2.66809 30.4592 2.28809 30.4992C2.49809 30.1592 2.69808 29.8193 2.90808 29.4893C3.00808 29.5693 3.09811 29.6393 3.18811 29.7093Z" fill="#6FC8E6"/>
<path d="M69.5376 54.8089C69.5276 55.0089 69.5077 55.2089 69.4977 55.3989C68.4777 55.0089 68.0476 54.2489 68.0976 53.1889C68.3476 53.0089 68.5976 52.8289 68.8376 52.6489C69.0776 53.3689 69.3076 54.0889 69.5376 54.8089Z" fill="#615A57"/>
<path d="M78.3884 29.7591C78.0684 29.5391 77.7585 29.3091 77.4385 29.0891C77.6585 28.8291 77.8885 28.5691 78.1085 28.3091C78.5185 28.5291 78.9284 28.7491 79.4084 29.0091C78.9884 29.3191 78.6884 29.5391 78.3884 29.7591Z" fill="#EC5849"/>
<path d="M68.5586 21.5293C69.2586 21.5293 69.9486 21.5293 70.6486 21.5293C70.6486 21.6493 70.6486 21.7693 70.6586 21.8893C69.9686 21.8893 69.2686 21.8893 68.5786 21.8893C68.5686 21.7693 68.5686 21.6493 68.5586 21.5293Z" fill="#4D4440"/>
<path d="M21.008 11.479C21.238 11.699 21.458 11.919 21.688 12.129C21.528 12.219 21.368 12.309 21.218 12.399C21.148 12.089 21.078 11.769 20.998 11.459C20.998 11.459 21.008 11.479 21.008 11.479Z" fill="#CCC9C6"/>
<path d="M69.938 48.3492C69.958 48.4392 69.978 48.5392 69.998 48.6292C69.218 48.9792 69.268 48.3892 69.208 47.9292C69.468 47.8492 69.728 47.7592 69.988 47.6792C69.978 47.7692 69.958 47.8592 69.948 47.9492C69.828 48.0292 69.708 48.1092 69.588 48.1992C69.698 48.2492 69.818 48.2992 69.938 48.3492Z" fill="#827E7C"/>
<path d="M16.2881 56.6591C16.4081 56.5591 16.5281 56.4691 16.6581 56.3691C16.6981 56.4091 16.7381 56.4492 16.7781 56.4892C16.6781 56.5992 16.5781 56.7192 16.4781 56.8292C16.4081 56.7792 16.3481 56.7191 16.2881 56.6591Z" fill="#706965"/>
<path d="M77.3379 48.1693C77.4179 48.0993 77.4979 48.0292 77.5779 47.9692C77.6179 48.1192 77.6479 48.2592 77.6879 48.4092C77.5779 48.3292 77.4579 48.2493 77.3379 48.1693Z" fill="#2F2425"/>
<path d="M22.9982 57.2393C23.0882 57.3193 23.1781 57.4093 23.2681 57.4893C23.1381 57.4793 22.9982 57.4693 22.8682 57.4593C22.9082 57.3793 22.9482 57.3093 22.9982 57.2393Z" fill="#3F3533"/>
<path d="M26.3984 17.0393C26.4884 16.9493 26.5785 16.8693 26.6685 16.7793C32.1185 16.7793 37.5684 16.7793 43.3484 16.7793C42.8685 18.0493 42.5784 19.1393 42.0684 20.1293C40.9584 22.2793 39.6684 24.3293 38.5784 26.4893C37.8584 27.9093 37.3385 29.4393 36.7285 30.9193C36.8285 30.9793 36.9284 31.0293 37.0184 31.0893C36.8284 31.1193 36.5884 31.0793 36.4584 31.1793C36.1884 31.3993 35.9785 31.6893 35.7485 31.9493C36.0285 32.0993 36.3085 32.2793 36.6085 32.3793C36.7785 32.4393 36.9984 32.3593 37.1984 32.3393C37.3384 32.6593 37.4685 32.9793 37.6885 33.4893C36.7185 33.4893 35.8684 33.4893 35.0284 33.4893C34.7184 33.4893 34.3785 33.4093 34.1185 33.5193C33.8385 33.6393 33.6284 33.9393 33.3884 34.1593C33.6784 34.3593 33.9684 34.7093 34.2784 34.7193C35.4684 34.7793 36.6584 34.6993 37.8484 34.7393C38.2684 34.7493 38.6884 34.9193 39.0784 35.0793C39.3284 35.1793 39.5084 35.4693 39.7584 35.5393C41.2084 35.9693 41.7285 36.8793 41.2885 38.3293C40.8185 38.3993 40.3584 38.5193 39.8884 38.5293C36.2584 38.5493 32.6284 38.5593 29.0084 38.5293C26.2684 38.5093 26.5185 38.7493 26.4885 35.9993C26.4285 30.8593 26.4684 25.7193 26.4684 20.5793C26.4284 19.4093 26.4084 18.2193 26.3984 17.0393ZM28.1284 31.7693C28.1284 31.8793 28.1284 31.9893 28.1284 32.0993C28.8384 32.0993 29.5385 32.0993 30.2485 32.0993C30.2485 31.9793 30.2485 31.8593 30.2485 31.7493C29.5385 31.3293 28.8284 31.3893 28.1284 31.7693ZM32.4985 34.2793C32.4985 34.1693 32.4985 34.0593 32.4985 33.9393C31.7785 33.9393 31.0584 33.9393 30.3384 33.9393C30.3384 34.0493 30.3384 34.1593 30.3384 34.2793C31.0684 34.2793 31.7785 34.2793 32.4985 34.2793ZM32.4985 36.4993C32.4985 36.3893 32.4985 36.2693 32.4985 36.1593C31.7785 36.1593 31.0684 36.1593 30.3484 36.1593C30.3484 36.2693 30.3484 36.3893 30.3484 36.4993C31.0684 36.4993 31.7885 36.4993 32.4985 36.4993ZM38.0984 36.5093C38.0884 36.3993 38.0784 36.2793 38.0684 36.1693C37.3784 36.1693 36.6885 36.1693 35.9985 36.1693C35.9985 36.2793 35.9985 36.3993 35.9985 36.5093C36.6985 36.5093 37.3984 36.5093 38.0984 36.5093Z" fill="#FEFEFE"/>
<path d="M51.7885 35.9489C52.6185 35.1689 53.6585 34.5189 54.2285 33.5789C55.5985 31.3289 54.9884 29.0489 53.8184 26.8989C52.5184 24.4889 51.1584 22.1189 49.8384 19.7289C49.7084 19.4989 49.6885 19.2089 49.6185 18.9489C49.5485 18.3489 49.4784 17.7489 49.3984 17.1089C54.7384 17.1089 59.8884 17.1089 65.0884 17.1089C64.9384 17.6589 64.8084 18.1289 64.6584 18.6689C64.3884 18.6889 64.0485 18.7189 63.6685 18.7489C63.6385 19.2089 63.6184 19.6189 63.5884 20.1289C62.8684 18.5189 62.8584 18.4689 61.2684 18.7389C60.8884 18.8089 60.5785 19.3389 60.2385 19.6489C60.5985 19.8889 60.9584 20.3389 61.3184 20.3389C62.3084 20.3389 63.2785 20.9489 64.2985 20.3989C64.5485 20.2589 64.9585 20.4289 65.2985 20.4489C63.9385 20.8289 62.5785 20.9189 61.2285 21.1189C60.8585 21.1689 60.5484 21.5489 60.2084 21.7789C60.5484 22.0289 60.9684 22.5589 61.2184 22.4889C62.4584 22.1089 63.6385 23.4189 64.8585 22.5789C64.8785 22.5689 65.0785 22.8089 65.2885 23.0289C64.4485 23.2089 63.7485 23.3589 63.0585 23.5189L63.0684 23.5089C62.6984 23.5089 62.3284 23.5089 61.9584 23.5089C61.9584 23.3789 61.9584 23.2489 61.9584 23.1189C62.3184 23.0589 62.6884 22.9889 63.2584 22.8889C60.8984 22.6089 60.1085 23.1189 60.3685 24.6689C62.0185 24.6689 63.6884 24.6689 65.3184 24.6689C65.3184 29.2789 65.3184 33.6289 65.3184 38.0989C60.7384 38.0989 56.2085 38.1089 51.6685 38.0689C51.4285 38.0689 51.0785 37.6889 50.9985 37.4289C50.9185 37.1589 51.0485 36.7789 51.1885 36.5089C51.3185 36.2789 51.5885 36.1289 51.7885 35.9489ZM59.4285 34.0989C59.2585 34.1089 59.0885 34.1089 58.9285 34.1189C58.6285 34.6089 58.0285 35.1489 58.0984 35.5689C58.1784 35.9989 58.8885 36.5689 59.3585 36.6089C59.6885 36.6389 60.3884 35.8789 60.3884 35.4889C60.3784 35.0089 59.7785 34.5589 59.4285 34.0989ZM62.2784 33.9589C61.6884 34.6689 61.0984 35.0989 61.1584 35.3989C61.2584 35.8789 61.7484 36.5589 62.1484 36.6089C62.5984 36.6689 63.5385 36.4589 63.3085 35.5489C63.1785 35.0889 62.7684 34.7089 62.2784 33.9589ZM57.9584 20.3189C57.6984 19.6689 57.5884 18.8989 57.3284 18.8489C56.5884 18.6989 55.7584 18.7289 55.0184 18.9189C54.7984 18.9789 54.7484 19.7589 54.5984 20.3189C55.7684 20.3189 56.6784 20.3189 57.9584 20.3189ZM58.3685 22.4989C58.3685 22.5089 58.3685 22.5189 58.3685 22.5189C58.5685 22.5189 58.8084 22.5889 58.9584 22.5089C59.3084 22.2989 59.5985 22.0089 59.9185 21.7489C59.6085 21.5289 59.3185 21.1889 58.9785 21.1089C58.4885 20.9989 57.9384 21.0189 57.4484 21.1389C57.1984 21.1989 56.9184 21.5889 56.8884 21.8589C56.8684 22.0489 57.1985 22.3789 57.4385 22.4689C57.7085 22.5889 58.0585 22.4989 58.3685 22.4989ZM58.0984 24.7189C58.6284 24.6789 59.0985 24.7289 59.4885 24.5889C59.6885 24.5189 59.9484 23.9789 59.8784 23.8689C59.6884 23.5989 59.2984 23.2589 59.0284 23.2889C58.2984 23.3689 57.5785 23.6189 56.8685 23.8489C56.8485 23.8589 56.8985 24.4989 57.0385 24.5489C57.3885 24.6889 57.7984 24.6789 58.0984 24.7189ZM58.5884 19.4289C58.5884 19.5189 58.5784 19.6089 58.5784 19.6989C58.7584 19.6689 58.9385 19.6489 59.1185 19.6089C59.1285 19.6089 59.1084 19.4389 59.0984 19.4389C58.9384 19.4289 58.7684 19.4289 58.5884 19.4289Z" fill="#FEFEFE"/>
<path d="M51.7877 35.9493C51.5877 36.1293 51.3177 36.2793 51.1977 36.5093C51.0577 36.7893 50.9177 37.1593 51.0077 37.4293C51.0877 37.6993 51.4377 38.0693 51.6777 38.0693C56.2177 38.1093 60.7577 38.0993 65.3277 38.0993C65.3277 33.6293 65.3277 29.2793 65.3277 24.6693C63.6977 24.6693 62.0277 24.6693 60.3777 24.6693C60.1177 23.1193 60.9077 22.6193 63.2677 22.8893C62.6977 22.9893 62.3277 23.0593 61.9677 23.1193C61.9677 23.2493 61.9677 23.3793 61.9677 23.5093C62.3377 23.5093 62.7077 23.5093 63.0777 23.5093C62.8777 24.3893 63.5277 24.7693 64.7177 24.4393C64.8977 24.3893 65.0277 24.1593 65.1877 24.0193C65.0377 23.8593 64.8977 23.5893 64.7377 23.5693C64.1877 23.4993 63.6277 23.5293 63.0777 23.5093C63.7777 23.3593 64.4677 23.2093 65.3077 23.0193C65.0977 22.7993 64.8977 22.5493 64.8777 22.5693C63.6577 23.4093 62.4777 22.0993 61.2377 22.4793C60.9977 22.5493 60.5677 22.0293 60.2277 21.7693C60.5677 21.5393 60.8877 21.1593 61.2477 21.1093C62.5977 20.9093 63.9677 20.8193 65.3177 20.4393C64.9777 20.4093 64.5677 20.2493 64.3177 20.3893C63.2977 20.9393 62.3277 20.3193 61.3377 20.3293C60.9777 20.3293 60.6177 19.8793 60.2577 19.6393C60.5977 19.3193 60.8977 18.7893 61.2877 18.7293C62.8777 18.4593 62.8877 18.5093 63.6077 20.1193C63.6377 19.6193 63.6577 19.2093 63.6877 18.7393C64.0577 18.7093 64.4077 18.6793 64.6777 18.6593C64.8277 18.1193 64.9577 17.6493 65.1077 17.0993C59.9177 17.0993 54.7577 17.0993 49.4177 17.0993C49.4977 17.7393 49.5677 18.3393 49.6377 18.9393C49.3577 18.3193 49.0877 17.6993 48.6777 16.7793C54.4877 16.7793 59.9577 16.7793 65.4277 16.7793C65.4577 17.5693 65.4777 18.3493 65.5077 19.1393C65.0077 19.1893 64.5077 19.2493 64.0077 19.2993C64.0077 19.4293 63.9977 19.5593 63.9977 19.6893C64.5577 19.7693 65.1277 19.8593 65.6877 19.9393C65.6877 26.0693 65.6777 32.2093 65.6777 38.3393C65.3677 38.4093 65.0677 38.5393 64.7577 38.5393C60.4277 38.5493 56.0977 38.5593 51.7777 38.5293C51.3877 38.5293 50.9977 38.2493 50.6077 38.0993C50.6177 37.1693 50.3377 36.0793 51.7877 35.9493ZM60.7577 21.5493C60.7477 21.6693 60.7477 21.7793 60.7377 21.8993C62.1777 21.8993 63.6177 21.8993 65.0477 21.8993C65.0477 21.7793 65.0477 21.6693 65.0477 21.5493C63.6277 21.5493 62.1877 21.5493 60.7577 21.5493Z" fill="#F7F8F8"/>
<path d="M50.598 38.0991C50.988 38.2491 51.3779 38.5291 51.7679 38.5291C56.0979 38.5591 60.428 38.5491 64.748 38.5391C65.058 38.5391 65.358 38.409 65.668 38.3391C65.358 38.489 65.058 38.7691 64.748 38.7691C60.318 38.7991 55.898 38.8191 51.468 38.7791C48.448 38.7591 45.4179 38.5791 42.3979 38.5891C37.5379 38.5991 32.6879 38.7191 27.8279 38.7791C26.2979 38.7991 26.178 38.6591 26.168 37.1691C26.168 30.8291 26.168 24.4891 26.178 18.1591C26.178 17.7891 26.3179 17.4091 26.3879 17.0391C26.3979 18.2191 26.418 19.4091 26.418 20.5891C26.418 25.729 26.378 30.8691 26.438 36.0091C26.468 38.7591 26.2179 38.5191 28.9579 38.5391C32.5879 38.5591 36.218 38.5491 39.838 38.5391C40.308 38.5391 40.768 38.409 41.238 38.3391C41.388 38.1291 41.698 37.8891 41.668 37.6991C41.488 36.4391 42.218 36.3891 43.168 36.4091C45.078 36.4491 46.9779 36.4591 48.8879 36.4091C49.8379 36.3891 50.568 36.4491 50.368 37.6991C50.368 37.8191 50.518 37.9591 50.598 38.0991Z" fill="#B8C4C4"/>
<path d="M45.5886 12.709C45.8286 12.889 46.0785 13.079 46.3185 13.259C46.3285 16.959 46.3585 20.659 46.3185 24.359C46.3085 25.339 46.3586 26.219 47.2386 26.839C47.2386 27.089 47.2386 27.339 47.2386 27.729C47.0186 27.429 46.8986 27.259 46.7786 27.099C46.2886 26.599 45.7986 26.319 45.3086 27.099C45.1786 27.269 45.0486 27.439 44.8686 27.669C44.8486 27.289 44.8286 27.019 44.8086 26.749C45.8186 25.939 45.7586 24.829 45.7486 23.689C45.7186 21.099 45.7486 18.499 45.7286 15.909C45.7186 14.829 45.6386 13.769 45.5886 12.709Z" fill="#574D4B"/>
<path d="M33.8379 33.959C35.2379 33.959 36.6379 33.959 38.0379 33.959C38.0379 34.049 38.0379 34.139 38.0379 34.229C36.6379 34.229 35.2379 34.229 33.8379 34.229C33.8379 34.139 33.8379 34.049 33.8379 33.959Z" fill="#413836"/>
<path d="M44.8083 26.729C44.8283 26.999 44.8483 27.279 44.8683 27.649C45.0483 27.419 45.1783 27.249 45.3083 27.079C45.5483 27.419 45.7983 27.749 46.0383 28.089C46.2883 27.749 46.5283 27.419 46.7783 27.079C46.8983 27.249 47.0283 27.419 47.2383 27.709C47.2383 27.319 47.2383 27.069 47.2383 26.819C47.9183 27.539 47.4183 28.149 46.8683 28.469C46.4483 28.709 45.6883 28.739 45.2683 28.519C44.6083 28.179 44.2383 27.509 44.8083 26.729Z" fill="#564F4B"/>
<path d="M37.1777 32.3393C36.7877 32.2293 36.3977 32.1293 35.9277 31.9893C37.0777 31.2293 38.7377 31.2693 39.4377 32.1693C38.6077 32.2293 37.8977 32.2793 37.1777 32.3393C37.1777 32.3293 37.1777 32.3393 37.1777 32.3393Z" fill="#605A57"/>
<path d="M45.5586 12.219C45.2286 11.839 45.1286 11.539 45.8086 11.519L45.7886 11.499C45.7086 11.749 45.6286 11.989 45.5386 12.239L45.5586 12.219Z" fill="#645C59"/>
<path d="M45.6885 11.3193C45.8785 11.3993 46.0684 11.4793 46.2584 11.5693C46.1084 11.5493 45.9485 11.5293 45.7985 11.4993L45.8184 11.5193C45.7684 11.4493 45.7185 11.3893 45.6885 11.3193Z" fill="#645C59"/>
<path d="M45.8586 12.4292C45.7886 12.4492 45.7085 12.4592 45.6385 12.4692C45.6185 12.3892 45.5885 12.2992 45.5685 12.2192L45.5586 12.2393C45.6486 12.2993 45.7586 12.3692 45.8586 12.4292Z" fill="#645C59"/>
<path d="M15.6777 40.6792C16.9677 40.6792 18.2377 41.7892 18.2377 42.9092C18.2477 44.3292 17.0277 45.6192 15.6877 45.6192C14.2877 45.6192 13.0777 44.4692 13.0577 43.1192C13.0477 41.7192 14.1477 40.6892 15.6777 40.6792ZM17.4677 43.1492C17.4877 42.0592 16.7176 41.2692 15.6376 41.2592C14.6676 41.2592 13.9377 41.9792 13.8977 42.9792C13.8477 44.1392 14.4777 44.9492 15.4377 44.9692C16.6277 44.9992 17.4477 44.2592 17.4677 43.1492Z" fill="#5A534E"/>
<path d="M12.7285 29.6792C12.7385 29.2392 12.7385 28.7993 12.7485 28.3593L12.7285 28.2393C12.9685 28.2393 13.2085 28.2492 13.4485 28.2492C17.1185 28.2692 20.7885 28.2793 24.4585 28.2993C24.4585 28.7793 24.4685 29.2593 24.4685 29.7393C20.5585 29.7293 16.6385 29.7092 12.7285 29.6792Z" fill="#E44E3E"/>
<path d="M72.9678 27.5693C72.9678 28.5193 72.9678 29.4793 72.9678 30.4293L72.9078 30.4093C72.5678 30.1893 72.2278 29.7893 71.8778 29.7693C70.4278 29.6993 68.9678 29.7393 67.5178 29.7293C67.5178 29.2493 67.5078 28.7693 67.5078 28.2893C69.0178 28.2893 70.5278 28.2793 72.0378 28.2793C72.5078 28.2793 72.9578 28.2993 72.8578 27.6193L72.9678 27.5693Z" fill="#D74D3C"/>
<path d="M12.7277 29.6792C16.6477 29.6992 20.5577 29.7292 24.4777 29.7492C24.4777 29.9992 24.4677 30.2492 24.4677 30.4992C20.8077 30.4892 17.1477 30.4892 13.4777 30.4592C13.0577 30.4592 12.1077 30.7692 12.7277 29.6792Z" fill="#652F25"/>
<path d="M72.9084 30.3989L72.9684 30.4189C73.2784 31.4489 72.9384 31.8989 71.8284 31.8289C70.3684 31.7389 68.9085 31.7389 67.4385 31.6989C67.4585 31.3589 67.4884 31.0189 67.5084 30.6689C68.1784 30.6689 68.8584 30.6989 69.5284 30.6689C70.6584 30.6089 71.7784 30.4989 72.9084 30.3989Z" fill="#E65344"/>
<path d="M72.968 27.5693L72.858 27.6093C71.068 27.5993 69.288 27.5893 67.498 27.5893C67.488 27.1693 67.478 26.7493 67.458 26.3193C68.948 26.3093 70.448 26.3293 71.938 26.2893C72.898 26.2593 73.258 26.6293 72.968 27.5693Z" fill="#EA5848"/>
<path d="M72.9078 30.399C71.7778 30.489 70.6578 30.599 69.5278 30.669C68.8578 30.709 68.1878 30.679 67.5078 30.669C67.5078 30.349 67.5078 30.039 67.5178 29.719C68.9678 29.719 70.4278 29.679 71.8778 29.759C72.2278 29.779 72.5578 30.179 72.9078 30.399Z" fill="#683329"/>
<path d="M67.498 27.5889C69.288 27.5989 71.068 27.6089 72.858 27.6089C72.968 28.2989 72.508 28.2789 72.038 28.2689C70.528 28.2689 69.018 28.2789 67.508 28.2789C67.498 28.0489 67.498 27.8189 67.498 27.5889Z" fill="#542D26"/>
<path d="M65.6783 19.9389C65.1183 19.8589 64.5483 19.7689 63.9883 19.6889C63.9883 19.5589 63.9983 19.4289 63.9983 19.2989C64.4983 19.2489 64.9983 19.1889 65.4983 19.1389C66.1983 19.1389 66.8883 19.1389 67.5883 19.1289C67.8683 19.2089 68.1483 19.2889 68.4383 19.3689C68.4483 19.4489 68.4483 19.5389 68.4583 19.6189C68.1583 19.7089 67.8682 19.7989 67.5682 19.8889C66.9282 19.8989 66.3083 19.9189 65.6783 19.9389Z" fill="#4E4F50"/>
<path d="M24.4678 27.3292C24.3878 27.3192 24.3078 27.3092 24.2278 27.2992C23.8378 27.1492 23.4479 26.8592 23.0479 26.8592C19.6979 26.8192 16.3578 26.8392 13.0078 26.5992C14.2878 26.5992 15.5678 26.5992 16.8478 26.5992C18.9278 26.5992 20.9978 26.6092 23.0778 26.5892C23.5078 26.5892 23.9278 26.4692 24.3578 26.4092C24.3978 26.7092 24.4278 27.0192 24.4678 27.3292Z" fill="#E34D3A"/>
<path d="M24.4583 28.3093C20.7883 28.2893 17.1182 28.2793 13.4482 28.2593C13.8582 28.1793 14.2783 28.0493 14.6883 28.0393C17.9383 28.0093 21.1883 28.0193 24.4283 28.0093L24.4783 28.0393C24.4783 28.1293 24.4683 28.2193 24.4583 28.3093Z" fill="#75342A"/>
<path d="M85.8277 42.7392C85.8277 40.1392 85.7977 37.5992 85.8677 35.0592C85.8777 34.7892 86.5577 34.2492 86.7477 34.3192C87.3577 34.5392 88.3277 34.9492 88.3577 35.3492C88.5177 37.4892 88.4977 39.6392 88.4077 41.7892C88.3677 42.7192 87.4977 43.0092 85.8277 42.7392Z" fill="#B8C4C5"/>
<path d="M79.8784 36.4189C80.0684 36.4889 80.2584 36.5689 80.4484 36.6389C80.5184 36.8989 80.5584 37.1789 80.6684 37.4189C81.4784 39.2089 80.8884 40.2289 78.8784 40.4789C77.7584 40.2389 77.3484 39.4789 77.3884 38.4089C77.4284 37.3489 78.1284 36.9189 79.0584 36.6989C79.3284 36.6389 79.5984 36.5189 79.8784 36.4189ZM79.2584 37.2289C78.4084 37.7989 77.6484 38.3789 78.4784 39.2589C78.7284 39.5289 79.8484 39.4589 80.0984 39.1489C81.0084 38.0189 79.4484 37.9489 79.2584 37.2289Z" fill="#D6D5D5"/>
<path d="M79.8782 36.4189C79.5982 36.5189 79.3282 36.6389 79.0482 36.7089C78.1182 36.9289 77.4282 37.3589 77.3782 38.4189C77.3382 39.4889 77.7482 40.2389 78.8682 40.4889C78.7882 40.7289 78.7082 40.9589 78.6282 41.1989C77.5782 40.9189 76.7682 40.2189 76.6982 39.2089C76.6382 38.3689 76.8882 37.2289 77.4482 36.6989C77.9182 36.2489 79.0382 36.4889 79.8782 36.4189Z" fill="#5C5250"/>
<path d="M78.6279 41.1891C78.7079 40.9491 78.788 40.7192 78.868 40.4792C80.878 40.2292 81.468 39.2092 80.658 37.4192C80.548 37.1792 80.508 36.8992 80.438 36.6392C81.628 36.9192 81.808 37.8292 81.738 38.8292C81.668 39.8692 81.108 40.6192 80.108 40.9492C79.648 41.1092 79.1279 41.1091 78.6279 41.1891Z" fill="#56504B"/>
<path d="M72.6777 47.9391C73.1177 47.3891 73.2677 47.7491 73.4077 48.1691C73.1677 48.2391 72.9277 48.3091 72.6877 48.3791C72.8077 48.3191 72.9277 48.2591 73.0377 48.2091C72.9277 48.1191 72.7977 48.0291 72.6777 47.9391Z" fill="#7A7673"/>
<path d="M72.6782 47.939C72.7982 48.029 72.9182 48.119 73.0482 48.199C72.9282 48.259 72.8081 48.319 72.6981 48.369C72.6681 48.299 72.6482 48.229 72.6182 48.159C72.6382 48.089 72.6582 48.019 72.6782 47.939Z" fill="#524D48"/>
<path d="M87.3477 27.8389C87.3477 26.7789 87.3477 25.9889 87.3477 25.2089C87.4677 25.1789 87.5876 25.1589 87.7076 25.1289C87.8576 25.5789 87.9977 26.0289 88.1777 26.5989C88.5977 26.5989 89.0777 26.5989 89.5577 26.5989C89.5877 26.7289 89.6176 26.8589 89.6476 26.9789C88.9276 27.2489 88.2077 27.5189 87.3477 27.8389Z" fill="#415A64"/>
<path d="M81.9879 16.7191C82.0379 18.8191 80.2879 20.4891 78.8979 20.5291C75.8579 20.6291 74.0879 19.1491 74.0879 16.7791C74.0879 14.6391 76.0279 12.6691 78.1079 12.7091C80.2479 12.7491 81.9979 14.5491 81.9879 16.7191ZM75.9879 16.1491C75.9879 16.4891 75.9979 16.8291 75.9979 17.1791C75.8979 17.4091 75.6379 17.7191 75.7179 17.8591C76.2079 18.8291 77.0079 19.4291 78.1179 19.3491C79.2779 19.2691 80.3379 18.2591 80.5079 17.0091C80.6379 15.9991 80.3079 15.0291 79.2779 14.5791C78.2679 14.1391 77.1879 14.0491 76.3079 14.8491C76.0279 15.1191 75.0179 15.4691 75.9879 16.1491Z" fill="#FAF9F9"/>
<path d="M12.808 17.0392C12.488 17.0292 12.168 17.0292 11.848 17.0192C11.548 15.7492 11.258 14.4792 10.958 13.1992C11.098 13.2092 11.238 13.2092 11.388 13.2192C11.648 13.9992 11.898 14.7892 12.128 15.4892C12.628 15.2792 12.928 15.1592 13.228 15.0392C13.088 15.6992 12.948 16.3692 12.808 17.0392Z" fill="#534C47"/>
<path d="M11.3783 13.2192C11.2383 13.2092 11.0983 13.2093 10.9483 13.1993C10.5483 12.6693 10.7383 12.4093 11.3383 12.3893C12.1583 12.3693 12.9683 12.3893 13.8183 12.3893C14.0283 13.3393 13.9583 14.0592 13.1683 14.5592C13.1083 13.0692 13.1083 13.0692 11.3783 13.2192Z" fill="#625A56"/>
<path d="M11.3779 13.2188C13.1079 13.0688 13.108 13.0688 13.188 14.5588C13.198 14.7188 13.218 14.8788 13.228 15.0388C12.928 15.1588 12.6279 15.2889 12.1279 15.4889C11.8879 14.7789 11.6379 13.9988 11.3779 13.2188Z" fill="#D0CECE"/>
<path d="M10.1484 18.0093C11.5584 18.0093 12.9585 18.0093 14.3685 18.0093C14.1485 18.2293 13.9384 18.6393 13.7184 18.6493C12.5484 18.6993 11.3685 18.6393 10.1885 18.6193C10.1685 18.4093 10.1584 18.2093 10.1484 18.0093Z" fill="#3C4145"/>
<path d="M6.00848 36.4593C4.35848 38.0793 2.69852 39.7093 1.04852 41.3293C0.858523 41.2993 0.668516 41.2792 0.478516 41.2492C0.628516 41.0292 0.738528 40.7693 0.928528 40.5793C2.42853 39.0693 3.92849 37.5592 5.44849 36.0592C5.62849 35.8892 5.8685 35.7793 6.3385 35.4893C6.1585 35.9993 6.07848 36.2293 6.00848 36.4593Z" fill="#454646"/>
<path d="M7.41861 29.1589C6.22861 29.1889 5.04861 29.2089 3.85861 29.2389C3.47861 28.7089 3.22857 26.1589 3.56857 25.7689C3.72857 25.5889 4.02859 25.4789 4.27859 25.4489C7.38859 25.0789 7.41861 25.1089 7.41861 28.2089C7.41861 28.5289 7.41861 28.8389 7.41861 29.1589Z" fill="#F4F4F2"/>
<path d="M26.6283 52.8689C26.3883 52.3589 25.9783 51.8589 25.9483 51.3389C25.8483 49.9189 25.9284 48.4889 25.9184 47.0589C25.9084 46.1089 26.4384 45.4689 27.2984 45.4089C28.9584 45.2989 30.6184 45.359 32.2884 45.419C32.5884 45.429 32.8784 45.769 33.1684 45.959C31.7284 45.969 30.2884 45.949 28.8584 46.019C28.4284 46.039 28.0184 46.3089 27.5984 46.4689C27.2884 47.1489 26.7884 47.809 26.7184 48.519C26.5484 49.949 26.6283 51.4189 26.6283 52.8689Z" fill="#D14939"/>
<path d="M26.6281 52.869C26.6381 51.419 26.5481 49.949 26.6981 48.509C26.7681 47.799 27.2781 47.139 27.5781 46.459C29.5781 46.449 31.5881 46.449 33.5881 46.439C33.7381 46.459 33.8881 46.489 34.0381 46.509C33.9581 46.579 33.8781 46.649 33.7981 46.719C32.2381 46.649 30.6782 46.539 29.1182 46.529C28.6982 46.529 28.2681 46.819 27.8481 46.979C27.6781 47.489 27.3781 47.989 27.3481 48.499C27.2781 50.049 27.3182 51.609 27.3082 53.169C27.1582 53.249 27.0182 53.339 26.8682 53.419C26.7882 53.239 26.7081 53.059 26.6281 52.869Z" fill="#45291C"/>
<path d="M33.5881 46.4392C31.5881 46.4492 29.5781 46.4492 27.5781 46.4592C27.9981 46.2992 28.4181 46.0292 28.8381 46.0092C30.2681 45.9392 31.7081 45.9592 33.1481 45.9492C33.2981 46.1192 33.4481 46.2792 33.5881 46.4392Z" fill="#8E3F35"/>
<path d="M20.1376 21.359C19.0476 21.339 18.3177 20.6089 18.3077 19.4989C18.2977 18.5589 19.2677 17.599 20.2277 17.609C21.2277 17.619 22.0677 18.519 22.0477 19.549C22.0277 20.599 21.2076 21.379 20.1376 21.359Z" fill="#F7F8F7"/>
<path d="M69.5379 54.8091C69.3079 54.0891 69.0679 53.3691 68.8379 52.6491C69.2979 52.2591 69.7279 51.5791 70.2179 51.5391C70.8579 51.4791 71.9079 51.7491 72.1079 52.1891C72.3779 52.7891 72.2279 53.7891 71.8879 54.4291C71.3879 55.3591 70.4179 55.2091 69.5379 54.8091Z" fill="#F6F6F6"/>
<path d="M27.3082 53.169C27.3082 51.609 27.2781 50.059 27.3481 48.499C27.3681 47.989 27.6681 47.489 27.8481 46.979C29.7781 46.989 31.7081 46.999 33.6381 47.019C33.6281 48.419 33.6381 49.809 33.6081 51.209C33.5781 52.619 33.0481 53.139 31.6381 53.169C30.2781 53.199 28.9281 53.209 27.5681 53.219C27.4781 53.209 27.3982 53.189 27.3082 53.169Z" fill="#EB4F3E"/>
<path d="M27.5684 53.229C28.9284 53.209 30.2784 53.209 31.6384 53.179C33.0484 53.149 33.5884 52.619 33.6084 51.219C33.6384 49.819 33.6284 48.429 33.6384 47.029C33.7084 47.039 33.7684 47.019 33.8184 46.979C34.0584 47.529 34.4484 48.069 34.4984 48.639C34.6084 49.779 34.6084 50.949 34.4984 52.089C34.4384 52.699 34.0384 53.279 33.7984 53.879C32.0884 53.919 30.3784 53.999 28.6684 53.949C28.2984 53.929 27.9284 53.469 27.5684 53.229Z" fill="#E6DAD8"/>
<path d="M75.278 5.51934C75.258 5.82934 75.368 6.29932 75.208 6.42932C74.798 6.75932 74.268 7.11932 73.788 7.11932C72.888 7.11932 73.1779 6.30933 73.1279 5.75933C73.0579 5.05933 73.538 4.94934 74.038 5.04934C74.458 5.13934 74.858 5.35934 75.278 5.51934Z" fill="#BAC5C6"/>
<path d="M77.1979 4.80926C75.5379 5.34926 75.2479 5.12927 75.2179 3.60927C75.2079 2.66927 75.6779 2.61927 76.3979 2.60927C77.1279 2.59927 77.5679 2.77926 77.4479 3.59926C77.3879 3.99926 77.2879 4.39926 77.1979 4.80926C77.1979 4.41926 77.1679 4.01926 77.1979 3.62926C77.2479 2.94926 76.848 2.87925 76.308 2.86925C75.688 2.84925 75.5179 3.09927 75.4879 3.69927C75.4179 5.12927 76.4679 4.69926 77.1979 4.80926Z" fill="#8DBDD5"/>
<path d="M45.8578 12.4292C45.7578 12.3592 45.6479 12.2992 45.5479 12.2292C45.6279 11.9792 45.7079 11.7393 45.7979 11.4893C45.9479 11.5093 46.1078 11.5292 46.2578 11.5592C46.6078 12.0692 46.4178 12.3392 45.8578 12.4292Z" fill="#F0ECEA"/>
<path d="M33.8176 46.959C33.7676 47.009 33.7076 47.029 33.6376 47.009C31.7076 46.999 29.7777 46.989 27.8477 46.969C28.2677 46.809 28.6977 46.519 29.1177 46.519C30.6777 46.529 32.2377 46.639 33.7977 46.709C33.7977 46.799 33.8076 46.879 33.8176 46.959Z" fill="#8E3F35"/>
<path d="M69.9382 48.3492C69.8182 48.2992 69.6981 48.2492 69.5781 48.1992C69.6981 48.1192 69.8182 48.0392 69.9382 47.9492C69.9382 48.0892 69.9382 48.2192 69.9382 48.3492Z" fill="#46413D"/>
<path d="M24.4285 28.019C21.1785 28.029 17.9285 28.029 14.6885 28.049C14.2785 28.049 13.8585 28.189 13.4485 28.269C13.2085 28.269 12.9685 28.259 12.7285 28.259C12.9585 28.109 13.1985 27.829 13.4285 27.829C16.9585 27.799 20.4985 27.809 24.0285 27.829C24.1685 27.809 24.2985 27.949 24.4285 28.019Z" fill="#562E28"/>
<path d="M28.1279 31.7693C28.8279 31.3893 29.538 31.3292 30.248 31.7492C30.248 31.8692 30.248 31.9892 30.248 32.0992C29.538 32.0992 28.8379 32.0992 28.1279 32.0992C28.1279 31.9892 28.1279 31.8793 28.1279 31.7693Z" fill="#4C4441"/>
<path d="M31.4282 34.3589C32.2677 34.3589 32.9482 34.2514 32.9482 34.1189C32.9482 33.9863 32.2677 33.8789 31.4282 33.8789C30.5887 33.8789 29.9082 33.9863 29.9082 34.1189C29.9082 34.2514 30.5887 34.3589 31.4282 34.3589Z" fill="#433B39"/>
<path d="M32.4977 36.4992C31.7777 36.4992 31.0677 36.4992 30.3477 36.4992C30.3477 36.3892 30.3477 36.2692 30.3477 36.1592C31.0677 36.1592 31.7777 36.1592 32.4977 36.1592C32.4977 36.2692 32.4977 36.3892 32.4977 36.4992Z" fill="#433C3A"/>
<path d="M38.0978 36.5089C37.3978 36.5089 36.7078 36.5089 36.0078 36.5089C36.0078 36.3989 36.0078 36.2789 36.0078 36.1689C36.6978 36.1689 37.3878 36.1689 38.0778 36.1689C38.0778 36.2889 38.0878 36.3989 38.0978 36.5089Z" fill="#3F3937"/>
<path d="M59.4277 34.0991C59.7677 34.5591 60.3676 35.0091 60.3776 35.4791C60.3876 35.8691 59.6877 36.6291 59.3477 36.5991C58.8777 36.5591 58.1577 35.9991 58.0877 35.5591C58.0177 35.1391 58.6177 34.5991 58.9177 34.1091C59.0977 34.1091 59.2677 34.1091 59.4277 34.0991Z" fill="#665E5A"/>
<path d="M62.2785 33.959C62.7685 34.709 63.1785 35.089 63.2985 35.549C63.5285 36.469 62.5985 36.669 62.1385 36.609C61.7385 36.559 61.2485 35.869 61.1485 35.399C61.0985 35.099 61.6885 34.669 62.2785 33.959Z" fill="#524948"/>
<path d="M57.9576 20.319C56.6776 20.319 55.7777 20.319 54.5977 20.319C54.7577 19.749 54.7976 18.969 55.0176 18.919C55.7576 18.739 56.5876 18.699 57.3276 18.849C57.5876 18.899 57.6976 19.669 57.9576 20.319ZM55.0876 19.329C55.0876 19.439 55.0876 19.539 55.0876 19.649C55.7876 19.649 56.4976 19.649 57.1976 19.649C57.1976 19.539 57.1976 19.439 57.1976 19.329C56.4976 19.329 55.7876 19.329 55.0876 19.329Z" fill="#F7F8F8"/>
<path d="M58.3679 22.4992C58.0479 22.4992 57.6979 22.5792 57.4279 22.4692C57.1879 22.3692 56.8578 22.0392 56.8778 21.8592C56.9178 21.5892 57.1979 21.1992 57.4379 21.1392C57.9279 21.0192 58.4778 21.0092 58.9678 21.1092C59.3078 21.1792 59.5979 21.5292 59.9079 21.7492C59.5879 22.0092 59.2878 22.2892 58.9478 22.5092C58.8078 22.5992 58.5579 22.5192 58.3579 22.5192C58.3679 22.5192 58.3679 22.5092 58.3679 22.4992ZM59.4478 21.9192C59.4478 21.8092 59.4478 21.6992 59.4478 21.5892C58.7578 21.5892 58.0678 21.5892 57.3778 21.5892C57.3778 21.6992 57.3778 21.8092 57.3878 21.9192C58.0778 21.9192 58.7578 21.9192 59.4478 21.9192Z" fill="#F7F8F8"/>
<path d="M58.0985 24.719C57.7985 24.679 57.3885 24.699 57.0385 24.549C56.8985 24.489 56.8485 23.849 56.8685 23.849C57.5785 23.619 58.2985 23.369 59.0285 23.289C59.2985 23.259 59.6884 23.599 59.8784 23.869C59.9584 23.979 59.6985 24.519 59.4885 24.589C59.0985 24.729 58.6385 24.679 58.0985 24.719ZM58.4585 23.309C57.9985 23.589 57.6485 23.799 57.2985 24.019C57.6885 24.159 58.0785 24.409 58.4785 24.419C58.8385 24.429 59.2084 24.169 59.5684 24.029C59.2284 23.809 58.8885 23.589 58.4585 23.309Z" fill="#F7F8F8"/>
<path d="M58.5881 19.4292C58.7581 19.4292 58.9281 19.4292 59.0981 19.4392C59.1081 19.4392 59.1182 19.6092 59.1182 19.6092C58.9382 19.6492 58.7581 19.6692 58.5781 19.6992C58.5881 19.6092 58.5881 19.5192 58.5881 19.4292Z" fill="#3B3533"/>
<path d="M60.7582 21.5493C62.1882 21.5493 63.6183 21.5493 65.0483 21.5493C65.0483 21.6693 65.0483 21.7793 65.0483 21.8993C63.6083 21.8993 62.1683 21.8993 60.7383 21.8993C60.7483 21.7793 60.7582 21.6693 60.7582 21.5493Z" fill="#4F453F"/>
<path d="M63.0679 23.5093C63.6279 23.5193 64.1879 23.4993 64.7279 23.5693C64.8979 23.5893 65.0279 23.8593 65.1779 24.0193C65.0179 24.1593 64.8879 24.3893 64.7079 24.4393C63.5279 24.7693 62.8779 24.3793 63.0679 23.5093C63.0779 23.4993 63.0679 23.5093 63.0679 23.5093Z" fill="#84807D"/>
<path d="M46.7786 27.0791C46.5286 27.4191 46.2886 27.7491 46.0386 28.0891C45.7986 27.7491 45.5486 27.4191 45.3086 27.0791C45.7986 26.2891 46.2886 26.5791 46.7786 27.0791Z" fill="#CDCBC8"/>
<path d="M17.4683 43.1493C17.4483 44.2593 16.6283 44.9993 15.4383 44.9693C14.4783 44.9493 13.8483 44.1393 13.8983 42.9793C13.9383 41.9893 14.6683 41.2593 15.6383 41.2593C16.7183 41.2693 17.4883 42.0593 17.4683 43.1493ZM17.1783 43.0793C16.4883 42.6093 16.0683 42.1193 15.5883 42.0793C15.3083 42.0493 14.6583 42.8193 14.7283 43.0893C14.8483 43.5493 15.3483 44.1193 15.7883 44.2193C16.0883 44.2793 16.5483 43.6193 17.1783 43.0793Z" fill="#DBDADA"/>
<path d="M79.2578 37.229C79.4478 37.949 81.0078 38.029 80.0878 39.149C79.8378 39.449 78.7278 39.519 78.4678 39.259C77.6478 38.379 78.3978 37.789 79.2578 37.229Z" fill="#FBFBFB"/>
<path d="M76.008 17.1789C76.008 16.8389 75.998 16.4989 75.998 16.1489C76.128 15.9689 76.248 15.769 76.398 15.609C77.058 14.869 77.848 14.7189 78.758 15.0889C79.678 15.4589 79.978 16.199 79.798 17.109C79.618 18.059 78.988 18.389 78.008 18.489C76.878 18.589 76.518 17.8389 76.008 17.1789Z" fill="#F9F9F9"/>
<path d="M76.0085 17.1793C76.5185 17.8393 76.8885 18.5893 78.0085 18.4793C78.9885 18.3793 79.6085 18.0493 79.7985 17.0993C79.9785 16.1893 79.6785 15.4593 78.7585 15.0793C77.8485 14.7093 77.0585 14.8593 76.3985 15.5993C76.2485 15.7693 76.1285 15.9593 75.9985 16.1393C75.0185 15.4593 76.0285 15.1093 76.3185 14.8393C77.1985 14.0393 78.2785 14.1293 79.2885 14.5693C80.3185 15.0193 80.6485 15.9893 80.5185 16.9993C80.3585 18.2593 79.2885 19.2593 78.1285 19.3393C77.0185 19.4193 76.2085 18.8193 75.7285 17.8493C75.6485 17.7193 75.8985 17.4093 76.0085 17.1793Z" fill="#554F4B"/>
<path d="M77.1977 4.80903C76.4677 4.69903 75.4177 5.12905 75.4877 3.70905C75.5177 3.10905 75.6977 2.85904 76.3077 2.87904C76.8477 2.88904 77.2477 2.95905 77.1977 3.63905C77.1677 4.01905 77.1977 4.41903 77.1977 4.80903Z" fill="#5BA1C6"/>
<path d="M55.0879 19.3291C55.7879 19.3291 56.4979 19.3291 57.1979 19.3291C57.1979 19.4391 57.1979 19.5391 57.1979 19.6491C56.4979 19.6491 55.7879 19.6491 55.0879 19.6491C55.0879 19.5491 55.0879 19.4391 55.0879 19.3291Z" fill="#433A37"/>
<path d="M59.4479 21.9189C58.7579 21.9189 58.0679 21.9189 57.3879 21.9189C57.3879 21.8089 57.3879 21.6989 57.3779 21.5889C58.0679 21.5889 58.7579 21.5889 59.4479 21.5889C59.4479 21.6989 59.4479 21.8089 59.4479 21.9189Z" fill="#534A47"/>
<path d="M58.4578 23.3091C58.8878 23.5891 59.2278 23.8091 59.5678 24.0291C59.2078 24.1691 58.8378 24.4291 58.4778 24.4191C58.0878 24.4091 57.6879 24.1591 57.2979 24.0191C57.6479 23.7991 57.9978 23.5891 58.4578 23.3091Z" fill="#7C7673"/>
<path d="M17.1778 43.079C16.5478 43.619 16.0878 44.279 15.7878 44.219C15.3478 44.119 14.8478 43.549 14.7278 43.089C14.6578 42.829 15.3178 42.059 15.5878 42.079C16.0578 42.119 16.4878 42.609 17.1778 43.079Z" fill="#F9FAF9"/>
</svg>
