<svg id="app-store" xmlns="http://www.w3.org/2000/svg" width="29.383" height="29.383" viewBox="0 0 29.383 29.383">
  <path id="Path_155" data-name="Path 155" d="M23.357,29.383H6.026A6.033,6.033,0,0,1,0,23.357V6.026A6.033,6.033,0,0,1,6.026,0H23.357a6.033,6.033,0,0,1,6.026,6.026V23.357A6.033,6.033,0,0,1,23.357,29.383Z" fill="#00c3ff"/>
  <path id="Path_156" data-name="Path 156" d="M264.666,0H256V29.383h8.666a6.033,6.033,0,0,0,6.026-6.026V6.026A6.033,6.033,0,0,0,264.666,0Z" transform="translate(-241.309)" fill="#00aaf0"/>
  <g id="Group_51" data-name="Group 51" transform="translate(4.907 6.026)">
    <path id="Path_157" data-name="Path 157" d="M113.68,362.923a1.436,1.436,0,0,1-1.96.525h0a1.436,1.436,0,0,1-.525-1.96l.282-.489h3.313Z" transform="translate(-109.539 -346.309)" fill="#fff"/>
    <path id="Path_158" data-name="Path 158" d="M86.935,118.55a1.435,1.435,0,1,1,0-2.869h2.822l3.871-6.7-1.049-1.817a1.436,1.436,0,0,1,.525-1.96h0a1.436,1.436,0,0,1,1.96.525l.221.382.221-.382a1.435,1.435,0,1,1,2.485,1.435l-4.92,8.522h3.1l1.657,2.869Z" transform="translate(-85.5 -105.007)" fill="#fff"/>
  </g>
  <g id="Group_52" data-name="Group 52" transform="translate(14.691 6.026)">
    <path id="Path_159" data-name="Path 159" d="M275.233,202.592h-1.166l.945,1.636a1.435,1.435,0,1,1-2.485,1.435l-4.982-8.628,1.657-2.869,3.209,5.557h2.822a1.435,1.435,0,1,1,0,2.869Z" transform="translate(-266.883 -189.048)" fill="#f2f2f2"/>
    <path id="Path_160" data-name="Path 160" d="M256,291v2.869h2.546L256.889,291Z" transform="translate(-256 -280.326)" fill="#f2f2f2"/>
    <path id="Path_161" data-name="Path 161" d="M258.849,106.07a1.435,1.435,0,0,0-2.628-.346l-.221.382h0v5.739l2.706-4.687A1.425,1.425,0,0,0,258.849,106.07Z" transform="translate(-256 -105.006)" fill="#f2f2f2"/>
  </g>
</svg>
