<svg width="6" height="18" viewBox="0 0 6 18" fill="none" xmlns="http://www.w3.org/2000/svg">
<path d="M5.03711 9.42543C5.03711 9.00594 4.91271 8.59586 4.67966 8.24707C4.4466 7.89827 4.11534 7.62642 3.72778 7.46588C3.34022 7.30535 2.91376 7.26335 2.50232 7.34519C2.09089 7.42702 1.71296 7.62903 1.41634 7.92566C1.11971 8.22228 0.917703 8.60021 0.835864 9.01164C0.754024 9.42308 0.796028 9.84954 0.956561 10.2371C1.11709 10.6247 1.38895 10.9559 1.73774 11.189C2.08654 11.422 2.49662 11.5464 2.91611 11.5464C3.47807 11.5446 4.01648 11.3205 4.41384 10.9232C4.81121 10.5258 5.03526 9.98739 5.03711 9.42543H5.03711ZM5.03711 15.7894C5.03711 15.3699 4.91271 14.9599 4.67966 14.6111C4.4466 14.2623 4.11534 13.9904 3.72778 13.8299C3.34022 13.6693 2.91376 13.6273 2.50232 13.7092C2.09089 13.791 1.71296 13.993 1.41634 14.2897C1.11971 14.5863 0.917703 14.9642 0.835864 15.3756C0.754024 15.7871 0.796028 16.2135 0.956561 16.6011C1.11709 16.9887 1.38895 17.3199 1.73774 17.553C2.08654 17.786 2.49662 17.9104 2.91611 17.9104C3.47807 17.9086 4.01648 17.6845 4.41384 17.2872C4.81121 16.8898 5.03526 16.3514 5.03711 15.7894V15.7894ZM5.03711 3.06043C5.03691 2.64098 4.91235 2.231 4.67917 1.88234C4.44599 1.53367 4.11467 1.26198 3.72709 1.1016C3.33951 0.941215 2.91308 0.899355 2.50171 0.981307C2.09034 1.06326 1.71251 1.26534 1.41598 1.56201C1.11946 1.85868 0.917549 2.23661 0.835791 2.64801C0.754033 3.05942 0.796094 3.48583 0.956657 3.87333C1.11722 4.26084 1.38907 4.59203 1.73785 4.82505C2.08662 5.05806 2.49666 5.18243 2.91611 5.18243C3.47824 5.18058 4.0168 4.95639 4.4142 4.55881C4.81159 4.16123 5.03553 3.62256 5.03711 3.06043V3.06043Z" fill="#666666"/>
</svg>
