<svg xmlns="http://www.w3.org/2000/svg" width="16.226" height="19.16" viewBox="0 0 16.226 19.16">
  <g id="notifications-outline" transform="translate(0 0)">
    <path id="Path_2099" data-name="Path 2099" d="M21.635,17.351c-1.182-1.448-2.018-2.185-2.018-6.176,0-3.655-1.866-4.957-3.4-5.589a.822.822,0,0,1-.459-.486,2.232,2.232,0,0,0-2.029-1.725A2.228,2.228,0,0,0,11.7,5.1a.813.813,0,0,1-.459.485c-1.538.633-3.4,1.931-3.4,5.589,0,3.991-.837,4.728-2.02,6.176a.929.929,0,0,0,.8,1.5H20.843A.929.929,0,0,0,21.635,17.351Z" transform="translate(-5.614 -3.375)" fill="#666"/>
    <path id="Path_2100" data-name="Path 2100" d="M19.4,27v.737a2.948,2.948,0,1,1-5.9,0V27" transform="translate(-8.335 -11.524)" fill="#666"/>
  </g>
</svg>
