<svg width="28" height="28" viewBox="0 0 28 28" fill="none" xmlns="http://www.w3.org/2000/svg">
<path d="M27.373 13.6879C27.373 13.5219 27.37 13.3552 27.364 13.1879C27.2321 9.6486 25.7333 6.29825 23.1827 3.84096C20.6321 1.38366 17.2282 0.0107422 13.6865 0.0107422C10.1448 0.0107422 6.74091 1.38366 4.1903 3.84096C1.6397 6.29825 0.140936 9.6486 0.009 13.1879C0.003 13.3525 0 13.5192 0 13.6879C0 21.2469 7.03 26.8779 13.687 26.8779C20.463 26.8769 27.373 21.2459 27.373 13.6879Z" fill="#FF5876"/>
<path d="M13.687 26.3819C10.143 26.3819 6.73711 25.0071 4.18619 22.5468C1.63526 20.0865 0.138182 16.7326 0.01 13.1909C0.004 13.3559 0 13.5209 0 13.6909C0.0308546 17.3005 1.48641 20.7518 4.04978 23.2934C6.61315 25.8349 10.0767 27.2609 13.6865 27.2609C17.2963 27.2609 20.7599 25.8349 23.3232 23.2934C25.8866 20.7518 27.3421 17.3005 27.373 13.6909C27.373 13.5249 27.373 13.3589 27.363 13.1909C27.2348 16.7325 25.7379 20.0862 23.1872 22.5465C20.6365 25.0067 17.2309 26.3816 13.687 26.3819V26.3819Z" fill="#E6485D"/>
<path d="M25.1011 13.1909C24.972 10.2514 23.7134 7.4752 21.5878 5.44085C19.4621 3.40651 16.6334 2.271 13.6911 2.271C10.7488 2.271 7.92004 3.40651 5.79438 5.44085C3.66872 7.4752 2.41019 10.2514 2.28108 13.1909C2.27408 13.3559 2.28108 24.3819 13.6911 24.3819C25.1011 24.3819 25.1011 13.3559 25.1011 13.1909Z" fill="#E4EEF9"/>
<path d="M13.6842 24.1149C10.7414 24.1146 7.91227 22.9784 5.78672 20.9432C3.66116 18.908 2.40322 16.1309 2.27516 13.1909C2.26816 13.3559 2.26416 13.5209 2.26416 13.6909C2.29233 16.7013 3.50796 19.5788 5.64666 21.6976C7.78536 23.8164 10.6741 25.0051 13.6847 25.0051C16.6952 25.0051 19.584 23.8164 21.7227 21.6976C23.8614 19.5788 25.077 16.7013 25.1052 13.6909C25.1052 13.5249 25.1052 13.3589 25.0942 13.1909C24.9663 16.1312 23.7083 18.9086 21.5825 20.9438C19.4567 22.9791 16.6272 24.1151 13.6842 24.1149V24.1149Z" fill="#D5E0F2"/>
<path d="M17.8352 9.67997C17.7578 9.6036 17.6661 9.54322 17.5653 9.50229C17.4646 9.46136 17.3568 9.44068 17.248 9.44143C17.1393 9.44217 17.0318 9.46432 16.9316 9.50663C16.8314 9.54893 16.7405 9.61054 16.6642 9.68796L14.7212 11.657L14.9212 12.595L15.8282 12.895L17.8432 10.852C17.9197 10.7745 17.9802 10.6828 18.0212 10.5819C18.0622 10.4811 18.083 10.3732 18.0822 10.2643C18.0815 10.1554 18.0593 10.0478 18.0169 9.94753C17.9745 9.84726 17.9127 9.75634 17.8352 9.67997V9.67997Z" fill="#405B6C"/>
<path d="M12.515 11.7329L8.10999 7.80686C8.02974 7.7293 7.93464 7.66876 7.83041 7.62888C7.72617 7.589 7.61496 7.57061 7.50343 7.5748C7.39191 7.579 7.28239 7.60569 7.18144 7.65328C7.0805 7.70087 6.99021 7.76838 6.91602 7.85175C6.84182 7.93512 6.78525 8.03262 6.74969 8.1384C6.71413 8.24419 6.70033 8.35608 6.70911 8.46734C6.71788 8.57859 6.74906 8.68692 6.80077 8.78582C6.85247 8.88472 6.92364 8.97215 7.00999 9.04285L11.502 13.0429L12.438 12.7309L12.515 11.7329Z" fill="#405B6C"/>
<path d="M19.548 19.0249C19.4502 19.0241 19.356 18.9887 19.282 18.9249L14.039 14.5249C13.9586 14.4532 13.9093 14.3531 13.9015 14.2457C13.8937 14.1383 13.928 14.0321 13.9972 13.9496C14.0665 13.8672 14.1651 13.8149 14.2722 13.8039C14.3793 13.7929 14.4865 13.8241 14.571 13.8909L19.814 18.2909C19.879 18.3455 19.9256 18.4188 19.9476 18.5008C19.9695 18.5828 19.9658 18.6696 19.9367 18.7494C19.9077 18.8292 19.8548 18.8982 19.7853 18.9469C19.7157 18.9957 19.6329 19.0218 19.548 19.0219V19.0249Z" fill="#86DCFF"/>
<path d="M11.4971 13.0459L12.2701 13.7349L13.2631 13.3979L13.2091 12.3539L12.5091 11.7329C12.0191 12.0283 11.658 12.4969 11.4971 13.0459V13.0459Z" fill="#2D4456"/>
<path d="M14.721 11.658L14.064 12.324V13.632H15.095L15.819 12.897C15.6207 12.3612 15.229 11.9192 14.721 11.658V11.658Z" fill="#2D4456"/>
<path d="M15.0109 13.1909C14.9098 12.9211 14.7288 12.6886 14.492 12.5245C14.2552 12.3604 13.974 12.2725 13.6859 12.2725C13.3978 12.2725 13.1166 12.3604 12.8798 12.5245C12.6431 12.6886 12.462 12.9211 12.3609 13.1909C12.3487 13.3724 12.3739 13.5544 12.4349 13.7258C12.496 13.8972 12.5916 14.0541 12.7158 14.187C12.8401 14.3199 12.9903 14.4258 13.1572 14.4983C13.324 14.5707 13.504 14.6081 13.6859 14.6081C13.8678 14.6081 14.0478 14.5707 14.2147 14.4983C14.3815 14.4258 14.5317 14.3199 14.656 14.187C14.7802 14.0541 14.8758 13.8972 14.9369 13.7258C14.9979 13.5544 15.0231 13.3724 15.0109 13.1909V13.1909Z" fill="#FF5876"/>
<path d="M13.687 14.1089C13.3989 14.1089 13.1178 14.0211 12.881 13.857C12.6442 13.693 12.4632 13.4606 12.362 13.1909C12.2815 13.405 12.2541 13.6355 12.2822 13.8625C12.3102 14.0895 12.3929 14.3063 12.5231 14.4943C12.6533 14.6824 12.8272 14.8361 13.0298 14.9422C13.2324 15.0484 13.4578 15.1038 13.6865 15.1038C13.9152 15.1038 14.1405 15.0484 14.3432 14.9422C14.5458 14.8361 14.7196 14.6824 14.8498 14.4943C14.98 14.3063 15.0627 14.0895 15.0908 13.8625C15.1189 13.6355 15.0915 13.405 15.011 13.1909C14.9099 13.4604 14.729 13.6927 14.4924 13.8568C14.2558 14.0208 13.9748 14.1087 13.687 14.1089V14.1089Z" fill="#E6485D"/>
<path d="M14.1 5.00294V3.71495C14.0948 3.60854 14.0488 3.50821 13.9717 3.43475C13.8945 3.36129 13.7921 3.32031 13.6855 3.32031C13.579 3.32031 13.4765 3.36129 13.3993 3.43475C13.3222 3.50821 13.2762 3.60854 13.271 3.71495V4.99995C13.2682 5.05609 13.2769 5.11221 13.2965 5.1649C13.3161 5.21759 13.3462 5.26576 13.3849 5.30647C13.4237 5.34718 13.4703 5.3796 13.522 5.40174C13.5737 5.42389 13.6293 5.43531 13.6855 5.43531C13.7417 5.43531 13.7974 5.42389 13.849 5.40174C13.9007 5.3796 13.9473 5.34718 13.9861 5.30647C14.0248 5.26576 14.0549 5.21759 14.0745 5.1649C14.0941 5.11221 14.1028 5.05609 14.1 4.99995V5.00294Z" fill="#405B6C"/>
<path d="M13.271 22.3709V23.6559C13.2682 23.7121 13.2769 23.7682 13.2965 23.8209C13.3161 23.8736 13.3462 23.9218 13.3849 23.9625C13.4237 24.0032 13.4703 24.0356 13.522 24.0577C13.5737 24.0799 13.6293 24.0913 13.6855 24.0913C13.7417 24.0913 13.7974 24.0799 13.849 24.0577C13.9007 24.0356 13.9473 24.0032 13.9861 23.9625C14.0248 23.9218 14.0549 23.8736 14.0745 23.8209C14.0941 23.7682 14.1028 23.7121 14.1 23.6559V22.3709C14.0948 22.2645 14.0488 22.1642 13.9717 22.0908C13.8945 22.0173 13.7921 21.9763 13.6855 21.9763C13.579 21.9763 13.4765 22.0173 13.3993 22.0908C13.3222 22.1642 13.2762 22.2645 13.271 22.3709V22.3709Z" fill="#405B6C"/>
<path d="M23.6537 14.101C23.7099 14.1038 23.766 14.0951 23.8187 14.0755C23.8714 14.0559 23.9196 14.0258 23.9603 13.9871C24.001 13.9483 24.0334 13.9017 24.0555 13.85C24.0777 13.7983 24.0891 13.7427 24.0891 13.6865C24.0891 13.6303 24.0777 13.5746 24.0555 13.523C24.0334 13.4713 24.001 13.4247 23.9603 13.3859C23.9196 13.3472 23.8714 13.3171 23.8187 13.2975C23.766 13.2779 23.7099 13.2692 23.6537 13.272H22.3688C22.2624 13.2772 22.162 13.3232 22.0886 13.4003C22.0151 13.4775 21.9741 13.5799 21.9741 13.6865C21.9741 13.793 22.0151 13.8955 22.0886 13.9727C22.162 14.0498 22.2624 14.0958 22.3688 14.101H23.6537Z" fill="#405B6C"/>
<path d="M3.71397 13.272C3.60756 13.2772 3.50724 13.3232 3.43377 13.4003C3.36031 13.4775 3.31934 13.5799 3.31934 13.6865C3.31934 13.793 3.36031 13.8955 3.43377 13.9727C3.50724 14.0498 3.60756 14.0958 3.71397 14.101H4.99897C5.05512 14.1038 5.11123 14.0951 5.16393 14.0755C5.21662 14.0559 5.26478 14.0258 5.30549 13.9871C5.3462 13.9483 5.37862 13.9017 5.40077 13.85C5.42292 13.7983 5.43433 13.7427 5.43433 13.6865C5.43433 13.6303 5.42292 13.5746 5.40077 13.523C5.37862 13.4713 5.3462 13.4247 5.30549 13.3859C5.26478 13.3472 5.21662 13.3171 5.16393 13.2975C5.11123 13.2779 5.05512 13.2692 4.99897 13.272H3.71397Z" fill="#405B6C"/>
</svg>
