<svg width="24" height="26" viewBox="0 0 24 26" fill="none" xmlns="http://www.w3.org/2000/svg">
<path d="M21.81 3.271C22.0486 3.271 22.2849 3.31799 22.5053 3.40931C22.7258 3.50062 22.9261 3.63446 23.0948 3.80318C23.2635 3.97191 23.3974 4.17221 23.4887 4.39266C23.58 4.61311 23.627 4.84938 23.627 5.088V23.717C23.627 23.9556 23.58 24.1919 23.4887 24.4123C23.3974 24.6328 23.2635 24.8331 23.0948 25.0018C22.9261 25.1705 22.7258 25.3044 22.5053 25.3957C22.2849 25.487 22.0486 25.534 21.81 25.534H1.817C1.3351 25.534 0.872941 25.3426 0.532187 25.0018C0.191433 24.6611 0 24.1989 0 23.717V5.088C0 4.6061 0.191433 4.14394 0.532187 3.80318C0.872941 3.46243 1.3351 3.271 1.817 3.271H21.81Z" fill="#DED8D0"/>
<path d="M1.817 25.5358H21.81C22.0486 25.5358 22.2849 25.4888 22.5053 25.3975C22.7258 25.3061 22.9261 25.1723 23.0948 25.0036C23.2635 24.8349 23.3974 24.6346 23.4887 24.4141C23.58 24.1937 23.627 23.9574 23.627 23.7188V13.8848C19.327 18.5848 12.052 22.0498 0 22.6958V23.7178C0 24.1997 0.191433 24.6618 0.532187 25.0026C0.872941 25.3433 1.3351 25.5348 1.817 25.5348V25.5358Z" fill="#C9C4BD"/>
<path d="M23.627 7.815H0V5.088C0 4.6061 0.191433 4.14394 0.532187 3.80318C0.872941 3.46243 1.3351 3.271 1.817 3.271H21.81C22.0486 3.271 22.2849 3.31799 22.5053 3.40931C22.7258 3.50062 22.9261 3.63446 23.0948 3.80318C23.2635 3.97191 23.3974 4.17221 23.4887 4.39266C23.58 4.61311 23.627 4.84938 23.627 5.088V7.815Z" fill="#E34E4B"/>
<path d="M4.09016 5.54387C3.84908 5.54387 3.61787 5.4481 3.4474 5.27763C3.27693 5.10716 3.18116 4.87595 3.18116 4.63487V1.90887C3.17712 1.78703 3.19763 1.66562 3.24146 1.55186C3.2853 1.43811 3.35157 1.33433 3.43633 1.24671C3.52109 1.15909 3.62261 1.08942 3.73485 1.04183C3.84709 0.994249 3.96775 0.969727 4.08966 0.969727C4.21157 0.969727 4.33224 0.994249 4.44448 1.04183C4.55671 1.08942 4.65823 1.15909 4.743 1.24671C4.82776 1.33433 4.89403 1.43811 4.93786 1.55186C4.9817 1.66562 5.00221 1.78703 4.99816 1.90887V4.63487C4.99816 4.87578 4.90253 5.10684 4.73228 5.27728C4.56202 5.44772 4.33107 5.54361 4.09016 5.54387V5.54387Z" fill="#F5A947"/>
<path d="M9.08918 5.54388C8.84809 5.54388 8.61689 5.44811 8.44641 5.27764C8.27594 5.10717 8.18018 4.87597 8.18018 4.63488V1.90888C8.188 1.67315 8.28714 1.44969 8.45666 1.2857C8.62619 1.12171 8.85281 1.03003 9.08868 1.03003C9.32454 1.03003 9.55117 1.12171 9.72069 1.2857C9.89021 1.44969 9.98935 1.67315 9.99718 1.90888V4.63488C9.99718 4.87579 9.90154 5.10685 9.73129 5.27729C9.56103 5.44773 9.33008 5.54362 9.08918 5.54388V5.54388Z" fill="#F5A947"/>
<path d="M14.5399 5.54388C14.2988 5.54388 14.0676 5.44811 13.8971 5.27764C13.7266 5.10717 13.6309 4.87597 13.6309 4.63488V1.90888C13.6387 1.67315 13.7378 1.44969 13.9073 1.2857C14.0769 1.12171 14.3035 1.03003 14.5394 1.03003C14.7752 1.03003 15.0018 1.12171 15.1714 1.2857C15.3409 1.44969 15.44 1.67315 15.4479 1.90888V4.63488C15.4479 4.87579 15.3522 5.10685 15.182 5.27729C15.0117 5.44773 14.7808 5.54362 14.5399 5.54388Z" fill="#F5A947"/>
<path d="M19.5389 5.54388C19.2978 5.54388 19.0666 5.44811 18.8961 5.27764C18.7257 5.10717 18.6299 4.87597 18.6299 4.63488V1.90888C18.6377 1.67315 18.7368 1.44969 18.9064 1.2857C19.0759 1.12171 19.3025 1.03003 19.5384 1.03003C19.7742 1.03003 20.0009 1.12171 20.1704 1.2857C20.3399 1.44969 20.4391 1.67315 20.4469 1.90888V4.63488C20.4469 4.87579 20.3513 5.10685 20.181 5.27729C20.0107 5.44773 19.7798 5.54362 19.5389 5.54388V5.54388Z" fill="#F5A947"/>
<path d="M2.72607 10.0879H5.45207V12.8139H2.72607V10.0879Z" fill="#50B6CF"/>
<path d="M7.72412 10.0879H10.4501V12.8139H7.72412V10.0879Z" fill="#50B6CF"/>
<path d="M12.7222 10.0879H15.4482V12.8139H12.7222V10.0879Z" fill="#50B6CF"/>
<path d="M17.7202 10.0879H20.4462V12.8139H17.7202V10.0879Z" fill="#50B6CF"/>
<path d="M2.72607 15.0859H5.45207V17.8119H2.72607V15.0859Z" fill="#50B6CF"/>
<path d="M7.72412 15.0859H10.4501V17.8119H7.72412V15.0859Z" fill="#50B6CF"/>
<path d="M12.7222 15.0859H15.4482V17.8119H12.7222V15.0859Z" fill="#50B6CF"/>
<path d="M17.7202 15.0859H20.4462V17.8119H17.7202V15.0859Z" fill="#50B6CF"/>
<path d="M2.72607 20.084H5.45207V22.81H2.72607V20.084Z" fill="#50B6CF"/>
<path d="M7.72412 20.084H10.4501V22.81H7.72412V20.084Z" fill="#50B6CF"/>
<path d="M12.7222 20.084H15.4482V22.81H12.7222V20.084Z" fill="#50B6CF"/>
</svg>
