<svg width="24" height="31" viewBox="0 0 24 31" fill="none" xmlns="http://www.w3.org/2000/svg">
<path d="M9.56503 2.344H14.613V3.193H16.436V2.221C16.4347 1.77053 16.2552 1.3389 15.9366 1.02037C15.6181 0.701845 15.1865 0.522315 14.736 0.520996L9.44902 0.520996C8.99864 0.522577 8.56716 0.702192 8.24869 1.02066C7.93022 1.33913 7.7506 1.77061 7.74902 2.221V3.189H9.57202L9.56503 2.344Z" fill="#666666"/>
<path d="M20.6454 10.416H3.53141C3.42038 10.4156 3.31048 10.4383 3.2087 10.4827C3.10693 10.5271 3.01551 10.5922 2.94026 10.6738C2.86501 10.7555 2.80758 10.8519 2.77162 10.957C2.73567 11.062 2.72197 11.1734 2.73141 11.284L4.16241 28.975C4.20061 29.4509 4.41658 29.895 4.76735 30.2189C5.11812 30.5428 5.57797 30.7228 6.05541 30.723H18.1214C18.5989 30.7228 19.0587 30.5428 19.4095 30.2189C19.7602 29.895 19.9762 29.4509 20.0144 28.975L21.4454 11.285C21.4549 11.1744 21.4412 11.063 21.4052 10.958C21.3692 10.8529 21.3118 10.7565 21.2366 10.6748C21.1613 10.5932 21.0699 10.5281 20.9681 10.4837C20.8663 10.4393 20.7564 10.4166 20.6454 10.417V10.416ZM7.67541 28.836H7.61841C7.38638 28.8359 7.16312 28.7473 6.9942 28.5882C6.82528 28.4292 6.72342 28.2116 6.70941 27.98L5.80941 13.457C5.80067 13.2192 5.88523 12.9874 6.04504 12.8111C6.20485 12.6347 6.42726 12.5279 6.66478 12.5132C6.90231 12.4986 7.13614 12.5774 7.31636 12.7328C7.49659 12.8882 7.60893 13.1079 7.62941 13.345L8.52941 27.868C8.53714 27.9877 8.52115 28.1077 8.48237 28.2212C8.4436 28.3347 8.38279 28.4394 8.30344 28.5294C8.2241 28.6193 8.12778 28.6927 8.02 28.7453C7.91223 28.7979 7.79513 28.8288 7.67541 28.836V28.836ZM13.0104 27.926C13.0026 28.1625 12.9031 28.3867 12.733 28.5513C12.5629 28.7158 12.3356 28.8078 12.0989 28.8078C11.8623 28.8078 11.6349 28.7158 11.4648 28.5513C11.2947 28.3867 11.1952 28.1625 11.1874 27.926V13.402C11.1952 13.1655 11.2947 12.9413 11.4648 12.7767C11.6349 12.6122 11.8623 12.5202 12.0989 12.5202C12.3356 12.5202 12.5629 12.6122 12.733 12.7767C12.9031 12.9413 13.0026 13.1655 13.0104 13.402V27.926ZM18.3644 13.456L17.5084 27.979C17.4949 28.211 17.3932 28.429 17.2243 28.5885C17.0553 28.748 16.8318 28.8369 16.5994 28.837H16.5454C16.3041 28.8226 16.0784 28.713 15.9179 28.5322C15.7574 28.3514 15.6752 28.1143 15.6894 27.873L16.5454 13.35C16.5666 13.1139 16.6788 12.8954 16.8584 12.7406C17.0379 12.5859 17.2707 12.5071 17.5073 12.521C17.7439 12.5349 17.9658 12.6404 18.126 12.8151C18.2862 12.9899 18.3721 13.2201 18.3654 13.457L18.3644 13.456Z" fill="#666666"/>
<path d="M23.7971 7.60494L23.1981 5.80494C23.121 5.57418 22.9733 5.37352 22.7759 5.23137C22.5785 5.08922 22.3413 5.01281 22.0981 5.01294H2.07807C1.83479 5.01281 1.59764 5.08922 1.40022 5.23137C1.20279 5.37352 1.0551 5.57418 0.978067 5.80494L0.380067 7.60494C0.342591 7.71796 0.33245 7.83825 0.350477 7.95595C0.368504 8.07364 0.414185 8.18539 0.48377 8.28201C0.553355 8.37862 0.644861 8.45737 0.750777 8.51176C0.856693 8.56616 0.973999 8.59467 1.09307 8.59494H23.0841C23.2256 8.59555 23.3644 8.55565 23.4841 8.47994C23.6272 8.39067 23.7362 8.2558 23.7933 8.09706C23.8504 7.93832 23.8525 7.76497 23.7991 7.60494H23.7971Z" fill="#666666"/>
</svg>
