<svg width="5" height="18" viewBox="0 0 5 18" fill="none" xmlns="http://www.w3.org/2000/svg">
<path d="M4.61133 9.05703C4.61133 8.65039 4.49075 8.25289 4.26483 7.91478C4.03891 7.57667 3.71781 7.31315 3.34213 7.15754C2.96644 7.00192 2.55305 6.96121 2.15422 7.04054C1.7554 7.11987 1.38905 7.31568 1.10152 7.60322C0.81398 7.89076 0.618165 8.2571 0.538834 8.65593C0.459502 9.05475 0.500218 9.46814 0.655832 9.84383C0.811446 10.2195 1.07497 10.5406 1.41308 10.7665C1.75118 10.9924 2.14869 11.113 2.55533 11.113C3.10013 11.1114 3.62216 10.8943 4.00739 10.5091C4.39262 10.1239 4.60975 9.60183 4.61133 9.05703V9.05703ZM4.61133 15.225C4.61133 14.8184 4.49075 14.4209 4.26483 14.0828C4.03891 13.7447 3.71781 13.4811 3.34213 13.3255C2.96644 13.1699 2.55305 13.1292 2.15422 13.2085C1.7554 13.2879 1.38905 13.4837 1.10152 13.7712C0.81398 14.0588 0.618165 14.4251 0.538834 14.8239C0.459502 15.2228 0.500218 15.6361 0.655832 16.0118C0.811446 16.3875 1.07497 16.7086 1.41308 16.9345C1.75118 17.1604 2.14869 17.281 2.55533 17.281C3.10013 17.2794 3.62216 17.0623 4.00739 16.6771C4.39262 16.2919 4.60975 15.7698 4.61133 15.225V15.225ZM4.61133 2.88803C4.61133 2.48139 4.49075 2.08389 4.26483 1.74578C4.03891 1.40767 3.71781 1.14415 3.34213 0.988536C2.96644 0.832922 2.55305 0.792206 2.15422 0.871538C1.7554 0.950869 1.38905 1.14668 1.10152 1.43422C0.81398 1.72176 0.618165 2.0881 0.538834 2.48693C0.459502 2.88575 0.500218 3.29914 0.655832 3.67483C0.811446 4.05051 1.07497 4.37162 1.41308 4.59753C1.75118 4.82345 2.14869 4.94403 2.55533 4.94403C3.10013 4.94245 3.62216 4.72533 4.00739 4.3401C4.39262 3.95486 4.60975 3.43283 4.61133 2.88803V2.88803Z" fill="#666666"/>
</svg>
