<svg width="31" height="31" viewBox="0 0 31 31" fill="none" xmlns="http://www.w3.org/2000/svg">
<path d="M24.0862 15.438C23.9233 15.4379 23.762 15.4698 23.6115 15.5321C23.461 15.5944 23.3243 15.6857 23.2091 15.8009C23.0939 15.9161 23.0026 16.0528 22.9403 16.2033C22.8781 16.3538 22.8461 16.5151 22.8462 16.678V26.595C22.8459 26.9238 22.7152 27.239 22.4827 27.4715C22.2502 27.704 21.935 27.8347 21.6062 27.835H4.2522C3.92342 27.8347 3.60817 27.704 3.37568 27.4715C3.1432 27.239 3.01247 26.9238 3.0122 26.595V9.24C3.01247 8.91121 3.1432 8.59596 3.37568 8.36347C3.60817 8.13098 3.92342 8.00026 4.2522 7.99999H14.1692C14.4918 7.99083 14.7982 7.85622 15.0232 7.62477C15.2481 7.39332 15.374 7.08326 15.374 6.76049C15.374 6.43772 15.2481 6.12767 15.0232 5.89622C14.7982 5.66477 14.4918 5.53016 14.1692 5.521H4.2522C3.26619 5.52205 2.32086 5.91422 1.62364 6.61143C0.926424 7.30865 0.534262 8.25398 0.533203 9.24L0.533203 26.595C0.534262 27.581 0.926424 28.5263 1.62364 29.2236C2.32086 29.9208 3.26619 30.3129 4.2522 30.314H21.6072C22.5932 30.3129 23.5385 29.9208 24.2358 29.2236C24.933 28.5263 25.3251 27.581 25.3262 26.595V16.678C25.3263 16.5151 25.2944 16.3538 25.2321 16.2033C25.1698 16.0528 25.0785 15.9161 24.9633 15.8009C24.8481 15.6857 24.7114 15.5944 24.5609 15.5321C24.4104 15.4698 24.2491 15.4379 24.0862 15.438V15.438Z" fill="#666666"/>
<path d="M12.1558 14.516C12.0696 14.6025 12.0105 14.7124 11.9858 14.832L11.1098 19.215C11.0917 19.305 11.0939 19.3979 11.1161 19.487C11.1384 19.5761 11.1802 19.6591 11.2384 19.73C11.2967 19.801 11.3701 19.858 11.4532 19.8971C11.5363 19.9362 11.627 19.9563 11.7188 19.956C11.7594 19.9562 11.8 19.9522 11.8398 19.944L16.2218 19.068C16.342 19.0441 16.4524 18.9849 16.5388 18.898L26.3468 9.09L21.9648 4.70801L12.1558 14.516Z" fill="#666666"/>
<path d="M29.3773 1.67793C28.796 1.0972 28.0079 0.770996 27.1863 0.770996C26.3646 0.770996 25.5766 1.0972 24.9953 1.67793L23.2793 3.39393L27.6613 7.77593L29.3773 6.05993C29.958 5.47866 30.2842 4.6906 30.2842 3.86893C30.2842 3.04727 29.958 2.25921 29.3773 1.67793V1.67793Z" fill="#666666"/>
</svg>
