<svg xmlns="http://www.w3.org/2000/svg" width="27.959" height="27.959" viewBox="0 0 27.959 27.959">
  <path id="listalt" d="M24.478,27.958H3.509a3.369,3.369,0,0,1-2.471-1.024A3.361,3.361,0,0,1,.015,24.463V3.5A3.369,3.369,0,0,1,1.039,1.024,3.363,3.363,0,0,1,3.51,0H24.479A3.369,3.369,0,0,1,26.95,1.024,3.363,3.363,0,0,1,27.974,3.5V24.464a3.5,3.5,0,0,1-3.5,3.5ZM26.226,6.989a1.771,1.771,0,0,0-1.747-1.747H3.51a1.679,1.679,0,0,0-1.228.519,1.679,1.679,0,0,0-.519,1.228V24.463a1.667,1.667,0,0,0,.519,1.242,1.7,1.7,0,0,0,1.228.505H24.479a1.7,1.7,0,0,0,1.228-.505,1.667,1.667,0,0,0,.519-1.242V6.989ZM23.6,24.463H9.626a.874.874,0,0,1,0-1.748H23.6a.874.874,0,0,1,0,1.748Zm0-6.989H9.626a.874.874,0,0,1,0-1.748H23.6a.874.874,0,0,1,0,1.748Zm0-6.989H9.626a.874.874,0,0,1,0-1.748H23.6a.874.874,0,0,1,0,1.748ZM6.131,24.463H4.383a.887.887,0,0,1-.874-.874V21.842a.887.887,0,0,1,.874-.874H6.131A.887.887,0,0,1,7,21.842V23.59a.887.887,0,0,1-.874.874Zm0-6.989H4.383a.887.887,0,0,1-.874-.874V14.853a.887.887,0,0,1,.874-.874H6.131A.887.887,0,0,1,7,14.853V16.6a.887.887,0,0,1-.874.874Zm0-6.989H4.383a.887.887,0,0,1-.874-.874V7.863a.887.887,0,0,1,.874-.874H6.131A.887.887,0,0,1,7,7.863V9.611a.887.887,0,0,1-.874.874Z" transform="translate(-0.015)" fill="#bcbcbc"/>
</svg>
