<svg xmlns="http://www.w3.org/2000/svg" width="12.995" height="15.321" viewBox="0 0 12.995 15.321">
  <path id="Path_19131" data-name="Path 19131" d="M661.763,228.448c-2.907-1.7-8.865-.564-11.413.933.807,4.3,1.66,11.35,2.154,12.873a.846.846,0,0,0,.262.392l.02.016a1.21,1.21,0,0,0,1.063.217c2.316-.6,5.435-3.565,7.62-6.722a11.416,11.416,0,0,0,1.843-4.45,3.233,3.233,0,0,0-1.549-3.26m-5.677,10.931a4.679,4.679,0,0,1-1.472-.235,4.35,4.35,0,0,1,1.861-8.281,4.4,4.4,0,0,1,.577.038q.117.016.231.037a1.144,1.144,0,0,1,.586.289.743.743,0,0,1,.093,1.052q-.026.031-.054.06a.843.843,0,0,1-.405.224.644.644,0,0,1-.242.006c-.081-.012-.161-.034-.245-.053a3.168,3.168,0,0,0-.523-.075c-.064,0-.128-.006-.193-.006a3.165,3.165,0,0,0-1.564,5.916,3.5,3.5,0,0,0,4.719-4.879,3.412,3.412,0,0,1,.825,2.206,3.972,3.972,0,0,1-4.194,3.7m6.152-6.608a.466.466,0,0,1-.932,0v-1.687c-1.809,1.643-3.566,3.188-5.141,4.4l4.45-5.045h-1.743a.482.482,0,0,1,0-.964h2.937a.429.429,0,0,1,.429.429Z" transform="translate(-650.35 -227.599)" fill="#da1e37"/>
</svg>
