<svg width="45" height="45" viewBox="0 0 45 45" fill="none" xmlns="http://www.w3.org/2000/svg">
<circle cx="22.5" cy="22.5" r="22.5" fill="#E4F5F1"/>
<path d="M21.5029 12.2041C22.7585 11.8543 24.1403 11.9539 25.3255 12.5053C27.0376 13.2973 28.298 15.0246 28.4632 16.9147C28.6671 18.6639 27.9556 20.4859 26.615 21.6302C25.2405 22.8619 23.2078 23.2992 21.4447 22.7574C19.0623 22.1063 17.3258 19.6502 17.5323 17.1844C17.5978 14.8934 19.3027 12.7993 21.5029 12.2041ZM22.2072 14.2958C20.6262 14.6554 19.5067 16.3074 19.7447 17.9083C19.9171 19.5506 21.4908 20.8844 23.1398 20.7726C25.0486 20.7605 26.6223 18.8169 26.2483 16.9439C25.9933 15.1048 23.9946 13.7978 22.2072 14.2958Z" fill="#0097A7"/>
<path d="M12.0194 16.2903C11.9976 15.5518 12.0097 14.8108 12.0389 14.0723C14.2731 14.2496 16.3544 16.0911 16.4564 18.3893C16.6045 20.8357 14.4067 22.9858 12.0121 23.0684C12.0146 22.3444 12.0073 21.6204 12 20.8965C13.1414 20.7386 14.227 19.8543 14.2634 18.642C14.2804 17.3981 13.2021 16.4336 12.0194 16.2903Z" fill="#0097A7"/>
<path d="M29.5906 19.0913C29.219 16.5453 31.4435 14.0746 34.0081 14.145C33.9959 14.8617 33.9862 15.5784 33.9838 16.2951C32.9638 16.4068 31.9608 17.0846 31.8005 18.1535C31.4654 19.5286 32.6578 20.8089 34.0008 20.8915C33.9935 21.6106 33.9887 22.3297 33.9887 23.0488C31.8054 23.0415 29.7848 21.285 29.5906 19.0913Z" fill="#0097A7"/>
<path d="M17.6226 25.5389C18.6766 25.1527 19.818 25.2013 20.923 25.1891C22.7954 25.211 24.6702 25.16 26.5426 25.2134C28.9493 25.2547 31.1982 26.8022 32.2376 28.9498C33.0074 30.5144 32.9079 32.3024 32.8981 33.9957C32.1647 33.9981 31.4337 33.9981 30.7003 33.9933C30.6809 32.4749 30.8946 30.8107 30.0252 29.4673C29.2626 28.1724 27.7788 27.3707 26.2876 27.3804C24.0995 27.3756 21.9114 27.3731 19.7257 27.3804C18.1666 27.3707 16.6293 28.2453 15.8789 29.6203C15.0945 30.9419 15.3592 32.5356 15.3131 33.9981C14.5796 34.0006 13.8486 34.0006 13.1152 33.9981C13.1517 32.5283 12.9404 31.0027 13.4601 29.5912C14.1474 27.7084 15.7186 26.1682 17.6226 25.5389Z" fill="#0097A7"/>
</svg>
