<svg id="playstore" xmlns="http://www.w3.org/2000/svg" width="29.606" height="32.606" viewBox="0 0 29.606 32.606">
  <g id="Group_50" data-name="Group 50" transform="translate(0 0.001)">
    <path id="Path_147" data-name="Path 147" d="M69.258,11.2C65.47,9.077,59.391,5.675,49.961.4a2.274,2.274,0,0,0-2-.261L64.141,16.313Z" transform="translate(-46.407 -0.012)" fill="#32bbff"/>
    <path id="Path_148" data-name="Path 148" d="M25.1,1.93a2.325,2.325,0,0,0-.344.147A2.275,2.275,0,0,0,23.549,4.1V32.118A2.275,2.275,0,0,0,24.76,34.14a2.353,2.353,0,0,0,.344.147L41.282,18.109Z" transform="translate(-23.549 -1.808)" fill="#32bbff"/>
    <path id="Path_149" data-name="Path 149" d="M64.135,255.98,47.956,272.159a2.25,2.25,0,0,0,2-.261c9.145-5.121,15.156-8.482,18.987-10.619l.314-.177Z" transform="translate(-46.402 -239.679)" fill="#32bbff"/>
  </g>
  <path id="Path_150" data-name="Path 150" d="M23.549,255.98v14.009a2.275,2.275,0,0,0,1.211,2.023,2.355,2.355,0,0,0,.344.147L41.282,255.98Z" transform="translate(-23.549 -239.678)" fill="#2c9fd9"/>
  <path id="Path_151" data-name="Path 151" d="M44.9.384A2.281,2.281,0,0,0,42.561.27L58.838,16.547,64.2,11.184C60.413,9.066,54.334,5.664,44.9.384Z" transform="translate(-41.35 0)" fill="#29cc5e"/>
  <path id="Path_152" data-name="Path 152" d="M58.838,252.126,42.561,268.4a2.265,2.265,0,0,0,2.343-.114c9.145-5.121,15.156-8.482,18.987-10.619l.314-.177Z" transform="translate(-41.35 -236.07)" fill="#d93f21"/>
  <path id="Path_153" data-name="Path 153" d="M306.667,178.151a2.269,2.269,0,0,0-1.168-1.994s-1.452-.81-5.9-3.3l-5.294,5.294,5.3,5.3c4.4-2.471,5.9-3.3,5.9-3.3A2.269,2.269,0,0,0,306.667,178.151Z" transform="translate(-277.06 -161.849)" fill="#ffd500"/>
  <path id="Path_154" data-name="Path 154" d="M305.5,257.974a2.269,2.269,0,0,0,1.168-1.994H294.3l5.3,5.3C304,258.807,305.5,257.974,305.5,257.974Z" transform="translate(-277.061 -239.678)" fill="#fa0"/>
</svg>
