<svg width="57" height="57" viewBox="0 0 57 57" fill="none" xmlns="http://www.w3.org/2000/svg">
<g filter="url(#filter0_d_1_310)">
<path d="M28.998 50.002C41.1483 50.002 50.998 40.1522 50.998 28.002C50.998 15.8517 41.1483 6.00195 28.998 6.00195C16.8478 6.00195 6.99805 15.8517 6.99805 28.002C6.99805 40.1522 16.8478 50.002 28.998 50.002Z" fill="white"/>
<path d="M28.998 49.002C40.596 49.002 49.998 39.5999 49.998 28.002C49.998 16.404 40.596 7.00195 28.998 7.00195C17.4001 7.00195 7.99805 16.404 7.99805 28.002C7.99805 39.5999 17.4001 49.002 28.998 49.002Z" stroke="#E22424" stroke-width="2"/>
</g>
<path d="M21.6489 28.0669H35.1069" stroke="#E22424" stroke-width="2" stroke-linecap="round"/>
<path d="M28.3779 21.8188V33.8348" stroke="#E22424" stroke-width="2" stroke-linecap="round"/>
<defs>
<filter id="filter0_d_1_310" x="0.998047" y="0.00195312" width="56" height="56" filterUnits="userSpaceOnUse" color-interpolation-filters="sRGB">
<feFlood flood-opacity="0" result="BackgroundImageFix"/>
<feColorMatrix in="SourceAlpha" type="matrix" values="0 0 0 0 0 0 0 0 0 0 0 0 0 0 0 0 0 0 127 0" result="hardAlpha"/>
<feOffset/>
<feGaussianBlur stdDeviation="3"/>
<feColorMatrix type="matrix" values="0 0 0 0 0 0 0 0 0 0 0 0 0 0 0 0 0 0 0.102 0"/>
<feBlend mode="normal" in2="BackgroundImageFix" result="effect1_dropShadow_1_310"/>
<feBlend mode="normal" in="SourceGraphic" in2="effect1_dropShadow_1_310" result="shape"/>
</filter>
</defs>
</svg>
