<svg width="52" height="52" viewBox="0 0 52 52" fill="none" xmlns="http://www.w3.org/2000/svg">
<path d="M24.595 10.8178C22.223 11.7788 16.729 14.0998 14.024 14.6568C13.734 14.7173 13.4738 14.876 13.2873 15.1061C13.1007 15.3362 12.9993 15.6236 13 15.9198V23.7428C13 26.7721 13.675 29.7633 14.976 32.4989C16.277 35.2346 18.1712 37.646 20.521 39.5578L21.99 40.7528C22.9885 41.5647 24.2361 42.0079 25.523 42.0079C26.8099 42.0079 28.0575 41.5647 29.056 40.7528L30.525 39.5578C32.8749 37.6459 34.7692 35.2343 36.0701 32.4984C37.3711 29.7626 38.0461 26.7712 38.046 23.7418V15.9188C38.0465 15.6228 37.9449 15.3356 37.7584 15.1057C37.5719 14.8758 37.3118 14.7173 37.022 14.6568C34.322 14.1008 28.822 11.7788 26.451 10.8178C25.8555 10.5764 25.1895 10.5764 24.594 10.8178H24.595Z" fill="url(#paint0_linear_585_183)"/>
<path d="M25.5244 36.7362C31.277 36.7362 35.9404 32.0733 35.9404 26.3212C35.9404 20.5692 31.277 15.9062 25.5244 15.9062C19.7718 15.9062 15.1084 20.5692 15.1084 26.3212C15.1084 32.0733 19.7718 36.7362 25.5244 36.7362Z" fill="url(#paint1_linear_585_183)"/>
<path d="M34.7653 26.3184C34.7668 27.6428 34.483 28.9519 33.9332 30.1567C33.3835 31.3615 32.5806 32.4337 31.5793 33.3004C29.9573 34.7084 27.8403 34.7004 25.5243 34.7004C23.2313 34.7004 21.1333 34.7264 19.5183 33.3444C18.3397 32.3371 17.4336 31.0494 16.8832 29.6C16.3328 28.1506 16.1559 26.586 16.3688 25.0503C16.5816 23.5146 17.1774 22.0571 18.1012 20.8121C19.0251 19.567 20.2473 18.5743 21.6553 17.9255C23.0634 17.2766 24.6121 16.9924 26.1588 17.099C27.7055 17.2056 29.2006 17.6997 30.5063 18.5356C31.812 19.3715 32.8865 20.5225 33.6307 21.8825C34.375 23.2426 34.7651 24.768 34.7653 26.3184V26.3184Z" fill="url(#paint2_linear_585_183)"/>
<path d="M25.5438 18.5051C24.9863 18.495 24.4324 18.5973 23.9152 18.8059C23.3981 19.0146 22.9283 19.3254 22.534 19.7196C22.1396 20.1139 21.8288 20.5836 21.62 21.1007C21.4112 21.6177 21.3088 22.1716 21.3188 22.7291C21.2986 23.3294 21.4064 23.927 21.6351 24.4824C21.8637 25.0377 22.2079 25.5381 22.6448 25.9501L30.0998 33.4051C30.4118 33.1941 31.2948 33.5481 31.5778 33.3051C32.5793 32.4385 33.3824 31.3663 33.9323 30.1615C34.4823 28.9567 34.7662 27.6475 34.7648 26.3231C34.7648 26.1538 34.7601 25.9871 34.7508 25.8231L28.7648 19.8371C28.3533 19.3991 27.8532 19.0538 27.2978 18.8241C26.7424 18.5945 26.1445 18.4857 25.5438 18.5051Z" fill="url(#paint3_linear_585_183)"/>
<path d="M25.5244 27.044C27.918 27.044 29.8584 25.1036 29.8584 22.71C29.8584 20.3164 27.918 18.376 25.5244 18.376C23.1308 18.376 21.1904 20.3164 21.1904 22.71C21.1904 25.1036 23.1308 27.044 25.5244 27.044Z" fill="url(#paint4_linear_585_183)"/>
<path d="M31.2731 30.0376C31.5465 30.2129 31.7749 30.4498 31.9402 30.7293C32.1056 31.0087 32.2032 31.323 32.2252 31.647C32.2473 31.9709 32.1932 32.2956 32.0673 32.5949C31.9414 32.8942 31.7472 33.1598 31.5002 33.3706L31.4631 33.4016C29.7907 34.8049 27.6755 35.5707 25.4923 35.5634C23.3092 35.556 21.1991 34.776 19.5361 33.3616L19.5171 33.3456C19.2716 33.134 19.079 32.8678 18.9547 32.5685C18.8304 32.2691 18.7779 31.9448 18.8013 31.6215C18.8247 31.2982 18.9235 30.9849 19.0896 30.7066C19.2558 30.4282 19.4847 30.1926 19.7581 30.0186C21.4802 28.9253 23.4786 28.3463 25.5184 28.3496C27.5582 28.353 29.5547 28.9386 31.2731 30.0376V30.0376Z" fill="url(#paint5_linear_585_183)"/>
<defs>
<linearGradient id="paint0_linear_585_183" x1="14.2773" y1="12.519" x2="41.2561" y2="29.7271" gradientUnits="userSpaceOnUse">
<stop stop-color="#7FAEF4"/>
<stop offset="1" stop-color="#4C8DF1"/>
</linearGradient>
<linearGradient id="paint1_linear_585_183" x1="34.0239" y1="34.8199" x2="17.1516" y2="17.946" gradientUnits="userSpaceOnUse">
<stop stop-color="#7FAEF4"/>
<stop offset="1" stop-color="#4C8DF1"/>
</linearGradient>
<linearGradient id="paint2_linear_585_183" x1="23.3791" y1="24.1793" x2="30.5273" y2="32.0451" gradientUnits="userSpaceOnUse">
<stop stop-color="#4166BF"/>
<stop offset="1" stop-color="#4256AC"/>
</linearGradient>
<linearGradient id="paint3_linear_585_183" x1="32.492" y1="29.6796" x2="23.028" y2="21.9598" gradientUnits="userSpaceOnUse">
<stop stop-color="#4256AC" stop-opacity="0"/>
<stop offset="1" stop-color="#1B1464"/>
</linearGradient>
<linearGradient id="paint4_linear_585_183" x1="13.0078" y1="10.1934" x2="34.3831" y2="31.5687" gradientUnits="userSpaceOnUse">
<stop stop-color="#EBEFF0"/>
<stop offset="1" stop-color="#E3E5E4"/>
</linearGradient>
<linearGradient id="paint5_linear_585_183" x1="24.1427" y1="29.3307" x2="24.9613" y2="34.4327" gradientUnits="userSpaceOnUse">
<stop stop-color="#EBEFF0"/>
<stop offset="1" stop-color="#E3E5E4"/>
</linearGradient>
</defs>
</svg>
