<svg xmlns="http://www.w3.org/2000/svg" width="26.56" height="26.56" viewBox="0 0 26.56 26.56">
  <g id="svg-gobbler_2_" data-name="svg-gobbler (2)" transform="translate(-0.001 0)">
    <path id="Path_21597" data-name="Path 21597" d="M16.356,6.941a6.7,6.7,0,0,0-4.708-1.967A6.553,6.553,0,0,0,6.941,6.941a6.675,6.675,0,0,0,4.708,11.383,6.553,6.553,0,0,0,4.708-1.967,6.7,6.7,0,0,0,1.967-4.708A6.553,6.553,0,0,0,16.356,6.941Z" transform="translate(1.632 1.631)" fill="#666"/>
    <path id="Path_21598" data-name="Path 21598" d="M10.226,4.532a.93.93,0,0,0,.914-.913V.913a.913.913,0,0,0-1.827,0V3.619A.93.93,0,0,0,10.226,4.532Z" transform="translate(3.055 0)" fill="#666"/>
    <path id="Path_21599" data-name="Path 21599" d="M16.012,6.2l1.932-1.932A.894.894,0,0,0,16.68,3L14.748,4.934A.894.894,0,0,0,16.012,6.2Z" transform="translate(4.751 0.898)" fill="#666"/>
    <path id="Path_21600" data-name="Path 21600" d="M20.206,9.312H17.5a.913.913,0,0,0,0,1.827h2.705a.913.913,0,0,0,0-1.827Z" transform="translate(5.441 3.054)" fill="#666"/>
    <path id="Path_21601" data-name="Path 21601" d="M15.986,14.721a.894.894,0,0,0-1.265,1.265l1.932,1.932a.894.894,0,1,0,1.265-1.265Z" transform="translate(4.743 4.742)" fill="#666"/>
    <path id="Path_21602" data-name="Path 21602" d="M10.226,16.587a.93.93,0,0,0-.913.913v2.705a.913.913,0,0,0,1.827,0V17.5A.93.93,0,0,0,10.226,16.587Z" transform="translate(3.055 5.441)" fill="#666"/>
    <path id="Path_21603" data-name="Path 21603" d="M4.907,14.721,2.975,16.653A.894.894,0,0,0,4.24,17.918l1.932-1.932a.894.894,0,0,0-1.265-1.265Z" transform="translate(0.89 4.742)" fill="#666"/>
    <path id="Path_21604" data-name="Path 21604" d="M4.532,10.226a.93.93,0,0,0-.913-.913H.913a.913.913,0,0,0,0,1.827H3.619A.93.93,0,0,0,4.532,10.226Z" transform="translate(0.001 3.054)" fill="#666"/>
    <path id="Path_21605" data-name="Path 21605" d="M4.907,6.2A.894.894,0,0,0,6.172,4.934L4.24,3A.894.894,0,0,0,2.975,4.266Z" transform="translate(0.89 0.898)" fill="#666"/>
  </g>
</svg>
