<svg xmlns="http://www.w3.org/2000/svg" width="163.508" height="100.817" viewBox="0 0 163.508 100.817">
  <g id="Group_18931" data-name="Group 18931" transform="translate(3826.161 1528.031)">
    <path id="Path_21105" data-name="Path 21105" d="M1691.236,288.041l2.794,1.921c.176.02.282-.111.547-.434.474-.577.948-1.155,1.442-1.715a.482.482,0,0,1,.391-.115c.717.146,1.424.336,2.142.475.222.043.33.1.388.332.237.924.5,1.842.751,2.752a10.447,10.447,0,0,0,3.654-.641c-.08-.906-.148-1.832-.252-2.755a.459.459,0,0,1,.3-.553,19.087,19.087,0,0,0,1.789-1.135.527.527,0,0,1,.676-.072c.713.429,1.452.814,2.173,1.231.194.112.336.114.466-.071q.914-1.307,1.826-2.615c.15-.214-.034-.313-.155-.418-.612-.527-1.222-1.058-1.851-1.565a.523.523,0,0,1-.2-.654c.224-.783.4-1.58.605-2.433l2.937-.82a10.9,10.9,0,0,0-.675-3.627l-2.978.252c-.543-.807-1.03-1.565-1.558-2.292a.411.411,0,0,1-.031-.54c.412-.709.8-1.432,1.209-2.144.088-.154.134-.273-.02-.416a10.426,10.426,0,0,0-2.562-1.826.328.328,0,0,0-.464.11c-.545.645-1.1,1.28-1.645,1.927a.381.381,0,0,1-.458.154c-.781-.188-1.572-.342-2.365-.475a.323.323,0,0,1-.3-.285c-.257-.919-.521-1.837-.789-2.779a11.689,11.689,0,0,0-3.593.63l.262,3.1-2.573,1.644c-.639-.355-1.371-.77-2.111-1.172-.607-.33-.492-.4-.973.167a1.13,1.13,0,0,1-.167.135l-1.083,1.574a2.218,2.218,0,0,1-.18.39.469.469,0,0,0,.118.757c.654.514,1.275,1.069,1.9,1.622a.441.441,0,0,1,.115.351c-.132.707-.325,1.4-.419,2.116a.54.54,0,0,1-.489.538c-.875.227-1.741.491-2.7.765.213,1.217.422,2.4.632,3.605.231-.015.364-.022.5-.033.817-.069,1.635-.131,2.451-.215a.412.412,0,0,1,.452.25c.415.66.872,1.293,1.292,1.95a.488.488,0,0,1,.012.412c-.312.6-.656,1.175-.98,1.765C1691.217,287.648,1691.121,287.827,1691.236,288.041Zm5.07-4.531a5.487,5.487,0,0,1-1.413-7.63h0a5.487,5.487,0,0,1,7.63-1.413h0a5.487,5.487,0,0,1,1.413,7.63h0a5.487,5.487,0,0,1-7.63,1.413Z" transform="translate(-5426.043 -1787.68)" fill="#9bc1f9"/>
    <path id="Path_21106" data-name="Path 21106" d="M2174.721,441.932l1.346,5.909c.207.24.5.2,1.243.092,1.323-.185,2.645-.369,3.973-.507a.862.862,0,0,1,.653.322c.764,1.06,1.465,2.166,2.239,3.218a.708.708,0,0,1,.11.907c-.808,1.5-1.574,3.027-2.347,4.526a18.672,18.672,0,0,0,5.579,3.583c.992-1.287,2.024-2.588,3-3.926a.822.822,0,0,1,1.062-.367,34.159,34.159,0,0,0,3.726.675c.506.069.814.174.975.724.417,1.428.922,2.829,1.365,4.25.118.382.3.558.7.471q2.785-.611,5.567-1.225c.457-.1.335-.453.3-.737-.166-1.435-.325-2.872-.539-4.3a.935.935,0,0,1,.534-1.1c1.243-.758,2.436-1.6,3.742-2.465l4.854,2.478a19.48,19.48,0,0,0,3.5-5.585l-4.219-3.275c.264-1.718.542-3.3.728-4.9a.734.734,0,0,1,.615-.747c1.4-.433,2.788-.911,4.186-1.354.3-.1.506-.2.477-.571a18.625,18.625,0,0,0-1.156-5.5.586.586,0,0,0-.743-.418c-1.5.188-3,.347-4.5.54a.68.68,0,0,1-.787-.352c-.8-1.193-1.653-2.354-2.533-3.49a.579.579,0,0,1-.055-.743c.776-1.52,1.541-3.045,2.329-4.607a20.889,20.889,0,0,0-5.487-3.523l-3.413,4.4-5.374-.957c-.409-1.241-.87-2.673-1.355-4.1-.4-1.169-.168-1.116-1.48-.959a2.057,2.057,0,0,1-.384-.025l-3.33.759a4.08,4.08,0,0,1-.709.294c-.641.136-.876.433-.763,1.137.238,1.467.383,2.95.53,4.43a.79.79,0,0,1-.273.6c-1.03.77-2.129,1.453-3.114,2.274a.966.966,0,0,1-1.294.115c-1.426-.761-2.883-1.463-4.472-2.261l-3.536,5.5c.322.26.5.412.692.558,1.158.9,2.309,1.808,3.482,2.686a.737.737,0,0,1,.292.876c-.254,1.37-.42,2.756-.664,4.127a.873.873,0,0,1-.484.557c-1.132.406-2.286.749-3.426,1.133C2175.171,441.393,2174.83,441.511,2174.721,441.932Zm12.152.185a9.808,9.808,0,0,1,7.385-11.742h0A9.808,9.808,0,0,1,2206,437.759h0a9.808,9.808,0,0,1-7.385,11.742h0a9.809,9.809,0,0,1-11.742-7.384Z" transform="translate(-5885.833 -1930.465)" fill="#f7cc7f"/>
    <path id="Path_21107" data-name="Path 21107" d="M2154.274,200l1.7,1.17c.107.012.171-.068.333-.264.289-.352.578-.7.879-1.045a.294.294,0,0,1,.238-.07c.436.089.868.2,1.305.29.135.026.2.061.237.2.145.563.3,1.122.457,1.677a6.366,6.366,0,0,0,2.227-.39c-.049-.552-.091-1.116-.154-1.678a.279.279,0,0,1,.181-.337,11.612,11.612,0,0,0,1.09-.691.321.321,0,0,1,.412-.044c.435.261.885.5,1.324.75.118.068.205.07.284-.043l1.112-1.593c.091-.131-.021-.191-.094-.255-.374-.321-.745-.645-1.128-.953a.318.318,0,0,1-.119-.4c.137-.477.242-.963.368-1.482l1.79-.5a6.64,6.64,0,0,0-.411-2.21l-1.815.154c-.331-.492-.627-.954-.95-1.4a.25.25,0,0,1-.018-.329c.251-.432.489-.872.737-1.306.054-.094.081-.167-.012-.253a6.349,6.349,0,0,0-1.561-1.113.2.2,0,0,0-.283.067c-.332.393-.672.78-1,1.174a.232.232,0,0,1-.279.094c-.476-.114-.958-.208-1.441-.29a.2.2,0,0,1-.185-.174c-.156-.56-.317-1.119-.48-1.693a7.124,7.124,0,0,0-2.19.384c.054.642.108,1.28.16,1.891l-1.568,1c-.389-.217-.836-.469-1.287-.714-.37-.2-.3-.241-.593.1a.684.684,0,0,1-.1.083l-.66.959a1.369,1.369,0,0,1-.11.238.286.286,0,0,0,.071.461c.4.313.778.651,1.156.988a.268.268,0,0,1,.071.214c-.08.431-.2.856-.255,1.29a.33.33,0,0,1-.3.328c-.534.139-1.061.3-1.644.466.13.742.257,1.465.385,2.2.141-.009.222-.013.3-.02.5-.042,1-.08,1.494-.131a.252.252,0,0,1,.276.152c.252.4.531.788.786,1.188a.3.3,0,0,1,.008.251c-.19.363-.4.716-.6,1.075C2154.262,199.762,2154.2,199.87,2154.274,200Zm3.09-2.761a3.344,3.344,0,0,1-.861-4.65h0a3.344,3.344,0,0,1,4.65-.861h0a3.344,3.344,0,0,1,.861,4.65h0a3.344,3.344,0,0,1-4.65.861Z" transform="translate(-5864.19 -1712.479)" fill="#96d9c9"/>
    <path id="Path_21108" data-name="Path 21108" d="M467.8,279.395s-16.692-8.23-19.562-12.523,1.349-4.536,1.349-4.536-7.449-7.244-6.4-10.294,4.907-.253,4.907-.253-4.79-10.662-2.531-11.733c4.206-2,10.107,9.475,10.107,9.475s-1.268-4.983,1.628-4.821c4.368.244,4.188,11.517,4.188,11.517s.493-4.322,3.126-2.918C469.331,255.827,467.8,279.395,467.8,279.395Z" transform="translate(-4252.943 -1762.225)" fill="#3c8f7c"/>
    <path id="Path_21109" data-name="Path 21109" d="M506.507,251.565c-2.056-1.141-4.1,2.194-4.1,2.194s.207-8.8-4.161-9.049c-2.9-.162-1.628,4.821-1.628,4.821s-5.9-11.471-10.107-9.475l22.258,39.156C508.922,276.477,510.58,253.825,506.507,251.565Z" transform="translate(-4293.892 -1762.225)" fill="#50bfa5"/>
    <path id="Path_21110" data-name="Path 21110" d="M375.459,645.147s-13.652,1.7-17.186.185-1-3.377-1-3.377-7.59-1.492-8.175-3.82,2.916-2.142,2.916-2.142-7.278-4.713-6.3-6.3c1.813-2.954,10.154,1.8,10.154,1.8s-2.816-2.593-.943-3.669c2.824-1.622,7.292,5.482,7.292,5.482s-.278-1.751,1.935-1.945C368.115,631.015,375.459,645.147,375.459,645.147Z" transform="translate(-4161.037 -2127.875)" fill="#3c8f7c"/>
    <path id="Path_21111" data-name="Path 21111" d="M365.715,608.865c-2.213.194-2.025,3.218-2.025,3.218s-4.549-8.422-7.373-6.8c-1.873,1.076.343,4.61.343,4.61s-7.661-4.381-9.473-1.427l29.793,15.378C375.967,622.076,369.423,608.54,365.715,608.865Z" transform="translate(-4162.518 -2106.649)" fill="#50bfa5"/>
    <path id="Path_21112" data-name="Path 21112" d="M1258.068,391.327h-44.489v-9.393a9.1,9.1,0,0,1,9.092-9.093h26.3a9.1,9.1,0,0,1,9.093,9.093Zm-40.538-3.951h36.586v-5.441a5.147,5.147,0,0,0-5.141-5.141h-26.3a5.147,5.147,0,0,0-5.141,5.141Z" transform="translate(-4979.502 -1887.659)" fill="#f47458"/>
    <path id="Rectangle_7141" data-name="Rectangle 7141" d="M2.509,0H7.085A2.509,2.509,0,0,1,9.595,2.509v0A2.509,2.509,0,0,1,7.085,5.019H2.509A2.509,2.509,0,0,1,0,2.509v0A2.509,2.509,0,0,1,2.509,0Z" transform="translate(-3768.745 -1503.209)" fill="#b75742"/>
    <rect id="Rectangle_7142" data-name="Rectangle 7142" width="9.595" height="5.019" rx="2.509" transform="translate(-3728.207 -1503.209)" fill="#b75742"/>
    <path id="Rectangle_7143" data-name="Rectangle 7143" d="M0,0H104.29a0,0,0,0,1,0,0V29.015a43.8,43.8,0,0,1-43.8,43.8H43.8A43.8,43.8,0,0,1,0,29.015V0A0,0,0,0,1,0,0Z" transform="translate(-3797.244 -1500.283)" fill="#b75742"/>
    <path id="Path_21113" data-name="Path 21113" d="M725.747,655.5l-29.774,3.412a193.845,193.845,0,0,1-44.144,0L622.055,655.5a3.244,3.244,0,0,1-2.875-3.223V621.59a3.244,3.244,0,0,1,3.244-3.244H725.378a3.244,3.244,0,0,1,3.244,3.244v30.69A3.244,3.244,0,0,1,725.747,655.5Z" transform="translate(-4419 -2119.163)" fill="#50bfa5"/>
    <path id="Path_21114" data-name="Path 21114" d="M768.636,701.51V664.47a3.254,3.254,0,0,0-.668-.069H665.014a3.251,3.251,0,0,0-.668.069v37.04c.1.021.2.037.3.048l29.774,3.413a193.859,193.859,0,0,0,44.144,0l29.774-3.413C768.439,701.547,768.538,701.531,768.636,701.51Z" transform="translate(-4461.59 -2162.591)" fill="#b75742" opacity="0.3" style="mix-blend-mode: multiply;isolation: isolate"/>
    <path id="Path_21115" data-name="Path 21115" d="M725.747,655.5l-29.774,3.412a193.845,193.845,0,0,1-44.144,0L622.055,655.5a3.244,3.244,0,0,1-2.875-3.223V621.59a3.244,3.244,0,0,1,3.244-3.244H725.378a3.244,3.244,0,0,1,3.244,3.244v30.69A3.244,3.244,0,0,1,725.747,655.5Z" transform="translate(-4419 -2119.163)" fill="#f47458"/>
    <rect id="Rectangle_7144" data-name="Rectangle 7144" width="16.633" height="8.936" rx="4.468" transform="translate(-3753.415 -1463.454)" fill="#f7cc7f"/>
    <rect id="Rectangle_7145" data-name="Rectangle 7145" width="13.208" height="6.126" rx="3.063" transform="translate(-3751.703 -1462.049)" fill="#eab054"/>
    <path id="Path_21116" data-name="Path 21116" d="M725.377,618.346H622.423a3.244,3.244,0,0,0-3.244,3.244v5.44a3.244,3.244,0,0,1,3.244-3.244H725.377a3.244,3.244,0,0,1,3.244,3.244v-5.44A3.244,3.244,0,0,0,725.377,618.346Z" transform="translate(-4418.999 -2119.163)" fill="#b75742" opacity="0.3" style="mix-blend-mode: multiply;isolation: isolate"/>
    <path id="Path_21117" data-name="Path 21117" d="M203.842,1819.015v3.854c0,.623,6.951,1.128,15.526,1.128s15.526-.505,15.526-1.128v-3.854Z" transform="translate(-4027.347 -3251.361)" fill="#e59f39"/>
    <path id="Path_21118" data-name="Path 21118" d="M215.078,1823.953v-4.939H203.842v3.854C203.842,1823.384,208.59,1823.818,215.078,1823.953Z" transform="translate(-4027.347 -3251.361)" fill="#eab054"/>
    <path id="Path_21119" data-name="Path 21119" d="M410.04,1823.964c1.206.022,2.468.034,3.767.034,1.936,0,3.789-.026,5.5-.073v-4.91H410.04Z" transform="translate(-4221.786 -3251.361)" fill="#eab054"/>
    <path id="Path_21120" data-name="Path 21120" d="M583.419,1823.906c5.532-.173,9.406-.572,9.406-1.037v-3.854h-9.406Z" transform="translate(-4385.278 -3251.361)" fill="#eab054"/>
    <ellipse id="Ellipse_2196" data-name="Ellipse 2196" cx="15.526" cy="1.128" rx="15.526" ry="1.128" transform="translate(-3823.505 -1433.516)" fill="#e59f39"/>
    <ellipse id="Ellipse_2197" data-name="Ellipse 2197" cx="12.785" cy="0.782" rx="12.785" ry="0.782" transform="translate(-3820.764 -1433.17)" fill="#f7cc7f"/>
    <path id="Path_21121" data-name="Path 21121" d="M157.261,1744.494v3.854c0,.623,6.951,1.128,15.526,1.128s15.526-.505,15.526-1.128v-3.854Z" transform="translate(-3983.422 -3181.09)" fill="#e59f39"/>
    <path id="Path_21122" data-name="Path 21122" d="M168.5,1749.433v-4.939H157.261v3.854C157.261,1748.863,162.009,1749.3,168.5,1749.433Z" transform="translate(-3983.422 -3181.09)" fill="#eab054"/>
    <path id="Path_21123" data-name="Path 21123" d="M363.459,1749.443c1.206.022,2.468.034,3.767.034,1.936,0,3.789-.026,5.5-.073v-4.91h-9.265Z" transform="translate(-4177.861 -3181.09)" fill="#eab054"/>
    <path id="Path_21124" data-name="Path 21124" d="M536.838,1749.385c5.532-.172,9.406-.572,9.406-1.037v-3.854h-9.406Z" transform="translate(-4341.354 -3181.09)" fill="#eab054"/>
    <ellipse id="Ellipse_2198" data-name="Ellipse 2198" cx="15.526" cy="1.128" rx="15.526" ry="1.128" transform="translate(-3826.161 -1437.765)" fill="#e59f39"/>
    <ellipse id="Ellipse_2199" data-name="Ellipse 2199" cx="12.785" cy="0.782" rx="12.785" ry="0.782" transform="translate(-3823.421 -1437.419)" fill="#f7cc7f"/>
    <path id="Path_21125" data-name="Path 21125" d="M188.3,1671.072v3.854c0,.623,6.951,1.128,15.526,1.128s15.526-.505,15.526-1.128v-3.854Z" transform="translate(-4012.688 -3111.855)" fill="#e59f39"/>
    <path id="Path_21126" data-name="Path 21126" d="M199.532,1676.011v-4.939H188.3v3.854C188.3,1675.441,193.044,1675.876,199.532,1676.011Z" transform="translate(-4012.688 -3111.855)" fill="#eab054"/>
    <path id="Path_21127" data-name="Path 21127" d="M394.494,1676.021c1.206.022,2.468.033,3.767.033,1.936,0,3.789-.026,5.5-.073v-4.91h-9.265Z" transform="translate(-4207.127 -3111.855)" fill="#eab054"/>
    <path id="Path_21128" data-name="Path 21128" d="M567.873,1675.964c5.532-.173,9.406-.572,9.406-1.037v-3.854h-9.406Z" transform="translate(-4370.619 -3111.855)" fill="#eab054"/>
    <ellipse id="Ellipse_2200" data-name="Ellipse 2200" cx="15.526" cy="1.128" rx="15.526" ry="1.128" transform="translate(-3824.392 -1441.952)" fill="#e59f39"/>
    <ellipse id="Ellipse_2201" data-name="Ellipse 2201" cx="12.785" cy="0.782" rx="12.785" ry="0.782" transform="translate(-3821.651 -1441.606)" fill="#f7cc7f"/>
    <path id="Path_21129" data-name="Path 21129" d="M303.092,1598.656v3.854c0,.623,6.951,1.128,15.526,1.128s15.526-.505,15.526-1.128v-3.854Z" transform="translate(-4120.938 -3043.569)" fill="#e59f39"/>
    <path id="Path_21130" data-name="Path 21130" d="M314.328,1603.595v-4.939H303.092v3.854C303.092,1603.025,307.84,1603.46,314.328,1603.595Z" transform="translate(-4120.938 -3043.569)" fill="#eab054"/>
    <path id="Path_21131" data-name="Path 21131" d="M509.29,1603.605c1.206.022,2.468.033,3.767.033,1.936,0,3.789-.026,5.5-.073v-4.91H509.29Z" transform="translate(-4315.376 -3043.569)" fill="#eab054"/>
    <path id="Path_21132" data-name="Path 21132" d="M682.67,1603.547c5.531-.173,9.406-.572,9.406-1.037v-3.854H682.67Z" transform="translate(-4478.869 -3043.569)" fill="#eab054"/>
    <path id="Path_21133" data-name="Path 21133" d="M334.144,1579.283c0,.623-6.951,1.128-15.526,1.128s-15.526-.505-15.526-1.128,6.951-1.128,15.526-1.128S334.144,1578.66,334.144,1579.283Z" transform="translate(-4120.938 -3024.237)" fill="#e59f39"/>
    <path id="Path_21134" data-name="Path 21134" d="M376.723,1585c0,.432-5.724.782-12.785.782s-12.785-.35-12.785-.782,5.724-.782,12.785-.782S376.723,1584.572,376.723,1585Z" transform="translate(-4166.256 -3029.958)" fill="#f7cc7f"/>
    <rect id="Rectangle_7146" data-name="Rectangle 7146" width="27.199" height="9.899" transform="translate(-3796.033 -1437.508)" fill="#50bfa5"/>
    <rect id="Rectangle_7147" data-name="Rectangle 7147" width="27.199" height="1.273" transform="translate(-3796.033 -1436.065)" fill="#96d9c9"/>
    <rect id="Rectangle_7148" data-name="Rectangle 7148" width="27.199" height="1.274" transform="translate(-3796.033 -1433.578)" fill="#96d9c9"/>
    <rect id="Rectangle_7149" data-name="Rectangle 7149" width="27.199" height="1.273" transform="translate(-3796.033 -1431.09)" fill="#96d9c9"/>
    <rect id="Rectangle_7150" data-name="Rectangle 7150" width="27.199" height="1.273" transform="translate(-3796.033 -1428.882)" fill="#96d9c9"/>
    <rect id="Rectangle_7151" data-name="Rectangle 7151" width="5.657" height="9.899" transform="translate(-3784.616 -1437.508)" fill="#f7cc7f"/>
    <rect id="Rectangle_7152" data-name="Rectangle 7152" width="4.108" height="9.899" transform="translate(-3799.811 -1437.508)" fill="#3c8f7c"/>
    <ellipse id="Ellipse_2202" data-name="Ellipse 2202" cx="13.064" cy="13.17" rx="13.064" ry="13.17" transform="matrix(0.828, -0.56, 0.56, 0.828, -3823.209, -1467.297)" fill="#e59f39"/>
    <ellipse id="Ellipse_2203" data-name="Ellipse 2203" cx="11.292" cy="11.384" rx="11.292" ry="11.384" transform="translate(-3820.74 -1466.812) rotate(-34.086)" fill="#f7cc7f"/>
    <path id="Path_21135" data-name="Path 21135" d="M422.443,1135.053l-1.192-1.751a10.276,10.276,0,0,1-2.475,1.108,1.289,1.289,0,0,1-1.571-.8l-.028-.077a1.286,1.286,0,0,1,.864-1.678,7.509,7.509,0,0,0,2.234-1.016c1.051-.715,1.494-1.61.992-2.347-.477-.7-1.368-.741-3.045-.274-2.424.678-4.4.672-5.614-1.116-1.1-1.622-.826-3.672.883-5.4l-1.192-1.751,1.807-1.229,1.1,1.622a9.521,9.521,0,0,1,1.847-.9,1.287,1.287,0,0,1,1.633.781h0a1.288,1.288,0,0,1-.816,1.664,6.848,6.848,0,0,0-1.776.872c-1.2.815-1.234,1.595-.883,2.111.414.608,1.322.556,3.291.08,2.72-.718,4.3-.306,5.424,1.353,1.116,1.641.908,3.832-.961,5.643l1.279,1.88Z" transform="translate(-4223.588 -2591.001)" fill="#e59f39"/>
    <path id="Path_21136" data-name="Path 21136" d="M336.387,1071.573a11.227,11.227,0,0,0-5.16,8.125,11.2,11.2,0,0,1,4.882-6.683,11.407,11.407,0,0,1,17.3,11.132,11.405,11.405,0,0,0-17.027-12.575Z" transform="translate(-4147.468 -2544.914)" fill="#f7cc7f" opacity="0.3" style="mix-blend-mode: multiply;isolation: isolate"/>
    <ellipse id="Ellipse_2204" data-name="Ellipse 2204" cx="12.376" cy="12.276" rx="12.376" ry="12.276" transform="translate(-3807.049 -1485.368) rotate(-69.895)" fill="#e59f39"/>
    <ellipse id="Ellipse_2205" data-name="Ellipse 2205" cx="10.698" cy="10.611" rx="10.698" ry="10.611" transform="translate(-3804.908 -1486.372) rotate(-69.895)" fill="#f7cc7f"/>
    <path id="Path_21137" data-name="Path 21137" d="M669.736,620.8l.68-1.871a9.667,9.667,0,0,1-2.205-1.277,1.212,1.212,0,0,1-.253-1.637l.044-.064a1.209,1.209,0,0,1,1.754-.264,7.055,7.055,0,0,0,2,1.144c1.122.408,2.048.253,2.334-.534.272-.748-.187-1.45-1.465-2.472-1.85-1.474-2.929-2.981-2.235-4.891.629-1.733,2.344-2.648,4.6-2.3l.68-1.871,1.93.7-.629,1.733a8.942,8.942,0,0,1,1.7.912,1.21,1.21,0,0,1,.3,1.674h0a1.21,1.21,0,0,1-1.717.293,6.44,6.44,0,0,0-1.641-.874c-1.28-.465-1.894-.064-2.094.488-.236.65.3,1.314,1.748,2.552,2.043,1.678,2.595,3.1,1.951,4.877-.637,1.753-2.421,2.8-4.829,2.37l-.73,2.009Z" transform="translate(-4464.796 -2106.356)" fill="#e59f39"/>
    <path id="Path_21138" data-name="Path 21138" d="M690.018,572.754a10.55,10.55,0,0,0-9.029.534,10.522,10.522,0,0,1,7.777.047,10.719,10.719,0,0,1,1.029,19.309,10.718,10.718,0,0,0,.224-19.89Z" transform="translate(-4477.284 -2075.445)" fill="#f7cc7f" opacity="0.3" style="mix-blend-mode: multiply;isolation: isolate"/>
    <path id="Path_21139" data-name="Path 21139" d="M2045.317,1778.7s.733.715.749.977.065,3.075-.234,3.337-1.178.448-.9.744a8.761,8.761,0,0,0,2.946.116c.318-.018.716-2.554.842-2.927.183-.541.628-1.76.461-2.138a3.175,3.175,0,0,0-1.014-.914,4.982,4.982,0,0,1-1.124-1.2Z" transform="translate(-5763.398 -3211.455)" fill="#f48c7f"/>
    <path id="Path_21140" data-name="Path 21140" d="M1873.761,1840.347s.656,1.853.657,1.858c.049.294.241,1.019.241,1.286,0,1-4.521-.851-3.508-1.3a1.072,1.072,0,0,0,.41-.7,2.348,2.348,0,0,0-.382-1.185Z" transform="translate(-5599.435 -3271.439)" fill="#f7a491"/>
    <path id="Path_21141" data-name="Path 21141" d="M1774.859,1235.953s-.33,3.322-.33,3.371c0,5.374-1.065,15.869-.863,16.88.494,2.464,5.813,15.034,5.813,15.034l2.875-.343-3.746-15.05,1.378-6.058,1.951-11.974Z" transform="translate(-5507.626 -2701.55)" fill="#13375b"/>
    <path id="Path_21142" data-name="Path 21142" d="M1818.382,1246.729l.545,3.148,1.476,12.957,5.62,12.664s-.791,1.843-1.957,2.1l-8.945-13-5.556-16.637.2-3.7Z" transform="translate(-5541.5 -2709.388)" fill="#355389"/>
    <path id="Path_21143" data-name="Path 21143" d="M2043.265,1797.37s-1.689,4.756-2.351,4.986c-.176.061-1.018.215-1.177.588a1.621,1.621,0,0,0,0,.487h3.521s.445-2.1.622-3.016a13.681,13.681,0,0,0,.828-2.454C2044.6,1797.756,2043.265,1797.37,2043.265,1797.37Z" transform="translate(-5758.527 -3230.95)" fill="#96d9c9"/>
    <path id="Path_21144" data-name="Path 21144" d="M1816.982,1874.88l-.518-1.636a4.5,4.5,0,0,1-1.631.384,16.46,16.46,0,0,1-1.605-.384c-2.17.715-3.948,1.061-3.625,1.636h7.378Z" transform="translate(-5541.501 -3302.498)" fill="#96d9c9"/>
    <path id="Path_21145" data-name="Path 21145" d="M1088.338,1794.716a8.448,8.448,0,0,1-.833,2.729,5.279,5.279,0,0,0-.711.91,2.6,2.6,0,0,0,.1,2.079c.125.265-.009.264.275.349a1.762,1.762,0,0,0,2.1-.957,4.741,4.741,0,0,0,.411-1.758,6.228,6.228,0,0,1,.689-2.825Z" transform="translate(-4859.778 -3228.448)" fill="#f7a491"/>
    <path id="Path_21146" data-name="Path 21146" d="M1132.073,824.229c.379-1.006.712-2.034,1.063-3.018a20.116,20.116,0,0,0,1.326-5.885,9.243,9.243,0,0,0-.838-4.438,3.743,3.743,0,0,0-3.34-1.911c-4.176-.005-4.707,5.535-7.365,7.673-.561.451-1.168.845-1.743,1.277C1122.138,820.424,1124.784,823.969,1132.073,824.229Z" transform="translate(-4892.369 -2298.924)" fill="#13375b"/>
    <path id="Path_21147" data-name="Path 21147" d="M1272.591,1811.262a18.894,18.894,0,0,1,.035,3.082c-.082.4-.539,1.238-.33,1.619a1.039,1.039,0,0,0,.449.476l5.438.085c.3,0,.1-.181-.138-.351a11.048,11.048,0,0,0-1.955-1.051c-.081-.038-.378-.222-.485-.285a3.736,3.736,0,0,1-.778-.667c-.39-.423-.425-2.471-.425-2.471Z" transform="translate(-5034.819 -3244.051)" fill="#f7a491"/>
    <path id="Path_21148" data-name="Path 21148" d="M1266.876,1254.827a24.028,24.028,0,0,1,.357,6.7c-.45,2.476-2.607,25.427-2.607,25.427l-2.4.131s-.5-9.587-.413-10.92a20.176,20.176,0,0,1,.8-3.564l-.239-7.74,3.026-10.169Z" transform="translate(-5024.977 -2719.218)" fill="#355389"/>
    <path id="Path_21149" data-name="Path 21149" d="M1118.3,1236.81a17.043,17.043,0,0,0-2.338,5.047c-.45,2.285.33,9.31-.535,12.3-.468,1.621-2.242,4.125-2.512,6.22s-1.328,7.583-1.328,7.583l2.4.462,5.57-13.706,4.369-12.388,1.119-6.38Z" transform="translate(-4883.323 -2701.55)" fill="#466eb6"/>
    <path id="Path_21150" data-name="Path 21150" d="M1086.371,1859.463a2.712,2.712,0,0,1-2.628-1.067,2.731,2.731,0,0,0-.25,2.087c.215.456.844.442,1.339.461a1.3,1.3,0,0,0,1.188-.707A4.2,4.2,0,0,0,1086.371,1859.463Z" transform="translate(-4856.725 -3288.497)" fill="#466eb6"/>
    <path id="Path_21151" data-name="Path 21151" d="M1275.4,1871.995a5.053,5.053,0,0,1-3.1-.118,2.371,2.371,0,0,0-.249,1.258c.132.374.32.459.486.463,1.313.034,4.811.08,5.813.092a.159.159,0,0,0,.127-.261A26.69,26.69,0,0,0,1275.4,1871.995Z" transform="translate(-5034.62 -3301.208)" fill="#466eb6"/>
    <path id="Path_21152" data-name="Path 21152" d="M1339.969,945.034c-.013-.233-1.07.011-1.208-.173s1.158-.737,1.13-.937c-.051-.368-1.456.518-1.49.35s1.369-1.154,1.091-1.352-1.348,1.174-1.465,1.01,1.111-1.187.921-1.574c-.1-.207-1.877,2.014-2.191,2.008s-.172-1.233-.446-1.293.015,2.369-.1,2.5a35.786,35.786,0,0,1-3.482,3.926c-.287-.315-2.062-1.881-2.324-2.182-.438.7-1.119,1.091-1.593,1.757a21.387,21.387,0,0,0,4.1,3.189c1.167.039,3.672-4.687,4.209-5.541s1.045-.858,1.489-1.241S1339.982,945.267,1339.969,945.034Z" transform="translate(-5088.162 -2424.686)" fill="#f48c7f"/>
    <path id="Path_21153" data-name="Path 21153" d="M1270.832,981.731s-3.941-3.032-4.681-4.4,1.008-2.334,2.382-2.35,4.282,4.073,4.282,4.073Z" transform="translate(-5028.91 -2455.463)" fill="#50bfa5"/>
    <path id="Path_21154" data-name="Path 21154" d="M1512.365,1081.989l.3.179a2.253,2.253,0,0,0,.362.258c.074.018,2.1-.027,2.1-.027s.007.674-.006.674-1.066.858-1.066.858l-.224.1-1.381-.413-1.261-.158s-.894-.1-.894-.125a5.8,5.8,0,0,1,.061-.764l.541-.554s.388-.087.4-.087.388-.074.4-.079.6.087.6.087Z" transform="translate(-5259.295 -2556.238)" fill="#f48c7f"/>
    <path id="Path_21155" data-name="Path 21155" d="M1200.644,970.4s-2.4-.153-3.354.885,2.109,9.254,2.282,10.576-.881,4.836-.881,4.836,5.645,1.139,7.258.068c0,0,.173-9.505,0-10.449a32.342,32.342,0,0,0-2.2-5.566C1203.405,970.369,1200.644,970.4,1200.644,970.4Z" transform="translate(-4963.97 -2451.129)" fill="#96d9c9"/>
    <path id="Path_21156" data-name="Path 21156" d="M1258.577,913.2s-.013.071-.035.192a18.3,18.3,0,0,1-.8,3.028c-.337.638,1.153,2.674,2.587,2.425.427-.074-.361-1.87-.323-2.06.073-.364.171-.861.271-1.371l.168-.853.279-1.415Z" transform="translate(-5021.103 -2397.155)" fill="#f7a491"/>
    <path id="Path_21157" data-name="Path 21157" d="M1271.463,913.4c.023-.121.035-.192.035-.192l2.149-.054-.278,1.415-.167.848a2.015,2.015,0,0,1-1.026-.516,2.72,2.72,0,0,1-.777-1.159C1271.425,913.6,1271.447,913.485,1271.463,913.4Z" transform="translate(-5034.023 -2397.155)" fill="#f47458"/>
    <path id="Path_21158" data-name="Path 21158" d="M1259.558,828.143a1.935,1.935,0,0,0-1.648.706c-.635.823-1.319,3.368.258,4.752s3.136-.183,3.367-1.843S1261.856,828.084,1259.558,828.143Z" transform="translate(-5020.638 -2316.991)" fill="#f7a491"/>
    <path id="Path_21159" data-name="Path 21159" d="M1244.007,823.043s-1.353,2.42-2.321,2.532-1.1,1.4-1.1,1.4.346-2.964,1.3-3.535A3.552,3.552,0,0,1,1244.007,823.043Z" transform="translate(-5004.974 -2312.162)" fill="#13375b"/>
    <path id="Path_21160" data-name="Path 21160" d="M1296.175,903.85l1.282.051a.56.56,0,0,1-.613.479C1296.156,904.373,1296.175,903.85,1296.175,903.85Z" transform="translate(-5057.388 -2388.385)" fill="#fff"/>
    <path id="Path_21161" data-name="Path 21161" d="M1492.159,1082.709a3.376,3.376,0,0,1,.628.14c.218.087,1.946,1.4,1.946,1.4s.231.126.353.026a.278.278,0,0,0,.114-.218.42.42,0,0,0,.345.035.235.235,0,0,0,.118-.275.394.394,0,0,0,.319-.043c.117-.1.057-.358.057-.358s.371.227.515.074.083-.314-.061-.436-1-.689-1.1-.755-.384-.366-.471-.406-.3-.157-.3-.157-.357.039-.379.052-.122.262-.3.327a.458.458,0,0,1-.4-.052.338.338,0,0,1,0-.135,3.122,3.122,0,0,0,.17-.4c.031-.153.07-.2.126-.231s.366-.127.519-.187a2.563,2.563,0,0,1,.794.118l.305.131s-.057-.226-.249-.261-.432-.088-.567-.1a5.931,5.931,0,0,0-.593.091,2.318,2.318,0,0,0-.576.092,6.771,6.771,0,0,1-1.2-.009S1491.844,1082.316,1492.159,1082.709Z" transform="translate(-5242.086 -2555.427)" fill="#f8a492"/>
    <path id="Path_21162" data-name="Path 21162" d="M1271.045,1024.636c-.411-.009-5.157-.049-6.94-.064a1.965,1.965,0,0,1-1.2-.421l-3.966-3.121-1.737,2,4.924,3.557a1.656,1.656,0,0,0,1.138.306c1.873-.189,7.328-.732,7.8-.667Z" transform="translate(-5020.638 -2498.883)" fill="#f8a492"/>
    <path id="Path_21163" data-name="Path 21163" d="M1562.807,1031.74c.411-.009,5.411-.082,7.193-.1a1.966,1.966,0,0,0,1.2-.421l3.966-3.121,1.736,2-4.923,3.557a1.659,1.659,0,0,1-1.138.306c-1.873-.189-7-.691-7.479-.626Z" transform="translate(-5308.814 -2505.552)" fill="#f48c7f"/>
    <path id="Path_21164" data-name="Path 21164" d="M1205.4,970.857s-3.32-3.492-4.521-4.374-3.616-.132-3.425,1.382c.2,1.544,5.619,5.453,5.619,5.453Z" transform="translate(-4964.291 -2447.091)" fill="#50bfa5"/>
    <path id="Path_21165" data-name="Path 21165" d="M1744.979,970.857s3.32-3.492,4.521-4.374,3.616-.132,3.425,1.382c-.2,1.544-5.619,5.453-5.619,5.453Z" transform="translate(-5480.598 -2447.091)" fill="#eab054"/>
    <path id="Path_21166" data-name="Path 21166" d="M1787.764,964.862c-.077.535-1.5,15.075-1.5,15.075,6.732,3.252,10.447.579,10.447.579s-.22-10.21.044-11.6c.174-.919.012-7.117-.584-7.288a10.887,10.887,0,0,0-2.217-.464,24.852,24.852,0,0,0-4.551.057A7.219,7.219,0,0,0,1787.764,964.862Z" transform="translate(-5519.53 -2442.36)" fill="#f7cc7f"/>
    <path id="Path_21167" data-name="Path 21167" d="M1857.128,906.969l.5,3.028s-1.813,3.853-2.9,3.529c-.909-.272-.35-3.582-.35-3.582a8.716,8.716,0,0,0,.347-2.667C1854.576,906.389,1857.128,906.969,1857.128,906.969Z" transform="translate(-5583.597 -2391.151)" fill="#f7a491"/>
    <path id="Path_21168" data-name="Path 21168" d="M1862.223,907.278c-.148-.889,2.4-.309,2.4-.309l.041.26a1.432,1.432,0,0,1-.277.438,3.428,3.428,0,0,1-2.232.969A4.657,4.657,0,0,0,1862.223,907.278Z" transform="translate(-5591.097 -2391.151)" fill="#f47458"/>
    <path id="Path_21169" data-name="Path 21169" d="M1840.7,815.894c.072-.025.578,3.578-.383,4.569s-2.832,1.316-3.5.535c-.742-.863-.705-4.736.788-5.755S1840.7,815.894,1840.7,815.894Z" transform="translate(-5566.747 -2304.52)" fill="#f7a491"/>
    <path id="Path_21170" data-name="Path 21170" d="M1852.46,794.907a2.708,2.708,0,0,1,1.972,1.505,2.846,2.846,0,0,1-.816,3.808,2.225,2.225,0,0,0-1.034,1.675l-.171-.459a2.505,2.505,0,0,1-.132-1.1,2.069,2.069,0,0,1,.17-.66c.253-.522-.544-.868-.768-1.3-.172-.334-.181-1.1-.452-1.65l-.324-.422a2.119,2.119,0,0,0-1.479-.4C1848.7,796.061,1849.6,792.64,1852.46,794.907Z" transform="translate(-5578.862 -2284.921)" fill="#13375b"/>
    <path id="Path_21171" data-name="Path 21171" d="M1893.815,866.815c-.008.44.2.8.465.8s.485-.348.493-.788-.2-.8-.465-.8S1893.822,866.376,1893.815,866.815Z" transform="translate(-5620.946 -2352.719)" fill="#f7a491"/>
    <path id="Path_21172" data-name="Path 21172" d="M1844.289,894.378l1.587.161a.7.7,0,0,1-.8.548C1844.224,895.026,1844.289,894.378,1844.289,894.378Z" transform="translate(-5574.243 -2379.454)" fill="#fff"/>
    <path id="Path_21173" data-name="Path 21173" d="M1966.812,1038.117a.418.418,0,0,0,0-.1c-.1-1.064-.988-10-1.137-10.381-.134-.343-4.1-6.011-4.1-6.011l-1.948,2.653,3.811,5.084c.085.323,1.46,6.356,1.46,6.356s.282,1.1.408,1.758c-.057.158-.114.308-.164.432a3.91,3.91,0,0,1-.411.66,4.522,4.522,0,0,0-.487.86c-.04.155-.113.478-.155.673s-.1.421-.107.527a1.021,1.021,0,0,1-.123.283.17.17,0,0,0,.2.245c.139-.046.246-.225.313-.337.187-.315.287-.891.334-.861s.211,1.007.237,1.118a12.086,12.086,0,0,0,.334,1.452c.111.207.258.172.3.043.034-.111-.123-1.7-.123-1.7s-.02-.2.069-.14.234,1.5.3,1.714.2.323.322.153a6.383,6.383,0,0,0-.1-1.734s-.028-.192.054-.174.185,1.245.249,1.352a.162.162,0,0,0,.3-.033,7.575,7.575,0,0,0-.144-1.57s.011-.109.062-.073.214,1.076.32,1.172a.112.112,0,0,0,.163,0c.195-.133-.1-1.122-.1-1.614a12.059,12.059,0,0,1-.157-1.63C1966.792,1038.264,1966.8,1038.174,1966.812,1038.117Z" transform="translate(-5683.009 -2499.446)" fill="#f8a492"/>
    <path id="Path_21174" data-name="Path 21174" d="M1936.088,976.9l-3.385,2.273a36.784,36.784,0,0,0-2.932-3.85c-1.283-1.266.467-5.145,1.294-4.926C1932.913,970.888,1936.088,976.9,1936.088,976.9Z" transform="translate(-5654.421 -2451.129)" fill="#f7cc7f"/>
    <path id="Path_21175" data-name="Path 21175" d="M1245.339,866.082c.2.4.589.6.862.445a.77.77,0,0,0,.126-1.009c-.2-.4-.589-.6-.862-.445A.77.77,0,0,0,1245.339,866.082Z" transform="translate(-5009.336 -2351.77)" fill="#f7a491"/>
    <path id="Path_21176" data-name="Path 21176" d="M1104.99,288.056l.281,2.68,1.52-1.792,4.952-4.245-4.271,1.452s-2.095,1.077-2.189,1.215A5.561,5.561,0,0,0,1104.99,288.056Z" transform="translate(-4877.105 -1804.542)" fill="#50bfa5"/>
    <path id="Path_21177" data-name="Path 21177" d="M1064.448,286.954l9.065-2.255-6.753,3.357Z" transform="translate(-4838.876 -1804.543)" fill="#96d9c9"/>
    <path id="Path_21178" data-name="Path 21178" d="M1120.261,289.966l-2.84-1.338,6.044-3.928Z" transform="translate(-4888.828 -1804.543)" fill="#96d9c9"/>
    <path id="Path_21179" data-name="Path 21179" d="M921.964,399.284a5.907,5.907,0,0,1-.032-.649,6.068,6.068,0,0,1,.033-.606l.219.023c-.02.2-.031.392-.032.584a5.8,5.8,0,0,0,.031.625q.01.09.022.181l-.218.03C921.978,399.408,921.971,399.345,921.964,399.284Zm.3-2.663a8.366,8.366,0,0,1,.562-1.322l.194.1a8.161,8.161,0,0,0-.547,1.288Zm6.679-2.061-.043-.015.076-.206.035.013a.128.128,0,0,0,.023,0,1.014,1.014,0,0,0,.576-.217.931.931,0,0,0,.251-.476l.215.048a1.163,1.163,0,0,1-.312.585,1.224,1.224,0,0,1-.731.28A.287.287,0,0,1,928.946,394.56Zm-5.355-.478a11.483,11.483,0,0,1,.916-1.1l.161.151a11.232,11.232,0,0,0-.9,1.081Zm4.1-.985a2.682,2.682,0,0,1-.073-.647,3.124,3.124,0,0,1,.024-.37l.218.027a2.922,2.922,0,0,0-.023.344,2.452,2.452,0,0,0,.067.593,2.028,2.028,0,0,0,.138.389l-.2.094A2.261,2.261,0,0,1,927.69,393.1Zm.765-1.337-.03-.006.044-.215.033.007a2.214,2.214,0,0,1,1.234.733l-.171.139A1.989,1.989,0,0,0,928.455,391.761Zm-2.781.363a5.037,5.037,0,0,1,.847-.423c.174-.051.336-.092.493-.125l.045.215c-.152.032-.308.071-.477.121a4.548,4.548,0,0,0-.8.4Zm2.407-1.426a4.918,4.918,0,0,1,.839-1.179l.158.152a4.71,4.71,0,0,0-.8,1.127Z" transform="translate(-4704.487 -1903.385)" fill="#9bc1f9"/>
    <path id="Path_21180" data-name="Path 21180" d="M1064.684,369.175a4.252,4.252,0,0,1,.645-.29l-.073-.207a4.467,4.467,0,0,0-.678.3Z" transform="translate(-4838.998 -1883.732)" fill="#9bc1f9"/>
    <path id="Path_21181" data-name="Path 21181" d="M848.469,280.806l.549-1.007-.516-1.024a.158.158,0,0,1,.169-.226l1.124.212.811-.809a.157.157,0,0,1,.267.092l.146,1.138,1.017.524a.158.158,0,0,1,0,.283L851,280.48l-.183,1.132a.157.157,0,0,1-.27.083l-.785-.834-1.13.176A.158.158,0,0,1,848.469,280.806Z" transform="translate(-4635.195 -1798.138)" fill="#f7cc7f"/>
    <path id="Path_21182" data-name="Path 21182" d="M1543.712,264.537l.468-.76-.376-.152a.161.161,0,0,1-.088-.209h0a.161.161,0,0,1,.209-.089l.433.176.419-.683-.4-.163a.161.161,0,0,1-.089-.209h0a.161.161,0,0,1,.21-.089l.459.186.486-.782a.161.161,0,0,1,.2-.064l.07.028a.161.161,0,0,1,.077.233l-.452.738.665.27.486-.782a.161.161,0,0,1,.2-.064l.077.031a.161.161,0,0,1,.077.233l-.452.738.376.152a.161.161,0,0,1,.088.209h0a.161.161,0,0,1-.209.089l-.433-.176-.412.685.4.163a.161.161,0,0,1,.089.209h0a.161.161,0,0,1-.209.089l-.459-.186-.5.806a.161.161,0,0,1-.2.065l-.082-.033a.161.161,0,0,1-.076-.233l.468-.76-.666-.27-.5.806a.161.161,0,0,1-.2.065l-.082-.033A.161.161,0,0,1,1543.712,264.537Zm1.7-.609.418-.683-.666-.27-.418.683Z" transform="translate(-5290.786 -1782.843)" fill="#07345a"/>
    <path id="Path_21183" data-name="Path 21183" d="M2541.257,296.677l.64.275s1.069-.239,1.189-.439.189-.708.339-.709a.457.457,0,0,1,.473.429c.029.258-.4.956-.352,1.04a3.668,3.668,0,0,0,.664.339.519.519,0,0,1,.306.44h0a.276.276,0,0,1-.2.284l-.2.055.045.2a.276.276,0,0,1-.206.33l-.151.035.038.122a.276.276,0,0,1-.212.352l-.13.025,0,.034a.276.276,0,0,1-.23.293l-.13.021-1.706-.733a1.269,1.269,0,0,1-.423-.3l-.558-.357a.145.145,0,0,1-.054-.18l.662-1.487A.143.143,0,0,1,2541.257,296.677Z" transform="translate(-6230.654 -1815.014)" fill="#355389"/>
    <path id="Path_21184" data-name="Path 21184" d="M2032.757,166.138l2.543.307-1.085-1.975Z" transform="translate(-5751.965 -1691.17)" fill="#f7cc7f"/>
    <path id="Path_21185" data-name="Path 21185" d="M1245.229,142.349a1.408,1.408,0,0,0,1.171,1.416,1.38,1.38,0,0,0,1.5-.94c.456-1.222-.881-2.185-1.605-1.446-.677.69-.463,1.715.268,1.716.276,0,.719-.231.543-.565a.111.111,0,0,0-.191,0c-.089.151-.082.156-.124.19a.375.375,0,0,1-.239.069c-.744-.013-.249-1.715.628-1.3a.981.981,0,0,1,.457,1.252,1.121,1.121,0,0,1-1.092.785,1.283,1.283,0,0,1-1.135-1.174.091.091,0,0,0-.182,0Z" transform="translate(-5009.343 -1669.152)" fill="#f47458"/>
    <rect id="Rectangle_7153" data-name="Rectangle 7153" width="4.856" height="37.585" transform="translate(-3681.915 -1465.024)" fill="#96d9c9"/>
    <rect id="Rectangle_7154" data-name="Rectangle 7154" width="4.856" height="26.121" transform="translate(-3688.696 -1453.771)" fill="#96d9c9"/>
    <rect id="Rectangle_7155" data-name="Rectangle 7155" width="4.856" height="29.442" transform="translate(-3675.036 -1456.88)" fill="#96d9c9"/>
    <rect id="Rectangle_7156" data-name="Rectangle 7156" width="4.856" height="30.6" transform="translate(-3695.477 -1458.25)" fill="#96d9c9"/>
    <rect id="Rectangle_7157" data-name="Rectangle 7157" width="4.856" height="21.527" transform="translate(-3702.259 -1449.178)" fill="#96d9c9"/>
    <rect id="Rectangle_7158" data-name="Rectangle 7158" width="4.856" height="29.135" transform="translate(-3681.915 -1456.573)" fill="#50bfa5"/>
    <rect id="Rectangle_7159" data-name="Rectangle 7159" width="4.856" height="20.1" transform="translate(-3688.696 -1447.751)" fill="#50bfa5"/>
    <rect id="Rectangle_7160" data-name="Rectangle 7160" width="4.856" height="22.868" transform="translate(-3675.036 -1450.307)" fill="#50bfa5"/>
    <rect id="Rectangle_7161" data-name="Rectangle 7161" width="4.856" height="23.547" transform="translate(-3695.477 -1451.198)" fill="#50bfa5"/>
    <rect id="Rectangle_7162" data-name="Rectangle 7162" width="4.856" height="16.566" transform="translate(-3702.259 -1444.216)" fill="#50bfa5"/>
    <path id="Path_21186" data-name="Path 21186" d="M2324.866,1353.291l-3.909,2.671,1.29.222-7.324,11.387-4.581-7.32-8.177,17.956-4.507-4.891-3.635,6.925-1.792-1.453-3.105,5.994,1.315.2,2.193-4.268,1.786,1.448,3.52-6.707,4.581,4.971,8-17.556,4.393,7.02,8.39-13.043.753,1.109Z" transform="translate(-5993.713 -2812.196)" fill="#13375b"/>
    <rect id="Rectangle_7163" data-name="Rectangle 7163" width="12.352" height="1.612" transform="translate(-3675.005 -1467.474)" fill="#9bc1f9"/>
    <rect id="Rectangle_7164" data-name="Rectangle 7164" width="10.327" height="1.612" transform="translate(-3675.005 -1464.518)" fill="#9bc1f9"/>
    <rect id="Rectangle_7165" data-name="Rectangle 7165" width="5.9" height="1.612" transform="translate(-3675.005 -1461.562)" fill="#9bc1f9"/>
  </g>
</svg>
