<svg xmlns="http://www.w3.org/2000/svg" width="184.052" height="117.517" viewBox="0 0 184.052 117.517">
  <g id="Group_18932" data-name="Group 18932" transform="translate(3527.303 1550.678)">
    <rect id="Rectangle_7178" data-name="Rectangle 7178" width="1.979" height="42.554" transform="translate(-3496.985 -1549.806)" fill="#e0e0e0"/>
    <rect id="Rectangle_7179" data-name="Rectangle 7179" width="28.409" height="42.284" rx="0.103" transform="translate(-3525.695 -1549.477)" fill="#f5f5f5"/>
    <path id="Path_21255" data-name="Path 21255" d="M83.487,92.129H54.477a.028.028,0,0,1-.029-.029V49.216a.028.028,0,0,1,.029-.029H83.487a.028.028,0,0,1,.029.029V92.1A.028.028,0,0,1,83.487,92.129Zm-28.352-.658H82.829a.028.028,0,0,0,.029-.029V49.874a.029.029,0,0,0-.029-.029H55.135a.029.029,0,0,0-.029.029V91.442A.028.028,0,0,0,55.135,91.471Z" transform="translate(-3580.472 -1598.993)" fill="#ebebeb"/>
    <rect id="Rectangle_7180" data-name="Rectangle 7180" width="22.738" height="37.039" rx="0.103" transform="translate(-3522.835 -1546.869)" fill="#fff"/>
    <rect id="Rectangle_7181" data-name="Rectangle 7181" width="12.767" height="14.964" rx="0.064" transform="translate(-3517.874 -1536.368)" fill="#ebebeb"/>
    <path id="Path_21256" data-name="Path 21256" d="M96.216,114.371a2.8,2.8,0,0,1-1.813.184,4.431,4.431,0,0,1-2.038-.814,4.134,4.134,0,0,1-1.583-2.49,3.579,3.579,0,0,1,1.211-3.4,3.184,3.184,0,0,1,.918-.538,2.447,2.447,0,0,1,1.149-.132,2.023,2.023,0,0,1,1.149.5,1.5,1.5,0,0,1,.453,1.338,2.184,2.184,0,0,1-.63,1.148,4.15,4.15,0,0,1-.962.709,5.26,5.26,0,0,1-2.294.655,4.562,4.562,0,0,1-2.445-.557,4.445,4.445,0,0,1-1.8-1.865,3.8,3.8,0,0,1-.323-2.612,3.881,3.881,0,0,1,1.377-2.152,3.391,3.391,0,0,1,1.154-.583,2.872,2.872,0,0,1,1.3-.041,2.118,2.118,0,0,1,1.179.666,1.956,1.956,0,0,1,.462,1.26,2.4,2.4,0,0,1-.308,1.2,3.218,3.218,0,0,1-.728.875,4.9,4.9,0,0,1-1.809.961,4.637,4.637,0,0,1-1.9.147,3.9,3.9,0,0,1-1.656-.634,3.585,3.585,0,0,1-1.582-2.505,3.026,3.026,0,0,1,.586-2.148,2.566,2.566,0,0,1,1.084-.866c.3-.113.468-.109.475-.081s-.135.106-.377.268a2.831,2.831,0,0,0-.843.906,2.677,2.677,0,0,0-.345,1.835,3.005,3.005,0,0,0,1.406,1.969,3.465,3.465,0,0,0,2.9.276,4.083,4.083,0,0,0,1.452-.821,1.783,1.783,0,0,0,.678-1.361.978.978,0,0,0-.874-.965,1.885,1.885,0,0,0-.835.039,2.4,2.4,0,0,0-.788.413,2.871,2.871,0,0,0-.993,1.583,2.764,2.764,0,0,0,.244,1.9,3.431,3.431,0,0,0,1.374,1.428,3.559,3.559,0,0,0,1.89.44,4.305,4.305,0,0,0,1.859-.508,3.206,3.206,0,0,0,.741-.523,1.249,1.249,0,0,0,.376-.613.535.535,0,0,0-.152-.493,1.111,1.111,0,0,0-.615-.271,1.549,1.549,0,0,0-.724.061,2.322,2.322,0,0,0-.674.369,2.807,2.807,0,0,0-1.028,2.6,3.585,3.585,0,0,0,1.216,2.155,4.289,4.289,0,0,0,1.749.873C95.559,114.4,96.207,114.28,96.216,114.371Z" transform="translate(-3602.333 -1637.606)" fill="#e0e0e0"/>
    <g id="Group_18224" data-name="Group 18224" transform="translate(-3369.423 -1546.334)">
      <g id="Group_18223" data-name="Group 18223">
        <g id="Group_18222" data-name="Group 18222">
          <g id="Group_18221" data-name="Group 18221">
            <g id="Group_18220" data-name="Group 18220">
              <rect id="Rectangle_7182" data-name="Rectangle 7182" width="22.601" height="23.56" fill="#e0e0e0"/>
            </g>
          </g>
        </g>
      </g>
    </g>
    <g id="Group_18233" data-name="Group 18233" transform="translate(-3370.954 -1546.334)">
      <g id="Group_18232" data-name="Group 18232">
        <g id="Group_18231" data-name="Group 18231">
          <g id="Group_18230" data-name="Group 18230">
            <g id="Group_18229" data-name="Group 18229">
              <rect id="Rectangle_7183" data-name="Rectangle 7183" width="22.601" height="23.56" fill="#fafafa"/>
            </g>
          </g>
        </g>
      </g>
    </g>
    <g id="Group_18241" data-name="Group 18241" transform="translate(-3370.961 -1546.341)">
      <g id="Group_18240" data-name="Group 18240">
        <g id="Group_18239" data-name="Group 18239">
          <g id="Group_18238" data-name="Group 18238">
            <g id="Group_18237" data-name="Group 18237">
              <path id="Path_21257" data-name="Path 21257" d="M637.342,85.281H614.726V61.707h22.616Zm-22.6-.014h22.587V61.721H614.74Z" transform="translate(-614.726 -61.707)" fill="#e0e0e0"/>
            </g>
          </g>
        </g>
      </g>
    </g>
    <g id="Group_18250" data-name="Group 18250" transform="translate(-3367.915 -1543.167)">
      <g id="Group_18249" data-name="Group 18249">
        <g id="Group_18248" data-name="Group 18248">
          <g id="Group_18247" data-name="Group 18247">
            <g id="Group_18246" data-name="Group 18246">
              <rect id="Rectangle_7184" data-name="Rectangle 7184" width="16.525" height="17.226" fill="#fff"/>
            </g>
          </g>
        </g>
      </g>
    </g>
    <g id="Group_18260" data-name="Group 18260" transform="translate(-3370.932 -1525.828)">
      <g id="Group_18259" data-name="Group 18259">
        <g id="Group_18258" data-name="Group 18258">
          <g id="Group_18257" data-name="Group 18257">
            <g id="Group_18256" data-name="Group 18256">
              <g id="Group_18255" data-name="Group 18255">
                <path id="Path_21258" data-name="Path 21258" d="M617.847,135.827a2.7,2.7,0,0,1-.408.474c-.264.279-.635.656-1.05,1.065s-.8.774-1.08,1.033a2.634,2.634,0,0,1-.478.4,2.645,2.645,0,0,1,.406-.472c.264-.278.636-.656,1.053-1.067s.8-.776,1.081-1.035A2.605,2.605,0,0,1,617.847,135.827Z" transform="translate(-614.831 -135.826)" fill="#e0e0e0"/>
              </g>
            </g>
          </g>
        </g>
      </g>
    </g>
    <g id="Group_18270" data-name="Group 18270" transform="translate(-3351.392 -1525.87)">
      <g id="Group_18269" data-name="Group 18269">
        <g id="Group_18268" data-name="Group 18268">
          <g id="Group_18267" data-name="Group 18267">
            <g id="Group_18266" data-name="Group 18266">
              <g id="Group_18265" data-name="Group 18265">
                <path id="Path_21259" data-name="Path 21259" d="M685.434,135.676a2.7,2.7,0,0,1,.474.408c.278.264.655.635,1.065,1.05s.774.8,1.033,1.08a2.607,2.607,0,0,1,.4.478,2.647,2.647,0,0,1-.472-.406c-.278-.264-.656-.636-1.067-1.053s-.776-.8-1.035-1.082A2.61,2.61,0,0,1,685.434,135.676Z" transform="translate(-685.433 -135.675)" fill="#e0e0e0"/>
              </g>
            </g>
          </g>
        </g>
      </g>
    </g>
    <g id="Group_18280" data-name="Group 18280" transform="translate(-3351.437 -1546.092)">
      <g id="Group_18279" data-name="Group 18279">
        <g id="Group_18278" data-name="Group 18278">
          <g id="Group_18277" data-name="Group 18277">
            <g id="Group_18276" data-name="Group 18276">
              <g id="Group_18275" data-name="Group 18275">
                <path id="Path_21260" data-name="Path 21260" d="M685.272,65.578a2.694,2.694,0,0,1,.408-.474c.264-.278.635-.655,1.05-1.065s.8-.774,1.08-1.033a2.626,2.626,0,0,1,.477-.4,2.633,2.633,0,0,1-.405.472c-.264.279-.636.656-1.053,1.067s-.8.776-1.082,1.035A2.581,2.581,0,0,1,685.272,65.578Z" transform="translate(-685.271 -62.608)" fill="#e0e0e0"/>
              </g>
            </g>
          </g>
        </g>
      </g>
    </g>
    <g id="Group_18290" data-name="Group 18290" transform="translate(-3370.932 -1546.095)">
      <g id="Group_18289" data-name="Group 18289">
        <g id="Group_18288" data-name="Group 18288">
          <g id="Group_18287" data-name="Group 18287">
            <g id="Group_18286" data-name="Group 18286">
              <g id="Group_18285" data-name="Group 18285">
                <path id="Path_21261" data-name="Path 21261" d="M617.8,65.613a2.706,2.706,0,0,1-.474-.408c-.278-.264-.655-.635-1.065-1.051s-.774-.8-1.033-1.08a2.638,2.638,0,0,1-.4-.477A2.623,2.623,0,0,1,615.3,63c.278.264.656.636,1.067,1.053s.776.8,1.035,1.082A2.565,2.565,0,0,1,617.8,65.613Z" transform="translate(-614.831 -62.597)" fill="#e0e0e0"/>
              </g>
            </g>
          </g>
        </g>
      </g>
    </g>
    <g id="Group_18300" data-name="Group 18300" transform="translate(-3367.989 -1543.24)">
      <g id="Group_18299" data-name="Group 18299">
        <g id="Group_18298" data-name="Group 18298">
          <g id="Group_18297" data-name="Group 18297">
            <g id="Group_18296" data-name="Group 18296">
              <g id="Group_18295" data-name="Group 18295">
                <path id="Path_21262" data-name="Path 21262" d="M642.018,90.211a.8.8,0,0,1,0-.084c0-.059,0-.138,0-.241,0-.216,0-.526-.008-.93,0-.816-.009-2-.017-3.511-.008-3.017-.019-7.315-.032-12.461l.064.064-16.478.01h0l.073-.073c0,6.323-.008,12.237-.01,17.226l-.063-.063,11.932.032,3.352.016.887.007.229,0a.778.778,0,0,1,.08,0,.46.46,0,0,1-.073,0l-.223,0-.875.007-3.338.017-11.972.032h-.063v-.063c0-4.988-.006-10.9-.01-17.226v-.073h.075l16.478.009h.064v.064c-.014,5.163-.025,9.475-.032,12.5-.008,1.5-.013,2.684-.017,3.5,0,.4-.006.7-.007.917,0,.1,0,.177,0,.234A.506.506,0,0,1,642.018,90.211Z" transform="translate(-625.465 -72.912)" fill="#e0e0e0"/>
              </g>
            </g>
          </g>
        </g>
      </g>
    </g>
    <g id="Group_18309" data-name="Group 18309" transform="translate(-3362.41 -1537.311)">
      <g id="Group_18308" data-name="Group 18308">
        <g id="Group_18307" data-name="Group 18307">
          <g id="Group_18306" data-name="Group 18306">
            <g id="Group_18305" data-name="Group 18305">
              <rect id="Rectangle_7185" data-name="Rectangle 7185" width="5.514" height="5.514" fill="#ebebeb"/>
            </g>
          </g>
        </g>
      </g>
    </g>
    <g id="Group_18319" data-name="Group 18319" transform="translate(-3369.423 -1514.536)">
      <g id="Group_18318" data-name="Group 18318">
        <g id="Group_18317" data-name="Group 18317">
          <g id="Group_18316" data-name="Group 18316">
            <g id="Group_18315" data-name="Group 18315">
              <rect id="Rectangle_7186" data-name="Rectangle 7186" width="22.601" height="23.56" fill="#e0e0e0"/>
            </g>
          </g>
        </g>
      </g>
    </g>
    <g id="Group_18328" data-name="Group 18328" transform="translate(-3370.954 -1514.536)">
      <g id="Group_18327" data-name="Group 18327">
        <g id="Group_18326" data-name="Group 18326">
          <g id="Group_18325" data-name="Group 18325">
            <g id="Group_18324" data-name="Group 18324">
              <rect id="Rectangle_7187" data-name="Rectangle 7187" width="22.601" height="23.56" fill="#fafafa"/>
            </g>
          </g>
        </g>
      </g>
    </g>
    <g id="Group_18336" data-name="Group 18336" transform="translate(-3370.961 -1514.543)">
      <g id="Group_18335" data-name="Group 18335">
        <g id="Group_18334" data-name="Group 18334">
          <g id="Group_18333" data-name="Group 18333">
            <g id="Group_18332" data-name="Group 18332">
              <path id="Path_21263" data-name="Path 21263" d="M637.342,200.174H614.726V176.6h22.616Zm-22.6-.014h22.587V176.614H614.74Z" transform="translate(-614.726 -176.6)" fill="#e0e0e0"/>
            </g>
          </g>
        </g>
      </g>
    </g>
    <g id="Group_18345" data-name="Group 18345" transform="translate(-3367.915 -1511.369)">
      <g id="Group_18344" data-name="Group 18344">
        <g id="Group_18343" data-name="Group 18343">
          <g id="Group_18342" data-name="Group 18342">
            <g id="Group_18341" data-name="Group 18341">
              <rect id="Rectangle_7188" data-name="Rectangle 7188" width="16.525" height="17.226" fill="#fff"/>
            </g>
          </g>
        </g>
      </g>
    </g>
    <g id="Group_18355" data-name="Group 18355" transform="translate(-3370.932 -1494.03)">
      <g id="Group_18354" data-name="Group 18354">
        <g id="Group_18353" data-name="Group 18353">
          <g id="Group_18352" data-name="Group 18352">
            <g id="Group_18351" data-name="Group 18351">
              <g id="Group_18350" data-name="Group 18350">
                <path id="Path_21264" data-name="Path 21264" d="M617.847,250.72a2.7,2.7,0,0,1-.408.474c-.264.278-.635.655-1.05,1.065s-.8.774-1.08,1.033a2.628,2.628,0,0,1-.478.4,2.635,2.635,0,0,1,.406-.472c.264-.278.636-.656,1.053-1.067s.8-.776,1.081-1.035A2.577,2.577,0,0,1,617.847,250.72Z" transform="translate(-614.831 -250.719)" fill="#e0e0e0"/>
              </g>
            </g>
          </g>
        </g>
      </g>
    </g>
    <g id="Group_18365" data-name="Group 18365" transform="translate(-3351.392 -1494.072)">
      <g id="Group_18364" data-name="Group 18364">
        <g id="Group_18363" data-name="Group 18363">
          <g id="Group_18362" data-name="Group 18362">
            <g id="Group_18361" data-name="Group 18361">
              <g id="Group_18360" data-name="Group 18360">
                <path id="Path_21265" data-name="Path 21265" d="M685.434,250.568a2.7,2.7,0,0,1,.474.408c.278.264.655.635,1.065,1.051s.774.8,1.033,1.08a2.622,2.622,0,0,1,.4.477,2.635,2.635,0,0,1-.472-.405c-.278-.264-.656-.636-1.067-1.053s-.776-.8-1.035-1.082A2.6,2.6,0,0,1,685.434,250.568Z" transform="translate(-685.433 -250.567)" fill="#e0e0e0"/>
              </g>
            </g>
          </g>
        </g>
      </g>
    </g>
    <g id="Group_18375" data-name="Group 18375" transform="translate(-3351.437 -1514.294)">
      <g id="Group_18374" data-name="Group 18374">
        <g id="Group_18373" data-name="Group 18373">
          <g id="Group_18372" data-name="Group 18372">
            <g id="Group_18371" data-name="Group 18371">
              <g id="Group_18370" data-name="Group 18370">
                <path id="Path_21266" data-name="Path 21266" d="M685.272,180.471a2.694,2.694,0,0,1,.408-.474c.264-.279.635-.655,1.05-1.065s.8-.774,1.08-1.033a2.641,2.641,0,0,1,.477-.4,2.617,2.617,0,0,1-.405.472c-.264.278-.636.656-1.053,1.067s-.8.776-1.082,1.035A2.6,2.6,0,0,1,685.272,180.471Z" transform="translate(-685.271 -177.5)" fill="#e0e0e0"/>
              </g>
            </g>
          </g>
        </g>
      </g>
    </g>
    <g id="Group_18385" data-name="Group 18385" transform="translate(-3370.932 -1514.297)">
      <g id="Group_18384" data-name="Group 18384">
        <g id="Group_18383" data-name="Group 18383">
          <g id="Group_18382" data-name="Group 18382">
            <g id="Group_18381" data-name="Group 18381">
              <g id="Group_18380" data-name="Group 18380">
                <path id="Path_21267" data-name="Path 21267" d="M617.8,180.506a2.7,2.7,0,0,1-.474-.408c-.278-.264-.655-.635-1.065-1.05s-.774-.8-1.033-1.08a2.638,2.638,0,0,1-.4-.477,2.609,2.609,0,0,1,.472.405c.278.264.656.636,1.067,1.053s.776.8,1.035,1.082A2.554,2.554,0,0,1,617.8,180.506Z" transform="translate(-614.831 -177.49)" fill="#e0e0e0"/>
              </g>
            </g>
          </g>
        </g>
      </g>
    </g>
    <g id="Group_18395" data-name="Group 18395" transform="translate(-3367.989 -1511.442)">
      <g id="Group_18394" data-name="Group 18394">
        <g id="Group_18393" data-name="Group 18393">
          <g id="Group_18392" data-name="Group 18392">
            <g id="Group_18391" data-name="Group 18391">
              <g id="Group_18390" data-name="Group 18390">
                <path id="Path_21268" data-name="Path 21268" d="M642.018,205.1a.8.8,0,0,1,0-.084c0-.059,0-.138,0-.241,0-.216,0-.526-.008-.93,0-.816-.009-2-.017-3.511-.008-3.017-.019-7.315-.032-12.461l.064.064-16.478.009h0l.073-.073c0,6.323-.008,12.237-.01,17.226l-.063-.063,11.932.032,3.352.016.887.007.229,0a.8.8,0,0,1,.08,0,.5.5,0,0,1-.073,0l-.223,0-.875.007-3.338.016-11.972.032h-.063V205.1c0-4.988-.006-10.9-.01-17.226V187.8h.075l16.478.009h.064v.064c-.014,5.163-.025,9.475-.032,12.5-.008,1.5-.013,2.683-.017,3.5,0,.4-.006.7-.007.917,0,.1,0,.177,0,.234A.506.506,0,0,1,642.018,205.1Z" transform="translate(-625.465 -187.805)" fill="#e0e0e0"/>
              </g>
            </g>
          </g>
        </g>
      </g>
    </g>
    <g id="Group_18404" data-name="Group 18404" transform="translate(-3362.41 -1505.513)">
      <g id="Group_18403" data-name="Group 18403">
        <g id="Group_18402" data-name="Group 18402">
          <g id="Group_18401" data-name="Group 18401">
            <g id="Group_18400" data-name="Group 18400">
              <rect id="Rectangle_7189" data-name="Rectangle 7189" width="5.514" height="5.514" fill="#ebebeb"/>
            </g>
          </g>
        </g>
      </g>
    </g>
    <g id="Group_18413" data-name="Group 18413" transform="translate(-3428.595 -1544.558)">
      <g id="Group_18412" data-name="Group 18412">
        <g id="Group_18411" data-name="Group 18411">
          <g id="Group_18410" data-name="Group 18410">
            <path id="Path_21269" data-name="Path 21269" d="M434.68,82.673a14.088,14.088,0,0,1-14.548,13.611,14.24,14.24,0,0,1-2.467-.3A14.075,14.075,0,1,1,434.68,82.673Z" transform="translate(-406.48 -68.15)" fill="#ebebeb"/>
          </g>
        </g>
      </g>
    </g>
    <g id="Group_18417" data-name="Group 18417" transform="translate(-3424.857 -1541.052)">
      <g id="Group_18416" data-name="Group 18416">
        <g id="Group_18415" data-name="Group 18415">
          <g id="Group_18414" data-name="Group 18414">
            <path id="Path_21270" data-name="Path 21270" d="M441.479,91.885a10.748,10.748,0,1,1-10.4-11.062A10.735,10.735,0,0,1,441.479,91.885Z" transform="translate(-419.989 -80.818)" fill="#ebebeb"/>
          </g>
        </g>
      </g>
    </g>
    <g id="Group_18422" data-name="Group 18422" transform="translate(-3425.349 -1541.297)">
      <g id="Group_18421" data-name="Group 18421">
        <g id="Group_18420" data-name="Group 18420">
          <g id="Group_18419" data-name="Group 18419">
            <path id="Path_21271" data-name="Path 21271" d="M439.81,91.087a.99.99,0,0,1-.015-.174c-.005-.126-.012-.295-.021-.51q-.005-.17-.012-.375c-.011-.138-.036-.287-.056-.45a7.819,7.819,0,0,0-.192-1.112,10.208,10.208,0,0,0-1.105-2.875,10.67,10.67,0,0,0-12.641-4.935,11.076,11.076,0,0,0-1.406.563c-.229.113-.448.249-.674.373a5.361,5.361,0,0,0-.656.42,9.739,9.739,0,0,0-2.321,2.18,10.267,10.267,0,0,0-1.616,2.874,10.5,10.5,0,0,0-.216,6.7,10.263,10.263,0,0,0,1.428,2.973,9.724,9.724,0,0,0,2.176,2.325,9.811,9.811,0,0,0,2.644,1.53,10.718,10.718,0,0,0,5.569.645,10.723,10.723,0,0,0,7.364-4.76,10.212,10.212,0,0,0,1.287-2.8,7.77,7.77,0,0,0,.263-1.1c.03-.161.065-.308.084-.445s.025-.261.037-.374l.053-.508a1.041,1.041,0,0,1,.026-.173,1.013,1.013,0,0,1,0,.174c-.008.126-.018.3-.031.511l-.026.376c-.016.138-.048.287-.074.449a7.588,7.588,0,0,1-.245,1.11,10.134,10.134,0,0,1-1.265,2.842,10.818,10.818,0,0,1-7.441,4.877,10.884,10.884,0,0,1-5.674-.637,10,10,0,0,1-2.7-1.554,9.922,9.922,0,0,1-2.225-2.369,10.464,10.464,0,0,1-1.461-3.034,10.7,10.7,0,0,1,.221-6.842,10.46,10.46,0,0,1,1.652-2.933,9.923,9.923,0,0,1,2.372-2.22,5.542,5.542,0,0,1,.67-.427c.231-.126.456-.264.689-.379a11.257,11.257,0,0,1,1.435-.571,10.879,10.879,0,0,1,5.7-.272,10.819,10.819,0,0,1,7.114,5.343,10.144,10.144,0,0,1,1.081,2.917,7.609,7.609,0,0,1,.173,1.123c.016.164.038.315.045.453s0,.264,0,.378c0,.216,0,.386,0,.512A1,1,0,0,1,439.81,91.087Z" transform="translate(-418.211 -79.933)" fill="#e0e0e0"/>
          </g>
        </g>
      </g>
    </g>
    <g id="Group_18428" data-name="Group 18428" transform="translate(-3419.292 -1537.909)">
      <g id="Group_18427" data-name="Group 18427">
        <g id="Group_18426" data-name="Group 18426">
          <g id="Group_18425" data-name="Group 18425">
            <path id="Path_21272" data-name="Path 21272" d="M445.905,106.043l-.033,1.872-1.671-.03.032-1.821a7.919,7.919,0,0,1-4.138-1.41l.955-2.023a6.756,6.756,0,0,0,3.222,1.244l.049-2.791c-1.847-.483-3.909-1.139-3.866-3.529.032-1.772,1.345-3.27,3.991-3.524l.033-1.855,1.671.03-.032,1.822a7.56,7.56,0,0,1,3.374,1.079l-.872,2.041a6.851,6.851,0,0,0-2.542-.914l-.05,2.842c1.847.467,3.876,1.122,3.834,3.478C449.832,104.29,448.535,105.772,445.905,106.043Zm-1.54-7.417.042-2.373c-.889.185-1.248.664-1.258,1.215C443.138,98.053,443.633,98.38,444.365,98.626Zm2.8,4.079c.01-.585-.469-.911-1.183-1.175l-.041,2.307C446.784,103.668,447.159,103.24,447.168,102.7Z" transform="translate(-440.096 -92.175)" fill="#e0e0e0"/>
          </g>
        </g>
      </g>
    </g>
    <path id="Path_21273" data-name="Path 21273" d="M418.2,81.039a19.54,19.54,0,0,1-18.564,4.309,18.681,18.681,0,0,1-12.012-10.633,17.6,17.6,0,0,1,1.487-16.081,18.978,18.978,0,0,1,14.047-8.485,19.262,19.262,0,0,1,18.023,8.577c.578.894,2.017.063,1.434-.838a20.9,20.9,0,0,0-33.545-2,19.327,19.327,0,0,0-3.693,17.385,20.156,20.156,0,0,0,11.881,13.006,21.236,21.236,0,0,0,22.117-4.062c.791-.722-.386-1.894-1.174-1.174Z" transform="translate(-3819.301 -1598.421)" fill="#f5f5f5"/>
    <path id="Path_21274" data-name="Path 21274" d="M500.253,71.837l6.765-4.556v6.89Z" transform="translate(-3902.896 -1612.08)" fill="#f5f5f5"/>
    <path id="Path_21275" data-name="Path 21275" d="M351.183,202.159a20.4,20.4,0,0,1,13.352,13.37l-4.312,1.913s-.988-7.443-11.039-10.684c-5.437-1.754-12.638.721-14.632,2.988l-4.839-2.087A21.687,21.687,0,0,1,351.183,202.159Z" transform="translate(-3779.554 -1709.018)" fill="#ff725e"/>
    <path id="Path_21276" data-name="Path 21276" d="M437.481,242.925l-10.721,3.558,8.228,4.124Z" transform="translate(-3849.743 -1739.112)" fill="#ff725e"/>
    <g id="Group_18458" data-name="Group 18458" transform="translate(-3487.196 -1550.678)">
      <g id="Group_18457" data-name="Group 18457">
        <g id="Group_18456" data-name="Group 18456">
          <g id="Group_18447" data-name="Group 18447">
            <g id="Group_18446" data-name="Group 18446">
              <g id="Group_18445" data-name="Group 18445">
                <g id="Group_18444" data-name="Group 18444">
                  <g id="Group_18443" data-name="Group 18443">
                    <g id="Group_18442" data-name="Group 18442">
                      <g id="Group_18441" data-name="Group 18441">
                        <g id="Group_18440" data-name="Group 18440">
                          <path id="Path_21277" data-name="Path 21277" d="M240.915,163.317,203,163.294a8.478,8.478,0,0,1-8.255-8.681l.019-99.9a8.477,8.477,0,0,1,8.264-8.678l37.917.024a8.478,8.478,0,0,1,8.254,8.681l-.019,99.9A8.477,8.477,0,0,1,240.915,163.317Z" transform="translate(-194.744 -46.038)" fill="#263238"/>
                        </g>
                      </g>
                    </g>
                  </g>
                </g>
              </g>
            </g>
          </g>
          <g id="Group_18455" data-name="Group 18455" transform="translate(2.513 3.533)">
            <g id="Group_18454" data-name="Group 18454">
              <g id="Group_18453" data-name="Group 18453">
                <g id="Group_18452" data-name="Group 18452">
                  <g id="Group_18451" data-name="Group 18451">
                    <g id="Group_18450" data-name="Group 18450">
                      <g id="Group_18449" data-name="Group 18449">
                        <g id="Group_18448" data-name="Group 18448">
                          <path id="Path_21278" data-name="Path 21278" d="M247.469,58.828l-7.351,0a1.878,1.878,0,0,0-1.785,1.96v1.4a1.878,1.878,0,0,1-1.785,1.96l-14.329-.009a1.88,1.88,0,0,1-1.785-1.962v-1.4a1.881,1.881,0,0,0-1.785-1.962l-2.585,0-6.434,0a5.937,5.937,0,0,0-5.788,6.078l-.018,97.506a5.937,5.937,0,0,0,5.781,6.08l37.841.023a5.937,5.937,0,0,0,5.788-6.078l.018-97.506A5.937,5.937,0,0,0,247.469,58.828Z" transform="translate(-203.823 -58.805)" fill="#fff"/>
                        </g>
                      </g>
                    </g>
                  </g>
                </g>
              </g>
            </g>
          </g>
        </g>
      </g>
    </g>
    <g id="Group_18463" data-name="Group 18463" transform="translate(-3479.55 -1445.485)">
      <g id="Group_18462" data-name="Group 18462">
        <path id="Path_21279" data-name="Path 21279" d="M225.249,426.436V429.3a.314.314,0,0,1-.482.266l-2.25-1.431a.315.315,0,0,1,0-.532l2.25-1.431A.314.314,0,0,1,225.249,426.436Z" transform="translate(-222.371 -426.121)" fill="#e0e0e0"/>
      </g>
    </g>
    <g id="Group_18467" data-name="Group 18467" transform="translate(-3462.132 -1445.742)">
      <g id="Group_18466" data-name="Group 18466">
        <path id="Path_21280" data-name="Path 21280" d="M289.252,427.168a1.972,1.972,0,1,1-1.973-1.977A1.974,1.974,0,0,1,289.252,427.168Z" transform="translate(-285.307 -425.191)" fill="#e0e0e0"/>
      </g>
    </g>
    <g id="Group_18471" data-name="Group 18471" transform="translate(-3444.027 -1445.485)">
      <g id="Group_18470" data-name="Group 18470">
        <path id="Rectangle_7190" data-name="Rectangle 7190" d="M1.819,0h0A1.819,1.819,0,0,1,3.639,1.819v.008A1.819,1.819,0,0,1,1.82,3.647h0A1.82,1.82,0,0,1,0,1.828V1.819A1.819,1.819,0,0,1,1.819,0Z" fill="#e0e0e0"/>
      </g>
    </g>
    <g id="Group_18476" data-name="Group 18476" transform="translate(-3471.523 -1513.136)">
      <path id="Path_21281" data-name="Path 21281" d="M251.966,182.911h3.04l-.592-.451,1.346,4.429,2.135,7.027.493,1.621a.629.629,0,0,0,.592.451l8.707-.024,1.247,0a.614.614,0,0,0,0-1.228l-8.707.024-1.247,0,.592.451-1.346-4.429-2.135-7.027-.493-1.621a.629.629,0,0,0-.592-.451h-3.04a.614.614,0,0,0,0,1.228Z" transform="translate(-251.373 -181.683)" fill="#263238"/>
    </g>
    <g id="Group_18478" data-name="Group 18478" transform="translate(-3467.81 -1510.684)">
      <path id="Path_21282" data-name="Path 21282" d="M280.584,190.882l-1.72,7.706-.247,1.108.444-.338-3.728-.037-5.977-.059-1.367-.013.444.338-2.4-7.629-.338-1.076-.444.583h15.776a.461.461,0,0,0,0-.921H265.252a.465.465,0,0,0-.444.583l2.4,7.629.339,1.076a.473.473,0,0,0,.444.338l3.728.037,5.978.059,1.367.014a.466.466,0,0,0,.444-.338l1.72-7.706.247-1.108C281.6,190.55,280.713,190.3,280.584,190.882Z" transform="translate(-264.789 -190.544)" fill="#263238"/>
    </g>
    <g id="Group_18480" data-name="Group 18480" transform="translate(-3464.217 -1510.53)">
      <path id="Path_21283" data-name="Path 21283" d="M277.78,191.678c.485,2.81,1.1,5.6,1.585,8.406.1.583.988.336.888-.245-.485-2.81-1.1-5.6-1.585-8.406-.1-.583-.988-.336-.888.245Z" transform="translate(-277.773 -191.1)" fill="#263238"/>
    </g>
    <g id="Group_18482" data-name="Group 18482" transform="translate(-3459.346 -1510.519)">
      <path id="Path_21284" data-name="Path 21284" d="M295.372,191.584q.07,4.322.146,8.645a.461.461,0,0,0,.921,0c-.046-2.882-.1-5.763-.146-8.645a.461.461,0,0,0-.921,0Z" transform="translate(-295.372 -191.139)" fill="#263238"/>
    </g>
    <g id="Group_18484" data-name="Group 18484" transform="translate(-3455.75 -1510.682)">
      <path id="Path_21285" data-name="Path 21285" d="M309.261,199.907l1.169-7.677.167-1.1a.476.476,0,0,0-.322-.566.464.464,0,0,0-.566.322l-1.169,7.678-.167,1.1a.476.476,0,0,0,.322.566.463.463,0,0,0,.566-.322Z" transform="translate(-308.365 -190.55)" fill="#263238"/>
    </g>
    <g id="Group_18486" data-name="Group 18486" transform="translate(-3466.789 -1507.988)">
      <path id="Path_21286" data-name="Path 21286" d="M268.925,201.206h13.929a.461.461,0,0,0,0-.921H268.925a.461.461,0,0,0,0,.921Z" transform="translate(-268.48 -200.285)" fill="#263238"/>
    </g>
    <g id="Group_18488" data-name="Group 18488" transform="translate(-3465.483 -1504.755)">
      <path id="Path_21287" data-name="Path 21287" d="M273.644,212.888h12.064a.461.461,0,0,0,0-.921H273.644a.461.461,0,0,0,0,.921Z" transform="translate(-273.199 -211.967)" fill="#263238"/>
    </g>
    <circle id="Ellipse_2214" data-name="Ellipse 2214" cx="1.638" cy="1.638" r="1.638" transform="translate(-3455.6 -1498.067)" fill="#263238"/>
    <circle id="Ellipse_2215" data-name="Ellipse 2215" cx="1.638" cy="1.638" r="1.638" transform="translate(-3464.611 -1498.067)" fill="#263238"/>
    <path id="Path_21288" data-name="Path 21288" d="M242.983,162.32a13.113,13.113,0,0,0-10.692,5.769l2.3,1.974s1.983-4.4,8.771-4.542a7.536,7.536,0,0,1,7.009,3.83l4.166-.071C253.2,166.487,249.8,162.492,242.983,162.32Z" transform="translate(-3709.095 -1680.814)" fill="#ff725e"/>
    <path id="Path_21289" data-name="Path 21289" d="M229.072,176.112l5.946,4.171-5.4,1.094Z" transform="translate(-3706.768 -1690.79)" fill="#ff725e"/>
    <path id="Path_21290" data-name="Path 21290" d="M367.86,94.246a.669.669,0,1,1-.669-.669A.669.669,0,0,1,367.86,94.246Z" transform="translate(-3806.176 -1631.098)" fill="#263238"/>
    <circle id="Ellipse_2216" data-name="Ellipse 2216" cx="0.669" cy="0.669" r="0.669" transform="translate(-3439.654 -1535.691)" fill="#263238"/>
    <circle id="Ellipse_2217" data-name="Ellipse 2217" cx="0.669" cy="0.669" r="0.669" transform="translate(-3439.654 -1533.861)" fill="#263238"/>
    <path id="Path_21291" data-name="Path 21291" d="M217.7,94.851,214.969,96.9h.7v2.448l1.472.005V97.52l1.16-.005v1.832h1.424V96.874l.709-.008Z" transform="translate(-3696.568 -1632.019)" fill="#263238"/>
    <path id="Path_21292" data-name="Path 21292" d="M252.967,120.221c0,.04-11.144.072-24.889.072s-24.891-.032-24.891-.072,11.142-.072,24.891-.072S252.967,120.181,252.967,120.221Z" transform="translate(-3688.046 -1650.316)" fill="#e0e0e0"/>
    <path id="Rectangle_7191" data-name="Rectangle 7191" d="M2.934,0h0A2.934,2.934,0,0,1,5.867,2.934V24.312a2.934,2.934,0,0,1-2.934,2.934h0A2.934,2.934,0,0,1,0,24.312V2.934A2.934,2.934,0,0,1,2.934,0Z" transform="translate(-3463.65 -1484.018)" fill="#e0e0e0"/>
    <g id="Group_18508" data-name="Group 18508" transform="translate(-3468.207 -1479.173)">
      <g id="Group_18507" data-name="Group 18507">
        <g id="Group_18506" data-name="Group 18506">
          <g id="Group_18505" data-name="Group 18505">
            <path id="Path_21293" data-name="Path 21293" d="M282.27,313.822A9.457,9.457,0,1,1,272.8,304.4,9.447,9.447,0,0,1,282.27,313.822Z" transform="translate(-263.356 -304.399)" fill="#ff725e"/>
          </g>
        </g>
      </g>
    </g>
    <g id="Group_18512" data-name="Group 18512" transform="translate(-3465.697 -1476.831)">
      <g id="Group_18511" data-name="Group 18511">
        <g id="Group_18510" data-name="Group 18510">
          <g id="Group_18509" data-name="Group 18509">
            <path id="Path_21294" data-name="Path 21294" d="M286.84,320.043a7.207,7.207,0,1,1-7.216-7.181A7.2,7.2,0,0,1,286.84,320.043Z" transform="translate(-272.426 -312.862)" fill="#ff725e"/>
          </g>
        </g>
      </g>
    </g>
    <g id="Group_18517" data-name="Group 18517" transform="translate(-3466.032 -1476.985)">
      <g id="Group_18516" data-name="Group 18516">
        <g id="Group_18515" data-name="Group 18515">
          <g id="Group_18514" data-name="Group 18514">
            <path id="Path_21295" data-name="Path 21295" d="M285.7,319.544a.672.672,0,0,1-.014-.117c-.006-.084-.015-.2-.025-.341l-.017-.251c-.01-.092-.031-.191-.048-.3a5.2,5.2,0,0,0-.154-.741,6.844,6.844,0,0,0-.8-1.9,7.155,7.155,0,0,0-8.582-3.025,7.4,7.4,0,0,0-.929.409c-.151.081-.295.177-.444.265a3.6,3.6,0,0,0-.43.3,6.53,6.53,0,0,0-1.507,1.513,6.875,6.875,0,0,0-1.018,1.963,7.036,7.036,0,0,0,0,4.495,6.881,6.881,0,0,0,1.023,1.961,6.526,6.526,0,0,0,1.511,1.509,6.573,6.573,0,0,0,1.806.966,7.189,7.189,0,0,0,3.747.308,7.191,7.191,0,0,0,4.829-3.355,6.852,6.852,0,0,0,.8-1.9,5.217,5.217,0,0,0,.151-.741c.017-.108.036-.208.047-.3s.011-.175.016-.251l.024-.341a.059.059,0,1,1,.016,0L285.7,320q0,.114-.009.253c-.008.093-.025.193-.04.3a5.06,5.06,0,0,1-.139.749,6.79,6.79,0,0,1-.785,1.933,7.253,7.253,0,0,1-4.878,3.434,7.3,7.3,0,0,1-3.817-.3,6.709,6.709,0,0,1-1.844-.981,6.659,6.659,0,0,1-1.544-1.538,7.009,7.009,0,0,1-1.047-2,7.173,7.173,0,0,1-.005-4.59,7.018,7.018,0,0,1,1.042-2,6.652,6.652,0,0,1,1.54-1.541,3.72,3.72,0,0,1,.44-.3c.152-.09.3-.187.453-.269a7.518,7.518,0,0,1,.949-.415,7.3,7.3,0,0,1,3.816-.31,7.254,7.254,0,0,1,4.887,3.422,6.8,6.8,0,0,1,.79,1.931,5.081,5.081,0,0,1,.141.749c.015.109.032.21.041.3l.009.253c0,.145.008.258.01.343A.683.683,0,0,1,285.7,319.544Z" transform="translate(-271.213 -312.306)" fill="#263238"/>
          </g>
        </g>
      </g>
    </g>
    <g id="Group_18521" data-name="Group 18521" transform="translate(-3465.946 -1476.901)">
      <g id="Group_18520" data-name="Group 18520">
        <path id="Path_21296" data-name="Path 21296" d="M285.871,319.838a4.276,4.276,0,0,1-.19-.867,7.7,7.7,0,0,0-.826-2.208,7.382,7.382,0,0,0-.947-1.308,7.164,7.164,0,0,0-1.406-1.188,6.981,6.981,0,0,0-1.841-.838,6.894,6.894,0,0,0-1.048-.216,6.913,6.913,0,0,0-2.2.072,6.891,6.891,0,0,0-1.032.285,6.956,6.956,0,0,0-1.783.957,7.16,7.16,0,0,0-1.326,1.278,7.375,7.375,0,0,0-.86,1.368,7.7,7.7,0,0,0-.681,2.257,4.25,4.25,0,0,1-.133.877,2.137,2.137,0,0,1-.079-.9,6.725,6.725,0,0,1,.541-2.4,7.212,7.212,0,0,1,2.235-2.891,7.239,7.239,0,0,1,1.9-1.059,7.2,7.2,0,0,1,1.111-.315,7.243,7.243,0,0,1,2.368-.078,7.268,7.268,0,0,1,1.129.242,7.24,7.24,0,0,1,1.967.931,7.2,7.2,0,0,1,2.418,2.737,6.723,6.723,0,0,1,.7,2.359A2.143,2.143,0,0,1,285.871,319.838Z" transform="translate(-271.523 -312.608)"/>
      </g>
    </g>
    <g id="Group_18527" data-name="Group 18527" transform="translate(-3461.854 -1474.72)">
      <g id="Group_18526" data-name="Group 18526">
        <g id="Group_18525" data-name="Group 18525">
          <g id="Group_18524" data-name="Group 18524">
            <path id="Path_21297" data-name="Path 21297" d="M290.236,329.769l.02,1.255-1.121.017-.019-1.221a5.315,5.315,0,0,1-2.8-.853l.595-1.377a4.53,4.53,0,0,0,2.187.762l-.03-1.872c-1.249-.283-2.645-.676-2.67-2.279-.019-1.188.828-2.221,2.6-2.451l-.02-1.244,1.121-.017.019,1.222a5.07,5.07,0,0,1,2.286.648l-.539,1.387a4.6,4.6,0,0,0-1.724-.556l.03,1.906c1.248.272,2.622.665,2.647,2.245C292.828,328.506,291.992,329.528,290.236,329.769Zm-1.2-4.936-.025-1.591c-.592.144-.822.472-.816.842C288.2,324.476,288.542,324.684,289.037,324.832Zm1.97,2.671c-.006-.392-.335-.6-.819-.761l.024,1.547C290.771,328.157,291.013,327.862,291.008,327.5Z" transform="translate(-286.311 -320.489)"/>
          </g>
        </g>
      </g>
    </g>
    <g id="Group_18534" data-name="Group 18534" transform="translate(-3423.247 -1479.76)">
      <g id="Group_18533" data-name="Group 18533">
        <path id="Path_21298" data-name="Path 21298" d="M445.769,310.154a10.093,10.093,0,0,1-7.658,12.043,10.2,10.2,0,0,1-1.764.236,10.083,10.083,0,1,1,9.422-12.279Z" transform="translate(-425.806 -302.278)" fill="#ff725e"/>
      </g>
    </g>
    <g id="Group_18538" data-name="Group 18538" transform="translate(-3420.549 -1477.32)">
      <g id="Group_18537" data-name="Group 18537">
        <path id="Path_21299" data-name="Path 21299" d="M450.768,317.1a7.7,7.7,0,1,1-9.191-5.815A7.69,7.69,0,0,1,450.768,317.1Z" transform="translate(-435.555 -311.095)" fill="#ff725e"/>
      </g>
    </g>
    <g id="Group_18543" data-name="Group 18543" transform="translate(-3420.914 -1477.424)">
      <g id="Group_18542" data-name="Group 18542">
        <path id="Path_21300" data-name="Path 21300" d="M449.52,316.786a.708.708,0,0,1-.042-.118l-.105-.35-.076-.258c-.032-.094-.076-.193-.119-.3a5.594,5.594,0,0,0-.332-.737,7.332,7.332,0,0,0-1.281-1.8,7.644,7.644,0,0,0-9.651-1.163,7.951,7.951,0,0,0-.874.642c-.138.12-.267.253-.4.379a3.838,3.838,0,0,0-.38.409,6.97,6.97,0,0,0-1.22,1.927,7.355,7.355,0,0,0-.607,2.283,7.516,7.516,0,0,0,1.048,4.686A7.347,7.347,0,0,0,437,324.194a6.98,6.98,0,0,0,1.925,1.224,7.02,7.02,0,0,0,2.107.589,7.677,7.677,0,0,0,3.978-.548,7.681,7.681,0,0,0,4.257-4.618,7.317,7.317,0,0,0,.393-2.171,5.633,5.633,0,0,0-.014-.808c-.008-.117-.01-.225-.021-.324l-.041-.266-.054-.361a.719.719,0,0,1-.013-.125.736.736,0,0,1,.029.121l.07.36c.015.08.031.169.049.266s.018.207.029.325a5.456,5.456,0,0,1,.029.813,7.265,7.265,0,0,1-.37,2.2,7.748,7.748,0,0,1-4.29,4.713,7.8,7.8,0,0,1-4.05.572,7.159,7.159,0,0,1-2.151-.595,7.11,7.11,0,0,1-1.967-1.245,7.5,7.5,0,0,1-1.556-1.844,7.664,7.664,0,0,1-1.07-4.785,7.5,7.5,0,0,1,.622-2.33,7.107,7.107,0,0,1,1.248-1.964,3.954,3.954,0,0,1,.388-.416c.138-.129.269-.264.41-.386a8.033,8.033,0,0,1,.893-.653,7.791,7.791,0,0,1,3.907-1.208,7.749,7.749,0,0,1,5.89,2.435,7.27,7.27,0,0,1,1.271,1.831,5.455,5.455,0,0,1,.321.748c.04.111.082.211.112.306l.069.262.09.355A.749.749,0,0,1,449.52,316.786Z" transform="translate(-434.236 -310.721)" fill="#263238"/>
      </g>
    </g>
    <path id="Path_21301" data-name="Path 21301" d="M449.657,317.106a4.57,4.57,0,0,1-.4-.859,8.221,8.221,0,0,0-1.374-2.111,7.886,7.886,0,0,0-1.291-1.145,7.658,7.658,0,0,0-1.742-.912,7.437,7.437,0,0,0-2.114-.446,7.354,7.354,0,0,0-1.143.018,7.37,7.37,0,0,0-2.272.585,7.381,7.381,0,0,0-1.01.536,7.46,7.46,0,0,0-1.637,1.412,7.669,7.669,0,0,0-1.086,1.641,7.878,7.878,0,0,0-.579,1.626,8.231,8.231,0,0,0-.186,2.512,4.561,4.561,0,0,1,.064.945,2.282,2.282,0,0,1-.29-.916,7.177,7.177,0,0,1,.007-2.628,7.7,7.7,0,0,1,1.66-3.533A7.733,7.733,0,0,1,438,312.283a7.713,7.713,0,0,1,1.086-.586,7.733,7.733,0,0,1,2.451-.63,7.719,7.719,0,0,1,1.234-.01,7.73,7.73,0,0,1,2.267.514,7.692,7.692,0,0,1,3.156,2.293,7.179,7.179,0,0,1,1.273,2.3A2.283,2.283,0,0,1,449.657,317.106Z" transform="translate(-3855.327 -1788.373)"/>
    <g id="Group_18553" data-name="Group 18553" transform="translate(-3416.657 -1475.029)">
      <g id="Group_18552" data-name="Group 18552">
        <path id="Path_21302" data-name="Path 21302" d="M454.983,329.015l.312,1.3-1.165.278-.3-1.269a5.673,5.673,0,0,1-3.122-.239l.3-1.574a4.841,4.841,0,0,0,2.457.287L453,325.858c-1.368-.005-2.915-.091-3.313-1.757-.295-1.235.348-2.509,2.138-3.158l-.309-1.293,1.165-.278.3,1.27a5.417,5.417,0,0,1,2.534.145l-.239,1.572a4.91,4.91,0,0,0-1.927-.18l.473,1.98c1.365-.006,2.889.086,3.281,1.727C457.393,327.1,456.758,328.357,454.983,329.015Zm-2.395-4.869-.4-1.653c-.584.287-.748.683-.656,1.068C451.634,323.967,452.036,324.105,452.588,324.146Zm2.674,2.328c-.1-.408-.488-.548-1.031-.6l.384,1.607C455.167,327.21,455.351,326.846,455.262,326.474Z" transform="translate(-449.616 -319.372)"/>
      </g>
    </g>
    <g id="Group_18560" data-name="Group 18560" transform="translate(-3446.481 -1492.301)">
      <g id="Group_18559" data-name="Group 18559">
        <path id="Path_21303" data-name="Path 21303" d="M363.237,272.961a11.228,11.228,0,1,1-5.383-14.919A11.216,11.216,0,0,1,363.237,272.961Z" transform="translate(-341.854 -256.966)" fill="#ff725e"/>
      </g>
    </g>
    <g id="Group_18564" data-name="Group 18564" transform="translate(-3443.581 -1489.397)">
      <g id="Group_18563" data-name="Group 18563">
        <path id="Path_21304" data-name="Path 21304" d="M368.63,279.647a8.556,8.556,0,1,1-4.1-11.369A8.547,8.547,0,0,1,368.63,279.647Z" transform="translate(-352.335 -267.458)" fill="#ff725e"/>
      </g>
    </g>
    <g id="Group_18569" data-name="Group 18569" transform="translate(-3443.897 -1489.708)">
      <g id="Group_18568" data-name="Group 18568">
        <path id="Path_21305" data-name="Path 21305" d="M367.573,278.6a.835.835,0,0,1,.044-.132l.146-.379.11-.278c.035-.1.065-.221.1-.346a6.215,6.215,0,0,0,.211-.873,8.14,8.14,0,0,0,.1-2.45,8.495,8.495,0,0,0-7.678-7.6,8.8,8.8,0,0,0-1.205-.032c-.2.01-.406.04-.611.059a4.253,4.253,0,0,0-.612.1,7.748,7.748,0,0,0-2.385.859,8.17,8.17,0,0,0-2.089,1.59,8.351,8.351,0,0,0-2.275,4.827,8.164,8.164,0,0,0,.1,2.624,7.738,7.738,0,0,0,.855,2.387,7.811,7.811,0,0,0,1.448,1.953,8.531,8.531,0,0,0,3.865,2.232,8.538,8.538,0,0,0,6.885-1.151,8.135,8.135,0,0,0,1.824-1.638,6.2,6.2,0,0,0,.539-.719c.073-.108.145-.2.2-.3l.145-.262.2-.354a.8.8,0,0,1,.073-.118.809.809,0,0,1-.057.126l-.184.363-.138.267c-.056.1-.126.195-.2.3a6.029,6.029,0,0,1-.529.734,8.072,8.072,0,0,1-1.822,1.677,8.612,8.612,0,0,1-6.979,1.211,8.662,8.662,0,0,1-3.944-2.259,7.966,7.966,0,0,1-1.482-1.989,7.9,7.9,0,0,1-.877-2.434,8.337,8.337,0,0,1-.108-2.679,8.515,8.515,0,0,1,2.323-4.929,8.322,8.322,0,0,1,2.134-1.621,7.887,7.887,0,0,1,2.435-.873,4.339,4.339,0,0,1,.624-.1c.209-.019.416-.049.623-.059a8.919,8.919,0,0,1,1.229.036,8.659,8.659,0,0,1,4.253,1.6,8.611,8.611,0,0,1,3.509,6.152,8.07,8.07,0,0,1-.132,2.473,6.041,6.041,0,0,1-.229.875c-.04.125-.072.242-.11.345l-.118.276-.163.373A.8.8,0,0,1,367.573,278.6Z" transform="translate(-351.192 -266.332)" fill="#263238"/>
      </g>
    </g>
    <path id="Path_21306" data-name="Path 21306" d="M369.37,278.931a5.085,5.085,0,0,1,.236-1.027,9.134,9.134,0,0,0,.234-2.789,8.751,8.751,0,0,0-.352-1.884,8.5,8.5,0,0,0-.906-1.989,8.28,8.28,0,0,0-1.551-1.833,8.179,8.179,0,0,0-1.015-.763,8.2,8.2,0,0,0-2.392-1.036,8.212,8.212,0,0,0-1.252-.218,8.295,8.295,0,0,0-2.4.123,8.525,8.525,0,0,0-2.072.7,8.782,8.782,0,0,0-1.617,1.032,9.149,9.149,0,0,0-1.876,2.078c-.369.559-.541.894-.588.873a2.541,2.541,0,0,1,.37-1,7.978,7.978,0,0,1,1.8-2.3,8.567,8.567,0,0,1,3.866-1.969,8.583,8.583,0,0,1,2.579-.171,8.568,8.568,0,0,1,1.352.225,8.6,8.6,0,0,1,2.581,1.118,8.586,8.586,0,0,1,1.089.832,8.607,8.607,0,0,1,1.639,2,8.544,8.544,0,0,1,1.206,4.164,7.982,7.982,0,0,1-.45,2.885A2.543,2.543,0,0,1,369.37,278.931Z" transform="translate(-3796.984 -1756.323)"/>
    <g id="Group_18579" data-name="Group 18579" transform="translate(-3440.361 -1486.646)">
      <g id="Group_18578" data-name="Group 18578">
        <path id="Path_21307" data-name="Path 21307" d="M367.774,287.981l-.616,1.357-1.212-.55.6-1.321a6.309,6.309,0,0,1-2.578-2.338l1.337-1.177a5.381,5.381,0,0,0,1.961,1.927l.918-2.024c-1.2-.937-2.5-2.067-1.71-3.8.583-1.284,2.016-1.964,4.029-1.313l.61-1.345,1.212.55-.6,1.321a6.017,6.017,0,0,1,2.125,1.855l-1.282,1.216A5.453,5.453,0,0,0,371,280.867l-.935,2.06c1.2.925,2.477,2.044,1.7,3.753C371.2,287.941,369.781,288.614,367.774,287.981Zm1.218-5.906.78-1.721c-.708-.146-1.122.091-1.3.49C368.277,281.268,368.535,281.664,368.992,282.075Zm.759,3.867c.193-.425-.055-.814-.493-1.233l-.759,1.672C369.166,286.523,369.576,286.329,369.751,285.941Z" transform="translate(-363.968 -277.397)"/>
      </g>
    </g>
    <path id="Path_21308" data-name="Path 21308" d="M129.2,245.448a18.972,18.972,0,0,0-7.514,7.752,56.575,56.575,0,0,0-4.08,10.143l-1,17.882c3.771-6.416,6.8-13.958,7.616-21.356l-2.51-.224a6.005,6.005,0,0,0,3.994-2.922,17.79,17.79,0,0,0,1.813-4.754l-3.062.455A11.349,11.349,0,0,0,129.2,245.448Z" transform="translate(-3625.427 -1740.937)" fill="#455a64"/>
    <path id="Path_21309" data-name="Path 21309" d="M129.2,245.448a18.972,18.972,0,0,0-7.514,7.752,56.575,56.575,0,0,0-4.08,10.143l-1,17.882c3.771-6.416,6.8-13.958,7.616-21.356l-2.51-.224a6.005,6.005,0,0,0,3.994-2.922,17.79,17.79,0,0,0,1.813-4.754l-3.062.455A11.349,11.349,0,0,0,129.2,245.448Z" transform="translate(-3625.427 -1740.937)"/>
    <path id="Path_21310" data-name="Path 21310" d="M93.4,281.547s-8.186-9.8-8.091-19.151h3.307s-3.592-2.362-3.308-3.684.379-6.33.379-6.33l3.023.756s-2.268-1.134-2.551-2.929.661-10.109.661-10.109,3.685,3.874,4.818,7.842,4.11,8.6,3.236,20.69S93.4,281.547,93.4,281.547Z" transform="translate(-3602.78 -1737.068)" fill="#455a64"/>
    <path id="Path_21311" data-name="Path 21311" d="M129.576,310.348s8.869-5.908,10.839-13.448l-2.658-.724s3.4-1.113,3.465-2.239,1.08-5.172,1.08-5.172l-2.6-.054s2.071-.415,2.692-1.8,1.68-8.272,1.68-8.272a19.162,19.162,0,0,0-5.589,5.25c-1.78,2.942-5.185,6.013-7.128,15.927S129.576,310.348,129.576,310.348Z" transform="translate(-3634.805 -1764.944)" fill="#455a64"/>
    <path id="Path_21312" data-name="Path 21312" d="M98.893,270.965a.6.6,0,0,1,.029.1l.071.3.259,1.163c.113.5.245,1.124.388,1.845s.315,1.54.481,2.45c.35,1.817.72,3.989,1.1,6.4s.737,5.082,1.065,7.886.57,5.484.763,7.923.317,4.639.39,6.488c.046.924.068,1.76.091,2.495s.038,1.367.043,1.885.01.91.013,1.191c0,.13,0,.233,0,.31a.568.568,0,0,1,0,.105.6.6,0,0,1-.01-.105c0-.077-.008-.179-.014-.31-.009-.28-.023-.68-.04-1.19s-.035-1.149-.068-1.883-.06-1.57-.112-2.493c-.087-1.847-.233-4.044-.421-6.482s-.453-5.113-.774-7.917-.692-5.465-1.053-7.883-.732-4.588-1.069-6.406c-.159-.911-.322-1.731-.46-2.453s-.259-1.343-.364-1.849l-.232-1.168-.057-.3A.572.572,0,0,1,98.893,270.965Z" transform="translate(-3612.617 -1759.391)" fill="#263238"/>
    <path id="Path_21313" data-name="Path 21313" d="M66.616,351.8s-7.491-8.5-9.817-13.638l1.756-.75a4.55,4.55,0,0,1-3.564-1.168,13.481,13.481,0,0,1-2.422-3l2.313-.391a8.6,8.6,0,0,1-5.054-3.915,14.38,14.38,0,0,1,7.234,3.822,36.006,36.006,0,0,1,4.384,5.079,17.309,17.309,0,0,1,1.7,2.8C64.407,343.238,66.62,348.675,66.616,351.8Z" transform="translate(-3577.131 -1801.317)" fill="#455a64"/>
    <path id="Path_21314" data-name="Path 21314" d="M135.347,296.519a.455.455,0,0,1-.035.086l-.116.247-.457.943c-.4.816-.971,2-1.66,3.476s-1.486,3.237-2.34,5.21-1.749,4.161-2.646,6.473-1.695,4.539-2.4,6.571-1.295,3.876-1.774,5.43-.858,2.814-1.11,3.688l-.3,1-.081.26a.047.047,0,1,1-.014,0l.067-.264.27-1.012c.235-.879.6-2.145,1.066-3.7s1.057-3.4,1.746-5.443,1.5-4.263,2.389-6.58,1.8-4.5,2.659-6.474,1.666-3.734,2.37-5.2,1.284-2.649,1.7-3.457l.481-.931.128-.24A.436.436,0,0,1,135.347,296.519Z" transform="translate(-3629.62 -1777.873)" fill="#263238"/>
    <path id="Path_21315" data-name="Path 21315" d="M98.446,386.728a.668.668,0,0,1-.035-.156l-.072-.451c-.029-.2-.065-.436-.117-.713s-.1-.594-.174-.94c-.134-.7-.327-1.518-.572-2.422s-.564-1.884-.943-2.9-.8-1.953-1.207-2.8-.812-1.584-1.172-2.2c-.172-.31-.346-.58-.491-.821s-.276-.446-.384-.612l-.244-.386a.671.671,0,0,1-.077-.141.679.679,0,0,1,.1.124l.267.372c.116.162.254.362.405.6s.332.5.511.812c.371.606.781,1.348,1.2,2.188s.836,1.79,1.222,2.8.689,2,.936,2.912.422,1.737.544,2.437c.069.349.11.668.153.947s.073.52.092.718.033.335.045.455A.691.691,0,0,1,98.446,386.728Z" transform="translate(-3608.325 -1832.607)" fill="#263238"/>
    <rect id="Rectangle_7192" data-name="Rectangle 7192" width="16.395" height="3.344" transform="translate(-3516.39 -1447.878)" fill="#ff725e"/>
    <path id="Path_21316" data-name="Path 21316" d="M94.9,429.558l1.773,11.249h9.907l1.653-11.249Z" transform="translate(-3609.731 -1874.092)" fill="#ff725e"/>
    <path id="Path_21317" data-name="Path 21317" d="M108.661,429.37c0,.04-3.1.072-6.927.072s-6.927-.032-6.927-.072,3.1-.072,6.927-.072S108.661,429.33,108.661,429.37Z" transform="translate(-3609.662 -1873.904)" fill="#263238"/>
    <rect id="Rectangle_7193" data-name="Rectangle 7193" width="47.442" height="33.718" rx="7.875" transform="translate(-3424.677 -1466.878)" fill="#455a64"/>
    <rect id="Rectangle_7194" data-name="Rectangle 7194" width="19.66" height="7.984" rx="3.992" transform="translate(-3393.902 -1453.116)" fill="#455a64"/>
    <path id="Path_21318" data-name="Path 21318" d="M547.442,406.309h-12.28a3.832,3.832,0,0,1-3.828-3.828v-.6a3.833,3.833,0,0,1,3.828-3.828h12.28a3.833,3.833,0,0,1,3.828,3.828v.6A3.833,3.833,0,0,1,547.442,406.309Zm-12.28-7.984a3.555,3.555,0,0,0-3.551,3.551v.6a3.555,3.555,0,0,0,3.551,3.551h12.28a3.556,3.556,0,0,0,3.551-3.551v-.6a3.556,3.556,0,0,0-3.551-3.551Z" transform="translate(-3925.375 -1851.303)" fill="#263238"/>
    <circle id="Ellipse_2218" data-name="Ellipse 2218" cx="2.837" cy="2.837" r="2.837" transform="matrix(0.575, -0.818, 0.818, 0.575, -3393.447, -1448.436)" fill="#263238"/>
    <path id="Path_21319" data-name="Path 21319" d="M535.257,128.318a10.337,10.337,0,0,0,3.3,7.8l1.474-4.272" transform="translate(-3928.208 -1656.224)" fill="#263238"/>
    <path id="Path_21320" data-name="Path 21320" d="M544.032,95.9a6.265,6.265,0,0,0-4.21-.508,13.274,13.274,0,0,0-3.982,1.646,6.509,6.509,0,0,0-1.9,1.485,9.24,9.24,0,0,0-1.916,4.531,16.3,16.3,0,0,0,.889,5.26c.462.994,2.627,1.751,3.7,2l9.8-11.4A4.964,4.964,0,0,0,544.032,95.9Z" transform="translate(-3925.866 -1632.302)" fill="#263238"/>
    <path id="Path_21321" data-name="Path 21321" d="M575.4,102.071l-2.35-.42c1.284,3.059,1.633,10.056,2.368,13.291.866-1.257,2.878-5.085,2.77-6.608S578.2,101.812,575.4,102.071Z" transform="translate(-3955.547 -1636.937)" fill="#263238"/>
    <path id="Path_21322" data-name="Path 21322" d="M553.734,108.157c-.153-2.347-1.715-5.225-4.054-4.972l-5.412,1.381a4.014,4.014,0,0,0-3.02,3.7c-.006.089-.015-.02-.014.047l1.208,14.015,4.063,8.062h0l3.588-6.8c0-1.143,0-3.707,0-3.7s3-.5,3.611-4.42A37.18,37.18,0,0,0,553.734,108.157Z" transform="translate(-3932.535 -1638.035)" fill="#ffbf9d"/>
    <path id="Path_21323" data-name="Path 21323" d="M577.723,131.611a.5.5,0,0,1-.483.508.48.48,0,0,1-.518-.451.5.5,0,0,1,.482-.508A.48.48,0,0,1,577.723,131.611Z" transform="translate(-3958.201 -1658.278)" fill="#263238"/>
    <path id="Path_21324" data-name="Path 21324" d="M579.092,125.358c-.062.066-.443-.215-.983-.213s-.935.274-.994.208c-.029-.029.034-.147.207-.273a1.378,1.378,0,0,1,.8-.247,1.322,1.322,0,0,1,.783.251C579.066,125.21,579.122,125.328,579.092,125.358Z" transform="translate(-3958.48 -1653.703)" fill="#263238"/>
    <path id="Path_21325" data-name="Path 21325" d="M561.364,131.611a.5.5,0,0,1-.483.508.48.48,0,0,1-.518-.451.5.5,0,0,1,.482-.508A.48.48,0,0,1,561.364,131.611Z" transform="translate(-3946.369 -1658.278)" fill="#263238"/>
    <path id="Path_21326" data-name="Path 21326" d="M560.558,125.358c-.062.066-.444-.215-.983-.212s-.935.273-.994.208c-.028-.029.034-.148.207-.273a1.377,1.377,0,0,1,.8-.247,1.328,1.328,0,0,1,.783.251C560.532,125.21,560.588,125.328,560.558,125.358Z" transform="translate(-3945.075 -1653.703)" fill="#263238"/>
    <path id="Path_21327" data-name="Path 21327" d="M571.157,130.3a3.579,3.579,0,0,1,.877-.16c.138-.015.268-.042.291-.136a.7.7,0,0,0-.093-.408l-.41-1.049a18.072,18.072,0,0,1-.922-2.745,18.084,18.084,0,0,1,1.141,2.664l.393,1.056a.8.8,0,0,1,.073.541.346.346,0,0,1-.226.2.93.93,0,0,1-.234.033A3.513,3.513,0,0,1,571.157,130.3Z" transform="translate(-3953.986 -1654.402)" fill="#263238"/>
    <path id="Path_21328" data-name="Path 21328" d="M554.487,158.531s1.274,2.688,5.19,2.313v-.921A9.86,9.86,0,0,1,554.487,158.531Z" transform="translate(-3942.12 -1678.075)" fill="#ff9a6c"/>
    <path id="Path_21329" data-name="Path 21329" d="M558.691,118.627c-.053.147-.592.079-1.226.156s-1.146.252-1.23.12c-.038-.063.051-.2.257-.344a2.147,2.147,0,0,1,1.871-.211C558.6,118.442,558.713,118.557,558.691,118.627Z" transform="translate(-3943.378 -1648.923)" fill="#263238"/>
    <path id="Path_21330" data-name="Path 21330" d="M578.833,119.3c-.095.123-.467,0-.914-.009-.447-.02-.826.084-.914-.044-.039-.062.021-.185.186-.3a1.324,1.324,0,0,1,1.473.043C578.822,119.118,578.874,119.245,578.833,119.3Z" transform="translate(-3958.397 -1649.302)" fill="#263238"/>
    <path id="Path_21331" data-name="Path 21331" d="M550.147,100.621a1.721,1.721,0,0,0-1.52-.975,3.344,3.344,0,0,0-1.805.526c-2.331,1.347-3.529,4.6-5.832,6-.566.343-1.3.029-1.785.483a1.662,1.662,0,0,0-.528,1.786,5.48,5.48,0,0,1-.8-1.351,1.85,1.85,0,0,1,.065-1.526c.2-.345.551-.609.648-1a5.232,5.232,0,0,0-.034-1.046,2.28,2.28,0,0,1,.358-1,10.157,10.157,0,0,1,3.741-3.936,6.623,6.623,0,0,1,3.435-.888,5.068,5.068,0,0,1,3.268,1.3c.515.48,1.057.977.79,1.629" transform="translate(-3930.011 -1634.073)" fill="#263238"/>
    <path id="Path_21332" data-name="Path 21332" d="M537.708,131.265a1.365,1.365,0,0,0-2.11,1.321,1.584,1.584,0,0,0,2.105,1.633C537.708,134.158,537.708,131.265,537.708,131.265Z" transform="translate(-3928.458 -1658.203)" fill="#ffbf9d"/>
    <path id="Path_21333" data-name="Path 21333" d="M538.442,135.211c-.009-.007-.037.025-.1.053a.368.368,0,0,1-.275,0,.909.909,0,0,1-.413-.819,1.215,1.215,0,0,1,.108-.525.424.424,0,0,1,.279-.28.187.187,0,0,1,.216.1c.028.059.014.1.025.1s.045-.035.029-.122a.234.234,0,0,0-.082-.133.278.278,0,0,0-.2-.056.517.517,0,0,0-.387.323,1.247,1.247,0,0,0-.133.586.953.953,0,0,0,.527.915.393.393,0,0,0,.337-.053C538.438,135.262,538.449,135.215,538.442,135.211Z" transform="translate(-3929.84 -1660)" fill="#ff9a6c"/>
    <path id="Path_21334" data-name="Path 21334" d="M540.192,109.335a.831.831,0,0,0,.127-.071c.081-.051.2-.12.353-.225A7.244,7.244,0,0,0,541.811,108,20.309,20.309,0,0,0,543.2,106.2a16.534,16.534,0,0,1,1.74-2.166,6.6,6.6,0,0,1,1.122-.887,5.463,5.463,0,0,1,1.213-.55,6,6,0,0,1,2.233-.274,5.758,5.758,0,0,1,1.5.293c.173.053.3.111.391.145a.824.824,0,0,0,.138.049.819.819,0,0,0-.13-.066,3.549,3.549,0,0,0-.386-.162,5.465,5.465,0,0,0-1.5-.326,5.956,5.956,0,0,0-2.265.258,5.5,5.5,0,0,0-1.235.554,6.624,6.624,0,0,0-1.141.9,16.115,16.115,0,0,0-1.745,2.183,21.643,21.643,0,0,1-1.37,1.814,7.843,7.843,0,0,1-1.109,1.051c-.144.109-.265.182-.342.238A.8.8,0,0,0,540.192,109.335Z" transform="translate(-3931.781 -1637.357)" fill="#455a64"/>
    <path id="Path_21335" data-name="Path 21335" d="M542.054,122.233a3.251,3.251,0,0,0,.206,1.7,1.119,1.119,0,0,0,1.438.573,1.594,1.594,0,0,0,.6-1.222c.2-1.343.291-2.7.5-4.041Z" transform="translate(-3933.113 -1649.657)" fill="#263238"/>
    <path id="Path_21336" data-name="Path 21336" d="M552.879,104.395c0,.012-.186-.035-.524-.046a3.612,3.612,0,0,0-1.4.255,4.588,4.588,0,0,0-.874.45,9.432,9.432,0,0,0-.9.688,10.835,10.835,0,0,0-1.765,1.9c-.268.376-.505.763-.762,1.121a5.359,5.359,0,0,1-.845.95,9.407,9.407,0,0,1-1.781,1.192c-.539.285-.99.485-1.3.623l-.361.154a.586.586,0,0,1-.129.046.6.6,0,0,1,.119-.068l.351-.174c.3-.151.749-.362,1.281-.655a9.742,9.742,0,0,0,1.749-1.2,5.342,5.342,0,0,0,.823-.936c.252-.354.489-.741.76-1.122a10.622,10.622,0,0,1,1.791-1.917,9.2,9.2,0,0,1,.919-.688,4.564,4.564,0,0,1,.9-.446,3.483,3.483,0,0,1,1.426-.223,2.49,2.49,0,0,1,.39.054A.591.591,0,0,1,552.879,104.395Z" transform="translate(-3933.262 -1638.85)" fill="#455a64"/>
    <path id="Path_21337" data-name="Path 21337" d="M535.757,118.282a.933.933,0,0,1-.186.126l-.534.313-.18.1a.571.571,0,0,1-.231.077.221.221,0,0,1-.143-.034.184.184,0,0,1-.079-.139.471.471,0,0,1,.1-.267l.62-.992.083.078a2.208,2.208,0,0,1-1.432.426.639.639,0,0,1-.191-.033.26.26,0,0,1-.164-.143.23.23,0,0,1,.035-.213.893.893,0,0,1,.12-.132,4.43,4.43,0,0,0,.718-.906,7.528,7.528,0,0,0,.457-.971,1.1,1.1,0,0,1-.066.284,3.95,3.95,0,0,1-.318.729,4.238,4.238,0,0,1-.714.942c-.079.074-.157.16-.126.227s.145.1.256.1a2.131,2.131,0,0,0,1.357-.4l.252-.184-.168.262-.632.984a.4.4,0,0,0-.09.206c0,.06.054.095.121.09a1.075,1.075,0,0,0,.379-.156l.551-.283A.956.956,0,0,1,535.757,118.282Z" transform="translate(-3926.874 -1647.009)" fill="#455a64"/>
    <g id="Group_18632" data-name="Group 18632" transform="translate(-3384.838 -1523.403)">
      <g id="Group_18631" data-name="Group 18631">
        <g id="Group_18630" data-name="Group 18630">
          <g id="Group_18629" data-name="Group 18629">
            <g id="Group_18628" data-name="Group 18628">
              <path id="Path_21338" data-name="Path 21338" d="M566.127,144.914a.946.946,0,0,0-.851-.317.86.86,0,0,0-.581.33.526.526,0,0,0-.022.611.637.637,0,0,0,.687.149,1.978,1.978,0,0,0,.652-.41.568.568,0,0,0,.144-.156.169.169,0,0,0-.007-.19" transform="translate(-564.586 -144.589)" fill="#ff9a6c"/>
            </g>
          </g>
        </g>
      </g>
    </g>
    <g id="Group_18641" data-name="Group 18641" transform="translate(-3384.71 -1523.916)">
      <g id="Group_18640" data-name="Group 18640">
        <g id="Group_18639" data-name="Group 18639">
          <g id="Group_18638" data-name="Group 18638">
            <g id="Group_18637" data-name="Group 18637">
              <g id="Group_18636" data-name="Group 18636">
                <path id="Path_21339" data-name="Path 21339" d="M565.121,142.735c.084-.007.1.547.6.927s1.094.3,1.1.378c.009.034-.13.112-.384.126a1.423,1.423,0,0,1-.918-.283,1.2,1.2,0,0,1-.466-.778C565.024,142.872,565.083,142.733,565.121,142.735Z" transform="translate(-565.045 -142.735)" fill="#263238"/>
              </g>
            </g>
          </g>
        </g>
      </g>
    </g>
    <path id="Path_21340" data-name="Path 21340" d="M564.477,278.094l2.265,5.118-11,4.117-2.461-5.507Z" transform="translate(-3941.247 -1764.547)" fill="#263238"/>
    <g id="Group_18652" data-name="Group 18652" transform="translate(-3360.735 -1455.3)">
      <g id="Group_18651" data-name="Group 18651">
        <g id="Group_18650" data-name="Group 18650">
          <g id="Group_18649" data-name="Group 18649">
            <g id="Group_18648" data-name="Group 18648">
              <g id="Group_18647" data-name="Group 18647">
                <path id="Path_21341" data-name="Path 21341" d="M657.867,390.657l3.009,6.5s7.513-.994,8.186.153l-12.285,6.4-5.1-9.928Z" transform="translate(-651.673 -390.657)" fill="#455a64"/>
              </g>
            </g>
          </g>
        </g>
      </g>
    </g>
    <g id="Group_18661" data-name="Group 18661" transform="translate(-3355.716 -1447.547)">
      <g id="Group_18660" data-name="Group 18660">
        <g id="Group_18659" data-name="Group 18659">
          <g id="Group_18658" data-name="Group 18658">
            <g id="Group_18657" data-name="Group 18657">
              <g id="Group_18656" data-name="Group 18656">
                <g id="Group_18655" data-name="Group 18655">
                  <path id="Path_21342" data-name="Path 21342" d="M669.984,418.8a.571.571,0,0,0-.057.76.549.549,0,0,0,.753.063.6.6,0,0,0,.056-.805.57.57,0,0,0-.79.021" transform="translate(-669.808 -418.671)" fill="#e0e0e0"/>
                </g>
              </g>
            </g>
          </g>
        </g>
      </g>
    </g>
    <g id="Group_18669" data-name="Group 18669" transform="translate(-3356.038 -1449.016)">
      <g id="Group_18668" data-name="Group 18668">
        <g id="Group_18667" data-name="Group 18667">
          <g id="Group_18666" data-name="Group 18666">
            <g id="Group_18665" data-name="Group 18665">
              <g id="Group_18664" data-name="Group 18664">
                <path id="Path_21343" data-name="Path 21343" d="M669.052,420.129l-.407-.791,12.048-5.976a1.057,1.057,0,0,1,.739.4Z" transform="translate(-668.645 -413.363)" fill="#263238"/>
              </g>
            </g>
          </g>
        </g>
      </g>
    </g>
    <g id="Group_18678" data-name="Group 18678" transform="translate(-3352.229 -1448.838)">
      <g id="Group_18677" data-name="Group 18677">
        <g id="Group_18676" data-name="Group 18676">
          <g id="Group_18675" data-name="Group 18675">
            <g id="Group_18674" data-name="Group 18674">
              <g id="Group_18673" data-name="Group 18673">
                <g id="Group_18672" data-name="Group 18672">
                  <path id="Path_21344" data-name="Path 21344" d="M683.236,414.023c.029.062-.262.244-.462.592s-.23.685-.3.689-.156-.394.094-.81S683.221,413.961,683.236,414.023Z" transform="translate(-682.406 -414.007)" fill="#263238"/>
                </g>
              </g>
            </g>
          </g>
        </g>
      </g>
    </g>
    <g id="Group_18687" data-name="Group 18687" transform="translate(-3350.319 -1448.954)">
      <g id="Group_18686" data-name="Group 18686">
        <g id="Group_18685" data-name="Group 18685">
          <g id="Group_18684" data-name="Group 18684">
            <g id="Group_18683" data-name="Group 18683">
              <g id="Group_18682" data-name="Group 18682">
                <g id="Group_18681" data-name="Group 18681">
                  <path id="Path_21345" data-name="Path 21345" d="M689.812,413.6c.044.052-.167.289-.244.652s0,.665-.06.694-.276-.3-.172-.746S689.781,413.539,689.812,413.6Z" transform="translate(-689.31 -413.587)" fill="#263238"/>
                </g>
              </g>
            </g>
          </g>
        </g>
      </g>
    </g>
    <g id="Group_18696" data-name="Group 18696" transform="translate(-3348.58 -1449.045)">
      <g id="Group_18695" data-name="Group 18695">
        <g id="Group_18694" data-name="Group 18694">
          <g id="Group_18693" data-name="Group 18693">
            <g id="Group_18692" data-name="Group 18692">
              <g id="Group_18691" data-name="Group 18691">
                <g id="Group_18690" data-name="Group 18690">
                  <path id="Path_21346" data-name="Path 21346" d="M695.893,414.546c-.049.041-.288-.22-.3-.633s.2-.69.256-.653-.034.306-.018.645S695.95,414.509,695.893,414.546Z" transform="translate(-695.591 -413.257)" fill="#263238"/>
                </g>
              </g>
            </g>
          </g>
        </g>
      </g>
    </g>
    <g id="Group_18705" data-name="Group 18705" transform="translate(-3353.523 -1450.288)">
      <g id="Group_18704" data-name="Group 18704">
        <g id="Group_18703" data-name="Group 18703">
          <g id="Group_18702" data-name="Group 18702">
            <g id="Group_18701" data-name="Group 18701">
              <g id="Group_18700" data-name="Group 18700">
                <g id="Group_18699" data-name="Group 18699">
                  <path id="Path_21347" data-name="Path 21347" d="M679,408.819c0,.068-.319.126-.652.324s-.546.443-.6.407.089-.384.484-.612S679,408.756,679,408.819Z" transform="translate(-677.732 -408.766)" fill="#263238"/>
                </g>
              </g>
            </g>
          </g>
        </g>
      </g>
    </g>
    <g id="Group_18713" data-name="Group 18713" transform="translate(-3355.028 -1452.075)">
      <g id="Group_18712" data-name="Group 18712">
        <g id="Group_18711" data-name="Group 18711">
          <g id="Group_18710" data-name="Group 18710">
            <g id="Group_18709" data-name="Group 18709">
              <g id="Group_18708" data-name="Group 18708">
                <path id="Path_21348" data-name="Path 21348" d="M674.592,402.663a1.318,1.318,0,0,1-.626.314,3.149,3.149,0,0,1-.755.131,3.242,3.242,0,0,1-.455-.008.86.86,0,0,1-.263-.051.3.3,0,0,1-.192-.31.374.374,0,0,1,.2-.275.907.907,0,0,1,.25-.087,2.509,2.509,0,0,1,.456-.064,2.473,2.473,0,0,1,.768.086c.425.121.64.3.625.321s-.255-.085-.662-.157a2.814,2.814,0,0,0-.717-.031,2.62,2.62,0,0,0-.415.072c-.15.032-.263.089-.267.164,0,.029,0,.038.049.063a.709.709,0,0,0,.193.037,3.651,3.651,0,0,0,.426.021,3.883,3.883,0,0,0,.722-.075A4.774,4.774,0,0,1,674.592,402.663Z" transform="translate(-672.295 -402.311)" fill="#263238"/>
              </g>
            </g>
          </g>
        </g>
      </g>
    </g>
    <g id="Group_18722" data-name="Group 18722" transform="translate(-3373.302 -1445.001)">
      <g id="Group_18721" data-name="Group 18721">
        <g id="Group_18720" data-name="Group 18720">
          <g id="Group_18719" data-name="Group 18719">
            <g id="Group_18718" data-name="Group 18718">
              <g id="Group_18717" data-name="Group 18717">
                <path id="Path_21349" data-name="Path 21349" d="M613.339,428.009l-.38,7.148s7.1,2.638,7.163,3.966l-13.853-.09.136-11.162Z" transform="translate(-606.268 -427.87)" fill="#455a64"/>
              </g>
            </g>
          </g>
        </g>
      </g>
    </g>
    <g id="Group_18731" data-name="Group 18731" transform="translate(-3371.219 -1438.384)">
      <g id="Group_18730" data-name="Group 18730">
        <g id="Group_18729" data-name="Group 18729">
          <g id="Group_18728" data-name="Group 18728">
            <g id="Group_18727" data-name="Group 18727">
              <g id="Group_18726" data-name="Group 18726">
                <g id="Group_18725" data-name="Group 18725">
                  <path id="Path_21350" data-name="Path 21350" d="M614.208,451.8a.572.572,0,0,0-.406.645.549.549,0,0,0,.636.408.6.6,0,0,0,.427-.685.57.57,0,0,0-.709-.351" transform="translate(-613.791 -451.777)" fill="#e0e0e0"/>
                </g>
              </g>
            </g>
          </g>
        </g>
      </g>
    </g>
    <g id="Group_18739" data-name="Group 18739" transform="translate(-3373.301 -1434.728)">
      <g id="Group_18738" data-name="Group 18738">
        <g id="Group_18737" data-name="Group 18737">
          <g id="Group_18736" data-name="Group 18736">
            <g id="Group_18735" data-name="Group 18735">
              <g id="Group_18734" data-name="Group 18734">
                <path id="Path_21351" data-name="Path 21351" d="M606.269,465.877l.011-.889,13.444.358a1.057,1.057,0,0,1,.467.7Z" transform="translate(-606.269 -464.988)" fill="#263238"/>
              </g>
            </g>
          </g>
        </g>
      </g>
    </g>
    <g id="Group_18748" data-name="Group 18748" transform="translate(-3367.774 -1437.734)">
      <g id="Group_18747" data-name="Group 18747">
        <g id="Group_18746" data-name="Group 18746">
          <g id="Group_18745" data-name="Group 18745">
            <g id="Group_18744" data-name="Group 18744">
              <g id="Group_18743" data-name="Group 18743">
                <g id="Group_18742" data-name="Group 18742">
                  <path id="Path_21352" data-name="Path 21352" d="M627.529,454.2c0,.068-.346.093-.685.307s-.524.5-.586.47.046-.421.462-.672S627.545,454.133,627.529,454.2Z" transform="translate(-626.241 -454.128)" fill="#263238"/>
                </g>
              </g>
            </g>
          </g>
        </g>
      </g>
    </g>
    <g id="Group_18757" data-name="Group 18757" transform="translate(-3365.972 -1437.063)">
      <g id="Group_18756" data-name="Group 18756">
        <g id="Group_18755" data-name="Group 18755">
          <g id="Group_18754" data-name="Group 18754">
            <g id="Group_18753" data-name="Group 18753">
              <g id="Group_18752" data-name="Group 18752">
                <g id="Group_18751" data-name="Group 18751">
                  <path id="Path_21353" data-name="Path 21353" d="M633.693,456.579c.015.066-.283.177-.52.462s-.309.589-.377.585-.1-.391.2-.74S633.693,456.514,633.693,456.579Z" transform="translate(-632.75 -456.55)" fill="#263238"/>
                </g>
              </g>
            </g>
          </g>
        </g>
      </g>
    </g>
    <g id="Group_18766" data-name="Group 18766" transform="translate(-3364.304 -1436.434)">
      <g id="Group_18765" data-name="Group 18765">
        <g id="Group_18764" data-name="Group 18764">
          <g id="Group_18763" data-name="Group 18763">
            <g id="Group_18762" data-name="Group 18762">
              <g id="Group_18761" data-name="Group 18761">
                <g id="Group_18760" data-name="Group 18760">
                  <path id="Path_21354" data-name="Path 21354" d="M638.855,459.994c-.062.014-.152-.329.03-.7s.5-.514.532-.457-.173.254-.318.561S638.923,459.988,638.855,459.994Z" transform="translate(-638.777 -458.824)" fill="#263238"/>
                </g>
              </g>
            </g>
          </g>
        </g>
      </g>
    </g>
    <g id="Group_18775" data-name="Group 18775" transform="translate(-3368.036 -1439.574)">
      <g id="Group_18774" data-name="Group 18774">
        <g id="Group_18773" data-name="Group 18773">
          <g id="Group_18772" data-name="Group 18772">
            <g id="Group_18771" data-name="Group 18771">
              <g id="Group_18770" data-name="Group 18770">
                <g id="Group_18769" data-name="Group 18769">
                  <path id="Path_21355" data-name="Path 21355" d="M626.749,447.736c-.03.062-.341-.038-.728-.018s-.69.136-.724.077.259-.3.715-.314S626.784,447.682,626.749,447.736Z" transform="translate(-625.294 -447.478)" fill="#263238"/>
                </g>
              </g>
            </g>
          </g>
        </g>
      </g>
    </g>
    <g id="Group_18783" data-name="Group 18783" transform="translate(-3368.418 -1442.011)">
      <g id="Group_18782" data-name="Group 18782">
        <g id="Group_18781" data-name="Group 18781">
          <g id="Group_18780" data-name="Group 18780">
            <g id="Group_18779" data-name="Group 18779">
              <g id="Group_18778" data-name="Group 18778">
                <path id="Path_21356" data-name="Path 21356" d="M626.027,439.832a1.314,1.314,0,0,1-.7-.016,3.166,3.166,0,0,1-.729-.238,3.323,3.323,0,0,1-.4-.221.857.857,0,0,1-.209-.168.3.3,0,0,1-.025-.364.375.375,0,0,1,.3-.151.91.91,0,0,1,.262.041,2.509,2.509,0,0,1,.433.157,2.478,2.478,0,0,1,.639.435c.319.306.425.563.4.576s-.185-.194-.511-.448a2.793,2.793,0,0,0-.619-.363,2.661,2.661,0,0,0-.4-.131c-.148-.041-.274-.045-.313.021-.014.025-.016.035.014.079a.692.692,0,0,0,.153.123,3.66,3.66,0,0,0,.367.218,3.913,3.913,0,0,0,.672.271A4.869,4.869,0,0,1,626.027,439.832Z" transform="translate(-623.914 -438.675)" fill="#263238"/>
              </g>
            </g>
          </g>
        </g>
      </g>
    </g>
    <g id="Group_18798" data-name="Group 18798" transform="translate(-3397.911 -1482.657)">
      <g id="Group_18797" data-name="Group 18797">
        <g id="Group_18791" data-name="Group 18791">
          <g id="Group_18790" data-name="Group 18790">
            <g id="Group_18789" data-name="Group 18789">
              <g id="Group_18788" data-name="Group 18788">
                <g id="Group_18787" data-name="Group 18787">
                  <path id="Path_21357" data-name="Path 21357" d="M517.348,295.285s27.757-3.474,29.392-3.475a7.129,7.129,0,0,1,6.823,5.185c.424,1.671,8.969,25.807,8.969,25.807l-6.3,3.267-9.269-16.47-4.724-8.218-24.345,3.761Z" transform="translate(-517.348 -291.81)" fill="#263238"/>
                </g>
              </g>
            </g>
          </g>
        </g>
        <g id="Group_18796" data-name="Group 18796" transform="translate(6.804 8.15)">
          <g id="Group_18795" data-name="Group 18795">
            <g id="Group_18794" data-name="Group 18794">
              <g id="Group_18793" data-name="Group 18793">
                <g id="Group_18792" data-name="Group 18792">
                  <path id="Path_21358" data-name="Path 21358" d="M561.162,321.919a7.6,7.6,0,0,1,5.858,3.043c1.207,1.789.783,4.985.807,7.4.033,3.285-.761,23.3-.761,23.3l-7.781.13-1.63-20.86.1-3.855-15.536-1.263a9.194,9.194,0,0,1,2.065-8.425C544.729,320.908,561.162,321.919,561.162,321.919Z" transform="translate(-541.932 -321.258)" fill="#263238"/>
                </g>
              </g>
            </g>
          </g>
        </g>
      </g>
    </g>
    <g id="Group_18802" data-name="Group 18802" transform="translate(-3399.133 -1485.891)">
      <g id="Group_18801" data-name="Group 18801">
        <g id="Group_18800" data-name="Group 18800">
          <g id="Group_18799" data-name="Group 18799">
            <path id="Path_21359" data-name="Path 21359" d="M516.529,280.125s-6.136,9.443-2.372,16.537c1.794,3.381,7.161,3.377,7.161,3.377l5.5-6.892v-11.4Z" transform="translate(-512.935 -280.125)" fill="#263238"/>
          </g>
        </g>
      </g>
    </g>
    <path id="Path_21360" data-name="Path 21360" d="M543.223,330.859a.642.642,0,0,1,.1-.054l.31-.144,1.2-.542,4.415-1.967,6.556-2.9,3.873-1.707c.339-.143.666-.309,1.027-.432a6.456,6.456,0,0,1,1.105-.282,8.365,8.365,0,0,1,2.32-.02,7.358,7.358,0,0,1,2.233.633,3.974,3.974,0,0,1,.96.628,3.593,3.593,0,0,1,.7.882,5.006,5.006,0,0,1,.65,2.078c.03.361.009.708.01,1.054s-.007.687-.011,1.024c-.031,2.7-.059,5.125-.082,7.168s-.053,3.683-.069,4.832c-.011.563-.02,1-.027,1.314,0,.144-.008.257-.011.342a.675.675,0,0,1-.009.116.617.617,0,0,1-.007-.117c0-.085,0-.2,0-.342,0-.309,0-.75,0-1.314,0-1.15.011-2.8.019-4.832s.03-4.471.049-7.168q0-.506.008-1.024c0-.345.018-.7-.012-1.041a4.859,4.859,0,0,0-.633-2.013,3.444,3.444,0,0,0-.677-.845,3.831,3.831,0,0,0-.923-.6,7.225,7.225,0,0,0-2.185-.619,8.244,8.244,0,0,0-2.275.019,6.328,6.328,0,0,0-1.078.275c-.347.117-.683.286-1.019.428l-3.876,1.7-6.568,2.868-4.434,1.921-1.209.515-.316.13A.651.651,0,0,1,543.223,330.859Z" transform="translate(-3933.973 -1796.837)" fill="#455a64"/>
    <line id="Line_5826" data-name="Line 5826" y1="2.787" x2="26.058" transform="translate(-3395.125 -1482.657)" fill="#455a64"/>
    <path id="Path_21361" data-name="Path 21361" d="M553.471,291.805c0,.04-5.826.7-13.021,1.465s-13.033,1.362-13.037,1.322,5.825-.7,13.022-1.465S553.467,291.766,553.471,291.805Z" transform="translate(-3922.539 -1774.462)" fill="#455a64"/>
    <path id="Path_21362" data-name="Path 21362" d="M540.906,190.778c.452-1.436,2.028-6.722,1.674-9.508-.283-2.227-2.276-5.077-2.873-6.6-.281-.717-2.52-1.455-3.856-1.849l-1.329-1.57-.111.766a3.822,3.822,0,0,1-3.172,1.294,7.054,7.054,0,0,1-4.669-2.172,29.132,29.132,0,0,0-6.094,2.3c-1.267.5,2.525,12.65,2.525,12.65s1.359,7.629.08,10.2c-.72,1.449-1.552,3.1-2.166,4.446,0,0-1.7,3.249-1.339,3.165.767-.178,6.091,1.113,11.089,1.375,9.247.485,11.015-.885,11.015-.885-.483-2.364-1.293-10.661-1.291-12.27A8.857,8.857,0,0,1,540.906,190.778Z" transform="translate(-3916.835 -1687.194)" fill="#ff725e"/>
    <g id="Group_18817" data-name="Group 18817" transform="translate(-3382.149 -1515.563)">
      <g id="Group_18816" data-name="Group 18816">
        <g id="Group_18815" data-name="Group 18815">
          <path id="Path_21363" data-name="Path 21363" d="M574.3,172.913s6.026,1.552,6.615,2.353c1.6,2.178,11.257,17.082,6.518,21.527-3.1,2.912-7.464-3.231-7.464-3.231Z" transform="translate(-574.299 -172.913)" fill="#ff725e"/>
        </g>
      </g>
    </g>
    <g id="Group_18820" data-name="Group 18820" transform="translate(-3376.771 -1499.189)">
      <path id="Path_21364" data-name="Path 21364" d="M600.908,233.253a2.535,2.535,0,0,1-.422-.072l-1.155-.239c-.982-.2-2.358-.48-3.936-.707l.084-.048-.473,1.167-1.124,2.743-.011-.069,1.744,2.092.484.6a1.253,1.253,0,0,1,.16.222c-.006,0,.445.2-.2-.195l-.515-.574-1.789-2.056-.027-.031.016-.038,1.108-2.749.475-1.166.023-.056.061.009c1.588.236,2.958.536,3.937.761.489.113.878.211,1.145.283A2.582,2.582,0,0,1,600.908,233.253Z" transform="translate(-593.734 -232.077)" fill="#263238"/>
    </g>
    <g id="Group_18823" data-name="Group 18823" transform="translate(-3377.159 -1510.701)">
      <path id="Path_21365" data-name="Path 21365" d="M594.1,202.47a2.946,2.946,0,0,1,.045-.488l.168-1.325a20.464,20.464,0,0,0,.148-4.38,11.778,11.778,0,0,0-1.246-4.186c-.253-.505-.482-.9-.642-1.177a3.485,3.485,0,0,1-.241-.431s.033.031.083.1.122.169.209.3c.176.265.421.657.689,1.16a11.216,11.216,0,0,1,1.3,4.219,18.547,18.547,0,0,1-.194,4.408c-.081.559-.161,1.009-.217,1.32A2.974,2.974,0,0,1,594.1,202.47Z" transform="translate(-592.329 -190.482)" fill="#263238"/>
    </g>
    <path id="Path_21366" data-name="Path 21366" d="M527.413,234.364l11.4-5.252-.772-2.255,1.754-.669,2.86.373a4.638,4.638,0,0,0,3.892-1.332h0l-7.1-1.8-8.1,1.729-2.06-5.971-.507,1.75.423,3.755.286,4.059Z" transform="translate(-3922.539 -1721.945)"/>
    <g id="Group_18830" data-name="Group 18830" transform="translate(-3403.143 -1513.811)">
      <g id="Group_18829" data-name="Group 18829">
        <g id="Group_18828" data-name="Group 18828">
          <path id="Path_21367" data-name="Path 21367" d="M505.373,179.247a5.211,5.211,0,0,0-2.918,3.344,13.331,13.331,0,0,0-.883,2.724c-.963,4.235-3.039,12.19-3.122,14.3-.15,3.813,2.883,4.895,4.52,5.229s13.016-5.553,13.016-5.553l-2.364-6.424-6.95,2.876s1.587-4.9,2.044-6.9S505.373,179.247,505.373,179.247Z" transform="translate(-498.445 -179.247)" fill="#ff725e"/>
        </g>
      </g>
    </g>
    <g id="Group_18838" data-name="Group 18838" transform="translate(-3376.48 -1503.615)">
      <g id="Group_18837" data-name="Group 18837">
        <g id="Group_18836" data-name="Group 18836">
          <g id="Group_18835" data-name="Group 18835">
            <g id="Group_18834" data-name="Group 18834">
              <path id="Path_21368" data-name="Path 21368" d="M596.2,219.914a5.2,5.2,0,0,1-.063-1.917,3.466,3.466,0,0,0,.04-1.16.886.886,0,0,0-.811-.751l-.58,2.792Z" transform="translate(-594.784 -216.084)" fill="#ffbf9d"/>
            </g>
          </g>
        </g>
      </g>
    </g>
    <g id="Group_18846" data-name="Group 18846" transform="translate(-3382.232 -1506.974)">
      <g id="Group_18845" data-name="Group 18845">
        <g id="Group_18844" data-name="Group 18844">
          <g id="Group_18843" data-name="Group 18843">
            <g id="Group_18842" data-name="Group 18842">
              <g id="Group_18841" data-name="Group 18841">
                <path id="Path_21369" data-name="Path 21369" d="M580.9,204.583l-2.046,9.869-4.851-.3,1.438-9.762a.523.523,0,0,1,.518-.447l4.43.006A.523.523,0,0,1,580.9,204.583Z" transform="translate(-574 -203.947)" fill="#263238"/>
              </g>
            </g>
          </g>
        </g>
      </g>
    </g>
    <g id="Group_18854" data-name="Group 18854" transform="translate(-3380.792 -1506.522)">
      <g id="Group_18853" data-name="Group 18853">
        <g id="Group_18852" data-name="Group 18852">
          <g id="Group_18851" data-name="Group 18851">
            <g id="Group_18850" data-name="Group 18850">
              <g id="Group_18849" data-name="Group 18849">
                <g id="Group_18848" data-name="Group 18848">
                  <path id="Path_21370" data-name="Path 21370" d="M579.206,208.328a1.681,1.681,0,0,0,.074-.29l.163-.8c.067-.344.144-.744.23-1.186a1.309,1.309,0,0,1,.035-.161.311.311,0,0,1,.086-.125.3.3,0,0,1,.137-.07.844.844,0,0,1,.172-.008l.766,0c1.05-.006,2-.017,2.688-.029l.815-.021a1.684,1.684,0,0,0,.3-.021,1.708,1.708,0,0,0-.3-.018l-.815-.012c-.688-.005-1.638-.006-2.688,0l-.766.005a.919.919,0,0,0-.194.012.405.405,0,0,0-.291.258,1.3,1.3,0,0,0-.037.176c-.078.443-.148.846-.208,1.19l-.132.8A1.684,1.684,0,0,0,579.206,208.328Z" transform="translate(-579.205 -205.581)" fill="#455a64"/>
                </g>
              </g>
            </g>
          </g>
        </g>
      </g>
    </g>
    <g id="Group_18861" data-name="Group 18861" transform="translate(-3378.22 -1506.085)">
      <g id="Group_18860" data-name="Group 18860">
        <g id="Group_18859" data-name="Group 18859">
          <g id="Group_18858" data-name="Group 18858">
            <g id="Group_18857" data-name="Group 18857">
              <g id="Group_18856" data-name="Group 18856">
                <path id="Path_21371" data-name="Path 21371" d="M588.519,207.319a.24.24,0,0,1,.289-.144.237.237,0,0,1,.172.193.271.271,0,0,1-.133.247.248.248,0,0,1-.276-.027A.228.228,0,0,1,588.519,207.319Z" transform="translate(-588.496 -207.162)" fill="#fafafa"/>
              </g>
            </g>
          </g>
        </g>
      </g>
    </g>
    <g id="Group_18868" data-name="Group 18868" transform="translate(-3381.406 -1503.039)">
      <g id="Group_18867" data-name="Group 18867">
        <g id="Group_18866" data-name="Group 18866">
          <g id="Group_18865" data-name="Group 18865">
            <g id="Group_18864" data-name="Group 18864">
              <path id="Path_21372" data-name="Path 21372" d="M580.329,218.256c.112.029,2.679,1.353,2.679,1.353l1.339,1.412a2.735,2.735,0,0,1,.091,2.093c-.392,1.275-1.031,1.723-2.507,2.088l-2.789-.441-1.409-1.157a.879.879,0,0,1-.28-.944l.019-.059-.16-.266a.484.484,0,0,1,.025-.537h0a.485.485,0,0,1,.677-.1l1.589,1.162L580.7,223l.164-.359-1.6-.832-2.039-1.578a.6.6,0,0,1-.09-.86h0a.6.6,0,0,1,.76-.13l1.893,1.113,1.977.873-.312-.785-2.324-1.72S578.94,217.9,580.329,218.256Z" transform="translate(-576.986 -218.167)" fill="#ffbf9d"/>
            </g>
          </g>
        </g>
      </g>
    </g>
    <g id="Group_18876" data-name="Group 18876" transform="translate(-3387.767 -1504.707)">
      <g id="Group_18875" data-name="Group 18875">
        <g id="Group_18874" data-name="Group 18874">
          <g id="Group_18873" data-name="Group 18873">
            <g id="Group_18872" data-name="Group 18872">
              <g id="Group_18871" data-name="Group 18871">
                <path id="Path_21373" data-name="Path 21373" d="M563.472,212.543a1.688,1.688,0,0,0-1.424.062c-.889.368-2.021.924-2.021.924l-1.7.486.2-.421s1.681.171,1.6-1.051l-1.013.044-.87-.447-1.711,1.665-.645,2.356-1.885.976,1.48,4.03,2.661-1.476,3.333-.065,1.221-.986.135-1.254,1.2-1.217s.152-.61-.4-.669-1.878,1.259-1.878,1.259l-1.33.032s-.229-.209-.042-.327,4.108-2.044,4.281-2.477.353-.715-.036-.835a2.172,2.172,0,0,0-1.038.1S563.767,212.637,563.472,212.543Z" transform="translate(-554.001 -212.139)" fill="#ffbf9d"/>
              </g>
            </g>
          </g>
        </g>
      </g>
    </g>
    <g id="Group_18884" data-name="Group 18884" transform="translate(-3381.549 -1503.617)">
      <g id="Group_18883" data-name="Group 18883">
        <g id="Group_18882" data-name="Group 18882">
          <g id="Group_18881" data-name="Group 18881">
            <g id="Group_18880" data-name="Group 18880">
              <g id="Group_18879" data-name="Group 18879">
                <g id="Group_18878" data-name="Group 18878">
                  <path id="Path_21374" data-name="Path 21374" d="M576.468,217.8a36.694,36.694,0,0,0,3.448-1.72,36.6,36.6,0,0,0-3.448,1.72Z" transform="translate(-576.467 -216.078)" fill="#ff9a6c"/>
                </g>
              </g>
            </g>
          </g>
        </g>
      </g>
    </g>
    <g id="Group_18892" data-name="Group 18892" transform="translate(-3382.34 -1500.686)">
      <g id="Group_18891" data-name="Group 18891">
        <g id="Group_18890" data-name="Group 18890">
          <g id="Group_18889" data-name="Group 18889">
            <g id="Group_18888" data-name="Group 18888">
              <g id="Group_18887" data-name="Group 18887">
                <g id="Group_18886" data-name="Group 18886">
                  <path id="Path_21375" data-name="Path 21375" d="M573.61,228.589a.82.82,0,0,0,.2.064c.13.034.319.082.558.123a3.716,3.716,0,0,0,.85.059,2.491,2.491,0,0,0,1.009-.279,4.406,4.406,0,0,0,1.409-1.249c.148-.19.261-.35.337-.461a.838.838,0,0,0,.11-.179c-.013-.01-.2.226-.5.594a4.714,4.714,0,0,1-1.4,1.2,2.487,2.487,0,0,1-.969.276,4.021,4.021,0,0,1-.833-.037C573.905,228.637,573.613,228.572,573.61,228.589Z" transform="translate(-573.61 -226.668)" fill="#ff9a6c"/>
                </g>
              </g>
            </g>
          </g>
        </g>
      </g>
    </g>
    <g id="Group_18899" data-name="Group 18899" transform="translate(-3387.779 -1504.773)">
      <g id="Group_18898" data-name="Group 18898">
        <g id="Group_18897" data-name="Group 18897">
          <g id="Group_18896" data-name="Group 18896">
            <path id="Path_21376" data-name="Path 21376" d="M553.959,216.964a.83.83,0,0,1,.12-.071l.359-.2,1.392-.738-.016.02.632-2.359,0-.012.009-.009,1.7-1.672.028-.027.035.018.871.444-.029-.006,1.013-.047.062,0v.058a1.045,1.045,0,0,1-.107.549.966.966,0,0,1-.419.391,2.289,2.289,0,0,1-1.139.179l.065-.036-.2.421-.077-.091,1.7-.489-.011,0,1.646-.754a2.175,2.175,0,0,1,1.865-.232l-.014-.006a.293.293,0,0,1,.175.164.561.561,0,0,1,.043.216,1.481,1.481,0,0,1-.058.416l-.092-.088a2.988,2.988,0,0,1,.606-.13.948.948,0,0,1,.649.117.289.289,0,0,1,.1.174.487.487,0,0,1-.012.185,2.239,2.239,0,0,1-.111.307l-.061.146a.4.4,0,0,1-.044.085c-.02.027-.04.047-.06.069a2.352,2.352,0,0,1-.258.207,24.483,24.483,0,0,1-2.175,1.252l-1.081.562-.533.273c-.081.045-.2.094-.209.13s.028.125.087.179l-.049-.018,1.33-.031-.047.02a8.2,8.2,0,0,1,1.278-1.041,2.069,2.069,0,0,1,.367-.185.637.637,0,0,1,.427-.019.463.463,0,0,1,.306.3.817.817,0,0,1,.011.414l0,.016-.013.013-1.2,1.215.017-.036q-.072.647-.138,1.254l0,.024-.018.015-1.224.982-.014.011h-.018l-3.333.05.017,0-1.979,1.078-.519.277-.134.069a.2.2,0,0,1-.047.02.184.184,0,0,1,.042-.029l.129-.078.51-.294,1.961-1.108.008,0h.01l3.333-.08-.032.012,1.218-.989-.021.038.132-1.255,0-.021.015-.015,1.193-1.22-.017.029c.051-.222,0-.505-.234-.564a.873.873,0,0,0-.683.193,8.131,8.131,0,0,0-1.251,1.025l-.02.019h-.027l-1.329.034h-.029l-.02-.019a.534.534,0,0,1-.1-.136.236.236,0,0,1-.017-.2.288.288,0,0,1,.14-.129l.133-.07.533-.275,1.078-.562a24.691,24.691,0,0,0,2.158-1.243,2.3,2.3,0,0,0,.24-.192c.014-.017.032-.035.044-.05a.251.251,0,0,0,.028-.056l.061-.147c.074-.184.185-.414.06-.5a.834.834,0,0,0-.544-.085,2.861,2.861,0,0,0-.575.123l-.127.04.035-.128a1.349,1.349,0,0,0,.052-.371c0-.122-.041-.226-.118-.249h0l-.012-.005a1.482,1.482,0,0,0-.881-.078,3.428,3.428,0,0,0-.857.315l-1.641.747-.007,0h0l-1.7.483-.139.04.063-.13.2-.42.019-.039.046,0a2.173,2.173,0,0,0,1.071-.163.845.845,0,0,0,.368-.338.928.928,0,0,0,.1-.483l.062.055-1.013.042h-.015l-.013-.007-.869-.449.062-.009-1.717,1.659.012-.02L555.875,216l0,.014-.012.006-1.406.711-.366.181A.887.887,0,0,1,553.959,216.964Z" transform="translate(-553.959 -211.901)" fill="#ff9a6c"/>
          </g>
        </g>
      </g>
    </g>
    <path id="Path_21377" data-name="Path 21377" d="M520.18,239.067a1.238,1.238,0,0,1,.174-.095l.513-.253,1.93-.926,6.671-3.153-.035.086-1.377-3.777-.989-2.724.094.041-6.8,2.853-.007,0h-.008a6.135,6.135,0,0,0-1.631.364,3.082,3.082,0,0,0-1.058.662,2.011,2.011,0,0,0-.446.649,1.9,1.9,0,0,0-.067.2.389.389,0,0,1-.019.068.2.2,0,0,1,.005-.071,1.383,1.383,0,0,1,.054-.2,1.933,1.933,0,0,1,.434-.677,3.081,3.081,0,0,1,1.067-.7,6.121,6.121,0,0,1,1.651-.39l-.014,0,6.78-2.891.068-.029.025.07.992,2.723,1.371,3.779.022.06-.057.027-6.693,3.107-1.947.89-.523.232A1.217,1.217,0,0,1,520.18,239.067Z" transform="translate(-3915.099 -1728.394)" fill="#263238"/>
    <path id="Path_21378" data-name="Path 21378" d="M527.272,190.263a8.206,8.206,0,0,1-.451-.814c-.273-.5-.669-1.19-1.159-1.914s-.981-1.346-1.348-1.786a8.23,8.23,0,0,1-.588-.721c.007-.007.075.051.191.163s.28.278.474.491a16.149,16.149,0,0,1,2.52,3.721c.126.259.221.472.28.622A.851.851,0,0,1,527.272,190.263Z" transform="translate(-3919.872 -1697.238)" fill="#263238"/>
    <path id="Path_21379" data-name="Path 21379" d="M530.209,208.9a1.627,1.627,0,0,1-.078.349c-.06.222-.152.542-.269.935-.234.788-.568,1.872-.953,3.065s-.746,2.269-1.02,3.044c-.138.387-.252.7-.337.913a1.7,1.7,0,0,1-.144.327,1.74,1.74,0,0,1,.091-.346l.293-.927.98-3.056.992-3.051.313-.921A1.818,1.818,0,0,1,530.209,208.9Z" transform="translate(-3922.535 -1714.506)" fill="#263238"/>
  </g>
</svg>
