<svg width="467" height="348" viewBox="0 0 467 348" fill="none" xmlns="http://www.w3.org/2000/svg">
<path d="M379.862 303.443C370.04 294.084 355.381 285.501 356.356 269.953C356.359 269.812 356.316 269.673 356.233 269.559C356.151 269.444 356.033 269.359 355.898 269.318C355.763 269.276 355.618 269.28 355.485 269.328C355.352 269.377 355.239 269.467 355.162 269.586C355.109 269.569 355.052 269.569 354.998 269.585C354.945 269.601 354.897 269.633 354.862 269.676C354.856 269.678 354.85 269.682 354.845 269.687C354.84 269.692 354.837 269.698 354.835 269.704C353.819 271.533 353.07 273.497 352.61 275.538C352.605 275.555 352.61 275.566 352.6 275.571C350.448 284.84 353.936 295.087 359.344 302.691C363.574 308.338 368.595 313.345 374.254 317.559C377.374 319.987 380.627 322.248 383.748 324.674C386.695 326.959 389.191 329.674 391.927 332.141C392.04 332.247 392.157 332.366 392.28 332.467C392.308 333.146 392.33 333.816 392.33 334.496C392.33 334.597 392.368 334.695 392.438 334.768C392.507 334.842 392.602 334.886 392.703 334.891C392.804 334.896 392.904 334.862 392.98 334.796C393.057 334.731 393.106 334.638 393.116 334.537C393.123 334.422 393.126 334.295 393.123 334.186C393.125 334.185 393.126 334.185 393.127 334.183C393.128 334.182 393.129 334.18 393.13 334.179C393.13 334.177 393.13 334.175 393.13 334.174C393.13 334.172 393.129 334.17 393.128 334.169C393.137 333.845 393.152 333.532 393.149 333.214C393.273 333.314 393.385 333.422 393.502 333.514C393.573 333.584 393.666 333.627 393.765 333.635C393.864 333.643 393.962 333.615 394.043 333.557C394.124 333.5 394.182 333.415 394.206 333.319C394.231 333.222 394.22 333.12 394.177 333.031C393.864 332.441 393.518 331.869 393.142 331.317C393.119 330.828 393.132 330.405 393.088 329.929C393.085 329.904 393.077 329.88 393.064 329.859C392.351 319.665 387.359 310.591 379.862 303.443Z" fill="#0097A7"/>
<path d="M465.867 239.366C454.312 248.527 442.709 257.727 432.479 268.395C424.58 276.714 417.52 285.791 411.402 295.495C410.891 295.895 410.395 296.295 409.895 296.712C409.739 296.837 409.572 296.967 409.421 297.102C409.121 297.329 408.851 297.572 408.561 297.81C408.675 297.291 408.761 296.773 408.847 296.255C408.957 296.292 409.074 296.306 409.19 296.295C409.306 296.283 409.419 296.248 409.52 296.19C409.636 296.124 409.724 296.017 409.764 295.89C409.805 295.762 409.796 295.624 409.739 295.503C409.698 295.373 409.639 295.237 409.599 295.103L409.593 295.092C409.435 294.662 409.277 294.26 409.093 293.841C409.171 292.545 409.164 291.245 409.071 289.95C409.046 289.347 408.987 288.746 408.895 288.15C408.901 288.11 408.894 288.07 408.876 288.034C407.843 279.54 403.638 271.27 399.404 263.808C390.822 248.749 383.11 232.894 381.979 215.308C381.974 215.174 381.942 215.042 381.883 214.922C381.824 214.802 381.74 214.695 381.636 214.609C381.533 214.524 381.413 214.461 381.284 214.425C381.155 214.389 381.02 214.381 380.887 214.401L380.875 214.406C380.764 214.422 380.661 214.468 380.575 214.54C380.476 214.61 380.391 214.697 380.323 214.798C376.672 220.351 374.365 226.679 373.587 233.28C372.808 239.88 373.58 246.571 375.839 252.821C378.657 260.285 383.522 266.788 388.988 272.513C395.569 279.425 403.77 285.254 407.716 294.161C407.948 294.705 408.164 295.243 408.375 295.798C408.399 295.841 408.432 295.879 408.449 295.912C408.374 296.66 408.26 297.412 408.13 298.164L407.436 298.741C407.348 298.822 407.286 298.926 407.256 299.042C407.226 299.157 407.229 299.279 407.266 299.392C407.303 299.505 407.371 299.606 407.463 299.682C407.556 299.757 407.668 299.805 407.786 299.819C407.535 300.875 407.225 301.917 406.857 302.938C406.831 302.993 406.925 303.012 406.94 302.963C406.945 302.937 406.956 302.913 406.971 302.891C406.981 302.908 406.994 302.923 407.011 302.934C407.027 302.945 407.046 302.951 407.066 302.953C407.086 302.955 407.106 302.952 407.124 302.944C407.142 302.937 407.158 302.924 407.171 302.909C407.511 302.45 407.846 302.009 408.197 301.573C408.207 301.567 408.202 301.557 408.213 301.55L408.229 301.501C409.117 300.32 409.994 299.119 410.859 297.925C411.087 297.625 411.317 297.325 411.54 297.008C412.95 295.87 414.383 294.776 415.833 293.688L415.843 293.682C424.635 287.082 433.958 281.208 441.957 273.642C446.586 269.289 450.543 264.273 453.698 258.757C456.649 253.567 460.005 248.619 463.734 243.957L463.739 243.94C464.703 242.72 465.711 241.505 466.751 240.3C466.849 240.201 466.912 240.073 466.932 239.935C466.951 239.797 466.926 239.657 466.86 239.534L466.854 239.524C466.808 239.439 466.743 239.366 466.664 239.311C466.585 239.255 466.494 239.218 466.399 239.203C466.304 239.188 466.206 239.194 466.114 239.223C466.022 239.251 465.937 239.3 465.867 239.366ZM408.999 299.342C408.994 299.359 408.994 299.359 408.984 299.365L408.979 299.381L408.974 299.398C408.98 299.408 408.969 299.414 408.969 299.414C408.97 299.415 408.971 299.416 408.972 299.418C408.972 299.419 408.972 299.421 408.972 299.422C408.972 299.424 408.972 299.425 408.972 299.426C408.971 299.428 408.97 299.429 408.969 299.43C408.331 300.505 407.693 301.58 407.069 302.659C407.455 301.734 407.788 300.787 408.069 299.825C408.166 299.802 408.255 299.754 408.329 299.687C408.587 299.467 408.845 299.246 409.11 299.036C409.175 298.972 409.245 298.912 409.318 298.856C409.231 299.03 409.124 299.193 408.999 299.342V299.342Z" fill="#0097A7"/>
<path d="M424.85 170.678C424.673 170.897 424.498 171.115 424.333 171.328C419.15 177.788 414.517 183.872 411.658 191.835C408.814 199.716 407.704 208.118 408.404 216.467C409.211 225.61 412.504 234.352 414.492 243.267C415.762 248.786 416.447 254.423 416.538 260.086L416.543 260.097C416.567 262.461 416.472 264.825 416.258 267.18C417.616 263.168 418.99 259.133 420.33 255.115L420.34 255.082C424.058 243.816 427.417 232.449 429.119 220.655C431.456 204.427 429.919 188.755 425.764 173.082L425.758 173.072C425.527 172.139 425.274 171.217 425.005 170.291C424.997 170.434 424.943 170.57 424.85 170.678V170.678Z" fill="#0097A7"/>
<path d="M464.02 208.675C444.41 224.34 428.709 244.348 418.154 267.119C418.12 267.134 418.089 267.155 418.062 267.181L418.052 267.187C416.992 267.833 415.938 268.487 414.867 269.141C414.769 269.202 414.684 269.28 414.615 269.372C414.538 269.472 414.484 269.587 414.456 269.71C414.428 269.833 414.426 269.96 414.451 270.084L414.456 270.095C414.472 270.232 414.521 270.362 414.6 270.474C414.68 270.587 414.786 270.677 414.909 270.738C415.033 270.798 415.169 270.826 415.307 270.82C415.444 270.814 415.577 270.773 415.695 270.702C416.305 270.335 416.912 269.958 417.517 269.582C427.517 263.413 437.269 256.766 444.006 246.898C451.686 235.668 457.894 223.178 464.261 211.146C464.261 211.129 464.277 211.123 464.282 211.107C464.55 210.59 464.827 210.067 465.095 209.551C465.112 209.518 465.126 209.482 465.136 209.446C465.19 209.3 465.194 209.141 465.147 208.992C465.1 208.844 465.005 208.716 464.877 208.627C464.749 208.539 464.596 208.495 464.44 208.504C464.285 208.513 464.137 208.573 464.02 208.675Z" fill="#0097A7"/>
<path d="M389.156 285.384C381.094 272.299 367.232 263.39 364.618 247.33C364.539 246.817 363.954 246.863 363.731 247.204C363.676 247.27 363.637 247.348 363.616 247.431C363.241 249.603 362.999 251.796 362.89 253.998C362.763 255.996 362.769 258.001 362.909 259.998C363.409 268.608 366.655 276.832 372.171 283.462C380.663 293.846 392.217 301.549 398.92 313.3C399.152 314.392 399.236 315.51 399.17 316.625C399.171 316.628 399.172 316.631 399.171 316.634C399.17 316.637 399.168 316.64 399.165 316.641C399.167 316.643 399.168 316.646 399.168 316.649C399.168 316.653 399.167 316.656 399.165 316.658C399.124 317.593 398.892 318.51 398.483 319.352C398.248 319.852 398.956 320.324 399.23 319.818C399.895 318.586 400.243 317.208 400.241 315.808L400.341 315.993C400.364 316.041 400.393 316.087 400.427 316.128C400.503 316.223 400.608 316.291 400.727 316.319C400.854 316.35 400.987 316.346 401.111 316.306C401.235 316.266 401.346 316.192 401.43 316.092C401.514 315.992 401.569 315.871 401.588 315.742C401.607 315.613 401.59 315.481 401.538 315.361C401.215 314.699 400.886 314.054 400.538 313.431C400.314 313.008 400.068 312.596 399.838 312.191C399.291 309.745 398.321 307.314 397.655 305.141C395.663 298.224 392.808 291.586 389.156 285.384V285.384Z" fill="#0097A7"/>
<path d="M460.91 271.473C460.847 271.475 460.786 271.497 460.737 271.537C447.691 280.04 435.155 289.3 423.192 299.269C415.564 305.623 407.735 312.069 401.133 319.547C401.08 319.603 401.033 319.67 400.979 319.726C400.968 319.732 400.968 319.732 400.963 319.749C400.96 319.751 400.958 319.753 400.958 319.756C400.957 319.759 400.957 319.762 400.958 319.765C399.958 320.882 398.994 322.031 398.068 323.217C397.959 323.275 397.851 323.332 397.737 323.406C397.174 324.65 396.605 325.855 396.037 327.042C396.724 326.471 397.447 325.944 398.2 325.463C398.28 325.405 398.363 325.351 398.449 325.303C399.091 324.893 399.757 324.497 400.44 324.136L401.079 323.796C401.125 323.769 401.175 323.748 401.226 323.732C405.876 321.348 411.176 319.744 415.579 317.546C421.985 314.507 427.903 310.533 433.14 305.753C442.261 297.135 448.356 285.953 456.822 276.78C456.835 276.758 456.853 276.739 456.875 276.724C458.279 275.188 459.76 273.726 461.313 272.341C461.384 272.266 461.43 272.172 461.447 272.07C461.464 271.968 461.449 271.864 461.406 271.77C461.362 271.677 461.292 271.598 461.204 271.545C461.115 271.492 461.013 271.467 460.91 271.473V271.473Z" fill="#0097A7"/>
<path d="M388.607 344.477C390.196 341.655 391.85 338.604 393.535 335.331L393.529 335.32C393.871 334.681 394.2 334.02 394.541 333.353C395.468 331.514 396.401 329.615 397.341 327.658C397.541 327.247 397.727 326.842 397.92 326.42C398.103 326.06 398.275 325.676 398.453 325.304C398.494 325.204 398.553 325.104 398.599 324.978L398.609 324.972C398.761 324.655 398.909 324.339 399.058 324.012C399.689 322.635 400.319 321.231 400.964 319.778L400.958 319.767C400.956 319.764 400.956 319.761 400.957 319.758C400.958 319.754 400.96 319.752 400.963 319.75C400.968 319.734 400.968 319.734 400.98 319.727C401.021 319.627 401.073 319.511 401.126 319.401C403.482 314.025 405.89 308.065 408.203 301.587C408.213 301.581 408.208 301.571 408.218 301.564L408.234 301.514C408.481 300.827 408.728 300.141 408.963 299.432C408.964 299.431 408.966 299.43 408.967 299.429C408.968 299.428 408.969 299.426 408.969 299.425C408.97 299.423 408.97 299.421 408.97 299.42C408.969 299.418 408.969 299.416 408.968 299.415C408.968 299.415 408.979 299.409 408.973 299.399L408.978 299.382L408.983 299.366C408.993 299.36 408.993 299.36 408.998 299.343C409.029 299.243 409.07 299.143 409.098 299.043C409.37 298.274 409.631 297.51 409.892 296.718C412.911 287.816 415.455 278.759 417.514 269.587C417.623 269.14 417.723 268.699 417.814 268.246L417.824 268.241C417.853 268.059 417.898 267.882 417.938 267.694C417.972 267.523 418.006 267.352 418.046 267.194L418.056 267.188C418.889 263.259 419.656 259.239 420.323 255.123L420.333 255.09C422.343 242.911 423.381 230.592 423.44 218.248C423.44 218.059 423.404 217.871 423.331 217.696C423.259 217.521 423.154 217.361 423.02 217.227C422.886 217.093 422.728 216.986 422.553 216.913C422.378 216.84 422.19 216.802 422.001 216.802C421.812 216.802 421.624 216.838 421.449 216.91C421.273 216.983 421.114 217.088 420.98 217.222C420.846 217.356 420.739 217.514 420.666 217.689C420.593 217.864 420.555 218.052 420.555 218.241C420.548 222.086 420.436 225.883 420.219 229.633C420.217 229.639 420.217 229.646 420.218 229.653C420.22 229.659 420.222 229.665 420.226 229.671C419.652 239.881 418.416 250.044 416.526 260.094L416.531 260.105C415.938 263.254 415.296 266.345 414.604 269.379C414.56 269.61 414.495 269.853 414.44 270.091L414.445 270.102C412.882 276.919 411.095 283.423 409.191 289.546L409.064 289.96L408.324 292.283C408.108 292.925 407.905 293.56 407.705 294.183C405.398 301.145 402.958 307.593 400.519 313.443C400.436 313.654 400.342 313.87 400.255 314.07C400.187 314.23 400.12 314.391 400.055 314.552C399.755 315.268 399.455 315.966 399.16 316.637C399.161 316.638 399.161 316.64 399.162 316.641C399.162 316.643 399.162 316.645 399.161 316.646C399.161 316.648 399.16 316.649 399.159 316.65C399.158 316.651 399.156 316.652 399.155 316.653C399.155 316.653 399.161 316.664 399.155 316.67C398.235 318.812 397.324 320.865 396.427 322.812C395.858 324.045 395.3 325.244 394.727 326.421C394.154 327.598 393.613 328.748 393.054 329.865C392.74 330.503 392.426 331.143 392.112 331.754C392.043 331.887 391.986 332.015 391.918 332.149C389.633 336.671 387.395 340.795 385.287 344.484L388.607 344.477Z" fill="#22475C"/>
<path d="M447.373 230.988C438.563 244.431 428 256.638 415.963 267.288C415.71 267.53 415.56 267.86 415.545 268.21C415.53 268.56 415.651 268.902 415.882 269.164C416.114 269.427 416.438 269.59 416.787 269.619C417.136 269.647 417.482 269.54 417.754 269.319C429.967 258.513 440.685 246.127 449.626 232.489C449.806 232.19 449.864 231.834 449.788 231.493C449.711 231.153 449.507 230.855 449.217 230.662C448.926 230.469 448.573 230.395 448.229 230.455C447.886 230.516 447.579 230.707 447.373 230.988V230.988Z" fill="#22475C"/>
<path d="M441.2 265.539L406.657 298.624C405.399 299.824 407.188 301.862 408.448 300.655L442.991 267.57C444.248 266.365 442.46 264.332 441.2 265.539Z" fill="#22475C"/>
<path d="M438.499 291.765C423.701 301.76 409.559 312.693 396.16 324.497C395.907 324.739 395.757 325.069 395.742 325.419C395.727 325.769 395.848 326.111 396.079 326.373C396.311 326.636 396.635 326.799 396.984 326.827C397.333 326.856 397.679 326.749 397.951 326.528C411.35 314.724 425.492 303.791 440.29 293.796C441.732 292.821 439.924 290.802 438.499 291.765Z" fill="#22475C"/>
<path d="M409.905 296.454C409.049 286.654 403.805 278.297 398.294 270.424C391.654 260.944 385.694 251.855 383.803 240.209C383.523 238.489 380.875 239.053 381.154 240.773C382.84 251.144 387.592 259.857 393.554 268.373C399.689 277.137 406.295 286.006 407.254 297.02C407.408 298.749 410.055 298.172 409.905 296.454Z" fill="#22475C"/>
<path d="M401.848 316.093C398.711 307.265 393.687 299.393 388.28 291.8C382.248 283.329 376.039 274.982 369.91 266.583C368.88 265.173 366.859 266.976 367.879 268.374C373.779 276.457 379.73 284.503 385.563 292.633C391.096 300.341 396.236 308.323 399.43 317.311C400.012 318.951 402.425 317.717 401.848 316.093Z" fill="#22475C"/>
<path d="M393.953 332.468C389.928 323.107 383.453 315.911 376.131 308.968C368.809 302.025 361.302 294.991 357.831 285.26C357.246 283.62 354.831 284.854 355.412 286.477C358.669 295.601 365.428 302.533 372.32 309.077C380.075 316.437 387.249 323.712 391.538 333.686C392.225 335.289 394.639 334.064 393.953 332.468Z" fill="#22475C"/>
<path d="M64.93 316.628C49.686 315.01 30.641 317.416 20.807 302.817C20.7123 302.688 20.5782 302.594 20.425 302.548C20.2719 302.502 20.108 302.508 19.9583 302.564C19.8086 302.62 19.6812 302.723 19.5956 302.858C19.51 302.993 19.4708 303.153 19.484 303.312C19.4248 303.333 19.3734 303.372 19.3365 303.423C19.2995 303.474 19.2788 303.535 19.277 303.598C19.2737 303.605 19.2721 303.612 19.2721 303.62C19.2721 303.628 19.2737 303.635 19.277 303.642C19.6266 305.98 20.3085 308.255 21.302 310.4C21.308 310.419 21.322 310.425 21.315 310.437C25.77 320.223 35.953 326.999 46.035 330.088C53.675 332.414 61.676 333.077 69.635 333.139C74.103 333.165 78.574 332.949 83.041 332.975C87.255 332.992 91.362 333.707 95.511 334.029C95.686 334.048 95.872 334.072 96.052 334.079C96.546 334.67 97.026 335.254 97.495 335.864C97.5656 335.95 97.6658 336.006 97.7758 336.022C97.8859 336.037 97.9978 336.011 98.0896 335.949C98.1814 335.886 98.2464 335.791 98.2718 335.683C98.2973 335.575 98.2812 335.461 98.227 335.364C98.155 335.256 98.07 335.14 97.992 335.044C97.9928 335.042 97.9934 335.041 97.9935 335.039C97.9937 335.037 97.9935 335.035 97.9929 335.033C97.9924 335.031 97.9915 335.03 97.9903 335.028C97.9891 335.027 97.9876 335.026 97.986 335.025C97.77 334.725 97.568 334.438 97.346 334.155C97.527 334.161 97.701 334.18 97.869 334.18C97.9819 334.197 98.0971 334.173 98.1937 334.112C98.2902 334.051 98.3615 333.957 98.3945 333.848C98.4276 333.738 98.4201 333.621 98.3736 333.517C98.327 333.412 98.2444 333.328 98.141 333.28C97.4537 332.967 96.7496 332.691 96.032 332.456C95.676 332.034 95.395 331.647 95.032 331.251C95.0125 331.23 94.9886 331.214 94.962 331.204C87.291 322.559 76.569 317.868 64.93 316.628Z" fill="#0097A7"/>
<path d="M97.845 199.99C93.803 216.155 89.745 232.39 87.927 248.99C86.5803 261.885 86.5087 274.881 87.713 287.79C87.527 288.497 87.361 289.199 87.201 289.917C87.146 290.136 87.086 290.368 87.045 290.592C86.936 291 86.857 291.406 86.761 291.819C86.505 291.276 86.226 290.752 85.946 290.229C86.0708 290.186 86.1851 290.118 86.2813 290.028C86.3776 289.937 86.4535 289.828 86.504 289.706C86.5624 289.567 86.5665 289.411 86.5153 289.27C86.4642 289.128 86.3616 289.011 86.228 288.941C86.101 288.852 85.955 288.771 85.828 288.682L85.816 288.677C85.377 288.401 84.959 288.149 84.51 287.898C83.6869 286.683 82.785 285.524 81.81 284.427C81.3735 283.906 80.9084 283.409 80.417 282.939C80.3933 282.9 80.3585 282.868 80.317 282.849C73.541 275.949 64.079 271.438 55.146 267.669C37.087 260.089 19.257 251.198 6.13596 236.225C6.03942 236.109 5.91947 236.014 5.78394 235.947C5.6484 235.881 5.50032 235.843 5.34935 235.838C5.19839 235.832 5.04792 235.858 4.90777 235.915C4.76762 235.971 4.64092 236.056 4.53595 236.165L4.52996 236.177C4.43985 236.267 4.37711 236.381 4.34896 236.506C4.3098 236.635 4.29422 236.771 4.30296 236.906C5.50296 251.927 13.584 266.062 26.473 274.058C34.139 278.802 42.973 281.278 51.815 282.643C62.471 284.302 73.832 283.876 83.501 289.138C84.084 289.466 84.648 289.799 85.219 290.15C85.27 290.174 85.325 290.184 85.364 290.201C85.811 290.924 86.229 291.678 86.629 292.439L86.405 293.434C86.3817 293.567 86.3972 293.704 86.4495 293.829C86.5019 293.953 86.5889 294.06 86.7003 294.136C86.8116 294.213 86.9426 294.256 87.0777 294.26C87.2127 294.264 87.3461 294.229 87.462 294.16C87.964 295.279 88.403 296.425 88.777 297.593C88.792 297.661 88.89 297.614 88.869 297.559C88.8564 297.532 88.8489 297.503 88.847 297.473C88.8679 297.483 88.8908 297.487 88.9138 297.485C88.9367 297.483 88.9588 297.476 88.9782 297.464C88.9975 297.451 89.0134 297.434 89.0243 297.414C89.0353 297.394 89.041 297.371 89.041 297.348C89.03 296.703 89.025 296.077 89.041 295.448C89.047 295.435 89.035 295.429 89.041 295.417L89.02 295.361C89.004 293.693 88.961 292.013 88.914 290.346C88.914 289.917 88.908 289.49 88.891 289.056C89.371 287.066 89.902 285.099 90.45 283.124L90.456 283.112C93.788 271.149 98.092 259.46 100.047 247.174C101.196 240.086 101.286 232.867 100.313 225.753C99.3837 219.072 98.9825 212.327 99.113 205.583L99.107 205.564C99.13 203.807 99.196 202.024 99.298 200.227C99.3164 200.071 99.2845 199.913 99.207 199.776C99.1295 199.64 99.0104 199.531 98.867 199.467L98.855 199.462C98.7551 199.415 98.6457 199.392 98.5353 199.394C98.425 199.396 98.3166 199.424 98.2188 199.475C98.121 199.526 98.0363 199.599 97.9714 199.689C97.9066 199.778 97.8633 199.881 97.845 199.99V199.99ZM88.208 292.89C88.215 292.909 88.215 292.909 88.208 292.921L88.215 292.94L88.221 292.958C88.2227 292.959 88.2243 292.96 88.2256 292.961C88.2269 292.963 88.2279 292.964 88.2285 292.966C88.2292 292.968 88.2295 292.97 88.2294 292.972C88.2293 292.973 88.2288 292.975 88.228 292.977C88.2297 292.978 88.2312 292.979 88.2325 292.98C88.2338 292.981 88.2348 292.983 88.2355 292.984C88.2361 292.986 88.2364 292.988 88.2363 292.99C88.2362 292.992 88.2358 292.993 88.235 292.995C88.403 294.395 88.572 295.8 88.759 297.195C88.466 296.101 88.1121 295.024 87.699 293.97C87.7689 293.883 87.8163 293.78 87.837 293.67C87.916 293.295 87.996 292.919 88.088 292.551C88.1019 292.447 88.1229 292.345 88.151 292.244C88.193 292.455 88.2121 292.671 88.208 292.886V292.89Z" fill="#0097A7"/>
<path d="M13.793 166.706C13.786 167.023 13.779 167.34 13.778 167.644C13.578 177 13.623 185.644 16.546 194.744C19.4266 203.763 24.2189 212.053 30.596 219.051C37.615 226.686 46.583 232.251 54.508 238.867C59.4465 242.938 63.9435 247.516 67.925 252.527L67.937 252.532C69.5868 254.633 71.1298 256.816 72.56 259.073C71.013 254.543 69.46 249.983 67.898 245.461L67.885 245.424C63.457 232.771 58.637 220.274 52.039 208.536C42.956 192.389 30.785 179.405 16.268 168.229L16.256 168.224C15.406 167.546 14.545 166.896 13.666 166.25C13.7576 166.384 13.8023 166.544 13.793 166.706Z" fill="#0097A7"/>
<path d="M75.058 173.768C68.2788 201.307 67.9919 230.044 74.22 257.713C74.2005 257.751 74.1873 257.791 74.181 257.833L74.176 257.845C73.676 259.154 73.176 260.468 72.668 261.789C72.6228 261.911 72.6004 262.04 72.602 262.17C72.6024 262.312 72.6332 262.453 72.6923 262.583C72.7515 262.712 72.8376 262.827 72.945 262.921L72.957 262.926C73.0649 263.038 73.1991 263.12 73.3473 263.166C73.4955 263.212 73.6529 263.22 73.805 263.189C73.9571 263.158 74.099 263.09 74.2176 262.99C74.3363 262.89 74.4279 262.762 74.484 262.617C74.784 261.868 75.062 261.117 75.345 260.359C80.056 247.942 84.213 235.273 83.452 221.793C82.598 206.444 79.552 190.979 76.973 175.815C76.967 175.797 76.973 175.785 76.966 175.766C76.849 175.118 76.739 174.459 76.622 173.811C76.6146 173.769 76.6025 173.728 76.586 173.688C76.5356 173.519 76.4298 173.371 76.2855 173.269C76.1412 173.168 75.9668 173.117 75.7905 173.126C75.6141 173.136 75.4459 173.204 75.3131 173.32C75.1802 173.437 75.0904 173.594 75.058 173.768V173.768Z" fill="#0097A7"/>
<path d="M60.819 294.049C44.585 287.879 26.0309 289.449 12.6289 276.858C12.2059 276.451 11.7129 276.897 11.7479 277.358C11.7447 277.456 11.7632 277.553 11.8019 277.642C12.9623 279.846 14.2554 281.977 15.6739 284.024C16.9377 285.903 18.3251 287.696 19.8269 289.39C26.2049 296.759 34.7763 301.89 44.2839 304.031C59.0429 307.486 74.699 306.431 88.797 312.338C89.7574 313.157 90.6033 314.102 91.312 315.146C91.3137 315.147 91.3152 315.148 91.3165 315.149C91.3178 315.15 91.3188 315.152 91.3195 315.153C91.3201 315.155 91.3204 315.157 91.3203 315.159C91.3202 315.161 91.3198 315.162 91.319 315.164C91.3206 315.165 91.3221 315.166 91.3233 315.167C91.3245 315.169 91.3254 315.171 91.3259 315.172C91.3265 315.174 91.3267 315.176 91.3265 315.178C91.3263 315.18 91.3258 315.181 91.325 315.183C91.9343 316.048 92.3588 317.03 92.572 318.066C92.705 318.676 93.665 318.61 93.56 317.966C93.3081 316.404 92.6705 314.93 91.7049 313.677L91.92 313.777C91.9737 313.804 92.0304 313.825 92.089 313.839C92.2222 313.873 92.363 313.861 92.489 313.806C92.6248 313.748 92.7415 313.652 92.8258 313.531C92.91 313.409 92.9584 313.266 92.9654 313.118C92.9724 312.971 92.9377 312.824 92.8653 312.695C92.7929 312.566 92.6857 312.46 92.556 312.389C91.81 312.018 91.072 311.667 90.335 311.346C89.842 311.121 89.335 310.922 88.854 310.716C86.679 308.901 84.136 307.393 82.042 305.904C75.4943 301.076 68.3637 297.093 60.819 294.049V294.049Z" fill="#0097A7"/>
<path d="M115.518 232.166C115.462 232.211 115.423 232.273 115.406 232.343C109.574 248.944 104.721 265.873 100.871 283.043C98.414 293.989 95.841 305.156 95.071 316.4C95.062 316.488 95.065 316.581 95.057 316.667C95.051 316.679 95.051 316.679 95.057 316.698C95.0559 316.7 95.0553 316.701 95.055 316.703C95.0548 316.705 95.055 316.707 95.0555 316.709C95.0561 316.711 95.0571 316.712 95.0583 316.714C95.0596 316.715 95.0612 316.716 95.063 316.717C94.933 318.41 94.863 320.099 94.85 321.8C94.793 321.926 94.735 322.052 94.685 322.2C95.037 323.7 95.357 325.172 95.67 326.625C95.8922 325.641 96.1761 324.673 96.52 323.725C96.5513 323.618 96.589 323.513 96.633 323.411C96.926 322.6 97.251 321.789 97.613 320.993L97.952 320.248C97.9749 320.192 98.0041 320.139 98.039 320.09C100.563 314.751 104.206 309.663 106.639 304.662C110.284 297.528 112.849 289.892 114.248 282.004C116.483 268.004 114.248 253.787 115.509 239.738C115.506 239.708 115.509 239.678 115.518 239.65C115.718 237.308 116.037 234.977 116.474 232.667C116.486 232.551 116.463 232.435 116.408 232.332C116.353 232.23 116.269 232.146 116.166 232.093C116.063 232.039 115.946 232.017 115.831 232.03C115.715 232.043 115.606 232.09 115.518 232.166V232.166Z" fill="#0097A7"/>
<path d="M50.25 214.964C50.2528 214.971 50.2572 214.977 50.2627 214.982C50.2682 214.988 50.2748 214.992 50.282 214.994C56.8024 224.535 62.6958 234.489 67.925 244.794L67.937 244.799C69.5736 248.029 71.1273 251.241 72.598 254.435C72.718 254.673 72.826 254.935 72.941 255.186L72.953 255.191C76.247 262.376 79.127 269.432 81.637 276.23L81.808 276.689L82.746 279.28C82.996 280.003 83.251 280.714 83.499 281.405C86.227 289.231 88.482 296.688 90.327 303.605C90.397 303.851 90.463 304.105 90.521 304.348C90.572 304.538 90.621 304.729 90.672 304.919C90.895 305.768 91.112 306.597 91.308 307.404C91.3111 307.405 91.3137 307.408 91.315 307.411C91.3163 307.414 91.3163 307.418 91.315 307.421C91.3166 307.422 91.3181 307.423 91.3193 307.424C91.3205 307.426 91.3214 307.427 91.3219 307.429C91.3225 307.431 91.3227 307.433 91.3225 307.435C91.3224 307.437 91.3218 307.438 91.321 307.44C91.972 309.992 92.57 312.458 93.109 314.821C93.449 316.321 93.774 317.776 94.075 319.221C94.376 320.666 94.681 322.072 94.948 323.458C95.107 324.247 95.266 325.035 95.405 325.799C95.436 325.966 95.472 326.12 95.505 326.285C96.199 329.944 96.792 333.431 97.305 336.735H100.599C100.174 333.962 99.6886 331.062 99.142 328.035L99.13 328.029C98.996 327.221 98.836 326.402 98.681 325.57C98.245 323.283 97.7736 320.94 97.267 318.541C97.162 318.036 97.051 317.541 96.933 317.033C96.848 316.583 96.733 316.121 96.641 315.666C96.606 315.543 96.588 315.413 96.541 315.272L96.547 315.26C96.464 314.872 96.383 314.483 96.288 314.09C95.905 312.422 95.502 310.73 95.08 308.984L95.067 308.978C95.0653 308.977 95.0639 308.976 95.0627 308.975C95.0615 308.974 95.0606 308.972 95.0601 308.97C95.0595 308.969 95.0593 308.967 95.0594 308.965C95.0596 308.963 95.0601 308.962 95.061 308.96C95.054 308.941 95.054 308.941 95.061 308.929C95.025 308.806 94.995 308.671 94.961 308.536C93.369 302.097 91.422 295.1 89.032 287.704C89.038 287.69 89.026 287.685 89.032 287.673L89.011 287.617C88.76 286.832 88.511 286.047 88.231 285.25C88.2324 285.247 88.2324 285.243 88.2311 285.239C88.2299 285.236 88.2273 285.233 88.224 285.231C88.2253 285.228 88.2253 285.224 88.224 285.221C88.2227 285.218 88.2201 285.215 88.217 285.214L88.211 285.195L88.204 285.176C88.21 285.164 88.21 285.164 88.204 285.145C88.163 285.035 88.128 284.913 88.086 284.802C87.8 283.924 87.508 283.061 87.197 282.172C83.77 272.118 79.8115 262.252 75.338 252.618C75.128 252.141 74.914 251.677 74.685 251.207L74.691 251.194C74.591 251.011 74.51 250.822 74.416 250.627C74.328 250.45 74.241 250.273 74.167 250.102L74.172 250.09C72.213 245.996 70.134 241.864 67.893 237.72L67.88 237.683C61.2921 225.391 53.7383 213.642 45.29 202.547C45.16 202.377 44.9977 202.234 44.8126 202.127C44.6275 202.02 44.423 201.95 44.2109 201.922C43.9988 201.894 43.7833 201.908 43.5765 201.963C43.3698 202.018 43.1759 202.113 43.006 202.243C42.836 202.373 42.6934 202.535 42.5861 202.72C42.4789 202.905 42.4092 203.11 42.3809 203.322C42.3527 203.534 42.3665 203.75 42.4216 203.956C42.4767 204.163 42.5719 204.357 42.702 204.527C45.3453 207.978 47.8613 211.457 50.25 214.964Z" fill="#22475C"/>
<path d="M75.507 205.221C76.8743 223.331 75.8193 241.542 72.37 259.372C72.3172 259.759 72.4145 260.152 72.6418 260.47C72.8692 260.787 73.2095 261.006 73.5929 261.081C73.9764 261.156 74.3741 261.082 74.7044 260.873C75.0348 260.665 75.2729 260.338 75.37 259.959C78.8687 241.868 79.9408 223.391 78.5579 205.016C78.5114 204.626 78.3171 204.27 78.0151 204.019C77.7131 203.769 77.3266 203.644 76.9351 203.67C76.5437 203.696 76.1773 203.872 75.9116 204.161C75.6458 204.449 75.501 204.829 75.507 205.221V205.221Z" fill="#22475C"/>
<path d="M93.7739 240.426C91.0539 258.235 88.3339 276.045 85.6139 293.855C85.3139 295.801 88.3199 296.39 88.6139 294.441C91.3339 276.632 94.0539 258.822 96.7739 241.013C97.0739 239.067 94.0719 238.482 93.7739 240.426Z" fill="#22475C"/>
<path d="M109.416 265.782C103.042 284.928 97.9019 304.463 94.0259 324.266C93.9738 324.653 94.0714 325.045 94.2989 325.363C94.5264 325.68 94.8665 325.898 95.2497 325.973C95.6329 326.048 96.0302 325.974 96.3604 325.765C96.6906 325.557 96.9287 325.23 97.0259 324.852C100.901 305.049 106.04 285.515 112.412 266.369C113.041 264.501 110.026 263.938 109.416 265.782Z" fill="#22475C"/>
<path d="M87.031 289.675C79.513 281.484 69.062 277.608 58.702 274.353C46.223 270.432 34.627 266.394 24.909 257.264C23.473 255.916 21.491 258.246 22.925 259.594C31.578 267.723 41.836 272.257 53.04 275.778C64.573 279.404 76.599 282.799 85.046 292.003C86.374 293.451 88.348 291.112 87.031 289.675Z" fill="#22475C"/>
<path d="M93.34 312.819C84.449 307.07 74.527 303.478 64.453 300.399C53.216 296.966 41.904 293.764 30.628 290.461C28.735 289.907 28.167 292.915 30.041 293.461C40.892 296.64 51.767 299.748 62.592 303.013C72.857 306.113 82.961 309.72 92.011 315.571C93.663 316.642 94.974 313.875 93.34 312.819Z" fill="#22475C"/>
<path d="M97.543 332.923C87.49 327.31 76.729 325.323 65.394 324.149C54.059 322.975 42.484 321.842 32.67 315.515C31.017 314.449 29.705 317.215 31.341 318.271C40.541 324.202 51.372 325.756 62.05 326.871C74.067 328.123 85.504 329.7 96.215 335.681C97.938 336.641 99.258 333.881 97.543 332.923Z" fill="#22475C"/>
<path d="M186.104 325.471C189.235 328.658 192.541 331.671 195.672 334.863C198.631 337.863 201.02 341.279 203.717 344.449L203.74 344.477H205.561C205.444 344.219 205.328 343.96 205.201 343.707C205.25 343.156 205.326 342.685 205.348 342.144C205.349 342.115 205.344 342.087 205.332 342.061C206.061 330.538 201.832 319.627 194.5 310.5C184.9 298.548 169.765 286.74 173.184 269.472C173.209 269.314 173.182 269.152 173.106 269.012C173.031 268.871 172.912 268.758 172.766 268.691C172.621 268.625 172.458 268.607 172.302 268.641C172.146 268.676 172.006 268.76 171.902 268.882C171.845 268.855 171.781 268.846 171.719 268.856C171.657 268.866 171.599 268.895 171.553 268.938C171.546 268.94 171.539 268.943 171.533 268.948C171.527 268.952 171.522 268.958 171.519 268.965C170.108 270.861 168.975 272.949 168.154 275.165C168.146 275.183 168.154 275.196 168.138 275.201C164.338 285.26 166.714 297.259 171.632 306.585C175.368 313.645 180.54 319.786 186.104 325.471Z" fill="#0097A7"/>
<path d="M300.418 251.603C286.105 260.134 271.732 268.703 258.679 279.117C248.586 287.252 239.32 296.363 231.015 306.317C230.383 306.685 229.767 307.061 229.145 307.454C228.952 307.569 228.745 307.69 228.556 307.819C228.19 308.029 227.847 308.26 227.486 308.482C227.692 307.918 227.865 307.351 228.04 306.782C228.158 306.84 228.287 306.873 228.419 306.877C228.551 306.882 228.682 306.859 228.804 306.809C228.944 306.753 229.057 306.646 229.121 306.509C229.186 306.373 229.197 306.218 229.152 306.074C229.125 305.921 229.081 305.76 229.052 305.607V305.595C228.938 305.09 228.822 304.615 228.682 304.119C228.963 302.679 229.15 301.222 229.24 299.758C229.301 299.08 229.326 298.4 229.313 297.719C229.326 297.676 229.326 297.631 229.313 297.588C229.428 287.918 225.956 278.027 222.33 269.035C214.972 250.884 208.706 231.972 210.071 212.11C210.085 211.959 210.068 211.807 210.02 211.664C209.972 211.521 209.894 211.389 209.791 211.278C209.688 211.167 209.563 211.078 209.424 211.019C209.285 210.959 209.135 210.93 208.984 210.932H208.971C208.844 210.931 208.718 210.965 208.61 211.032C208.489 211.096 208.381 211.182 208.29 211.284C198.49 222.727 194.158 238.424 197.576 253.201C199.617 261.982 204.091 269.994 209.356 277.224C215.692 285.951 224.004 293.708 227.091 304.274C227.27 304.917 227.431 305.553 227.585 306.205C227.604 306.258 227.637 306.305 227.651 306.343C227.451 307.17 227.214 307.998 226.956 308.818L226.093 309.36C225.981 309.436 225.893 309.543 225.84 309.669C225.788 309.794 225.773 309.931 225.797 310.065C225.822 310.198 225.884 310.322 225.978 310.421C226.071 310.519 226.191 310.588 226.323 310.62C225.882 311.769 225.376 312.893 224.808 313.985C224.771 314.043 224.873 314.079 224.898 314.026C224.908 313.998 224.923 313.972 224.943 313.95C224.951 313.972 224.964 313.991 224.981 314.006C224.999 314.021 225.019 314.031 225.042 314.036C225.064 314.041 225.087 314.041 225.11 314.034C225.132 314.028 225.152 314.016 225.168 314C225.617 313.537 226.059 313.092 226.518 312.656C226.531 312.651 226.526 312.638 226.54 312.633L226.565 312.579C227.736 311.391 228.897 310.179 230.045 308.966C230.345 308.666 230.645 308.359 230.945 308.042C232.695 306.978 234.463 305.968 236.25 304.965L236.263 304.96C247.096 298.887 258.419 293.699 268.511 286.422C274.347 282.24 279.529 277.214 283.888 271.508C287.97 266.137 292.47 261.096 297.345 256.433L297.353 256.416C298.615 255.193 299.921 253.984 301.272 252.789C301.396 252.692 301.486 252.558 301.528 252.407C301.571 252.255 301.563 252.094 301.507 251.947L301.502 251.935C301.464 251.832 301.402 251.74 301.322 251.665C301.242 251.59 301.146 251.534 301.042 251.502C300.937 251.47 300.826 251.462 300.718 251.48C300.61 251.497 300.507 251.54 300.418 251.603V251.603ZM227.747 310.267C227.739 310.284 227.739 310.284 227.726 310.29L227.718 310.307L227.71 310.326C227.711 310.328 227.711 310.33 227.711 310.331C227.711 310.333 227.711 310.335 227.71 310.337C227.709 310.339 227.708 310.34 227.707 310.341C227.705 310.343 227.704 310.343 227.702 310.344C227.703 310.346 227.703 310.348 227.703 310.349C227.703 310.351 227.703 310.353 227.702 310.355C227.701 310.357 227.7 310.358 227.699 310.359C227.697 310.361 227.696 310.362 227.694 310.362C226.818 311.47 225.943 312.579 225.085 313.696C225.654 312.717 226.168 311.707 226.625 310.67C226.737 310.658 226.844 310.618 226.937 310.554C227.259 310.345 227.581 310.138 227.909 309.943C227.992 309.881 228.079 309.823 228.17 309.772C228.048 309.952 227.905 310.119 227.746 310.267H227.747Z" fill="#0097A7"/>
<path d="M264.757 168.528C264.527 168.747 264.297 168.965 264.081 169.179C257.309 175.638 251.209 181.759 246.816 190.25C242.452 198.651 239.951 207.895 239.485 217.35C239.02 227.711 241.396 237.994 242.292 248.28C242.888 254.652 242.812 261.069 242.066 267.425L242.071 267.438C241.744 270.09 241.283 272.724 240.691 275.329C242.812 271.038 244.954 266.729 247.058 262.429L247.074 262.393C252.924 250.331 258.388 238.102 262.06 225.147C267.106 207.321 267.733 189.535 265.421 171.361V171.348C265.302 170.268 265.156 169.198 264.993 168.12C264.962 168.279 264.879 168.422 264.757 168.528V168.528Z" fill="#0097A7"/>
<path d="M302.942 216.952C278.634 231.562 258.053 251.621 242.824 275.546C242.784 275.558 242.746 275.578 242.712 275.603H242.7C241.415 276.168 240.137 276.746 238.84 277.315C238.721 277.368 238.614 277.443 238.523 277.536C238.422 277.637 238.344 277.758 238.294 277.891C238.244 278.024 238.223 278.167 238.233 278.309L238.238 278.321C238.234 278.477 238.27 278.631 238.342 278.769C238.414 278.907 238.52 279.025 238.65 279.111C238.78 279.198 238.929 279.25 239.084 279.263C239.24 279.276 239.396 279.249 239.538 279.186C240.276 278.868 241.012 278.536 241.746 278.205C253.873 272.792 265.788 266.805 274.81 256.761C285.093 245.333 293.91 232.273 302.846 219.749C302.854 219.731 302.867 219.726 302.875 219.709C303.252 219.17 303.642 218.626 304.019 218.088C304.043 218.052 304.064 218.015 304.081 217.975C304.164 217.819 304.193 217.64 304.163 217.467C304.132 217.293 304.044 217.134 303.913 217.016C303.782 216.898 303.615 216.828 303.439 216.816C303.263 216.805 303.088 216.852 302.942 216.952Z" fill="#0097A7"/>
<path d="M207.613 291.661C200.541 275.799 186.35 263.745 185.825 245.367C185.815 244.779 185.152 244.744 184.851 245.092C184.78 245.159 184.724 245.24 184.688 245.33C183.943 247.707 183.344 250.126 182.893 252.576C182.45 254.797 182.157 257.044 182.014 259.304C181.285 269.022 183.69 278.719 188.876 286.97C196.832 299.87 208.621 310.229 214.369 324.393C214.466 325.651 214.393 326.917 214.152 328.156C214.153 328.159 214.153 328.163 214.152 328.167C214.15 328.17 214.147 328.173 214.144 328.174C214.145 328.177 214.145 328.181 214.143 328.184C214.142 328.187 214.139 328.19 214.136 328.191C213.951 329.233 213.554 330.225 212.969 331.107C212.631 331.632 213.354 332.266 213.735 331.74C214.665 330.46 215.261 328.969 215.469 327.401L215.55 327.622C215.569 327.679 215.594 327.734 215.625 327.786C215.694 327.902 215.8 327.992 215.925 328.043C216.062 328.098 216.212 328.113 216.358 328.088C216.503 328.062 216.638 327.995 216.748 327.896C216.858 327.797 216.937 327.669 216.978 327.527C217.018 327.385 217.018 327.234 216.977 327.092C216.714 326.302 216.442 325.53 216.15 324.781C215.963 324.274 215.75 323.776 215.55 323.286C215.303 320.465 214.581 317.598 214.16 315.062C212.97 307.018 210.77 299.155 207.613 291.661V291.661Z" fill="#0097A7"/>
<path d="M290.06 286.822C289.99 286.816 289.92 286.832 289.86 286.868C273.976 294.439 258.55 302.934 243.66 312.31C234.166 318.284 224.433 324.334 215.919 331.719C215.851 331.775 215.787 331.842 215.719 331.896C215.707 331.901 215.707 331.901 215.698 331.92C215.696 331.921 215.695 331.921 215.693 331.923C215.692 331.924 215.691 331.925 215.69 331.927C215.689 331.929 215.689 331.931 215.689 331.933C215.689 331.934 215.689 331.936 215.69 331.938C214.397 333.038 213.15 334.181 211.935 335.371C211.805 335.419 211.676 335.471 211.535 335.533C210.718 336.842 209.901 338.106 209.09 339.352C209.945 338.815 210.833 338.333 211.749 337.908C211.846 337.855 211.946 337.808 212.049 337.767C212.831 337.402 213.635 337.06 214.454 336.757L215.221 336.472C215.277 336.449 215.335 336.432 215.394 336.422C220.959 334.448 227.136 333.444 232.394 331.642C240.023 329.197 247.246 325.632 253.827 321.063C265.333 312.774 273.834 301.163 284.688 292.156C284.706 292.133 284.729 292.114 284.756 292.101C286.558 290.591 288.436 289.174 290.383 287.856C290.474 287.783 290.541 287.684 290.575 287.572C290.609 287.46 290.609 287.341 290.574 287.229C290.539 287.117 290.471 287.019 290.38 286.946C290.288 286.874 290.177 286.83 290.06 286.822V286.822Z" fill="#0097A7"/>
<path d="M207.626 344.477C208.562 343.092 209.503 341.685 210.45 340.238C210.734 339.807 211.005 339.382 211.284 338.938C211.543 338.561 211.793 338.157 212.047 337.768C212.109 337.655 212.189 337.552 212.26 337.423L212.272 337.418C212.49 337.087 212.707 336.754 212.918 336.409C213.831 334.962 214.747 333.483 215.687 331.952V331.94C215.686 331.938 215.686 331.937 215.686 331.935C215.686 331.933 215.687 331.931 215.687 331.93C215.688 331.928 215.689 331.927 215.69 331.926C215.692 331.924 215.693 331.924 215.695 331.923C215.703 331.904 215.703 331.904 215.716 331.899C215.778 331.788 215.853 331.672 215.929 331.555C219.372 325.886 222.962 319.572 226.522 312.662C226.536 312.657 226.53 312.645 226.544 312.639L226.569 312.585C226.948 311.853 227.327 311.121 227.697 310.363C227.703 310.351 227.708 310.34 227.714 310.328L227.722 310.309L227.73 310.292C227.742 310.287 227.742 310.287 227.751 310.269C227.8 310.163 227.862 310.051 227.912 309.944C228.331 309.123 228.739 308.306 229.149 307.459C233.864 297.94 238.07 288.177 241.749 278.212C241.939 277.727 242.117 277.247 242.289 276.755L242.301 276.75C242.36 276.55 242.437 276.36 242.51 276.155C242.574 275.969 242.638 275.782 242.71 275.608H242.722C244.243 271.332 245.708 266.944 247.067 262.433L247.084 262.397C251.157 249.057 254.165 235.414 256.077 221.597C256.112 221.382 256.104 221.162 256.053 220.951C256.001 220.739 255.908 220.54 255.779 220.365C255.65 220.19 255.486 220.043 255.299 219.932C255.112 219.821 254.904 219.748 254.688 219.719C254.473 219.69 254.253 219.704 254.043 219.76C253.833 219.817 253.636 219.916 253.465 220.05C253.293 220.184 253.15 220.351 253.044 220.541C252.938 220.731 252.872 220.941 252.848 221.157C252.265 225.462 251.571 229.699 250.767 233.866C250.764 233.873 250.762 233.88 250.762 233.888C250.762 233.896 250.764 233.903 250.767 233.91C248.598 245.261 245.693 256.459 242.073 267.433L242.078 267.445C240.945 270.883 239.762 274.25 238.531 277.545C238.448 277.798 238.338 278.061 238.241 278.319L238.246 278.331C235.473 285.731 232.499 292.75 229.446 299.323L229.246 299.768L228.07 302.259C227.733 302.946 227.409 303.629 227.094 304.293C223.468 311.744 219.77 318.603 216.162 324.793C216.038 325.016 215.902 325.244 215.772 325.455C215.672 325.625 215.572 325.795 215.472 325.965C215.028 326.721 214.592 327.459 214.159 328.165C214.16 328.168 214.16 328.172 214.159 328.176C214.157 328.179 214.154 328.182 214.151 328.183C214.152 328.186 214.152 328.19 214.15 328.193C214.149 328.196 214.146 328.199 214.143 328.2C212.792 330.461 211.468 332.618 210.169 334.671C209.347 335.971 208.542 337.226 207.729 338.46C206.916 339.694 206.135 340.899 205.339 342.066C204.892 342.735 204.445 343.403 204.002 344.041C203.902 344.181 203.822 344.315 203.726 344.454L203.706 344.482L207.626 344.477Z" fill="#22475C"/>
<path d="M280.958 239.451C269.079 253.189 255.421 265.281 240.344 275.407C240.027 275.641 239.811 275.988 239.743 276.376C239.675 276.764 239.759 277.163 239.978 277.491C240.197 277.819 240.534 278.049 240.919 278.135C241.304 278.22 241.707 278.154 242.044 277.95C257.34 267.675 271.199 255.408 283.254 241.471C283.498 241.163 283.615 240.774 283.58 240.383C283.545 239.992 283.361 239.629 283.066 239.369C282.771 239.11 282.388 238.974 281.996 238.989C281.603 239.004 281.232 239.17 280.958 239.451V239.451Z" fill="#22475C"/>
<path d="M268.872 277.226L225.231 309.112C223.642 310.273 225.34 312.818 226.931 311.654L270.572 279.768C272.166 278.608 270.466 276.064 268.872 277.226Z" fill="#22475C"/>
<path d="M261.921 306.199C243.851 315.179 226.375 325.308 209.601 336.523C209.286 336.757 209.073 337.104 209.007 337.491C208.94 337.878 209.025 338.276 209.243 338.602C209.461 338.928 209.796 339.158 210.179 339.244C210.562 339.331 210.964 339.266 211.301 339.065C228.076 327.85 245.551 317.721 263.621 308.741C265.384 307.864 263.661 305.332 261.921 306.199Z" fill="#22475C"/>
<path d="M229.193 307.172C229.701 296.067 225.081 285.922 220.084 276.281C214.066 264.668 208.753 253.597 208.375 240.269C208.319 238.3 205.269 238.536 205.324 240.503C205.661 252.371 209.678 262.842 215.08 273.27C220.641 284.006 226.712 294.927 226.142 307.407C226.055 309.364 229.105 309.117 229.193 307.172Z" fill="#22475C"/>
<path d="M217.231 327.962C215.038 317.605 210.591 308.035 205.671 298.722C200.182 288.332 194.477 278.053 188.871 267.728C187.929 265.995 185.396 267.712 186.328 269.428C191.728 279.364 197.187 289.267 202.505 299.246C207.547 308.708 212.11 318.418 214.342 328.962C214.747 330.885 217.634 329.862 217.231 327.962Z" fill="#22475C"/>
<path d="M185.204 315.679C192.432 324.642 199.074 333.445 202.548 344.479H205.748C202.585 333.686 196.513 324.83 189.495 316.135C182.336 307.266 174.978 298.262 172.544 286.842C172.134 284.918 169.244 285.942 169.653 287.842C171.931 298.546 178.465 307.322 185.204 315.679Z" fill="#22475C"/>
<path d="M101.126 340.237H208.76C216.975 340.237 221.879 333.577 219.711 325.36L137.898 15.22C135.73 7.00402 127.313 0.343018 119.098 0.343018H11.464C3.24896 0.343018 -1.65504 7.00302 0.511959 15.22L82.326 325.361C84.494 333.577 92.911 340.237 101.126 340.237Z" fill="#3B474E"/>
<path d="M102.136 327.765H205.469C213.684 327.765 218.588 321.105 216.42 312.89L137.898 15.22C135.73 7.00402 127.313 0.343018 119.098 0.343018H15.764C7.54795 0.343018 2.64395 7.00302 4.81195 15.22L83.336 312.89C85.503 321.105 93.9209 327.765 102.136 327.765Z" fill="#667A84"/>
<path d="M18.361 6.20996H125.021C129.721 6.20996 134.53 10.018 135.77 14.716L217.85 325.866C219.089 330.566 216.285 334.366 211.589 334.366H104.928C100.228 334.366 95.419 330.558 94.179 325.866L12.099 14.716C10.86 10.018 13.664 6.20996 18.361 6.20996Z" fill="#EAEDEF"/>
<path d="M80.738 9.09802C76.573 9.17402 79.681 18.015 83.847 17.938C88.013 17.861 84.906 9.02202 80.738 9.09802Z" fill="#3B474E"/>
<path d="M67.8693 25.8697L67.1272 26.1023C67.0835 26.0106 67.0291 25.9339 66.964 25.8725C66.8985 25.8099 66.8246 25.7624 66.7425 25.7298C66.6603 25.6972 66.5719 25.6803 66.4772 25.679C66.3836 25.6773 66.2872 25.692 66.1878 25.7232C66.0082 25.7795 65.8657 25.8731 65.7604 26.0041C65.6547 26.134 65.5917 26.2952 65.5714 26.4876C65.5508 26.6789 65.5781 26.8949 65.6535 27.1355C65.7311 27.3828 65.8329 27.5792 65.9591 27.7244C66.0864 27.8694 66.2301 27.9639 66.3903 28.0079C66.5505 28.052 66.7182 28.0466 66.8932 27.9917C66.9915 27.9609 67.0784 27.9194 67.1538 27.8673C67.2304 27.8147 67.2936 27.7533 67.3436 27.6831C67.3931 27.6118 67.4281 27.5332 67.4483 27.4475C67.4697 27.3614 67.4744 27.2693 67.4623 27.1714L68.2054 26.9422C68.2362 27.1075 68.2363 27.2761 68.2059 27.4482C68.1762 27.6187 68.1152 27.7824 68.0229 27.9391C67.9314 28.0943 67.8076 28.2336 67.6515 28.3569C67.4962 28.4788 67.3073 28.5746 67.0848 28.6444C66.7753 28.7414 66.4766 28.7581 66.1887 28.6945C65.902 28.6305 65.6464 28.488 65.422 28.2668C65.1987 28.0453 65.028 27.7459 64.9097 27.3686C64.7911 26.9902 64.7614 26.646 64.8205 26.3359C64.8796 26.0259 65.0094 25.7632 65.2098 25.5478C65.4099 25.3312 65.6625 25.1752 65.9674 25.0796C66.1685 25.0166 66.3637 24.9864 66.5531 24.989C66.7436 24.9913 66.9225 25.0258 67.0898 25.0925C67.2567 25.158 67.4064 25.2556 67.5388 25.3853C67.6724 25.5146 67.7825 25.6761 67.8693 25.8697ZM72.8513 24.8794C72.9699 25.2578 72.9991 25.6022 72.9388 25.9126C72.8797 26.2226 72.749 26.4863 72.5466 26.7035C72.3451 26.9193 72.0913 27.0751 71.7852 27.1711C71.4768 27.2677 71.1781 27.2844 70.8891 27.2212C70.6001 27.158 70.3428 27.0159 70.1173 26.7951C69.8918 26.5743 69.7199 26.2752 69.6017 25.898C69.4831 25.5196 69.4533 25.1754 69.5124 24.8653C69.5716 24.5553 69.7019 24.2924 69.9035 24.0766C70.1047 23.8597 70.3594 23.7029 70.6678 23.6063C70.9739 23.5103 71.2715 23.494 71.5605 23.5572C71.8503 23.619 72.1079 23.7603 72.3334 23.9811C72.5601 24.2016 72.7327 24.501 72.8513 24.8794ZM72.1075 25.1125C72.0307 24.8674 71.9292 24.6722 71.803 24.5269C71.678 24.3813 71.5357 24.2857 71.3763 24.2402C71.2169 24.1946 71.0485 24.1996 70.8712 24.2552C70.6939 24.3108 70.5528 24.4028 70.4479 24.5312C70.343 24.6596 70.2802 24.8194 70.2595 25.0107C70.24 25.2017 70.2686 25.4197 70.3454 25.6648C70.4223 25.9099 70.5232 26.1053 70.6483 26.251C70.7744 26.3962 70.9172 26.4917 71.0766 26.5372C71.236 26.5828 71.4044 26.5778 71.5818 26.5222C71.7591 26.4666 71.9002 26.3746 72.0051 26.2462C72.11 26.1178 72.1722 25.9581 72.1917 25.7672C72.2124 25.5759 72.1843 25.3576 72.1075 25.1125ZM76.2729 25.7124L75.0428 26.0979L73.9552 22.628L75.1954 22.2393C75.5444 22.1299 75.8667 22.1052 76.1621 22.1651C76.4572 22.224 76.713 22.3615 76.9296 22.5777C77.1474 22.7935 77.3127 23.0816 77.4257 23.4419C77.539 23.8033 77.568 24.1354 77.5127 24.438C77.4586 24.7403 77.3263 25.0007 77.1157 25.2193C76.9062 25.4376 76.6253 25.6019 76.2729 25.7124ZM75.5794 25.2394L76.0453 25.0933C76.2622 25.0254 76.4326 24.9298 76.5565 24.8066C76.6812 24.6819 76.7553 24.5266 76.7788 24.3406C76.8032 24.1531 76.7748 23.93 76.6937 23.6713C76.6134 23.4149 76.5099 23.2172 76.3832 23.0783C76.2577 22.939 76.1089 22.8542 75.9368 22.8237C75.7648 22.7933 75.5703 22.8121 75.3535 22.8801L74.8859 23.0266L75.5794 25.2394Z" fill="#00CFA1"/>
<path d="M356.904 133.51L349.675 153.04L322.245 147.556L320.986 152.369L320.601 153.846L349.901 166.596C351.221 167.171 352.673 167.379 354.101 167.198C355.53 167.016 356.884 166.453 358.019 165.566C359.154 164.68 360.029 163.503 360.551 162.161C361.073 160.819 361.223 159.36 360.985 157.94L356.904 133.51Z" fill="#FFC9B9"/>
<path d="M360.987 157.939L356.904 133.51L353.395 142.991C355.295 149.282 356.669 155.591 355.395 162.335C356.037 162.241 356.682 162.129 357.333 161.978C356.681 162.129 356.033 162.241 355.395 162.335C355.353 162.56 355.317 162.784 355.268 163.011C355.316 162.785 355.353 162.561 355.395 162.335C343.139 164.135 332.419 156.427 320.985 152.369L320.6 153.846L349.9 166.596C351.221 167.172 352.672 167.38 354.102 167.199C355.531 167.018 356.885 166.455 358.021 165.568C359.156 164.681 360.031 163.505 360.553 162.162C361.076 160.819 361.225 159.36 360.987 157.939V157.939Z" fill="#FDA98F"/>
<path d="M310.925 142.048L305.615 145.41L310.925 152.322L315.302 154.297L320.602 153.844L322.247 147.555L310.925 142.048Z" fill="#FDA98F"/>
<path d="M320.985 152.368L317.885 150.991C315.871 149.926 314.333 148.14 313.578 145.991L312.978 144.272L306.984 141.492C306.795 141.404 306.643 141.252 306.555 141.063C306.467 140.874 306.448 140.66 306.502 140.459V140.459C306.532 140.345 306.585 140.237 306.658 140.144C306.73 140.05 306.821 139.972 306.924 139.915C307.027 139.857 307.141 139.82 307.259 139.807C307.376 139.794 307.495 139.804 307.609 139.838L315.551 140.923C316.508 141.054 317.423 141.401 318.227 141.938C319.03 142.475 319.7 143.188 320.187 144.023L322.251 147.56L320.985 152.368Z" fill="#FFC9B9"/>
<path d="M333.657 65.0991C333.433 68.6413 334.352 72.1618 336.279 75.1423C338.207 78.1227 341.04 80.4057 344.362 81.6551C347.701 82.8261 351.714 83.0761 353.917 85.8461C355.988 88.4521 355.54 92.1591 355.331 95.4811C355.122 98.8031 355.631 102.781 358.578 104.323C362.304 106.275 366.873 102.823 370.956 103.831C374.988 104.831 376.735 109.631 376.929 113.775C377.123 117.919 376.484 122.336 378.392 126.024C380.254 129.624 384.27 131.732 388.292 132.235C392.314 132.738 396.376 131.859 400.282 130.776C405.057 129.451 409.818 127.776 413.846 124.886C417.874 121.996 421.128 117.754 421.914 112.862C422.7 107.97 420.605 102.496 416.261 100.113C413.719 98.7131 410.419 98.2551 408.848 95.8131C407.184 93.2311 408.348 89.8421 409.497 86.9921C410.646 84.1421 411.663 80.6541 409.803 78.2111C406.423 73.7711 397.803 77.8241 394.427 73.3821C393.118 71.6581 393.199 69.3011 393.076 67.1401C392.842 62.7631 391.529 58.5119 389.253 54.7658C386.978 51.0197 383.81 47.8952 380.033 45.6709C376.256 43.4467 371.987 42.1919 367.607 42.0185C363.228 41.8451 358.873 42.7584 354.932 44.6771C351.732 46.1771 349.565 48.8301 346.611 50.5191C343.777 52.1411 340.987 52.6261 338.525 55.0501C335.766 57.7197 334.042 61.2796 333.657 65.0991V65.0991Z" fill="#BF360C"/>
<path d="M416.261 100.113C413.719 98.713 410.419 98.255 408.848 95.813C407.184 93.231 408.348 89.842 409.497 86.992C410.646 84.142 411.662 80.654 409.797 78.211C406.417 73.771 397.797 77.824 394.421 73.382C393.112 71.658 393.193 69.301 393.07 67.14C392.687 61.9175 390.814 56.9145 387.672 52.7249C384.531 48.5353 380.253 45.3351 375.347 43.504C381.926 47.7578 386.629 54.366 388.493 61.975C389.044 64.5313 389.272 67.1469 389.17 69.76C389.087 73.424 386.77 78.046 391.47 79.755C394.77 80.955 398.37 80.519 400.906 83.5C402.389 85.245 402.358 87.353 401.706 89.441C401.074 91.479 400.675 93.241 401.412 95.331C402.234 97.3405 403.443 99.1685 404.971 100.711C406.277 102.141 407.579 103.631 407.638 105.674C407.586 107.714 406.755 109.657 405.315 111.103C402.78 113.784 398.736 115.075 395.179 115.612C391.837 116.112 388.51 115.751 385.887 113.454C383.435 111.306 382.187 108.027 381.026 105.074C380.532 103.362 379.631 101.794 378.399 100.506C377.162 99.4987 375.699 98.8069 374.136 98.49C370.523 97.59 366.331 97.996 362.972 96.29C359.972 94.762 359.44 91.542 359.58 88.49C359.713 85.565 360.396 81.99 357.748 79.939C356.276 78.9517 354.602 78.3047 352.848 78.045C351.072 77.66 349.3 77.237 347.57 76.677C343.794 75.455 340.194 73.563 337.793 70.311C335.787 67.4104 334.892 63.8843 335.273 60.378C335.299 60.024 335.338 59.666 335.381 59.309C334.427 61.1062 333.839 63.0749 333.651 65.101C333.427 68.6432 334.346 72.1637 336.273 75.1442C338.201 78.1247 341.034 80.4077 344.356 81.657C347.695 82.828 351.708 83.078 353.91 85.848C355.982 88.454 355.535 92.161 355.325 95.483C355.115 98.805 355.625 102.783 358.572 104.325C362.298 106.277 366.867 102.825 370.95 103.833C374.982 104.833 376.729 109.633 376.923 113.777C377.117 117.921 376.478 122.338 378.385 126.026C380.248 129.626 384.264 131.734 388.285 132.237C392.306 132.74 396.369 131.861 400.275 130.778C405.05 129.453 409.811 127.778 413.839 124.888C417.867 121.998 421.121 117.756 421.907 112.864C422.693 107.972 420.605 102.497 416.261 100.113Z" fill="#92360C"/>
<path d="M398.22 337.997L391.132 339.383L388.253 319.148L400.286 317.389L398.22 337.997Z" fill="#FFC9B9"/>
<path d="M366.328 188.197L396.923 186.656L399.123 211.13L395.275 254.941L402.105 269.4L400.29 317.391L388.257 319.15L379.016 263.878L366.328 188.197Z" fill="#263238"/>
<path d="M398.853 336.118L402.287 346.524L367.608 347.039L367.923 344.734L389.605 334.9L392.531 337.186L398.853 336.118Z" fill="#666666"/>
<path d="M416.575 337.426L409.04 338.9L405.633 317.392L418.117 316.306L416.575 337.426Z" fill="#FFC9B9"/>
<path d="M413.214 187.151C403.665 187.92 394.148 188.993 384.661 190.368L395.907 259.286L405.633 317.393L418.117 316.307L419.66 281.346C420.173 270.873 417.069 260.541 410.87 252.084L418.443 226.929C419.966 224.348 422.611 208.692 420.89 193.499C420.688 191.65 419.773 189.953 418.34 188.768C416.907 187.583 415.068 187.003 413.214 187.151V187.151Z" fill="#37474F"/>
<path d="M417.248 335.429L420.898 346.491L384.032 347.039L384.367 344.588L407.417 334.134L410.528 336.563L417.248 335.429Z" fill="#888888"/>
<path d="M412.726 238.903L404.181 262.163C403.709 263.446 405.705 263.813 406.172 262.543C409.02 254.789 411.869 247.036 414.718 239.283C415.189 238 413.193 237.635 412.726 238.903Z" fill="#263238"/>
<path d="M411.905 256.086C411.636 256.018 411.352 256.049 411.104 256.175C410.857 256.3 410.663 256.511 410.559 256.768L407.594 263.02C407.542 263.142 407.516 263.274 407.517 263.407C407.518 263.54 407.547 263.672 407.601 263.793C407.656 263.914 407.735 264.023 407.833 264.112C407.932 264.202 408.048 264.27 408.174 264.312C408.443 264.38 408.727 264.348 408.975 264.223C409.222 264.097 409.416 263.886 409.52 263.629L412.485 257.377C412.537 257.255 412.564 257.123 412.563 256.99C412.561 256.857 412.533 256.726 412.478 256.604C412.424 256.483 412.344 256.374 412.246 256.285C412.147 256.196 412.031 256.128 411.905 256.086V256.086Z" fill="#263238"/>
<path d="M416.027 194.444C409.549 199.346 402.09 202.793 394.159 204.55C386.227 206.308 378.01 206.333 370.068 204.626C368.78 204.342 368.152 206.312 369.455 206.599C377.74 208.396 386.317 208.377 394.594 206.545C402.872 204.712 410.654 201.109 417.407 195.982C418.464 195.167 417.076 193.636 416.027 194.444Z" fill="#CFD8DC"/>
<path d="M377.323 144.534C376.492 142.085 375.053 139.887 373.139 138.147C372.952 137.949 372.697 137.831 372.425 137.817C372.153 137.802 371.887 137.892 371.68 138.069C371.479 138.254 371.359 138.51 371.344 138.782C371.33 139.055 371.422 139.322 371.602 139.527C372.036 139.916 372.447 140.33 372.832 140.768C373.023 140.987 373.209 141.212 373.387 141.443C373.476 141.558 373.563 141.675 373.648 141.793C373.686 141.846 373.722 141.899 373.761 141.952L373.771 141.964L373.801 142.01C374.114 142.483 374.4 142.973 374.657 143.479C374.79 143.738 374.914 144.002 375.027 144.27C375.084 144.404 375.14 144.54 375.193 144.67C375.216 144.73 375.239 144.791 375.262 144.852L375.287 144.914L375.306 144.969C375.371 145.233 375.534 145.462 375.763 145.609C375.992 145.755 376.268 145.809 376.535 145.757C376.8 145.696 377.03 145.534 377.177 145.305C377.324 145.077 377.377 144.8 377.323 144.534V144.534Z" fill="#CFD8DC"/>
<path d="M366.965 100.021C370.342 100.903 380.465 92.4381 384.022 92.5261C387.579 92.6141 396.911 92.0621 399.594 100.818C401.869 108.239 397.567 117.469 395.267 125.041C394.051 129.041 392.552 133.022 392.21 137.119C391.694 143.419 394.01 149.464 397.495 154.435C400.98 159.406 416.277 173.69 421.824 193.742C409.497 208.142 383.504 212.453 366.329 207.528C365.274 193.947 357.919 155.713 357.651 141.839C357.655 141.487 357.581 141.138 357.434 140.818C357.287 140.497 357.072 140.214 356.803 139.986C352.303 135.961 349.897 130.101 351.403 124.26C353.817 114.947 357.941 109.983 366.965 100.021Z" fill="white"/>
<path opacity="0.63" d="M356.803 139.986C357.072 140.213 357.287 140.497 357.434 140.818C357.581 141.138 357.655 141.487 357.651 141.839C357.89 147.577 358.492 153.294 359.451 158.956C360.823 159.343 362.236 159.687 363.671 160.001C365.747 159.033 367.799 158.007 369.79 156.94C373.683 154.865 377.323 152.348 380.64 149.44C383.929 146.45 386.789 143.021 389.14 139.249C390.326 137.429 391.493 135.596 392.728 133.814C393.358 130.865 394.389 127.959 395.276 125.045L395.314 124.92C395.505 124.262 395.476 123.56 395.23 122.92C394.984 122.28 394.536 121.739 393.953 121.378C393.37 121.018 392.686 120.858 392.004 120.923C391.321 120.988 390.68 121.275 390.176 121.74C380.182 130.897 366.492 135.921 352.224 133.712C353.28 136.109 354.842 138.249 356.803 139.986Z" fill="#CFD8DC"/>
<path d="M382.464 97.768C381.941 99.0719 381.145 100.249 380.131 101.222C379.117 102.194 377.908 102.94 376.583 103.408C375.259 103.877 373.85 104.058 372.45 103.94C371.05 103.821 369.691 103.406 368.464 102.721C368.344 102.662 368.205 102.652 368.077 102.693C367.95 102.735 367.843 102.824 367.78 102.942C367.717 103.06 367.702 103.199 367.739 103.328C367.776 103.456 367.862 103.566 367.978 103.633C369.324 104.38 370.813 104.834 372.348 104.966C373.882 105.097 375.427 104.902 376.88 104.394C378.334 103.886 379.664 103.077 380.783 102.019C381.901 100.961 382.784 99.6781 383.372 98.255C383.631 97.645 382.722 97.156 382.464 97.768Z" fill="#CFD8DC"/>
<path d="M322.245 130.193L310.148 106.712L297.58 113.187L309.677 136.668L322.245 130.193Z" fill="#7CB342"/>
<path d="M320.114 129.137L309.771 109.061L299.711 114.244L310.054 134.32L320.114 129.137Z" stroke="#F2E0BE" stroke-miterlimit="10"/>
<path d="M306.828 123.118C306.402 122.29 306.322 121.327 306.605 120.44C306.889 119.554 307.513 118.816 308.341 118.389V118.389C309.169 117.963 310.132 117.882 311.019 118.166C311.906 118.45 312.643 119.074 313.07 119.902V119.902C313.496 120.729 313.576 121.691 313.293 122.577C313.01 123.463 312.386 124.201 311.56 124.628C311.15 124.84 310.703 124.969 310.243 125.007C309.783 125.046 309.321 124.994 308.881 124.854C308.442 124.713 308.034 124.488 307.682 124.19C307.33 123.892 307.039 123.528 306.828 123.118V123.118Z" fill="#F2E0BE"/>
<path d="M323.82 125.489L323.6 125.389L319.058 123.254C318.816 123.14 318.552 123.082 318.286 123.084C318.019 123.086 317.755 123.148 317.516 123.265C317.276 123.382 317.065 123.551 316.899 123.761C316.734 123.97 316.617 124.214 316.558 124.474C316.331 125.48 316.039 126.487 315.999 126.774C315.586 129.669 315.712 132.615 316.372 135.464C316.736 137.009 317.082 139.064 318.71 139.773C318.97 139.886 322.004 141.124 321.984 141.196L322.516 139.332L323.853 134.642L323.82 125.489Z" fill="#FFC9B9"/>
<path d="M345.013 136.975L322.853 133.329L321.989 141.19L359.983 153.844L361.17 145.797L362.058 139.777L345.013 136.975Z" fill="#FFC9B9"/>
<path d="M362.059 139.777L345.017 136.977L322.852 133.331L322.169 139.55C334.736 143.258 347.323 149.087 360.604 149.63L361.169 145.799L362.059 139.777Z" fill="#FFC9B9"/>
<path d="M364.53 149.622C373.4 140.815 382.199 132.807 389.137 122.022C385.998 120.071 383.367 117.105 380.224 115.164L362.055 139.779L360.601 149.629C361.904 149.68 363.215 149.674 364.53 149.622Z" fill="#FFC9B9"/>
<path d="M381.34 113.65L380.224 115.162C383.368 117.103 385.999 120.07 389.138 122.021C382.2 132.808 373.401 140.816 364.531 149.621C363.215 149.673 361.905 149.679 360.602 149.626C347.32 149.09 336.423 145.398 323.853 141.69L321.984 141.19L359.978 153.844C372.369 157.971 393.259 121.689 393.259 121.689L381.34 113.65Z" fill="#FDA98F"/>
<path d="M394.047 120.996L381.622 112.758C381.38 112.63 381.097 112.604 380.835 112.683C380.573 112.763 380.353 112.942 380.222 113.183C380.098 113.426 380.073 113.708 380.153 113.969C380.232 114.23 380.41 114.45 380.648 114.583L393.072 122.825C393.314 122.953 393.597 122.98 393.859 122.901C394.121 122.821 394.341 122.642 394.472 122.401C394.597 122.157 394.622 121.875 394.543 121.613C394.464 121.351 394.286 121.13 394.047 120.996Z" fill="#CFD8DC"/>
<path d="M355.294 64.1781C361.15 67.0651 369.322 71.6301 375.528 67.4891C376.551 66.822 377.407 65.9278 378.028 64.8761C378.794 64.8089 379.557 65.0268 380.172 65.4881C381.132 66.2176 381.841 67.2276 382.201 68.378C382.561 69.5284 382.555 70.7624 382.183 71.9091C381.359 74.3091 379.433 75.1331 376.919 75.4681C377.39 82.3681 379.339 87.5541 381.419 94.5231C380.652 98.0791 379.362 100.136 376.531 101.478C373.7 102.82 373.02 102.778 370.072 101.717C369.478 97.8124 368.605 93.9552 367.46 90.1751C364.448 91.8943 361.091 92.9224 357.633 93.1851C356.733 93.1591 347.233 78.5771 347.126 58.4751C349.536 60.7888 352.292 62.7129 355.294 64.1781V64.1781Z" fill="#FFC9B9"/>
<path d="M362.348 92.3342C364.14 91.8446 365.859 91.1186 367.459 90.1752C368.492 93.4865 369.278 96.8697 369.812 100.297L369.533 87.7491L362.348 92.3342Z" fill="#FDA98F"/>
<path d="M375.955 68.3101C376.594 67.5038 377.427 66.8733 378.377 66.4781C378.877 66.2661 379.141 67.1521 378.648 67.3721C377.812 67.7472 377.089 68.333 376.548 69.0721C376.276 69.437 376.048 69.8327 375.868 70.2511C375.777 70.6093 375.596 70.9385 375.343 71.2081C375.299 71.2375 375.249 71.2558 375.197 71.2613C375.144 71.2669 375.091 71.2594 375.042 71.2396C374.993 71.2199 374.95 71.1885 374.916 71.1481C374.882 71.1077 374.859 71.0596 374.848 71.0081C374.613 70.1141 375.454 68.9461 375.955 68.3101Z" fill="#FDA98F"/>
<path d="M360.113 70.6551C359.993 70.2741 359.965 69.8702 360.03 69.4761C360.064 69.3459 360.131 69.2266 360.224 69.1297C360.317 69.0328 360.434 68.9615 360.563 68.9226C360.692 68.8837 360.828 68.8787 360.96 68.9078C361.091 68.937 361.213 68.9994 361.313 69.0891C361.584 69.3825 361.782 69.7358 361.89 70.1201C362.025 70.4493 362.128 70.7909 362.196 71.1401C362.26 71.3744 362.231 71.6246 362.113 71.8373C361.996 72.05 361.8 72.2084 361.567 72.2786C361.335 72.3488 361.084 72.3253 360.868 72.2131C360.653 72.1009 360.49 71.9089 360.414 71.6781C360.28 71.3478 360.179 71.0052 360.113 70.6551V70.6551Z" fill="#472C1F"/>
<path d="M350.157 71.8511C350.05 71.4663 350.035 71.0617 350.114 70.6701C350.152 70.5412 350.223 70.4242 350.32 70.3305C350.416 70.2367 350.535 70.1694 350.665 70.1348C350.795 70.1003 350.932 70.0998 351.062 70.1332C351.192 70.1667 351.312 70.2331 351.409 70.3261C351.67 70.6278 351.856 70.9869 351.952 71.3741C352.076 71.7082 352.166 72.0535 352.223 72.4051C352.286 72.6438 352.252 72.8979 352.128 73.1115C352.004 73.3251 351.801 73.4807 351.562 73.5441C351.323 73.6075 351.069 73.5735 350.856 73.4495C350.642 73.3255 350.486 73.1218 350.423 72.8831C350.301 72.5487 350.211 72.203 350.157 71.8511V71.8511Z" fill="#472C1F"/>
<path d="M357.542 84.4521C360.019 83.5779 362.349 82.3302 364.449 80.7521C362.794 82.8062 360.528 84.281 357.98 84.9631C357.845 84.7836 357.699 84.6129 357.542 84.4521V84.4521Z" fill="white"/>
<path d="M364.449 80.7571C364.554 80.6771 364.662 80.6021 364.765 80.5221C364.799 81.0157 364.784 81.5115 364.72 82.0021C364.603 83.1179 364.167 84.1761 363.462 85.0491C362.413 86.2799 360.927 87.0563 359.318 87.2151C359.047 86.7211 358.784 86.2151 358.49 85.7241C358.333 85.462 358.162 85.2083 357.978 84.9641C360.527 84.2834 362.793 82.8101 364.449 80.7571V80.7571Z" fill="#B51C1C"/>
<path d="M356.888 63.206C359.394 62.4719 362.084 62.709 364.423 63.87C364.992 64.149 364.533 65.019 363.964 64.741C361.863 63.695 359.444 63.4807 357.191 64.1411C356.582 64.3171 356.278 63.378 356.888 63.206Z" fill="#BF360C"/>
<path d="M348.182 66.7001C348.671 65.7158 349.529 64.9648 350.57 64.6111C350.693 64.5739 350.827 64.5867 350.941 64.6468C351.055 64.7068 351.141 64.8093 351.18 64.9322C351.22 65.0551 351.209 65.1885 351.151 65.3037C351.093 65.4189 350.992 65.5067 350.87 65.5481C350.475 65.6834 350.111 65.8955 349.799 66.1721C349.486 66.4488 349.232 66.7846 349.05 67.1601C348.771 67.7281 347.899 67.2691 348.182 66.7001Z" fill="#BF360C"/>
<path d="M356.086 81.5601C355.465 81.3052 354.799 81.1804 354.128 81.1931C353.756 81.1441 353.215 80.9931 353.058 80.6181C352.958 80.3721 353.106 80.0851 353.197 79.8571C353.333 79.5141 353.473 79.1711 353.608 78.8281C353.897 78.1482 354.149 77.4528 354.362 76.7451C354.385 76.6427 354.371 76.5354 354.323 76.4424C354.274 76.3494 354.194 76.2767 354.097 76.2374C353.999 76.1981 353.891 76.1947 353.792 76.2278C353.692 76.2609 353.607 76.3283 353.553 76.4181C353.161 77.1667 352.812 77.9373 352.508 78.7261C352.208 79.4361 351.743 80.2351 352.073 81.0121C352.218 81.3007 352.427 81.5528 352.683 81.7495C352.94 81.9462 353.237 82.0825 353.554 82.1481C353.918 82.2268 354.289 82.2727 354.662 82.2851C355.017 82.3202 355.369 82.3851 355.714 82.4791C355.831 82.5095 355.956 82.4962 356.064 82.4417C356.173 82.3872 356.257 82.2951 356.303 82.1827C356.348 82.0702 356.351 81.9451 356.312 81.8306C356.272 81.716 356.191 81.6199 356.086 81.5601Z" fill="#472C1F"/>
<path d="M323.266 124.681C319.627 122.224 315.562 120.466 311.28 119.497C311.017 119.445 310.745 119.498 310.52 119.643C310.295 119.788 310.135 120.015 310.074 120.276C310.013 120.536 310.055 120.81 310.192 121.04C310.329 121.27 310.55 121.438 310.808 121.509C314.915 122.446 318.81 124.142 322.294 126.509C322.536 126.637 322.819 126.664 323.081 126.584C323.343 126.505 323.564 126.325 323.694 126.084C323.818 125.84 323.843 125.558 323.763 125.296C323.683 125.034 323.505 124.814 323.266 124.681V124.681Z" fill="#FFC9B9"/>
<path d="M318.186 125.501C316.225 123.745 313.776 122.625 311.165 122.289C310.899 122.233 310.621 122.282 310.39 122.426C310.159 122.569 309.992 122.796 309.924 123.059C309.865 123.325 309.912 123.604 310.055 123.836C310.199 124.068 310.428 124.235 310.693 124.3C311.271 124.369 311.843 124.48 312.405 124.632C312.935 124.768 313.452 124.952 313.948 125.183C314.984 125.64 315.941 126.258 316.783 127.016C316.986 127.186 317.247 127.272 317.512 127.255C317.777 127.238 318.025 127.12 318.205 126.925C318.385 126.73 318.483 126.473 318.479 126.208C318.475 125.943 318.369 125.689 318.183 125.5L318.186 125.501Z" fill="#FFC9B9"/>
<path d="M317.437 128.409C315.737 126.793 313.646 125.647 311.369 125.082C311.102 125.02 310.821 125.066 310.589 125.21C310.356 125.355 310.19 125.586 310.127 125.853C310.065 126.119 310.111 126.4 310.256 126.633C310.4 126.866 310.631 127.032 310.898 127.094C311.156 127.158 311.411 127.228 311.665 127.308C311.784 127.346 311.902 127.385 312.02 127.427L312.196 127.49H312.206C312.698 127.69 313.179 127.916 313.648 128.166C313.867 128.286 314.082 128.413 314.293 128.546C314.398 128.613 314.504 128.681 314.607 128.751C314.662 128.788 314.716 128.825 314.77 128.864L314.813 128.895C315.238 129.212 315.645 129.554 316.029 129.92C316.127 130.02 316.244 130.099 316.374 130.152C316.503 130.205 316.642 130.231 316.782 130.229C316.922 130.227 317.06 130.196 317.187 130.139C317.315 130.082 317.43 130 317.525 129.897C317.62 129.794 317.693 129.673 317.739 129.541C317.786 129.41 317.806 129.27 317.797 129.13C317.788 128.99 317.751 128.854 317.687 128.729C317.624 128.604 317.536 128.494 317.429 128.404L317.437 128.409Z" fill="#FFC9B9"/>
<path d="M318.056 133.036C316.345 130.962 314.111 129.385 311.584 128.467C311.318 128.405 311.037 128.452 310.805 128.596C310.573 128.74 310.406 128.97 310.343 129.236C310.289 129.502 310.338 129.779 310.481 130.009C310.624 130.24 310.85 130.408 311.112 130.478L311.16 130.495L311.173 130.501L311.35 130.571C311.483 130.625 311.615 130.681 311.744 130.738C312.004 130.854 312.261 130.979 312.514 131.111C313.032 131.385 313.533 131.691 314.014 132.025H314.019L314.03 132.035L314.221 132.177C314.335 132.264 314.447 132.351 314.558 132.441C314.78 132.621 314.996 132.807 315.206 133C315.416 133.193 315.62 133.393 315.817 133.6C315.916 133.703 316.013 133.808 316.108 133.914L316.235 134.056C316.242 134.065 316.442 134.3 316.312 134.143C316.464 134.369 316.696 134.527 316.962 134.586C317.227 134.645 317.505 134.599 317.738 134.459C317.966 134.31 318.127 134.078 318.187 133.812C318.246 133.546 318.199 133.268 318.056 133.036V133.036Z" fill="#FFC9B9"/>
<path d="M276.188 151.269L289.357 152.121L297.266 146.021H299.438L294.693 140.499L288.484 139.452L276.184 147.968L276.188 151.269Z" fill="#FDA98F"/>
<path d="M276.188 147.964L280.723 146.926C283.753 146.232 286.41 144.421 288.162 141.853L289.562 139.801L298.437 138.252C298.717 138.203 298.971 138.057 299.154 137.839C299.337 137.621 299.437 137.346 299.437 137.061V137.061C299.437 136.9 299.405 136.74 299.342 136.592C299.279 136.443 299.187 136.309 299.072 136.196C298.956 136.084 298.819 135.995 298.669 135.937C298.519 135.878 298.358 135.85 298.197 135.854L287.352 134.484C286.045 134.319 284.717 134.453 283.47 134.877C282.222 135.301 281.088 136.004 280.152 136.931L276.185 140.862L276.188 147.964Z" fill="#FFC9B9"/>
<path d="M218.304 332.713H204.926L204.842 327.866H218.407L218.304 332.713Z" fill="#FFC9B9"/>
<path d="M241.518 342.817L218.659 332.717H203.887L201.466 345.194H242.858L241.518 342.817Z" fill="#FF1744"/>
<path d="M201.465 345.19L201.083 347.16H243.97L242.858 345.19H201.465Z" fill="white"/>
<path d="M153.637 237.173V183.247L160.763 185.983C162.854 186.787 164.542 188.385 165.46 190.428C166.378 192.472 166.451 194.795 165.663 196.892V196.892C165.114 198.354 165.043 199.952 165.461 201.457C165.878 202.961 166.763 204.294 167.987 205.264L222.262 248.264C223.484 249.233 224.456 250.481 225.094 251.904C225.732 253.327 226.019 254.883 225.929 256.44L221.822 327.865H199.895L197.572 266.625L153.637 237.173Z" fill="#263238"/>
<path d="M155.61 186.657L155.795 205.403L190.287 244.033C192.877 246.933 194.28 250.703 194.216 254.591V254.591C194.151 258.587 192.912 262.476 190.654 265.773C188.396 269.071 185.218 271.631 181.516 273.137L127.529 295.07L120.104 271.52L165.56 254.058L141.16 244.083C131.895 240.294 123.967 233.833 118.388 225.522C112.808 217.212 109.828 207.428 109.829 197.418V197.418L155.61 186.657Z" fill="#37474F"/>
<path d="M179.28 254.943C171.519 254.351 163.964 252.157 157.093 248.5C156.851 248.39 156.576 248.378 156.325 248.465C156.074 248.553 155.866 248.734 155.745 248.97C155.624 249.207 155.598 249.481 155.674 249.736C155.75 249.991 155.921 250.207 156.152 250.339C163.355 254.147 171.27 256.417 179.396 257.005C180.716 257.104 180.588 255.04 179.28 254.943Z" fill="#263238"/>
<path d="M171.832 258.324L166.656 255.147C166.424 255.001 166.143 254.954 165.876 255.015C165.608 255.076 165.376 255.24 165.23 255.473C165.085 255.705 165.037 255.985 165.098 256.253C165.159 256.52 165.324 256.752 165.556 256.898L170.732 260.074C170.964 260.22 171.245 260.268 171.512 260.207C171.779 260.146 172.012 259.981 172.157 259.749C172.303 259.516 172.351 259.236 172.29 258.968C172.229 258.701 172.064 258.469 171.832 258.323V258.324Z" fill="#263238"/>
<path d="M193.649 127.81C196.413 123.084 199.197 118.626 203.943 121.505C211.215 125.864 218.899 129.495 226.884 132.345L218.21 151.294C209.51 148.985 199.389 147.657 191.48 142.858C186.756 139.997 190.825 132.643 193.649 127.81Z" fill="#FF1744"/>
<path d="M236.526 137.81L227.274 133.51C225.329 139.704 222.163 145.446 217.963 150.396L235.598 155.901L276.189 151.268V140.862L236.526 137.81Z" fill="#FFC9B9"/>
<path d="M233.879 152.409L276.188 148.369V140.863L236.526 137.811L228.173 133.928C227.982 139.163 226.362 144.247 223.489 148.628L233.879 152.409Z" fill="#FFC9B9"/>
<path d="M233.879 152.408L223.489 148.63C226.362 144.249 227.982 139.166 228.174 133.93L226.885 133.33L226.478 133.155C225.058 139.32 222.616 145.436 218.089 150.437L235.598 155.902L276.189 151.269V148.369L233.879 152.408Z" fill="#FDA98F"/>
<path d="M226.17 132.415C224.262 138.75 221.35 144.737 217.544 150.149C216.779 151.238 218.519 152.349 219.282 151.264C223.191 145.698 226.182 139.541 228.143 133.028C228.211 132.77 228.177 132.497 228.048 132.263C227.918 132.03 227.704 131.856 227.45 131.777C227.195 131.698 226.92 131.72 226.682 131.839C226.443 131.958 226.26 132.164 226.17 132.415V132.415Z" fill="#D50000"/>
<path d="M166.773 191.889C167.441 187.765 168.598 183.734 170.218 179.883C176.394 164.302 185.21 149.177 196.663 136.889C200.359 132.91 204.425 129.291 208.806 126.082C197.106 114.036 178.214 103.439 159.734 99.452C156.016 98.6569 152.137 99.2263 148.804 101.056C145.472 102.886 142.909 105.854 141.585 109.417L127.529 126.801C117.688 138.973 111.104 153.448 108.398 168.865C105.692 184.282 106.952 200.133 112.06 214.929V214.929C135.773 198.798 161.312 196.674 166.76 198.529C166.418 196.329 166.423 194.088 166.773 191.889V191.889Z" fill="#FF1744"/>
<path d="M144.58 186.848C136.047 187.733 127.708 189.964 119.873 193.457C112.773 161.511 130.073 132.618 150.155 108.738C153.023 105.328 148.098 100.753 145.009 103.965C143.506 105.528 142.341 107.383 141.585 109.415L127.529 126.799C117.687 138.971 111.104 153.446 108.398 168.864C105.692 184.281 106.953 200.133 112.061 214.929V214.929C114.167 213.497 116.288 212.179 118.407 210.96C118.85 208.45 119.694 206.027 120.907 203.785C125.334 194.193 135.559 192.509 145.181 190.068C145.583 189.963 145.93 189.71 146.152 189.359C146.374 189.008 146.455 188.586 146.379 188.178C146.303 187.77 146.075 187.406 145.741 187.159C145.407 186.912 144.992 186.801 144.58 186.848V186.848Z" fill="#D31744"/>
<path d="M162.954 191.454C156.511 191.137 150.076 192.222 144.093 194.635C142.862 195.128 143.859 196.935 145.081 196.45C150.736 194.199 156.812 193.199 162.89 193.519C163.163 193.527 163.429 193.426 163.628 193.238C163.827 193.051 163.943 192.792 163.951 192.518C163.96 192.245 163.86 191.98 163.673 191.78C163.486 191.581 163.227 191.463 162.954 191.454V191.454Z" fill="#D31744"/>
<path d="M190.937 142.274C176.794 157.596 167.685 176.884 164.837 197.54C164.653 198.856 166.718 198.94 166.901 197.627C169.108 182.046 174.939 167.2 183.926 154.281C186.483 150.605 189.287 147.107 192.318 143.812C193.21 142.84 191.836 141.295 190.937 142.274Z" fill="#D50000"/>
<path d="M124.678 172.952C124.678 172.952 131.522 176.003 136.113 178.486C137.543 183.622 133.744 188.486 129.513 190.686C127.788 191.58 125.857 192.003 123.917 191.912C121.976 191.821 120.094 191.22 118.459 190.17C116.825 189.119 115.497 187.656 114.608 185.928C113.72 184.2 113.303 182.269 113.4 180.328L124.678 172.952Z" fill="#FFC9B9"/>
<path d="M145.269 192.295C144.802 189.354 143.677 186.557 141.976 184.113C140.275 181.669 138.043 179.642 135.448 178.182C133.305 176.962 131.361 180.258 133.504 181.476C135.668 182.693 137.522 184.393 138.922 186.443C140.322 188.494 141.23 190.839 141.576 193.298C141.95 195.727 145.644 194.709 145.269 192.295Z" fill="#FFC9B9"/>
<path d="M140.912 195.214C140.446 192.273 139.32 189.476 137.619 187.032C135.919 184.588 133.687 182.56 131.092 181.1C128.949 179.881 127.005 183.177 129.147 184.4C131.31 185.617 133.162 187.317 134.561 189.367C135.96 191.417 136.867 193.762 137.212 196.22C137.593 198.641 141.284 197.627 140.912 195.214Z" fill="#FFC9B9"/>
<path d="M135.376 196.759C134.91 193.818 133.784 191.02 132.083 188.576C130.382 186.132 128.151 184.104 125.555 182.644C123.413 181.425 121.47 184.72 123.611 185.944C125.775 187.161 127.629 188.86 129.029 190.911C130.429 192.961 131.337 195.307 131.683 197.765C132.06 200.186 135.751 199.169 135.376 196.759Z" fill="#FFC9B9"/>
<path d="M129.617 196.735C129.151 193.794 128.025 190.996 126.324 188.552C124.623 186.108 122.392 184.08 119.796 182.62C117.654 181.401 115.711 184.697 117.852 185.92C120.016 187.137 121.87 188.837 123.27 190.887C124.67 192.937 125.578 195.283 125.924 197.741C126.301 200.162 129.992 199.148 129.617 196.735Z" fill="#FFC9B9"/>
<path d="M124.677 172.952L110.724 132.978L150.773 118.719L142.359 100.819L90.597 117.86C89.8405 118.109 89.1457 118.516 88.5589 119.055C87.9721 119.593 87.5068 120.251 87.1938 120.983C86.8808 121.715 86.7275 122.506 86.7439 123.302C86.7603 124.099 86.9461 124.882 87.289 125.601L113.397 180.324L124.677 172.952Z" fill="#FFC9B9"/>
<path d="M150.774 118.719L142.36 100.819L127.88 105.589C127.462 111.289 127.274 116.939 128.869 122.142C121.605 126.169 112.908 129.221 105.127 131.464C108.085 133.489 110.676 136.004 112.789 138.9L110.723 132.979L150.774 118.719Z" fill="#FDA98F"/>
<path d="M105.129 131.463C112.91 129.221 121.606 126.168 128.87 122.142C127.27 116.942 127.462 111.292 127.881 105.589L90.597 117.86C89.8405 118.109 89.1457 118.517 88.5589 119.055C87.9721 119.593 87.5068 120.251 87.1938 120.983C86.8808 121.715 86.7275 122.506 86.7439 123.302C86.7603 124.099 86.9461 124.882 87.289 125.601L113.397 180.324L124.677 172.952L112.79 138.899C110.677 136.003 108.086 133.489 105.129 131.463V131.463Z" fill="#FFC9B9"/>
<path d="M122.289 128.987C131.292 125.537 140.59 122.915 150.069 121.153C155.542 120.081 160.082 114.669 158.784 108.66C157.561 103.005 161.955 99.5511 155.994 99.0961C140.894 97.9431 125.694 104.027 115.81 107.707C116.455 115.176 118.662 122.426 122.289 128.987V128.987Z" fill="#FF1744"/>
<path d="M115.437 108.128C116.177 115.461 118.491 122.548 122.219 128.906C122.893 130.055 124.63 128.939 123.959 127.793C120.411 121.742 118.207 114.998 117.499 108.02C117.366 106.703 115.302 106.801 115.437 108.128Z" fill="#D50000"/>
<path d="M201.227 80.0631C203.059 79.1859 204.576 77.7665 205.574 75.9975C206.571 74.2285 207.001 72.1955 206.804 70.1741C206.404 66.2371 203.773 62.6741 200.309 60.3571C196.697 58.1088 192.615 56.7249 188.38 56.3131C184.807 55.7912 181.169 55.9216 177.643 56.6981C175.874 57.1291 174.043 57.8751 173.136 59.3471C172.229 60.8191 172.846 63.1161 174.63 63.4891C173.895 63.3741 173.143 63.4835 172.472 63.8031C171.801 64.1226 171.242 64.6375 170.868 65.2801C170.557 65.921 170.471 66.6484 170.626 67.3439C170.78 68.0395 171.166 68.6623 171.719 69.1111C170.874 69.0303 170.025 69.2003 169.276 69.5997C168.527 69.9992 167.913 70.6105 167.51 71.3571C167.175 72.0993 167.092 72.931 167.275 73.7245C167.458 74.518 167.897 75.2296 168.523 75.7501C167.708 76.0941 167.046 76.7237 166.662 77.5206C166.278 78.3176 166.198 79.2273 166.437 80.0791C167.002 81.7548 167.92 83.2895 169.13 84.5791C171.883 88.0864 174.164 91.94 175.914 96.0411C178.45 95.1401 180.841 93.8755 183.014 92.2871" fill="#3F2500"/>
<path d="M202.842 70.5401C200.613 70.183 198.341 70.177 196.11 70.5221C194.187 70.7491 188.303 72.0221 188.303 72.0221C186.903 76.1151 186.217 78.8341 182.916 81.6301C182.63 81.929 182.252 82.1233 181.842 82.1821C181.258 82.0757 180.693 81.8861 180.163 81.6191C179.421 81.3981 178.699 81.1271 177.978 80.8501C175.716 79.9751 173.257 78.7501 171.045 80.3961C170.16 81.1309 169.55 82.1444 169.316 83.2707C169.082 84.397 169.237 85.5694 169.756 86.5961C170.317 87.6018 171.141 88.4362 172.14 89.01C173.139 89.5838 174.274 89.8756 175.426 89.8541C176.341 96.3721 176.159 98.7701 175.172 105.276C176.307 108.367 179.224 112.223 181.93 113.07C184.64 114.013 187.611 113.851 190.203 112.621C190.313 109.442 190.679 106.277 191.296 103.157C193.452 103.55 195.658 103.585 197.826 103.262C198.648 103.198 199.424 102.855 200.026 102.291C200.394 101.798 200.643 101.225 200.752 100.619C203.183 90.7891 203.89 80.6119 202.842 70.5401Z" fill="#FFC9B9"/>
<path d="M190.201 112.621C190.311 109.442 190.677 106.277 191.294 103.157C192.502 103.363 193.725 103.47 194.951 103.479C192.185 102.979 190.265 101.914 188.009 101.271C188.389 105.423 189.601 112.937 190.201 112.621Z" fill="#FDA98F"/>
<path d="M174.967 83.4171C174.294 82.7744 173.468 82.3139 172.567 82.0791C172.089 81.9531 171.967 82.7791 172.437 82.9141C173.234 83.1444 173.958 83.5779 174.537 84.1721C174.826 84.4655 175.08 84.7917 175.294 85.1441C175.494 85.4681 175.575 85.7441 175.885 85.9371C175.927 85.9579 175.974 85.968 176.022 85.9666C176.069 85.9652 176.115 85.9522 176.157 85.9289C176.198 85.9055 176.233 85.8725 176.258 85.8326C176.284 85.7927 176.299 85.7472 176.303 85.7001C176.396 84.8651 175.497 83.9241 174.967 83.4171Z" fill="#FDA98F"/>
<path d="M191.976 80.26C192.036 79.9032 192.01 79.5373 191.902 79.1921C191.855 79.0793 191.78 78.9804 191.684 78.905C191.588 78.8297 191.475 78.7803 191.354 78.7617C191.233 78.7431 191.11 78.7559 190.996 78.7989C190.882 78.8419 190.78 78.9136 190.702 79.0071C190.495 79.3049 190.362 79.6477 190.314 80.0071C190.234 80.3192 190.186 80.6384 190.168 80.96C190.137 81.1794 190.193 81.4023 190.325 81.5804C190.457 81.7584 190.653 81.8773 190.872 81.9113C191.091 81.9452 191.315 81.8915 191.495 81.7617C191.674 81.632 191.795 81.4366 191.832 81.2181C191.912 80.9043 191.96 80.5834 191.976 80.26V80.26Z" fill="#472C1F"/>
<path d="M202.3 79.4071C202.268 79.0468 202.151 78.6992 201.959 78.3931C201.885 78.2961 201.788 78.2197 201.676 78.1712C201.565 78.1227 201.443 78.1037 201.321 78.1161C201.2 78.1284 201.084 78.1717 200.985 78.2418C200.885 78.3118 200.805 78.4063 200.753 78.5161C200.629 78.8554 200.586 79.2193 200.629 79.5781C200.631 79.9002 200.664 80.2214 200.729 80.5371C200.756 80.7556 200.867 80.9548 201.039 81.0921C201.212 81.2294 201.431 81.2939 201.65 81.2716C201.869 81.2494 202.07 81.1423 202.211 80.9732C202.352 80.8041 202.421 80.5865 202.404 80.3671C202.401 80.0444 202.367 79.7228 202.3 79.4071Z" fill="#472C1F"/>
<path d="M190.938 96.7091C192.714 96.8596 194.417 97.4885 195.864 98.5291C196.254 98.8061 195.784 99.3831 195.394 99.1061C194.049 98.1485 192.47 97.5743 190.824 97.4451C190.347 97.4041 190.463 96.6691 190.938 96.7091Z" fill="#FDA98F"/>
<path d="M199.668 72.6371C200.948 71.7981 203.268 73.0731 203.913 74.2681C203.955 74.3769 203.968 74.4948 203.95 74.61C203.932 74.7253 203.884 74.8339 203.812 74.925C203.739 75.016 203.643 75.0864 203.535 75.1291C203.426 75.1717 203.308 75.1852 203.193 75.1681C202.574 74.9871 202.039 74.6321 201.431 74.4181C200.845 74.2111 200.101 74.2081 199.639 73.7681C199.556 73.6982 199.489 73.6104 199.444 73.5113C199.4 73.4122 199.378 73.3043 199.381 73.1956C199.384 73.0869 199.411 72.9802 199.461 72.8835C199.51 72.7868 199.581 72.7026 199.668 72.6371Z" fill="#3F2500"/>
<path d="M188.537 74.004C189.769 72.531 192.512 72.13 194.319 72.257C195.179 72.318 195.074 73.587 194.291 73.715C193.345 73.832 192.409 74.0206 191.491 74.279C190.718 74.6064 189.914 74.8534 189.091 75.016C188.969 75.0267 188.847 75.0016 188.739 74.9439C188.631 74.8862 188.542 74.7983 188.483 74.6909C188.425 74.5836 188.398 74.4615 188.408 74.3395C188.417 74.2175 188.462 74.101 188.537 74.004V74.004Z" fill="#3F2500"/>
<path d="M189.485 88.3401C192.49 90.0589 195.752 91.2832 199.146 91.9661C198.762 92.5089 198.441 93.0941 198.191 93.7101C195.169 93.1577 192.304 91.9501 189.799 90.1721C189.634 89.5733 189.529 88.9596 189.485 88.3401V88.3401Z" fill="#F3F3F3"/>
<path d="M198.191 93.7101C197.91 94.3681 197.673 95.0481 197.422 95.7101C195.394 95.794 193.413 95.0882 191.895 93.7411C190.865 92.7799 190.136 91.541 189.795 90.1741C192.302 91.9519 195.168 93.1588 198.191 93.7101V93.7101Z" fill="#B51C1C"/>
<path d="M175.246 104.602C175.486 106.197 176.093 107.715 177.02 109.035C177.947 110.355 179.169 111.442 180.588 112.209C182.007 112.976 183.585 113.403 185.197 113.456C186.809 113.509 188.412 113.186 189.878 112.513C190.973 112.052 191.451 113.84 190.37 114.295C188.668 115.039 186.819 115.385 184.964 115.305C183.108 115.225 181.296 114.722 179.664 113.835C178.033 112.947 176.626 111.698 175.552 110.183C174.477 108.668 173.763 106.928 173.464 105.095C173.258 103.93 175.038 103.431 175.246 104.602Z" fill="#D50000"/>
<path d="M207.49 53.8651C204.98 55.1971 202.49 56.5811 200.044 58.0371C199.91 57.9131 199.776 57.7891 199.644 57.6551C197.207 55.3159 194.234 53.6097 190.985 52.6859C187.736 51.7621 184.31 51.6489 181.006 52.3561C177.703 53.0634 174.624 54.5696 172.038 56.7428C169.452 58.9161 167.438 61.6901 166.173 64.8221C163.911 70.4301 163.994 77.6281 167.402 82.5021C167.278 82.6021 167.165 82.7191 167.041 82.8321C166.844 83.0204 166.729 83.279 166.722 83.5515C166.714 83.8241 166.815 84.0885 167.001 84.2873C167.188 84.4862 167.445 84.6033 167.718 84.6131C167.99 84.623 168.255 84.5249 168.456 84.3401C174.529 78.6024 180.993 73.2918 187.799 68.4461C192.25 65.2654 196.836 62.2988 201.555 59.5461C203.837 58.2031 206.14 56.9231 208.485 55.6841C208.604 55.6188 208.71 55.5305 208.795 55.4245C208.88 55.3184 208.944 55.1966 208.982 55.0659C209.021 54.9353 209.033 54.7984 209.018 54.663C209.003 54.5277 208.962 54.3965 208.897 54.2771C208.832 54.1576 208.743 54.0522 208.637 53.9669C208.531 53.8816 208.409 53.8179 208.279 53.7797C208.015 53.7024 207.731 53.7331 207.49 53.8651V53.8651Z" fill="#FF1744"/>
<path d="M200.944 88.4371L198.404 79.3721C198.225 78.7341 197.215 78.9511 197.395 79.5921C198.195 82.4455 198.995 85.2988 199.795 88.1521L197.539 88.6121C197.411 88.6468 197.301 88.7294 197.232 88.8428C197.163 88.9562 197.141 89.0917 197.169 89.2213C197.197 89.3509 197.274 89.4646 197.384 89.5391C197.494 89.6135 197.628 89.6429 197.759 89.6211L200.551 89.0521C200.684 89.0213 200.799 88.9397 200.873 88.8247C200.946 88.7098 200.972 88.5707 200.944 88.4371V88.4371Z" fill="#472C1F"/>
<path d="M196.647 57.83L168.212 79.6851C167.157 80.4961 168.543 82.0271 169.592 81.2231L198.027 59.3681C199.083 58.5561 197.695 57.025 196.647 57.83Z" fill="#D50000"/>
<path d="M258.631 159.295H340.245L337.413 208.095H261.463L258.631 159.295Z" fill="#D31744"/>
<path d="M337.413 208.096L340.245 222.132H258.631L261.463 208.096H337.413Z" fill="#FF1744"/>
<path d="M311 165.959V155.479C311.034 152.561 309.985 149.734 308.055 147.546C306.125 145.357 303.452 143.962 300.553 143.63C298.948 143.477 297.33 143.66 295.8 144.168C294.271 144.677 292.864 145.499 291.671 146.583C290.478 147.666 289.524 148.987 288.87 150.46C288.217 151.934 287.879 153.527 287.877 155.139V165.959C287.877 166.209 287.778 166.45 287.6 166.627C287.423 166.804 287.183 166.903 286.933 166.903V166.903C286.683 166.903 286.442 166.804 286.265 166.627C286.088 166.45 285.988 166.21 285.988 165.959V155.53C285.95 152.031 287.253 148.65 289.627 146.081C292.002 143.511 295.27 141.946 298.761 141.708C300.581 141.618 302.401 141.899 304.11 142.534C305.819 143.168 307.381 144.143 308.702 145.399C310.023 146.655 311.075 148.166 311.794 149.84C312.514 151.515 312.886 153.318 312.888 155.141V165.959C312.888 166.209 312.788 166.45 312.611 166.627C312.434 166.804 312.194 166.903 311.944 166.903V166.903C311.82 166.903 311.697 166.879 311.583 166.831C311.468 166.784 311.364 166.714 311.276 166.627C311.189 166.539 311.119 166.435 311.072 166.32C311.024 166.206 311 166.083 311 165.959V165.959Z" fill="#263238"/>
<path d="M304.657 146.759C304.496 146.517 304.437 146.221 304.493 145.936C304.549 145.651 304.716 145.4 304.957 145.237L309.22 142.359C309.462 142.198 309.758 142.139 310.043 142.195C310.328 142.251 310.579 142.418 310.742 142.659C310.903 142.901 310.962 143.197 310.906 143.482C310.85 143.767 310.683 144.018 310.442 144.181L306.18 147.059C305.938 147.221 305.642 147.28 305.356 147.224C305.071 147.167 304.82 147 304.657 146.759V146.759Z" fill="#FFC9B9"/>
<path d="M306.042 148.733C305.88 148.492 305.82 148.197 305.875 147.911C305.93 147.626 306.096 147.375 306.336 147.211L310.599 144.333C310.841 144.171 311.137 144.112 311.422 144.169C311.708 144.225 311.959 144.392 312.122 144.633C312.283 144.875 312.342 145.171 312.286 145.456C312.23 145.741 312.063 145.992 311.822 146.155L307.559 149.033C307.317 149.193 307.023 149.251 306.739 149.195C306.455 149.138 306.204 148.973 306.042 148.733V148.733Z" fill="#FFC9B9"/>
<path d="M307.885 150.897C307.723 150.655 307.664 150.359 307.72 150.074C307.777 149.788 307.944 149.537 308.185 149.374L312.448 146.496C312.69 146.335 312.986 146.276 313.271 146.332C313.556 146.388 313.807 146.555 313.97 146.796C314.131 147.038 314.191 147.334 314.134 147.619C314.078 147.905 313.911 148.156 313.67 148.319L309.408 151.197C309.166 151.359 308.87 151.418 308.585 151.361C308.299 151.305 308.048 151.138 307.885 150.897V150.897Z" fill="#FFC9B9"/>
<path d="M309.257 152.74C309.095 152.498 309.036 152.202 309.092 151.917C309.149 151.631 309.316 151.38 309.557 151.217L313.269 148.712C313.511 148.551 313.807 148.492 314.092 148.548C314.377 148.604 314.628 148.771 314.791 149.012C314.952 149.254 315.011 149.55 314.955 149.835C314.899 150.12 314.732 150.371 314.491 150.534L310.78 153.04C310.538 153.202 310.242 153.261 309.956 153.205C309.671 153.148 309.42 152.981 309.257 152.74V152.74Z" fill="#FFC9B9"/>
<path d="M135.257 311.058C128.917 291.497 122.577 271.936 116.236 252.375C115.422 249.864 111.399 250.814 112.221 253.352C118.562 272.913 124.903 292.474 131.243 312.035C132.056 314.541 136.08 313.596 135.257 311.058Z" fill="#00CFA1"/>
<path d="M113.448 242.047L110.791 234.673C110.648 234.157 110.324 233.709 109.88 233.41C109.532 233.193 109.127 233.085 108.717 233.099C108.307 233.113 107.911 233.249 107.579 233.489C107.246 233.729 106.993 234.063 106.85 234.448C106.708 234.832 106.684 235.25 106.78 235.649C107.665 238.108 108.551 240.567 109.436 243.024C109.58 243.54 109.904 243.988 110.348 244.287C110.822 244.578 111.391 244.67 111.932 244.543C112.461 244.407 112.915 244.07 113.199 243.604C113.482 243.137 113.571 242.579 113.448 242.047Z" fill="#00CFA1"/>
<path d="M94.4129 180.904C91.9323 172.651 89.4519 164.396 86.9719 156.141C86.2109 153.608 82.1879 154.562 82.9569 157.118C85.4376 165.373 87.9179 173.627 90.3979 181.881C91.1589 184.414 95.1819 183.46 94.4129 180.904Z" fill="#00CFA1"/>
<path d="M300.914 146.183C301.212 145.922 301.395 145.554 301.423 145.159C301.451 144.763 301.321 144.373 301.062 144.073L296.462 138.778C296.201 138.48 295.833 138.297 295.438 138.269C295.042 138.241 294.652 138.371 294.352 138.63V138.63C294.053 138.891 293.87 139.259 293.842 139.654C293.814 140.05 293.944 140.44 294.203 140.74L298.803 146.035C299.064 146.334 299.432 146.517 299.828 146.545C300.224 146.572 300.614 146.442 300.914 146.183V146.183Z" fill="#FFC9B9"/>
<path d="M297.118 148.126C297.417 147.865 297.6 147.497 297.628 147.102C297.656 146.706 297.526 146.316 297.267 146.016L292.667 140.722C292.406 140.424 292.038 140.24 291.643 140.212C291.247 140.184 290.857 140.314 290.557 140.573V140.573C290.259 140.834 290.075 141.202 290.048 141.598C290.02 141.993 290.15 142.383 290.409 142.683L295.009 147.978C295.27 148.276 295.638 148.459 296.033 148.487C296.428 148.515 296.818 148.385 297.118 148.126V148.126Z" fill="#FFC9B9"/>
<path d="M293.925 150.325C294.223 150.064 294.406 149.696 294.434 149.301C294.462 148.905 294.332 148.515 294.073 148.215L289.473 142.921C289.212 142.622 288.844 142.439 288.449 142.411C288.053 142.383 287.663 142.513 287.363 142.772V142.772C287.064 143.033 286.881 143.401 286.853 143.797C286.825 144.192 286.955 144.583 287.214 144.883L291.814 150.177C292.075 150.476 292.443 150.659 292.839 150.687C293.235 150.715 293.625 150.584 293.925 150.325Z" fill="#FFC9B9"/>
<path d="M291.468 152.269C291.766 152.008 291.949 151.64 291.977 151.245C292.005 150.849 291.875 150.459 291.616 150.159L287.61 145.549C287.349 145.251 286.981 145.068 286.585 145.04C286.19 145.012 285.8 145.142 285.5 145.401C285.202 145.662 285.018 146.03 284.991 146.425C284.963 146.821 285.093 147.211 285.352 147.511L289.352 152.12C289.613 152.42 289.982 152.605 290.379 152.633C290.776 152.661 291.168 152.53 291.468 152.269V152.269Z" fill="#FFC9B9"/>
</svg>
