<svg xmlns="http://www.w3.org/2000/svg" width="146.665" height="108.934" viewBox="0 0 146.665 108.934">
  <g id="Group_18933" data-name="Group 18933" transform="translate(3179.468 1534.933)">
    <path id="Path_21380" data-name="Path 21380" d="M378.918,399.188c-3.085-2.94-7.689-5.635-7.383-10.519a.2.2,0,0,0-.375-.115.088.088,0,0,0-.094.028.013.013,0,0,0-.008.009,6.906,6.906,0,0,0-.7,1.832c0,.005,0,.009,0,.01-.676,2.911.42,6.13,2.118,8.518a23.061,23.061,0,0,0,4.683,4.67c.98.763,2,1.473,2.982,2.235.925.718,1.709,1.571,2.569,2.345.035.033.072.071.111.1.009.213.016.424.016.637a.124.124,0,0,0,.247.013c0-.036,0-.076,0-.11a0,0,0,0,0,0-.005c0-.1.007-.2.006-.3.039.032.074.065.111.094a.132.132,0,0,0,.212-.152,5.659,5.659,0,0,0-.325-.538c-.007-.153,0-.286-.017-.436a.052.052,0,0,0-.008-.022A12.722,12.722,0,0,0,378.918,399.188Z" transform="translate(-3439.073 -1838.919)" fill="#0097a7"/>
    <path id="Path_21381" data-name="Path 21381" d="M419.872,343.146a102.3,102.3,0,0,0-10.487,9.117,54.841,54.841,0,0,0-6.62,8.513c-.161.125-.316.251-.473.382-.049.039-.1.08-.149.123-.093.071-.179.148-.27.222.036-.163.063-.326.09-.489a.259.259,0,0,0,.212-.02.166.166,0,0,0,.069-.216c-.013-.041-.031-.084-.044-.125l0,0c-.05-.135-.1-.261-.156-.393a9.316,9.316,0,0,0-.007-1.222,5.14,5.14,0,0,0-.055-.564.06.06,0,0,0-.006-.036A21.3,21.3,0,0,0,399,350.825c-2.7-4.73-5.118-9.71-5.473-15.232a.3.3,0,0,0-.343-.285l0,0a.187.187,0,0,0-.1.042.315.315,0,0,0-.079.081,13.429,13.429,0,0,0-1.408,11.943,18.725,18.725,0,0,0,4.13,6.185c2.067,2.171,4.643,4,5.882,6.8.073.171.141.34.207.514.007.014.018.025.023.036-.024.235-.059.472-.1.707l-.218.181a.2.2,0,0,0,.11.339,9.048,9.048,0,0,1-.292.98c-.008.017.021.023.026.008a.061.061,0,0,1,.01-.023.038.038,0,0,0,.064.005c.107-.144.212-.283.322-.42,0,0,0-.005,0-.007l0-.016c.279-.371.554-.748.826-1.123.072-.1.144-.19.214-.288.443-.357.893-.7,1.348-1.043l0,0a90.67,90.67,0,0,0,8.2-6.295,20.142,20.142,0,0,0,3.688-4.675,35.663,35.663,0,0,1,3.152-4.649l0-.005c.3-.383.62-.765.946-1.143a.2.2,0,0,0,.034-.241l0,0A.2.2,0,0,0,419.872,343.146ZM402.01,361.984c0,.005,0,.005,0,.007l0,.005,0,.005s0,.005,0,.005a0,0,0,0,1,0,.005c-.2.338-.4.675-.6,1.014a8.478,8.478,0,0,0,.313-.89.186.186,0,0,0,.082-.043c.081-.069.162-.139.245-.2a.669.669,0,0,1,.065-.056A.8.8,0,0,1,402.01,361.984Z" transform="translate(-3453.014 -1803.002)" fill="#0097a7"/>
    <path id="Path_21382" data-name="Path 21382" d="M429.839,292.716c-.055.069-.111.137-.163.2a22.146,22.146,0,0,0-3.981,6.441,18.294,18.294,0,0,0-1.022,7.737c.254,2.872,1.286,5.618,1.912,8.418a25.374,25.374,0,0,1,.643,5.283l0,0a22.026,22.026,0,0,1-.09,2.225c.427-1.26.858-2.528,1.279-3.79l0-.01a63.541,63.541,0,0,0,2.758-10.813,36.918,36.918,0,0,0-1.054-14.942l0,0c-.073-.293-.152-.583-.237-.874A.2.2,0,0,1,429.839,292.716Z" transform="translate(-3475.864 -1774.147)" fill="#0097a7"/>
    <path id="Path_21383" data-name="Path 21383" d="M446.226,329.65a50.883,50.883,0,0,0-14.406,18.357.106.106,0,0,0-.029.019l0,0c-.333.2-.664.409-1,.614a.29.29,0,0,0-.079.073.278.278,0,0,0-.052.224l0,0a.257.257,0,0,0,.389.191c.192-.115.382-.234.572-.352,3.142-1.938,6.2-4.026,8.32-7.125a114.989,114.989,0,0,0,6.362-11.23c0-.005,0-.007.007-.012.084-.163.171-.327.255-.489a.159.159,0,0,0,.013-.033A.219.219,0,0,0,446.226,329.65Z" transform="translate(-3479.947 -1799.146)" fill="#0097a7"/>
    <path id="Path_21384" data-name="Path 21384" d="M388.931,378.892c-2.532-4.11-6.886-6.908-7.707-11.953-.025-.161-.209-.147-.279-.04a.184.184,0,0,0-.036.071,17.093,17.093,0,0,0-.228,2.063,14.171,14.171,0,0,0,.006,1.886,12.673,12.673,0,0,0,2.909,7.37c2.667,3.262,6.3,5.681,8.4,9.372a3.908,3.908,0,0,1,.079,1.044,0,0,0,0,1,0,.005,0,0,0,0,1,0,.005,2.152,2.152,0,0,1-.214.846c-.074.157.149.305.235.146a2.643,2.643,0,0,0,.318-1.26l.031.058a.217.217,0,0,0,.027.042.171.171,0,0,0,.093.06.219.219,0,0,0,.255-.3c-.1-.208-.2-.411-.313-.606-.07-.133-.148-.262-.22-.39-.172-.768-.477-1.532-.686-2.215A26.9,26.9,0,0,0,388.931,378.892Z" transform="translate(-3446.167 -1824.295)" fill="#0097a7"/>
    <path id="Path_21385" data-name="Path 21385" d="M433.215,390.564a.091.091,0,0,0-.054.02,125.22,125.22,0,0,0-11.793,8.71,61.911,61.911,0,0,0-6.929,6.369c-.017.017-.032.039-.048.056,0,0,0,0-.005.007a0,0,0,0,0,0,.005c-.316.351-.617.712-.908,1.084-.034.018-.068.036-.1.059-.177.391-.356.769-.533,1.142a6.726,6.726,0,0,1,.679-.5.766.766,0,0,1,.078-.05c.2-.129.411-.253.625-.367l.2-.107a.225.225,0,0,1,.046-.02c1.461-.749,3.125-1.253,4.508-1.943a22.46,22.46,0,0,0,5.516-3.7c2.865-2.707,4.779-6.219,7.438-9.1a.059.059,0,0,1,.017-.017,19.2,19.2,0,0,1,1.394-1.377A.162.162,0,0,0,433.215,390.564Z" transform="translate(-3467.914 -1840.336)" fill="#0097a7"/>
    <path id="Path_21386" data-name="Path 21386" d="M403.476,377.726c.5-.887,1.019-1.845,1.548-2.873l0,0c.107-.2.211-.408.318-.618q.436-.867.879-1.789c.062-.129.121-.256.182-.389.057-.113.112-.234.167-.351.013-.033.031-.064.046-.1l0,0c.048-.1.1-.2.141-.3.2-.432.4-.874.6-1.33l0,0a0,0,0,0,1,0-.005c0-.005,0-.005.005-.007.013-.033.029-.068.046-.1.74-1.689,1.5-3.561,2.223-5.6,0,0,0-.005,0-.007l0-.016c.078-.216.155-.431.229-.654a0,0,0,0,0,0-.005,0,0,0,0,0,0-.005l0-.005,0-.005s0,0,0-.007c.01-.031.023-.064.032-.1.085-.242.167-.481.249-.73a83.406,83.406,0,0,0,2.394-8.522c.034-.14.066-.279.1-.421l0,0c.009-.057.023-.113.036-.172s.021-.107.034-.158l0,0c.262-1.234.5-2.5.712-3.79l0-.01a73.214,73.214,0,0,0,.976-11.572.453.453,0,1,0-.906,0q0,1.811-.105,3.578a.015.015,0,0,0,0,.012,74.2,74.2,0,0,1-1.161,9.556l0,0q-.279,1.484-.605,2.913c-.014.073-.034.149-.052.224l0,0c-.491,2.141-1.052,4.184-1.65,6.107l-.04.13-.232.73c-.068.2-.132.4-.194.6-.725,2.187-1.491,4.212-2.257,6.05-.026.066-.055.134-.083.2l-.064.151c-.095.225-.187.444-.281.655a0,0,0,0,1,0,.005s0,0,0,.005c-.289.673-.575,1.318-.857,1.929-.179.387-.354.764-.533,1.134s-.35.731-.526,1.082c-.1.2-.2.4-.3.593-.022.042-.04.082-.061.124-.718,1.42-1.421,2.716-2.083,3.874Z" transform="translate(-3460.884 -1804.568)" fill="#22475c"/>
    <path id="Path_21387" data-name="Path 21387" d="M441.7,350.978a56.769,56.769,0,0,1-9.866,11.4.426.426,0,0,0,.563.638,57.646,57.646,0,0,0,10.011-11.568A.426.426,0,0,0,441.7,350.978Z" transform="translate(-3480.65 -1813.466)" fill="#22475c"/>
    <path id="Path_21388" data-name="Path 21388" d="M433.689,384.581l-10.85,10.392c-.4.378.167,1.017.563.638l10.85-10.392C434.647,384.841,434.085,384.2,433.689,384.581Z" transform="translate(-3474.578 -1836.218)" fill="#22475c"/>
    <path id="Path_21389" data-name="Path 21389" d="M425.954,410.052a131.319,131.319,0,0,0-13.3,10.281.426.426,0,0,0,.563.638,131.262,131.262,0,0,1,13.3-10.281C426.97,410.384,426.4,409.75,425.954,410.052Z" transform="translate(-3467.692 -1853.451)" fill="#22475c"/>
    <path id="Path_21390" data-name="Path 21390" d="M407.442,377.28c-.269-3.079-1.915-5.7-3.647-8.176-2.085-2.978-3.957-5.832-4.552-9.49-.088-.54-.92-.363-.832.177a20.84,20.84,0,0,0,3.895,8.668c1.927,2.753,4,5.538,4.3,9C406.658,378,407.489,377.82,407.442,377.28Z" transform="translate(-3458.161 -1819.206)" fill="#22475c"/>
    <path id="Path_21391" data-name="Path 21391" d="M396.058,401.05a31.521,31.521,0,0,0-4.262-7.63c-1.895-2.661-3.845-5.283-5.77-7.921-.323-.443-.958.124-.638.562,1.853,2.539,3.722,5.066,5.555,7.62a31.626,31.626,0,0,1,4.355,7.751C395.481,401.948,396.239,401.56,396.058,401.05Z" transform="translate(-3449.307 -1836.807)" fill="#22475c"/>
    <path id="Path_21392" data-name="Path 21392" d="M385.544,418.242a22.517,22.517,0,0,0-5.6-7.38c-2.3-2.18-4.658-4.39-5.749-7.447-.184-.515-.941-.127-.76.382,1.023,2.866,3.146,5.043,5.311,7.1,2.436,2.312,4.689,4.6,6.036,7.73C385,419.128,385.76,418.744,385.544,418.242Z" transform="translate(-3441.274 -1848.856)" fill="#22475c"/>
    <path id="Path_21393" data-name="Path 21393" d="M62.354,425.048c-4.788-.508-10.77.248-13.859-4.338a.231.231,0,0,0-.416.155.1.1,0,0,0-.065.09.016.016,0,0,0,0,.014,7.792,7.792,0,0,0,.636,2.123c0,.006.006.008,0,.012,1.4,3.074,4.6,5.2,7.764,6.172a26.068,26.068,0,0,0,7.411.958c1.4.008,2.808-.06,4.211-.052,1.323.005,2.614.23,3.917.331.055.006.114.014.17.016.155.186.306.369.453.561a.14.14,0,0,0,.23-.158c-.023-.034-.049-.07-.074-.1a0,0,0,0,0,0-.006c-.068-.093-.131-.184-.2-.273.057,0,.112.008.164.008a.149.149,0,0,0,.085-.282,6.444,6.444,0,0,0-.662-.259c-.112-.133-.2-.254-.316-.379a.059.059,0,0,0-.022-.015A14.378,14.378,0,0,0,62.354,425.048Z" transform="translate(-3221.428 -1860.638)" fill="#0097a7"/>
    <path id="Path_21394" data-name="Path 21394" d="M62.9,320.962a115.59,115.59,0,0,0-3.115,15.39,61.94,61.94,0,0,0-.067,12.186c-.058.222-.111.442-.161.668-.017.069-.036.142-.049.212-.034.128-.059.256-.089.385-.08-.171-.168-.335-.256-.5a.292.292,0,0,0,.175-.164.187.187,0,0,0-.087-.24c-.04-.028-.086-.054-.126-.081l0,0c-.138-.087-.269-.166-.41-.245a10.525,10.525,0,0,0-.848-1.09,5.782,5.782,0,0,0-.438-.467.072.072,0,0,0-.03-.028c-2.128-2.167-5.1-3.584-7.906-4.768-5.672-2.381-11.272-5.173-15.394-9.876a.338.338,0,0,0-.5-.019l0,0a.213.213,0,0,0-.057.1.355.355,0,0,0-.015.127,15.174,15.174,0,0,0,6.963,11.669,21.165,21.165,0,0,0,7.96,2.7c3.347.521,6.915.387,9.953,2.04.183.1.36.208.54.318.016.008.033.011.045.016.14.227.272.464.4.7l-.07.312a.221.221,0,0,0,.332.228,10.32,10.32,0,0,1,.413,1.078c0,.021.035.007.029-.011a.076.076,0,0,1-.007-.027.043.043,0,0,0,.061-.039c0-.2,0-.4,0-.6,0,0,0-.006,0-.01l-.006-.018c-.005-.524-.018-1.052-.033-1.575,0-.135,0-.269-.007-.405.151-.625.318-1.243.49-1.863l0,0c1.046-3.758,2.4-7.429,3.012-11.288a22.765,22.765,0,0,0,.084-6.728,40.33,40.33,0,0,1-.378-6.335l0-.006c.007-.552.028-1.112.06-1.676a.232.232,0,0,0-.135-.239l0,0A.225.225,0,0,0,62.9,320.962ZM59.872,350.14c0,.006,0,.006,0,.01l0,.006,0,.006a0,0,0,0,1,0,.006,0,0,0,0,1,0,.005c.053.441.106.881.164,1.319a9.543,9.543,0,0,0-.333-1.013.213.213,0,0,0,.043-.1c.025-.118.05-.236.079-.352a.713.713,0,0,1,.02-.1A.941.941,0,0,1,59.872,350.14Z" transform="translate(-3211.634 -1793.186)" fill="#0097a7"/>
    <path id="Path_21395" data-name="Path 21395" d="M42.625,288.826c0,.1,0,.2,0,.295a25.028,25.028,0,0,0,.869,8.512,20.673,20.673,0,0,0,4.413,7.635c2.2,2.4,5.021,4.147,7.511,6.224a28.69,28.69,0,0,1,4.214,4.291l0,0a24.988,24.988,0,0,1,1.452,2.055c-.486-1.423-.972-2.855-1.464-4.276l0-.012a71.806,71.806,0,0,0-4.977-11.586A41.722,41.722,0,0,0,43.4,289.3l0,0c-.267-.213-.537-.417-.814-.62A.23.23,0,0,1,42.625,288.826Z" transform="translate(-3217.761 -1771.505)" fill="#0097a7"/>
    <path id="Path_21396" data-name="Path 21396" d="M98.556,295.541a57.491,57.491,0,0,0-.263,26.367.122.122,0,0,0-.012.038l0,0c-.159.411-.313.824-.474,1.239a.333.333,0,0,0-.021.12.315.315,0,0,0,.108.236l0,0a.29.29,0,0,0,.48-.1c.093-.235.182-.472.271-.709,1.48-3.9,2.785-7.879,2.546-12.114a129.929,129.929,0,0,0-2.035-14.442c0-.005,0-.009,0-.015-.037-.2-.071-.411-.108-.614a.181.181,0,0,0-.011-.039A.247.247,0,0,0,98.556,295.541Z" transform="translate(-3254.45 -1776.001)" fill="#0097a7"/>
    <path id="Path_21397" data-name="Path 21397" d="M56.139,401.078c-5.1-1.938-10.927-1.446-15.136-5.4-.133-.128-.288.012-.277.156a.207.207,0,0,0,.017.089,19.34,19.34,0,0,0,1.216,2,16.022,16.022,0,0,0,1.3,1.685,14.32,14.32,0,0,0,7.682,4.6c4.636,1.085,9.553.753,13.981,2.609a4.423,4.423,0,0,1,.79.882,0,0,0,0,1,0,.006,0,0,0,0,1,0,.006,2.42,2.42,0,0,1,.392.906c.042.192.343.171.31-.03a2.986,2.986,0,0,0-.583-1.347l.067.031a.251.251,0,0,0,.053.019.194.194,0,0,0,.124-.01.248.248,0,0,0,.021-.445c-.234-.116-.466-.227-.7-.328-.155-.071-.313-.133-.465-.2-.683-.57-1.482-1.044-2.14-1.512A30.386,30.386,0,0,0,56.139,401.078Z" transform="translate(-3216.504 -1843.759)" fill="#0097a7"/>
    <path id="Path_21398" data-name="Path 21398" d="M127.585,352.409a.1.1,0,0,0-.035.056,141.407,141.407,0,0,0-4.565,15.925,69.97,69.97,0,0,0-1.82,10.477c0,.028,0,.057,0,.084,0,0,0,0,0,.01a0,0,0,0,0,0,.006c-.041.532-.063,1.062-.067,1.6-.018.04-.036.079-.052.125.111.472.211.934.309,1.39a7.545,7.545,0,0,1,.267-.912.871.871,0,0,1,.035-.1c.092-.255.194-.51.308-.759l.106-.234a.255.255,0,0,1,.027-.05c.793-1.677,1.937-3.275,2.7-4.846a25.384,25.384,0,0,0,2.39-7.117c.7-4.4,0-8.863.4-13.275a.064.064,0,0,1,0-.028,21.7,21.7,0,0,1,.3-2.193A.183.183,0,0,0,127.585,352.409Z" transform="translate(-3270.769 -1814.527)" fill="#0097a7"/>
    <path id="Path_21399" data-name="Path 21399" d="M72.853,334.8a.017.017,0,0,0,.01.009,83.766,83.766,0,0,1,5.542,9.36l0,0q.771,1.522,1.464,3.027c.038.075.072.157.108.236l0,0c1.035,2.257,1.939,4.473,2.728,6.608l.054.144.295.814c.079.227.159.45.236.668.857,2.458,1.565,4.8,2.145,6.974.022.077.043.158.061.234l.047.179c.07.267.138.527.2.78a0,0,0,0,1,0,.005,0,0,0,0,1,0,.006c.2.8.392,1.576.562,2.318.107.47.209.928.3,1.383s.19.9.274,1.331c.05.248.1.5.144.735.01.053.021.1.031.153.218,1.149.4,2.244.565,3.282h1.035q-.2-1.306-.458-2.733l0,0c-.042-.254-.092-.511-.141-.772q-.205-1.077-.444-2.208c-.033-.159-.068-.313-.1-.474-.027-.141-.061-.286-.092-.429-.011-.039-.017-.079-.03-.124l0,0c-.026-.122-.052-.244-.081-.367-.12-.524-.247-1.055-.38-1.6l0,0a0,0,0,0,1,0-.006c0-.006,0-.006,0-.01-.011-.039-.021-.081-.03-.124-.5-2.022-1.112-4.22-1.862-6.543,0,0,0-.006,0-.01l-.006-.018c-.079-.247-.158-.493-.245-.743a0,0,0,0,0,0-.006,0,0,0,0,0,0-.005l0-.006,0-.006s0,0,0-.01c-.013-.034-.024-.073-.037-.108-.09-.276-.182-.547-.279-.826a94.221,94.221,0,0,0-3.725-9.283c-.066-.15-.133-.3-.205-.443l0,0c-.031-.057-.057-.117-.086-.178s-.055-.111-.078-.165l0,0c-.615-1.286-1.268-2.584-1.972-3.885l0-.012A82.723,82.723,0,0,0,71.3,330.9a.512.512,0,1,0-.813.622Q71.728,333.146,72.853,334.8Z" transform="translate(-3236.538 -1802.32)" fill="#22475c"/>
    <path id="Path_21400" data-name="Path 21400" d="M100.393,325.383a64.131,64.131,0,0,1-.985,17.009.481.481,0,0,0,.943.184,65.141,65.141,0,0,0,1-17.257A.481.481,0,0,0,100.393,325.383Z" transform="translate(-3256.145 -1795.965)" fill="#22475c"/>
    <path id="Path_21401" data-name="Path 21401" d="M114.8,359.721,112.24,376.5c-.093.611.85.8.943.184l2.563-16.782C115.84,359.294,114.9,359.109,114.8,359.721Z" transform="translate(-3264.817 -1819.245)" fill="#22475c"/>
    <path id="Path_21402" data-name="Path 21402" d="M125.214,384.318a148.427,148.427,0,0,0-4.833,18.37.481.481,0,0,0,.943.184,148.443,148.443,0,0,1,4.833-18.369C126.353,383.916,125.407,383.739,125.214,384.318Z" transform="translate(-3270.315 -1835.878)" fill="#22475c"/>
    <path id="Path_21403" data-name="Path 21403" d="M71.361,386.726c-2.361-2.573-5.644-3.79-8.9-4.812-3.919-1.232-7.562-2.5-10.614-5.367-.451-.423-1.074.308-.623.732a23.551,23.551,0,0,0,9.459,5.083c3.622,1.139,7.4,2.205,10.053,5.1C71.155,387.911,71.775,387.177,71.361,386.726Z" transform="translate(-3223.493 -1830.781)" fill="#22475c"/>
    <path id="Path_21404" data-name="Path 21404" d="M77.57,415.933a35.616,35.616,0,0,0-9.073-3.9c-3.53-1.078-7.082-2.084-10.624-3.122-.595-.174-.773.771-.184.943,3.408,1,6.824,1.975,10.224,3a35.756,35.756,0,0,1,9.241,3.944C77.671,417.134,78.083,416.265,77.57,415.933Z" transform="translate(-3227.72 -1852.719)" fill="#22475c"/>
    <path id="Path_21405" data-name="Path 21405" d="M80,438.527a25.457,25.457,0,0,0-10.1-2.756c-3.561-.369-7.2-.725-10.279-2.712-.519-.335-.931.535-.417.866,2.89,1.863,6.292,2.351,9.646,2.7,3.774.393,7.367.888,10.731,2.767C80.127,439.694,80.541,438.827,80,438.527Z" transform="translate(-3228.833 -1868.997)" fill="#22475c"/>
    <path id="Path_21406" data-name="Path 21406" d="M196.576,405.675c.983,1,2.022,1.949,3.005,2.95.929.942,1.68,2.015,2.527,3.011l.007.009h.572c-.037-.081-.073-.163-.113-.242.015-.173.039-.321.046-.491a.057.057,0,0,0-.005-.026,14.374,14.374,0,0,0-3.4-9.913c-3.015-3.754-7.769-7.463-6.7-12.887a.23.23,0,0,0-.4-.185.1.1,0,0,0-.11.018.016.016,0,0,0-.011.008,7.8,7.8,0,0,0-1.057,1.948c0,.006,0,.01-.005.011-1.193,3.159-.447,6.928,1.1,9.858A26.076,26.076,0,0,0,196.576,405.675Z" transform="translate(-3317.59 -1838.486)" fill="#0097a7"/>
    <path id="Path_21407" data-name="Path 21407" d="M252.206,344.724a115.585,115.585,0,0,0-13.11,8.642,61.937,61.937,0,0,0-8.689,8.544c-.2.116-.392.234-.587.357-.061.036-.126.074-.185.115-.115.066-.223.138-.336.208.065-.177.119-.355.174-.533a.293.293,0,0,0,.24.008.188.188,0,0,0,.109-.231c-.008-.048-.022-.1-.031-.147v0c-.036-.159-.072-.308-.116-.464a10.515,10.515,0,0,0,.175-1.37,5.864,5.864,0,0,0,.023-.64.07.07,0,0,0,0-.041c.036-3.037-1.055-6.144-2.193-8.968-2.311-5.7-4.279-11.641-3.85-17.88a.338.338,0,0,0-.342-.37h0a.212.212,0,0,0-.114.033.364.364,0,0,0-.1.079A15.174,15.174,0,0,0,219.9,345.23a21.16,21.16,0,0,0,3.7,7.546c1.99,2.741,4.6,5.177,5.571,8.5.056.2.107.4.155.607.006.017.016.031.021.044-.062.26-.137.52-.218.778l-.271.17a.221.221,0,0,0,.072.4,10.244,10.244,0,0,1-.474,1.054c-.012.018.02.029.028.013a.074.074,0,0,1,.014-.024.043.043,0,0,0,.071.016c.141-.145.28-.285.424-.422,0,0,0-.006.007-.007l.008-.017c.368-.373.732-.755,1.093-1.135.095-.1.189-.191.283-.29.549-.334,1.105-.651,1.666-.966l0,0c3.4-1.907,6.959-3.537,10.129-5.823a22.761,22.761,0,0,0,4.83-4.684,40.293,40.293,0,0,1,4.227-4.735l0-.005q.595-.576,1.231-1.139a.231.231,0,0,0,.074-.264l0,0A.225.225,0,0,0,252.206,344.724ZM229.381,363.15c0,.005,0,.005-.006.007l0,.005,0,.006a.695.695,0,0,1-.005.011c-.275.348-.55.7-.819,1.047a9.557,9.557,0,0,0,.484-.95.213.213,0,0,0,.1-.036c.1-.066.2-.131.305-.192a.771.771,0,0,1,.082-.054A.909.909,0,0,1,229.381,363.15Z" transform="translate(-3337.315 -1800.737)" fill="#0097a7"/>
    <path id="Path_21408" data-name="Path 21408" d="M269.145,290.621c-.072.069-.144.137-.212.2a25.023,25.023,0,0,0-5.423,6.618,20.675,20.675,0,0,0-2.3,8.513c-.146,3.255.6,6.484.882,9.715a28.686,28.686,0,0,1-.071,6.013l0,0a24.943,24.943,0,0,1-.433,2.479c.666-1.348,1.339-2.7,2-4.053l.005-.011a71.839,71.839,0,0,0,4.707-11.7,41.721,41.721,0,0,0,1.056-16.894l0,0c-.037-.339-.083-.675-.134-1.014A.226.226,0,0,1,269.145,290.621Z" transform="translate(-3365.454 -1772.727)" fill="#0097a7"/>
    <path id="Path_21409" data-name="Path 21409" d="M280.358,337.692a57.492,57.492,0,0,0-18.883,18.4.116.116,0,0,0-.035.018h0c-.4.177-.805.359-1.213.538a.33.33,0,0,0-.1.069.315.315,0,0,0-.091.243l0,0a.29.29,0,0,0,.407.272c.232-.1.463-.2.694-.308,3.809-1.7,7.551-3.58,10.385-6.735a129.958,129.958,0,0,0,8.806-11.625c0-.006.006-.007.009-.013.118-.169.241-.34.359-.509a.205.205,0,0,0,.019-.035A.248.248,0,0,0,280.358,337.692Z" transform="translate(-3364.674 -1804.589)" fill="#0097a7"/>
    <path id="Path_21410" data-name="Path 21410" d="M213.561,379.508c-2.221-4.982-6.679-8.768-6.843-14.541,0-.185-.211-.2-.306-.086a.212.212,0,0,0-.051.075,19.285,19.285,0,0,0-.564,2.276,15.979,15.979,0,0,0-.276,2.113,14.319,14.319,0,0,0,2.155,8.69c2.5,4.052,6.2,7.306,8.007,11.754a4.422,4.422,0,0,1-.068,1.182,0,0,0,0,1,0,.006,0,0,0,0,1,0,.005,2.424,2.424,0,0,1-.367.916c-.106.165.121.364.241.2a2.986,2.986,0,0,0,.545-1.363l.026.069a.265.265,0,0,0,.024.052.2.2,0,0,0,.1.081.248.248,0,0,0,.331-.3c-.083-.248-.168-.491-.26-.726-.059-.159-.126-.316-.187-.469-.078-.886-.3-1.787-.437-2.583A30.389,30.389,0,0,0,213.561,379.508Z" transform="translate(-3327.82 -1822.938)" fill="#0097a7"/>
    <path id="Path_21411" data-name="Path 21411" d="M257.246,405.431a.1.1,0,0,0-.064.014,141.47,141.47,0,0,0-14.512,7.991,69.963,69.963,0,0,0-8.713,6.1c-.021.017-.042.039-.063.056,0,0,0,0-.006.007a0,0,0,0,0,0,.006c-.406.345-.8.7-1.179,1.078-.041.015-.081.03-.125.051-.257.411-.513.808-.768,1.2a7.529,7.529,0,0,1,.835-.453.812.812,0,0,1,.095-.044c.246-.115.5-.222.755-.317l.241-.09a.256.256,0,0,1,.054-.016c1.748-.62,3.688-.935,5.34-1.5a25.386,25.386,0,0,0,6.732-3.323c3.614-2.6,6.284-6.25,9.693-9.08a.062.062,0,0,1,.021-.017,21.709,21.709,0,0,1,1.768-1.333A.183.183,0,0,0,257.246,405.431Z" transform="translate(-3345.607 -1850.382)" fill="#0097a7"/>
    <path id="Path_21412" data-name="Path 21412" d="M227.828,379.655c.294-.435.589-.877.887-1.332.089-.135.174-.269.262-.408.081-.118.16-.245.24-.368.019-.035.045-.068.067-.108l0,0c.068-.1.137-.209.2-.317.287-.454.574-.919.87-1.4v0a0,0,0,0,1,0-.006c0-.006,0-.006.006-.007.019-.035.043-.071.067-.108,1.081-1.781,2.209-3.764,3.327-5.934,0,0,0-.005.007-.007l.008-.017c.119-.23.238-.46.354-.7a2.851,2.851,0,0,1,.005-.011l0-.006,0-.006s0,0,.007-.007c.016-.033.035-.068.051-.1.132-.258.26-.514.389-.78a94.258,94.258,0,0,0,3.957-9.186c.06-.152.115-.3.17-.458l0,0c.018-.063.043-.123.066-.187s.04-.117.062-.172h0c.478-1.343.938-2.721,1.365-4.138l.005-.011a82.714,82.714,0,0,0,2.825-12.815.512.512,0,1,0-1.014-.138q-.275,2.028-.654,3.992a.016.016,0,0,0,0,.014,83.857,83.857,0,0,1-2.731,10.529l0,0q-.535,1.62-1.114,3.172c-.026.079-.061.162-.091.243l0,0c-.871,2.325-1.805,4.529-2.763,6.594l-.064.14-.369.782c-.106.216-.208.43-.307.639-1.139,2.34-2.3,4.495-3.434,6.438-.039.07-.082.142-.123.208l-.094.16c-.139.237-.276.469-.412.692a770771673.485,770771673.485,0,0,1-.005.011q-.636,1.065-1.248,2.033c-.258.407-.511.8-.767,1.19s-.5.766-.751,1.133c-.14.21-.281.42-.42.62-.03.044-.056.086-.087.13l-.006.009Z" transform="translate(-3342.082 -1806.497)" fill="#22475c"/>
    <path id="Path_21413" data-name="Path 21413" d="M274.4,359.22a64.14,64.14,0,0,1-12.756,11.294.481.481,0,0,0,.535.8,65.131,65.131,0,0,0,12.944-11.458A.481.481,0,0,0,274.4,359.22Z" transform="translate(-3365.622 -1819.05)" fill="#22475c"/>
    <path id="Path_21414" data-name="Path 21414" d="M260.736,395.945l-13.708,10.015c-.5.365.034,1.164.535.8l13.708-10.015C261.77,396.38,261.236,395.58,260.736,395.945Z" transform="translate(-3355.753 -1843.911)" fill="#22475c"/>
    <path id="Path_21415" data-name="Path 21415" d="M248.307,424.076a148.366,148.366,0,0,0-16.434,9.525.481.481,0,0,0,.535.8,148.4,148.4,0,0,1,16.434-9.525C249.4,424.6,248.854,423.8,248.307,424.076Z" transform="translate(-3345.507 -1862.942)" fill="#22475c"/>
    <path id="Path_21416" data-name="Path 21416" d="M235.666,380.471c.16-3.488-1.292-6.674-2.861-9.7-1.89-3.648-3.559-7.125-3.678-11.311-.018-.619-.976-.544-.958.074a23.549,23.549,0,0,0,3.064,10.292c1.747,3.372,3.653,6.8,3.474,10.722C234.68,381.161,235.639,381.083,235.666,380.471Z" transform="translate(-3343.146 -1819.032)" fill="#22475c"/>
    <path id="Path_21417" data-name="Path 21417" d="M219.347,405.387a35.615,35.615,0,0,0-3.631-9.184c-1.724-3.264-3.516-6.492-5.277-9.735-.3-.544-1.092,0-.8.535,1.695,3.121,3.411,6.231,5.081,9.366a35.753,35.753,0,0,1,3.718,9.334C218.567,406.306,219.474,405.985,219.347,405.387Z" transform="translate(-3330.584 -1837.417)" fill="#22475c"/>
    <path id="Path_21418" data-name="Path 21418" d="M198.485,413.832c2.27,2.815,4.356,5.58,5.448,9.045h1a25.733,25.733,0,0,0-5.105-8.9c-2.249-2.786-4.56-5.614-5.324-9.2-.129-.6-1.035-.283-.908.314C194.316,408.451,196.368,411.207,198.485,413.832Z" transform="translate(-3319.781 -1849.719)" fill="#22475c"/>
    <path id="Path_21419" data-name="Path 21419" d="M61.116,234.792H94.923c2.58,0,4.121-2.092,3.44-4.673l-25.7-97.414a6.5,6.5,0,0,0-5.905-4.673H32.954c-2.58,0-4.121,2.092-3.44,4.673l25.7,97.414A6.5,6.5,0,0,0,61.116,234.792Z" transform="translate(-3208.821 -1662.966)" fill="#3b474e"/>
    <path id="Path_21420" data-name="Path 21420" d="M64.246,230.875H96.7c2.58,0,4.121-2.092,3.44-4.672l-24.664-93.5a6.5,6.5,0,0,0-5.905-4.673H37.118c-2.581,0-4.121,2.092-3.44,4.673l24.664,93.5A6.5,6.5,0,0,0,64.246,230.875Z" transform="translate(-3211.634 -1662.966)" fill="#667a84"/>
    <path id="Path_21421" data-name="Path 21421" d="M42.844,133.714h33.5a3.717,3.717,0,0,1,3.376,2.672L105.5,234.117a1.989,1.989,0,0,1-1.967,2.671h-33.5a3.717,3.717,0,0,1-3.376-2.671L40.877,136.386A1.989,1.989,0,0,1,42.844,133.714Z" transform="translate(-3216.545 -1666.804)" fill="#eaedef"/>
    <path id="Path_21422" data-name="Path 21422" d="M106.243,136.511c-1.308.024-.332,2.8.976,2.777S107.551,136.487,106.243,136.511Z" transform="translate(-3260.351 -1668.693)" fill="#3b474e"/>
    <text id="C_O_D" data-name="C O D" transform="translate(-3158.557 -1524.512) rotate(-17.403)" fill="#00cfa1" font-size="3" font-family="Montserrat-SemiBold, Montserrat" font-weight="600"><tspan x="0" y="0">C O D</tspan></text>
    <path id="Path_21423" data-name="Path 21423" d="M351.194,249.49l-2.271,6.134-8.616-1.722-.4,1.512-.121.464,9.2,4a2.513,2.513,0,0,0,3.482-2.719Z" transform="translate(-3418.56 -1742.596)" fill="#ffc9b9"/>
    <path id="Path_21424" data-name="Path 21424" d="M352.476,257.163l-1.283-7.673-1.1,2.978a12.542,12.542,0,0,1,.628,6.076c.2-.03.4-.065.609-.112-.2.047-.407.083-.609.112-.013.071-.025.141-.04.212.015-.071.027-.141.04-.212-3.85.564-7.217-1.856-10.808-3.13h0l-.121.464,9.2,4A2.513,2.513,0,0,0,352.476,257.163Z" transform="translate(-3418.56 -1742.596)" fill="#fda98f"/>
    <path id="Path_21425" data-name="Path 21425" d="M326.95,257.757l-1.668,1.056,1.668,2.171,1.375.62,1.664-.142.517-1.975Z" transform="translate(-3408.757 -1748.181)" fill="#fda98f"/>
    <path id="Path_21426" data-name="Path 21426" d="M330.664,259.528l-.975-.432a2.842,2.842,0,0,1-1.353-1.572l-.189-.54-1.883-.873a.278.278,0,0,1-.151-.324h0a.278.278,0,0,1,.348-.195l2.495.341a2,2,0,0,1,1.456.973l.648,1.111Z" transform="translate(-3409.313 -1746.71)" fill="#ffc9b9"/>
    <path id="Path_21427" data-name="Path 21427" d="M352.4,168.168a5.2,5.2,0,0,0,3.362,5.2c1.049.368,2.309.446,3,1.316.65.818.51,1.983.444,3.026s.094,2.292,1.02,2.777c1.17.613,2.605-.471,3.888-.154,1.266.313,1.815,1.82,1.876,3.123s-.14,2.689.46,3.847a4.013,4.013,0,0,0,3.109,1.951,9.709,9.709,0,0,0,3.766-.458,13.335,13.335,0,0,0,4.26-1.85,5.988,5.988,0,0,0,2.534-3.777,3.9,3.9,0,0,0-1.776-4c-.8-.438-1.835-.584-2.328-1.349-.523-.811-.156-1.876.2-2.771s.68-1.991.1-2.758c-1.062-1.394-3.769-.122-4.83-1.517a3.483,3.483,0,0,1-.424-1.961,8.341,8.341,0,0,0-11.981-7.056c-1.006.47-1.686,1.3-2.613,1.835a10.263,10.263,0,0,0-2.54,1.423A5.1,5.1,0,0,0,352.4,168.168Z" transform="translate(-3427.067 -1682.761)" fill="#bf360c"/>
    <path id="Path_21428" data-name="Path 21428" d="M378.345,180.121c-.8-.438-1.835-.584-2.328-1.349-.523-.811-.156-1.876.2-2.771s.68-1.991.1-2.758c-1.062-1.394-3.769-.122-4.83-1.517a3.483,3.483,0,0,1-.424-1.961,8.6,8.6,0,0,0-5.567-7.424,9.641,9.641,0,0,1,4.129,5.8,9.789,9.789,0,0,1,.213,2.445c-.026,1.151-.753,2.6.721,3.139,1.037.378,2.168.24,2.964,1.176a1.872,1.872,0,0,1,.253,1.866,2.74,2.74,0,0,0-.092,1.85,5.2,5.2,0,0,0,1.118,1.69,2.476,2.476,0,0,1,.838,1.559,2.508,2.508,0,0,1-.73,1.705,5.566,5.566,0,0,1-3.184,1.416,3.464,3.464,0,0,1-2.918-.678,6.545,6.545,0,0,1-1.527-2.632,3.467,3.467,0,0,0-.825-1.435,3.093,3.093,0,0,0-1.339-.633c-1.135-.284-2.452-.155-3.507-.692a2.377,2.377,0,0,1-1.066-2.451c.042-.919.256-2.041-.575-2.686a3.75,3.75,0,0,0-1.539-.595c-.558-.121-1.115-.254-1.658-.43a5.957,5.957,0,0,1-3.071-2,4.609,4.609,0,0,1-.791-3.12c.008-.111.02-.223.034-.336a4.832,4.832,0,0,0-.543,1.819,5.2,5.2,0,0,0,3.362,5.2c1.049.368,2.309.446,3,1.316.651.818.51,1.983.444,3.026s.094,2.292,1.02,2.777c1.17.613,2.605-.471,3.888-.154,1.266.313,1.815,1.82,1.876,3.123s-.14,2.689.459,3.847a4.014,4.014,0,0,0,3.11,1.951,9.708,9.708,0,0,0,3.766-.458,13.335,13.335,0,0,0,4.26-1.85,5.988,5.988,0,0,0,2.534-3.777A3.9,3.9,0,0,0,378.345,180.121Z" transform="translate(-3427.067 -1683.717)" fill="#92360c"/>
    <path id="Path_21429" data-name="Path 21429" d="M408.429,434.016l-2.226.435-.9-6.355,3.779-.553Z" transform="translate(-3462.818 -1862.893)" fill="#ffc9b9"/>
    <path id="Path_21430" data-name="Path 21430" d="M384.07,301.437l9.61-.484.689,7.687L393.16,322.4l2.145,4.542-.57,15.074-3.779.553-2.9-17.361Z" transform="translate(-3448.476 -1777.365)" fill="#263238"/>
    <path id="Path_21431" data-name="Path 21431" d="M395.123,444.88l1.078,3.268-10.892.162.1-.724,6.81-3.089.919.718Z" transform="translate(-3449.313 -1874.347)" fill="#666"/>
    <path id="Path_21432" data-name="Path 21432" d="M425.565,433.126l-2.367.463-1.07-6.755,3.921-.341Z" transform="translate(-3474.189 -1862.183)" fill="#ffc9b9"/>
    <path id="Path_21433" data-name="Path 21433" d="M410.789,301.416q-4.5.362-8.968,1.01l3.532,21.647,3.055,18.251,3.921-.341L412.814,331a14.359,14.359,0,0,0-2.761-9.191h0l2.379-7.9c.478-.811,1.309-5.728.768-10.5A2.245,2.245,0,0,0,410.789,301.416Z" transform="translate(-3460.469 -1777.673)" fill="#37474f"/>
    <path id="Path_21434" data-name="Path 21434" d="M411.645,444.162l1.146,3.475-11.579.172.105-.77,7.24-3.284.977.763Z" transform="translate(-3460.057 -1873.846)" fill="#888"/>
    <path id="Path_21435" data-name="Path 21435" d="M423.36,351.027l-2.684,7.306c-.148.4.479.518.625.119l2.684-7.306C424.134,350.744,423.507,350.628,423.36,351.027Z" transform="translate(-3473.192 -1811.03)" fill="#263238"/>
    <path id="Path_21436" data-name="Path 21436" d="M425.329,368.156a.36.36,0,0,0-.423.214l-.931,1.964a.3.3,0,0,0,.182.406.361.361,0,0,0,.423-.214l.931-1.964A.3.3,0,0,0,425.329,368.156Z" transform="translate(-3475.419 -1822.761)" fill="#263238"/>
    <path id="Path_21437" data-name="Path 21437" d="M401.255,308.34a17.743,17.743,0,0,1-14.435,3.2c-.4-.089-.6.529-.193.62a18.443,18.443,0,0,0,15.061-3.335C402.021,308.569,401.585,308.088,401.255,308.34Z" transform="translate(-3450.051 -1782.308)" fill="#cfd8dc"/>
    <path id="Path_21438" data-name="Path 21438" d="M390.8,255.767a4.79,4.79,0,0,0-1.314-2.006.333.333,0,0,0-.458-.025.328.328,0,0,0-.025.458,4.562,4.562,0,0,1,.386.39c.06.069.118.139.174.212q.042.054.082.11l.035.05,0,0,.009.015a4.609,4.609,0,0,1,.269.461c.041.081.08.164.116.249.018.042.035.085.052.127l.022.057.008.019.006.017a.333.333,0,0,0,.386.248A.328.328,0,0,0,390.8,255.767Z" transform="translate(-3451.753 -1745.41)" fill="#cfd8dc"/>
    <path id="Path_21439" data-name="Path 21439" d="M374.213,212.16c1.061.277,4.241-2.382,5.357-2.354s4.048-.146,4.891,2.6c.715,2.331-.637,5.23-1.359,7.608a18.712,18.712,0,0,0-.96,3.794,8.4,8.4,0,0,0,1.66,5.439c1.094,1.558,5.9,6.048,7.642,12.346-3.872,4.524-12.036,5.877-17.431,4.33-.331-4.266-2.641-16.275-2.726-20.633a.752.752,0,0,0-.266-.582,4.985,4.985,0,0,1-1.695-4.94C370.083,216.847,371.379,215.288,374.213,212.16Z" transform="translate(-3438.419 -1715.784)" fill="#fff"/>
    <path id="Path_21440" data-name="Path 21440" d="M371.845,243.273a.752.752,0,0,1,.266.582,42.906,42.906,0,0,0,.564,5.376c.431.122.875.23,1.325.328.652-.3,1.3-.626,1.922-.961a18.046,18.046,0,0,0,3.408-2.357,15.169,15.169,0,0,0,2.669-3.2c.372-.572.739-1.147,1.127-1.707.2-.926.522-1.839.8-2.754l.012-.039a.985.985,0,0,0-1.614-1A14.387,14.387,0,0,1,370.4,241.3,5.7,5.7,0,0,0,371.845,243.273Z" transform="translate(-3439.243 -1734.344)" fill="#cfd8dc" opacity="0.63"/>
    <path id="Path_21441" data-name="Path 21441" d="M390.047,214.7a3.107,3.107,0,0,1-4.4,1.556.162.162,0,0,0-.153.286,3.431,3.431,0,0,0,4.835-1.689C390.413,214.658,390.128,214.5,390.047,214.7Z" transform="translate(-3449.385 -1719.029)" fill="#cfd8dc"/>
    <rect id="Rectangle_7195" data-name="Rectangle 7195" width="8.297" height="4.441" transform="translate(-3082.052 -1501.523) rotate(62.743)" fill="#7cb342"/>
    <rect id="Rectangle_7196" data-name="Rectangle 7196" width="7.093" height="3.555" transform="translate(-3082.17 -1500.785) rotate(62.743)" fill="none" stroke="#f2e0be" stroke-miterlimit="10" stroke-width="1"/>
    <path id="Path_21442" data-name="Path 21442" d="M326.2,236.079h0a1.1,1.1,0,0,1,.475-1.485h0a1.1,1.1,0,0,1,1.485.475h0a1.1,1.1,0,0,1-.475,1.485h0A1.1,1.1,0,0,1,326.2,236.079Z" transform="translate(-3409.295 -1732.448)" fill="#f2e0be"/>
    <g id="Group_18930" data-name="Group 18930" transform="translate(-3080.288 -1496.381)">
      <path id="Path_21443" data-name="Path 21443" d="M337.639,240.148l-.069-.032-1.427-.671a.561.561,0,0,0-.785.383c-.071.316-.163.632-.175.722a7.438,7.438,0,0,0,.117,2.729c.115.485.223,1.131.734,1.353.082.035,1.035.424,1.028.447l.167-.586.42-1.473Z" transform="translate(-335.109 -239.392)" fill="#ffc9b9"/>
    </g>
    <path id="Path_21444" data-name="Path 21444" d="M348.365,250.46l-6.962-1.145-.271,2.469,11.934,3.975.373-2.528.279-1.891Z" transform="translate(-3419.466 -1742.478)" fill="#ffc9b9"/>
    <path id="Path_21445" data-name="Path 21445" d="M353.836,251.34l-5.353-.88-6.962-1.145-.214,1.953c3.947,1.165,7.9,3,12.072,3.166l.177-1.2Z" transform="translate(-3419.584 -1742.478)" fill="#ffc9b9"/>
    <path id="Path_21446" data-name="Path 21446" d="M379.758,242.548c2.786-2.766,5.55-5.282,7.729-8.67-.986-.613-1.812-1.544-2.8-2.154l-5.707,7.732-.457,3.094C378.933,242.566,379.345,242.564,379.758,242.548Z" transform="translate(-3444.729 -1730.593)" fill="#ffc9b9"/>
    <path id="Path_21447" data-name="Path 21447" d="M359.775,230.26l-.351.475c.987.61,1.814,1.541,2.8,2.154-2.179,3.388-4.943,5.9-7.729,8.67-.413.016-.825.018-1.234,0-4.172-.17-7.594-1.328-11.542-2.493l-.587-.157,11.934,3.975c3.892,1.3,10.453-10.1,10.453-10.1Z" transform="translate(-3419.466 -1729.604)" fill="#fda98f"/>
    <path id="Path_21448" data-name="Path 21448" d="M401.788,231.9l-3.9-2.589a.327.327,0,0,0-.439.134.331.331,0,0,0,.134.439l3.9,2.589a.327.327,0,0,0,.439-.133A.332.332,0,0,0,401.788,231.9Z" transform="translate(-3457.488 -1728.931)" fill="#cfd8dc"/>
    <path id="Path_21449" data-name="Path 21449" d="M368.04,178.625c1.84.907,4.406,2.341,6.356,1.04a2.494,2.494,0,0,0,.785-.821.979.979,0,0,1,.673.192,1.826,1.826,0,0,1,.632,2.017,1.747,1.747,0,0,1-1.653,1.118,26.02,26.02,0,0,0,1.413,5.985,2.723,2.723,0,0,1-1.535,2.185,1.96,1.96,0,0,1-2.029.075,26.02,26.02,0,0,0-.82-3.625,7.349,7.349,0,0,1-3.087.946c-.282-.008-3.268-4.588-3.3-10.9A10.1,10.1,0,0,0,368.04,178.625Z" transform="translate(-3435.912 -1693.508)" fill="#ffc9b9"/>
    <path id="Path_21450" data-name="Path 21450" d="M380.215,206.62a6.57,6.57,0,0,0,1.605-.678,22.085,22.085,0,0,1,.739,3.179l-.087-3.941Z" transform="translate(-3445.871 -1712.659)" fill="#fda98f"/>
    <path id="Path_21451" data-name="Path 21451" d="M392.642,185.137a1.9,1.9,0,0,1,.761-.575c.158-.066.24.212.085.281a1.66,1.66,0,0,0-.659.533,1.82,1.82,0,0,0-.213.37.687.687,0,0,1-.165.3.1.1,0,0,1-.155-.062C392.22,185.7,392.484,185.337,392.642,185.137Z" transform="translate(-3454.024 -1698.722)" fill="#fda98f"/>
    <path id="Path_21452" data-name="Path 21452" d="M377.968,187.472a.8.8,0,0,1-.026-.37.247.247,0,0,1,.4-.122.8.8,0,0,1,.181.324,1.7,1.7,0,0,1,.1.32.292.292,0,0,1-.56.169A1.7,1.7,0,0,1,377.968,187.472Z" transform="translate(-3444.326 -1700.32)" fill="#472c1f"/>
    <path id="Path_21453" data-name="Path 21453" d="M368.345,188.645a.8.8,0,0,1-.014-.371.246.246,0,0,1,.407-.108.794.794,0,0,1,.171.329,1.722,1.722,0,0,1,.085.324.292.292,0,0,1-.565.15A1.7,1.7,0,0,1,368.345,188.645Z" transform="translate(-3437.831 -1701.117)" fill="#472c1f"/>
    <path id="Path_21454" data-name="Path 21454" d="M375.562,199.571a8.1,8.1,0,0,0,2.169-1.161,3.907,3.907,0,0,1-2.033,1.321A1.652,1.652,0,0,0,375.562,199.571Z" transform="translate(-3442.728 -1708.085)" fill="#fff"/>
    <path id="Path_21455" data-name="Path 21455" d="M378.016,198.256c.033-.025.067-.049.1-.074a2.349,2.349,0,0,1-.014.465,1.826,1.826,0,0,1-.4.957,1.964,1.964,0,0,1-1.3.68c-.085-.155-.168-.315-.26-.468a2.751,2.751,0,0,0-.161-.239A3.907,3.907,0,0,0,378.016,198.256Z" transform="translate(-3443.012 -1707.931)" fill="#b51c1c"/>
    <path id="Path_21456" data-name="Path 21456" d="M374.71,181.142a3.261,3.261,0,0,1,2.367.209c.179.088.035.361-.144.273a2.926,2.926,0,0,0-2.127-.188C374.614,181.491,374.519,181.2,374.71,181.142Z" transform="translate(-3442.082 -1696.329)" fill="#bf360c"/>
    <path id="Path_21457" data-name="Path 21457" d="M366.461,183.412a1.307,1.307,0,0,1,.75-.656.155.155,0,0,1,.1.294.993.993,0,0,0-.572.506C366.646,183.734,366.372,183.59,366.461,183.412Z" transform="translate(-3436.567 -1697.502)" fill="#bf360c"/>
    <path id="Path_21458" data-name="Path 21458" d="M371.452,195.682a1.542,1.542,0,0,0-.615-.115c-.117-.016-.287-.062-.336-.181-.032-.077.015-.167.044-.239.043-.108.087-.215.129-.323a6.281,6.281,0,0,0,.237-.654.139.139,0,0,0-.254-.1,6.9,6.9,0,0,0-.328.725c-.093.223-.24.474-.137.718a.674.674,0,0,0,.465.357,1.955,1.955,0,0,0,.348.043,2.008,2.008,0,0,1,.331.061A.158.158,0,0,0,371.452,195.682Z" transform="translate(-3439.075 -1705.105)" fill="#472c1f"/>
    <path id="Path_21459" data-name="Path 21459" d="M333.719,237.53a11.113,11.113,0,0,0-3.765-1.628.325.325,0,0,0-.148.632,10.624,10.624,0,0,1,3.608,1.569.327.327,0,0,0,.439-.134A.332.332,0,0,0,333.719,237.53Z" transform="translate(-3411.651 -1733.409)" fill="#ffc9b9"/>
    <path id="Path_21460" data-name="Path 21460" d="M332.037,239.627a4.086,4.086,0,0,0-2.205-1.009.332.332,0,0,0-.39.242.328.328,0,0,0,.242.39,3.783,3.783,0,0,1,.538.1,2.793,2.793,0,0,1,.485.173,3.346,3.346,0,0,1,.89.576.324.324,0,0,0,.441-.476Z" transform="translate(-3411.564 -1735.248)" fill="#ffc9b9"/>
    <path id="Path_21461" data-name="Path 21461" d="M331.933,242.357a4.253,4.253,0,0,0-1.906-1.045.324.324,0,1,0-.148.632c.081.02.161.042.241.067l.112.037.055.02h0a4.866,4.866,0,0,1,.453.212q.1.056.2.119l.1.065.051.035.014.01a4.166,4.166,0,0,1,.382.322.324.324,0,1,0,.441-.476Z" transform="translate(-3411.695 -1737.064)" fill="#ffc9b9"/>
    <path id="Path_21462" data-name="Path 21462" d="M332.267,246.014a4.726,4.726,0,0,0-2.033-1.435.325.325,0,0,0-.39.242.335.335,0,0,0,.242.39l.015.005,0,0,.055.022.124.053c.082.036.163.076.242.117a4.594,4.594,0,0,1,.472.287h0l0,0,.06.044.106.083q.1.085.2.175t.192.188q.047.049.091.1l.04.045s.065.077.024.027a.333.333,0,0,0,.448.1A.328.328,0,0,0,332.267,246.014Z" transform="translate(-3411.835 -1739.269)" fill="#ffc9b9"/>
    <path id="Path_21463" data-name="Path 21463" d="M296.786,258.953l4.136.268,2.484-1.917h.682l-1.49-1.734-1.95-.329-3.862,2.675Z" transform="translate(-3389.505 -1746.481)" fill="#fda98f"/>
    <path id="Path_21464" data-name="Path 21464" d="M296.786,254.624l1.424-.326a3.876,3.876,0,0,0,2.336-1.593l.44-.645,2.788-.487a.38.38,0,0,0,.314-.374h0a.38.38,0,0,0-.39-.379l-3.406-.43a2.726,2.726,0,0,0-2.261.768l-1.246,1.235Z" transform="translate(-3389.505 -1743.189)" fill="#ffc9b9"/>
    <path id="Path_21465" data-name="Path 21465" d="M231.93,439.208h-4.2l-.026-1.523h4.261Z" transform="translate(-3342.83 -1869.745)" fill="#ffc9b9"/>
    <path id="Path_21466" data-name="Path 21466" d="M237.012,445.553l-7.18-3.174h-4.64l-.761,3.919h13Z" transform="translate(-3340.621 -1872.916)" fill="#ff1744"/>
    <path id="Path_21467" data-name="Path 21467" d="M224.182,454.461l-.12.619h13.471l-.349-.619Z" transform="translate(-3340.37 -1881.079)" fill="#fff"/>
    <path id="Path_21468" data-name="Path 21468" d="M178.119,314.589V297.651l2.238.859a2.666,2.666,0,0,1,1.54,3.426h0a2.316,2.316,0,0,0,.73,2.63l17.048,13.506a3.053,3.053,0,0,1,1.152,2.568l-1.29,22.434h-6.888l-.73-19.235Z" transform="translate(-3309.331 -1775.134)" fill="#263238"/>
    <path id="Path_21469" data-name="Path 21469" d="M150.079,300.953l.058,5.888,10.834,12.133a4.858,4.858,0,0,1,1.234,3.316h0a6.4,6.4,0,0,1-3.99,5.825l-16.955,6.889-2.332-7.4,14.277-5.485-7.663-3.133a15.834,15.834,0,0,1-9.842-14.657h0Z" transform="translate(-3280.671 -1777.365)" fill="#37474f"/>
    <path id="Path_21470" data-name="Path 21470" d="M187.464,362.776a17.7,17.7,0,0,1-6.969-2.024.325.325,0,0,0-.3.578,18.471,18.471,0,0,0,7.3,2.094C187.916,363.455,187.876,362.807,187.464,362.776Z" transform="translate(-3310.622 -1817.74)" fill="#263238"/>
    <path id="Path_21471" data-name="Path 21471" d="M191.324,368.173l-1.626-1a.324.324,0,0,0-.344.55l1.626,1a.324.324,0,1,0,.344-.55Z" transform="translate(-3316.82 -1822.075)" fill="#263238"/>
    <path id="Path_21472" data-name="Path 21472" d="M214.028,239.256c.868-1.484,1.743-2.885,3.233-1.98a40.478,40.478,0,0,0,7.206,3.4l-2.724,5.952c-2.733-.725-5.911-1.142-8.4-2.65C211.862,243.082,213.14,240.772,214.028,239.256Z" transform="translate(-3332.672 -1734.15)" fill="#ff1744"/>
    <path id="Path_21473" data-name="Path 21473" d="M246.237,250.841l-2.906-1.351a15.267,15.267,0,0,1-2.925,5.3l5.539,1.729,12.749-1.455V251.8Z" transform="translate(-3351.413 -1742.596)" fill="#ffc9b9"/>
    <path id="Path_21474" data-name="Path 21474" d="M249.021,255.7l13.289-1.269v-2.358l-12.458-.959-2.624-1.22a9.02,9.02,0,0,1-1.471,4.618Z" transform="translate(-3355.029 -1742.87)" fill="#ffc9b9"/>
    <path id="Path_21475" data-name="Path 21475" d="M245.488,255.194l-3.264-1.187a9.02,9.02,0,0,0,1.471-4.618l-.4-.188-.128-.055a11.886,11.886,0,0,1-2.635,5.428l5.5,1.717,12.749-1.455v-.911Z" transform="translate(-3351.496 -1742.363)" fill="#fda98f"/>
    <path id="Path_21476" data-name="Path 21476" d="M242.586,247.97a19.419,19.419,0,0,1-2.71,5.57c-.24.342.306.692.546.35a20,20,0,0,0,2.783-5.728A.325.325,0,0,0,242.586,247.97Z" transform="translate(-3351.015 -1741.42)" fill="#d50000"/>
    <path id="Path_21477" data-name="Path 21477" d="M151.74,245.313a16.552,16.552,0,0,1,1.082-3.771,43.249,43.249,0,0,1,8.306-13.5,26.9,26.9,0,0,1,3.814-3.394,32.217,32.217,0,0,0-15.413-8.364,4.972,4.972,0,0,0-5.7,3.13l-4.415,5.46a28.983,28.983,0,0,0-4.859,27.681h0c7.448-5.067,15.47-5.734,17.18-5.152A6.711,6.711,0,0,1,151.74,245.313Z" transform="translate(-3278.825 -1720.082)" fill="#ff1744"/>
    <path id="Path_21478" data-name="Path 21478" d="M144.769,246.2a25.525,25.525,0,0,0-7.76,2.076c-2.23-10.034,3.2-19.109,9.511-26.61a1.1,1.1,0,0,0-1.616-1.5,4.971,4.971,0,0,0-1.075,1.712l-4.415,5.46a28.983,28.983,0,0,0-4.859,27.681h0c.661-.45,1.328-.864,1.993-1.247a7.459,7.459,0,0,1,.785-2.254c1.391-3.013,4.6-3.542,7.624-4.308A.516.516,0,0,0,144.769,246.2Z" transform="translate(-3278.825 -1722.555)" fill="#d31744"/>
    <path id="Path_21479" data-name="Path 21479" d="M174.434,305.559a14,14,0,0,0-5.924,1c-.387.155-.074.724.31.57a13.241,13.241,0,0,1,5.594-.921A.325.325,0,0,0,174.434,305.559Z" transform="translate(-3302.719 -1780.465)" fill="#d31744"/>
    <path id="Path_21480" data-name="Path 21480" d="M197.154,257.772a32.047,32.047,0,0,0-8.2,17.359c-.058.413.591.438.648.027a31.6,31.6,0,0,1,5.347-13.615,31.02,31.02,0,0,1,2.636-3.288C197.868,257.95,197.436,257.465,197.154,257.772Z" transform="translate(-3316.649 -1748.125)" fill="#d50000"/>
    <path id="Path_21481" data-name="Path 21481" d="M142.69,287.682s2.15.958,3.592,1.738c.449,1.613-.744,3.142-2.074,3.831A3.469,3.469,0,0,1,139.148,290Z" transform="translate(-3282.998 -1768.399)" fill="#ffc9b9"/>
    <path id="Path_21482" data-name="Path 21482" d="M161.711,297a6.2,6.2,0,0,0-3.085-4.433.6.6,0,0,0-.61,1.035,5.07,5.07,0,0,1,2.535,3.713C160.67,298.081,161.829,297.763,161.711,297Z" transform="translate(-3295.551 -1771.646)" fill="#ffc9b9"/>
    <path id="Path_21483" data-name="Path 21483" d="M157.489,299.83A6.2,6.2,0,0,0,154.4,295.4a.6.6,0,0,0-.611,1.035,5.069,5.069,0,0,1,2.535,3.713C156.448,300.907,157.607,300.588,157.489,299.83Z" transform="translate(-3292.698 -1773.555)" fill="#ffc9b9"/>
    <path id="Path_21484" data-name="Path 21484" d="M152.133,301.326a6.2,6.2,0,0,0-3.085-4.433.6.6,0,0,0-.61,1.035,5.069,5.069,0,0,1,2.535,3.713C151.091,302.4,152.251,302.084,152.133,301.326Z" transform="translate(-3289.08 -1774.566)" fill="#ffc9b9"/>
    <path id="Path_21485" data-name="Path 21485" d="M146.556,301.3a6.2,6.2,0,0,0-3.085-4.433.6.6,0,0,0-.61,1.035,5.07,5.07,0,0,1,2.535,3.713C145.514,302.38,146.674,302.061,146.556,301.3Z" transform="translate(-3285.312 -1774.55)" fill="#ffc9b9"/>
    <path id="Path_21486" data-name="Path 21486" d="M125.261,240.494l-4.383-12.556,12.579-4.479-2.643-5.621-16.258,5.351a1.761,1.761,0,0,0-1.039,2.432l8.2,17.188Z" transform="translate(-3265.568 -1721.212)" fill="#ffc9b9"/>
    <path id="Path_21487" data-name="Path 21487" d="M145.486,223.46l-2.643-5.621-4.548,1.5a14.228,14.228,0,0,0,.311,5.2,36.929,36.929,0,0,1-7.457,2.928,9.91,9.91,0,0,1,2.407,2.336l-.649-1.86Z" transform="translate(-3277.597 -1721.212)" fill="#fda98f"/>
    <path id="Path_21488" data-name="Path 21488" d="M119.121,230.581a36.927,36.927,0,0,0,7.457-2.928,14.228,14.228,0,0,1-.311-5.2l-11.71,3.854a1.761,1.761,0,0,0-1.039,2.432l8.2,17.188,3.543-2.315-3.734-10.7A9.911,9.911,0,0,0,119.121,230.581Z" transform="translate(-3265.568 -1724.33)" fill="#ffc9b9"/>
    <path id="Path_21489" data-name="Path 21489" d="M143.526,225.462A49.828,49.828,0,0,1,152.252,223a3.393,3.393,0,0,0,2.737-3.924c-.384-1.776,1-2.861-.876-3-4.742-.362-9.516,1.549-12.622,2.7A16.807,16.807,0,0,0,143.526,225.462Z" transform="translate(-3284.584 -1719.989)" fill="#ff1744"/>
    <path id="Path_21490" data-name="Path 21490" d="M141.126,224.228a16.1,16.1,0,0,0,2.13,6.526c.212.361.757.01.547-.35a15.339,15.339,0,0,1-2.029-6.21C141.732,223.78,141.083,223.811,141.126,224.228Z" transform="translate(-3284.336 -1725.306)" fill="#d50000"/>
    <path id="Path_21491" data-name="Path 21491" d="M201.372,182a3.108,3.108,0,0,0,1.752-3.106,4.409,4.409,0,0,0-2.04-3.084,8.68,8.68,0,0,0-3.747-1.27,9.378,9.378,0,0,0-3.373.121,2.218,2.218,0,0,0-1.416.832.871.871,0,0,0,.469,1.3,1.159,1.159,0,0,0-1.182.562.992.992,0,0,0,.267,1.2,1.356,1.356,0,0,0-1.322.706,1.169,1.169,0,0,0,.318,1.38,1.141,1.141,0,0,0-.655,1.36,3.876,3.876,0,0,0,.846,1.412,16,16,0,0,1,2.131,3.6,8.73,8.73,0,0,0,2.23-1.179" transform="translate(-3317.636 -1691.891)" fill="#3f2500"/>
    <path id="Path_21492" data-name="Path 21492" d="M203.767,188.336a6.8,6.8,0,0,0-2.115-.006c-.6.071-2.452.47-2.452.47a5.676,5.676,0,0,1-1.692,3.018.582.582,0,0,1-.337.174,1.951,1.951,0,0,1-.527-.177c-.233-.069-.46-.154-.686-.242-.71-.275-1.483-.661-2.178-.143a1.6,1.6,0,0,0-.4,1.949,2,2,0,0,0,1.781,1.023,13.206,13.206,0,0,1-.08,4.844,4.341,4.341,0,0,0,2.123,2.448,3.431,3.431,0,0,0,2.6-.141,18.662,18.662,0,0,1,.343-2.973,6.283,6.283,0,0,0,2.051.033,1.14,1.14,0,0,0,.69-.3,1.249,1.249,0,0,0,.228-.525A27.5,27.5,0,0,0,203.767,188.336Z" transform="translate(-3319.523 -1701.221)" fill="#ffc9b9"/>
    <path id="Path_21493" data-name="Path 21493" d="M212.091,221.838a18.662,18.662,0,0,1,.343-2.973,7.164,7.164,0,0,0,1.149.1,19.253,19.253,0,0,1-2.18-.694C211.521,219.577,211.9,221.937,212.091,221.838Z" transform="translate(-3331.817 -1721.505)" fill="#fda98f"/>
    <path id="Path_21494" data-name="Path 21494" d="M196.923,200.1a1.72,1.72,0,0,0-.754-.42c-.15-.04-.188.22-.041.262a1.5,1.5,0,0,1,.658.4,1.664,1.664,0,0,1,.238.305c.062.1.088.188.186.249a.091.091,0,0,0,.131-.075C197.372,200.556,197.089,200.261,196.923,200.1Z" transform="translate(-3321.435 -1708.941)" fill="#fda98f"/>
    <path id="Path_21495" data-name="Path 21495" d="M214.056,196.943a.723.723,0,0,0-.023-.335.223.223,0,0,0-.376-.058.718.718,0,0,0-.122.313,1.555,1.555,0,0,0-.046.3.265.265,0,0,0,.523.081A1.535,1.535,0,0,0,214.056,196.943Z" transform="translate(-3333.227 -1706.775)" fill="#472c1f"/>
    <path id="Path_21496" data-name="Path 21496" d="M224.143,196.255a.716.716,0,0,0-.107-.319.223.223,0,0,0-.379.039.72.72,0,0,0-.039.333,1.548,1.548,0,0,0,.031.3.265.265,0,0,0,.526-.054A1.517,1.517,0,0,0,224.143,196.255Z" transform="translate(-3340.07 -1706.354)" fill="#472c1f"/>
    <path id="Path_21497" data-name="Path 21497" d="M213.964,213.855a3.1,3.1,0,0,1,1.547.572c.123.087-.025.268-.148.181a2.86,2.86,0,0,0-1.435-.522C213.778,214.073,213.814,213.842,213.964,213.855Z" transform="translate(-3333.459 -1718.52)" fill="#fda98f"/>
    <path id="Path_21498" data-name="Path 21498" d="M222.5,190.369c.4-.263,1.13.137,1.333.512a.209.209,0,0,1-.226.283c-.194-.057-.362-.168-.553-.236s-.418-.066-.563-.2A.227.227,0,0,1,222.5,190.369Z" transform="translate(-3339.258 -1702.595)" fill="#3f2500"/>
    <path id="Path_21499" data-name="Path 21499" d="M211.823,190.713a2.35,2.35,0,0,1,1.816-.549c.27.019.237.418-.009.458a5.925,5.925,0,0,0-.878.177,3.842,3.842,0,0,1-.754.232A.2.2,0,0,1,211.823,190.713Z" transform="translate(-3332.072 -1702.51)" fill="#3f2500"/>
    <path id="Path_21500" data-name="Path 21500" d="M212.831,205.752a10.141,10.141,0,0,0,3.035,1.139,2.727,2.727,0,0,0-.3.548,6.607,6.607,0,0,1-2.636-1.111A2.947,2.947,0,0,1,212.831,205.752Z" transform="translate(-3332.783 -1713.045)" fill="#f3f3f3"/>
    <path id="Path_21501" data-name="Path 21501" d="M215.771,208.637c-.088.207-.163.42-.242.628a2.462,2.462,0,0,1-1.736-.619,2.29,2.29,0,0,1-.658-1.12A6.607,6.607,0,0,0,215.771,208.637Z" transform="translate(-3332.988 -1714.244)" fill="#b51c1c"/>
    <path id="Path_21502" data-name="Path 21502" d="M197.865,221.062a3.269,3.269,0,0,0,4.6,2.485c.344-.145.494.417.154.56a3.826,3.826,0,0,1-5.31-2.891C197.241,220.851,197.8,220.694,197.865,221.062Z" transform="translate(-3322.29 -1723.247)" fill="#d50000"/>
    <path id="Path_21503" data-name="Path 21503" d="M202.227,171.1c-.788.418-1.57.853-2.339,1.31-.042-.039-.084-.078-.127-.12a6.491,6.491,0,0,0-10.513,2.251,6.1,6.1,0,0,0,.386,5.553c-.039.032-.075.068-.114.1a.325.325,0,0,0,.444.474,56.906,56.906,0,0,1,6.076-4.992q2.1-1.5,4.321-2.8c.717-.422,1.44-.824,2.177-1.213A.325.325,0,0,0,202.227,171.1Z" transform="translate(-3316.523 -1689.217)" fill="#ff1744"/>
    <path id="Path_21504" data-name="Path 21504" d="M221.442,199.665l-.8-2.847c-.056-.2-.373-.132-.317.069l.754,2.689-.708.144a.162.162,0,0,0,.069.317l.877-.179A.164.164,0,0,0,221.442,199.665Z" transform="translate(-3337.794 -1706.928)" fill="#472c1f"/>
    <path id="Path_21505" data-name="Path 21505" d="M200.917,176.061l-8.931,6.864c-.332.255.1.736.433.483l8.931-6.864C201.682,176.289,201.246,175.808,200.917,176.061Z" transform="translate(-3318.619 -1692.937)" fill="#d50000"/>
    <path id="Path_21506" data-name="Path 21506" d="M279.786,274.458h25.635l-.89,15.328H280.675Z" transform="translate(-3378.019 -1759.465)" fill="#d31744"/>
    <path id="Path_21507" data-name="Path 21507" d="M304.531,321.712l.89,4.409H279.786l.89-4.409Z" transform="translate(-3378.019 -1791.39)" fill="#ff1744"/>
    <path id="Path_21508" data-name="Path 21508" d="M314.132,265.035v-3.291a3.7,3.7,0,0,0-3.281-3.722,3.635,3.635,0,0,0-3.981,3.615v3.4a.3.3,0,0,1-.3.3h0a.3.3,0,0,1-.3-.3v-3.276a4.305,4.305,0,0,1,4.012-4.341,4.229,4.229,0,0,1,4.437,4.219v3.4a.3.3,0,0,1-.3.3h0A.3.3,0,0,1,314.132,265.035Z" transform="translate(-3395.917 -1747.948)" fill="#263238"/>
    <path id="Path_21509" data-name="Path 21509" d="M324.23,259.317h0a.344.344,0,0,1,.093-.478l1.339-.9a.344.344,0,0,1,.478.093h0a.344.344,0,0,1-.093.478l-1.339.9A.345.345,0,0,1,324.23,259.317Z" transform="translate(-3408.007 -1748.261)" fill="#ffc9b9"/>
    <path id="Path_21510" data-name="Path 21510" d="M325.57,261.228h0a.344.344,0,0,1,.092-.478l1.339-.9a.345.345,0,0,1,.479.093h0a.344.344,0,0,1-.093.478l-1.339.9A.344.344,0,0,1,325.57,261.228Z" transform="translate(-3408.912 -1749.553)" fill="#ffc9b9"/>
    <path id="Path_21511" data-name="Path 21511" d="M327.356,263.324h0a.345.345,0,0,1,.093-.478l1.339-.9a.344.344,0,0,1,.478.093h0a.344.344,0,0,1-.093.478l-1.339.9A.345.345,0,0,1,327.356,263.324Z" transform="translate(-3410.119 -1750.968)" fill="#ffc9b9"/>
    <path id="Path_21512" data-name="Path 21512" d="M328.685,265.352h0a.345.345,0,0,1,.093-.478l1.166-.787a.344.344,0,0,1,.478.093h0a.344.344,0,0,1-.093.478l-1.165.787A.345.345,0,0,1,328.685,265.352Z" transform="translate(-3411.017 -1752.417)" fill="#ffc9b9"/>
    <path id="Path_21513" data-name="Path 21513" d="M145.18,382.056l-5.974-18.432c-.256-.789-1.519-.49-1.261.307l5.975,18.432C144.174,383.152,145.438,382.853,145.18,382.056Z" transform="translate(-3282.164 -1819.395)" fill="#00cfa1"/>
    <path id="Path_21514" data-name="Path 21514" d="M134.78,348.73l-.835-2.316a.706.706,0,0,0-.286-.4.649.649,0,0,0-.975.7l.834,2.316a.709.709,0,0,0,.286.4.663.663,0,0,0,.5.08A.656.656,0,0,0,134.78,348.73Z" transform="translate(-3278.615 -1807.744)" fill="#00cfa1"/>
    <path id="Path_21515" data-name="Path 21515" d="M113.215,278.209l-2.337-7.778c-.239-.8-1.5-.5-1.261.307l2.337,7.778C112.193,279.312,113.456,279.012,113.215,278.209Z" transform="translate(-3263.028 -1756.428)" fill="#00cfa1"/>
    <path id="Path_21516" data-name="Path 21516" d="M316.1,256.581h0a.47.47,0,0,0,.046-.663l-1.445-1.663a.47.47,0,0,0-.663-.046h0a.47.47,0,0,0-.047.663l1.445,1.663A.47.47,0,0,0,316.1,256.581Z" transform="translate(-3401.052 -1745.706)" fill="#ffc9b9"/>
    <path id="Path_21517" data-name="Path 21517" d="M312.423,258.463h0a.47.47,0,0,0,.047-.663l-1.445-1.663a.47.47,0,0,0-.663-.047h0a.47.47,0,0,0-.046.663l1.445,1.663A.47.47,0,0,0,312.423,258.463Z" transform="translate(-3398.568 -1746.977)" fill="#ffc9b9"/>
    <path id="Path_21518" data-name="Path 21518" d="M309.331,260.593h0a.47.47,0,0,0,.046-.663l-1.445-1.663a.47.47,0,0,0-.663-.047h0a.47.47,0,0,0-.047.663l1.445,1.663A.47.47,0,0,0,309.331,260.593Z" transform="translate(-3396.479 -1748.417)" fill="#ffc9b9"/>
    <path id="Path_21519" data-name="Path 21519" d="M307.341,262.922h0a.47.47,0,0,0,.046-.663l-1.258-1.448a.47.47,0,0,0-.663-.046h0a.47.47,0,0,0-.046.663l1.258,1.448A.47.47,0,0,0,307.341,262.922Z" transform="translate(-3395.261 -1750.135)" fill="#ffc9b9"/>
  </g>
</svg>
