<svg xmlns="http://www.w3.org/2000/svg" width="183.167" height="128.332" viewBox="0 0 183.167 128.332">
  <g id="Group_18934" data-name="Group 18934" transform="translate(2888.516 1556.086)">
    <path id="Path_21187" data-name="Path 21187" d="M338.02,431.951l.762-.091.03.152-.746.269Z" transform="translate(-3146.213 -1868.405)" fill="#5d79af"/>
    <path id="Path_21188" data-name="Path 21188" d="M256.364,174.578a77.486,77.486,0,1,0-149.495,0Z" transform="translate(-2983.542 -1621.334)" fill="#f8e8dd"/>
    <line id="Line_5815" data-name="Line 5815" x2="177.798" transform="translate(-2888.516 -1446.757)" fill="none" stroke="#f1a24c" stroke-miterlimit="10" stroke-width="2"/>
    <path id="Path_21189" data-name="Path 21189" d="M98.957,347.107a10.541,10.541,0,0,0-2.643,1.531c.962-1.5,2.027-3.315,2.027-3.315l5.971.909c-.779-1.168-5.16-3.57-7.237-1.752a10.508,10.508,0,0,0-1.882,2.439,12.552,12.552,0,0,0-1.234-4.5c-1.4-2.142-7.17-3.423-7.17-3.423.487,1.006,5.419,3.926,5.419,3.926l.86,3.5a9.1,9.1,0,0,0-1.51-1.841c-2.077-1.817-6.457.584-7.236,1.752l5.971-.909s1.065,1.811,2.027,3.315a10.527,10.527,0,0,0-2.643-1.53c-2.336-.811-4.77,3.894-4.77,3.894l4.316-2.823A42.862,42.862,0,0,0,93.186,351c-.066.162-.1.256-.1.256a3.079,3.079,0,0,0,.5-.056,1.649,1.649,0,0,0,1.27.054,3.228,3.228,0,0,0,.694.1s-.028-.072-.079-.2l.079.009s0-.111-.012-.306a44.267,44.267,0,0,0,3.873-2.677L103.727,351S101.294,346.3,98.957,347.107Z" transform="translate(-2969.765 -1803.815)" fill="#a3a357"/>
    <path id="Path_21190" data-name="Path 21190" d="M111.244,376.293h-9.031a8.982,8.982,0,0,0,1.947,6.5H109.3A8.983,8.983,0,0,0,111.244,376.293Z" transform="translate(-2982.176 -1829.758)" fill="#f1a24c"/>
    <rect id="Rectangle_7166" data-name="Rectangle 7166" width="19.287" height="3.029" transform="translate(-2744.324 -1539.223)" fill="#b2b661"/>
    <path id="Path_21191" data-name="Path 21191" d="M405.939,430.853l9.956,3.914,17.327-3.16-9.474-4.071Z" transform="translate(-3193.451 -1865.397)" fill="#b2b661"/>
    <path id="Path_21192" data-name="Path 21192" d="M438.635,444.064v2.877l17.327-3.615a2.227,2.227,0,0,0,0-2.422Z" transform="translate(-3216.191 -1874.695)" fill="#a3a357"/>
    <path id="Path_21193" data-name="Path 21193" d="M408.43,439.409v2.7l9.2,3.79v-2.877Z" transform="translate(-3195.184 -1873.655)" fill="#f8e8dd"/>
    <path id="Path_21194" data-name="Path 21194" d="M405.939,438.43v.3l9.684,3.838V444.6l-9.6-3.79v.389l9.874,4.024v-2.947Z" transform="translate(-3193.451 -1872.974)" fill="#898743"/>
    <circle id="Ellipse_2206" data-name="Ellipse 2206" cx="4.711" cy="4.711" r="4.711" transform="translate(-2826.386 -1537.882) rotate(-76.807)" fill="none" stroke="#728bcb" stroke-miterlimit="10" stroke-width="1"/>
    <circle id="Ellipse_2207" data-name="Ellipse 2207" cx="5.672" cy="5.672" r="5.672" transform="translate(-2778.087 -1541.393) rotate(-45)" fill="none" stroke="#b2b661" stroke-miterlimit="10" stroke-width="1" stroke-dasharray="4"/>
    <circle id="Ellipse_2208" data-name="Ellipse 2208" cx="2.545" cy="2.545" r="2.545" transform="translate(-2737.599 -1527.403) rotate(-80.807)" fill="#ffc593"/>
    <path id="Path_21195" data-name="Path 21195" d="M361.589,46.493c-.061-.157-.126-.312-.2-.464l1.566-3.07-.534-.471-1.336-1.177-.534-.471-2.538,1.726a7.351,7.351,0,0,0-.927-.386l-.746-2.91h-3.2l-.745,2.9a7.327,7.327,0,0,0-.944.392l-2.539-1.726-.534.471-1.336,1.177-.534.471,1.566,3.07q-.106.226-.2.459l-2.955.758v3.2l2.739.7q.1.35.231.685l-1.584,3.107.534.471,1.336,1.177.534.471,2.313-1.573a7.308,7.308,0,0,0,1.241.579l.657,2.564h3.2l.621-2.42a7.312,7.312,0,0,0,1.476-.6l2.131,1.449.534-.471,1.336-1.177.534-.471-1.368-2.683a7.325,7.325,0,0,0,.415-1.114l2.721-.7v-3.2Zm-3.25,2.651a3.42,3.42,0,1,1-3.419-3.42A3.42,3.42,0,0,1,358.339,49.144Z" transform="translate(-3151.013 -1595.356)" fill="#f1a24c"/>
    <circle id="Ellipse_2209" data-name="Ellipse 2209" cx="8.879" cy="8.879" r="8.879" transform="translate(-2876.865 -1525.006)" fill="none" stroke="#b2b661" stroke-miterlimit="10" stroke-width="1" stroke-dasharray="4"/>
    <path id="Path_21196" data-name="Path 21196" d="M132.544,156.084c-.036-.092-.074-.183-.116-.272l.919-1.8-.314-.276-.783-.691-.314-.276-1.489,1.013a4.262,4.262,0,0,0-.544-.226l-.438-1.707h-1.881l-.437,1.7a4.319,4.319,0,0,0-.554.23l-1.489-1.013-.314.276-.783.691-.313.276.918,1.8c-.041.088-.079.178-.115.269l-1.733.445v1.88l1.607.412a4.19,4.19,0,0,0,.136.4l-.93,1.823.314.276.783.691.314.276,1.357-.923a4.294,4.294,0,0,0,.728.34l.385,1.5h1.881l.364-1.42a4.284,4.284,0,0,0,.866-.351l1.25.85.314-.276.783-.691.314-.276-.8-1.574a4.3,4.3,0,0,0,.243-.653l1.6-.41v-1.88Zm-1.907,1.555a2.006,2.006,0,1,1-2.007-2.006A2.007,2.007,0,0,1,130.637,157.639Z" transform="translate(-2996.502 -1673.654)" fill="none" stroke="#a3a357" stroke-miterlimit="10" stroke-width="1"/>
    <path id="Path_21197" data-name="Path 21197" d="M274.689,433.249l14.944-3.007a2.7,2.7,0,0,1,.945,2.986l-17.843,3.752Z" transform="translate(-3100.807 -1867.28)" fill="#ffc593"/>
    <path id="Path_21198" data-name="Path 21198" d="M328.231,430.242l3.032.484.11.494-2.2,2.008A2.936,2.936,0,0,0,328.231,430.242Z" transform="translate(-3139.405 -1867.28)" fill="#f1a24c"/>
    <path id="Path_21199" data-name="Path 21199" d="M269.323,443.179l-4.672.975s-1.6-.771-.913-3.065l4.663-1.035A3.172,3.172,0,0,1,269.323,443.179Z" transform="translate(-3094.429 -1874.104)" fill="#b2b661"/>
    <path id="Path_21200" data-name="Path 21200" d="M264.651,446.518s-1.6-.771-.913-3.065A3,3,0,0,1,264.651,446.518Z" transform="translate(-3094.429 -1876.468)" fill="#898743"/>
    <circle id="Ellipse_2210" data-name="Ellipse 2210" cx="6.743" cy="6.743" r="6.743" transform="translate(-2858.512 -1543.299) rotate(-45)" fill="none" stroke="#812c53" stroke-miterlimit="10" stroke-width="1"/>
    <ellipse id="Ellipse_2211" data-name="Ellipse 2211" cx="2.211" cy="6.743" rx="2.211" ry="6.743" transform="translate(-2851.186 -1550.042)" fill="none" stroke="#812c53" stroke-miterlimit="10" stroke-width="1"/>
    <path id="Path_21201" data-name="Path 21201" d="M184.167,71.575a18.264,18.264,0,0,0,12.129,0" transform="translate(-3039.207 -1617.825)" fill="none" stroke="#812c53" stroke-miterlimit="10" stroke-width="1"/>
    <path id="Path_21202" data-name="Path 21202" d="M196.3,89a18.261,18.261,0,0,0-12.129,0" transform="translate(-3039.207 -1629.216)" fill="none" stroke="#812c53" stroke-miterlimit="10" stroke-width="1"/>
    <line id="Line_5816" data-name="Line 5816" x2="13.486" transform="translate(-2855.719 -1543.299)" fill="none" stroke="#812c53" stroke-miterlimit="10" stroke-width="1"/>
    <path id="Path_21203" data-name="Path 21203" d="M104.81,249.1a2.415,2.415,0,0,1-1.363.7v.243a.723.723,0,0,1-.722.723h0a.723.723,0,0,1-.723-.723v-.213a4.037,4.037,0,0,1-1.6-.493.485.485,0,0,1-.2-.594l.083-.215a.486.486,0,0,1,.695-.242l.006,0a3.453,3.453,0,0,0,.71.291,2.86,2.86,0,0,0,.814.118,1.532,1.532,0,0,0,.853-.227.635.635,0,0,0,.146-1.015,1.618,1.618,0,0,0-.5-.314,7.729,7.729,0,0,0-.759-.252,5.308,5.308,0,0,1-1.093-.437,2.141,2.141,0,0,1-.753-.689,1.905,1.905,0,0,1-.291-1.084,1.816,1.816,0,0,1,.222-.889,1.934,1.934,0,0,1,.643-.683,2.638,2.638,0,0,1,1.017-.382v-.455a.722.722,0,0,1,.723-.722h0a.722.722,0,0,1,.722.722v.461a3.253,3.253,0,0,1,.9.3c.055.029.106.057.154.086a.545.545,0,0,1,.2.7h0a.55.55,0,0,1-.776.236,3.01,3.01,0,0,0-.411-.216,1.965,1.965,0,0,0-.665-.118,1.57,1.57,0,0,0-.865.224.727.727,0,0,0-.349.65.767.767,0,0,0,.395.7,3.28,3.28,0,0,0,.99.373,3.848,3.848,0,0,1,1.648.777,1.7,1.7,0,0,1,.635,1.348A1.856,1.856,0,0,1,104.81,249.1Z" transform="translate(-2980.752 -1736.039)" fill="#728bcb"/>
    <path id="Path_21204" data-name="Path 21204" d="M615.868,184.222l11,43.132a.8.8,0,0,0,1.086.542h0a.8.8,0,0,0,.468-.939l-10.983-42.9Z" transform="translate(-3339.458 -1696.056)" fill="#4c1e3c"/>
    <path id="Path_21205" data-name="Path 21205" d="M583.695,149.462l5.655.9a7.768,7.768,0,0,1,6.429,6.347h0a7.768,7.768,0,0,1-3.217,7.7l-6.3,4.385Z" transform="translate(-3317.081 -1671.996)" fill="#812c53"/>
    <path id="Path_21206" data-name="Path 21206" d="M567.687,168.44a5.4,5.4,0,0,1-3.5-.482c-2.526-1.208-4.7-4.183-5.5-7.968-.765-3.617-.087-7.065,1.559-9.22a5.537,5.537,0,0,1,3.244-2.155c3.813-.808,7.843,2.974,9,8.45S571.5,167.632,567.687,168.44Z" transform="translate(-3299.469 -1671.331)" fill="#602945"/>
    <path id="Path_21207" data-name="Path 21207" d="M613.737,160.006l3.841.132a3.189,3.189,0,0,1,3.07,2.94h0a3.189,3.189,0,0,1-2.106,3.25l-3.267,1.167Z" transform="translate(-3337.976 -1679.329)" fill="#812c53"/>
    <path id="Path_21208" data-name="Path 21208" d="M564.185,173.13c-2.526-1.208-4.7-4.183-5.5-7.968-.765-3.617-.087-7.065,1.559-9.22,2.757.756,7.6,2.577,8.637,6.215C570.074,166.316,567.624,171.165,564.185,173.13Z" transform="translate(-3299.469 -1676.502)" fill="#812c53"/>
    <circle id="Ellipse_2212" data-name="Ellipse 2212" cx="3.708" cy="3.708" r="3.708" transform="translate(-2737.371 -1512.983) rotate(-45)" fill="#fff"/>
    <path id="Path_21209" data-name="Path 21209" d="M631.568,285.478h-6.629V232.322a1.166,1.166,0,0,0-1.167-1.166h0a1.166,1.166,0,0,0-1.166,1.166v53.156H616.07a1.56,1.56,0,0,0-1.574,1.367A1.517,1.517,0,0,0,616,288.51h15.628a1.517,1.517,0,0,0,1.509-1.665A1.56,1.56,0,0,0,631.568,285.478Z" transform="translate(-3338.499 -1728.814)" fill="#b2b661"/>
    <circle id="Ellipse_2213" data-name="Ellipse 2213" cx="2.436" cy="2.436" r="2.436" transform="translate(-2716.772 -1483.316)" fill="#f1a24c"/>
    <rect id="Rectangle_7167" data-name="Rectangle 7167" width="29.038" height="12.57" transform="translate(-2813.123 -1463.105)" fill="#812c53"/>
    <path id="Rectangle_7168" data-name="Rectangle 7168" d="M14.715,0h40.24A14.714,14.714,0,0,1,69.669,14.714V91.339a14.714,14.714,0,0,1-14.714,14.714H14.715A14.715,14.715,0,0,1,0,91.338V14.715A14.715,14.715,0,0,1,14.715,0Z" transform="translate(-2746.021 -1531.536) rotate(90)" fill="#812c53"/>
    <path id="Path_21210" data-name="Path 21210" d="M303.941,131.409V192.2a1.34,1.34,0,0,1-1.18,1.331,1.424,1.424,0,0,1-.159.009H205.426a1.34,1.34,0,0,1-1.342-1.339V131.409a1.341,1.341,0,0,1,1.342-1.339H302.6A1.34,1.34,0,0,1,303.941,131.409Z" transform="translate(-3053.06 -1658.508)" fill="#f8e8dd"/>
    <path id="Path_21211" data-name="Path 21211" d="M302.761,196.592a1.428,1.428,0,0,1-.159.009H205.426a1.34,1.34,0,0,1-1.342-1.339V134.468Z" transform="translate(-3053.06 -1661.567)" fill="#efd6c5"/>
    <rect id="Rectangle_7169" data-name="Rectangle 7169" width="91.535" height="48.689" rx="2" transform="translate(-2844.814 -1518.169)" fill="#fff"/>
    <rect id="Rectangle_7170" data-name="Rectangle 7170" width="40.19" height="4.692" rx="2.346" transform="translate(-2794.621 -1525.694)" fill="#fff"/>
    <path id="Path_21212" data-name="Path 21212" d="M350.868,348.7v8.043l-29.038-7.018V348.7Z" transform="translate(-3134.953 -1810.568)" fill="#602945"/>
    <rect id="Rectangle_7171" data-name="Rectangle 7171" width="82.328" height="35.41" transform="translate(-2840.742 -1509.848)" fill="none" stroke="#d6d6d6" stroke-miterlimit="10" stroke-width="1"/>
    <line id="Line_5817" data-name="Line 5817" x2="82.328" transform="translate(-2840.742 -1506.661)" fill="none" stroke="#d6d6d6" stroke-miterlimit="10" stroke-width="1"/>
    <line id="Line_5818" data-name="Line 5818" x2="82.328" transform="translate(-2840.742 -1503.076)" fill="none" stroke="#d6d6d6" stroke-miterlimit="10" stroke-width="1"/>
    <line id="Line_5819" data-name="Line 5819" x2="82.328" transform="translate(-2840.742 -1499.49)" fill="none" stroke="#d6d6d6" stroke-miterlimit="10" stroke-width="1"/>
    <line id="Line_5820" data-name="Line 5820" x2="82.328" transform="translate(-2840.742 -1495.905)" fill="none" stroke="#d6d6d6" stroke-miterlimit="10" stroke-width="1"/>
    <line id="Line_5821" data-name="Line 5821" x2="82.328" transform="translate(-2840.742 -1492.32)" fill="none" stroke="#d6d6d6" stroke-miterlimit="10" stroke-width="1"/>
    <line id="Line_5822" data-name="Line 5822" x2="82.328" transform="translate(-2840.742 -1488.735)" fill="none" stroke="#d6d6d6" stroke-miterlimit="10" stroke-width="1"/>
    <line id="Line_5823" data-name="Line 5823" x2="82.328" transform="translate(-2840.742 -1485.149)" fill="none" stroke="#d6d6d6" stroke-miterlimit="10" stroke-width="1"/>
    <line id="Line_5824" data-name="Line 5824" x2="82.328" transform="translate(-2840.742 -1481.564)" fill="none" stroke="#d6d6d6" stroke-miterlimit="10" stroke-width="1"/>
    <line id="Line_5825" data-name="Line 5825" x2="82.328" transform="translate(-2840.742 -1477.979)" fill="none" stroke="#d6d6d6" stroke-miterlimit="10" stroke-width="1"/>
    <path id="Path_21213" data-name="Path 21213" d="M302.492,388.586h-86.4l-3.718,3.585v3.9h95.7v-3.9Z" transform="translate(-3058.825 -1838.307)" fill="#812c53"/>
    <path id="Path_21214" data-name="Path 21214" d="M307.536,384.879h-81.31L222.84,387.8v1.793h88.082V387.8Z" transform="translate(-3066.105 -1835.729)" fill="#ff6545"/>
    <rect id="Rectangle_7172" data-name="Rectangle 7172" width="4.665" height="39.783" transform="translate(-2768.694 -1474.524) rotate(180)" fill="#728bcb"/>
    <rect id="Rectangle_7173" data-name="Rectangle 7173" width="4.665" height="34.361" transform="translate(-2780.299 -1474.524) rotate(180)" fill="#ff6545"/>
    <rect id="Rectangle_7174" data-name="Rectangle 7174" width="4.665" height="30.727" transform="translate(-2791.903 -1474.524) rotate(180)" fill="#b2b661"/>
    <rect id="Rectangle_7175" data-name="Rectangle 7175" width="4.665" height="24.379" transform="translate(-2803.507 -1474.524) rotate(180)" fill="#728bcb"/>
    <rect id="Rectangle_7176" data-name="Rectangle 7176" width="4.665" height="17.724" transform="translate(-2815.112 -1474.524) rotate(180)" fill="#f1a24c"/>
    <rect id="Rectangle_7177" data-name="Rectangle 7177" width="4.665" height="9.614" transform="translate(-2826.716 -1474.524) rotate(180)" fill="#ff6447"/>
    <path id="Path_21215" data-name="Path 21215" d="M307.6,167.039l-3.017,1.476,1.055.344-1.458,1.673h-10.75l-3.194,5H280.16l-7.8,10.3h-7.068l-7.8,10.3H249.47v.569h8.306l7.8-10.3h7.068l7.8-10.3h10.1l3.194-5h10.7l1.628-1.869.485,1Z" transform="translate(-3084.626 -1684.22)" fill="#ff6545"/>
    <path id="Path_21216" data-name="Path 21216" d="M562.921,435.895l.247,2.187H565.5v-2.046Z" transform="translate(-3302.633 -1871.211)" fill="#ffc593"/>
    <path id="Path_21217" data-name="Path 21217" d="M555.619,441.143s-3.472,2.079-3.472,2.432.106.529,2.258.529,3.457.106,3.739,0-.141-2.961-.141-2.961A5.308,5.308,0,0,0,555.619,441.143Z" transform="translate(-3295.139 -1874.764)" fill="#602945"/>
    <path id="Path_21218" data-name="Path 21218" d="M588.756,435.895l.282,1.555h2.4v-1.414Z" transform="translate(-3320.601 -1871.211)" fill="#ffc593"/>
    <path id="Path_21219" data-name="Path 21219" d="M587.346,440.529h-2.425l-.346,1.142c-.395.351-.978.86-1.286,1.08-.494.353-.811.87.635,1.07a.953.953,0,0,0,.268,0H587.2a.538.538,0,0,0,.538-.571C587.673,442.225,587.346,440.529,587.346,440.529Z" transform="translate(-3316.511 -1874.434)" fill="#602945"/>
    <path id="Path_21220" data-name="Path 21220" d="M594.06,299.571s.334,4.627.668,7.992-1.437,8.928-1.437,8.928a5.507,5.507,0,0,1-.368,1.721,1.738,1.738,0,0,1-.834.769l-.137-4.276.241-5.529-.909-5.612.837-2.589Z" transform="translate(-3322.36 -1776.397)" fill="#ffc593"/>
    <path id="Path_21221" data-name="Path 21221" d="M591.841,277.778s2.2,1.892,3.675,6.9l-3.207,2.072S592.576,280.029,591.841,277.778Z" transform="translate(-3322.747 -1761.24)" fill="#db8835"/>
    <path id="Path_21222" data-name="Path 21222" d="M590.742,340.928l4.794,1.137-1.051,6.457-3.98-1.267Z" transform="translate(-3321.817 -1805.161)" fill="#b2b661"/>
    <path id="Path_21223" data-name="Path 21223" d="M568.34,365.29l-3.512.327L561.508,340.9l-1.351,24.821-3.173.208a.112.112,0,0,0,0-.02c-.045-.489-.9-9.5-1.3-14.519-.381-4.763-.654-15.77-.694-17.448,0-.142-.005-.216-.005-.216,7.134,1.447,11.57,0,11.57,0Z" transform="translate(-3297.111 -1800.155)" fill="#602945"/>
    <path id="Path_21224" data-name="Path 21224" d="M556.589,353.019a99.993,99.993,0,0,0,1.237,13.333l-.833.054c-.045-.489-.9-9.5-1.3-14.519-.381-4.763-.654-15.77-.694-17.448a12.64,12.64,0,0,0,3.418.586S556.117,337.016,556.589,353.019Z" transform="translate(-3297.124 -1800.649)" fill="#4c1e3c"/>
    <path id="Path_21225" data-name="Path 21225" d="M565.293,252.443l-3.049,1.114v-2.178a3.894,3.894,0,0,1-2.13-3.4c-.1-2.509.871-5.123,3.776-5.026s3.34,3.147,3.1,4.357a8.383,8.383,0,0,1-1.6,2.807Z" transform="translate(-3300.675 -1737.019)" fill="#ffc593"/>
    <path id="Path_21226" data-name="Path 21226" d="M564.238,241.78a2.671,2.671,0,0,0-.472,2.057s.5-.605.956-.581.678.654.387,1.5a1.229,1.229,0,0,1-1.234.774,5.491,5.491,0,0,0,.823.993l2.551-.217s2.048-1.913,2.29-3.05-.194-1.477-.194-1.477a2.221,2.221,0,0,0-.442-2.009,8.081,8.081,0,0,0-4.109-2.3c-1.017,0-.968.605-.968.605s-.968-.509-1.041.46A4.177,4.177,0,0,0,564.238,241.78Z" transform="translate(-3302.535 -1733.207)" fill="#602945"/>
    <path id="Path_21227" data-name="Path 21227" d="M556,273.764l-4.319,1.567,1,16.57a28.207,28.207,0,0,0,6.773.668,14.454,14.454,0,0,0,4.786-.735s1-12.227.935-14.031a5.6,5.6,0,0,0-1.269-3.161l-2.124-.82A8.247,8.247,0,0,0,556,273.764Z" transform="translate(-3294.819 -1758.104)" fill="#f1a24c"/>
    <path id="Path_21228" data-name="Path 21228" d="M565.12,271.716a3.7,3.7,0,0,1,2.479-1.455,2.372,2.372,0,0,1,2.59,1.131A9.877,9.877,0,0,0,565.12,271.716Z" transform="translate(-3304.162 -1755.974)" fill="#db8835"/>
    <path id="Path_21229" data-name="Path 21229" d="M538.885,310.73c-.1-.885-.307-.958-.307-.958l-3.729-4.9,3.062-4.639-3.224-3.735s-3.385,6.414-3.564,8.374,5.88,6.771,5.88,6.771a14.6,14.6,0,0,0,.763,1.476s.067.468.134.868.668.367.668.367l.011-1.235A8.5,8.5,0,0,0,538.885,310.73Z" transform="translate(-3280.515 -1774.26)" fill="#ffc593"/>
    <path id="Path_21230" data-name="Path 21230" d="M542.478,280.041l-4.031,4.922,4.56,3.824S544.817,283.939,542.478,280.041Z" transform="translate(-3285.611 -1762.814)" fill="#f1a24c"/>
    <path id="Path_21231" data-name="Path 21231" d="M553.423,289.916s1.2-5.267,0-8.253a6.406,6.406,0,0,1,1.583,5.037c-.2,3.412-1.5,4.595-1.5,4.595Z" transform="translate(-3296.027 -1763.942)" fill="#db8835"/>
    <path id="Path_21232" data-name="Path 21232" d="M576.416,352.939l3.64-1.9s-1.259,1.1-.894,7.962,2.352,18.49,2.352,18.49l-1.777.166Z" transform="translate(-3312.019 -1812.19)" fill="#4c1e3c"/>
    <path id="Path_21233" data-name="Path 21233" d="M170.229,382.143s1.679,11.829,3.8,16.92l1.874-.379-1.852-17.826Z" transform="translate(-3029.513 -1832.933)" fill="#ffc593"/>
    <path id="Path_21234" data-name="Path 21234" d="M181.484,437.467a11.6,11.6,0,0,0,.447,3.215l.416.886.7-.142-.167-.828s.883.317,1.36.436a14.336,14.336,0,0,0,4.088-.675c.4-.274-2.82-1.262-2.82-1.262a2.414,2.414,0,0,1-2.163.179A5.177,5.177,0,0,1,181.484,437.467Z" transform="translate(-3037.341 -1872.305)" fill="#812c53"/>
    <path id="Path_21235" data-name="Path 21235" d="M183.612,437.428a11.3,11.3,0,0,0,2.013,1.641c.509.163-1.241,1.114-2.515.25a3.259,3.259,0,0,1-1.464-1.8Z" transform="translate(-3037.455 -1872.277)" fill="#ffc593"/>
    <path id="Path_21236" data-name="Path 21236" d="M156.474,384.265s-.7,11.927.37,17.337h1.912l1.716-17.839Z" transform="translate(-3019.791 -1834.953)" fill="#ffc593"/>
    <path id="Path_21237" data-name="Path 21237" d="M149.253,273.574,144.5,275.5l2.631,14.054,6.672-.254,1.553-13.978-3.418-1.087v.739Z" transform="translate(-3011.615 -1758.316)" fill="#b2b661"/>
    <path id="Path_21238" data-name="Path 21238" d="M156.847,291.643l1.424,7.272,4.949-1.114-1.413-6.938Z" transform="translate(-3020.206 -1770.341)" fill="#efebff"/>
    <path id="Path_21239" data-name="Path 21239" d="M141.669,281.234a31.1,31.1,0,0,0,1.736,7.45,2.128,2.128,0,0,0,2.648,1.141l5.895-2.031-.6-1.728-5.44.65a31.28,31.28,0,0,0-1-6.228c-.008-.023-.016-.045-.024-.067A1.669,1.669,0,0,0,141.669,281.234Z" transform="translate(-3009.638 -1762.328)" fill="#ffc593"/>
    <path id="Path_21240" data-name="Path 21240" d="M179.169,279.312s.808.624.639,3.5.835,5.928-1.067,6.181C178.741,288.99,178.816,280.829,179.169,279.312Z" transform="translate(-3035.434 -1762.307)" fill="#eda36b"/>
    <path id="Path_21241" data-name="Path 21241" d="M173.6,275.75a2.156,2.156,0,0,1-1.089,2.09s-.671.219-1.51-1.152c-.506-.83-.461-8.84-.455-9.617a.026.026,0,0,1-.011,0l0-.006-.7-1.41-.045-.094.079-.332,0,0,.6.441.136-.631.671-1.763.418.455v0l.091.1.122.333s.336.239.31.429-.31,1.655-.31,1.655a.333.333,0,0,1-.051.085C172.213,267.913,173.638,274.285,173.6,275.75Z" transform="translate(-3029.205 -1751.157)" fill="#ffc593"/>
    <path id="Path_21242" data-name="Path 21242" d="M171.273,266.531s-.182.594-.623.54a.026.026,0,0,1-.014,0l-.7-1.41c.006-.136.02-.279.037-.424l.6.441.136-.631.671-1.763.418.455v0A3.737,3.737,0,0,1,171.273,266.531Z" transform="translate(-3029.308 -1751.157)" fill="#eda36b"/>
    <path id="Path_21243" data-name="Path 21243" d="M156.686,256.053l2.662.972v-1.9a3.4,3.4,0,0,0,1.86-2.965c.084-2.19-.761-4.472-3.3-4.388s-2.916,2.747-2.7,3.8a7.32,7.32,0,0,0,1.395,2.451Z" transform="translate(-3019.031 -1740.368)" fill="#ffc593"/>
    <path id="Path_21244" data-name="Path 21244" d="M148.766,246.361a4.973,4.973,0,0,0-1.648,2.409,37.476,37.476,0,0,0-1.374,5.536l1.511.148.264-1.014-.021,1.014s1.936.217,2.6.211a30.672,30.672,0,0,0,0-3.19c-.106-.909-.74-.38-1.014-1.627s.676-1.035.93-.613a2.206,2.206,0,0,1,.3.8l.232-.127a3.315,3.315,0,0,0,0-2.071,8.288,8.288,0,0,1,2.113-.359v-.592l.275.571,1.166.2a5.26,5.26,0,0,1,.572,2.166,3.14,3.14,0,0,0,0-2.494C154.111,245.854,151.09,244.459,148.766,246.361Z" transform="translate(-3012.484 -1738.747)" fill="#602945"/>
    <path id="Path_21245" data-name="Path 21245" d="M157.7,339.32v0l-9.091,1.615s-2.994-11.493-2.866-15.636,1.695-6.159,1.695-6.159c6.219,1.024,7.476,0,7.476,0C158.119,324.656,157.7,339.044,157.7,339.32Z" transform="translate(-3012.478 -1790.01)" fill="#602945"/>
    <path id="Path_21246" data-name="Path 21246" d="M157.028,438.994a11.6,11.6,0,0,0-.2,3.24l.232.951h.718v-.845s.8.486,1.247.7a14.346,14.346,0,0,0,4.141.148c.444-.19-2.514-1.8-2.514-1.8a2.414,2.414,0,0,1-2.155-.253A5.178,5.178,0,0,1,157.028,438.994Z" transform="translate(-3020.146 -1873.367)" fill="#812c53"/>
    <path id="Path_21247" data-name="Path 21247" d="M159.692,439.581a11.3,11.3,0,0,0,1.648,2.007c.467.261-1.437.846-2.515-.253a3.258,3.258,0,0,1-1.078-2.055Z" transform="translate(-3020.833 -1873.566)" fill="#ffc593"/>
    <path id="Path_21248" data-name="Path 21248" d="M158.519,273.574l2.367,1.285a3.089,3.089,0,0,1-1.673.463c-.782-.094-1.394-1.447-1.394-1.447Z" transform="translate(-3020.882 -1758.316)" fill="#602945"/>
    <path id="Path_21249" data-name="Path 21249" d="M168.2,274.769l-.314.921s.271.389.578.283.232-.909.232-.909Z" transform="translate(-3027.887 -1759.147)" fill="#602945"/>
    <path id="Path_21250" data-name="Path 21250" d="M161.575,339.32c0-.077-.017-2.872-2.352-8.639-2.369-5.849-7.911-11.539-7.911-11.539,6.219,1.024,7.476,0,7.476,0C162,324.656,161.584,339.044,161.575,339.32Z" transform="translate(-3016.357 -1790.01)" fill="#4c1e3c"/>
    <path id="Path_21251" data-name="Path 21251" d="M161.325,266.8a2.883,2.883,0,0,0,2.313,1.559v.5A2.22,2.22,0,0,1,161.325,266.8Z" transform="translate(-3023.321 -1753.608)" fill="#eda36b"/>
    <path id="Path_21252" data-name="Path 21252" d="M155.48,304.084a10.947,10.947,0,0,1-.142,1.7S156.272,305.244,155.48,304.084Z" transform="translate(-3019.157 -1779.536)" fill="#eda36b"/>
    <path id="Path_21253" data-name="Path 21253" d="M171.031,388.716l3.578-1.957-.107-1.033-3.842.683S171.006,388.568,171.031,388.716Z" transform="translate(-3029.813 -1836.318)" fill="#eda36b"/>
    <path id="Path_21254" data-name="Path 21254" d="M160.275,390.6l-3.784.295.076-2.056,3.945-.7Z" transform="translate(-3019.959 -1837.997)" fill="#eda36b"/>
  </g>
</svg>
